  0
SECTION
  2
HEADER
  9
$ANGBASE
  50
0.0
  9
$ANGDIR
  70
1
  9
$MEASUREMENT
  70
0
  0
ENDSEC
  0
SECTION
  2
TABLES
  0
TABLE
  2
LTYPE
  70
4
  0
LTYPE
  5
40F
  2
CONTINUOUS
  70
0
  3
Solid line
  72
65
  73
0
  40
0.0
  0
LTYPE
  5
410
  2
DASHDOT
 70
0
  3
Dash Dot ____ _ ____ _
 72
65
 73
4
 40
2.0
 49
1.25
 49
-0.25
 49
0.25
 49
-0.25
  0
LTYPE
  5
411
  2
DASHED
 70
0
  3
Dashed __ __ __ __ __
 72
65
 73
2
 40
0.75
 49
0.5
 49
-0.25
  0
LTYPE
  5
43B
  2
DOTTED
 70
0
  3
Dotted .  .  .  .
 72
65
 73
2
 40
0.2
 49
0.0
 49
-0.2
  0
ENDTAB
  0
TABLE
  2
STYLE
  70
4
  0
STYLE
  2
KICAD
  70
0
  40
0
  41
1
  42
1
  50
0
  71
0
  3
isocp.shx
  0
STYLE
  2
KICADB
  70
0
  40
0
  41
1
  42
1
  50
0
  71
0
  3
isocp.shx
  0
STYLE
  2
KICADI
  70
0
  40
0
  41
1
  42
1
  50
15
  71
0
  3
isocp.shx
  0
STYLE
  2
KICADBI
  70
0
  40
0
  41
1
  42
1
  50
15
  71
0
  3
isocp.shx
  0
ENDTAB
  0
TABLE
  2
LAYER
  70
1
  0
LAYER
  2
BLACK
  70
0
  62
7
  6
CONTINUOUS
  0
ENDTAB
  0
ENDSEC
  0
SECTION
  2
ENTITIES
0
LINE
8
BLACK
6
CONTINUOUS
10
0.3542145669291338
20
0.0600983070866142
11
0.354661062992126
21
0.059835157480315
0
LINE
8
BLACK
6
CONTINUOUS
10
0.354661062992126
20
0.059835157480315
11
0.355683779527559
21
0.0592409448818898
0
LINE
8
BLACK
6
CONTINUOUS
10
0.355683779527559
20
0.0592409448818898
11
0.3572322047244094
21
0.0583447637795276
0
LINE
8
BLACK
6
CONTINUOUS
10
0.3572322047244094
20
0.0583447637795276
11
0.3592556299212598
21
0.0571758267716535
0
LINE
8
BLACK
6
CONTINUOUS
10
0.3592556299212598
20
0.0571758267716535
11
0.3617033858267716
21
0.0557633464566929
0
LINE
8
BLACK
6
CONTINUOUS
10
0.3617033858267716
20
0.0557633464566929
11
0.3645248818897638
21
0.0541364960629921
0
LINE
8
BLACK
6
CONTINUOUS
10
0.3645248818897638
20
0.0541364960629921
11
0.3676694881889764
21
0.0523245669291339
0
LINE
8
BLACK
6
CONTINUOUS
10
0.3676694881889764
20
0.0523245669291339
11
0.3710865748031496
21
0.0503567322834646
0
LINE
8
BLACK
6
CONTINUOUS
10
0.3710865748031496
20
0.0503567322834646
11
0.3747254724409449
21
0.048262125984252
0
LINE
8
BLACK
6
CONTINUOUS
10
0.3747254724409449
20
0.048262125984252
11
0.3785356692913386
21
0.0460699212598425
0
LINE
8
BLACK
6
CONTINUOUS
10
0.3785356692913386
20
0.0460699212598425
11
0.3787785433070866
21
0.0459302362204724
0
LINE
8
BLACK
6
CONTINUOUS
10
0.3787785433070866
20
0.0459302362204724
11
0.3825928346456693
21
0.0437356299212598
0
LINE
8
BLACK
6
CONTINUOUS
10
0.3825928346456693
20
0.0437356299212598
11
0.3862353937007874
21
0.0416385826771654
0
LINE
8
BLACK
6
CONTINUOUS
10
0.3862353937007874
20
0.0416385826771654
11
0.3896560236220472
21
0.039668188976378
0
LINE
8
BLACK
6
CONTINUOUS
10
0.3896560236220472
20
0.039668188976378
11
0.3928045669291338
21
0.0378532677165354
0
LINE
8
BLACK
6
CONTINUOUS
10
0.3928045669291338
20
0.0378532677165354
11
0.3956307874015748
21
0.0362228346456693
0
LINE
8
BLACK
6
CONTINUOUS
10
0.3956307874015748
20
0.0362228346456693
11
0.3980844488188977
21
0.0348058661417323
0
LINE
8
BLACK
6
CONTINUOUS
10
0.3980844488188977
20
0.0348058661417323
11
0.4001155511811024
21
0.0336313385826772
0
LINE
8
BLACK
6
CONTINUOUS
10
0.4001155511811024
20
0.0336313385826772
11
0.4016738188976378
21
0.0327281102362205
0
LINE
8
BLACK
6
CONTINUOUS
10
0.4016738188976378
20
0.0327281102362205
11
0.4027090157480315
21
0.0321252755905512
0
LINE
8
BLACK
6
CONTINUOUS
10
0.4027090157480315
20
0.0321252755905512
11
0.403171062992126
21
0.0318517716535433
0
LINE
8
BLACK
6
CONTINUOUS
10
0.403171062992126
20
0.0318517716535433
11
0.4031806299212599
21
0.0318456692913386
0
LINE
8
BLACK
6
CONTINUOUS
10
0.4031806299212599
20
0.0318456692913386
11
0.4034451968503937
21
0.0316454724409449
0
LINE
8
BLACK
6
CONTINUOUS
10
0.4034451968503937
20
0.0316454724409449
11
0.403585
21
0.0313812992125984
0
LINE
8
BLACK
6
CONTINUOUS
10
0.403585
20
0.0313812992125984
11
0.4035772440944882
21
0.0309405905511811
0
LINE
8
BLACK
6
CONTINUOUS
10
0.4035772440944882
20
0.0309405905511811
11
0.4033988976377952
21
0.0302108661417323
0
LINE
8
BLACK
6
CONTINUOUS
10
0.4033988976377952
20
0.0302108661417323
11
0.4030273622047244
21
0.0290792913385827
0
LINE
8
BLACK
6
CONTINUOUS
10
0.4030273622047244
20
0.0290792913385827
11
0.4024398031496063
21
0.0274333464566929
0
LINE
8
BLACK
6
CONTINUOUS
10
0.4024398031496063
20
0.0274333464566929
11
0.4020912204724409
21
0.0264741732283465
0
LINE
8
BLACK
6
CONTINUOUS
10
0.4020912204724409
20
0.0264741732283465
11
0.4014405511811023
21
0.0247379133858268
0
LINE
8
BLACK
6
CONTINUOUS
10
0.4014405511811023
20
0.0247379133858268
11
0.4008585433070866
21
0.0232809448818898
0
LINE
8
BLACK
6
CONTINUOUS
10
0.4008585433070866
20
0.0232809448818898
11
0.4003953543307087
21
0.0222211417322835
0
LINE
8
BLACK
6
CONTINUOUS
10
0.4003953543307087
20
0.0222211417322835
11
0.4001006692913386
21
0.0216761811023622
0
LINE
8
BLACK
6
CONTINUOUS
10
0.4001006692913386
20
0.0216761811023622
11
0.4000392519685039
21
0.0216292125984252
0
LINE
8
BLACK
6
CONTINUOUS
10
0.4000392519685039
20
0.0216292125984252
11
0.3996924015748031
21
0.0218170866141732
0
LINE
8
BLACK
6
CONTINUOUS
10
0.3996924015748031
20
0.0218170866141732
11
0.3987666535433071
21
0.0223388582677165
0
LINE
8
BLACK
6
CONTINUOUS
10
0.3987666535433071
20
0.0223388582677165
11
0.3973095275590551
21
0.0231672440944882
0
LINE
8
BLACK
6
CONTINUOUS
10
0.3973095275590551
20
0.0231672440944882
11
0.3953686220472441
21
0.0242749606299213
0
LINE
8
BLACK
6
CONTINUOUS
10
0.3953686220472441
20
0.0242749606299213
11
0.3929914566929134
21
0.0256348818897638
0
LINE
8
BLACK
6
CONTINUOUS
10
0.3929914566929134
20
0.0256348818897638
11
0.3902255511811024
21
0.0272197244094488
0
LINE
8
BLACK
6
CONTINUOUS
10
0.3902255511811024
20
0.0272197244094488
11
0.3871185039370079
21
0.0290022440944882
0
LINE
8
BLACK
6
CONTINUOUS
10
0.3871185039370079
20
0.0290022440944882
11
0.3837178346456693
21
0.0309552362204724
0
LINE
8
BLACK
6
CONTINUOUS
10
0.3837178346456693
20
0.0309552362204724
11
0.3800711023622047
21
0.0330514566929134
0
LINE
8
BLACK
6
CONTINUOUS
10
0.3800711023622047
20
0.0330514566929134
11
0.3762258267716536
21
0.0352637401574803
0
LINE
8
BLACK
6
CONTINUOUS
10
0.3762258267716536
20
0.0352637401574803
11
0.3747289763779528
21
0.0361254330708661
0
LINE
8
BLACK
6
CONTINUOUS
10
0.3747289763779528
20
0.0361254330708661
11
0.3496800393700787
21
0.0505468897637795
0
LINE
8
BLACK
6
CONTINUOUS
10
0.3496800393700787
20
0.0505468897637795
11
0.3533513779527559
21
0.0606337401574803
0
LINE
8
BLACK
6
CONTINUOUS
10
0.3533513779527559
20
0.0606337401574803
11
0.3542145669291338
21
0.0600983070866142
0
LINE
8
BLACK
6
CONTINUOUS
10
0.1997129527559055
20
0.0598007086614173
11
0.1997907086614173
21
0.0598062204724409
0
LINE
8
BLACK
6
CONTINUOUS
10
0.1997907086614173
20
0.0598062204724409
11
0.1998492125984252
21
0.0597872834645669
0
LINE
8
BLACK
6
CONTINUOUS
10
0.1998492125984252
20
0.0597872834645669
11
0.1999974803149606
21
0.0597726771653543
0
LINE
8
BLACK
6
CONTINUOUS
10
0.1999974803149606
20
0.0597726771653543
11
0.2003661023622047
21
0.05962
0
LINE
8
BLACK
6
CONTINUOUS
10
0.2003661023622047
20
0.05962
11
0.2059794488188976
21
0.0578031102362205
0
LINE
8
BLACK
6
CONTINUOUS
10
0.2059794488188976
20
0.0578031102362205
11
0.2065079921259843
21
0.057567125984252
0
LINE
8
BLACK
6
CONTINUOUS
10
0.2065079921259843
20
0.057567125984252
11
0.2065880708661417
21
0.0574976771653543
0
LINE
8
BLACK
6
CONTINUOUS
10
0.2065880708661417
20
0.0574976771653543
11
0.2066861417322834
21
0.0574570472440945
0
LINE
8
BLACK
6
CONTINUOUS
10
0.2066861417322834
20
0.0574570472440945
11
0.2070774803149606
21
0.0570732283464567
0
LINE
8
BLACK
6
CONTINUOUS
10
0.2070774803149606
20
0.0570732283464567
11
0.2073783464566929
21
0.0568122440944882
0
LINE
8
BLACK
6
CONTINUOUS
10
0.2073783464566929
20
0.0568122440944882
11
0.2074118503937008
21
0.0567452362204724
0
LINE
8
BLACK
6
CONTINUOUS
10
0.2074118503937008
20
0.0567452362204724
11
0.2108831889763779
21
0.0533402755905512
0
LINE
8
BLACK
6
CONTINUOUS
10
0.2108831889763779
20
0.0533402755905512
11
0.2112504330708661
21
0.0528928346456693
0
LINE
8
BLACK
6
CONTINUOUS
10
0.2112504330708661
20
0.0528928346456693
11
0.2112910236220472
21
0.0527948031496063
0
LINE
8
BLACK
6
CONTINUOUS
10
0.2112910236220472
20
0.0527948031496063
11
0.2113605118110236
21
0.0527146850393701
0
LINE
8
BLACK
6
CONTINUOUS
10
0.2113605118110236
20
0.0527146850393701
11
0.2115355118110236
21
0.0522045275590551
0
LINE
8
BLACK
6
CONTINUOUS
10
0.2115355118110236
20
0.0522045275590551
11
0.2116912992125984
21
0.0518284251968504
0
LINE
8
BLACK
6
CONTINUOUS
10
0.2116912992125984
20
0.0518284251968504
11
0.2116912992125984
21
0.0517504724409449
0
LINE
8
BLACK
6
CONTINUOUS
10
0.2116912992125984
20
0.0517504724409449
11
0.2134712598425197
21
0.0465618503937008
0
LINE
8
BLACK
6
CONTINUOUS
10
0.2134712598425197
20
0.0465618503937008
11
0.2135361811023622
21
0.0462762204724409
0
LINE
8
BLACK
6
CONTINUOUS
10
0.2135361811023622
20
0.0462762204724409
11
0.213566062992126
21
0.0462041338582677
0
LINE
8
BLACK
6
CONTINUOUS
10
0.213566062992126
20
0.0462041338582677
11
0.2135668503937008
21
0.0461412992125984
0
LINE
8
BLACK
6
CONTINUOUS
10
0.2135668503937008
20
0.0461412992125984
11
0.2135996062992126
21
0.0459974015748031
0
LINE
8
BLACK
6
CONTINUOUS
10
0.2135996062992126
20
0.0459974015748031
11
0.2135735433070866
21
0.0456312598425197
0
LINE
8
BLACK
6
CONTINUOUS
10
0.2135735433070866
20
0.0456312598425197
11
0.2136227952755906
21
0.0418785433070866
0
LINE
8
BLACK
6
CONTINUOUS
10
0.2136227952755906
20
0.0418785433070866
11
0.213566062992126
21
0.0413024803149606
0
LINE
8
BLACK
6
CONTINUOUS
10
0.213566062992126
20
0.0413024803149606
11
0.213125157480315
21
0.0402380708661417
0
LINE
8
BLACK
6
CONTINUOUS
10
0.213125157480315
20
0.0402380708661417
11
0.2123105118110236
21
0.0394234251968504
0
LINE
8
BLACK
6
CONTINUOUS
10
0.2123105118110236
20
0.0394234251968504
11
0.2112461023622047
21
0.0389825196850394
0
LINE
8
BLACK
6
CONTINUOUS
10
0.2112461023622047
20
0.0389825196850394
11
0.2100939763779527
21
0.0389825196850394
0
LINE
8
BLACK
6
CONTINUOUS
10
0.2100939763779527
20
0.0389825196850394
11
0.2090295669291339
21
0.0394234251968504
0
LINE
8
BLACK
6
CONTINUOUS
10
0.2090295669291339
20
0.0394234251968504
11
0.2082149212598425
21
0.0402380708661417
0
LINE
8
BLACK
6
CONTINUOUS
10
0.2082149212598425
20
0.0402380708661417
11
0.2077740157480315
21
0.0413024803149606
0
LINE
8
BLACK
6
CONTINUOUS
10
0.2077740157480315
20
0.0413024803149606
11
0.2077218110236221
21
0.0452822047244094
0
LINE
8
BLACK
6
CONTINUOUS
10
0.2077218110236221
20
0.0452822047244094
11
0.206191968503937
21
0.0497416535433071
0
LINE
8
BLACK
6
CONTINUOUS
10
0.206191968503937
20
0.0497416535433071
11
0.2033920472440945
21
0.052488031496063
0
LINE
8
BLACK
6
CONTINUOUS
10
0.2033920472440945
20
0.052488031496063
11
0.1987879527559055
21
0.0539782677165354
0
LINE
8
BLACK
6
CONTINUOUS
10
0.1987879527559055
20
0.0539782677165354
11
0.1712999606299213
21
0.0539238976377953
0
LINE
8
BLACK
6
CONTINUOUS
10
0.1712999606299213
20
0.0539238976377953
11
0.1707238976377953
21
0.0539806299212598
0
LINE
8
BLACK
6
CONTINUOUS
10
0.1707238976377953
20
0.0539806299212598
11
0.1696594881889764
21
0.0544215354330709
0
LINE
8
BLACK
6
CONTINUOUS
10
0.1696594881889764
20
0.0544215354330709
11
0.168844842519685
21
0.0552361811023622
0
LINE
8
BLACK
6
CONTINUOUS
10
0.168844842519685
20
0.0552361811023622
11
0.168403937007874
21
0.0563005905511811
0
LINE
8
BLACK
6
CONTINUOUS
10
0.168403937007874
20
0.0563005905511811
11
0.168403937007874
21
0.0574527165354331
0
LINE
8
BLACK
6
CONTINUOUS
10
0.168403937007874
20
0.0574527165354331
11
0.168844842519685
21
0.058517125984252
0
LINE
8
BLACK
6
CONTINUOUS
10
0.168844842519685
20
0.058517125984252
11
0.1696594881889764
21
0.0593317716535433
0
LINE
8
BLACK
6
CONTINUOUS
10
0.1696594881889764
20
0.0593317716535433
11
0.1707238976377953
21
0.0597726771653543
0
LINE
8
BLACK
6
CONTINUOUS
10
0.1707238976377953
20
0.0597726771653543
11
0.1994214173228346
21
0.0598294094488189
0
LINE
8
BLACK
6
CONTINUOUS
10
0.1994214173228346
20
0.0598294094488189
11
0.1997129527559055
21
0.0598007086614173
0
LINE
8
BLACK
6
CONTINUOUS
10
0.291510905511811
20
0.0960974409448819
11
0.2924158661417323
21
0.0955854330708661
0
LINE
8
BLACK
6
CONTINUOUS
10
0.2924158661417323
20
0.0955854330708661
11
0.2938013779527559
21
0.0947953149606299
0
LINE
8
BLACK
6
CONTINUOUS
10
0.2938013779527559
20
0.0947953149606299
11
0.2955943700787402
21
0.093768937007874
0
LINE
8
BLACK
6
CONTINUOUS
10
0.2955943700787402
20
0.093768937007874
11
0.2977220078740158
21
0.0925479527559055
0
LINE
8
BLACK
6
CONTINUOUS
10
0.2977220078740158
20
0.0925479527559055
11
0.3001113779527559
21
0.0911740157480315
0
LINE
8
BLACK
6
CONTINUOUS
10
0.3001113779527559
20
0.0911740157480315
11
0.3022668897637795
21
0.0899325984251969
0
LINE
8
BLACK
6
CONTINUOUS
10
0.3022668897637795
20
0.0899325984251969
11
0.3131641732283464
21
0.0836520472440945
0
LINE
8
BLACK
6
CONTINUOUS
10
0.3131641732283464
20
0.0836520472440945
11
0.3304312598425197
21
0.0844907874015748
0
LINE
8
BLACK
6
CONTINUOUS
10
0.3304312598425197
20
0.0844907874015748
11
0.3338932283464567
21
0.0846574015748031
0
LINE
8
BLACK
6
CONTINUOUS
10
0.3338932283464567
20
0.0846574015748031
11
0.3371312204724409
21
0.084810157480315
0
LINE
8
BLACK
6
CONTINUOUS
10
0.3371312204724409
20
0.084810157480315
11
0.3400744094488189
21
0.0849459842519685
0
LINE
8
BLACK
6
CONTINUOUS
10
0.3400744094488189
20
0.0849459842519685
11
0.342651811023622
21
0.0850617322834646
0
LINE
8
BLACK
6
CONTINUOUS
10
0.342651811023622
20
0.0850617322834646
11
0.3447925196850394
21
0.0851542913385827
0
LINE
8
BLACK
6
CONTINUOUS
10
0.3447925196850394
20
0.0851542913385827
11
0.3464255905511811
21
0.0852205118110236
0
LINE
8
BLACK
6
CONTINUOUS
10
0.3464255905511811
20
0.0852205118110236
11
0.3474801181102362
21
0.0852572440944882
0
LINE
8
BLACK
6
CONTINUOUS
10
0.3474801181102362
20
0.0852572440944882
11
0.3478851968503937
21
0.0852613779527559
0
LINE
8
BLACK
6
CONTINUOUS
10
0.3478851968503937
20
0.0852613779527559
11
0.3478863779527559
21
0.085261062992126
0
LINE
8
BLACK
6
CONTINUOUS
10
0.3478863779527559
20
0.085261062992126
11
0.3478282677165354
21
0.0849192913385827
0
LINE
8
BLACK
6
CONTINUOUS
10
0.3478282677165354
20
0.0849192913385827
11
0.3475454724409449
21
0.0840203937007874
0
LINE
8
BLACK
6
CONTINUOUS
10
0.3475454724409449
20
0.0840203937007874
11
0.3470777952755905
21
0.082680157480315
0
LINE
8
BLACK
6
CONTINUOUS
10
0.3470777952755905
20
0.082680157480315
11
0.3464649606299213
21
0.0810142913385827
0
LINE
8
BLACK
6
CONTINUOUS
10
0.3464649606299213
20
0.0810142913385827
11
0.3460497244094488
21
0.0799209842519685
0
LINE
8
BLACK
6
CONTINUOUS
10
0.3460497244094488
20
0.0799209842519685
11
0.3440250787401575
21
0.0746493307086614
0
LINE
8
BLACK
6
CONTINUOUS
10
0.3440250787401575
20
0.0746493307086614
11
0.3318543307086614
21
0.0742188976377953
0
LINE
8
BLACK
6
CONTINUOUS
10
0.3318543307086614
20
0.0742188976377953
11
0.3289673228346456
21
0.0741120078740157
0
LINE
8
BLACK
6
CONTINUOUS
10
0.3289673228346456
20
0.0741120078740157
11
0.3263215354330709
21
0.0740047244094488
0
LINE
8
BLACK
6
CONTINUOUS
10
0.3263215354330709
20
0.0740047244094488
11
0.3240007874015748
21
0.0739011023622047
0
LINE
8
BLACK
6
CONTINUOUS
10
0.3240007874015748
20
0.0739011023622047
11
0.322089094488189
21
0.0738055118110236
0
LINE
8
BLACK
6
CONTINUOUS
10
0.322089094488189
20
0.0738055118110236
11
0.3206702755905512
21
0.073721811023622
0
LINE
8
BLACK
6
CONTINUOUS
10
0.3206702755905512
20
0.073721811023622
11
0.3198281496062992
21
0.0736543307086614
0
LINE
8
BLACK
6
CONTINUOUS
10
0.3198281496062992
20
0.0736543307086614
11
0.3196256692913386
21
0.0736172047244094
0
LINE
8
BLACK
6
CONTINUOUS
10
0.3196256692913386
20
0.0736172047244094
11
0.319805748031496
21
0.0732881496062992
0
LINE
8
BLACK
6
CONTINUOUS
10
0.319805748031496
20
0.0732881496062992
11
0.3203437007874015
21
0.0724232677165354
0
LINE
8
BLACK
6
CONTINUOUS
10
0.3203437007874015
20
0.0724232677165354
11
0.3211968503937008
21
0.0710885826771653
0
LINE
8
BLACK
6
CONTINUOUS
10
0.3211968503937008
20
0.0710885826771653
11
0.3223224015748031
21
0.0693500787401575
0
LINE
8
BLACK
6
CONTINUOUS
10
0.3223224015748031
20
0.0693500787401575
11
0.3236774803149606
21
0.067273937007874
0
LINE
8
BLACK
6
CONTINUOUS
10
0.3236774803149606
20
0.067273937007874
11
0.3252194488188976
21
0.0649259842519685
0
LINE
8
BLACK
6
CONTINUOUS
10
0.3252194488188976
20
0.0649259842519685
11
0.3269053937007874
21
0.0623724409448819
0
LINE
8
BLACK
6
CONTINUOUS
10
0.3269053937007874
20
0.0623724409448819
11
0.3272867322834646
21
0.0617965748031496
0
LINE
8
BLACK
6
CONTINUOUS
10
0.3272867322834646
20
0.0617965748031496
11
0.3290031102362205
21
0.0591961811023622
0
LINE
8
BLACK
6
CONTINUOUS
10
0.3290031102362205
20
0.0591961811023622
11
0.3305871259842519
21
0.0567767716535433
0
LINE
8
BLACK
6
CONTINUOUS
10
0.3305871259842519
20
0.0567767716535433
11
0.3319955118110236
21
0.054606062992126
0
LINE
8
BLACK
6
CONTINUOUS
10
0.3319955118110236
20
0.054606062992126
11
0.3331848425196851
21
0.0527518503937008
0
LINE
8
BLACK
6
CONTINUOUS
10
0.3331848425196851
20
0.0527518503937008
11
0.3341116535433071
21
0.051281811023622
0
LINE
8
BLACK
6
CONTINUOUS
10
0.3341116535433071
20
0.051281811023622
11
0.3347325590551181
21
0.0502638188976378
0
LINE
8
BLACK
6
CONTINUOUS
10
0.3347325590551181
20
0.0502638188976378
11
0.3350042125984252
21
0.0497656299212598
0
LINE
8
BLACK
6
CONTINUOUS
10
0.3350042125984252
20
0.0497656299212598
11
0.335012874015748
21
0.049733937007874
0
LINE
8
BLACK
6
CONTINUOUS
10
0.335012874015748
20
0.049733937007874
11
0.3348910236220473
21
0.0492654724409449
0
LINE
8
BLACK
6
CONTINUOUS
10
0.3348910236220473
20
0.0492654724409449
11
0.3345508661417323
21
0.048254094488189
0
LINE
8
BLACK
6
CONTINUOUS
10
0.3345508661417323
20
0.048254094488189
11
0.3340386220472441
21
0.0468299212598425
0
LINE
8
BLACK
6
CONTINUOUS
10
0.3340386220472441
20
0.0468299212598425
11
0.3334003543307086
21
0.0451231102362205
0
LINE
8
BLACK
6
CONTINUOUS
10
0.3334003543307086
20
0.0451231102362205
11
0.3330933070866142
21
0.044320905511811
0
LINE
8
BLACK
6
CONTINUOUS
10
0.3330933070866142
20
0.044320905511811
11
0.3311666535433071
21
0.0393211417322835
0
LINE
8
BLACK
6
CONTINUOUS
10
0.3311666535433071
20
0.0393211417322835
11
0.3206755511811024
21
0.0559503149606299
0
LINE
8
BLACK
6
CONTINUOUS
10
0.3206755511811024
20
0.0559503149606299
11
0.3186807086614173
21
0.0591065354330709
0
LINE
8
BLACK
6
CONTINUOUS
10
0.3186807086614173
20
0.0591065354330709
11
0.316785
21
0.0620945275590551
0
LINE
8
BLACK
6
CONTINUOUS
10
0.316785
20
0.0620945275590551
11
0.3150264566929134
21
0.0648552755905512
0
LINE
8
BLACK
6
CONTINUOUS
10
0.3150264566929134
20
0.0648552755905512
11
0.3134430708661417
21
0.0673297637795276
0
LINE
8
BLACK
6
CONTINUOUS
10
0.3134430708661417
20
0.0673297637795276
11
0.3120727559055118
21
0.0694588188976378
0
LINE
8
BLACK
6
CONTINUOUS
10
0.3120727559055118
20
0.0694588188976378
11
0.3109534645669291
21
0.0711834251968504
0
LINE
8
BLACK
6
CONTINUOUS
10
0.3109534645669291
20
0.0711834251968504
11
0.3101231102362205
21
0.0724446062992126
0
LINE
8
BLACK
6
CONTINUOUS
10
0.3101231102362205
20
0.0724446062992126
11
0.3096197637795275
21
0.0731831889763779
0
LINE
8
BLACK
6
CONTINUOUS
10
0.3096197637795275
20
0.0731831889763779
11
0.3094998031496063
21
0.073341062992126
0
LINE
8
BLACK
6
CONTINUOUS
10
0.3094998031496063
20
0.073341062992126
11
0.3090263385826771
21
0.0737022047244094
0
LINE
8
BLACK
6
CONTINUOUS
10
0.3090263385826771
20
0.0737022047244094
11
0.308004094488189
21
0.0743699212598425
0
LINE
8
BLACK
6
CONTINUOUS
10
0.308004094488189
20
0.0743699212598425
11
0.3065140157480315
21
0.0752950393700787
0
LINE
8
BLACK
6
CONTINUOUS
10
0.3065140157480315
20
0.0752950393700787
11
0.304636968503937
21
0.0764285039370079
0
LINE
8
BLACK
6
CONTINUOUS
10
0.304636968503937
20
0.0764285039370079
11
0.3024538188976378
21
0.0777212598425197
0
LINE
8
BLACK
6
CONTINUOUS
10
0.3024538188976378
20
0.0777212598425197
11
0.3000454330708661
21
0.0791241338582677
0
LINE
8
BLACK
6
CONTINUOUS
10
0.3000454330708661
20
0.0791241338582677
11
0.2986281889763779
21
0.0799398031496063
0
LINE
8
BLACK
6
CONTINUOUS
10
0.2986281889763779
20
0.0799398031496063
11
0.2961409448818897
21
0.0813676377952756
0
LINE
8
BLACK
6
CONTINUOUS
10
0.2961409448818897
20
0.0813676377952756
11
0.2938407480314961
21
0.0826929921259842
0
LINE
8
BLACK
6
CONTINUOUS
10
0.2938407480314961
20
0.0826929921259842
11
0.2918066535433071
21
0.083870157480315
0
LINE
8
BLACK
6
CONTINUOUS
10
0.2918066535433071
20
0.083870157480315
11
0.2901175984251969
21
0.0848530708661417
0
LINE
8
BLACK
6
CONTINUOUS
10
0.2901175984251969
20
0.0848530708661417
11
0.2888526377952756
21
0.0855958267716535
0
LINE
8
BLACK
6
CONTINUOUS
10
0.2888526377952756
20
0.0855958267716535
11
0.2880906692913386
21
0.0860526377952756
0
LINE
8
BLACK
6
CONTINUOUS
10
0.2880906692913386
20
0.0860526377952756
11
0.2879104330708661
21
0.0861683858267717
0
LINE
8
BLACK
6
CONTINUOUS
10
0.2879104330708661
20
0.0861683858267717
11
0.2877242913385827
21
0.0863862992125984
0
LINE
8
BLACK
6
CONTINUOUS
10
0.2877242913385827
20
0.0863862992125984
11
0.2876720866141732
21
0.0867524409448819
0
LINE
8
BLACK
6
CONTINUOUS
10
0.2876720866141732
20
0.0867524409448819
11
0.2877794881889764
21
0.0873763385826772
0
LINE
8
BLACK
6
CONTINUOUS
10
0.2877794881889764
20
0.0873763385826772
11
0.2880725196850394
21
0.0883672834645669
0
LINE
8
BLACK
6
CONTINUOUS
10
0.2880725196850394
20
0.0883672834645669
11
0.2885770866141732
21
0.0898347637795276
0
LINE
8
BLACK
6
CONTINUOUS
10
0.2885770866141732
20
0.0898347637795276
11
0.2891642125984252
21
0.091463031496063
0
LINE
8
BLACK
6
CONTINUOUS
10
0.2891642125984252
20
0.091463031496063
11
0.2898103149606299
21
0.0931953937007874
0
LINE
8
BLACK
6
CONTINUOUS
10
0.2898103149606299
20
0.0931953937007874
11
0.2903818503937008
21
0.0946483464566929
0
LINE
8
BLACK
6
CONTINUOUS
10
0.2903818503937008
20
0.0946483464566929
11
0.2908301574803149
21
0.095703937007874
0
LINE
8
BLACK
6
CONTINUOUS
10
0.2908301574803149
20
0.095703937007874
11
0.2911065354330709
21
0.0962444881889764
0
LINE
8
BLACK
6
CONTINUOUS
10
0.2911065354330709
20
0.0962444881889764
11
0.2911591732283464
21
0.0962896850393701
0
LINE
8
BLACK
6
CONTINUOUS
10
0.2911591732283464
20
0.0962896850393701
11
0.291510905511811
21
0.0960974409448819
0
LINE
8
BLACK
6
CONTINUOUS
10
0.3682540551181102
20
0.0992
11
0.3686715748031496
21
0.09895
0
LINE
8
BLACK
6
CONTINUOUS
10
0.3686715748031496
20
0.09895
11
0.3696664960629921
21
0.0983677165354331
0
LINE
8
BLACK
6
CONTINUOUS
10
0.3696664960629921
20
0.0983677165354331
11
0.3711895275590551
21
0.0974816929133858
0
LINE
8
BLACK
6
CONTINUOUS
10
0.3711895275590551
20
0.0974816929133858
11
0.3731912204724409
21
0.0963204724409449
0
LINE
8
BLACK
6
CONTINUOUS
10
0.3731912204724409
20
0.0963204724409449
11
0.3756224803149606
21
0.0949125984251969
0
LINE
8
BLACK
6
CONTINUOUS
10
0.3756224803149606
20
0.0949125984251969
11
0.378433937007874
21
0.0932865354330709
0
LINE
8
BLACK
6
CONTINUOUS
10
0.378433937007874
20
0.0932865354330709
11
0.3815762992125984
21
0.0914708267716535
0
LINE
8
BLACK
6
CONTINUOUS
10
0.3815762992125984
20
0.0914708267716535
11
0.3850002362204724
21
0.0894939763779528
0
LINE
8
BLACK
6
CONTINUOUS
10
0.3850002362204724
20
0.0894939763779528
11
0.3886565354330709
21
0.0873844881889764
0
LINE
8
BLACK
6
CONTINUOUS
10
0.3886565354330709
20
0.0873844881889764
11
0.3924958661417323
21
0.0851709842519685
0
LINE
8
BLACK
6
CONTINUOUS
10
0.3924958661417323
20
0.0851709842519685
11
0.3934205511811024
21
0.0846380708661417
0
LINE
8
BLACK
6
CONTINUOUS
10
0.3934205511811024
20
0.0846380708661417
11
0.3972776377952756
21
0.0824139763779528
0
LINE
8
BLACK
6
CONTINUOUS
10
0.3972776377952756
20
0.0824139763779528
11
0.4009495669291339
21
0.0802938582677165
0
LINE
8
BLACK
6
CONTINUOUS
10
0.4009495669291339
20
0.0802938582677165
11
0.4043885433070866
21
0.0783054724409449
0
LINE
8
BLACK
6
CONTINUOUS
10
0.4043885433070866
20
0.0783054724409449
11
0.4075471653543307
21
0.0764763779527559
0
LINE
8
BLACK
6
CONTINUOUS
10
0.4075471653543307
20
0.0764763779527559
11
0.4103775196850394
21
0.0748343700787402
0
LINE
8
BLACK
6
CONTINUOUS
10
0.4103775196850394
20
0.0748343700787402
11
0.412831968503937
21
0.073407125984252
0
LINE
8
BLACK
6
CONTINUOUS
10
0.412831968503937
20
0.073407125984252
11
0.4148629921259843
21
0.0722223622047244
0
LINE
8
BLACK
6
CONTINUOUS
10
0.4148629921259843
20
0.0722223622047244
11
0.4164227559055118
21
0.0713077165354331
0
LINE
8
BLACK
6
CONTINUOUS
10
0.4164227559055118
20
0.0713077165354331
11
0.4174637007874016
21
0.0706909448818898
0
LINE
8
BLACK
6
CONTINUOUS
10
0.4174637007874016
20
0.0706909448818898
11
0.4179379921259843
21
0.0703997244094488
0
LINE
8
BLACK
6
CONTINUOUS
10
0.4179379921259843
20
0.0703997244094488
11
0.4179626771653543
21
0.0703806692913386
0
LINE
8
BLACK
6
CONTINUOUS
10
0.4179626771653543
20
0.0703806692913386
11
0.4178655905511811
21
0.0700058267716535
0
LINE
8
BLACK
6
CONTINUOUS
10
0.4178655905511811
20
0.0700058267716535
11
0.4175488976377953
21
0.0690813779527559
0
LINE
8
BLACK
6
CONTINUOUS
10
0.4175488976377953
20
0.0690813779527559
11
0.417057125984252
21
0.0677308267716535
0
LINE
8
BLACK
6
CONTINUOUS
10
0.417057125984252
20
0.0677308267716535
11
0.4164346062992126
21
0.0660776771653543
0
LINE
8
BLACK
6
CONTINUOUS
10
0.4164346062992126
20
0.0660776771653543
11
0.4161544488188976
21
0.0653477952755906
0
LINE
8
BLACK
6
CONTINUOUS
10
0.4161544488188976
20
0.0653477952755906
11
0.414273031496063
21
0.0604719291338583
0
LINE
8
BLACK
6
CONTINUOUS
10
0.414273031496063
20
0.0604719291338583
11
0.3912201968503937
21
0.0737710236220472
0
LINE
8
BLACK
6
CONTINUOUS
10
0.3912201968503937
20
0.0737710236220472
11
0.3874149606299213
21
0.0759660236220472
0
LINE
8
BLACK
6
CONTINUOUS
10
0.3874149606299213
20
0.0759660236220472
11
0.3837472834645669
21
0.0780812204724409
0
LINE
8
BLACK
6
CONTINUOUS
10
0.3837472834645669
20
0.0780812204724409
11
0.3802723228346457
21
0.0800848818897638
0
LINE
8
BLACK
6
CONTINUOUS
10
0.3802723228346457
20
0.0800848818897638
11
0.3770451181102362
21
0.081945157480315
0
LINE
8
BLACK
6
CONTINUOUS
10
0.3770451181102362
20
0.081945157480315
11
0.374120905511811
21
0.0836303937007874
0
LINE
8
BLACK
6
CONTINUOUS
10
0.374120905511811
20
0.0836303937007874
11
0.3715547244094488
21
0.085108779527559
0
LINE
8
BLACK
6
CONTINUOUS
10
0.3715547244094488
20
0.085108779527559
11
0.3694016929133858
21
0.0863485433070866
0
LINE
8
BLACK
6
CONTINUOUS
10
0.3694016929133858
20
0.0863485433070866
11
0.3677170472440945
21
0.0873179133858268
0
LINE
8
BLACK
6
CONTINUOUS
10
0.3677170472440945
20
0.0873179133858268
11
0.3665558267716535
21
0.0879851181102362
0
LINE
8
BLACK
6
CONTINUOUS
10
0.3665558267716535
20
0.0879851181102362
11
0.366015905511811
21
0.0882941338582677
0
LINE
8
BLACK
6
CONTINUOUS
10
0.366015905511811
20
0.0882941338582677
11
0.3638644488188976
21
0.0895181889763779
0
LINE
8
BLACK
6
CONTINUOUS
10
0.3638644488188976
20
0.0895181889763779
11
0.3675563779527559
21
0.0996616535433071
0
LINE
8
BLACK
6
CONTINUOUS
10
0.3675563779527559
20
0.0996616535433071
11
0.3682540551181102
21
0.0992
0
LINE
8
BLACK
6
CONTINUOUS
10
0.1828400787401575
20
0.0991707874015748
11
0.1829178346456693
21
0.0991762992125984
0
LINE
8
BLACK
6
CONTINUOUS
10
0.1829178346456693
20
0.0991762992125984
11
0.1829763385826772
21
0.0991573622047244
0
LINE
8
BLACK
6
CONTINUOUS
10
0.1829763385826772
20
0.0991573622047244
11
0.1831246062992126
21
0.0991427559055118
0
LINE
8
BLACK
6
CONTINUOUS
10
0.1831246062992126
20
0.0991427559055118
11
0.1834932283464567
21
0.0989900787401575
0
LINE
8
BLACK
6
CONTINUOUS
10
0.1834932283464567
20
0.0989900787401575
11
0.1891065748031496
21
0.0971731889763779
0
LINE
8
BLACK
6
CONTINUOUS
10
0.1891065748031496
20
0.0971731889763779
11
0.1896351181102362
21
0.0969372047244094
0
LINE
8
BLACK
6
CONTINUOUS
10
0.1896351181102362
20
0.0969372047244094
11
0.1897152362204724
21
0.0968677165354331
0
LINE
8
BLACK
6
CONTINUOUS
10
0.1897152362204724
20
0.0968677165354331
11
0.1898133070866142
21
0.0968270866141732
0
LINE
8
BLACK
6
CONTINUOUS
10
0.1898133070866142
20
0.0968270866141732
11
0.1901572440944882
21
0.0964843700787402
0
LINE
8
BLACK
6
CONTINUOUS
10
0.1901572440944882
20
0.0964843700787402
11
0.1905054724409449
21
0.0961823228346457
0
LINE
8
BLACK
6
CONTINUOUS
10
0.1905054724409449
20
0.0961823228346457
11
0.1905502755905512
21
0.0960926771653543
0
LINE
8
BLACK
6
CONTINUOUS
10
0.1905502755905512
20
0.0960926771653543
11
0.2077566141732284
21
0.0789465748031496
0
LINE
8
BLACK
6
CONTINUOUS
10
0.2077566141732284
20
0.0789465748031496
11
0.2077172834645669
21
0.0962467322834646
0
LINE
8
BLACK
6
CONTINUOUS
10
0.2077172834645669
20
0.0962467322834646
11
0.2077740157480315
21
0.0968227952755906
0
LINE
8
BLACK
6
CONTINUOUS
10
0.2077740157480315
20
0.0968227952755906
11
0.2082149212598425
21
0.0978872047244094
0
LINE
8
BLACK
6
CONTINUOUS
10
0.2082149212598425
20
0.0978872047244094
11
0.2090295669291339
21
0.0987018503937008
0
LINE
8
BLACK
6
CONTINUOUS
10
0.2090295669291339
20
0.0987018503937008
11
0.2100939763779527
21
0.0991427559055118
0
LINE
8
BLACK
6
CONTINUOUS
10
0.2100939763779527
20
0.0991427559055118
11
0.2112461023622047
21
0.0991427559055118
0
LINE
8
BLACK
6
CONTINUOUS
10
0.2112461023622047
20
0.0991427559055118
11
0.2123105118110236
21
0.0987018503937008
0
LINE
8
BLACK
6
CONTINUOUS
10
0.2123105118110236
20
0.0987018503937008
11
0.213125157480315
21
0.0978872047244094
0
LINE
8
BLACK
6
CONTINUOUS
10
0.213125157480315
20
0.0978872047244094
11
0.213566062992126
21
0.0968227952755906
0
LINE
8
BLACK
6
CONTINUOUS
10
0.213566062992126
20
0.0968227952755906
11
0.2136227952755906
21
0.0718748031496063
0
LINE
8
BLACK
6
CONTINUOUS
10
0.2136227952755906
20
0.0718748031496063
11
0.213566062992126
21
0.0712987401574803
0
LINE
8
BLACK
6
CONTINUOUS
10
0.213566062992126
20
0.0712987401574803
11
0.2134369291338583
21
0.0709870078740157
0
LINE
8
BLACK
6
CONTINUOUS
10
0.2134369291338583
20
0.0709870078740157
11
0.2131251968503937
21
0.0702343307086614
0
LINE
8
BLACK
6
CONTINUOUS
10
0.2131251968503937
20
0.0702343307086614
11
0.2123105118110236
21
0.0694196850393701
0
LINE
8
BLACK
6
CONTINUOUS
10
0.2123105118110236
20
0.0694196850393701
11
0.2112461023622047
21
0.0689787795275591
0
LINE
8
BLACK
6
CONTINUOUS
10
0.2112461023622047
20
0.0689787795275591
11
0.2100940157480315
21
0.0689787795275591
0
LINE
8
BLACK
6
CONTINUOUS
10
0.2100940157480315
20
0.0689787795275591
11
0.2100939763779527
21
0.0689787795275591
0
LINE
8
BLACK
6
CONTINUOUS
10
0.2100939763779527
20
0.0689787795275591
11
0.2097822047244094
21
0.0691079133858268
0
LINE
8
BLACK
6
CONTINUOUS
10
0.2097822047244094
20
0.0691079133858268
11
0.2090295669291339
21
0.0694196456692913
0
LINE
8
BLACK
6
CONTINUOUS
10
0.2090295669291339
20
0.0694196456692913
11
0.1865090551181102
21
0.0918613779527559
0
LINE
8
BLACK
6
CONTINUOUS
10
0.1865090551181102
20
0.0918613779527559
11
0.1819550787401575
21
0.0933353937007874
0
LINE
8
BLACK
6
CONTINUOUS
10
0.1819550787401575
20
0.0933353937007874
11
0.1794211023622047
21
0.0933021653543307
0
LINE
8
BLACK
6
CONTINUOUS
10
0.1794211023622047
20
0.0933021653543307
11
0.1767053149606299
21
0.0919036614173228
0
LINE
8
BLACK
6
CONTINUOUS
10
0.1767053149606299
20
0.0919036614173228
11
0.1755146062992126
21
0.0906703149606299
0
LINE
8
BLACK
6
CONTINUOUS
10
0.1755146062992126
20
0.0906703149606299
11
0.1742037007874016
21
0.0879686614173228
0
LINE
8
BLACK
6
CONTINUOUS
10
0.1742037007874016
20
0.0879686614173228
11
0.1742492125984252
21
0.0799869291338583
0
LINE
8
BLACK
6
CONTINUOUS
10
0.1742492125984252
20
0.0799869291338583
11
0.175643031496063
21
0.0772801968503937
0
LINE
8
BLACK
6
CONTINUOUS
10
0.175643031496063
20
0.0772801968503937
11
0.1771374015748031
21
0.0758374803149606
0
LINE
8
BLACK
6
CONTINUOUS
10
0.1771374015748031
20
0.0758374803149606
11
0.1775046062992126
21
0.0753900393700787
0
LINE
8
BLACK
6
CONTINUOUS
10
0.1775046062992126
20
0.0753900393700787
11
0.1779455118110236
21
0.0743256299212598
0
LINE
8
BLACK
6
CONTINUOUS
10
0.1779455118110236
20
0.0743256299212598
11
0.1779455118110236
21
0.0731735433070866
0
LINE
8
BLACK
6
CONTINUOUS
10
0.1779455118110236
20
0.0731735433070866
11
0.1775046062992126
21
0.0721091338582677
0
LINE
8
BLACK
6
CONTINUOUS
10
0.1775046062992126
20
0.0721091338582677
11
0.1766899212598425
21
0.0712944488188976
0
LINE
8
BLACK
6
CONTINUOUS
10
0.1766899212598425
20
0.0712944488188976
11
0.1756255118110236
21
0.0708535433070866
0
LINE
8
BLACK
6
CONTINUOUS
10
0.1756255118110236
20
0.0708535433070866
11
0.1744734251968504
21
0.0708535433070866
0
LINE
8
BLACK
6
CONTINUOUS
10
0.1744734251968504
20
0.0708535433070866
11
0.1734090157480315
21
0.0712944488188976
0
LINE
8
BLACK
6
CONTINUOUS
10
0.1734090157480315
20
0.0712944488188976
11
0.1710868110236221
21
0.0735364173228346
0
LINE
8
BLACK
6
CONTINUOUS
10
0.1710868110236221
20
0.0735364173228346
11
0.1709010236220472
21
0.0737627952755906
0
LINE
8
BLACK
6
CONTINUOUS
10
0.1709010236220472
20
0.0737627952755906
11
0.1708420472440945
21
0.073813937007874
0
LINE
8
BLACK
6
CONTINUOUS
10
0.1708420472440945
20
0.073813937007874
11
0.1708133858267717
21
0.0738696062992126
0
LINE
8
BLACK
6
CONTINUOUS
10
0.1708133858267717
20
0.0738696062992126
11
0.1707196062992126
21
0.0739838582677165
0
LINE
8
BLACK
6
CONTINUOUS
10
0.1707196062992126
20
0.0739838582677165
11
0.1705759448818898
21
0.0743306692913386
0
LINE
8
BLACK
6
CONTINUOUS
10
0.1705759448818898
20
0.0743306692913386
11
0.168658937007874
21
0.0780533464566929
0
LINE
8
BLACK
6
CONTINUOUS
10
0.168658937007874
20
0.0780533464566929
11
0.1684520472440945
21
0.0785939763779527
0
LINE
8
BLACK
6
CONTINUOUS
10
0.1684520472440945
20
0.0785939763779527
11
0.1684445275590551
21
0.0786998031496063
0
LINE
8
BLACK
6
CONTINUOUS
10
0.1684445275590551
20
0.0786998031496063
11
0.168403937007874
21
0.0787977952755906
0
LINE
8
BLACK
6
CONTINUOUS
10
0.168403937007874
20
0.0787977952755906
11
0.1684009842519685
21
0.0793124015748032
0
LINE
8
BLACK
6
CONTINUOUS
10
0.1684009842519685
20
0.0793124015748032
11
0.1683703937007874
21
0.079743188976378
0
LINE
8
BLACK
6
CONTINUOUS
10
0.1683703937007874
20
0.079743188976378
11
0.1683980708661417
21
0.0798262598425197
0
LINE
8
BLACK
6
CONTINUOUS
10
0.1683980708661417
20
0.0798262598425197
11
0.1683472047244094
21
0.0887476771653543
0
LINE
8
BLACK
6
CONTINUOUS
10
0.1683472047244094
20
0.0887476771653543
11
0.168403937007874
21
0.0893237401574803
0
LINE
8
BLACK
6
CONTINUOUS
10
0.168403937007874
20
0.0893237401574803
11
0.1684445275590551
21
0.0894217716535433
0
LINE
8
BLACK
6
CONTINUOUS
10
0.1684445275590551
20
0.0894217716535433
11
0.1684520472440945
21
0.0895275590551181
0
LINE
8
BLACK
6
CONTINUOUS
10
0.1684520472440945
20
0.0895275590551181
11
0.1687002362204724
21
0.0900391338582677
0
LINE
8
BLACK
6
CONTINUOUS
10
0.1687002362204724
20
0.0900391338582677
11
0.168844842519685
21
0.0903881496062992
0
LINE
8
BLACK
6
CONTINUOUS
10
0.168844842519685
20
0.0903881496062992
11
0.1688929527559055
21
0.0904362992125984
0
LINE
8
BLACK
6
CONTINUOUS
10
0.1688929527559055
20
0.0904362992125984
11
0.1705337007874016
21
0.0938177165354331
0
LINE
8
BLACK
6
CONTINUOUS
10
0.1705337007874016
20
0.0938177165354331
11
0.1706897637795275
21
0.0940657480314961
0
LINE
8
BLACK
6
CONTINUOUS
10
0.1706897637795275
20
0.0940657480314961
11
0.1707196062992126
21
0.0941376771653543
0
LINE
8
BLACK
6
CONTINUOUS
10
0.1707196062992126
20
0.0941376771653543
11
0.170764094488189
21
0.094183779527559
0
LINE
8
BLACK
6
CONTINUOUS
10
0.170764094488189
20
0.094183779527559
11
0.1708420472440945
21
0.0943075984251968
0
LINE
8
BLACK
6
CONTINUOUS
10
0.1708420472440945
20
0.0943075984251968
11
0.1710977165354331
21
0.0945293700787402
0
LINE
8
BLACK
6
CONTINUOUS
10
0.1710977165354331
20
0.0945293700787402
11
0.1729615748031496
21
0.0964598818897638
0
LINE
8
BLACK
6
CONTINUOUS
10
0.1729615748031496
20
0.0964598818897638
11
0.1731879133858268
21
0.0966456692913386
0
LINE
8
BLACK
6
CONTINUOUS
10
0.1731879133858268
20
0.0966456692913386
11
0.173239094488189
21
0.0967046456692913
0
LINE
8
BLACK
6
CONTINUOUS
10
0.173239094488189
20
0.0967046456692913
11
0.1732947244094488
21
0.0967333070866142
0
LINE
8
BLACK
6
CONTINUOUS
10
0.1732947244094488
20
0.0967333070866142
11
0.1734090157480315
21
0.0968270866141732
0
LINE
8
BLACK
6
CONTINUOUS
10
0.1734090157480315
20
0.0968270866141732
11
0.1737558661417323
21
0.0969707874015748
0
LINE
8
BLACK
6
CONTINUOUS
10
0.1737558661417323
20
0.0969707874015748
11
0.1774785039370079
21
0.0988877559055118
0
LINE
8
BLACK
6
CONTINUOUS
10
0.1774785039370079
20
0.0988877559055118
11
0.178019094488189
21
0.0990946456692913
0
LINE
8
BLACK
6
CONTINUOUS
10
0.178019094488189
20
0.0990946456692913
11
0.1781249606299213
21
0.0991022047244094
0
LINE
8
BLACK
6
CONTINUOUS
10
0.1781249606299213
20
0.0991022047244094
11
0.1782229527559055
21
0.0991427559055118
0
LINE
8
BLACK
6
CONTINUOUS
10
0.1782229527559055
20
0.0991427559055118
11
0.1788033070866142
21
0.0991503937007874
0
LINE
8
BLACK
6
CONTINUOUS
10
0.1788033070866142
20
0.0991503937007874
11
0.1791683070866142
21
0.0991762992125984
0
LINE
8
BLACK
6
CONTINUOUS
10
0.1791683070866142
20
0.0991762992125984
11
0.1792293307086614
21
0.0991559842519685
0
LINE
8
BLACK
6
CONTINUOUS
10
0.1792293307086614
20
0.0991559842519685
11
0.1825485433070866
21
0.0991994881889764
0
LINE
8
BLACK
6
CONTINUOUS
10
0.1825485433070866
20
0.0991994881889764
11
0.1828400787401575
21
0.0991707874015748
0
LINE
8
BLACK
6
CONTINUOUS
10
0.229029094488189
20
0.1319357086614173
11
0.229980905511811
21
0.1314031102362205
0
LINE
8
BLACK
6
CONTINUOUS
10
0.229980905511811
20
0.1314031102362205
11
0.2314627952755905
21
0.1305642125984252
0
LINE
8
BLACK
6
CONTINUOUS
10
0.2314627952755905
20
0.1305642125984252
11
0.2334266535433071
21
0.1294464960629921
0
LINE
8
BLACK
6
CONTINUOUS
10
0.2334266535433071
20
0.1294464960629921
11
0.2358243307086614
21
0.1280775196850394
0
LINE
8
BLACK
6
CONTINUOUS
10
0.2358243307086614
20
0.1280775196850394
11
0.2386077559055118
21
0.1264847244094488
0
LINE
8
BLACK
6
CONTINUOUS
10
0.2386077559055118
20
0.1264847244094488
11
0.2417287795275591
21
0.1246957480314961
0
LINE
8
BLACK
6
CONTINUOUS
10
0.2417287795275591
20
0.1246957480314961
11
0.2451393307086614
21
0.1227379921259843
0
LINE
8
BLACK
6
CONTINUOUS
10
0.2451393307086614
20
0.1227379921259843
11
0.2487911811023622
21
0.1206390157480315
0
LINE
8
BLACK
6
CONTINUOUS
10
0.2487911811023622
20
0.1206390157480315
11
0.2526363779527559
21
0.1184262992125984
0
LINE
8
BLACK
6
CONTINUOUS
10
0.2526363779527559
20
0.1184262992125984
11
0.2539724803149606
21
0.117656811023622
0
LINE
8
BLACK
6
CONTINUOUS
10
0.2539724803149606
20
0.117656811023622
11
0.2788602755905512
21
0.1033211811023622
0
LINE
8
BLACK
6
CONTINUOUS
10
0.2788602755905512
20
0.1033211811023622
11
0.2751903937007874
21
0.0932383070866142
0
LINE
8
BLACK
6
CONTINUOUS
10
0.2751903937007874
20
0.0932383070866142
11
0.2744887401574803
21
0.0936888188976378
0
LINE
8
BLACK
6
CONTINUOUS
10
0.2744887401574803
20
0.0936888188976378
11
0.2740686614173228
21
0.0939379133858268
0
LINE
8
BLACK
6
CONTINUOUS
10
0.2740686614173228
20
0.0939379133858268
11
0.2730718897637795
21
0.0945184645669291
0
LINE
8
BLACK
6
CONTINUOUS
10
0.2730718897637795
20
0.0945184645669291
11
0.2715486220472441
21
0.0954013385826772
0
LINE
8
BLACK
6
CONTINUOUS
10
0.2715486220472441
20
0.0954013385826772
11
0.2695489763779528
21
0.0965576771653543
0
LINE
8
BLACK
6
CONTINUOUS
10
0.2695489763779528
20
0.0965576771653543
11
0.2671231889763779
21
0.0979585039370079
0
LINE
8
BLACK
6
CONTINUOUS
10
0.2671231889763779
20
0.0979585039370079
11
0.2643214566929134
21
0.0995748818897638
0
LINE
8
BLACK
6
CONTINUOUS
10
0.2643214566929134
20
0.0995748818897638
11
0.2611938582677165
21
0.1013777165354331
0
LINE
8
BLACK
6
CONTINUOUS
10
0.2611938582677165
20
0.1013777165354331
11
0.2577906692913386
21
0.1033381496062992
0
LINE
8
BLACK
6
CONTINUOUS
10
0.2577906692913386
20
0.1033381496062992
11
0.2541620866141732
21
0.1054272834645669
0
LINE
8
BLACK
6
CONTINUOUS
10
0.2541620866141732
20
0.1054272834645669
11
0.2503582283464567
21
0.107616062992126
0
LINE
8
BLACK
6
CONTINUOUS
10
0.2503582283464567
20
0.107616062992126
11
0.2500863385826771
21
0.1077724803149606
0
LINE
8
BLACK
6
CONTINUOUS
10
0.2500863385826771
20
0.1077724803149606
11
0.2462671653543307
21
0.1099698031496063
0
LINE
8
BLACK
6
CONTINUOUS
10
0.2462671653543307
20
0.1099698031496063
11
0.242616062992126
21
0.1120714960629921
0
LINE
8
BLACK
6
CONTINUOUS
10
0.242616062992126
20
0.1120714960629921
11
0.2391837007874016
21
0.1140482677165354
0
LINE
8
BLACK
6
CONTINUOUS
10
0.2391837007874016
20
0.1140482677165354
11
0.2360206299212598
21
0.1158709842519685
0
LINE
8
BLACK
6
CONTINUOUS
10
0.2360206299212598
20
0.1158709842519685
11
0.2331774803149606
21
0.1175103937007874
0
LINE
8
BLACK
6
CONTINUOUS
10
0.2331774803149606
20
0.1175103937007874
11
0.2307049212598425
21
0.1189372834645669
0
LINE
8
BLACK
6
CONTINUOUS
10
0.2307049212598425
20
0.1189372834645669
11
0.2286535433070866
21
0.1201224409448819
0
LINE
8
BLACK
6
CONTINUOUS
10
0.2286535433070866
20
0.1201224409448819
11
0.2270739763779528
21
0.1210367322834646
0
LINE
8
BLACK
6
CONTINUOUS
10
0.2270739763779528
20
0.1210367322834646
11
0.2260168503937008
21
0.1216508661417323
0
LINE
8
BLACK
6
CONTINUOUS
10
0.2260168503937008
20
0.1216508661417323
11
0.225532874015748
21
0.1219357480314961
0
LINE
8
BLACK
6
CONTINUOUS
10
0.225532874015748
20
0.1219357480314961
11
0.2255227952755905
21
0.1219418897637795
0
LINE
8
BLACK
6
CONTINUOUS
10
0.2255227952755905
20
0.1219418897637795
11
0.2246599606299212
21
0.1224782677165354
0
LINE
8
BLACK
6
CONTINUOUS
10
0.2246599606299212
20
0.1224782677165354
11
0.2264430708661417
21
0.1273773622047244
0
LINE
8
BLACK
6
CONTINUOUS
10
0.2264430708661417
20
0.1273773622047244
11
0.2272009842519685
21
0.1294113385826772
0
LINE
8
BLACK
6
CONTINUOUS
10
0.2272009842519685
20
0.1294113385826772
11
0.2277741732283464
21
0.1308279921259843
0
LINE
8
BLACK
6
CONTINUOUS
10
0.2277741732283464
20
0.1308279921259843
11
0.2281961811023622
21
0.1316993307086614
0
LINE
8
BLACK
6
CONTINUOUS
10
0.2281961811023622
20
0.1316993307086614
11
0.2285003543307086
21
0.1320970472440945
0
LINE
8
BLACK
6
CONTINUOUS
10
0.2285003543307086
20
0.1320970472440945
11
0.2286554330708661
21
0.1321344488188976
0
LINE
8
BLACK
6
CONTINUOUS
10
0.2286554330708661
20
0.1321344488188976
11
0.229029094488189
21
0.1319357086614173
0
LINE
8
BLACK
6
CONTINUOUS
10
0.3059616141732283
20
0.1350667716535433
11
0.3069117716535433
21
0.1345299212598425
0
LINE
8
BLACK
6
CONTINUOUS
10
0.3069117716535433
20
0.1345299212598425
11
0.3083917322834646
21
0.1336865748031496
0
LINE
8
BLACK
6
CONTINUOUS
10
0.3083917322834646
20
0.1336865748031496
11
0.3103532283464567
21
0.1325644488188976
0
LINE
8
BLACK
6
CONTINUOUS
10
0.3103532283464567
20
0.1325644488188976
11
0.3127481496062992
21
0.1311911023622047
0
LINE
8
BLACK
6
CONTINUOUS
10
0.3127481496062992
20
0.1311911023622047
11
0.3155283858267717
21
0.1295942913385827
0
LINE
8
BLACK
6
CONTINUOUS
10
0.3155283858267717
20
0.1295942913385827
11
0.3186457874015748
21
0.1278015354330709
0
LINE
8
BLACK
6
CONTINUOUS
10
0.3186457874015748
20
0.1278015354330709
11
0.322052125984252
21
0.1258405511811024
0
LINE
8
BLACK
6
CONTINUOUS
10
0.322052125984252
20
0.1258405511811024
11
0.3256993307086614
21
0.123738937007874
0
LINE
8
BLACK
6
CONTINUOUS
10
0.3256993307086614
20
0.123738937007874
11
0.3295391732283465
21
0.1215244094488189
0
LINE
8
BLACK
6
CONTINUOUS
10
0.3295391732283465
20
0.1215244094488189
11
0.3308099212598425
21
0.1207911023622047
0
LINE
8
BLACK
6
CONTINUOUS
10
0.3308099212598425
20
0.1207911023622047
11
0.3556098818897638
21
0.1064783858267716
0
LINE
8
BLACK
6
CONTINUOUS
10
0.3556098818897638
20
0.1064783858267716
11
0.3538828346456693
21
0.1014408661417323
0
LINE
8
BLACK
6
CONTINUOUS
10
0.3538828346456693
20
0.1014408661417323
11
0.3532629527559055
21
0.099678031496063
0
LINE
8
BLACK
6
CONTINUOUS
10
0.3532629527559055
20
0.099678031496063
11
0.3527117322834646
21
0.0981951968503937
0
LINE
8
BLACK
6
CONTINUOUS
10
0.3527117322834646
20
0.0981951968503937
11
0.3522753149606299
21
0.097109842519685
0
LINE
8
BLACK
6
CONTINUOUS
10
0.3522753149606299
20
0.097109842519685
11
0.3519996062992126
21
0.0965393307086614
0
LINE
8
BLACK
6
CONTINUOUS
10
0.3519996062992126
20
0.0965393307086614
11
0.3519394488188976
21
0.096482125984252
0
LINE
8
BLACK
6
CONTINUOUS
10
0.3519394488188976
20
0.096482125984252
11
0.351573937007874
21
0.0966801181102362
0
LINE
8
BLACK
6
CONTINUOUS
10
0.351573937007874
20
0.0966801181102362
11
0.3506468110236221
21
0.0972032677165354
0
LINE
8
BLACK
6
CONTINUOUS
10
0.3506468110236221
20
0.0972032677165354
11
0.3492222047244095
21
0.0980147637795276
0
LINE
8
BLACK
6
CONTINUOUS
10
0.3492222047244095
20
0.0980147637795276
11
0.3473643307086614
21
0.0990774409448819
0
LINE
8
BLACK
6
CONTINUOUS
10
0.3473643307086614
20
0.0990774409448819
11
0.3451372834645669
21
0.1003543307086614
0
LINE
8
BLACK
6
CONTINUOUS
10
0.3451372834645669
20
0.1003543307086614
11
0.3426053149606299
21
0.1018084251968504
0
LINE
8
BLACK
6
CONTINUOUS
10
0.3426053149606299
20
0.1018084251968504
11
0.3398325196850394
21
0.1034027165354331
0
LINE
8
BLACK
6
CONTINUOUS
10
0.3398325196850394
20
0.1034027165354331
11
0.336883031496063
21
0.1051003937007874
0
LINE
8
BLACK
6
CONTINUOUS
10
0.336883031496063
20
0.1051003937007874
11
0.3338211417322834
21
0.1068642125984252
0
LINE
8
BLACK
6
CONTINUOUS
10
0.3338211417322834
20
0.1068642125984252
11
0.330710905511811
21
0.1086572440944882
0
LINE
8
BLACK
6
CONTINUOUS
10
0.330710905511811
20
0.1086572440944882
11
0.3276165354330708
21
0.1104425590551181
0
LINE
8
BLACK
6
CONTINUOUS
10
0.3276165354330708
20
0.1104425590551181
11
0.3246022047244094
21
0.1121831102362205
0
LINE
8
BLACK
6
CONTINUOUS
10
0.3246022047244094
20
0.1121831102362205
11
0.3217320866141732
21
0.1138418897637795
0
LINE
8
BLACK
6
CONTINUOUS
10
0.3217320866141732
20
0.1138418897637795
11
0.3190702755905512
21
0.1153818897637795
0
LINE
8
BLACK
6
CONTINUOUS
10
0.3190702755905512
20
0.1153818897637795
11
0.3166809842519685
21
0.1167661811023622
0
LINE
8
BLACK
6
CONTINUOUS
10
0.3166809842519685
20
0.1167661811023622
11
0.3146284251968504
21
0.1179577165354331
0
LINE
8
BLACK
6
CONTINUOUS
10
0.3146284251968504
20
0.1179577165354331
11
0.3129766929133858
21
0.1189194488188976
0
LINE
8
BLACK
6
CONTINUOUS
10
0.3129766929133858
20
0.1189194488188976
11
0.3117899606299213
21
0.1196144488188976
0
LINE
8
BLACK
6
CONTINUOUS
10
0.3117899606299213
20
0.1196144488188976
11
0.3111323622047244
21
0.1200057086614173
0
LINE
8
BLACK
6
CONTINUOUS
10
0.3111323622047244
20
0.1200057086614173
11
0.3110238188976378
21
0.1200745669291339
0
LINE
8
BLACK
6
CONTINUOUS
10
0.3110238188976378
20
0.1200745669291339
11
0.3108535433070866
21
0.1201533464566929
0
LINE
8
BLACK
6
CONTINUOUS
10
0.3108535433070866
20
0.1201533464566929
11
0.3106722834645669
21
0.1200824015748031
0
LINE
8
BLACK
6
CONTINUOUS
10
0.3106722834645669
20
0.1200824015748031
11
0.3104488582677165
21
0.1197909448818898
0
LINE
8
BLACK
6
CONTINUOUS
10
0.3104488582677165
20
0.1197909448818898
11
0.3101521653543307
21
0.1192082283464567
0
LINE
8
BLACK
6
CONTINUOUS
10
0.3101521653543307
20
0.1192082283464567
11
0.3097512204724409
21
0.1182633070866142
0
LINE
8
BLACK
6
CONTINUOUS
10
0.3097512204724409
20
0.1182633070866142
11
0.3092147637795276
21
0.1168853937007874
0
LINE
8
BLACK
6
CONTINUOUS
10
0.3092147637795276
20
0.1168853937007874
11
0.3085118897637795
21
0.1150036614173228
0
LINE
8
BLACK
6
CONTINUOUS
10
0.3085118897637795
20
0.1150036614173228
11
0.3076112992125984
21
0.1125472440944882
0
LINE
8
BLACK
6
CONTINUOUS
10
0.3076112992125984
20
0.1125472440944882
11
0.3070825984251969
21
0.1110959842519685
0
LINE
8
BLACK
6
CONTINUOUS
10
0.3070825984251969
20
0.1110959842519685
11
0.3036715354330708
21
0.1017240551181102
0
LINE
8
BLACK
6
CONTINUOUS
10
0.3036715354330708
20
0.1017240551181102
11
0.3029673228346457
21
0.1021677559055118
0
LINE
8
BLACK
6
CONTINUOUS
10
0.3029673228346457
20
0.1021677559055118
11
0.3023442125984252
21
0.102543031496063
0
LINE
8
BLACK
6
CONTINUOUS
10
0.3023442125984252
20
0.102543031496063
11
0.3012815748031496
21
0.1031661023622047
0
LINE
8
BLACK
6
CONTINUOUS
10
0.3012815748031496
20
0.1031661023622047
11
0.2999682283464567
21
0.1039266929133858
0
LINE
8
BLACK
6
CONTINUOUS
10
0.2999682283464567
20
0.1039266929133858
11
0.2993984251968504
21
0.1042541732283465
0
LINE
8
BLACK
6
CONTINUOUS
10
0.2993984251968504
20
0.1042541732283465
11
0.2980105118110236
21
0.1050533464566929
0
LINE
8
BLACK
6
CONTINUOUS
10
0.2980105118110236
20
0.1050533464566929
11
0.2967698818897638
21
0.1057737007874016
0
LINE
8
BLACK
6
CONTINUOUS
10
0.2967698818897638
20
0.1057737007874016
11
0.2958776771653543
21
0.106298188976378
0
LINE
8
BLACK
6
CONTINUOUS
10
0.2958776771653543
20
0.106298188976378
11
0.2956677165354331
21
0.1064243700787402
0
LINE
8
BLACK
6
CONTINUOUS
10
0.2956677165354331
20
0.1064243700787402
11
0.2948016535433071
21
0.1069518897637795
0
LINE
8
BLACK
6
CONTINUOUS
10
0.2948016535433071
20
0.1069518897637795
11
0.2999852362204724
21
0.1211935433070866
0
LINE
8
BLACK
6
CONTINUOUS
10
0.2999852362204724
20
0.1211935433070866
11
0.3013105905511811
21
0.1248222047244094
0
LINE
8
BLACK
6
CONTINUOUS
10
0.3013105905511811
20
0.1248222047244094
11
0.3024159448818898
21
0.1278179133858268
0
LINE
8
BLACK
6
CONTINUOUS
10
0.3024159448818898
20
0.1278179133858268
11
0.303320905511811
21
0.13023
0
LINE
8
BLACK
6
CONTINUOUS
10
0.303320905511811
20
0.13023
11
0.304045157480315
21
0.1321078346456693
0
LINE
8
BLACK
6
CONTINUOUS
10
0.304045157480315
20
0.1321078346456693
11
0.3046083464566929
21
0.1335006299212598
0
LINE
8
BLACK
6
CONTINUOUS
10
0.3046083464566929
20
0.1335006299212598
11
0.3050299606299213
21
0.1344576771653543
0
LINE
8
BLACK
6
CONTINUOUS
10
0.3050299606299213
20
0.1344576771653543
11
0.3053297244094488
21
0.1350283070866142
0
LINE
8
BLACK
6
CONTINUOUS
10
0.3053297244094488
20
0.1350283070866142
11
0.3055273622047244
21
0.1352617716535433
0
LINE
8
BLACK
6
CONTINUOUS
10
0.3055273622047244
20
0.1352617716535433
11
0.3055893700787402
21
0.1352695275590551
0
LINE
8
BLACK
6
CONTINUOUS
10
0.3055893700787402
20
0.1352695275590551
11
0.3059616141732283
21
0.1350667716535433
0
LINE
8
BLACK
6
CONTINUOUS
10
0.3823097244094488
20
0.1376729527559055
11
0.3832612992125984
21
0.1371356692913386
0
LINE
8
BLACK
6
CONTINUOUS
10
0.3832612992125984
20
0.1371356692913386
11
0.3847426771653543
21
0.1362920472440945
0
LINE
8
BLACK
6
CONTINUOUS
10
0.3847426771653543
20
0.1362920472440945
11
0.3867056692913386
21
0.1351697244094488
0
LINE
8
BLACK
6
CONTINUOUS
10
0.3867056692913386
20
0.1351697244094488
11
0.3891020078740157
21
0.1337962204724409
0
LINE
8
BLACK
6
CONTINUOUS
10
0.3891020078740157
20
0.1337962204724409
11
0.3918835039370079
21
0.1321993307086614
0
LINE
8
BLACK
6
CONTINUOUS
10
0.3918835039370079
20
0.1321993307086614
11
0.3950020472440945
21
0.1304065748031496
0
LINE
8
BLACK
6
CONTINUOUS
10
0.3950020472440945
20
0.1304065748031496
11
0.3984094094488189
21
0.1284457480314961
0
LINE
8
BLACK
6
CONTINUOUS
10
0.3984094094488189
20
0.1284457480314961
11
0.4020574409448819
21
0.1263443700787402
0
LINE
8
BLACK
6
CONTINUOUS
10
0.4020574409448819
20
0.1263443700787402
11
0.4058979133858268
21
0.124130157480315
0
LINE
8
BLACK
6
CONTINUOUS
10
0.4058979133858268
20
0.124130157480315
11
0.4071669291338583
21
0.123398031496063
0
LINE
8
BLACK
6
CONTINUOUS
10
0.4071669291338583
20
0.123398031496063
11
0.431968031496063
21
0.1090885826771654
0
LINE
8
BLACK
6
CONTINUOUS
10
0.431968031496063
20
0.1090885826771654
11
0.4284888188976378
21
0.0989433070866142
0
LINE
8
BLACK
6
CONTINUOUS
10
0.4284888188976378
20
0.0989433070866142
11
0.4272853937007874
21
0.0996297637795276
0
LINE
8
BLACK
6
CONTINUOUS
10
0.4272853937007874
20
0.0996297637795276
11
0.4267844881889764
21
0.0999174803149606
0
LINE
8
BLACK
6
CONTINUOUS
10
0.4267844881889764
20
0.0999174803149606
11
0.4257084251968504
21
0.100536968503937
0
LINE
8
BLACK
6
CONTINUOUS
10
0.4257084251968504
20
0.100536968503937
11
0.4241081889763779
21
0.1014588582677165
0
LINE
8
BLACK
6
CONTINUOUS
10
0.4241081889763779
20
0.1014588582677165
11
0.4220351181102362
21
0.1026535433070866
0
LINE
8
BLACK
6
CONTINUOUS
10
0.4220351181102362
20
0.1026535433070866
11
0.4195402362204724
21
0.1040916535433071
0
LINE
8
BLACK
6
CONTINUOUS
10
0.4195402362204724
20
0.1040916535433071
11
0.4166748031496063
21
0.1057436614173228
0
LINE
8
BLACK
6
CONTINUOUS
10
0.4166748031496063
20
0.1057436614173228
11
0.4134897637795276
21
0.1075800393700787
0
LINE
8
BLACK
6
CONTINUOUS
10
0.4134897637795276
20
0.1075800393700787
11
0.4100364173228346
21
0.1095713779527559
0
LINE
8
BLACK
6
CONTINUOUS
10
0.4100364173228346
20
0.1095713779527559
11
0.4063658267716536
21
0.1116881102362205
0
LINE
8
BLACK
6
CONTINUOUS
10
0.4063658267716536
20
0.1116881102362205
11
0.4025291338582677
21
0.1139009842519685
0
LINE
8
BLACK
6
CONTINUOUS
10
0.4025291338582677
20
0.1139009842519685
11
0.4020743700787401
21
0.1141632283464567
0
LINE
8
BLACK
6
CONTINUOUS
10
0.4020743700787401
20
0.1141632283464567
11
0.3780668110236221
21
0.1280103149606299
0
LINE
8
BLACK
6
CONTINUOUS
10
0.3780668110236221
20
0.1280103149606299
11
0.3797864173228346
21
0.1330275196850394
0
LINE
8
BLACK
6
CONTINUOUS
10
0.3797864173228346
20
0.1330275196850394
11
0.3804983464566929
21
0.1350615354330709
0
LINE
8
BLACK
6
CONTINUOUS
10
0.3804983464566929
20
0.1350615354330709
11
0.3810351968503937
21
0.1364832677165354
0
LINE
8
BLACK
6
CONTINUOUS
10
0.3810351968503937
20
0.1364832677165354
11
0.3814323228346457
21
0.1373723622047244
0
LINE
8
BLACK
6
CONTINUOUS
10
0.3814323228346457
20
0.1373723622047244
11
0.381725
21
0.1378082677165354
0
LINE
8
BLACK
6
CONTINUOUS
10
0.381725
20
0.1378082677165354
11
0.381935905511811
21
0.1378761023622047
0
LINE
8
BLACK
6
CONTINUOUS
10
0.381935905511811
20
0.1378761023622047
11
0.3823097244094488
21
0.1376729527559055
0
LINE
8
BLACK
6
CONTINUOUS
10
0.3196855511811024
20
0.1736266141732283
11
0.3200982283464567
21
0.1734111811023622
0
LINE
8
BLACK
6
CONTINUOUS
10
0.3200982283464567
20
0.1734111811023622
11
0.3210729527559055
21
0.1728689763779528
0
LINE
8
BLACK
6
CONTINUOUS
10
0.3210729527559055
20
0.1728689763779528
11
0.3225517716535433
21
0.1720335433070866
0
LINE
8
BLACK
6
CONTINUOUS
10
0.3225517716535433
20
0.1720335433070866
11
0.3244768897637795
21
0.1709381889763779
0
LINE
8
BLACK
6
CONTINUOUS
10
0.3244768897637795
20
0.1709381889763779
11
0.3267902755905512
21
0.1696164173228346
0
LINE
8
BLACK
6
CONTINUOUS
10
0.3267902755905512
20
0.1696164173228346
11
0.3294340157480315
21
0.1681016535433071
0
LINE
8
BLACK
6
CONTINUOUS
10
0.3294340157480315
20
0.1681016535433071
11
0.3323502362204724
21
0.1664272834645669
0
LINE
8
BLACK
6
CONTINUOUS
10
0.3323502362204724
20
0.1664272834645669
11
0.3354811417322834
21
0.1646268503937008
0
LINE
8
BLACK
6
CONTINUOUS
10
0.3354811417322834
20
0.1646268503937008
11
0.3387686220472441
21
0.1627337007874016
0
LINE
8
BLACK
6
CONTINUOUS
10
0.3387686220472441
20
0.1627337007874016
11
0.3421548031496063
21
0.1607812598425197
0
LINE
8
BLACK
6
CONTINUOUS
10
0.3421548031496063
20
0.1607812598425197
11
0.3455820078740157
21
0.1588030708661417
0
LINE
8
BLACK
6
CONTINUOUS
10
0.3455820078740157
20
0.1588030708661417
11
0.3489920866141732
21
0.1568324015748032
0
LINE
8
BLACK
6
CONTINUOUS
10
0.3489920866141732
20
0.1568324015748032
11
0.3523272440944882
21
0.154902874015748
0
LINE
8
BLACK
6
CONTINUOUS
10
0.3523272440944882
20
0.154902874015748
11
0.3555294488188976
21
0.1530477559055118
0
LINE
8
BLACK
6
CONTINUOUS
10
0.3555294488188976
20
0.1530477559055118
11
0.3585409842519685
21
0.1513006692913386
0
LINE
8
BLACK
6
CONTINUOUS
10
0.3585409842519685
20
0.1513006692913386
11
0.361303779527559
21
0.1496948818897638
0
LINE
8
BLACK
6
CONTINUOUS
10
0.361303779527559
20
0.1496948818897638
11
0.36376
21
0.1482638582677165
0
LINE
8
BLACK
6
CONTINUOUS
10
0.36376
20
0.1482638582677165
11
0.3658516929133858
21
0.1470411417322835
0
LINE
8
BLACK
6
CONTINUOUS
10
0.3658516929133858
20
0.1470411417322835
11
0.3675209842519685
21
0.1460600393700787
0
LINE
8
BLACK
6
CONTINUOUS
10
0.3675209842519685
20
0.1460600393700787
11
0.3687100393700787
21
0.1453540551181102
0
LINE
8
BLACK
6
CONTINUOUS
10
0.3687100393700787
20
0.1453540551181102
11
0.3693608267716535
21
0.1449566141732283
0
LINE
8
BLACK
6
CONTINUOUS
10
0.3693608267716535
20
0.1449566141732283
11
0.3694679133858267
21
0.1448822440944882
0
LINE
8
BLACK
6
CONTINUOUS
10
0.3694679133858267
20
0.1448822440944882
11
0.3693888582677165
21
0.1445038976377953
0
LINE
8
BLACK
6
CONTINUOUS
10
0.3693888582677165
20
0.1445038976377953
11
0.3690875984251968
21
0.1435295669291339
0
LINE
8
BLACK
6
CONTINUOUS
10
0.3690875984251968
20
0.1435295669291339
11
0.3685935826771654
21
0.1420412992125984
0
LINE
8
BLACK
6
CONTINUOUS
10
0.3685935826771654
20
0.1420412992125984
11
0.3679363779527559
21
0.1401209448818898
0
LINE
8
BLACK
6
CONTINUOUS
10
0.3679363779527559
20
0.1401209448818898
11
0.3671455511811024
21
0.1378503149606299
0
LINE
8
BLACK
6
CONTINUOUS
10
0.3671455511811024
20
0.1378503149606299
11
0.3662506299212598
21
0.1353114960629921
0
LINE
8
BLACK
6
CONTINUOUS
10
0.3662506299212598
20
0.1353114960629921
11
0.3652811023622047
21
0.1325862992125984
0
LINE
8
BLACK
6
CONTINUOUS
10
0.3652811023622047
20
0.1325862992125984
11
0.3642665748031496
21
0.1297565354330709
0
LINE
8
BLACK
6
CONTINUOUS
10
0.3642665748031496
20
0.1297565354330709
11
0.3632365748031496
21
0.1269042519685039
0
LINE
8
BLACK
6
CONTINUOUS
10
0.3632365748031496
20
0.1269042519685039
11
0.3622204330708662
21
0.1241112992125984
0
LINE
8
BLACK
6
CONTINUOUS
10
0.3622204330708662
20
0.1241112992125984
11
0.3612479921259842
21
0.1214595669291339
0
LINE
8
BLACK
6
CONTINUOUS
10
0.3612479921259842
20
0.1214595669291339
11
0.3603486220472441
21
0.1190309842519685
0
LINE
8
BLACK
6
CONTINUOUS
10
0.3603486220472441
20
0.1190309842519685
11
0.3595518503937008
21
0.1169074803149606
0
LINE
8
BLACK
6
CONTINUOUS
10
0.3595518503937008
20
0.1169074803149606
11
0.3588873228346456
21
0.1151709448818898
0
LINE
8
BLACK
6
CONTINUOUS
10
0.3588873228346456
20
0.1151709448818898
11
0.3583844094488189
21
0.113903188976378
0
LINE
8
BLACK
6
CONTINUOUS
10
0.3583844094488189
20
0.113903188976378
11
0.3580727559055118
21
0.1131862598425197
0
LINE
8
BLACK
6
CONTINUOUS
10
0.3580727559055118
20
0.1131862598425197
11
0.3579913385826772
21
0.1130550787401575
0
LINE
8
BLACK
6
CONTINUOUS
10
0.3579913385826772
20
0.1130550787401575
11
0.3576050393700788
21
0.1131843307086614
0
LINE
8
BLACK
6
CONTINUOUS
10
0.3576050393700788
20
0.1131843307086614
11
0.3567193307086614
21
0.1136191338582677
0
LINE
8
BLACK
6
CONTINUOUS
10
0.3567193307086614
20
0.1136191338582677
11
0.3554564566929134
21
0.1142954724409449
0
LINE
8
BLACK
6
CONTINUOUS
10
0.3554564566929134
20
0.1142954724409449
11
0.353938779527559
21
0.1151495669291339
0
LINE
8
BLACK
6
CONTINUOUS
10
0.353938779527559
20
0.1151495669291339
11
0.353546062992126
21
0.1153763385826772
0
LINE
8
BLACK
6
CONTINUOUS
10
0.353546062992126
20
0.1153763385826772
11
0.3519805905511811
21
0.1162808267716535
0
LINE
8
BLACK
6
CONTINUOUS
10
0.3519805905511811
20
0.1162808267716535
11
0.3506408661417323
21
0.1170479527559055
0
LINE
8
BLACK
6
CONTINUOUS
10
0.3506408661417323
20
0.1170479527559055
11
0.3496504330708661
21
0.1176072834645669
0
LINE
8
BLACK
6
CONTINUOUS
10
0.3496504330708661
20
0.1176072834645669
11
0.3491325984251968
21
0.1178888582677165
0
LINE
8
BLACK
6
CONTINUOUS
10
0.3491325984251968
20
0.1178888582677165
11
0.3490931889763779
21
0.117906968503937
0
LINE
8
BLACK
6
CONTINUOUS
10
0.3490931889763779
20
0.117906968503937
11
0.3491506692913386
21
0.1182562598425197
0
LINE
8
BLACK
6
CONTINUOUS
10
0.3491506692913386
20
0.1182562598425197
11
0.3494316535433071
21
0.1192030708661417
0
LINE
8
BLACK
6
CONTINUOUS
10
0.3494316535433071
20
0.1192030708661417
11
0.349909094488189
21
0.1206670472440945
0
LINE
8
BLACK
6
CONTINUOUS
10
0.349909094488189
20
0.1206670472440945
11
0.3505555118110236
21
0.1225675196850394
0
LINE
8
BLACK
6
CONTINUOUS
10
0.3505555118110236
20
0.1225675196850394
11
0.351343937007874
21
0.1248238582677165
0
LINE
8
BLACK
6
CONTINUOUS
10
0.351343937007874
20
0.1248238582677165
11
0.3522468897637795
21
0.1273556299212598
0
LINE
8
BLACK
6
CONTINUOUS
10
0.3522468897637795
20
0.1273556299212598
11
0.3528488976377953
21
0.1290186614173228
0
LINE
8
BLACK
6
CONTINUOUS
10
0.3528488976377953
20
0.1290186614173228
11
0.3568588188976378
21
0.1400358267716535
0
LINE
8
BLACK
6
CONTINUOUS
10
0.3568588188976378
20
0.1400358267716535
11
0.355203937007874
21
0.1410385433070866
0
LINE
8
BLACK
6
CONTINUOUS
10
0.355203937007874
20
0.1410385433070866
11
0.3541009842519685
21
0.1416961417322835
0
LINE
8
BLACK
6
CONTINUOUS
10
0.3541009842519685
20
0.1416961417322835
11
0.3526397637795275
21
0.1425531889763779
0
LINE
8
BLACK
6
CONTINUOUS
10
0.3526397637795275
20
0.1425531889763779
11
0.3510904330708661
21
0.1434514566929134
0
LINE
8
BLACK
6
CONTINUOUS
10
0.3510904330708661
20
0.1434514566929134
11
0.3506846062992126
21
0.1436848031496063
0
LINE
8
BLACK
6
CONTINUOUS
10
0.3506846062992126
20
0.1436848031496063
11
0.349323031496063
21
0.1444703543307087
0
LINE
8
BLACK
6
CONTINUOUS
10
0.349323031496063
20
0.1444703543307087
11
0.3481344094488189
21
0.1451637007874016
0
LINE
8
BLACK
6
CONTINUOUS
10
0.3481344094488189
20
0.1451637007874016
11
0.3473074409448819
21
0.1456545669291339
0
LINE
8
BLACK
6
CONTINUOUS
10
0.3473074409448819
20
0.1456545669291339
11
0.347116062992126
21
0.145772125984252
0
LINE
8
BLACK
6
CONTINUOUS
10
0.347116062992126
20
0.145772125984252
11
0.3464119291338583
21
0.1462158267716535
0
LINE
8
BLACK
6
CONTINUOUS
10
0.3464119291338583
20
0.1462158267716535
11
0.3433182677165355
21
0.1377161023622047
0
LINE
8
BLACK
6
CONTINUOUS
10
0.3433182677165355
20
0.1377161023622047
11
0.3423102362204724
21
0.134970157480315
0
LINE
8
BLACK
6
CONTINUOUS
10
0.3423102362204724
20
0.134970157480315
11
0.3415097637795276
21
0.1328476771653543
0
LINE
8
BLACK
6
CONTINUOUS
10
0.3415097637795276
20
0.1328476771653543
11
0.3408910236220473
21
0.1312878346456693
0
LINE
8
BLACK
6
CONTINUOUS
10
0.3408910236220473
20
0.1312878346456693
11
0.3404284251968504
21
0.1302294094488189
0
LINE
8
BLACK
6
CONTINUOUS
10
0.3404284251968504
20
0.1302294094488189
11
0.3400962204724409
21
0.1296116929133858
0
LINE
8
BLACK
6
CONTINUOUS
10
0.3400962204724409
20
0.1296116929133858
11
0.3398687007874016
21
0.1293736614173228
0
LINE
8
BLACK
6
CONTINUOUS
10
0.3398687007874016
20
0.1293736614173228
11
0.3398001574803149
21
0.1293714566929134
0
LINE
8
BLACK
6
CONTINUOUS
10
0.3398001574803149
20
0.1293714566929134
11
0.3393537007874016
21
0.1296003543307087
0
LINE
8
BLACK
6
CONTINUOUS
10
0.3393537007874016
20
0.1296003543307087
11
0.3384360236220472
21
0.1301116535433071
0
LINE
8
BLACK
6
CONTINUOUS
10
0.3384360236220472
20
0.1301116535433071
11
0.3371973622047244
21
0.1308181496062992
0
LINE
8
BLACK
6
CONTINUOUS
10
0.3371973622047244
20
0.1308181496062992
11
0.3357879133858268
21
0.1316328346456693
0
LINE
8
BLACK
6
CONTINUOUS
10
0.3357879133858268
20
0.1316328346456693
11
0.3343581102362205
21
0.1324685433070866
0
LINE
8
BLACK
6
CONTINUOUS
10
0.3343581102362205
20
0.1324685433070866
11
0.3330581102362205
21
0.133238188976378
0
LINE
8
BLACK
6
CONTINUOUS
10
0.3330581102362205
20
0.133238188976378
11
0.3320382677165354
21
0.1338547244094488
0
LINE
8
BLACK
6
CONTINUOUS
10
0.3320382677165354
20
0.1338547244094488
11
0.3316983858267716
21
0.1340668897637795
0
LINE
8
BLACK
6
CONTINUOUS
10
0.3316983858267716
20
0.1340668897637795
11
0.3309953543307086
21
0.1345138582677165
0
LINE
8
BLACK
6
CONTINUOUS
10
0.3309953543307086
20
0.1345138582677165
11
0.3371685433070866
21
0.1514744488188976
0
LINE
8
BLACK
6
CONTINUOUS
10
0.3371685433070866
20
0.1514744488188976
11
0.3364673228346456
21
0.1519261023622047
0
LINE
8
BLACK
6
CONTINUOUS
10
0.3364673228346456
20
0.1519261023622047
11
0.3359743307086614
21
0.1522212598425197
0
LINE
8
BLACK
6
CONTINUOUS
10
0.3359743307086614
20
0.1522212598425197
11
0.3349433464566929
21
0.1528220472440945
0
LINE
8
BLACK
6
CONTINUOUS
10
0.3349433464566929
20
0.1528220472440945
11
0.3334648031496063
21
0.1536765354330709
0
LINE
8
BLACK
6
CONTINUOUS
10
0.3334648031496063
20
0.1536765354330709
11
0.3316290551181102
21
0.1547325196850394
0
LINE
8
BLACK
6
CONTINUOUS
10
0.3316290551181102
20
0.1547325196850394
11
0.3295264566929134
21
0.1559379527559055
0
LINE
8
BLACK
6
CONTINUOUS
10
0.3295264566929134
20
0.1559379527559055
11
0.3273244881889764
21
0.1571966929133858
0
LINE
8
BLACK
6
CONTINUOUS
10
0.3273244881889764
20
0.1571966929133858
11
0.3249855905511811
21
0.1585340551181102
0
LINE
8
BLACK
6
CONTINUOUS
10
0.3249855905511811
20
0.1585340551181102
11
0.3227676377952756
21
0.1598062598425197
0
LINE
8
BLACK
6
CONTINUOUS
10
0.3227676377952756
20
0.1598062598425197
11
0.3207744094488189
21
0.1609534645669291
0
LINE
8
BLACK
6
CONTINUOUS
10
0.3207744094488189
20
0.1609534645669291
11
0.3191096850393701
21
0.1619158661417323
0
LINE
8
BLACK
6
CONTINUOUS
10
0.3191096850393701
20
0.1619158661417323
11
0.3178772440944882
21
0.1626336220472441
0
LINE
8
BLACK
6
CONTINUOUS
10
0.3178772440944882
20
0.1626336220472441
11
0.317228031496063
21
0.1630181496062992
0
LINE
8
BLACK
6
CONTINUOUS
10
0.317228031496063
20
0.1630181496062992
11
0.315573031496063
21
0.1640206299212598
0
LINE
8
BLACK
6
CONTINUOUS
10
0.315573031496063
20
0.1640206299212598
11
0.3173572047244094
21
0.1689226377952756
0
LINE
8
BLACK
6
CONTINUOUS
10
0.3173572047244094
20
0.1689226377952756
11
0.3180705118110236
21
0.1708563385826772
0
LINE
8
BLACK
6
CONTINUOUS
10
0.3180705118110236
20
0.1708563385826772
11
0.3185967322834646
21
0.1722010236220472
0
LINE
8
BLACK
6
CONTINUOUS
10
0.3185967322834646
20
0.1722010236220472
11
0.318982874015748
21
0.1730516141732283
0
LINE
8
BLACK
6
CONTINUOUS
10
0.318982874015748
20
0.1730516141732283
11
0.3192759448818898
21
0.1735029921259842
0
LINE
8
BLACK
6
CONTINUOUS
10
0.3192759448818898
20
0.1735029921259842
11
0.3195230708661417
21
0.1736504330708661
0
LINE
8
BLACK
6
CONTINUOUS
10
0.3195230708661417
20
0.1736504330708661
11
0.3196855511811024
21
0.1736266141732283
0
LINE
8
BLACK
6
CONTINUOUS
10
0.1875052362204724
20
0.2003134251968504
11
0.1876850393700787
21
0.1285433070866142
0
LINE
8
BLACK
6
CONTINUOUS
10
0.1876850393700787
20
0.1285433070866142
11
0.1875052362204724
21
0.1276393307086614
0
LINE
8
BLACK
6
CONTINUOUS
10
0.1875052362204724
20
0.1276393307086614
11
0.186226811023622
21
0.126360905511811
0
LINE
8
BLACK
6
CONTINUOUS
10
0.186226811023622
20
0.126360905511811
11
0.1282362204724409
21
0.1261811023622047
0
LINE
8
BLACK
6
CONTINUOUS
10
0.1282362204724409
20
0.1261811023622047
11
0.1273322440944882
21
0.126360905511811
0
LINE
8
BLACK
6
CONTINUOUS
10
0.1273322440944882
20
0.126360905511811
11
0.1260538188976378
21
0.1276393307086614
0
LINE
8
BLACK
6
CONTINUOUS
10
0.1260538188976378
20
0.1276393307086614
11
0.1260538188976378
21
0.1294472834645669
0
LINE
8
BLACK
6
CONTINUOUS
10
0.1260538188976378
20
0.1294472834645669
11
0.1273322440944882
21
0.1307257086614173
0
LINE
8
BLACK
6
CONTINUOUS
10
0.1273322440944882
20
0.1307257086614173
11
0.1831322440944882
21
0.1308987401574803
0
LINE
8
BLACK
6
CONTINUOUS
10
0.1831322440944882
20
0.1308987401574803
11
0.1829606299212598
21
0.1994094488188976
0
LINE
8
BLACK
6
CONTINUOUS
10
0.1829606299212598
20
0.1994094488188976
11
0.1831404330708661
21
0.2003134251968504
0
LINE
8
BLACK
6
CONTINUOUS
10
0.1831404330708661
20
0.2003134251968504
11
0.1844188582677165
21
0.2015918503937008
0
LINE
8
BLACK
6
CONTINUOUS
10
0.1844188582677165
20
0.2015918503937008
11
0.186226811023622
21
0.2015918503937008
0
LINE
8
BLACK
6
CONTINUOUS
10
0.186226811023622
20
0.2015918503937008
11
0.1875052362204724
21
0.2003134251968504
0
LINE
8
BLACK
6
CONTINUOUS
10
0.2436536614173228
20
0.1707278346456693
11
0.2441545669291338
21
0.1704400393700787
0
LINE
8
BLACK
6
CONTINUOUS
10
0.2441545669291338
20
0.1704400393700787
11
0.2452307086614173
21
0.1698205511811024
0
LINE
8
BLACK
6
CONTINUOUS
10
0.2452307086614173
20
0.1698205511811024
11
0.2468310236220472
21
0.1688988582677165
0
LINE
8
BLACK
6
CONTINUOUS
10
0.2468310236220472
20
0.1688988582677165
11
0.2489042125984252
21
0.1677043700787401
0
LINE
8
BLACK
6
CONTINUOUS
10
0.2489042125984252
20
0.1677043700787401
11
0.2513992519685039
21
0.1662666141732284
0
LINE
8
BLACK
6
CONTINUOUS
10
0.2513992519685039
20
0.1662666141732284
11
0.254265
21
0.164615
0
LINE
8
BLACK
6
CONTINUOUS
10
0.254265
20
0.164615
11
0.2574502755905512
21
0.1627790551181102
0
LINE
8
BLACK
6
CONTINUOUS
10
0.2574502755905512
20
0.1627790551181102
11
0.2609038976377953
21
0.1607881889763779
0
LINE
8
BLACK
6
CONTINUOUS
10
0.2609038976377953
20
0.1607881889763779
11
0.2645747637795275
21
0.1586720078740158
0
LINE
8
BLACK
6
CONTINUOUS
10
0.2645747637795275
20
0.1586720078740158
11
0.2684118503937008
21
0.156459842519685
0
LINE
8
BLACK
6
CONTINUOUS
10
0.2684118503937008
20
0.156459842519685
11
0.2688659842519685
21
0.1561979921259843
0
LINE
8
BLACK
6
CONTINUOUS
10
0.2688659842519685
20
0.1561979921259843
11
0.2928751968503937
21
0.1423553149606299
0
LINE
8
BLACK
6
CONTINUOUS
10
0.2928751968503937
20
0.1423553149606299
11
0.2911542125984252
21
0.1373344881889764
0
LINE
8
BLACK
6
CONTINUOUS
10
0.2911542125984252
20
0.1373344881889764
11
0.290441968503937
21
0.1352996850393701
0
LINE
8
BLACK
6
CONTINUOUS
10
0.290441968503937
20
0.1352996850393701
11
0.2899049212598425
21
0.1338772047244094
0
LINE
8
BLACK
6
CONTINUOUS
10
0.2899049212598425
20
0.1338772047244094
11
0.2895076377952756
21
0.1329873622047244
0
LINE
8
BLACK
6
CONTINUOUS
10
0.2895076377952756
20
0.1329873622047244
11
0.2892149212598425
21
0.1325507874015748
0
LINE
8
BLACK
6
CONTINUOUS
10
0.2892149212598425
20
0.1325507874015748
11
0.2890034645669291
21
0.1324824803149606
0
LINE
8
BLACK
6
CONTINUOUS
10
0.2890034645669291
20
0.1324824803149606
11
0.2886298031496063
21
0.1326858267716536
0
LINE
8
BLACK
6
CONTINUOUS
10
0.2886298031496063
20
0.1326858267716536
11
0.2876782283464567
21
0.1332231889763779
0
LINE
8
BLACK
6
CONTINUOUS
10
0.2876782283464567
20
0.1332231889763779
11
0.286196968503937
21
0.1340670078740157
0
LINE
8
BLACK
6
CONTINUOUS
10
0.286196968503937
20
0.1340670078740157
11
0.2842341338582677
21
0.1351896456692913
0
LINE
8
BLACK
6
CONTINUOUS
10
0.2842341338582677
20
0.1351896456692913
11
0.2818379921259843
21
0.1365634645669291
0
LINE
8
BLACK
6
CONTINUOUS
10
0.2818379921259843
20
0.1365634645669291
11
0.2790566141732284
21
0.1381607480314961
0
LINE
8
BLACK
6
CONTINUOUS
10
0.2790566141732284
20
0.1381607480314961
11
0.2759383070866142
21
0.1399538976377953
0
LINE
8
BLACK
6
CONTINUOUS
10
0.2759383070866142
20
0.1399538976377953
11
0.2725312204724409
21
0.141915157480315
0
LINE
8
BLACK
6
CONTINUOUS
10
0.2725312204724409
20
0.141915157480315
11
0.2688834251968504
21
0.1440170472440945
0
LINE
8
BLACK
6
CONTINUOUS
10
0.2688834251968504
20
0.1440170472440945
11
0.265043188976378
21
0.1462317322834646
0
LINE
8
BLACK
6
CONTINUOUS
10
0.265043188976378
20
0.1462317322834646
11
0.2637738582677165
21
0.1469642519685039
0
LINE
8
BLACK
6
CONTINUOUS
10
0.2637738582677165
20
0.1469642519685039
11
0.2389738976377953
21
0.1612770078740157
0
LINE
8
BLACK
6
CONTINUOUS
10
0.2389738976377953
20
0.1612770078740157
11
0.2424505118110236
21
0.1714149212598425
0
LINE
8
BLACK
6
CONTINUOUS
10
0.2424505118110236
20
0.1714149212598425
11
0.2436536614173228
21
0.1707278346456693
0
LINE
8
BLACK
6
CONTINUOUS
10
0.3624804330708661
20
0.2091264173228346
11
0.3636732283464567
21
0.2086879527559055
0
LINE
8
BLACK
6
CONTINUOUS
10
0.3636732283464567
20
0.2086879527559055
11
0.3893723622047244
21
0.1992400787401575
0
LINE
8
BLACK
6
CONTINUOUS
10
0.3893723622047244
20
0.1992400787401575
11
0.3850174015748031
21
0.1873594488188976
0
LINE
8
BLACK
6
CONTINUOUS
10
0.3850174015748031
20
0.1873594488188976
11
0.3837070472440945
21
0.1838053543307087
0
LINE
8
BLACK
6
CONTINUOUS
10
0.3837070472440945
20
0.1838053543307087
11
0.3825965354330709
21
0.1808566929133858
0
LINE
8
BLACK
6
CONTINUOUS
10
0.3825965354330709
20
0.1808566929133858
11
0.3816471259842519
21
0.1784361811023622
0
LINE
8
BLACK
6
CONTINUOUS
10
0.3816471259842519
20
0.1784361811023622
11
0.3808201968503937
21
0.1764666535433071
0
LINE
8
BLACK
6
CONTINUOUS
10
0.3808201968503937
20
0.1764666535433071
11
0.380076968503937
21
0.1748708267716535
0
LINE
8
BLACK
6
CONTINUOUS
10
0.380076968503937
20
0.1748708267716535
11
0.3793787795275591
21
0.1735715354330709
0
LINE
8
BLACK
6
CONTINUOUS
10
0.3793787795275591
20
0.1735715354330709
11
0.3786868897637795
21
0.1724916141732283
0
LINE
8
BLACK
6
CONTINUOUS
10
0.3786868897637795
20
0.1724916141732283
11
0.3779625984251969
21
0.1715538188976378
0
LINE
8
BLACK
6
CONTINUOUS
10
0.3779625984251969
20
0.1715538188976378
11
0.3771672440944882
21
0.170680905511811
0
LINE
8
BLACK
6
CONTINUOUS
10
0.3771672440944882
20
0.170680905511811
11
0.3762620866141732
21
0.1697957086614173
0
LINE
8
BLACK
6
CONTINUOUS
10
0.3762620866141732
20
0.1697957086614173
11
0.3761688582677165
21
0.1697081496062992
0
LINE
8
BLACK
6
CONTINUOUS
10
0.3761688582677165
20
0.1697081496062992
11
0.3734877559055118
21
0.167638031496063
0
LINE
8
BLACK
6
CONTINUOUS
10
0.3734877559055118
20
0.167638031496063
11
0.3705977559055118
21
0.1662594488188976
0
LINE
8
BLACK
6
CONTINUOUS
10
0.3705977559055118
20
0.1662594488188976
11
0.3675025984251968
21
0.1655737795275591
0
LINE
8
BLACK
6
CONTINUOUS
10
0.3675025984251968
20
0.1655737795275591
11
0.3644738976377953
21
0.1655563779527559
0
LINE
8
BLACK
6
CONTINUOUS
10
0.3644738976377953
20
0.1655563779527559
11
0.3625883464566929
21
0.1658842125984252
0
LINE
8
BLACK
6
CONTINUOUS
10
0.3625883464566929
20
0.1658842125984252
11
0.3603803149606299
21
0.1665148031496063
0
LINE
8
BLACK
6
CONTINUOUS
10
0.3603803149606299
20
0.1665148031496063
11
0.3580793307086614
21
0.1673593307086614
0
LINE
8
BLACK
6
CONTINUOUS
10
0.3580793307086614
20
0.1673593307086614
11
0.3559150393700787
21
0.1683288188976378
0
LINE
8
BLACK
6
CONTINUOUS
10
0.3559150393700787
20
0.1683288188976378
11
0.354116968503937
21
0.1693342913385827
0
LINE
8
BLACK
6
CONTINUOUS
10
0.354116968503937
20
0.1693342913385827
11
0.3533974015748031
21
0.1698463779527559
0
LINE
8
BLACK
6
CONTINUOUS
10
0.3533974015748031
20
0.1698463779527559
11
0.3510216929133858
21
0.1721935039370079
0
LINE
8
BLACK
6
CONTINUOUS
10
0.3510216929133858
20
0.1721935039370079
11
0.3492241732283464
21
0.1749689763779528
0
LINE
8
BLACK
6
CONTINUOUS
10
0.3492241732283464
20
0.1749689763779528
11
0.3480196062992126
21
0.1781477165354331
0
LINE
8
BLACK
6
CONTINUOUS
10
0.3480196062992126
20
0.1781477165354331
11
0.3477343307086614
21
0.1793841732283465
0
LINE
8
BLACK
6
CONTINUOUS
10
0.3477343307086614
20
0.1793841732283465
11
0.3475335826771653
21
0.1803968503937008
0
LINE
8
BLACK
6
CONTINUOUS
10
0.3475335826771653
20
0.1803968503937008
11
0.3473944881889764
21
0.1810681889763779
0
LINE
8
BLACK
6
CONTINUOUS
10
0.3473944881889764
20
0.1810681889763779
11
0.347364251968504
21
0.1811964960629921
0
LINE
8
BLACK
6
CONTINUOUS
10
0.347364251968504
20
0.1811964960629921
11
0.3470088188976378
21
0.1811816929133858
0
LINE
8
BLACK
6
CONTINUOUS
10
0.3470088188976378
20
0.1811816929133858
11
0.3460176377952756
21
0.1810711023622047
0
LINE
8
BLACK
6
CONTINUOUS
10
0.3460176377952756
20
0.1810711023622047
11
0.3444703149606299
21
0.1808753149606299
0
LINE
8
BLACK
6
CONTINUOUS
10
0.3444703149606299
20
0.1808753149606299
11
0.3424461811023622
21
0.1806050393700787
0
LINE
8
BLACK
6
CONTINUOUS
10
0.3424461811023622
20
0.1806050393700787
11
0.340024842519685
21
0.1802708661417323
0
LINE
8
BLACK
6
CONTINUOUS
10
0.340024842519685
20
0.1802708661417323
11
0.3372857480314961
21
0.1798834645669291
0
LINE
8
BLACK
6
CONTINUOUS
10
0.3372857480314961
20
0.1798834645669291
11
0.3343084251968504
21
0.1794533464566929
0
LINE
8
BLACK
6
CONTINUOUS
10
0.3343084251968504
20
0.1794533464566929
11
0.3342193307086614
21
0.1794403937007874
0
LINE
8
BLACK
6
CONTINUOUS
10
0.3342193307086614
20
0.1794403937007874
11
0.3312218503937008
21
0.1790037401574803
0
LINE
8
BLACK
6
CONTINUOUS
10
0.3312218503937008
20
0.1790037401574803
11
0.3284483464566929
21
0.1786014960629921
0
LINE
8
BLACK
6
CONTINUOUS
10
0.3284483464566929
20
0.1786014960629921
11
0.3259806299212598
21
0.1782453937007874
0
LINE
8
BLACK
6
CONTINUOUS
10
0.3259806299212598
20
0.1782453937007874
11
0.3239004330708661
21
0.1779471653543307
0
LINE
8
BLACK
6
CONTINUOUS
10
0.3239004330708661
20
0.1779471653543307
11
0.3222894488188977
21
0.1777185433070866
0
LINE
8
BLACK
6
CONTINUOUS
10
0.3222894488188977
20
0.1777185433070866
11
0.3212294488188976
21
0.1775711417322835
0
LINE
8
BLACK
6
CONTINUOUS
10
0.3212294488188976
20
0.1775711417322835
11
0.3208021653543307
21
0.1775167716535433
0
LINE
8
BLACK
6
CONTINUOUS
10
0.3208021653543307
20
0.1775167716535433
11
0.3208011811023622
21
0.1775167322834646
0
LINE
8
BLACK
6
CONTINUOUS
10
0.3208011811023622
20
0.1775167322834646
11
0.3208112598425197
21
0.1778324803149606
0
LINE
8
BLACK
6
CONTINUOUS
10
0.3208112598425197
20
0.1778324803149606
11
0.3210418503937008
21
0.1787139763779527
0
LINE
8
BLACK
6
CONTINUOUS
10
0.3210418503937008
20
0.1787139763779527
11
0.321458937007874
21
0.1800501574803149
0
LINE
8
BLACK
6
CONTINUOUS
10
0.321458937007874
20
0.1800501574803149
11
0.3220285039370079
21
0.1817301181102362
0
LINE
8
BLACK
6
CONTINUOUS
10
0.3220285039370079
20
0.1817301181102362
11
0.3225208661417323
21
0.1831097637795276
0
LINE
8
BLACK
6
CONTINUOUS
10
0.3225208661417323
20
0.1831097637795276
11
0.3245608661417323
21
0.1887144881889764
0
LINE
8
BLACK
6
CONTINUOUS
10
0.3245608661417323
20
0.1887144881889764
11
0.3361708267716536
21
0.1902224409448819
0
LINE
8
BLACK
6
CONTINUOUS
10
0.3361708267716536
20
0.1902224409448819
11
0.3477808267716536
21
0.1917304330708661
0
LINE
8
BLACK
6
CONTINUOUS
10
0.3477808267716536
20
0.1917304330708661
11
0.3516
21
0.2016384645669291
0
LINE
8
BLACK
6
CONTINUOUS
10
0.3516
20
0.2016384645669291
11
0.3318774803149606
21
0.2088168503937008
0
LINE
8
BLACK
6
CONTINUOUS
10
0.3318774803149606
20
0.2088168503937008
11
0.3355885433070866
21
0.2190127952755905
0
LINE
8
BLACK
6
CONTINUOUS
10
0.3355885433070866
20
0.2190127952755905
11
0.3624804330708661
21
0.2091264173228346
0
LINE
8
BLACK
6
CONTINUOUS
10
0.3581482283464567
20
0.1930031102362205
11
0.3573368503937008
21
0.1904659842519685
0
LINE
8
BLACK
6
CONTINUOUS
10
0.3573368503937008
20
0.1904659842519685
11
0.3567774803149606
21
0.1885026377952756
0
LINE
8
BLACK
6
CONTINUOUS
10
0.3567774803149606
20
0.1885026377952756
11
0.3564463779527559
21
0.1870184251968504
0
LINE
8
BLACK
6
CONTINUOUS
10
0.3564463779527559
20
0.1870184251968504
11
0.3563196850393701
21
0.1859188188976378
0
LINE
8
BLACK
6
CONTINUOUS
10
0.3563196850393701
20
0.1859188188976378
11
0.3563169291338583
21
0.1857127952755905
0
LINE
8
BLACK
6
CONTINUOUS
10
0.3563169291338583
20
0.1857127952755905
11
0.3566165748031496
21
0.1832094488188976
0
LINE
8
BLACK
6
CONTINUOUS
10
0.3566165748031496
20
0.1832094488188976
11
0.3574819291338582
21
0.1811358661417323
0
LINE
8
BLACK
6
CONTINUOUS
10
0.3574819291338582
20
0.1811358661417323
11
0.358938031496063
21
0.1794575196850394
0
LINE
8
BLACK
6
CONTINUOUS
10
0.358938031496063
20
0.1794575196850394
11
0.3610102362204725
21
0.1781399212598425
0
LINE
8
BLACK
6
CONTINUOUS
10
0.3610102362204725
20
0.1781399212598425
11
0.3622307480314961
21
0.1776256299212598
0
LINE
8
BLACK
6
CONTINUOUS
10
0.3622307480314961
20
0.1776256299212598
11
0.3648506299212598
21
0.1769577165354331
0
LINE
8
BLACK
6
CONTINUOUS
10
0.3648506299212598
20
0.1769577165354331
11
0.3672429921259843
21
0.1769635039370079
0
LINE
8
BLACK
6
CONTINUOUS
10
0.3672429921259843
20
0.1769635039370079
11
0.3693872440944882
21
0.1776385433070866
0
LINE
8
BLACK
6
CONTINUOUS
10
0.3693872440944882
20
0.1776385433070866
11
0.3712624015748031
21
0.1789785826771653
0
LINE
8
BLACK
6
CONTINUOUS
10
0.3712624015748031
20
0.1789785826771653
11
0.3718833070866142
21
0.1796413779527559
0
LINE
8
BLACK
6
CONTINUOUS
10
0.3718833070866142
20
0.1796413779527559
11
0.3724715354330709
21
0.1804736220472441
0
LINE
8
BLACK
6
CONTINUOUS
10
0.3724715354330709
20
0.1804736220472441
11
0.3731413385826772
21
0.181705157480315
0
LINE
8
BLACK
6
CONTINUOUS
10
0.3731413385826772
20
0.181705157480315
11
0.373934842519685
21
0.183422874015748
0
LINE
8
BLACK
6
CONTINUOUS
10
0.373934842519685
20
0.183422874015748
11
0.3748941732283465
21
0.1857139763779528
0
LINE
8
BLACK
6
CONTINUOUS
10
0.3748941732283465
20
0.1857139763779528
11
0.3752452755905512
21
0.1865879133858268
0
LINE
8
BLACK
6
CONTINUOUS
10
0.3752452755905512
20
0.1865879133858268
11
0.3774881889763779
21
0.192215905511811
0
LINE
8
BLACK
6
CONTINUOUS
10
0.3774881889763779
20
0.192215905511811
11
0.3599952755905512
21
0.1985827952755906
0
LINE
8
BLACK
6
CONTINUOUS
10
0.3599952755905512
20
0.1985827952755906
11
0.3581482283464567
21
0.1930031102362205
0
LINE
8
BLACK
6
CONTINUOUS
10
0.2570183858267717
20
0.2095136614173228
11
0.2571447244094488
21
0.2094705905511811
0
LINE
8
BLACK
6
CONTINUOUS
10
0.2571447244094488
20
0.2094705905511811
11
0.2575556299212599
21
0.2092564960629921
0
LINE
8
BLACK
6
CONTINUOUS
10
0.2575556299212599
20
0.2092564960629921
11
0.2585275196850393
21
0.2087172440944882
0
LINE
8
BLACK
6
CONTINUOUS
10
0.2585275196850393
20
0.2087172440944882
11
0.2600027952755906
21
0.2078861023622047
0
LINE
8
BLACK
6
CONTINUOUS
10
0.2600027952755906
20
0.2078861023622047
11
0.2619235433070866
21
0.2067962992125984
0
LINE
8
BLACK
6
CONTINUOUS
10
0.2619235433070866
20
0.2067962992125984
11
0.2642322440944882
21
0.2054810236220472
0
LINE
8
BLACK
6
CONTINUOUS
10
0.2642322440944882
20
0.2054810236220472
11
0.2668711023622047
21
0.2039734645669291
0
LINE
8
BLACK
6
CONTINUOUS
10
0.2668711023622047
20
0.2039734645669291
11
0.2697824803149606
21
0.2023068503937008
0
LINE
8
BLACK
6
CONTINUOUS
10
0.2697824803149606
20
0.2023068503937008
11
0.2729085826771653
21
0.2005144488188976
0
LINE
8
BLACK
6
CONTINUOUS
10
0.2729085826771653
20
0.2005144488188976
11
0.2761918110236221
21
0.1986294488188976
0
LINE
8
BLACK
6
CONTINUOUS
10
0.2761918110236221
20
0.1986294488188976
11
0.2795744094488189
21
0.1966850393700787
0
LINE
8
BLACK
6
CONTINUOUS
10
0.2795744094488189
20
0.1966850393700787
11
0.2829986614173228
21
0.1947144488188976
0
LINE
8
BLACK
6
CONTINUOUS
10
0.2829986614173228
20
0.1947144488188976
11
0.2864068897637795
21
0.192750905511811
0
LINE
8
BLACK
6
CONTINUOUS
10
0.2864068897637795
20
0.192750905511811
11
0.2897414173228346
21
0.1908275984251968
0
LINE
8
BLACK
6
CONTINUOUS
10
0.2897414173228346
20
0.1908275984251968
11
0.2929445275590551
21
0.1889777952755906
0
LINE
8
BLACK
6
CONTINUOUS
10
0.2929445275590551
20
0.1889777952755906
11
0.2959585039370078
21
0.1872347244094488
0
LINE
8
BLACK
6
CONTINUOUS
10
0.2959585039370078
20
0.1872347244094488
11
0.2987256692913386
21
0.1856314960629921
0
LINE
8
BLACK
6
CONTINUOUS
10
0.2987256692913386
20
0.1856314960629921
11
0.3011883464566929
21
0.1842014173228347
0
LINE
8
BLACK
6
CONTINUOUS
10
0.3011883464566929
20
0.1842014173228347
11
0.3032887401574803
21
0.1829776377952756
0
LINE
8
BLACK
6
CONTINUOUS
10
0.3032887401574803
20
0.1829776377952756
11
0.3049692519685039
21
0.1819934251968504
0
LINE
8
BLACK
6
CONTINUOUS
10
0.3049692519685039
20
0.1819934251968504
11
0.306172125984252
21
0.1812820078740157
0
LINE
8
BLACK
6
CONTINUOUS
10
0.306172125984252
20
0.1812820078740157
11
0.3068397244094488
21
0.1808766141732283
0
LINE
8
BLACK
6
CONTINUOUS
10
0.3068397244094488
20
0.1808766141732283
11
0.3069592913385827
21
0.1807940157480315
0
LINE
8
BLACK
6
CONTINUOUS
10
0.3069592913385827
20
0.1807940157480315
11
0.306860157480315
21
0.1804237795275591
0
LINE
8
BLACK
6
CONTINUOUS
10
0.306860157480315
20
0.1804237795275591
11
0.306541811023622
21
0.1795033858267716
0
LINE
8
BLACK
6
CONTINUOUS
10
0.306541811023622
20
0.1795033858267716
11
0.3060488582677166
21
0.1781557480314961
0
LINE
8
BLACK
6
CONTINUOUS
10
0.3060488582677166
20
0.1781557480314961
11
0.3054258267716535
21
0.176503937007874
0
LINE
8
BLACK
6
CONTINUOUS
10
0.3054258267716535
20
0.176503937007874
11
0.3051426771653543
21
0.1757667322834646
0
LINE
8
BLACK
6
CONTINUOUS
10
0.3051426771653543
20
0.1757667322834646
11
0.3032587401574803
21
0.1708838976377953
0
LINE
8
BLACK
6
CONTINUOUS
10
0.3032587401574803
20
0.1708838976377953
11
0.2809977559055118
21
0.1837159448818897
0
LINE
8
BLACK
6
CONTINUOUS
10
0.2809977559055118
20
0.1837159448818897
11
0.2772304724409449
21
0.1858877165354331
0
LINE
8
BLACK
6
CONTINUOUS
10
0.2772304724409449
20
0.1858877165354331
11
0.2735803543307087
21
0.1879923228346457
0
LINE
8
BLACK
6
CONTINUOUS
10
0.2735803543307087
20
0.1879923228346457
11
0.2701062992125984
21
0.1899958661417323
0
LINE
8
BLACK
6
CONTINUOUS
10
0.2701062992125984
20
0.1899958661417323
11
0.2668671259842519
21
0.1918642519685039
0
LINE
8
BLACK
6
CONTINUOUS
10
0.2668671259842519
20
0.1918642519685039
11
0.2639217716535433
21
0.1935636220472441
0
LINE
8
BLACK
6
CONTINUOUS
10
0.2639217716535433
20
0.1935636220472441
11
0.2613290157480315
21
0.1950599212598425
0
LINE
8
BLACK
6
CONTINUOUS
10
0.2613290157480315
20
0.1950599212598425
11
0.259147874015748
21
0.1963192125984252
0
LINE
8
BLACK
6
CONTINUOUS
10
0.259147874015748
20
0.1963192125984252
11
0.2574371259842519
21
0.1973075196850394
0
LINE
8
BLACK
6
CONTINUOUS
10
0.2574371259842519
20
0.1973075196850394
11
0.2562556692913386
21
0.1979908267716535
0
LINE
8
BLACK
6
CONTINUOUS
10
0.2562556692913386
20
0.1979908267716535
11
0.2557994488188977
21
0.1982554330708661
0
LINE
8
BLACK
6
CONTINUOUS
10
0.2557994488188977
20
0.1982554330708661
11
0.2528620472440945
21
0.199962874015748
0
LINE
8
BLACK
6
CONTINUOUS
10
0.2528620472440945
20
0.199962874015748
11
0.2546403937007874
21
0.2048488582677165
0
LINE
8
BLACK
6
CONTINUOUS
10
0.2546403937007874
20
0.2048488582677165
11
0.2553394488188976
21
0.2067572047244094
0
LINE
8
BLACK
6
CONTINUOUS
10
0.2553394488188976
20
0.2067572047244094
11
0.2558466929133858
21
0.2080828346456693
0
LINE
8
BLACK
6
CONTINUOUS
10
0.2558466929133858
20
0.2080828346456693
11
0.2562152755905512
21
0.2089235826771653
0
LINE
8
BLACK
6
CONTINUOUS
10
0.2562152755905512
20
0.2089235826771653
11
0.2564981102362205
21
0.209377125984252
0
LINE
8
BLACK
6
CONTINUOUS
10
0.2564981102362205
20
0.209377125984252
11
0.2567481496062992
21
0.2095412992125984
0
LINE
8
BLACK
6
CONTINUOUS
10
0.2567481496062992
20
0.2095412992125984
11
0.2570183858267717
21
0.2095136614173228
0
LINE
8
BLACK
6
CONTINUOUS
10
0.019395
20
0.4129118503937008
11
0.0195748031496063
21
0.1785433070866142
0
LINE
8
BLACK
6
CONTINUOUS
10
0.0195748031496063
20
0.1785433070866142
11
0.019395
21
0.1776393307086614
0
LINE
8
BLACK
6
CONTINUOUS
10
0.019395
20
0.1776393307086614
11
0.0181165748031496
21
0.176360905511811
0
LINE
8
BLACK
6
CONTINUOUS
10
0.0181165748031496
20
0.176360905511811
11
0.0163086220472441
21
0.176360905511811
0
LINE
8
BLACK
6
CONTINUOUS
10
0.0163086220472441
20
0.176360905511811
11
0.0150301968503937
21
0.1776393307086614
0
LINE
8
BLACK
6
CONTINUOUS
10
0.0150301968503937
20
0.1776393307086614
11
0.0148503937007874
21
0.412007874015748
0
LINE
8
BLACK
6
CONTINUOUS
10
0.0148503937007874
20
0.412007874015748
11
0.0150301968503937
21
0.4129118503937008
0
LINE
8
BLACK
6
CONTINUOUS
10
0.0150301968503937
20
0.4129118503937008
11
0.0163086220472441
21
0.4141902755905512
0
LINE
8
BLACK
6
CONTINUOUS
10
0.0163086220472441
20
0.4141902755905512
11
0.0181165748031496
21
0.4141902755905512
0
LINE
8
BLACK
6
CONTINUOUS
10
0.0181165748031496
20
0.4141902755905512
11
0.019395
21
0.4129118503937008
0
LINE
8
BLACK
6
CONTINUOUS
10
1.1455760629921259
20
0.3978960236220472
11
1.1466404724409449
21
0.3974551181102362
0
LINE
8
BLACK
6
CONTINUOUS
10
1.1466404724409449
20
0.3974551181102362
11
1.1474551181102361
21
0.3966404724409449
0
LINE
8
BLACK
6
CONTINUOUS
10
1.1474551181102361
20
0.3966404724409449
11
1.1478960236220472
21
0.395576062992126
0
LINE
8
BLACK
6
CONTINUOUS
10
1.1478960236220472
20
0.395576062992126
11
1.1479527559055118
21
0.18
0
LINE
8
BLACK
6
CONTINUOUS
10
1.1479527559055118
20
0.18
11
1.1478960236220472
21
0.179423937007874
0
LINE
8
BLACK
6
CONTINUOUS
10
1.1478960236220472
20
0.179423937007874
11
1.1474551181102361
21
0.1783595275590551
0
LINE
8
BLACK
6
CONTINUOUS
10
1.1474551181102361
20
0.1783595275590551
11
1.1466404724409449
21
0.1775448818897638
0
LINE
8
BLACK
6
CONTINUOUS
10
1.1466404724409449
20
0.1775448818897638
11
1.1455760629921259
21
0.1771039763779527
0
LINE
8
BLACK
6
CONTINUOUS
10
1.1455760629921259
20
0.1771039763779527
11
0.89
21
0.1770472440944882
0
LINE
8
BLACK
6
CONTINUOUS
10
0.89
20
0.1770472440944882
11
0.889423937007874
21
0.1771039763779527
0
LINE
8
BLACK
6
CONTINUOUS
10
0.889423937007874
20
0.1771039763779527
11
0.8883595275590551
21
0.1775448818897638
0
LINE
8
BLACK
6
CONTINUOUS
10
0.8883595275590551
20
0.1775448818897638
11
0.8875448818897638
21
0.1783595275590551
0
LINE
8
BLACK
6
CONTINUOUS
10
0.8875448818897638
20
0.1783595275590551
11
0.8871039763779527
21
0.179423937007874
0
LINE
8
BLACK
6
CONTINUOUS
10
0.8871039763779527
20
0.179423937007874
11
0.8871039763779527
21
0.1794575196850394
0
LINE
8
BLACK
6
CONTINUOUS
10
0.8871039763779527
20
0.1794575196850394
11
0.8870472440944882
21
0.395
0
LINE
8
BLACK
6
CONTINUOUS
10
0.8870472440944882
20
0.395
11
0.8871039763779527
21
0.395576062992126
0
LINE
8
BLACK
6
CONTINUOUS
10
0.8871039763779527
20
0.395576062992126
11
0.8875448818897638
21
0.3966404724409449
0
LINE
8
BLACK
6
CONTINUOUS
10
0.8875448818897638
20
0.3966404724409449
11
0.8883595275590551
21
0.3974551181102362
0
LINE
8
BLACK
6
CONTINUOUS
10
0.8883595275590551
20
0.3974551181102362
11
0.889423937007874
21
0.3978960236220472
0
LINE
8
BLACK
6
CONTINUOUS
10
0.889423937007874
20
0.3978960236220472
11
1.145
21
0.3979527559055118
0
LINE
8
BLACK
6
CONTINUOUS
10
1.145
20
0.3979527559055118
11
1.1455760629921259
21
0.3978960236220472
0
LINE
8
BLACK
6
CONTINUOUS
10
0.4051841732283464
20
0.2421540551181102
11
0.3925717322834645
21
0.2075016141732283
0
LINE
8
BLACK
6
CONTINUOUS
10
0.3925717322834645
20
0.2075016141732283
11
0.3827195669291338
21
0.2110875196850394
0
LINE
8
BLACK
6
CONTINUOUS
10
0.3827195669291338
20
0.2110875196850394
11
0.3916224803149606
21
0.2355481102362205
0
LINE
8
BLACK
6
CONTINUOUS
10
0.3916224803149606
20
0.2355481102362205
11
0.380422125984252
21
0.2396246850393701
0
LINE
8
BLACK
6
CONTINUOUS
10
0.380422125984252
20
0.2396246850393701
11
0.3769004724409449
21
0.23023
0
LINE
8
BLACK
6
CONTINUOUS
10
0.3769004724409449
20
0.23023
11
0.3733788582677166
21
0.2208353937007874
0
LINE
8
BLACK
6
CONTINUOUS
10
0.3733788582677166
20
0.2208353937007874
11
0.3636279133858268
21
0.2241709448818898
0
LINE
8
BLACK
6
CONTINUOUS
10
0.3636279133858268
20
0.2241709448818898
11
0.3705591732283465
21
0.2432144881889764
0
LINE
8
BLACK
6
CONTINUOUS
10
0.3705591732283465
20
0.2432144881889764
11
0.35697
21
0.2481605118110236
0
LINE
8
BLACK
6
CONTINUOUS
10
0.35697
20
0.2481605118110236
11
0.3478198031496063
21
0.2230205118110236
0
LINE
8
BLACK
6
CONTINUOUS
10
0.3478198031496063
20
0.2230205118110236
11
0.3383073622047244
21
0.2264827559055118
0
LINE
8
BLACK
6
CONTINUOUS
10
0.3383073622047244
20
0.2264827559055118
11
0.3511671653543307
21
0.2618147244094488
0
LINE
8
BLACK
6
CONTINUOUS
10
0.3511671653543307
20
0.2618147244094488
11
0.4051841732283464
21
0.2421540551181102
0
LINE
8
BLACK
6
CONTINUOUS
10
0.3797843307086614
20
0.3129564566929134
11
0.4250479133858268
21
0.2964818503937008
0
LINE
8
BLACK
6
CONTINUOUS
10
0.4250479133858268
20
0.2964818503937008
11
0.4203935826771654
21
0.2842292913385827
0
LINE
8
BLACK
6
CONTINUOUS
10
0.4203935826771654
20
0.2842292913385827
11
0.4191482677165354
21
0.2809598818897638
0
LINE
8
BLACK
6
CONTINUOUS
10
0.4191482677165354
20
0.2809598818897638
11
0.4181203543307087
21
0.2782876771653543
0
LINE
8
BLACK
6
CONTINUOUS
10
0.4181203543307087
20
0.2782876771653543
11
0.4172748818897637
21
0.2761322047244095
0
LINE
8
BLACK
6
CONTINUOUS
10
0.4172748818897637
20
0.2761322047244095
11
0.4165770866141732
21
0.2744129133858267
0
LINE
8
BLACK
6
CONTINUOUS
10
0.4165770866141732
20
0.2744129133858267
11
0.4159922440944882
21
0.2730494094488189
0
LINE
8
BLACK
6
CONTINUOUS
10
0.4159922440944882
20
0.2730494094488189
11
0.4154853149606299
21
0.2719611811023622
0
LINE
8
BLACK
6
CONTINUOUS
10
0.4154853149606299
20
0.2719611811023622
11
0.4150216141732284
21
0.2710677559055118
0
LINE
8
BLACK
6
CONTINUOUS
10
0.4150216141732284
20
0.2710677559055118
11
0.4145662992125984
21
0.2702886220472441
0
LINE
8
BLACK
6
CONTINUOUS
10
0.4145662992125984
20
0.2702886220472441
11
0.4140846062992126
21
0.2695433464566929
0
LINE
8
BLACK
6
CONTINUOUS
10
0.4140846062992126
20
0.2695433464566929
11
0.4139574015748032
21
0.2693549606299213
0
LINE
8
BLACK
6
CONTINUOUS
10
0.4139574015748032
20
0.2693549606299213
11
0.4111391338582677
21
0.2657924409448819
0
LINE
8
BLACK
6
CONTINUOUS
10
0.4111391338582677
20
0.2657924409448819
11
0.4079595669291339
21
0.2628472834645669
0
LINE
8
BLACK
6
CONTINUOUS
10
0.4079595669291339
20
0.2628472834645669
11
0.404448031496063
21
0.2605333464566929
0
LINE
8
BLACK
6
CONTINUOUS
10
0.404448031496063
20
0.2605333464566929
11
0.4006337401574803
21
0.25886468503937
0
LINE
8
BLACK
6
CONTINUOUS
10
0.4006337401574803
20
0.25886468503937
11
0.396546062992126
21
0.2578552362204725
0
LINE
8
BLACK
6
CONTINUOUS
10
0.396546062992126
20
0.2578552362204725
11
0.3922141732283465
21
0.2575189763779527
0
LINE
8
BLACK
6
CONTINUOUS
10
0.3922141732283465
20
0.2575189763779527
11
0.3894212598425197
21
0.2576544094488189
0
LINE
8
BLACK
6
CONTINUOUS
10
0.3894212598425197
20
0.2576544094488189
11
0.3860443307086614
21
0.2581979527559055
0
LINE
8
BLACK
6
CONTINUOUS
10
0.3860443307086614
20
0.2581979527559055
11
0.3824415748031496
21
0.2591662204724409
0
LINE
8
BLACK
6
CONTINUOUS
10
0.3824415748031496
20
0.2591662204724409
11
0.3788650393700787
21
0.2604706692913386
0
LINE
8
BLACK
6
CONTINUOUS
10
0.3788650393700787
20
0.2604706692913386
11
0.375566968503937
21
0.2620224803149606
0
LINE
8
BLACK
6
CONTINUOUS
10
0.375566968503937
20
0.2620224803149606
11
0.3734529921259843
21
0.2632783858267717
0
LINE
8
BLACK
6
CONTINUOUS
10
0.3734529921259843
20
0.2632783858267717
11
0.3699356692913386
21
0.2660146456692913
0
LINE
8
BLACK
6
CONTINUOUS
10
0.3699356692913386
20
0.2660146456692913
11
0.366985905511811
21
0.2691458267716536
0
LINE
8
BLACK
6
CONTINUOUS
10
0.366985905511811
20
0.2691458267716536
11
0.3646333464566929
21
0.2726244488188976
0
LINE
8
BLACK
6
CONTINUOUS
10
0.3646333464566929
20
0.2726244488188976
11
0.3629074803149606
21
0.2764029133858268
0
LINE
8
BLACK
6
CONTINUOUS
10
0.3629074803149606
20
0.2764029133858268
11
0.3618379527559055
21
0.2804337401574803
0
LINE
8
BLACK
6
CONTINUOUS
10
0.3618379527559055
20
0.2804337401574803
11
0.3615724409448819
21
0.2823805905511811
0
LINE
8
BLACK
6
CONTINUOUS
10
0.3615724409448819
20
0.2823805905511811
11
0.3614438582677165
21
0.2837820472440945
0
LINE
8
BLACK
6
CONTINUOUS
10
0.3614438582677165
20
0.2837820472440945
11
0.3613639763779528
21
0.2850125590551181
0
LINE
8
BLACK
6
CONTINUOUS
10
0.3613639763779528
20
0.2850125590551181
11
0.3613517716535433
21
0.2861555511811024
0
LINE
8
BLACK
6
CONTINUOUS
10
0.3613517716535433
20
0.2861555511811024
11
0.3614261811023622
21
0.2872945669291339
0
LINE
8
BLACK
6
CONTINUOUS
10
0.3614261811023622
20
0.2872945669291339
11
0.3616061023622047
21
0.2885129527559055
0
LINE
8
BLACK
6
CONTINUOUS
10
0.3616061023622047
20
0.2885129527559055
11
0.3619105511811024
21
0.2898942519685039
0
LINE
8
BLACK
6
CONTINUOUS
10
0.3619105511811024
20
0.2898942519685039
11
0.3623584645669291
21
0.2915219291338583
0
LINE
8
BLACK
6
CONTINUOUS
10
0.3623584645669291
20
0.2915219291338583
11
0.3629688188976378
21
0.2934794488188976
0
LINE
8
BLACK
6
CONTINUOUS
10
0.3629688188976378
20
0.2934794488188976
11
0.3637605118110236
21
0.2958502362204724
0
LINE
8
BLACK
6
CONTINUOUS
10
0.3637605118110236
20
0.2958502362204724
11
0.3647524803149606
21
0.2987177952755906
0
LINE
8
BLACK
6
CONTINUOUS
10
0.3647524803149606
20
0.2987177952755906
11
0.3659638188976378
21
0.3021655511811023
0
LINE
8
BLACK
6
CONTINUOUS
10
0.3659638188976378
20
0.3021655511811023
11
0.3662490157480315
21
0.3029744488188976
0
LINE
8
BLACK
6
CONTINUOUS
10
0.3662490157480315
20
0.3029744488188976
11
0.370908188976378
21
0.316187125984252
0
LINE
8
BLACK
6
CONTINUOUS
10
0.370908188976378
20
0.316187125984252
11
0.3797843307086614
21
0.3129564566929134
0
LINE
8
BLACK
6
CONTINUOUS
10
0.373916968503937
20
0.296836062992126
11
0.373158937007874
21
0.2946882283464567
0
LINE
8
BLACK
6
CONTINUOUS
10
0.373158937007874
20
0.2946882283464567
11
0.3724755905511811
21
0.292630157480315
0
LINE
8
BLACK
6
CONTINUOUS
10
0.3724755905511811
20
0.292630157480315
11
0.3719147244094488
21
0.2908149606299212
0
LINE
8
BLACK
6
CONTINUOUS
10
0.3719147244094488
20
0.2908149606299212
11
0.3715237401574803
21
0.2893955905511811
0
LINE
8
BLACK
6
CONTINUOUS
10
0.3715237401574803
20
0.2893955905511811
11
0.3713625590551181
21
0.2886283464566929
0
LINE
8
BLACK
6
CONTINUOUS
10
0.3713625590551181
20
0.2886283464566929
11
0.3712511417322835
21
0.2853942125984252
0
LINE
8
BLACK
6
CONTINUOUS
10
0.3712511417322835
20
0.2853942125984252
11
0.3718332677165354
21
0.2823199212598425
0
LINE
8
BLACK
6
CONTINUOUS
10
0.3718332677165354
20
0.2823199212598425
11
0.3730895275590551
21
0.2794442125984252
0
LINE
8
BLACK
6
CONTINUOUS
10
0.3730895275590551
20
0.2794442125984252
11
0.3750004724409449
21
0.2768058267716536
0
LINE
8
BLACK
6
CONTINUOUS
10
0.3750004724409449
20
0.2768058267716536
11
0.3775468897637795
21
0.2744435826771653
0
LINE
8
BLACK
6
CONTINUOUS
10
0.3775468897637795
20
0.2744435826771653
11
0.3789393307086614
21
0.273451811023622
0
LINE
8
BLACK
6
CONTINUOUS
10
0.3789393307086614
20
0.273451811023622
11
0.3808919291338583
21
0.2723618897637795
0
LINE
8
BLACK
6
CONTINUOUS
10
0.3808919291338583
20
0.2723618897637795
11
0.3833173228346456
21
0.2712935433070866
0
LINE
8
BLACK
6
CONTINUOUS
10
0.3833173228346456
20
0.2712935433070866
11
0.3859683070866142
21
0.2703336614173228
0
LINE
8
BLACK
6
CONTINUOUS
10
0.3859683070866142
20
0.2703336614173228
11
0.3885975984251969
21
0.2695689763779527
0
LINE
8
BLACK
6
CONTINUOUS
10
0.3885975984251969
20
0.2695689763779527
11
0.3909579527559055
21
0.2690864173228346
0
LINE
8
BLACK
6
CONTINUOUS
10
0.3909579527559055
20
0.2690864173228346
11
0.3915891732283465
21
0.2690084251968504
0
LINE
8
BLACK
6
CONTINUOUS
10
0.3915891732283465
20
0.2690084251968504
11
0.394198937007874
21
0.2688612598425197
0
LINE
8
BLACK
6
CONTINUOUS
10
0.394198937007874
20
0.2688612598425197
11
0.3964047244094488
21
0.2690181496062992
0
LINE
8
BLACK
6
CONTINUOUS
10
0.3964047244094488
20
0.2690181496062992
11
0.3984743307086614
21
0.2695152362204724
0
LINE
8
BLACK
6
CONTINUOUS
10
0.3984743307086614
20
0.2695152362204724
11
0.4001740551181102
21
0.2701656299212598
0
LINE
8
BLACK
6
CONTINUOUS
10
0.4001740551181102
20
0.2701656299212598
11
0.4019149606299213
21
0.2710192913385827
0
LINE
8
BLACK
6
CONTINUOUS
10
0.4019149606299213
20
0.2710192913385827
11
0.4034017322834645
21
0.2720040551181102
0
LINE
8
BLACK
6
CONTINUOUS
10
0.4034017322834645
20
0.2720040551181102
11
0.4046991338582677
21
0.2732093700787401
0
LINE
8
BLACK
6
CONTINUOUS
10
0.4046991338582677
20
0.2732093700787401
11
0.4058720866141732
21
0.2747245275590551
0
LINE
8
BLACK
6
CONTINUOUS
10
0.4058720866141732
20
0.2747245275590551
11
0.4069855118110236
21
0.2766389763779528
0
LINE
8
BLACK
6
CONTINUOUS
10
0.4069855118110236
20
0.2766389763779528
11
0.4081042519685039
21
0.2790420078740157
0
LINE
8
BLACK
6
CONTINUOUS
10
0.4081042519685039
20
0.2790420078740157
11
0.4092932283464567
21
0.2820230708661417
0
LINE
8
BLACK
6
CONTINUOUS
10
0.4092932283464567
20
0.2820230708661417
11
0.4098255118110236
21
0.2834589763779528
0
LINE
8
BLACK
6
CONTINUOUS
10
0.4098255118110236
20
0.2834589763779528
11
0.4122098031496063
21
0.2899972440944882
0
LINE
8
BLACK
6
CONTINUOUS
10
0.4122098031496063
20
0.2899972440944882
11
0.3761984645669291
21
0.3031043307086614
0
LINE
8
BLACK
6
CONTINUOUS
10
0.3761984645669291
20
0.3031043307086614
11
0.373916968503937
21
0.296836062992126
0
LINE
8
BLACK
6
CONTINUOUS
10
0.7570216535433071
20
0.32191
11
0.757217716535433
21
0.3218287795275591
0
LINE
8
BLACK
6
CONTINUOUS
10
0.757217716535433
20
0.3218287795275591
11
0.7574293307086614
21
0.3218137401574803
0
LINE
8
BLACK
6
CONTINUOUS
10
0.7574293307086614
20
0.3218137401574803
11
0.7585555511811023
21
0.3212746456692913
0
LINE
8
BLACK
6
CONTINUOUS
10
0.7585555511811023
20
0.3212746456692913
11
0.7591504724409449
21
0.321028188976378
0
LINE
8
BLACK
6
CONTINUOUS
10
0.7591504724409449
20
0.321028188976378
11
0.7592240157480314
21
0.3209546456692913
0
LINE
8
BLACK
6
CONTINUOUS
10
0.7592240157480314
20
0.3209546456692913
11
0.7633849606299212
21
0.3189627952755906
0
LINE
8
BLACK
6
CONTINUOUS
10
0.7633849606299212
20
0.3189627952755906
11
0.7638807480314961
21
0.3186507086614173
0
LINE
8
BLACK
6
CONTINUOUS
10
0.7638807480314961
20
0.3186507086614173
11
0.7640248031496063
21
0.3185910236220472
0
LINE
8
BLACK
6
CONTINUOUS
10
0.7640248031496063
20
0.3185910236220472
11
0.7641209842519685
21
0.3184994881889764
0
LINE
8
BLACK
6
CONTINUOUS
10
0.7641209842519685
20
0.3184994881889764
11
0.7643646850393701
21
0.318346062992126
0
LINE
8
BLACK
6
CONTINUOUS
10
0.7643646850393701
20
0.318346062992126
11
0.7647550787401575
21
0.3178959448818898
0
LINE
8
BLACK
6
CONTINUOUS
10
0.7647550787401575
20
0.3178959448818898
11
0.7673569291338582
21
0.3154193700787402
0
LINE
8
BLACK
6
CONTINUOUS
10
0.7673569291338582
20
0.3154193700787402
11
0.7677285039370079
21
0.3149665748031496
0
LINE
8
BLACK
6
CONTINUOUS
10
0.7677285039370079
20
0.3149665748031496
11
0.7678464173228347
21
0.3148643307086614
0
LINE
8
BLACK
6
CONTINUOUS
10
0.7678464173228347
20
0.3148643307086614
11
0.7679056692913385
21
0.3147507086614173
0
LINE
8
BLACK
6
CONTINUOUS
10
0.7679056692913385
20
0.3147507086614173
11
0.7680913779527558
21
0.3145244488188976
0
LINE
8
BLACK
6
CONTINUOUS
10
0.7680913779527558
20
0.3145244488188976
11
0.768352125984252
21
0.3138949212598425
0
LINE
8
BLACK
6
CONTINUOUS
10
0.768352125984252
20
0.3138949212598425
11
0.7709003543307087
21
0.3090101968503937
0
LINE
8
BLACK
6
CONTINUOUS
10
0.7709003543307087
20
0.3090101968503937
11
0.770932559055118
21
0.3089260236220472
0
LINE
8
BLACK
6
CONTINUOUS
10
0.770932559055118
20
0.3089260236220472
11
0.7709579921259843
21
0.3088916929133858
0
LINE
8
BLACK
6
CONTINUOUS
10
0.7709579921259843
20
0.3088916929133858
11
0.770984251968504
21
0.3087909448818897
0
LINE
8
BLACK
6
CONTINUOUS
10
0.770984251968504
20
0.3087909448818897
11
0.7713141338582677
21
0.3079289763779527
0
LINE
8
BLACK
6
CONTINUOUS
10
0.7713141338582677
20
0.3079289763779527
11
0.7713534645669291
21
0.3073751968503937
0
LINE
8
BLACK
6
CONTINUOUS
10
0.7713534645669291
20
0.3073751968503937
11
0.77378468503937
21
0.2980526771653543
0
LINE
8
BLACK
6
CONTINUOUS
10
0.77378468503937
20
0.2980526771653543
11
0.7738141732283464
21
0.297853031496063
0
LINE
8
BLACK
6
CONTINUOUS
10
0.7738141732283464
20
0.297853031496063
11
0.773847559055118
21
0.2977725196850394
0
LINE
8
BLACK
6
CONTINUOUS
10
0.773847559055118
20
0.2977725196850394
11
0.7738488582677165
21
0.2976187007874015
0
LINE
8
BLACK
6
CONTINUOUS
10
0.7738488582677165
20
0.2976187007874015
11
0.7739540551181102
21
0.2969074409448819
0
LINE
8
BLACK
6
CONTINUOUS
10
0.7739540551181102
20
0.2969074409448819
11
0.7738602755905511
21
0.2962773228346456
0
LINE
8
BLACK
6
CONTINUOUS
10
0.7738602755905511
20
0.2962773228346456
11
0.7739610236220472
21
0.2844344094488189
0
LINE
8
BLACK
6
CONTINUOUS
10
0.7739610236220472
20
0.2844344094488189
11
0.773941220472441
21
0.2842335039370079
0
LINE
8
BLACK
6
CONTINUOUS
10
0.773941220472441
20
0.2842335039370079
11
0.7739540551181102
21
0.2841473622047244
0
LINE
8
BLACK
6
CONTINUOUS
10
0.7739540551181102
20
0.2841473622047244
11
0.7739178346456693
21
0.283996062992126
0
LINE
8
BLACK
6
CONTINUOUS
10
0.7739178346456693
20
0.283996062992126
11
0.773847559055118
21
0.2832822834645669
0
LINE
8
BLACK
6
CONTINUOUS
10
0.773847559055118
20
0.2832822834645669
11
0.7736096456692914
21
0.2827079527559055
0
LINE
8
BLACK
6
CONTINUOUS
10
0.7736096456692914
20
0.2827079527559055
11
0.7713474803149606
21
0.2732533464566929
0
LINE
8
BLACK
6
CONTINUOUS
10
0.7713474803149606
20
0.2732533464566929
11
0.771317125984252
21
0.2731685039370079
0
LINE
8
BLACK
6
CONTINUOUS
10
0.771317125984252
20
0.2731685039370079
11
0.7713141338582677
21
0.2731258661417323
0
LINE
8
BLACK
6
CONTINUOUS
10
0.7713141338582677
20
0.2731258661417323
11
0.7712660236220472
21
0.2730254724409449
0
LINE
8
BLACK
6
CONTINUOUS
10
0.7712660236220472
20
0.2730254724409449
11
0.7709579921259843
21
0.2721631102362205
0
LINE
8
BLACK
6
CONTINUOUS
10
0.7709579921259843
20
0.2721631102362205
11
0.7706620866141732
21
0.2717638188976378
0
LINE
8
BLACK
6
CONTINUOUS
10
0.7706620866141732
20
0.2717638188976378
11
0.7684631496062992
21
0.2671701968503937
0
LINE
8
BLACK
6
CONTINUOUS
10
0.7684631496062992
20
0.2671701968503937
11
0.7681510236220472
21
0.2666744094488189
0
LINE
8
BLACK
6
CONTINUOUS
10
0.7681510236220472
20
0.2666744094488189
11
0.7680913779527558
21
0.2665303149606299
0
LINE
8
BLACK
6
CONTINUOUS
10
0.7680913779527558
20
0.2665303149606299
11
0.7679997637795275
21
0.2664341338582677
0
LINE
8
BLACK
6
CONTINUOUS
10
0.7679997637795275
20
0.2664341338582677
11
0.7678464173228347
21
0.2661904330708662
0
LINE
8
BLACK
6
CONTINUOUS
10
0.7678464173228347
20
0.2661904330708662
11
0.7673962598425197
21
0.2658000393700787
0
LINE
8
BLACK
6
CONTINUOUS
10
0.7673962598425197
20
0.2658000393700787
11
0.7649197244094488
21
0.2631981889763779
0
LINE
8
BLACK
6
CONTINUOUS
10
0.7649197244094488
20
0.2631981889763779
11
0.7644668897637795
21
0.2628265748031496
0
LINE
8
BLACK
6
CONTINUOUS
10
0.7644668897637795
20
0.2628265748031496
11
0.7643646456692913
21
0.2627086614173229
0
LINE
8
BLACK
6
CONTINUOUS
10
0.7643646456692913
20
0.2627086614173229
11
0.7642509842519685
21
0.2626494094488189
0
LINE
8
BLACK
6
CONTINUOUS
10
0.7642509842519685
20
0.2626494094488189
11
0.7640248031496063
21
0.2624637401574803
0
LINE
8
BLACK
6
CONTINUOUS
10
0.7640248031496063
20
0.2624637401574803
11
0.76339531496063
21
0.262203031496063
0
LINE
8
BLACK
6
CONTINUOUS
10
0.76339531496063
20
0.262203031496063
11
0.7585105511811023
21
0.2596548031496063
0
LINE
8
BLACK
6
CONTINUOUS
10
0.7585105511811023
20
0.2596548031496063
11
0.7574292913385826
21
0.2592410236220473
0
LINE
8
BLACK
6
CONTINUOUS
10
0.7574292913385826
20
0.2592410236220473
11
0.7572176377952756
21
0.2592260236220472
0
LINE
8
BLACK
6
CONTINUOUS
10
0.7572176377952756
20
0.2592260236220472
11
0.7570216535433071
21
0.2591448031496063
0
LINE
8
BLACK
6
CONTINUOUS
10
0.7570216535433071
20
0.2591448031496063
11
0.755733779527559
21
0.2591205905511811
0
LINE
8
BLACK
6
CONTINUOUS
10
0.755733779527559
20
0.2591205905511811
11
0.7551308661417323
21
0.259077716535433
0
LINE
8
BLACK
6
CONTINUOUS
10
0.7551308661417323
20
0.259077716535433
11
0.7550414173228346
21
0.2591075590551181
0
LINE
8
BLACK
6
CONTINUOUS
10
0.7550414173228346
20
0.2591075590551181
11
0.7509951181102362
21
0.2590313385826772
0
LINE
8
BLACK
6
CONTINUOUS
10
0.7509951181102362
20
0.2590313385826772
11
0.7498429921259843
21
0.2591448031496063
0
LINE
8
BLACK
6
CONTINUOUS
10
0.7498429921259843
20
0.2591448031496063
11
0.7496470078740157
21
0.2592259842519685
0
LINE
8
BLACK
6
CONTINUOUS
10
0.7496470078740157
20
0.2592259842519685
11
0.7494353149606299
21
0.2592410236220473
0
LINE
8
BLACK
6
CONTINUOUS
10
0.7494353149606299
20
0.2592410236220473
11
0.7483085039370079
21
0.2597804330708661
0
LINE
8
BLACK
6
CONTINUOUS
10
0.7483085039370079
20
0.2597804330708661
11
0.7477141732283464
21
0.2600266141732284
0
LINE
8
BLACK
6
CONTINUOUS
10
0.7477141732283464
20
0.2600266141732284
11
0.7476406299212598
21
0.260100157480315
0
LINE
8
BLACK
6
CONTINUOUS
10
0.7476406299212598
20
0.260100157480315
11
0.7434797244094488
21
0.262091968503937
0
LINE
8
BLACK
6
CONTINUOUS
10
0.7434797244094488
20
0.262091968503937
11
0.7429839763779528
21
0.2624040551181102
0
LINE
8
BLACK
6
CONTINUOUS
10
0.7429839763779528
20
0.2624040551181102
11
0.742839842519685
21
0.2624637401574803
0
LINE
8
BLACK
6
CONTINUOUS
10
0.742839842519685
20
0.2624637401574803
11
0.7427435433070866
21
0.2625553937007874
0
LINE
8
BLACK
6
CONTINUOUS
10
0.7427435433070866
20
0.2625553937007874
11
0.7424999999999999
21
0.2627087007874016
0
LINE
8
BLACK
6
CONTINUOUS
10
0.7424999999999999
20
0.2627087007874016
11
0.7421097244094488
21
0.2631587007874016
0
LINE
8
BLACK
6
CONTINUOUS
10
0.7421097244094488
20
0.2631587007874016
11
0.739507716535433
21
0.2656353937007874
0
LINE
8
BLACK
6
CONTINUOUS
10
0.739507716535433
20
0.2656353937007874
11
0.7391361023622047
21
0.2660882283464567
0
LINE
8
BLACK
6
CONTINUOUS
10
0.7391361023622047
20
0.2660882283464567
11
0.7390182283464567
21
0.2661904330708662
0
LINE
8
BLACK
6
CONTINUOUS
10
0.7390182283464567
20
0.2661904330708662
11
0.738958937007874
21
0.266304094488189
0
LINE
8
BLACK
6
CONTINUOUS
10
0.738958937007874
20
0.266304094488189
11
0.7387732677165354
21
0.2665303149606299
0
LINE
8
BLACK
6
CONTINUOUS
10
0.7387732677165354
20
0.2665303149606299
11
0.7385124803149606
21
0.2671599212598425
0
LINE
8
BLACK
6
CONTINUOUS
10
0.7385124803149606
20
0.2671599212598425
11
0.7359642913385827
21
0.2720446062992126
0
LINE
8
BLACK
6
CONTINUOUS
10
0.7359642913385827
20
0.2720446062992126
11
0.7359320472440944
21
0.2721288188976378
0
LINE
8
BLACK
6
CONTINUOUS
10
0.7359320472440944
20
0.2721288188976378
11
0.7359066535433071
21
0.2721631102362205
0
LINE
8
BLACK
6
CONTINUOUS
10
0.7359066535433071
20
0.2721631102362205
11
0.7358803543307086
21
0.2722638976377953
0
LINE
8
BLACK
6
CONTINUOUS
10
0.7358803543307086
20
0.2722638976377953
11
0.7355505118110236
21
0.2731258267716535
0
LINE
8
BLACK
6
CONTINUOUS
10
0.7355505118110236
20
0.2731258267716535
11
0.7355111417322835
21
0.2736796850393701
0
LINE
8
BLACK
6
CONTINUOUS
10
0.7355111417322835
20
0.2736796850393701
11
0.73308
21
0.283002125984252
0
LINE
8
BLACK
6
CONTINUOUS
10
0.73308
20
0.283002125984252
11
0.7330504724409449
21
0.283201811023622
0
LINE
8
BLACK
6
CONTINUOUS
10
0.7330504724409449
20
0.283201811023622
11
0.7330171259842519
21
0.2832822834645669
0
LINE
8
BLACK
6
CONTINUOUS
10
0.7330171259842519
20
0.2832822834645669
11
0.7330157874015748
21
0.2834361417322834
0
LINE
8
BLACK
6
CONTINUOUS
10
0.7330157874015748
20
0.2834361417322834
11
0.7329106299212598
21
0.2841473622047244
0
LINE
8
BLACK
6
CONTINUOUS
10
0.7329106299212598
20
0.2841473622047244
11
0.7330043700787401
21
0.2847775196850393
0
LINE
8
BLACK
6
CONTINUOUS
10
0.7330043700787401
20
0.2847775196850393
11
0.7329036614173228
21
0.2966203937007874
0
LINE
8
BLACK
6
CONTINUOUS
10
0.7329036614173228
20
0.2966203937007874
11
0.7329234251968504
21
0.2968213385826772
0
LINE
8
BLACK
6
CONTINUOUS
10
0.7329234251968504
20
0.2968213385826772
11
0.7329106299212598
21
0.2969074409448819
0
LINE
8
BLACK
6
CONTINUOUS
10
0.7329106299212598
20
0.2969074409448819
11
0.732946811023622
21
0.297058779527559
0
LINE
8
BLACK
6
CONTINUOUS
10
0.732946811023622
20
0.297058779527559
11
0.7330171259842519
21
0.2977725196850394
0
LINE
8
BLACK
6
CONTINUOUS
10
0.7330171259842519
20
0.2977725196850394
11
0.733255
21
0.2983468503937008
0
LINE
8
BLACK
6
CONTINUOUS
10
0.733255
20
0.2983468503937008
11
0.7355171653543306
21
0.3078014566929134
0
LINE
8
BLACK
6
CONTINUOUS
10
0.7355171653543306
20
0.3078014566929134
11
0.7355475196850394
21
0.3078864566929134
0
LINE
8
BLACK
6
CONTINUOUS
10
0.7355475196850394
20
0.3078864566929134
11
0.7355505511811024
21
0.3079289763779527
0
LINE
8
BLACK
6
CONTINUOUS
10
0.7355505511811024
20
0.3079289763779527
11
0.7355985039370079
21
0.3080292125984252
0
LINE
8
BLACK
6
CONTINUOUS
10
0.7355985039370079
20
0.3080292125984252
11
0.7359066535433071
21
0.3088916929133858
0
LINE
8
BLACK
6
CONTINUOUS
10
0.7359066535433071
20
0.3088916929133858
11
0.7362025590551181
21
0.3092911023622047
0
LINE
8
BLACK
6
CONTINUOUS
10
0.7362025590551181
20
0.3092911023622047
11
0.7384014960629921
21
0.3138846062992126
0
LINE
8
BLACK
6
CONTINUOUS
10
0.7384014960629921
20
0.3138846062992126
11
0.7387135826771654
21
0.3143804330708662
0
LINE
8
BLACK
6
CONTINUOUS
10
0.7387135826771654
20
0.3143804330708662
11
0.7387732677165354
21
0.3145244488188976
0
LINE
8
BLACK
6
CONTINUOUS
10
0.7387732677165354
20
0.3145244488188976
11
0.7388648031496062
21
0.3146206692913386
0
LINE
8
BLACK
6
CONTINUOUS
10
0.7388648031496062
20
0.3146206692913386
11
0.7390182283464567
21
0.3148643307086614
0
LINE
8
BLACK
6
CONTINUOUS
10
0.7390182283464567
20
0.3148643307086614
11
0.7394683464566929
21
0.3152547637795275
0
LINE
8
BLACK
6
CONTINUOUS
10
0.7394683464566929
20
0.3152547637795275
11
0.7419449212598425
21
0.3178565748031496
0
LINE
8
BLACK
6
CONTINUOUS
10
0.7419449212598425
20
0.3178565748031496
11
0.7423977165354331
21
0.3182281889763779
0
LINE
8
BLACK
6
CONTINUOUS
10
0.7423977165354331
20
0.3182281889763779
11
0.7424999606299213
21
0.318346062992126
0
LINE
8
BLACK
6
CONTINUOUS
10
0.7424999606299213
20
0.318346062992126
11
0.7426135826771654
21
0.3184053543307087
0
LINE
8
BLACK
6
CONTINUOUS
10
0.7426135826771654
20
0.3184053543307087
11
0.742839842519685
21
0.3185910236220472
0
LINE
8
BLACK
6
CONTINUOUS
10
0.742839842519685
20
0.3185910236220472
11
0.7434693700787401
21
0.318851811023622
0
LINE
8
BLACK
6
CONTINUOUS
10
0.7434693700787401
20
0.318851811023622
11
0.748354094488189
21
0.3214
0
LINE
8
BLACK
6
CONTINUOUS
10
0.748354094488189
20
0.3214
11
0.7494353149606299
21
0.3218137795275591
0
LINE
8
BLACK
6
CONTINUOUS
10
0.7494353149606299
20
0.3218137795275591
11
0.7496470078740157
21
0.3218288582677165
0
LINE
8
BLACK
6
CONTINUOUS
10
0.7496470078740157
20
0.3218288582677165
11
0.7498429921259843
21
0.32191
0
LINE
8
BLACK
6
CONTINUOUS
10
0.7498429921259843
20
0.32191
11
0.7511307874015748
21
0.3219342519685039
0
LINE
8
BLACK
6
CONTINUOUS
10
0.7511307874015748
20
0.3219342519685039
11
0.7517337401574803
21
0.3219770866141732
0
LINE
8
BLACK
6
CONTINUOUS
10
0.7517337401574803
20
0.3219770866141732
11
0.7518231496062991
21
0.3219472834645669
0
LINE
8
BLACK
6
CONTINUOUS
10
0.7518231496062991
20
0.3219472834645669
11
0.7558695275590551
21
0.3220234645669292
0
LINE
8
BLACK
6
CONTINUOUS
10
0.7558695275590551
20
0.3220234645669292
11
0.7570216535433071
21
0.32191
0
LINE
8
BLACK
6
CONTINUOUS
10
0.7522850787401575
20
0.3102367322834645
11
0.7494857086614173
21
0.3087763779527559
0
LINE
8
BLACK
6
CONTINUOUS
10
0.7494857086614173
20
0.3087763779527559
11
0.748397874015748
21
0.3076335039370079
0
LINE
8
BLACK
6
CONTINUOUS
10
0.748397874015748
20
0.3076335039370079
11
0.7466348818897638
21
0.3039506299212598
0
LINE
8
BLACK
6
CONTINUOUS
10
0.7466348818897638
20
0.3039506299212598
11
0.7446202755905512
21
0.2955306299212598
0
LINE
8
BLACK
6
CONTINUOUS
10
0.7446202755905512
20
0.2955306299212598
11
0.7447115748031495
21
0.2847991338582677
0
LINE
8
BLACK
6
CONTINUOUS
10
0.7447115748031495
20
0.2847991338582677
11
0.7468977952755905
21
0.276416062992126
0
LINE
8
BLACK
6
CONTINUOUS
10
0.7468977952755905
20
0.276416062992126
11
0.7485879133858268
21
0.2731762204724409
0
LINE
8
BLACK
6
CONTINUOUS
10
0.7485879133858268
20
0.2731762204724409
11
0.7497307874015748
21
0.2720883858267716
0
LINE
8
BLACK
6
CONTINUOUS
10
0.7497307874015748
20
0.2720883858267716
11
0.7524674803149606
21
0.2707783464566929
0
LINE
8
BLACK
6
CONTINUOUS
10
0.7524674803149606
20
0.2707783464566929
11
0.7545795669291339
21
0.2708181102362205
0
LINE
8
BLACK
6
CONTINUOUS
10
0.7545795669291339
20
0.2708181102362205
11
0.7573788976377953
21
0.2722784251968504
0
LINE
8
BLACK
6
CONTINUOUS
10
0.7573788976377953
20
0.2722784251968504
11
0.7584666929133859
21
0.2734212598425197
0
LINE
8
BLACK
6
CONTINUOUS
10
0.7584666929133859
20
0.2734212598425197
11
0.7602297244094488
21
0.2771042125984252
0
LINE
8
BLACK
6
CONTINUOUS
10
0.7602297244094488
20
0.2771042125984252
11
0.7622443700787401
21
0.285524251968504
0
LINE
8
BLACK
6
CONTINUOUS
10
0.7622443700787401
20
0.285524251968504
11
0.7621530708661417
21
0.2962556692913386
0
LINE
8
BLACK
6
CONTINUOUS
10
0.7621530708661417
20
0.2962556692913386
11
0.7599668897637795
21
0.3046386220472441
0
LINE
8
BLACK
6
CONTINUOUS
10
0.7599668897637795
20
0.3046386220472441
11
0.7582766929133858
21
0.3078785826771653
0
LINE
8
BLACK
6
CONTINUOUS
10
0.7582766929133858
20
0.3078785826771653
11
0.7571338188976378
21
0.3089664173228346
0
LINE
8
BLACK
6
CONTINUOUS
10
0.7571338188976378
20
0.3089664173228346
11
0.7543970866141733
21
0.3102764960629921
0
LINE
8
BLACK
6
CONTINUOUS
10
0.7543970866141733
20
0.3102764960629921
11
0.7522850787401575
21
0.3102367322834645
0
LINE
8
BLACK
6
CONTINUOUS
10
0.8082027559055118
20
0.32191
11
0.8083988188976378
21
0.3218287795275591
0
LINE
8
BLACK
6
CONTINUOUS
10
0.8083988188976378
20
0.3218287795275591
11
0.8086104330708661
21
0.3218137401574803
0
LINE
8
BLACK
6
CONTINUOUS
10
0.8086104330708661
20
0.3218137401574803
11
0.809736653543307
21
0.3212746456692913
0
LINE
8
BLACK
6
CONTINUOUS
10
0.809736653543307
20
0.3212746456692913
11
0.8103315748031495
21
0.321028188976378
0
LINE
8
BLACK
6
CONTINUOUS
10
0.8103315748031495
20
0.321028188976378
11
0.8104051181102362
21
0.3209546456692913
0
LINE
8
BLACK
6
CONTINUOUS
10
0.8104051181102362
20
0.3209546456692913
11
0.814566062992126
21
0.3189627952755906
0
LINE
8
BLACK
6
CONTINUOUS
10
0.814566062992126
20
0.3189627952755906
11
0.8150618503937007
21
0.3186507086614173
0
LINE
8
BLACK
6
CONTINUOUS
10
0.8150618503937007
20
0.3186507086614173
11
0.815205905511811
21
0.3185910236220472
0
LINE
8
BLACK
6
CONTINUOUS
10
0.815205905511811
20
0.3185910236220472
11
0.8153020866141732
21
0.3184994881889764
0
LINE
8
BLACK
6
CONTINUOUS
10
0.8153020866141732
20
0.3184994881889764
11
0.8155457874015748
21
0.318346062992126
0
LINE
8
BLACK
6
CONTINUOUS
10
0.8155457874015748
20
0.318346062992126
11
0.8159361811023622
21
0.3178959448818898
0
LINE
8
BLACK
6
CONTINUOUS
10
0.8159361811023622
20
0.3178959448818898
11
0.818538031496063
21
0.3154193700787402
0
LINE
8
BLACK
6
CONTINUOUS
10
0.818538031496063
20
0.3154193700787402
11
0.8189096062992126
21
0.3149665748031496
0
LINE
8
BLACK
6
CONTINUOUS
10
0.8189096062992126
20
0.3149665748031496
11
0.8190275196850394
21
0.3148643307086614
0
LINE
8
BLACK
6
CONTINUOUS
10
0.8190275196850394
20
0.3148643307086614
11
0.8190867716535433
21
0.3147507086614173
0
LINE
8
BLACK
6
CONTINUOUS
10
0.8190867716535433
20
0.3147507086614173
11
0.8192724803149606
21
0.3145244488188976
0
LINE
8
BLACK
6
CONTINUOUS
10
0.8192724803149606
20
0.3145244488188976
11
0.8195332283464567
21
0.3138949212598425
0
LINE
8
BLACK
6
CONTINUOUS
10
0.8195332283464567
20
0.3138949212598425
11
0.8220814566929133
21
0.3090101968503937
0
LINE
8
BLACK
6
CONTINUOUS
10
0.8220814566929133
20
0.3090101968503937
11
0.8224952362204724
21
0.3079289763779527
0
LINE
8
BLACK
6
CONTINUOUS
10
0.8224952362204724
20
0.3079289763779527
11
0.8225102755905511
21
0.3077172834645669
0
LINE
8
BLACK
6
CONTINUOUS
10
0.8225102755905511
20
0.3077172834645669
11
0.8225914566929133
21
0.3075212992125984
0
LINE
8
BLACK
6
CONTINUOUS
10
0.8225914566929133
20
0.3075212992125984
11
0.8226156692913386
21
0.3062335039370079
0
LINE
8
BLACK
6
CONTINUOUS
10
0.8226156692913386
20
0.3062335039370079
11
0.8226585433070865
21
0.3056305511811023
0
LINE
8
BLACK
6
CONTINUOUS
10
0.8226585433070865
20
0.3056305511811023
11
0.8226287007874016
21
0.3055411417322835
0
LINE
8
BLACK
6
CONTINUOUS
10
0.8226287007874016
20
0.3055411417322835
11
0.8227049212598425
21
0.3014947637795276
0
LINE
8
BLACK
6
CONTINUOUS
10
0.8227049212598425
20
0.3014947637795276
11
0.8226474803149606
21
0.3009116535433071
0
LINE
8
BLACK
6
CONTINUOUS
10
0.8226474803149606
20
0.3009116535433071
11
0.8226585433070865
21
0.3007561417322834
0
LINE
8
BLACK
6
CONTINUOUS
10
0.8226585433070865
20
0.3007561417322834
11
0.8226203937007874
21
0.3006366929133858
0
LINE
8
BLACK
6
CONTINUOUS
10
0.8226203937007874
20
0.3006366929133858
11
0.8225914566929133
21
0.3003426377952756
0
LINE
8
BLACK
6
CONTINUOUS
10
0.8225914566929133
20
0.3003426377952756
11
0.8223086614173228
21
0.2996600393700787
0
LINE
8
BLACK
6
CONTINUOUS
10
0.8223086614173228
20
0.2996600393700787
11
0.8199646456692913
21
0.2923157086614173
0
LINE
8
BLACK
6
CONTINUOUS
10
0.8199646456692913
20
0.2923157086614173
11
0.8194926771653543
21
0.2912585826771654
0
LINE
8
BLACK
6
CONTINUOUS
10
0.8194926771653543
20
0.2912585826771654
11
0.8193537007874016
21
0.2910983464566929
0
LINE
8
BLACK
6
CONTINUOUS
10
0.8193537007874016
20
0.2910983464566929
11
0.8192724803149606
21
0.2909022440944882
0
LINE
8
BLACK
6
CONTINUOUS
10
0.8192724803149606
20
0.2909022440944882
11
0.8185785433070866
21
0.2902046062992126
0
LINE
8
BLACK
6
CONTINUOUS
10
0.8185785433070866
20
0.2902046062992126
11
0.8179829133858267
21
0.2895178346456693
0
LINE
8
BLACK
6
CONTINUOUS
10
0.8179829133858267
20
0.2895178346456693
11
0.8178088582677165
21
0.2894308661417323
0
LINE
8
BLACK
6
CONTINUOUS
10
0.8178088582677165
20
0.2894308661417323
11
0.7992590551181102
21
0.2707817716535433
0
LINE
8
BLACK
6
CONTINUOUS
10
0.7992590551181102
20
0.2707817716535433
11
0.8167994094488189
21
0.2708423622047244
0
LINE
8
BLACK
6
CONTINUOUS
10
0.8167994094488189
20
0.2708423622047244
11
0.8179515354330709
21
0.2707288976377953
0
LINE
8
BLACK
6
CONTINUOUS
10
0.8179515354330709
20
0.2707288976377953
11
0.8200803543307087
21
0.2698470866141732
0
LINE
8
BLACK
6
CONTINUOUS
10
0.8200803543307087
20
0.2698470866141732
11
0.8217096456692913
21
0.2682177952755905
0
LINE
8
BLACK
6
CONTINUOUS
10
0.8217096456692913
20
0.2682177952755905
11
0.8225914566929133
21
0.2660889763779528
0
LINE
8
BLACK
6
CONTINUOUS
10
0.8225914566929133
20
0.2660889763779528
11
0.8225914566929133
21
0.2637847244094488
0
LINE
8
BLACK
6
CONTINUOUS
10
0.8225914566929133
20
0.2637847244094488
11
0.8217096456692913
21
0.261655905511811
0
LINE
8
BLACK
6
CONTINUOUS
10
0.8217096456692913
20
0.261655905511811
11
0.8200803543307087
21
0.2600266141732284
0
LINE
8
BLACK
6
CONTINUOUS
10
0.8200803543307087
20
0.2600266141732284
11
0.8179515354330709
21
0.2591448031496063
0
LINE
8
BLACK
6
CONTINUOUS
10
0.8179515354330709
20
0.2591448031496063
11
0.7851158661417322
21
0.2590313385826772
0
LINE
8
BLACK
6
CONTINUOUS
10
0.7851158661417322
20
0.2590313385826772
11
0.7839637401574803
21
0.2591448031496063
0
LINE
8
BLACK
6
CONTINUOUS
10
0.7839637401574803
20
0.2591448031496063
11
0.7827325196850393
21
0.2596548031496063
0
LINE
8
BLACK
6
CONTINUOUS
10
0.7827325196850393
20
0.2596548031496063
11
0.7818349606299212
21
0.2600265748031496
0
LINE
8
BLACK
6
CONTINUOUS
10
0.7818349606299212
20
0.2600265748031496
11
0.7802055905511811
21
0.2616559448818898
0
LINE
8
BLACK
6
CONTINUOUS
10
0.7802055905511811
20
0.2616559448818898
11
0.7796890551181103
21
0.2629029527559055
0
LINE
8
BLACK
6
CONTINUOUS
10
0.7796890551181103
20
0.2629029527559055
11
0.7793238188976378
21
0.2637847244094488
0
LINE
8
BLACK
6
CONTINUOUS
10
0.7793238188976378
20
0.2637847244094488
11
0.7793238188976378
21
0.2660889763779528
0
LINE
8
BLACK
6
CONTINUOUS
10
0.7793238188976378
20
0.2660889763779528
11
0.7800579921259843
21
0.2678614173228346
0
LINE
8
BLACK
6
CONTINUOUS
10
0.7800579921259843
20
0.2678614173228346
11
0.7802055905511811
21
0.2682177559055118
0
LINE
8
BLACK
6
CONTINUOUS
10
0.7802055905511811
20
0.2682177559055118
11
0.8093230708661417
21
0.2974911417322835
0
LINE
8
BLACK
6
CONTINUOUS
10
0.8093230708661417
20
0.2974911417322835
11
0.8109642125984252
21
0.3026331102362205
0
LINE
8
BLACK
6
CONTINUOUS
10
0.8109642125984252
20
0.3026331102362205
11
0.8109181496062992
21
0.3050792125984252
0
LINE
8
BLACK
6
CONTINUOUS
10
0.8109181496062992
20
0.3050792125984252
11
0.8094577952755906
21
0.3078785826771653
0
LINE
8
BLACK
6
CONTINUOUS
10
0.8094577952755906
20
0.3078785826771653
11
0.8083149212598425
21
0.3089664173228346
0
LINE
8
BLACK
6
CONTINUOUS
10
0.8083149212598425
20
0.3089664173228346
11
0.8055225984251968
21
0.3103031102362205
0
LINE
8
BLACK
6
CONTINUOUS
10
0.8055225984251968
20
0.3103031102362205
11
0.7961286614173229
21
0.3102232283464567
0
LINE
8
BLACK
6
CONTINUOUS
10
0.7961286614173229
20
0.3102232283464567
11
0.7933551968503937
21
0.3087763779527559
0
LINE
8
BLACK
6
CONTINUOUS
10
0.7933551968503937
20
0.3087763779527559
11
0.7917289370078739
21
0.3070677559055118
0
LINE
8
BLACK
6
CONTINUOUS
10
0.7917289370078739
20
0.3070677559055118
11
0.7908340157480315
21
0.3063333070866142
0
LINE
8
BLACK
6
CONTINUOUS
10
0.7908340157480315
20
0.3063333070866142
11
0.7887051968503936
21
0.3054514960629921
0
LINE
8
BLACK
6
CONTINUOUS
10
0.7887051968503936
20
0.3054514960629921
11
0.7864010236220472
21
0.3054514960629921
0
LINE
8
BLACK
6
CONTINUOUS
10
0.7864010236220472
20
0.3054514960629921
11
0.7842722047244094
21
0.3063332283464567
0
LINE
8
BLACK
6
CONTINUOUS
10
0.7842722047244094
20
0.3063332283464567
11
0.7826428346456693
21
0.3079625984251969
0
LINE
8
BLACK
6
CONTINUOUS
10
0.7826428346456693
20
0.3079625984251969
11
0.7817610236220472
21
0.3100914173228346
0
LINE
8
BLACK
6
CONTINUOUS
10
0.7817610236220472
20
0.3100914173228346
11
0.7817610236220472
21
0.3123955905511811
0
LINE
8
BLACK
6
CONTINUOUS
10
0.7817610236220472
20
0.3123955905511811
11
0.7826427559055118
21
0.3145244094488189
0
LINE
8
BLACK
6
CONTINUOUS
10
0.7826427559055118
20
0.3145244094488189
11
0.7858143700787401
21
0.3178565354330709
0
LINE
8
BLACK
6
CONTINUOUS
10
0.7858143700787401
20
0.3178565354330709
11
0.7862672047244095
21
0.3182281889763779
0
LINE
8
BLACK
6
CONTINUOUS
10
0.7862672047244095
20
0.3182281889763779
11
0.7863694488188976
21
0.318346062992126
0
LINE
8
BLACK
6
CONTINUOUS
10
0.7863694488188976
20
0.318346062992126
11
0.7864830708661417
21
0.3184053543307087
0
LINE
8
BLACK
6
CONTINUOUS
10
0.7864830708661417
20
0.3184053543307087
11
0.7867092913385827
21
0.3185909842519685
0
LINE
8
BLACK
6
CONTINUOUS
10
0.7867092913385827
20
0.3185909842519685
11
0.7873386614173228
21
0.3188516929133858
0
LINE
8
BLACK
6
CONTINUOUS
10
0.7873386614173228
20
0.3188516929133858
11
0.7922236220472441
21
0.3214
0
LINE
8
BLACK
6
CONTINUOUS
10
0.7922236220472441
20
0.3214
11
0.7933048818897638
21
0.3218137795275591
0
LINE
8
BLACK
6
CONTINUOUS
10
0.7933048818897638
20
0.3218137795275591
11
0.7935164960629921
21
0.3218288188976378
0
LINE
8
BLACK
6
CONTINUOUS
10
0.7935164960629921
20
0.3218288188976378
11
0.7937125196850393
21
0.32191
0
LINE
8
BLACK
6
CONTINUOUS
10
0.7937125196850393
20
0.32191
11
0.7947878346456693
21
0.3219191732283465
0
LINE
8
BLACK
6
CONTINUOUS
10
0.7947878346456693
20
0.3219191732283465
11
0.7956033070866142
21
0.3219770866141732
0
LINE
8
BLACK
6
CONTINUOUS
10
0.7956033070866142
20
0.3219770866141732
11
0.7957524803149606
21
0.3219273622047244
0
LINE
8
BLACK
6
CONTINUOUS
10
0.7957524803149606
20
0.3219273622047244
11
0.8070506299212599
21
0.3220234645669292
0
LINE
8
BLACK
6
CONTINUOUS
10
0.8070506299212599
20
0.3220234645669292
11
0.8082027559055118
21
0.32191
0
LINE
8
BLACK
6
CONTINUOUS
10
0.8496217716535432
20
0.3218436614173228
11
0.8500427165354331
21
0.3218137401574803
0
LINE
8
BLACK
6
CONTINUOUS
10
0.8500427165354331
20
0.3218137401574803
11
0.8507049999999999
21
0.3214825984251968
0
LINE
8
BLACK
6
CONTINUOUS
10
0.8507049999999999
20
0.3214825984251968
11
0.8514075196850394
21
0.3212484251968504
0
LINE
8
BLACK
6
CONTINUOUS
10
0.8514075196850394
20
0.3212484251968504
11
0.8517262598425197
21
0.320971968503937
0
LINE
8
BLACK
6
CONTINUOUS
10
0.8517262598425197
20
0.320971968503937
11
0.8521036614173229
21
0.3207832677165354
0
LINE
8
BLACK
6
CONTINUOUS
10
0.8521036614173229
20
0.3207832677165354
11
0.8525888976377952
21
0.320223779527559
0
LINE
8
BLACK
6
CONTINUOUS
10
0.8525888976377952
20
0.320223779527559
11
0.8531482283464566
21
0.3197386614173228
0
LINE
8
BLACK
6
CONTINUOUS
10
0.8531482283464566
20
0.3197386614173228
11
0.8533368503937008
21
0.3193613779527559
0
LINE
8
BLACK
6
CONTINUOUS
10
0.8533368503937008
20
0.3193613779527559
11
0.8536133858267716
21
0.3190425590551181
0
LINE
8
BLACK
6
CONTINUOUS
10
0.8536133858267716
20
0.3190425590551181
11
0.8538524409448819
21
0.3183302362204724
0
LINE
8
BLACK
6
CONTINUOUS
10
0.8538524409448819
20
0.3183302362204724
11
0.8541787007874015
21
0.3176777559055118
0
LINE
8
BLACK
6
CONTINUOUS
10
0.8541787007874015
20
0.3176777559055118
11
0.8542074803149606
21
0.3172723622047244
0
LINE
8
BLACK
6
CONTINUOUS
10
0.8542074803149606
20
0.3172723622047244
11
0.8711457874015748
21
0.2668043307086614
0
LINE
8
BLACK
6
CONTINUOUS
10
0.8711457874015748
20
0.2668043307086614
11
0.8714024803149606
21
0.2656754330708662
0
LINE
8
BLACK
6
CONTINUOUS
10
0.8714024803149606
20
0.2656754330708662
11
0.8712390944881889
21
0.2633770078740157
0
LINE
8
BLACK
6
CONTINUOUS
10
0.8712390944881889
20
0.2633770078740157
11
0.8702086614173228
21
0.2613161023622047
0
LINE
8
BLACK
6
CONTINUOUS
10
0.8702086614173228
20
0.2613161023622047
11
0.8684679133858267
21
0.2598063385826772
0
LINE
8
BLACK
6
CONTINUOUS
10
0.8684679133858267
20
0.2598063385826772
11
0.8662819291338583
21
0.2590776771653543
0
LINE
8
BLACK
6
CONTINUOUS
10
0.8662819291338583
20
0.2590776771653543
11
0.8639835039370078
21
0.259241062992126
0
LINE
8
BLACK
6
CONTINUOUS
10
0.8639835039370078
20
0.259241062992126
11
0.8619225984251968
21
0.2602714960629921
0
LINE
8
BLACK
6
CONTINUOUS
10
0.8619225984251968
20
0.2602714960629921
11
0.8604128346456693
21
0.2620122047244094
0
LINE
8
BLACK
6
CONTINUOUS
10
0.8604128346456693
20
0.2620122047244094
11
0.8564752755905511
21
0.2737442125984252
0
LINE
8
BLACK
6
CONTINUOUS
10
0.8564752755905511
20
0.2737442125984252
11
0.8405354330708661
21
0.2736733464566929
0
LINE
8
BLACK
6
CONTINUOUS
10
0.8405354330708661
20
0.2736733464566929
11
0.8370250393700788
21
0.2630693700787402
0
LINE
8
BLACK
6
CONTINUOUS
10
0.8370250393700788
20
0.2630693700787402
11
0.836553031496063
21
0.2620122440944882
0
LINE
8
BLACK
6
CONTINUOUS
10
0.836553031496063
20
0.2620122440944882
11
0.8350433070866141
21
0.2602715354330709
0
LINE
8
BLACK
6
CONTINUOUS
10
0.8350433070866141
20
0.2602715354330709
11
0.8329824015748031
21
0.259241062992126
0
LINE
8
BLACK
6
CONTINUOUS
10
0.8329824015748031
20
0.259241062992126
11
0.8306839763779528
21
0.259077716535433
0
LINE
8
BLACK
6
CONTINUOUS
10
0.8306839763779528
20
0.259077716535433
11
0.8284979527559055
21
0.2598063779527559
0
LINE
8
BLACK
6
CONTINUOUS
10
0.8284979527559055
20
0.2598063779527559
11
0.8267572440944881
21
0.2613161023622047
0
LINE
8
BLACK
6
CONTINUOUS
10
0.8267572440944881
20
0.2613161023622047
11
0.8257267716535432
21
0.2633770078740157
0
LINE
8
BLACK
6
CONTINUOUS
10
0.8257267716535432
20
0.2633770078740157
11
0.8255634251968503
21
0.2656754330708662
0
LINE
8
BLACK
6
CONTINUOUS
10
0.8255634251968503
20
0.2656754330708662
11
0.8305049212598425
21
0.2806023622047244
0
LINE
8
BLACK
6
CONTINUOUS
10
0.8305049212598425
20
0.2806023622047244
11
0.8305049212598425
21
0.2807121259842519
0
LINE
8
BLACK
6
CONTINUOUS
10
0.8305049212598425
20
0.2807121259842519
11
0.8306858661417322
21
0.2811490157480315
0
LINE
8
BLACK
6
CONTINUOUS
10
0.8306858661417322
20
0.2811490157480315
11
0.8428804330708661
21
0.3179854330708661
0
LINE
8
BLACK
6
CONTINUOUS
10
0.8428804330708661
20
0.3179854330708661
11
0.8433524409448818
21
0.3190425590551181
0
LINE
8
BLACK
6
CONTINUOUS
10
0.8433524409448818
20
0.3190425590551181
11
0.8436288976377952
21
0.3193613385826772
0
LINE
8
BLACK
6
CONTINUOUS
10
0.8436288976377952
20
0.3193613385826772
11
0.8438175984251969
21
0.3197387007874016
0
LINE
8
BLACK
6
CONTINUOUS
10
0.8438175984251969
20
0.3197387007874016
11
0.844376968503937
21
0.3202238976377952
0
LINE
8
BLACK
6
CONTINUOUS
10
0.844376968503937
20
0.3202238976377952
11
0.8448621653543307
21
0.3207832677165354
0
LINE
8
BLACK
6
CONTINUOUS
10
0.8448621653543307
20
0.3207832677165354
11
0.8452395275590551
21
0.320971968503937
0
LINE
8
BLACK
6
CONTINUOUS
10
0.8452395275590551
20
0.320971968503937
11
0.8455583070866142
21
0.3212484251968504
0
LINE
8
BLACK
6
CONTINUOUS
10
0.8455583070866142
20
0.3212484251968504
11
0.8462607086614173
21
0.3214825984251968
0
LINE
8
BLACK
6
CONTINUOUS
10
0.8462607086614173
20
0.3214825984251968
11
0.8469230708661417
21
0.3218137401574803
0
LINE
8
BLACK
6
CONTINUOUS
10
0.8469230708661417
20
0.3218137401574803
11
0.8473439763779528
21
0.3218436614173228
0
LINE
8
BLACK
6
CONTINUOUS
10
0.8473439763779528
20
0.3218436614173228
11
0.8477442913385826
21
0.3219770866141732
0
LINE
8
BLACK
6
CONTINUOUS
10
0.8477442913385826
20
0.3219770866141732
11
0.8484828740157481
21
0.3219246062992126
0
LINE
8
BLACK
6
CONTINUOUS
10
0.8484828740157481
20
0.3219246062992126
11
0.8492214960629921
21
0.3219770866141732
0
LINE
8
BLACK
6
CONTINUOUS
10
0.8492214960629921
20
0.3219770866141732
11
0.8496217716535432
21
0.3218436614173228
0
LINE
8
BLACK
6
CONTINUOUS
10
0.8444152362204724
20
0.2853932677165354
11
0.8525534645669292
21
0.2854294488188976
0
LINE
8
BLACK
6
CONTINUOUS
10
0.8525534645669292
20
0.2854294488188976
11
0.8484624409448819
21
0.2976187401574803
0
LINE
8
BLACK
6
CONTINUOUS
10
0.8484624409448819
20
0.2976187401574803
11
0.8444152362204724
21
0.2853932677165354
0
LINE
8
BLACK
6
CONTINUOUS
10
0.5888551574803149
20
0.32191
11
0.5909839763779527
21
0.321028188976378
0
LINE
8
BLACK
6
CONTINUOUS
10
0.5909839763779527
20
0.321028188976378
11
0.5926132677165354
21
0.3193988976377953
0
LINE
8
BLACK
6
CONTINUOUS
10
0.5926132677165354
20
0.3193988976377953
11
0.5934950787401575
21
0.3172700787401574
0
LINE
8
BLACK
6
CONTINUOUS
10
0.5934950787401575
20
0.3172700787401574
11
0.5934950787401575
21
0.3149658267716535
0
LINE
8
BLACK
6
CONTINUOUS
10
0.5934950787401575
20
0.3149658267716535
11
0.5926132677165354
21
0.3128370078740157
0
LINE
8
BLACK
6
CONTINUOUS
10
0.5926132677165354
20
0.3128370078740157
11
0.5909839763779527
21
0.3112077165354331
0
LINE
8
BLACK
6
CONTINUOUS
10
0.5909839763779527
20
0.3112077165354331
11
0.5888551574803149
21
0.310325905511811
0
LINE
8
BLACK
6
CONTINUOUS
10
0.5888551574803149
20
0.310325905511811
11
0.5788870472440945
21
0.3102887007874016
0
LINE
8
BLACK
6
CONTINUOUS
10
0.5788870472440945
20
0.3102887007874016
11
0.5789853937007874
21
0.2649368503937008
0
LINE
8
BLACK
6
CONTINUOUS
10
0.5789853937007874
20
0.2649368503937008
11
0.5788719291338582
21
0.2637847244094488
0
LINE
8
BLACK
6
CONTINUOUS
10
0.5788719291338582
20
0.2637847244094488
11
0.5779901181102363
21
0.261655905511811
0
LINE
8
BLACK
6
CONTINUOUS
10
0.5779901181102363
20
0.261655905511811
11
0.5763608267716536
21
0.2600266141732284
0
LINE
8
BLACK
6
CONTINUOUS
10
0.5763608267716536
20
0.2600266141732284
11
0.5742320078740157
21
0.2591448031496063
0
LINE
8
BLACK
6
CONTINUOUS
10
0.5742320078740157
20
0.2591448031496063
11
0.5719277559055118
21
0.2591448031496063
0
LINE
8
BLACK
6
CONTINUOUS
10
0.5719277559055118
20
0.2591448031496063
11
0.569798937007874
21
0.2600266141732284
0
LINE
8
BLACK
6
CONTINUOUS
10
0.569798937007874
20
0.2600266141732284
11
0.5681696456692913
21
0.261655905511811
0
LINE
8
BLACK
6
CONTINUOUS
10
0.5681696456692913
20
0.261655905511811
11
0.5672878346456692
21
0.2637847244094488
0
LINE
8
BLACK
6
CONTINUOUS
10
0.5672878346456692
20
0.2637847244094488
11
0.5671870866141732
21
0.3102450393700787
0
LINE
8
BLACK
6
CONTINUOUS
10
0.5671870866141732
20
0.3102450393700787
11
0.5584566929133858
21
0.3102124409448819
0
LINE
8
BLACK
6
CONTINUOUS
10
0.5584566929133858
20
0.3102124409448819
11
0.5573045669291339
21
0.310325905511811
0
LINE
8
BLACK
6
CONTINUOUS
10
0.5573045669291339
20
0.310325905511811
11
0.5551757480314961
21
0.3112077165354331
0
LINE
8
BLACK
6
CONTINUOUS
10
0.5551757480314961
20
0.3112077165354331
11
0.5535464566929134
21
0.3128370078740157
0
LINE
8
BLACK
6
CONTINUOUS
10
0.5535464566929134
20
0.3128370078740157
11
0.5526646456692913
21
0.3149658267716535
0
LINE
8
BLACK
6
CONTINUOUS
10
0.5526646456692913
20
0.3149658267716535
11
0.5526646456692913
21
0.3172700787401574
0
LINE
8
BLACK
6
CONTINUOUS
10
0.5526646456692913
20
0.3172700787401574
11
0.5535464566929134
21
0.3193988976377953
0
LINE
8
BLACK
6
CONTINUOUS
10
0.5535464566929134
20
0.3193988976377953
11
0.5551757480314961
21
0.321028188976378
0
LINE
8
BLACK
6
CONTINUOUS
10
0.5551757480314961
20
0.321028188976378
11
0.5573045669291339
21
0.32191
0
LINE
8
BLACK
6
CONTINUOUS
10
0.5573045669291339
20
0.32191
11
0.587703031496063
21
0.3220234645669292
0
LINE
8
BLACK
6
CONTINUOUS
10
0.587703031496063
20
0.3220234645669292
11
0.5888551574803149
21
0.32191
0
LINE
8
BLACK
6
CONTINUOUS
10
0.6302874803149606
20
0.32191
11
0.6324162992125985
21
0.321028188976378
0
LINE
8
BLACK
6
CONTINUOUS
10
0.6324162992125985
20
0.321028188976378
11
0.634045590551181
21
0.3193988976377953
0
LINE
8
BLACK
6
CONTINUOUS
10
0.634045590551181
20
0.3193988976377953
11
0.6349274015748031
21
0.3172700787401574
0
LINE
8
BLACK
6
CONTINUOUS
10
0.6349274015748031
20
0.3172700787401574
11
0.6349274015748031
21
0.3149658267716535
0
LINE
8
BLACK
6
CONTINUOUS
10
0.6349274015748031
20
0.3149658267716535
11
0.634045590551181
21
0.3128370078740157
0
LINE
8
BLACK
6
CONTINUOUS
10
0.634045590551181
20
0.3128370078740157
11
0.6324162992125985
21
0.3112077165354331
0
LINE
8
BLACK
6
CONTINUOUS
10
0.6324162992125985
20
0.3112077165354331
11
0.6302874803149606
21
0.310325905511811
0
LINE
8
BLACK
6
CONTINUOUS
10
0.6302874803149606
20
0.310325905511811
11
0.6105706692913385
21
0.3102382677165354
0
LINE
8
BLACK
6
CONTINUOUS
10
0.6105706692913385
20
0.3102382677165354
11
0.6105981102362205
21
0.2975815748031496
0
LINE
8
BLACK
6
CONTINUOUS
10
0.6105981102362205
20
0.2975815748031496
11
0.6218237795275591
21
0.2976514960629921
0
LINE
8
BLACK
6
CONTINUOUS
10
0.6218237795275591
20
0.2976514960629921
11
0.622975905511811
21
0.297538031496063
0
LINE
8
BLACK
6
CONTINUOUS
10
0.622975905511811
20
0.297538031496063
11
0.6251047244094488
21
0.2966562204724409
0
LINE
8
BLACK
6
CONTINUOUS
10
0.6251047244094488
20
0.2966562204724409
11
0.6267340157480314
21
0.2950269291338583
0
LINE
8
BLACK
6
CONTINUOUS
10
0.6267340157480314
20
0.2950269291338583
11
0.6276158267716535
21
0.2928981102362205
0
LINE
8
BLACK
6
CONTINUOUS
10
0.6276158267716535
20
0.2928981102362205
11
0.6276158267716535
21
0.2905938582677166
0
LINE
8
BLACK
6
CONTINUOUS
10
0.6276158267716535
20
0.2905938582677166
11
0.6267340157480314
21
0.2884650393700787
0
LINE
8
BLACK
6
CONTINUOUS
10
0.6267340157480314
20
0.2884650393700787
11
0.6251047244094488
21
0.286835748031496
0
LINE
8
BLACK
6
CONTINUOUS
10
0.6251047244094488
20
0.286835748031496
11
0.622975905511811
21
0.285953937007874
0
LINE
8
BLACK
6
CONTINUOUS
10
0.622975905511811
20
0.285953937007874
11
0.6106234645669292
21
0.2858770078740158
0
LINE
8
BLACK
6
CONTINUOUS
10
0.6106234645669292
20
0.2858770078740158
11
0.6106688976377953
21
0.2649368503937008
0
LINE
8
BLACK
6
CONTINUOUS
10
0.6106688976377953
20
0.2649368503937008
11
0.6105554330708661
21
0.2637847244094488
0
LINE
8
BLACK
6
CONTINUOUS
10
0.6105554330708661
20
0.2637847244094488
11
0.6096736220472441
21
0.261655905511811
0
LINE
8
BLACK
6
CONTINUOUS
10
0.6096736220472441
20
0.261655905511811
11
0.6080443307086614
21
0.2600266141732284
0
LINE
8
BLACK
6
CONTINUOUS
10
0.6080443307086614
20
0.2600266141732284
11
0.6059155118110237
21
0.2591448031496063
0
LINE
8
BLACK
6
CONTINUOUS
10
0.6059155118110237
20
0.2591448031496063
11
0.6036112598425196
21
0.2591448031496063
0
LINE
8
BLACK
6
CONTINUOUS
10
0.6036112598425196
20
0.2591448031496063
11
0.6014824409448819
21
0.2600266141732284
0
LINE
8
BLACK
6
CONTINUOUS
10
0.6014824409448819
20
0.2600266141732284
11
0.5998531496062992
21
0.261655905511811
0
LINE
8
BLACK
6
CONTINUOUS
10
0.5998531496062992
20
0.261655905511811
11
0.5989713385826771
21
0.2637847244094488
0
LINE
8
BLACK
6
CONTINUOUS
10
0.5989713385826771
20
0.2637847244094488
11
0.598857874015748
21
0.3161179527559055
0
LINE
8
BLACK
6
CONTINUOUS
10
0.598857874015748
20
0.3161179527559055
11
0.5989713385826771
21
0.3172700787401574
0
LINE
8
BLACK
6
CONTINUOUS
10
0.5989713385826771
20
0.3172700787401574
11
0.5998531496062992
21
0.3193988976377953
0
LINE
8
BLACK
6
CONTINUOUS
10
0.5998531496062992
20
0.3193988976377953
11
0.6014824409448819
21
0.321028188976378
0
LINE
8
BLACK
6
CONTINUOUS
10
0.6014824409448819
20
0.321028188976378
11
0.6036112598425196
21
0.32191
0
LINE
8
BLACK
6
CONTINUOUS
10
0.6036112598425196
20
0.32191
11
0.6291353543307087
21
0.3220234645669292
0
LINE
8
BLACK
6
CONTINUOUS
10
0.6291353543307087
20
0.3220234645669292
11
0.6302874803149606
21
0.32191
0
LINE
8
BLACK
6
CONTINUOUS
10
0.6519138582677165
20
0.321028188976378
11
0.6535431496062992
21
0.3193988976377953
0
LINE
8
BLACK
6
CONTINUOUS
10
0.6535431496062992
20
0.3193988976377953
11
0.6544249606299213
21
0.3172700787401574
0
LINE
8
BLACK
6
CONTINUOUS
10
0.6544249606299213
20
0.3172700787401574
11
0.6544676771653544
21
0.2975641338582677
0
LINE
8
BLACK
6
CONTINUOUS
10
0.6544676771653544
20
0.2975641338582677
11
0.6720138188976378
21
0.2976296062992126
0
LINE
8
BLACK
6
CONTINUOUS
10
0.6720138188976378
20
0.2976296062992126
11
0.6719737401574803
21
0.3161179527559055
0
LINE
8
BLACK
6
CONTINUOUS
10
0.6719737401574803
20
0.3161179527559055
11
0.6720872047244094
21
0.3172700787401574
0
LINE
8
BLACK
6
CONTINUOUS
10
0.6720872047244094
20
0.3172700787401574
11
0.6729690157480315
21
0.3193988976377953
0
LINE
8
BLACK
6
CONTINUOUS
10
0.6729690157480315
20
0.3193988976377953
11
0.6745983070866142
21
0.321028188976378
0
LINE
8
BLACK
6
CONTINUOUS
10
0.6745983070866142
20
0.321028188976378
11
0.676727125984252
21
0.32191
0
LINE
8
BLACK
6
CONTINUOUS
10
0.676727125984252
20
0.32191
11
0.6790313779527559
21
0.32191
0
LINE
8
BLACK
6
CONTINUOUS
10
0.6790313779527559
20
0.32191
11
0.6811601968503936
21
0.321028188976378
0
LINE
8
BLACK
6
CONTINUOUS
10
0.6811601968503936
20
0.321028188976378
11
0.6827894881889763
21
0.3193988976377953
0
LINE
8
BLACK
6
CONTINUOUS
10
0.6827894881889763
20
0.3193988976377953
11
0.6836712992125984
21
0.3172700787401574
0
LINE
8
BLACK
6
CONTINUOUS
10
0.6836712992125984
20
0.3172700787401574
11
0.6837847637795276
21
0.2649368503937008
0
LINE
8
BLACK
6
CONTINUOUS
10
0.6837847637795276
20
0.2649368503937008
11
0.6836712992125984
21
0.2637847244094488
0
LINE
8
BLACK
6
CONTINUOUS
10
0.6836712992125984
20
0.2637847244094488
11
0.6827894881889763
21
0.261655905511811
0
LINE
8
BLACK
6
CONTINUOUS
10
0.6827894881889763
20
0.261655905511811
11
0.6811601968503936
21
0.2600266141732284
0
LINE
8
BLACK
6
CONTINUOUS
10
0.6811601968503936
20
0.2600266141732284
11
0.6790313779527559
21
0.2591448031496063
0
LINE
8
BLACK
6
CONTINUOUS
10
0.6790313779527559
20
0.2591448031496063
11
0.676727125984252
21
0.2591448031496063
0
LINE
8
BLACK
6
CONTINUOUS
10
0.676727125984252
20
0.2591448031496063
11
0.6745983070866142
21
0.2600266141732284
0
LINE
8
BLACK
6
CONTINUOUS
10
0.6745983070866142
20
0.2600266141732284
11
0.6729690157480315
21
0.261655905511811
0
LINE
8
BLACK
6
CONTINUOUS
10
0.6729690157480315
20
0.261655905511811
11
0.6720872047244094
21
0.2637847244094488
0
LINE
8
BLACK
6
CONTINUOUS
10
0.6720872047244094
20
0.2637847244094488
11
0.6720391732283464
21
0.285927874015748
0
LINE
8
BLACK
6
CONTINUOUS
10
0.6720391732283464
20
0.285927874015748
11
0.654493031496063
21
0.2858623622047244
0
LINE
8
BLACK
6
CONTINUOUS
10
0.654493031496063
20
0.2858623622047244
11
0.6545384251968503
21
0.2649368503937008
0
LINE
8
BLACK
6
CONTINUOUS
10
0.6545384251968503
20
0.2649368503937008
11
0.6544249606299213
21
0.2637847244094488
0
LINE
8
BLACK
6
CONTINUOUS
10
0.6544249606299213
20
0.2637847244094488
11
0.6535431496062992
21
0.261655905511811
0
LINE
8
BLACK
6
CONTINUOUS
10
0.6535431496062992
20
0.261655905511811
11
0.6519138582677165
21
0.2600266141732284
0
LINE
8
BLACK
6
CONTINUOUS
10
0.6519138582677165
20
0.2600266141732284
11
0.6497850393700787
21
0.2591448031496063
0
LINE
8
BLACK
6
CONTINUOUS
10
0.6497850393700787
20
0.2591448031496063
11
0.6474807874015748
21
0.2591448031496063
0
LINE
8
BLACK
6
CONTINUOUS
10
0.6474807874015748
20
0.2591448031496063
11
0.6453519685039369
21
0.2600266141732284
0
LINE
8
BLACK
6
CONTINUOUS
10
0.6453519685039369
20
0.2600266141732284
11
0.6437226771653544
21
0.261655905511811
0
LINE
8
BLACK
6
CONTINUOUS
10
0.6437226771653544
20
0.261655905511811
11
0.6428408661417323
21
0.2637847244094488
0
LINE
8
BLACK
6
CONTINUOUS
10
0.6428408661417323
20
0.2637847244094488
11
0.6427274015748031
21
0.3161179527559055
0
LINE
8
BLACK
6
CONTINUOUS
10
0.6427274015748031
20
0.3161179527559055
11
0.6428408661417323
21
0.3172700787401574
0
LINE
8
BLACK
6
CONTINUOUS
10
0.6428408661417323
20
0.3172700787401574
11
0.6437226771653544
21
0.3193988976377953
0
LINE
8
BLACK
6
CONTINUOUS
10
0.6437226771653544
20
0.3193988976377953
11
0.6453519685039369
21
0.321028188976378
0
LINE
8
BLACK
6
CONTINUOUS
10
0.6453519685039369
20
0.321028188976378
11
0.6474807874015748
21
0.32191
0
LINE
8
BLACK
6
CONTINUOUS
10
0.6474807874015748
20
0.32191
11
0.6497850393700787
21
0.32191
0
LINE
8
BLACK
6
CONTINUOUS
10
0.6497850393700787
20
0.32191
11
0.6519138582677165
21
0.321028188976378
0
LINE
8
BLACK
6
CONTINUOUS
10
0.7253381102362204
20
0.32191
11
0.7274669291338582
21
0.321028188976378
0
LINE
8
BLACK
6
CONTINUOUS
10
0.7274669291338582
20
0.321028188976378
11
0.7290962204724409
21
0.3193988976377953
0
LINE
8
BLACK
6
CONTINUOUS
10
0.7290962204724409
20
0.3193988976377953
11
0.729978031496063
21
0.3172700787401574
0
LINE
8
BLACK
6
CONTINUOUS
10
0.729978031496063
20
0.3172700787401574
11
0.729978031496063
21
0.3149658267716535
0
LINE
8
BLACK
6
CONTINUOUS
10
0.729978031496063
20
0.3149658267716535
11
0.7290962204724409
21
0.3128370078740157
0
LINE
8
BLACK
6
CONTINUOUS
10
0.7290962204724409
20
0.3128370078740157
11
0.7274669291338582
21
0.3112077165354331
0
LINE
8
BLACK
6
CONTINUOUS
10
0.7274669291338582
20
0.3112077165354331
11
0.7253381102362204
21
0.310325905511811
0
LINE
8
BLACK
6
CONTINUOUS
10
0.7253381102362204
20
0.310325905511811
11
0.71537
21
0.3102887007874016
0
LINE
8
BLACK
6
CONTINUOUS
10
0.71537
20
0.3102887007874016
11
0.7154683464566929
21
0.2649368503937008
0
LINE
8
BLACK
6
CONTINUOUS
10
0.7154683464566929
20
0.2649368503937008
11
0.7153548818897638
21
0.2637847244094488
0
LINE
8
BLACK
6
CONTINUOUS
10
0.7153548818897638
20
0.2637847244094488
11
0.7144730708661418
21
0.261655905511811
0
LINE
8
BLACK
6
CONTINUOUS
10
0.7144730708661418
20
0.261655905511811
11
0.7128437795275591
21
0.2600266141732284
0
LINE
8
BLACK
6
CONTINUOUS
10
0.7128437795275591
20
0.2600266141732284
11
0.7107149606299212
21
0.2591448031496063
0
LINE
8
BLACK
6
CONTINUOUS
10
0.7107149606299212
20
0.2591448031496063
11
0.7084107086614173
21
0.2591448031496063
0
LINE
8
BLACK
6
CONTINUOUS
10
0.7084107086614173
20
0.2591448031496063
11
0.7062818897637795
21
0.2600266141732284
0
LINE
8
BLACK
6
CONTINUOUS
10
0.7062818897637795
20
0.2600266141732284
11
0.7046525984251968
21
0.261655905511811
0
LINE
8
BLACK
6
CONTINUOUS
10
0.7046525984251968
20
0.261655905511811
11
0.7037707874015748
21
0.2637847244094488
0
LINE
8
BLACK
6
CONTINUOUS
10
0.7037707874015748
20
0.2637847244094488
11
0.7036700393700788
21
0.3102450393700787
0
LINE
8
BLACK
6
CONTINUOUS
10
0.7036700393700788
20
0.3102450393700787
11
0.6949396456692913
21
0.3102124409448819
0
LINE
8
BLACK
6
CONTINUOUS
10
0.6949396456692913
20
0.3102124409448819
11
0.6937875196850394
21
0.310325905511811
0
LINE
8
BLACK
6
CONTINUOUS
10
0.6937875196850394
20
0.310325905511811
11
0.6916587007874015
21
0.3112077165354331
0
LINE
8
BLACK
6
CONTINUOUS
10
0.6916587007874015
20
0.3112077165354331
11
0.6900294094488189
21
0.3128370078740157
0
LINE
8
BLACK
6
CONTINUOUS
10
0.6900294094488189
20
0.3128370078740157
11
0.6891475984251968
21
0.3149658267716535
0
LINE
8
BLACK
6
CONTINUOUS
10
0.6891475984251968
20
0.3149658267716535
11
0.6891475984251968
21
0.3172700787401574
0
LINE
8
BLACK
6
CONTINUOUS
10
0.6891475984251968
20
0.3172700787401574
11
0.6900294094488189
21
0.3193988976377953
0
LINE
8
BLACK
6
CONTINUOUS
10
0.6900294094488189
20
0.3193988976377953
11
0.6916587007874015
21
0.321028188976378
0
LINE
8
BLACK
6
CONTINUOUS
10
0.6916587007874015
20
0.321028188976378
11
0.6937875196850394
21
0.32191
0
LINE
8
BLACK
6
CONTINUOUS
10
0.6937875196850394
20
0.32191
11
0.7241859842519685
21
0.3220234645669292
0
LINE
8
BLACK
6
CONTINUOUS
10
0.7241859842519685
20
0.3220234645669292
11
0.7253381102362204
21
0.32191
0
LINE
8
BLACK
6
CONTINUOUS
10
0.4443817716535433
20
0.3498483858267716
11
0.4426194881889764
21
0.3450073622047244
0
LINE
8
BLACK
6
CONTINUOUS
10
0.4426194881889764
20
0.3450073622047244
11
0.4408572834645669
21
0.3401662598425197
0
LINE
8
BLACK
6
CONTINUOUS
10
0.4408572834645669
20
0.3401662598425197
11
0.4195085826771653
21
0.335047874015748
0
LINE
8
BLACK
6
CONTINUOUS
10
0.4195085826771653
20
0.335047874015748
11
0.3981598818897638
21
0.3299295669291338
0
LINE
8
BLACK
6
CONTINUOUS
10
0.3981598818897638
20
0.3299295669291338
11
0.4153434645669291
21
0.3235755511811024
0
LINE
8
BLACK
6
CONTINUOUS
10
0.4153434645669291
20
0.3235755511811024
11
0.4325270472440945
21
0.3172215748031496
0
LINE
8
BLACK
6
CONTINUOUS
10
0.4325270472440945
20
0.3172215748031496
11
0.4286935433070866
21
0.3072741732283464
0
LINE
8
BLACK
6
CONTINUOUS
10
0.4286935433070866
20
0.3072741732283464
11
0.4017383464566929
21
0.3169865748031496
0
LINE
8
BLACK
6
CONTINUOUS
10
0.4017383464566929
20
0.3169865748031496
11
0.3747831102362205
21
0.3266989763779528
0
LINE
8
BLACK
6
CONTINUOUS
10
0.3747831102362205
20
0.3266989763779528
11
0.3778756299212598
21
0.3351956299212598
0
LINE
8
BLACK
6
CONTINUOUS
10
0.3778756299212598
20
0.3351956299212598
11
0.4005157874015748
21
0.3407099606299213
0
LINE
8
BLACK
6
CONTINUOUS
10
0.4005157874015748
20
0.3407099606299213
11
0.4231559842519685
21
0.3462242519685039
0
LINE
8
BLACK
6
CONTINUOUS
10
0.4231559842519685
20
0.3462242519685039
11
0.4049684645669291
21
0.3529435039370079
0
LINE
8
BLACK
6
CONTINUOUS
10
0.4049684645669291
20
0.3529435039370079
11
0.386780905511811
21
0.3596627559055118
0
LINE
8
BLACK
6
CONTINUOUS
10
0.386780905511811
20
0.3596627559055118
11
0.3903647244094488
21
0.3695089763779528
0
LINE
8
BLACK
6
CONTINUOUS
10
0.3903647244094488
20
0.3695089763779528
11
0.4443817716535433
21
0.3498483858267716
0
LINE
8
BLACK
6
CONTINUOUS
10
0.4234821259842519
20
0.4182553543307087
11
0.425089842519685
21
0.4180787795275591
0
LINE
8
BLACK
6
CONTINUOUS
10
0.425089842519685
20
0.4180787795275591
11
0.4268536220472441
21
0.4177674409448819
0
LINE
8
BLACK
6
CONTINUOUS
10
0.4268536220472441
20
0.4177674409448819
11
0.4288375590551181
21
0.4173049212598425
0
LINE
8
BLACK
6
CONTINUOUS
10
0.4288375590551181
20
0.4173049212598425
11
0.4311059842519685
21
0.4166746456692914
0
LINE
8
BLACK
6
CONTINUOUS
10
0.4311059842519685
20
0.4166746456692914
11
0.433723188976378
21
0.4158599606299213
0
LINE
8
BLACK
6
CONTINUOUS
10
0.433723188976378
20
0.4158599606299213
11
0.4367533070866141
21
0.4148444488188976
0
LINE
8
BLACK
6
CONTINUOUS
10
0.4367533070866141
20
0.4148444488188976
11
0.4402607480314961
21
0.4136114960629921
0
LINE
8
BLACK
6
CONTINUOUS
10
0.4402607480314961
20
0.4136114960629921
11
0.4443096456692913
21
0.4121445275590551
0
LINE
8
BLACK
6
CONTINUOUS
10
0.4443096456692913
20
0.4121445275590551
11
0.4489642913385827
21
0.4104270472440945
0
LINE
8
BLACK
6
CONTINUOUS
10
0.4489642913385827
20
0.4104270472440945
11
0.4490991732283465
21
0.4103769291338583
0
LINE
8
BLACK
6
CONTINUOUS
10
0.4490991732283465
20
0.4103769291338583
11
0.4641815354330708
21
0.4047765354330708
0
LINE
8
BLACK
6
CONTINUOUS
10
0.4641815354330708
20
0.4047765354330708
11
0.4624516929133858
21
0.3997313779527559
0
LINE
8
BLACK
6
CONTINUOUS
10
0.4624516929133858
20
0.3997313779527559
11
0.4607218897637795
21
0.3946861417322834
0
LINE
8
BLACK
6
CONTINUOUS
10
0.4607218897637795
20
0.3946861417322834
11
0.4447700787401574
21
0.4004921259842519
0
LINE
8
BLACK
6
CONTINUOUS
10
0.4447700787401574
20
0.4004921259842519
11
0.4409342913385826
21
0.4018788582677165
0
LINE
8
BLACK
6
CONTINUOUS
10
0.4409342913385826
20
0.4018788582677165
11
0.4373911811023622
21
0.4031412992125984
0
LINE
8
BLACK
6
CONTINUOUS
10
0.4373911811023622
20
0.4031412992125984
11
0.4342022440944882
21
0.4042583464566929
0
LINE
8
BLACK
6
CONTINUOUS
10
0.4342022440944882
20
0.4042583464566929
11
0.4314293307086614
21
0.405208937007874
0
LINE
8
BLACK
6
CONTINUOUS
10
0.4314293307086614
20
0.405208937007874
11
0.4291341338582677
21
0.4059718503937008
0
LINE
8
BLACK
6
CONTINUOUS
10
0.4291341338582677
20
0.4059718503937008
11
0.4273783070866142
21
0.4065262992125984
0
LINE
8
BLACK
6
CONTINUOUS
10
0.4273783070866142
20
0.4065262992125984
11
0.4262235039370079
21
0.4068508267716535
0
LINE
8
BLACK
6
CONTINUOUS
10
0.4262235039370079
20
0.4068508267716535
11
0.4260559842519685
21
0.4068894094488189
0
LINE
8
BLACK
6
CONTINUOUS
10
0.4260559842519685
20
0.4068894094488189
11
0.4226956299212598
21
0.4073942125984252
0
LINE
8
BLACK
6
CONTINUOUS
10
0.4226956299212598
20
0.4073942125984252
11
0.4197878346456693
21
0.4073526771653543
0
LINE
8
BLACK
6
CONTINUOUS
10
0.4197878346456693
20
0.4073526771653543
11
0.4172879527559055
21
0.406743031496063
0
LINE
8
BLACK
6
CONTINUOUS
10
0.4172879527559055
20
0.406743031496063
11
0.4151514566929134
21
0.4055440551181102
0
LINE
8
BLACK
6
CONTINUOUS
10
0.4151514566929134
20
0.4055440551181102
11
0.4133336220472441
21
0.4037339763779527
0
LINE
8
BLACK
6
CONTINUOUS
10
0.4133336220472441
20
0.4037339763779527
11
0.4117896850393701
21
0.4012913385826772
0
LINE
8
BLACK
6
CONTINUOUS
10
0.4117896850393701
20
0.4012913385826772
11
0.4110316141732283
21
0.3996474803149606
0
LINE
8
BLACK
6
CONTINUOUS
10
0.4110316141732283
20
0.3996474803149606
11
0.4099711023622047
21
0.3965246062992126
0
LINE
8
BLACK
6
CONTINUOUS
10
0.4099711023622047
20
0.3965246062992126
11
0.4095411023622047
21
0.3937267322834646
0
LINE
8
BLACK
6
CONTINUOUS
10
0.4095411023622047
20
0.3937267322834646
11
0.4097557086614173
21
0.3912007480314961
0
LINE
8
BLACK
6
CONTINUOUS
10
0.4097557086614173
20
0.3912007480314961
11
0.410628937007874
21
0.3888937401574803
0
LINE
8
BLACK
6
CONTINUOUS
10
0.410628937007874
20
0.3888937401574803
11
0.4121748031496063
21
0.3867527952755905
0
LINE
8
BLACK
6
CONTINUOUS
10
0.4121748031496063
20
0.3867527952755905
11
0.4144075196850394
21
0.3847248818897638
0
LINE
8
BLACK
6
CONTINUOUS
10
0.4144075196850394
20
0.3847248818897638
11
0.4151348818897638
21
0.3841862992125984
0
LINE
8
BLACK
6
CONTINUOUS
10
0.4151348818897638
20
0.3841862992125984
11
0.4156644488188976
21
0.3838242519685039
0
LINE
8
BLACK
6
CONTINUOUS
10
0.4156644488188976
20
0.3838242519685039
11
0.4162420078740157
21
0.3834709842519685
0
LINE
8
BLACK
6
CONTINUOUS
10
0.4162420078740157
20
0.3834709842519685
11
0.416929842519685
21
0.3831010236220472
0
LINE
8
BLACK
6
CONTINUOUS
10
0.416929842519685
20
0.3831010236220472
11
0.417789842519685
21
0.3826888582677165
0
LINE
8
BLACK
6
CONTINUOUS
10
0.417789842519685
20
0.3826888582677165
11
0.4188843307086614
21
0.382208937007874
0
LINE
8
BLACK
6
CONTINUOUS
10
0.4188843307086614
20
0.382208937007874
11
0.4202753543307087
21
0.3816357874015748
0
LINE
8
BLACK
6
CONTINUOUS
10
0.4202753543307087
20
0.3816357874015748
11
0.4220251181102362
21
0.3809438976377953
0
LINE
8
BLACK
6
CONTINUOUS
10
0.4220251181102362
20
0.3809438976377953
11
0.4241956299212598
21
0.3801076771653543
0
LINE
8
BLACK
6
CONTINUOUS
10
0.4241956299212598
20
0.3801076771653543
11
0.4268491338582677
21
0.3791018110236221
0
LINE
8
BLACK
6
CONTINUOUS
10
0.4268491338582677
20
0.3791018110236221
11
0.4300477952755906
21
0.3779006299212598
0
LINE
8
BLACK
6
CONTINUOUS
10
0.4300477952755906
20
0.3779006299212598
11
0.4338535826771653
21
0.3764786220472441
0
LINE
8
BLACK
6
CONTINUOUS
10
0.4338535826771653
20
0.3764786220472441
11
0.4344658661417323
21
0.3762502362204724
0
LINE
8
BLACK
6
CONTINUOUS
10
0.4344658661417323
20
0.3762502362204724
11
0.4516574803149606
21
0.3698384251968504
0
LINE
8
BLACK
6
CONTINUOUS
10
0.4516574803149606
20
0.3698384251968504
11
0.4480778346456693
21
0.3600034251968504
0
LINE
8
BLACK
6
CONTINUOUS
10
0.4480778346456693
20
0.3600034251968504
11
0.4293511811023622
21
0.3669546062992126
0
LINE
8
BLACK
6
CONTINUOUS
10
0.4293511811023622
20
0.3669546062992126
11
0.425309094488189
21
0.3684557086614173
0
LINE
8
BLACK
6
CONTINUOUS
10
0.425309094488189
20
0.3684557086614173
11
0.4218858267716535
21
0.3697303543307087
0
LINE
8
BLACK
6
CONTINUOUS
10
0.4218858267716535
20
0.3697303543307087
11
0.4190222047244094
21
0.3708026771653543
0
LINE
8
BLACK
6
CONTINUOUS
10
0.4190222047244094
20
0.3708026771653543
11
0.4166589763779527
21
0.3716972047244094
0
LINE
8
BLACK
6
CONTINUOUS
10
0.4166589763779527
20
0.3716972047244094
11
0.4147368503937008
21
0.3724384645669291
0
LINE
8
BLACK
6
CONTINUOUS
10
0.4147368503937008
20
0.3724384645669291
11
0.4131966535433071
21
0.3730506692913386
0
LINE
8
BLACK
6
CONTINUOUS
10
0.4131966535433071
20
0.3730506692913386
11
0.4119791732283464
21
0.3735583464566929
0
LINE
8
BLACK
6
CONTINUOUS
10
0.4119791732283464
20
0.3735583464566929
11
0.4110251574803149
21
0.3739858661417323
0
LINE
8
BLACK
6
CONTINUOUS
10
0.4110251574803149
20
0.3739858661417323
11
0.4102752362204724
21
0.3743575984251968
0
LINE
8
BLACK
6
CONTINUOUS
10
0.4102752362204724
20
0.3743575984251968
11
0.4096703937007874
21
0.374698031496063
0
LINE
8
BLACK
6
CONTINUOUS
10
0.4096703937007874
20
0.374698031496063
11
0.409151220472441
21
0.3750315748031496
0
LINE
8
BLACK
6
CONTINUOUS
10
0.409151220472441
20
0.3750315748031496
11
0.4086585826771654
21
0.3753825196850394
0
LINE
8
BLACK
6
CONTINUOUS
10
0.4086585826771654
20
0.3753825196850394
11
0.4083629921259843
21
0.3756026771653543
0
LINE
8
BLACK
6
CONTINUOUS
10
0.4083629921259843
20
0.3756026771653543
11
0.4051803543307086
21
0.3783705118110236
0
LINE
8
BLACK
6
CONTINUOUS
10
0.4051803543307086
20
0.3783705118110236
11
0.4026433070866142
21
0.3814024015748032
0
LINE
8
BLACK
6
CONTINUOUS
10
0.4026433070866142
20
0.3814024015748032
11
0.4007659842519685
21
0.3846703543307087
0
LINE
8
BLACK
6
CONTINUOUS
10
0.4007659842519685
20
0.3846703543307087
11
0.3995623622047244
21
0.3881465748031496
0
LINE
8
BLACK
6
CONTINUOUS
10
0.3995623622047244
20
0.3881465748031496
11
0.3990466535433071
21
0.3918031889763779
0
LINE
8
BLACK
6
CONTINUOUS
10
0.3990466535433071
20
0.3918031889763779
11
0.399068031496063
21
0.393992125984252
0
LINE
8
BLACK
6
CONTINUOUS
10
0.399068031496063
20
0.393992125984252
11
0.3992347244094488
21
0.3954009842519685
0
LINE
8
BLACK
6
CONTINUOUS
10
0.3992347244094488
20
0.3954009842519685
11
0.3995551181102362
21
0.3972094488188976
0
LINE
8
BLACK
6
CONTINUOUS
10
0.3995551181102362
20
0.3972094488188976
11
0.3999733464566929
21
0.3991636614173228
0
LINE
8
BLACK
6
CONTINUOUS
10
0.3999733464566929
20
0.3991636614173228
11
0.4004332677165354
21
0.4010100393700787
0
LINE
8
BLACK
6
CONTINUOUS
10
0.4004332677165354
20
0.4010100393700787
11
0.4008789763779527
21
0.4024948818897638
0
LINE
8
BLACK
6
CONTINUOUS
10
0.4008789763779527
20
0.4024948818897638
11
0.4010413385826772
21
0.4029322440944882
0
LINE
8
BLACK
6
CONTINUOUS
10
0.4010413385826772
20
0.4029322440944882
11
0.4014572440944882
21
0.4038779133858267
0
LINE
8
BLACK
6
CONTINUOUS
10
0.4014572440944882
20
0.4038779133858267
11
0.4020637007874016
21
0.4051688976377953
0
LINE
8
BLACK
6
CONTINUOUS
10
0.4020637007874016
20
0.4051688976377953
11
0.4026534645669291
21
0.4063723622047244
0
LINE
8
BLACK
6
CONTINUOUS
10
0.4026534645669291
20
0.4063723622047244
11
0.4047398031496063
21
0.4098158661417323
0
LINE
8
BLACK
6
CONTINUOUS
10
0.4047398031496063
20
0.4098158661417323
11
0.4072577559055118
21
0.4127143700787401
0
LINE
8
BLACK
6
CONTINUOUS
10
0.4072577559055118
20
0.4127143700787401
11
0.4101656692913386
21
0.4150379133858267
0
LINE
8
BLACK
6
CONTINUOUS
10
0.4101656692913386
20
0.4150379133858267
11
0.4134219291338583
21
0.4167563385826771
0
LINE
8
BLACK
6
CONTINUOUS
10
0.4134219291338583
20
0.4167563385826771
11
0.416984842519685
21
0.4178396850393701
0
LINE
8
BLACK
6
CONTINUOUS
10
0.416984842519685
20
0.4178396850393701
11
0.418952125984252
21
0.4181427165354331
0
LINE
8
BLACK
6
CONTINUOUS
10
0.418952125984252
20
0.4181427165354331
11
0.4204774803149606
21
0.4182707874015748
0
LINE
8
BLACK
6
CONTINUOUS
10
0.4204774803149606
20
0.4182707874015748
11
0.421966062992126
21
0.418313937007874
0
LINE
8
BLACK
6
CONTINUOUS
10
0.421966062992126
20
0.418313937007874
11
0.4234821259842519
21
0.4182553543307087
0
LINE
8
BLACK
6
CONTINUOUS
10
0.186226811023622
20
0.4641902755905511
11
0.1875052362204724
21
0.4629118503937008
0
LINE
8
BLACK
6
CONTINUOUS
10
0.1875052362204724
20
0.4629118503937008
11
0.1876795275590551
21
0.3933388582677165
0
LINE
8
BLACK
6
CONTINUOUS
10
0.1876795275590551
20
0.3933388582677165
11
0.2242992125984252
21
0.393503937007874
0
LINE
8
BLACK
6
CONTINUOUS
10
0.2242992125984252
20
0.393503937007874
11
0.2252031889763779
21
0.3933241338582677
0
LINE
8
BLACK
6
CONTINUOUS
10
0.2252031889763779
20
0.3933241338582677
11
0.2264816141732283
21
0.3920457086614173
0
LINE
8
BLACK
6
CONTINUOUS
10
0.2264816141732283
20
0.3920457086614173
11
0.2264816141732283
21
0.3902377559055118
0
LINE
8
BLACK
6
CONTINUOUS
10
0.2264816141732283
20
0.3902377559055118
11
0.2252031889763779
21
0.3889593307086614
0
LINE
8
BLACK
6
CONTINUOUS
10
0.2252031889763779
20
0.3889593307086614
11
0.1853228346456693
21
0.3887795275590551
0
LINE
8
BLACK
6
CONTINUOUS
10
0.1853228346456693
20
0.3887795275590551
11
0.1844188582677165
21
0.3889593307086614
0
LINE
8
BLACK
6
CONTINUOUS
10
0.1844188582677165
20
0.3889593307086614
11
0.1831404330708661
21
0.3902377559055118
0
LINE
8
BLACK
6
CONTINUOUS
10
0.1831404330708661
20
0.3902377559055118
11
0.1829661023622047
21
0.4598153937007874
0
LINE
8
BLACK
6
CONTINUOUS
10
0.1829661023622047
20
0.4598153937007874
11
0.1282362204724409
21
0.4596456692913386
0
LINE
8
BLACK
6
CONTINUOUS
10
0.1282362204724409
20
0.4596456692913386
11
0.1273322440944882
21
0.4598254724409448
0
LINE
8
BLACK
6
CONTINUOUS
10
0.1273322440944882
20
0.4598254724409448
11
0.1260538188976378
21
0.4611038976377952
0
LINE
8
BLACK
6
CONTINUOUS
10
0.1260538188976378
20
0.4611038976377952
11
0.1260538188976378
21
0.4629118503937008
0
LINE
8
BLACK
6
CONTINUOUS
10
0.1260538188976378
20
0.4629118503937008
11
0.1273322440944882
21
0.4641902755905511
0
LINE
8
BLACK
6
CONTINUOUS
10
0.1273322440944882
20
0.4641902755905511
11
0.1853228346456693
21
0.4643700787401575
0
LINE
8
BLACK
6
CONTINUOUS
10
0.1853228346456693
20
0.4643700787401575
11
0.186226811023622
21
0.4641902755905511
0
LINE
8
BLACK
6
CONTINUOUS
10
0.4841975196850394
20
0.4592414173228346
11
0.4806116141732283
21
0.4493892519685039
0
LINE
8
BLACK
6
CONTINUOUS
10
0.4806116141732283
20
0.4493892519685039
11
0.4592087007874016
21
0.4571793307086614
0
LINE
8
BLACK
6
CONTINUOUS
10
0.4592087007874016
20
0.4571793307086614
11
0.4503092519685039
21
0.4327284251968504
0
LINE
8
BLACK
6
CONTINUOUS
10
0.4503092519685039
20
0.4327284251968504
11
0.4608931102362205
21
0.4287745669291338
0
LINE
8
BLACK
6
CONTINUOUS
10
0.4608931102362205
20
0.4287745669291338
11
0.4714770472440945
21
0.4248206692913385
0
LINE
8
BLACK
6
CONTINUOUS
10
0.4714770472440945
20
0.4248206692913385
11
0.4697471259842519
21
0.4197753937007874
0
LINE
8
BLACK
6
CONTINUOUS
10
0.4697471259842519
20
0.4197753937007874
11
0.4680173228346456
21
0.4147301574803149
0
LINE
8
BLACK
6
CONTINUOUS
10
0.4680173228346456
20
0.4147301574803149
11
0.4139821259842519
21
0.4343974015748032
0
LINE
8
BLACK
6
CONTINUOUS
10
0.4139821259842519
20
0.4343974015748032
11
0.4176916535433071
21
0.4445892913385827
0
LINE
8
BLACK
6
CONTINUOUS
10
0.4176916535433071
20
0.4445892913385827
11
0.4407932677165354
21
0.4361809842519685
0
LINE
8
BLACK
6
CONTINUOUS
10
0.4407932677165354
20
0.4361809842519685
11
0.4496961811023622
21
0.4606415748031496
0
LINE
8
BLACK
6
CONTINUOUS
10
0.4496961811023622
20
0.4606415748031496
11
0.4265945669291338
21
0.4690498031496063
0
LINE
8
BLACK
6
CONTINUOUS
10
0.4265945669291338
20
0.4690498031496063
11
0.4301805118110236
21
0.4789020078740157
0
LINE
8
BLACK
6
CONTINUOUS
10
0.4301805118110236
20
0.4789020078740157
11
0.4841975196850394
21
0.4592414173228346
0
LINE
8
BLACK
6
CONTINUOUS
10
0.2307185433070866
20
0.4722868503937008
11
0.2308492519685039
21
0.4722327165354331
0
LINE
8
BLACK
6
CONTINUOUS
10
0.2308492519685039
20
0.4722327165354331
11
0.2309903543307087
21
0.4722226771653543
0
LINE
8
BLACK
6
CONTINUOUS
10
0.2309903543307087
20
0.4722226771653543
11
0.2316862992125984
21
0.4718859842519685
0
LINE
8
BLACK
6
CONTINUOUS
10
0.2316862992125984
20
0.4718859842519685
11
0.2321377559055118
21
0.4716989763779528
0
LINE
8
BLACK
6
CONTINUOUS
10
0.2321377559055118
20
0.4716989763779528
11
0.2321985826771653
21
0.4716381496062992
0
LINE
8
BLACK
6
CONTINUOUS
10
0.2321985826771653
20
0.4716381496062992
11
0.2362106299212598
21
0.469697125984252
0
LINE
8
BLACK
6
CONTINUOUS
10
0.2362106299212598
20
0.469697125984252
11
0.2365412598425197
21
0.4694890157480315
0
LINE
8
BLACK
6
CONTINUOUS
10
0.2365412598425197
20
0.4694890157480315
11
0.2366372047244094
21
0.4694492519685039
0
LINE
8
BLACK
6
CONTINUOUS
10
0.2366372047244094
20
0.4694492519685039
11
0.2366991732283464
21
0.4693896062992126
0
LINE
8
BLACK
6
CONTINUOUS
10
0.2366991732283464
20
0.4693896062992126
11
0.236863779527559
21
0.4692859842519685
0
LINE
8
BLACK
6
CONTINUOUS
10
0.236863779527559
20
0.4692859842519685
11
0.2371511417322835
21
0.4689546062992126
0
LINE
8
BLACK
6
CONTINUOUS
10
0.2371511417322835
20
0.4689546062992126
11
0.2394835039370079
21
0.4667099212598425
0
LINE
8
BLACK
6
CONTINUOUS
10
0.2394835039370079
20
0.4667099212598425
11
0.2397312204724409
21
0.4664081102362205
0
LINE
8
BLACK
6
CONTINUOUS
10
0.2397312204724409
20
0.4664081102362205
11
0.2398098818897638
21
0.4663398818897638
0
LINE
8
BLACK
6
CONTINUOUS
10
0.2398098818897638
20
0.4663398818897638
11
0.2398483070866142
21
0.4662654330708662
0
LINE
8
BLACK
6
CONTINUOUS
10
0.2398483070866142
20
0.4662654330708662
11
0.2399731496062992
21
0.4661133464566929
0
LINE
8
BLACK
6
CONTINUOUS
10
0.2399731496062992
20
0.4661133464566929
11
0.2401606299212598
21
0.4656606299212598
0
LINE
8
BLACK
6
CONTINUOUS
10
0.2401606299212598
20
0.4656606299212598
11
0.2424707480314961
21
0.4611872834645669
0
LINE
8
BLACK
6
CONTINUOUS
10
0.2424707480314961
20
0.4611872834645669
11
0.2427465748031496
21
0.4604664960629921
0
LINE
8
BLACK
6
CONTINUOUS
10
0.2427465748031496
20
0.4604664960629921
11
0.2427565748031496
21
0.4603254330708662
0
LINE
8
BLACK
6
CONTINUOUS
10
0.2427565748031496
20
0.4603254330708662
11
0.242810748031496
21
0.4601946850393701
0
LINE
8
BLACK
6
CONTINUOUS
10
0.242810748031496
20
0.4601946850393701
11
0.2428134251968504
21
0.4595255905511811
0
LINE
8
BLACK
6
CONTINUOUS
10
0.2428134251968504
20
0.4595255905511811
11
0.2428554724409449
21
0.4589342125984252
0
LINE
8
BLACK
6
CONTINUOUS
10
0.2428554724409449
20
0.4589342125984252
11
0.2428162992125984
21
0.4588167322834645
0
LINE
8
BLACK
6
CONTINUOUS
10
0.2428162992125984
20
0.4588167322834645
11
0.2428705905511811
21
0.4453366141732283
0
LINE
8
BLACK
6
CONTINUOUS
10
0.2428705905511811
20
0.4453366141732283
11
0.2614465354330708
21
0.4453658661417323
0
LINE
8
BLACK
6
CONTINUOUS
10
0.2614465354330708
20
0.4453658661417323
11
0.2622146062992126
21
0.4452902362204724
0
LINE
8
BLACK
6
CONTINUOUS
10
0.2622146062992126
20
0.4452902362204724
11
0.2636338188976378
21
0.4447023622047244
0
LINE
8
BLACK
6
CONTINUOUS
10
0.2636338188976378
20
0.4447023622047244
11
0.2647200393700787
21
0.4436161417322835
0
LINE
8
BLACK
6
CONTINUOUS
10
0.2647200393700787
20
0.4436161417322835
11
0.2653079133858268
21
0.4421969291338583
0
LINE
8
BLACK
6
CONTINUOUS
10
0.2653079133858268
20
0.4421969291338583
11
0.2653079133858268
21
0.4406607874015748
0
LINE
8
BLACK
6
CONTINUOUS
10
0.2653079133858268
20
0.4406607874015748
11
0.2647200393700787
21
0.4392415748031496
0
LINE
8
BLACK
6
CONTINUOUS
10
0.2647200393700787
20
0.4392415748031496
11
0.2636338188976378
21
0.4381553543307086
0
LINE
8
BLACK
6
CONTINUOUS
10
0.2636338188976378
20
0.4381553543307086
11
0.2622146062992126
21
0.4375674803149606
0
LINE
8
BLACK
6
CONTINUOUS
10
0.2622146062992126
20
0.4375674803149606
11
0.2142024409448819
21
0.4374918503937008
0
LINE
8
BLACK
6
CONTINUOUS
10
0.2142024409448819
20
0.4374918503937008
11
0.2134343700787402
21
0.4375674803149606
0
LINE
8
BLACK
6
CONTINUOUS
10
0.2134343700787402
20
0.4375674803149606
11
0.212015157480315
21
0.4381553543307086
0
LINE
8
BLACK
6
CONTINUOUS
10
0.212015157480315
20
0.4381553543307086
11
0.210928937007874
21
0.4392415748031496
0
LINE
8
BLACK
6
CONTINUOUS
10
0.210928937007874
20
0.4392415748031496
11
0.210341062992126
21
0.4406607874015748
0
LINE
8
BLACK
6
CONTINUOUS
10
0.210341062992126
20
0.4406607874015748
11
0.2102654330708661
21
0.4594266141732283
0
LINE
8
BLACK
6
CONTINUOUS
10
0.2102654330708661
20
0.4594266141732283
11
0.210341062992126
21
0.4601946850393701
0
LINE
8
BLACK
6
CONTINUOUS
10
0.210341062992126
20
0.4601946850393701
11
0.2103951968503937
21
0.4603254330708662
0
LINE
8
BLACK
6
CONTINUOUS
10
0.2103951968503937
20
0.4603254330708662
11
0.2104052362204724
21
0.4604664960629921
0
LINE
8
BLACK
6
CONTINUOUS
10
0.2104052362204724
20
0.4604664960629921
11
0.2107418503937008
21
0.4611623622047244
0
LINE
8
BLACK
6
CONTINUOUS
10
0.2107418503937008
20
0.4611623622047244
11
0.210928937007874
21
0.4616138976377953
0
LINE
8
BLACK
6
CONTINUOUS
10
0.210928937007874
20
0.4616138976377953
11
0.2109898031496063
21
0.4616748031496063
0
LINE
8
BLACK
6
CONTINUOUS
10
0.2109898031496063
20
0.4616748031496063
11
0.2129308267716535
21
0.4656867322834646
0
LINE
8
BLACK
6
CONTINUOUS
10
0.2129308267716535
20
0.4656867322834646
11
0.2131388582677165
21
0.4660173228346456
0
LINE
8
BLACK
6
CONTINUOUS
10
0.2131388582677165
20
0.4660173228346456
11
0.2131786614173228
21
0.4661133070866141
0
LINE
8
BLACK
6
CONTINUOUS
10
0.2131786614173228
20
0.4661133070866141
11
0.2132383464566929
21
0.4661753543307087
0
LINE
8
BLACK
6
CONTINUOUS
10
0.2132383464566929
20
0.4661753543307087
11
0.2133419291338583
21
0.4663398818897638
0
LINE
8
BLACK
6
CONTINUOUS
10
0.2133419291338583
20
0.4663398818897638
11
0.2136733464566929
21
0.4666273622047244
0
LINE
8
BLACK
6
CONTINUOUS
10
0.2136733464566929
20
0.4666273622047244
11
0.2159179921259843
21
0.4689596062992126
0
LINE
8
BLACK
6
CONTINUOUS
10
0.2159179921259843
20
0.4689596062992126
11
0.2162198031496063
21
0.4692073622047244
0
LINE
8
BLACK
6
CONTINUOUS
10
0.2162198031496063
20
0.4692073622047244
11
0.216288031496063
21
0.4692859842519685
0
LINE
8
BLACK
6
CONTINUOUS
10
0.216288031496063
20
0.4692859842519685
11
0.2163624803149606
21
0.4693244488188976
0
LINE
8
BLACK
6
CONTINUOUS
10
0.2163624803149606
20
0.4693244488188976
11
0.2165145669291338
21
0.4694492519685039
0
LINE
8
BLACK
6
CONTINUOUS
10
0.2165145669291338
20
0.4694492519685039
11
0.2169673228346457
21
0.469636811023622
0
LINE
8
BLACK
6
CONTINUOUS
10
0.2169673228346457
20
0.469636811023622
11
0.2214406692913386
21
0.4719468503937008
0
LINE
8
BLACK
6
CONTINUOUS
10
0.2214406692913386
20
0.4719468503937008
11
0.2221614566929134
21
0.4722226771653543
0
LINE
8
BLACK
6
CONTINUOUS
10
0.2221614566929134
20
0.4722226771653543
11
0.2223025196850394
21
0.4722327165354331
0
LINE
8
BLACK
6
CONTINUOUS
10
0.2223025196850394
20
0.4722327165354331
11
0.2224332677165354
21
0.4722868503937008
0
LINE
8
BLACK
6
CONTINUOUS
10
0.2224332677165354
20
0.4722868503937008
11
0.2231685433070866
21
0.4722942519685039
0
LINE
8
BLACK
6
CONTINUOUS
10
0.2231685433070866
20
0.4722942519685039
11
0.2236937795275591
21
0.4723315748031496
0
LINE
8
BLACK
6
CONTINUOUS
10
0.2236937795275591
20
0.4723315748031496
11
0.2237870472440945
21
0.4723004724409449
0
LINE
8
BLACK
6
CONTINUOUS
10
0.2237870472440945
20
0.4723004724409449
11
0.2299504724409449
21
0.4723624803149606
0
LINE
8
BLACK
6
CONTINUOUS
10
0.2299504724409449
20
0.4723624803149606
11
0.2307185433070866
21
0.4722868503937008
0
LINE
8
BLACK
6
CONTINUOUS
10
0.2240303149606299
20
0.4644968110236221
11
0.2209176377952756
21
0.4628894094488189
0
LINE
8
BLACK
6
CONTINUOUS
10
0.2209176377952756
20
0.4628894094488189
11
0.219576968503937
21
0.4614964173228346
0
LINE
8
BLACK
6
CONTINUOUS
10
0.219576968503937
20
0.4614964173228346
11
0.2180711023622047
21
0.458383779527559
0
LINE
8
BLACK
6
CONTINUOUS
10
0.2180711023622047
20
0.458383779527559
11
0.2181238188976378
21
0.4452976377952756
0
LINE
8
BLACK
6
CONTINUOUS
10
0.2181238188976378
20
0.4452976377952756
11
0.2350691732283464
21
0.4453243307086614
0
LINE
8
BLACK
6
CONTINUOUS
10
0.2350691732283464
20
0.4453243307086614
11
0.2350156299212598
21
0.4586073622047244
0
LINE
8
BLACK
6
CONTINUOUS
10
0.2350156299212598
20
0.4586073622047244
11
0.2334132283464567
21
0.4617103149606299
0
LINE
8
BLACK
6
CONTINUOUS
10
0.2334132283464567
20
0.4617103149606299
11
0.2320202755905512
21
0.4630509448818897
0
LINE
8
BLACK
6
CONTINUOUS
10
0.2320202755905512
20
0.4630509448818897
11
0.2289297637795276
21
0.4645461023622047
0
LINE
8
BLACK
6
CONTINUOUS
10
0.2289297637795276
20
0.4645461023622047
11
0.2240303149606299
21
0.4644968110236221
0
LINE
8
BLACK
6
CONTINUOUS
10
0.4854739763779528
20
0.4934029921259843
11
0.4910382677165354
21
0.5086908267716536
0
LINE
8
BLACK
6
CONTINUOUS
10
0.4910382677165354
20
0.5086908267716536
11
0.5008904724409449
21
0.5051049212598425
0
LINE
8
BLACK
6
CONTINUOUS
10
0.5008904724409449
20
0.5051049212598425
11
0.4861759448818898
21
0.4646770866141732
0
LINE
8
BLACK
6
CONTINUOUS
10
0.4861759448818898
20
0.4646770866141732
11
0.4763237795275591
21
0.4682629921259843
0
LINE
8
BLACK
6
CONTINUOUS
10
0.4763237795275591
20
0.4682629921259843
11
0.4818880708661417
21
0.4835508267716535
0
LINE
8
BLACK
6
CONTINUOUS
10
0.4818880708661417
20
0.4835508267716535
11
0.4377232283464567
21
0.4996255511811024
0
LINE
8
BLACK
6
CONTINUOUS
10
0.4377232283464567
20
0.4996255511811024
11
0.4413090551181102
21
0.5094777165354331
0
LINE
8
BLACK
6
CONTINUOUS
10
0.4413090551181102
20
0.5094777165354331
11
0.4854739763779528
21
0.4934029921259843
0
LINE
8
BLACK
6
CONTINUOUS
10
0.2623584251968504
20
0.5172498031496063
11
0.2626219291338582
21
0.5171590157480315
0
LINE
8
BLACK
6
CONTINUOUS
10
0.2626219291338582
20
0.5171590157480315
11
0.2627164960629921
21
0.5171464173228346
0
LINE
8
BLACK
6
CONTINUOUS
10
0.2627164960629921
20
0.5171464173228346
11
0.262801968503937
21
0.5170969291338583
0
LINE
8
BLACK
6
CONTINUOUS
10
0.262801968503937
20
0.5170969291338583
11
0.2630881102362205
21
0.5169983070866142
0
LINE
8
BLACK
6
CONTINUOUS
10
0.2630881102362205
20
0.5169983070866142
11
0.2635512598425197
21
0.5166631496062992
0
LINE
8
BLACK
6
CONTINUOUS
10
0.2635512598425197
20
0.5166631496062992
11
0.2640459448818898
21
0.5163767322834646
0
LINE
8
BLACK
6
CONTINUOUS
10
0.2640459448818898
20
0.5163767322834646
11
0.2641687795275591
21
0.516216220472441
0
LINE
8
BLACK
6
CONTINUOUS
10
0.2641687795275591
20
0.516216220472441
11
0.2643325590551181
21
0.516097716535433
0
LINE
8
BLACK
6
CONTINUOUS
10
0.2643325590551181
20
0.516097716535433
11
0.2646320472440945
21
0.5156110236220472
0
LINE
8
BLACK
6
CONTINUOUS
10
0.2646320472440945
20
0.5156110236220472
11
0.2649796456692913
21
0.5151569291338582
0
LINE
8
BLACK
6
CONTINUOUS
10
0.2649796456692913
20
0.5151569291338582
11
0.2650317322834645
21
0.5149615354330709
0
LINE
8
BLACK
6
CONTINUOUS
10
0.2650317322834645
20
0.5149615354330709
11
0.2651376377952756
21
0.5147894488188977
0
LINE
8
BLACK
6
CONTINUOUS
10
0.2651376377952756
20
0.5147894488188977
11
0.2652281102362204
21
0.5142251181102362
0
LINE
8
BLACK
6
CONTINUOUS
10
0.2652281102362204
20
0.5142251181102362
11
0.2653754330708661
21
0.5136726377952756
0
LINE
8
BLACK
6
CONTINUOUS
10
0.2653754330708661
20
0.5136726377952756
11
0.265348779527559
21
0.5134723228346456
0
LINE
8
BLACK
6
CONTINUOUS
10
0.265348779527559
20
0.5134723228346456
11
0.2653808267716535
21
0.5132726377952755
0
LINE
8
BLACK
6
CONTINUOUS
10
0.2653808267716535
20
0.5132726377952755
11
0.2652483464566929
21
0.5127164173228347
0
LINE
8
BLACK
6
CONTINUOUS
10
0.2652483464566929
20
0.5127164173228347
11
0.2651731102362205
21
0.5121498818897637
0
LINE
8
BLACK
6
CONTINUOUS
10
0.2651731102362205
20
0.5121498818897637
11
0.265071811023622
21
0.5119749606299212
0
LINE
8
BLACK
6
CONTINUOUS
10
0.265071811023622
20
0.5119749606299212
11
0.265025
21
0.5117782677165355
0
LINE
8
BLACK
6
CONTINUOUS
10
0.265025
20
0.5117782677165355
11
0.2646898031496063
21
0.5113151181102362
0
LINE
8
BLACK
6
CONTINUOUS
10
0.2646898031496063
20
0.5113151181102362
11
0.2644034251968504
21
0.5108204330708661
0
LINE
8
BLACK
6
CONTINUOUS
10
0.2644034251968504
20
0.5108204330708661
11
0.264242874015748
21
0.5106975984251968
0
LINE
8
BLACK
6
CONTINUOUS
10
0.264242874015748
20
0.5106975984251968
11
0.2641244094488189
21
0.5105338188976378
0
LINE
8
BLACK
6
CONTINUOUS
10
0.2641244094488189
20
0.5105338188976378
11
0.2636376771653543
21
0.5102343307086614
0
LINE
8
BLACK
6
CONTINUOUS
10
0.2636376771653543
20
0.5102343307086614
11
0.2631836220472441
21
0.5098867322834646
0
LINE
8
BLACK
6
CONTINUOUS
10
0.2631836220472441
20
0.5098867322834646
11
0.2629868897637795
21
0.5098338582677165
0
LINE
8
BLACK
6
CONTINUOUS
10
0.2629868897637795
20
0.5098338582677165
11
0.2628161417322835
21
0.5097287401574803
0
LINE
8
BLACK
6
CONTINUOUS
10
0.2628161417322835
20
0.5097287401574803
11
0.2622713385826771
21
0.5096414173228346
0
LINE
8
BLACK
6
CONTINUOUS
10
0.2622713385826771
20
0.5096414173228346
11
0.242836811023622
21
0.5044147637795275
0
LINE
8
BLACK
6
CONTINUOUS
10
0.242836811023622
20
0.5044147637795275
11
0.2624609448818898
21
0.4992261417322835
0
LINE
8
BLACK
6
CONTINUOUS
10
0.2624609448818898
20
0.4992261417322835
11
0.2627218897637795
21
0.4991283070866142
0
LINE
8
BLACK
6
CONTINUOUS
10
0.2627218897637795
20
0.4991283070866142
11
0.2628161417322835
21
0.499113188976378
0
LINE
8
BLACK
6
CONTINUOUS
10
0.2628161417322835
20
0.499113188976378
11
0.2629001968503937
21
0.4990614566929134
0
LINE
8
BLACK
6
CONTINUOUS
10
0.2629001968503937
20
0.4990614566929134
11
0.2631836220472441
21
0.4989551968503937
0
LINE
8
BLACK
6
CONTINUOUS
10
0.2631836220472441
20
0.4989551968503937
11
0.2636376771653543
21
0.4986076377952756
0
LINE
8
BLACK
6
CONTINUOUS
10
0.2636376771653543
20
0.4986076377952756
11
0.2641244094488189
21
0.4983081102362205
0
LINE
8
BLACK
6
CONTINUOUS
10
0.2641244094488189
20
0.4983081102362205
11
0.264242874015748
21
0.4981443700787401
0
LINE
8
BLACK
6
CONTINUOUS
10
0.264242874015748
20
0.4981443700787401
11
0.2644034251968504
21
0.4980214960629921
0
LINE
8
BLACK
6
CONTINUOUS
10
0.2644034251968504
20
0.4980214960629921
11
0.2646898031496063
21
0.4975268503937008
0
LINE
8
BLACK
6
CONTINUOUS
10
0.2646898031496063
20
0.4975268503937008
11
0.265025
21
0.4970636614173228
0
LINE
8
BLACK
6
CONTINUOUS
10
0.265025
20
0.4970636614173228
11
0.265071811023622
21
0.4968670078740157
0
LINE
8
BLACK
6
CONTINUOUS
10
0.265071811023622
20
0.4968670078740157
11
0.2651731102362205
21
0.4966920472440945
0
LINE
8
BLACK
6
CONTINUOUS
10
0.2651731102362205
20
0.4966920472440945
11
0.2652483464566929
21
0.4961255511811024
0
LINE
8
BLACK
6
CONTINUOUS
10
0.2652483464566929
20
0.4961255511811024
11
0.2653808267716535
21
0.4955692913385827
0
LINE
8
BLACK
6
CONTINUOUS
10
0.2653808267716535
20
0.4955692913385827
11
0.265348779527559
21
0.4953696456692913
0
LINE
8
BLACK
6
CONTINUOUS
10
0.265348779527559
20
0.4953696456692913
11
0.2653754330708661
21
0.4951692913385827
0
LINE
8
BLACK
6
CONTINUOUS
10
0.2653754330708661
20
0.4951692913385827
11
0.2652281102362204
21
0.4946168503937008
0
LINE
8
BLACK
6
CONTINUOUS
10
0.2652281102362204
20
0.4946168503937008
11
0.2651376377952756
21
0.4940524803149606
0
LINE
8
BLACK
6
CONTINUOUS
10
0.2651376377952756
20
0.4940524803149606
11
0.2650317322834645
21
0.4938804330708662
0
LINE
8
BLACK
6
CONTINUOUS
10
0.2650317322834645
20
0.4938804330708662
11
0.2649796456692913
21
0.493685
0
LINE
8
BLACK
6
CONTINUOUS
10
0.2649796456692913
20
0.493685
11
0.2646320866141732
21
0.4932310236220472
0
LINE
8
BLACK
6
CONTINUOUS
10
0.2646320866141732
20
0.4932310236220472
11
0.2643325590551181
21
0.4927442125984252
0
LINE
8
BLACK
6
CONTINUOUS
10
0.2643325590551181
20
0.4927442125984252
11
0.2641687007874016
21
0.4926256692913386
0
LINE
8
BLACK
6
CONTINUOUS
10
0.2641687007874016
20
0.4926256692913386
11
0.264045905511811
21
0.4924651968503937
0
LINE
8
BLACK
6
CONTINUOUS
10
0.264045905511811
20
0.4924651968503937
11
0.2635513385826772
21
0.4921788976377953
0
LINE
8
BLACK
6
CONTINUOUS
10
0.2635513385826772
20
0.4921788976377953
11
0.2630881102362205
21
0.4918436220472441
0
LINE
8
BLACK
6
CONTINUOUS
10
0.2630881102362205
20
0.4918436220472441
11
0.2628904724409449
21
0.4917962598425197
0
LINE
8
BLACK
6
CONTINUOUS
10
0.2628904724409449
20
0.4917962598425197
11
0.2627164960629921
21
0.4916955118110236
0
LINE
8
BLACK
6
CONTINUOUS
10
0.2627164960629921
20
0.4916955118110236
11
0.2621640157480315
21
0.491622125984252
0
LINE
8
BLACK
6
CONTINUOUS
10
0.2621640157480315
20
0.491622125984252
11
0.2151143307086614
21
0.4803435433070866
0
LINE
8
BLACK
6
CONTINUOUS
10
0.2151143307086614
20
0.4803435433070866
11
0.2143496456692913
21
0.4802392125984252
0
LINE
8
BLACK
6
CONTINUOUS
10
0.2143496456692913
20
0.4802392125984252
11
0.2128328346456693
21
0.4804824015748032
0
LINE
8
BLACK
6
CONTINUOUS
10
0.2128328346456693
20
0.4804824015748032
11
0.2115245669291339
21
0.4812874803149606
0
LINE
8
BLACK
6
CONTINUOUS
10
0.2115245669291339
20
0.4812874803149606
11
0.2106239763779527
21
0.4825319291338583
0
LINE
8
BLACK
6
CONTINUOUS
10
0.2106239763779527
20
0.4825319291338583
11
0.2102681496062992
21
0.4840262992125984
0
LINE
8
BLACK
6
CONTINUOUS
10
0.2102681496062992
20
0.4840262992125984
11
0.2105113385826771
21
0.4855431102362205
0
LINE
8
BLACK
6
CONTINUOUS
10
0.2105113385826771
20
0.4855431102362205
11
0.2113164173228347
21
0.4868513779527559
0
LINE
8
BLACK
6
CONTINUOUS
10
0.2113164173228347
20
0.4868513779527559
11
0.2125608661417323
21
0.487751968503937
0
LINE
8
BLACK
6
CONTINUOUS
10
0.2125608661417323
20
0.487751968503937
11
0.2454892913385827
21
0.4956454724409449
0
LINE
8
BLACK
6
CONTINUOUS
10
0.2454892913385827
20
0.4956454724409449
11
0.2266863779527559
21
0.5006169291338582
0
LINE
8
BLACK
6
CONTINUOUS
10
0.2266863779527559
20
0.5006169291338582
11
0.2265063779527559
21
0.5006844094488189
0
LINE
8
BLACK
6
CONTINUOUS
10
0.2265063779527559
20
0.5006844094488189
11
0.2264308267716535
21
0.5006944488188976
0
LINE
8
BLACK
6
CONTINUOUS
10
0.2264308267716535
20
0.5006944488188976
11
0.2263411417322835
21
0.5007463779527559
0
LINE
8
BLACK
6
CONTINUOUS
10
0.2263411417322835
20
0.5007463779527559
11
0.2259637007874016
21
0.500887874015748
0
LINE
8
BLACK
6
CONTINUOUS
10
0.2259637007874016
20
0.500887874015748
11
0.2255508661417323
21
0.5012038976377953
0
LINE
8
BLACK
6
CONTINUOUS
10
0.2255508661417323
20
0.5012038976377953
11
0.2251013779527559
21
0.501464094488189
0
LINE
8
BLACK
6
CONTINUOUS
10
0.2251013779527559
20
0.501464094488189
11
0.2249463779527559
21
0.5016666141732283
0
LINE
8
BLACK
6
CONTINUOUS
10
0.2249463779527559
20
0.5016666141732283
11
0.2247438976377953
21
0.5018215748031496
0
LINE
8
BLACK
6
CONTINUOUS
10
0.2247438976377953
20
0.5018215748031496
11
0.2244835826771653
21
0.5022711811023622
0
LINE
8
BLACK
6
CONTINUOUS
10
0.2244835826771653
20
0.5022711811023622
11
0.2241676771653543
21
0.5026838976377953
0
LINE
8
BLACK
6
CONTINUOUS
10
0.2241676771653543
20
0.5026838976377953
11
0.2241019291338583
21
0.5029303937007874
0
LINE
8
BLACK
6
CONTINUOUS
10
0.2241019291338583
20
0.5029303937007874
11
0.2239742125984252
21
0.5031510236220472
0
LINE
8
BLACK
6
CONTINUOUS
10
0.2239742125984252
20
0.5031510236220472
11
0.2239057480314961
21
0.5036661023622047
0
LINE
8
BLACK
6
CONTINUOUS
10
0.2239057480314961
20
0.5036661023622047
11
0.2237718897637795
21
0.5041681889763779
0
LINE
8
BLACK
6
CONTINUOUS
10
0.2237718897637795
20
0.5041681889763779
11
0.2238054724409449
21
0.5044209842519685
0
LINE
8
BLACK
6
CONTINUOUS
10
0.2238054724409449
20
0.5044209842519685
11
0.2237718897637795
21
0.5046737795275591
0
LINE
8
BLACK
6
CONTINUOUS
10
0.2237718897637795
20
0.5046737795275591
11
0.2239058267716535
21
0.5051761023622047
0
LINE
8
BLACK
6
CONTINUOUS
10
0.2239058267716535
20
0.5051761023622047
11
0.2239742519685039
21
0.5056909448818897
0
LINE
8
BLACK
6
CONTINUOUS
10
0.2239742519685039
20
0.5056909448818897
11
0.2241018897637795
21
0.5059114960629921
0
LINE
8
BLACK
6
CONTINUOUS
10
0.2241018897637795
20
0.5059114960629921
11
0.2241676771653543
21
0.5061580708661417
0
LINE
8
BLACK
6
CONTINUOUS
10
0.2241676771653543
20
0.5061580708661417
11
0.2244836614173228
21
0.5065709055118111
0
LINE
8
BLACK
6
CONTINUOUS
10
0.2244836614173228
20
0.5065709055118111
11
0.2247438976377953
21
0.5070203937007874
0
LINE
8
BLACK
6
CONTINUOUS
10
0.2247438976377953
20
0.5070203937007874
11
0.2249463779527559
21
0.5071753937007873
0
LINE
8
BLACK
6
CONTINUOUS
10
0.2249463779527559
20
0.5071753937007873
11
0.2251013779527559
21
0.507377874015748
0
LINE
8
BLACK
6
CONTINUOUS
10
0.2251013779527559
20
0.507377874015748
11
0.2255509448818898
21
0.5076381889763779
0
LINE
8
BLACK
6
CONTINUOUS
10
0.2255509448818898
20
0.5076381889763779
11
0.2259637007874016
21
0.507954094488189
0
LINE
8
BLACK
6
CONTINUOUS
10
0.2259637007874016
20
0.507954094488189
11
0.226211968503937
21
0.508020905511811
0
LINE
8
BLACK
6
CONTINUOUS
10
0.226211968503937
20
0.508020905511811
11
0.2264308267716535
21
0.5081475590551181
0
LINE
8
BLACK
6
CONTINUOUS
10
0.2264308267716535
20
0.5081475590551181
11
0.2269293307086614
21
0.5082138188976378
0
LINE
8
BLACK
6
CONTINUOUS
10
0.2269293307086614
20
0.5082138188976378
11
0.2455268503937008
21
0.5132153937007874
0
LINE
8
BLACK
6
CONTINUOUS
10
0.2455268503937008
20
0.5132153937007874
11
0.2132905511811024
21
0.5208384645669292
0
LINE
8
BLACK
6
CONTINUOUS
10
0.2132905511811024
20
0.5208384645669292
11
0.2125608661417323
21
0.5210899606299213
0
LINE
8
BLACK
6
CONTINUOUS
10
0.2125608661417323
20
0.5210899606299213
11
0.2113164173228347
21
0.5219905511811024
0
LINE
8
BLACK
6
CONTINUOUS
10
0.2113164173228347
20
0.5219905511811024
11
0.2105113385826771
21
0.5232988188976377
0
LINE
8
BLACK
6
CONTINUOUS
10
0.2105113385826771
20
0.5232988188976377
11
0.2102681496062992
21
0.5248156299212599
0
LINE
8
BLACK
6
CONTINUOUS
10
0.2102681496062992
20
0.5248156299212599
11
0.2106239763779527
21
0.5263099999999999
0
LINE
8
BLACK
6
CONTINUOUS
10
0.2106239763779527
20
0.5263099999999999
11
0.2115245669291339
21
0.5275544488188977
0
LINE
8
BLACK
6
CONTINUOUS
10
0.2115245669291339
20
0.5275544488188977
11
0.2128328346456693
21
0.5283595275590551
0
LINE
8
BLACK
6
CONTINUOUS
10
0.2128328346456693
20
0.5283595275590551
11
0.2143496456692913
21
0.528602716535433
0
LINE
8
BLACK
6
CONTINUOUS
10
0.2143496456692913
20
0.528602716535433
11
0.2623584251968504
21
0.5172498031496063
0
LINE
8
BLACK
6
CONTINUOUS
10
0.2307185433070866
20
0.5735242125984252
11
0.2308492519685039
21
0.5734700787401574
0
LINE
8
BLACK
6
CONTINUOUS
10
0.2308492519685039
20
0.5734700787401574
11
0.2309903543307087
21
0.5734600393700787
0
LINE
8
BLACK
6
CONTINUOUS
10
0.2309903543307087
20
0.5734600393700787
11
0.2316862992125984
21
0.5731233464566929
0
LINE
8
BLACK
6
CONTINUOUS
10
0.2316862992125984
20
0.5731233464566929
11
0.2321377559055118
21
0.5729363385826771
0
LINE
8
BLACK
6
CONTINUOUS
10
0.2321377559055118
20
0.5729363385826771
11
0.2321985826771653
21
0.5728755118110236
0
LINE
8
BLACK
6
CONTINUOUS
10
0.2321985826771653
20
0.5728755118110236
11
0.2362106299212598
21
0.5709344881889764
0
LINE
8
BLACK
6
CONTINUOUS
10
0.2362106299212598
20
0.5709344881889764
11
0.2365412598425197
21
0.5707263779527559
0
LINE
8
BLACK
6
CONTINUOUS
10
0.2365412598425197
20
0.5707263779527559
11
0.2366372047244094
21
0.5706866141732283
0
LINE
8
BLACK
6
CONTINUOUS
10
0.2366372047244094
20
0.5706866141732283
11
0.2366991732283464
21
0.570626968503937
0
LINE
8
BLACK
6
CONTINUOUS
10
0.2366991732283464
20
0.570626968503937
11
0.236863779527559
21
0.5705233464566929
0
LINE
8
BLACK
6
CONTINUOUS
10
0.236863779527559
20
0.5705233464566929
11
0.2371511417322835
21
0.5701919685039369
0
LINE
8
BLACK
6
CONTINUOUS
10
0.2371511417322835
20
0.5701919685039369
11
0.2394835039370079
21
0.5679472834645669
0
LINE
8
BLACK
6
CONTINUOUS
10
0.2394835039370079
20
0.5679472834645669
11
0.2397312204724409
21
0.5676454724409449
0
LINE
8
BLACK
6
CONTINUOUS
10
0.2397312204724409
20
0.5676454724409449
11
0.2398098818897638
21
0.5675772440944882
0
LINE
8
BLACK
6
CONTINUOUS
10
0.2398098818897638
20
0.5675772440944882
11
0.2398483070866142
21
0.5675027952755906
0
LINE
8
BLACK
6
CONTINUOUS
10
0.2398483070866142
20
0.5675027952755906
11
0.2399731496062992
21
0.5673507086614173
0
LINE
8
BLACK
6
CONTINUOUS
10
0.2399731496062992
20
0.5673507086614173
11
0.2401606299212598
21
0.5668979921259842
0
LINE
8
BLACK
6
CONTINUOUS
10
0.2401606299212598
20
0.5668979921259842
11
0.2424707480314961
21
0.5624246456692913
0
LINE
8
BLACK
6
CONTINUOUS
10
0.2424707480314961
20
0.5624246456692913
11
0.2427465748031496
21
0.5617038582677165
0
LINE
8
BLACK
6
CONTINUOUS
10
0.2427465748031496
20
0.5617038582677165
11
0.2427565748031496
21
0.5615627952755905
0
LINE
8
BLACK
6
CONTINUOUS
10
0.2427565748031496
20
0.5615627952755905
11
0.242810748031496
21
0.5614320472440945
0
LINE
8
BLACK
6
CONTINUOUS
10
0.242810748031496
20
0.5614320472440945
11
0.2428110236220472
21
0.5613582283464567
0
LINE
8
BLACK
6
CONTINUOUS
10
0.2428110236220472
20
0.5613582283464567
11
0.2591888188976378
21
0.5728881496062992
0
LINE
8
BLACK
6
CONTINUOUS
10
0.2591888188976378
20
0.5728881496062992
11
0.2598614173228346
21
0.5732666535433071
0
LINE
8
BLACK
6
CONTINUOUS
10
0.2598614173228346
20
0.5732666535433071
11
0.2613611811023622
21
0.573598937007874
0
LINE
8
BLACK
6
CONTINUOUS
10
0.2613611811023622
20
0.573598937007874
11
0.2628739763779527
21
0.573331968503937
0
LINE
8
BLACK
6
CONTINUOUS
10
0.2628739763779527
20
0.573331968503937
11
0.2641694488188976
21
0.5725064173228346
0
LINE
8
BLACK
6
CONTINUOUS
10
0.2641694488188976
20
0.5725064173228346
11
0.2650503543307087
21
0.5712479527559055
0
LINE
8
BLACK
6
CONTINUOUS
10
0.2650503543307087
20
0.5712479527559055
11
0.2653826377952756
21
0.5697481889763779
0
LINE
8
BLACK
6
CONTINUOUS
10
0.2653826377952756
20
0.5697481889763779
11
0.2651156692913386
21
0.5682353937007874
0
LINE
8
BLACK
6
CONTINUOUS
10
0.2651156692913386
20
0.5682353937007874
11
0.2642901181102362
21
0.5669399212598425
0
LINE
8
BLACK
6
CONTINUOUS
10
0.2642901181102362
20
0.5669399212598425
11
0.2428493700787402
21
0.5518456692913386
0
LINE
8
BLACK
6
CONTINUOUS
10
0.2428493700787402
20
0.5518456692913386
11
0.2428705905511811
21
0.5465739763779528
0
LINE
8
BLACK
6
CONTINUOUS
10
0.2428705905511811
20
0.5465739763779528
11
0.2614465354330708
21
0.5466032283464567
0
LINE
8
BLACK
6
CONTINUOUS
10
0.2614465354330708
20
0.5466032283464567
11
0.2622146062992126
21
0.5465275984251968
0
LINE
8
BLACK
6
CONTINUOUS
10
0.2622146062992126
20
0.5465275984251968
11
0.2636338188976378
21
0.5459397244094488
0
LINE
8
BLACK
6
CONTINUOUS
10
0.2636338188976378
20
0.5459397244094488
11
0.2647200393700787
21
0.5448535039370078
0
LINE
8
BLACK
6
CONTINUOUS
10
0.2647200393700787
20
0.5448535039370078
11
0.2653079133858268
21
0.5434342913385827
0
LINE
8
BLACK
6
CONTINUOUS
10
0.2653079133858268
20
0.5434342913385827
11
0.2653079133858268
21
0.5418981496062992
0
LINE
8
BLACK
6
CONTINUOUS
10
0.2653079133858268
20
0.5418981496062992
11
0.2647200393700787
21
0.540478937007874
0
LINE
8
BLACK
6
CONTINUOUS
10
0.2647200393700787
20
0.540478937007874
11
0.2636338188976378
21
0.5393927165354331
0
LINE
8
BLACK
6
CONTINUOUS
10
0.2636338188976378
20
0.5393927165354331
11
0.2622146062992126
21
0.5388048425196851
0
LINE
8
BLACK
6
CONTINUOUS
10
0.2622146062992126
20
0.5388048425196851
11
0.2142024409448819
21
0.5387292125984252
0
LINE
8
BLACK
6
CONTINUOUS
10
0.2142024409448819
20
0.5387292125984252
11
0.2134343700787402
21
0.5388048425196851
0
LINE
8
BLACK
6
CONTINUOUS
10
0.2134343700787402
20
0.5388048425196851
11
0.212015157480315
21
0.5393927165354331
0
LINE
8
BLACK
6
CONTINUOUS
10
0.212015157480315
20
0.5393927165354331
11
0.210928937007874
21
0.540478937007874
0
LINE
8
BLACK
6
CONTINUOUS
10
0.210928937007874
20
0.540478937007874
11
0.210341062992126
21
0.5418981496062992
0
LINE
8
BLACK
6
CONTINUOUS
10
0.210341062992126
20
0.5418981496062992
11
0.2102654330708661
21
0.5606639763779527
0
LINE
8
BLACK
6
CONTINUOUS
10
0.2102654330708661
20
0.5606639763779527
11
0.210341062992126
21
0.5614320472440945
0
LINE
8
BLACK
6
CONTINUOUS
10
0.210341062992126
20
0.5614320472440945
11
0.2103951968503937
21
0.5615627952755905
0
LINE
8
BLACK
6
CONTINUOUS
10
0.2103951968503937
20
0.5615627952755905
11
0.2104052362204724
21
0.5617038582677165
0
LINE
8
BLACK
6
CONTINUOUS
10
0.2104052362204724
20
0.5617038582677165
11
0.2107418503937008
21
0.5623997244094489
0
LINE
8
BLACK
6
CONTINUOUS
10
0.2107418503937008
20
0.5623997244094489
11
0.210928937007874
21
0.5628512598425197
0
LINE
8
BLACK
6
CONTINUOUS
10
0.210928937007874
20
0.5628512598425197
11
0.2109898031496063
21
0.5629121653543308
0
LINE
8
BLACK
6
CONTINUOUS
10
0.2109898031496063
20
0.5629121653543308
11
0.2129308267716535
21
0.5669240944881889
0
LINE
8
BLACK
6
CONTINUOUS
10
0.2129308267716535
20
0.5669240944881889
11
0.2131388582677165
21
0.56725468503937
0
LINE
8
BLACK
6
CONTINUOUS
10
0.2131388582677165
20
0.56725468503937
11
0.2131786614173228
21
0.5673506692913386
0
LINE
8
BLACK
6
CONTINUOUS
10
0.2131786614173228
20
0.5673506692913386
11
0.2132383464566929
21
0.567412716535433
0
LINE
8
BLACK
6
CONTINUOUS
10
0.2132383464566929
20
0.567412716535433
11
0.2133419291338583
21
0.5675772440944882
0
LINE
8
BLACK
6
CONTINUOUS
10
0.2133419291338583
20
0.5675772440944882
11
0.2136733464566929
21
0.5678647244094488
0
LINE
8
BLACK
6
CONTINUOUS
10
0.2136733464566929
20
0.5678647244094488
11
0.2159179921259843
21
0.570196968503937
0
LINE
8
BLACK
6
CONTINUOUS
10
0.2159179921259843
20
0.570196968503937
11
0.2162198031496063
21
0.5704447244094488
0
LINE
8
BLACK
6
CONTINUOUS
10
0.2162198031496063
20
0.5704447244094488
11
0.216288031496063
21
0.5705233464566929
0
LINE
8
BLACK
6
CONTINUOUS
10
0.216288031496063
20
0.5705233464566929
11
0.2163624803149606
21
0.570561811023622
0
LINE
8
BLACK
6
CONTINUOUS
10
0.2163624803149606
20
0.570561811023622
11
0.2165145669291338
21
0.5706866141732283
0
LINE
8
BLACK
6
CONTINUOUS
10
0.2165145669291338
20
0.5706866141732283
11
0.2169673228346457
21
0.5708741732283464
0
LINE
8
BLACK
6
CONTINUOUS
10
0.2169673228346457
20
0.5708741732283464
11
0.2214406692913386
21
0.5731842125984252
0
LINE
8
BLACK
6
CONTINUOUS
10
0.2214406692913386
20
0.5731842125984252
11
0.2221614566929134
21
0.5734600393700787
0
LINE
8
BLACK
6
CONTINUOUS
10
0.2221614566929134
20
0.5734600393700787
11
0.2223025196850394
21
0.5734700787401574
0
LINE
8
BLACK
6
CONTINUOUS
10
0.2223025196850394
20
0.5734700787401574
11
0.2224332677165354
21
0.5735242125984252
0
LINE
8
BLACK
6
CONTINUOUS
10
0.2224332677165354
20
0.5735242125984252
11
0.2231685433070866
21
0.5735316141732283
0
LINE
8
BLACK
6
CONTINUOUS
10
0.2231685433070866
20
0.5735316141732283
11
0.2236937795275591
21
0.573568937007874
0
LINE
8
BLACK
6
CONTINUOUS
10
0.2236937795275591
20
0.573568937007874
11
0.2237870472440945
21
0.5735378346456693
0
LINE
8
BLACK
6
CONTINUOUS
10
0.2237870472440945
20
0.5735378346456693
11
0.2299504724409449
21
0.573599842519685
0
LINE
8
BLACK
6
CONTINUOUS
10
0.2299504724409449
20
0.573599842519685
11
0.2307185433070866
21
0.5735242125984252
0
LINE
8
BLACK
6
CONTINUOUS
10
0.2240303149606299
20
0.5657341732283464
11
0.2209176377952756
21
0.5641267716535433
0
LINE
8
BLACK
6
CONTINUOUS
10
0.2209176377952756
20
0.5641267716535433
11
0.219576968503937
21
0.5627337795275591
0
LINE
8
BLACK
6
CONTINUOUS
10
0.219576968503937
20
0.5627337795275591
11
0.2180711023622047
21
0.5596211417322835
0
LINE
8
BLACK
6
CONTINUOUS
10
0.2180711023622047
20
0.5596211417322835
11
0.2181238188976378
21
0.546535
0
LINE
8
BLACK
6
CONTINUOUS
10
0.2181238188976378
20
0.546535
11
0.2350691732283464
21
0.5465616929133859
0
LINE
8
BLACK
6
CONTINUOUS
10
0.2350691732283464
20
0.5465616929133859
11
0.2350403937007874
21
0.5537070078740157
0
LINE
8
BLACK
6
CONTINUOUS
10
0.2350403937007874
20
0.5537070078740157
11
0.2350132677165354
21
0.5538294488188976
0
LINE
8
BLACK
6
CONTINUOUS
10
0.2350132677165354
20
0.5538294488188976
11
0.2350392913385827
21
0.5539770472440945
0
LINE
8
BLACK
6
CONTINUOUS
10
0.2350392913385827
20
0.5539770472440945
11
0.2350156299212598
21
0.5598447244094488
0
LINE
8
BLACK
6
CONTINUOUS
10
0.2350156299212598
20
0.5598447244094488
11
0.2334132283464567
21
0.5629476771653543
0
LINE
8
BLACK
6
CONTINUOUS
10
0.2334132283464567
20
0.5629476771653543
11
0.2320202755905512
21
0.5642883070866141
0
LINE
8
BLACK
6
CONTINUOUS
10
0.2320202755905512
20
0.5642883070866141
11
0.2289297637795276
21
0.5657834645669291
0
LINE
8
BLACK
6
CONTINUOUS
10
0.2289297637795276
20
0.5657834645669291
11
0.2240303149606299
21
0.5657341732283464
0
CIRCLE
8
BLACK
10
0.4921259842519685
20
0.5905511811023622
40
0.0068897637795276
0
CIRCLE
8
BLACK
10
0.4921259842519685
20
0.
40
0.0068897637795276
0
CIRCLE
8
BLACK
10
0.0984251968503937
20
0.5905511811023622
40
0.0068897637795276
0
CIRCLE
8
BLACK
10
0.8858267716535433
20
0.
40
0.0068897637795276
0
CIRCLE
8
BLACK
10
0.8858267716535433
20
0.5905511811023622
40
0.0068897637795276
0
CIRCLE
8
BLACK
10
0.0984251968503937
20
0.
40
0.0068897637795276
  0
ENDSEC
  0
EOF
