  0
SECTION
  2
HEADER
  9
$ANGBASE
  50
0.0
  9
$ANGDIR
  70
1
  9
$MEASUREMENT
  70
0
  0
ENDSEC
  0
SECTION
  2
TABLES
  0
TABLE
  2
LTYPE
  70
4
  0
LTYPE
  5
40F
  2
CONTINUOUS
  70
0
  3
Solid line
  72
65
  73
0
  40
0.0
  0
LTYPE
  5
410
  2
DASHDOT
 70
0
  3
Dash Dot ____ _ ____ _
 72
65
 73
4
 40
2.0
 49
1.25
 49
-0.25
 49
0.25
 49
-0.25
  0
LTYPE
  5
411
  2
DASHED
 70
0
  3
Dashed __ __ __ __ __
 72
65
 73
2
 40
0.75
 49
0.5
 49
-0.25
  0
LTYPE
  5
43B
  2
DOTTED
 70
0
  3
Dotted .  .  .  .
 72
65
 73
2
 40
0.2
 49
0.0
 49
-0.2
  0
ENDTAB
  0
TABLE
  2
STYLE
  70
4
  0
STYLE
  2
KICAD
  70
0
  40
0
  41
1
  42
1
  50
0
  71
0
  3
isocp.shx
  0
STYLE
  2
KICADB
  70
0
  40
0
  41
1
  42
1
  50
0
  71
0
  3
isocp.shx
  0
STYLE
  2
KICADI
  70
0
  40
0
  41
1
  42
1
  50
15
  71
0
  3
isocp.shx
  0
STYLE
  2
KICADBI
  70
0
  40
0
  41
1
  42
1
  50
15
  71
0
  3
isocp.shx
  0
ENDTAB
  0
TABLE
  2
LAYER
  70
1
  0
LAYER
  2
BLACK
  70
0
  62
7
  6
CONTINUOUS
  0
ENDTAB
  0
ENDSEC
  0
SECTION
  2
ENTITIES
0
LINE
8
BLACK
6
CONTINUOUS
10
1.346517874015748
20
0.5923698425196851
11
1.3475832283464566
21
0.5913044881889764
0
LINE
8
BLACK
6
CONTINUOUS
10
1.3475832283464566
20
0.5913044881889764
11
1.3475832283464566
21
0.589797874015748
0
LINE
8
BLACK
6
CONTINUOUS
10
1.3475832283464566
20
0.589797874015748
11
1.346517874015748
21
0.5887325196850394
0
LINE
8
BLACK
6
CONTINUOUS
10
1.346517874015748
20
0.5887325196850394
11
1.3256979133858267
21
0.5887111417322834
0
LINE
8
BLACK
6
CONTINUOUS
10
1.3256979133858267
20
0.5887111417322834
11
1.3475106692913386
21
0.5471096062992126
0
LINE
8
BLACK
6
CONTINUOUS
10
1.3475106692913386
20
0.5471096062992126
11
1.3477256299212599
21
0.5463722047244094
0
LINE
8
BLACK
6
CONTINUOUS
10
1.3477256299212599
20
0.5463722047244094
11
1.347272559055118
21
0.5449353149606299
0
LINE
8
BLACK
6
CONTINUOUS
10
1.347272559055118
20
0.5449353149606299
11
1.3459361811023622
21
0.5442396456692913
0
LINE
8
BLACK
6
CONTINUOUS
10
1.3459361811023622
20
0.5442396456692913
11
1.344499251968504
21
0.5446926771653543
0
LINE
8
BLACK
6
CONTINUOUS
10
1.344499251968504
20
0.5446926771653543
11
1.3244979527559055
21
0.5828394094488188
0
LINE
8
BLACK
6
CONTINUOUS
10
1.3244979527559055
20
0.5828394094488188
11
1.3246436614173227
21
0.007771062992126
0
LINE
8
BLACK
6
CONTINUOUS
10
1.3246436614173227
20
0.007771062992126
11
1.3440185039370078
21
0.0452594881889764
0
LINE
8
BLACK
6
CONTINUOUS
10
1.3440185039370078
20
0.0452594881889764
11
1.344499251968504
21
0.0458585039370079
0
LINE
8
BLACK
6
CONTINUOUS
10
1.344499251968504
20
0.0458585039370079
11
1.3459361811023622
21
0.0463115354330709
0
LINE
8
BLACK
6
CONTINUOUS
10
1.3459361811023622
20
0.0463115354330709
11
1.347272559055118
21
0.0456158661417323
0
LINE
8
BLACK
6
CONTINUOUS
10
1.347272559055118
20
0.0456158661417323
11
1.3477256299212599
21
0.0441789763779528
0
LINE
8
BLACK
6
CONTINUOUS
10
1.3477256299212599
20
0.0441789763779528
11
1.3258998031496063
21
0.0019481102362205
0
LINE
8
BLACK
6
CONTINUOUS
10
1.3258998031496063
20
0.0019481102362205
11
1.3457645669291338
21
0.0019685039370079
0
LINE
8
BLACK
6
CONTINUOUS
10
1.3457645669291338
20
0.0019685039370079
11
1.346517874015748
21
0.0018186614173228
0
LINE
8
BLACK
6
CONTINUOUS
10
1.346517874015748
20
0.0018186614173228
11
1.3475832283464566
21
0.0007533070866142
0
LINE
8
BLACK
6
CONTINUOUS
10
1.3475832283464566
20
0.0007533070866142
11
1.3475832283464566
21
-0.0007533070866142
0
LINE
8
BLACK
6
CONTINUOUS
10
1.3475832283464566
20
-0.0007533070866142
11
1.346517874015748
21
-0.0018186614173228
0
LINE
8
BLACK
6
CONTINUOUS
10
1.346517874015748
20
-0.0018186614173228
11
1.3230758267716536
21
-0.0018427559055118
0
LINE
8
BLACK
6
CONTINUOUS
10
1.3230758267716536
20
-0.0018427559055118
11
1.3228487401574802
21
-0.0019609842519685
0
LINE
8
BLACK
6
CONTINUOUS
10
1.3228487401574802
20
-0.0019609842519685
11
1.3226772047244095
21
-0.0019068897637795
0
LINE
8
BLACK
6
CONTINUOUS
10
1.3226772047244095
20
-0.0019068897637795
11
1.3225055905511811
21
-0.0019610236220472
0
LINE
8
BLACK
6
CONTINUOUS
10
1.3225055905511811
20
-0.0019610236220472
11
1.3222799999999999
21
-0.0018435826771654
0
LINE
8
BLACK
6
CONTINUOUS
10
1.3222799999999999
20
-0.0018435826771654
11
1.200787401574803
21
-0.0019685039370079
0
LINE
8
BLACK
6
CONTINUOUS
10
1.200787401574803
20
-0.0019685039370079
11
1.2000340944881889
21
-0.0018186614173228
0
LINE
8
BLACK
6
CONTINUOUS
10
1.2000340944881889
20
-0.0018186614173228
11
1.1989687401574802
21
-0.0007533070866142
0
LINE
8
BLACK
6
CONTINUOUS
10
1.1989687401574802
20
-0.0007533070866142
11
1.1989687401574802
21
0.0007533070866142
0
LINE
8
BLACK
6
CONTINUOUS
10
1.1989687401574802
20
0.0007533070866142
11
1.2000340944881889
21
0.0018186614173228
0
LINE
8
BLACK
6
CONTINUOUS
10
1.2000340944881889
20
0.0018186614173228
11
1.3196031102362205
21
0.0019416141732283
0
LINE
8
BLACK
6
CONTINUOUS
10
1.3196031102362205
20
0.0019416141732283
11
1.297843622047244
21
0.0434416141732283
0
LINE
8
BLACK
6
CONTINUOUS
10
1.297843622047244
20
0.0434416141732283
11
1.2976287007874014
21
0.0441789763779528
0
LINE
8
BLACK
6
CONTINUOUS
10
1.2976287007874014
20
0.0441789763779528
11
1.2980817716535433
21
0.0456158661417323
0
LINE
8
BLACK
6
CONTINUOUS
10
1.2980817716535433
20
0.0456158661417323
11
1.2994181496062991
21
0.0463115748031496
0
LINE
8
BLACK
6
CONTINUOUS
10
1.2994181496062991
20
0.0463115748031496
11
1.3008550393700786
21
0.0458585039370079
0
LINE
8
BLACK
6
CONTINUOUS
10
1.3008550393700786
20
0.0458585039370079
11
1.320856338582677
21
0.0077117716535433
0
LINE
8
BLACK
6
CONTINUOUS
10
1.320856338582677
20
0.0077117716535433
11
1.3207106299212599
21
0.582780157480315
0
LINE
8
BLACK
6
CONTINUOUS
10
1.3207106299212599
20
0.582780157480315
11
1.3013358267716535
21
0.5452916929133859
0
LINE
8
BLACK
6
CONTINUOUS
10
1.3013358267716535
20
0.5452916929133859
11
1.3008550393700786
21
0.5446926771653543
0
LINE
8
BLACK
6
CONTINUOUS
10
1.3008550393700786
20
0.5446926771653543
11
1.2994181496062991
21
0.5442396062992126
0
LINE
8
BLACK
6
CONTINUOUS
10
1.2994181496062991
20
0.5442396062992126
11
1.2980817716535433
21
0.5449353149606299
0
LINE
8
BLACK
6
CONTINUOUS
10
1.2980817716535433
20
0.5449353149606299
11
1.2976287007874014
21
0.5463722047244094
0
LINE
8
BLACK
6
CONTINUOUS
10
1.2976287007874014
20
0.5463722047244094
11
1.3195070078740156
21
0.5887047637795275
0
LINE
8
BLACK
6
CONTINUOUS
10
1.3195070078740156
20
0.5887047637795275
11
1.200787401574803
21
0.5885826771653543
0
LINE
8
BLACK
6
CONTINUOUS
10
1.200787401574803
20
0.5885826771653543
11
1.2000340944881889
21
0.5887325196850394
0
LINE
8
BLACK
6
CONTINUOUS
10
1.2000340944881889
20
0.5887325196850394
11
1.1989687401574802
21
0.589797874015748
0
LINE
8
BLACK
6
CONTINUOUS
10
1.1989687401574802
20
0.589797874015748
11
1.1989687401574802
21
0.5913044881889764
0
LINE
8
BLACK
6
CONTINUOUS
10
1.1989687401574802
20
0.5913044881889764
11
1.2000340944881889
21
0.5923698425196851
0
LINE
8
BLACK
6
CONTINUOUS
10
1.2000340944881889
20
0.5923698425196851
11
1.322473937007874
21
0.5924957480314961
0
LINE
8
BLACK
6
CONTINUOUS
10
1.322473937007874
20
0.5924957480314961
11
1.3225055905511811
21
0.5925122047244095
0
LINE
8
BLACK
6
CONTINUOUS
10
1.3225055905511811
20
0.5925122047244095
11
1.3225575196850394
21
0.5924958267716536
0
LINE
8
BLACK
6
CONTINUOUS
10
1.3225575196850394
20
0.5924958267716536
11
1.3227976771653542
21
0.5924961023622047
0
LINE
8
BLACK
6
CONTINUOUS
10
1.3227976771653542
20
0.5924961023622047
11
1.3228487401574802
21
0.5925121653543307
0
LINE
8
BLACK
6
CONTINUOUS
10
1.3228487401574802
20
0.5925121653543307
11
1.3228794881889763
21
0.5924961811023622
0
LINE
8
BLACK
6
CONTINUOUS
10
1.3228794881889763
20
0.5924961811023622
11
1.3457645669291338
21
0.59251968503937
0
LINE
8
BLACK
6
CONTINUOUS
10
1.3457645669291338
20
0.59251968503937
11
1.346517874015748
21
0.5923698425196851
0
LINE
8
BLACK
6
CONTINUOUS
10
1.2969483070866141
20
0.1946186220472441
11
1.2977629527559056
21
0.1938039763779527
0
LINE
8
BLACK
6
CONTINUOUS
10
1.2977629527559056
20
0.1938039763779527
11
1.2982038582677164
21
0.1927395669291339
0
LINE
8
BLACK
6
CONTINUOUS
10
1.2982038582677164
20
0.1927395669291339
11
1.298260590551181
21
0.1696663385826772
0
LINE
8
BLACK
6
CONTINUOUS
10
1.298260590551181
20
0.1696663385826772
11
1.2982038582677164
21
0.1690902755905512
0
LINE
8
BLACK
6
CONTINUOUS
10
1.2982038582677164
20
0.1690902755905512
11
1.2977629527559056
21
0.1680258661417323
0
LINE
8
BLACK
6
CONTINUOUS
10
1.2977629527559056
20
0.1680258661417323
11
1.2969483070866141
21
0.1672112204724409
0
LINE
8
BLACK
6
CONTINUOUS
10
1.2969483070866141
20
0.1672112204724409
11
1.2958838976377953
21
0.1667703149606299
0
LINE
8
BLACK
6
CONTINUOUS
10
1.2958838976377953
20
0.1667703149606299
11
1.2947317716535434
21
0.1667703149606299
0
LINE
8
BLACK
6
CONTINUOUS
10
1.2947317716535434
20
0.1667703149606299
11
1.2936673622047243
21
0.1672112204724409
0
LINE
8
BLACK
6
CONTINUOUS
10
1.2936673622047243
20
0.1672112204724409
11
1.2928527165354331
21
0.1680258661417323
0
LINE
8
BLACK
6
CONTINUOUS
10
1.2928527165354331
20
0.1680258661417323
11
1.292411811023622
21
0.1690902755905512
0
LINE
8
BLACK
6
CONTINUOUS
10
1.292411811023622
20
0.1690902755905512
11
1.2923898425196849
21
0.178013937007874
0
LINE
8
BLACK
6
CONTINUOUS
10
1.2923898425196849
20
0.178013937007874
11
1.2648802362204725
21
0.1779748818897638
0
LINE
8
BLACK
6
CONTINUOUS
10
1.2648802362204725
20
0.1779748818897638
11
1.2673994881889763
21
0.1755037795275591
0
LINE
8
BLACK
6
CONTINUOUS
10
1.2673994881889763
20
0.1755037795275591
11
1.26758531496063
21
0.1752774015748031
0
LINE
8
BLACK
6
CONTINUOUS
10
1.26758531496063
20
0.1752774015748031
11
1.2676442519685038
21
0.1752262598425197
0
LINE
8
BLACK
6
CONTINUOUS
10
1.2676442519685038
20
0.1752262598425197
11
1.2676728346456692
21
0.1751707480314961
0
LINE
8
BLACK
6
CONTINUOUS
10
1.2676728346456692
20
0.1751707480314961
11
1.2677667322834645
21
0.1750563385826772
0
LINE
8
BLACK
6
CONTINUOUS
10
1.2677667322834645
20
0.1750563385826772
11
1.2679104724409449
21
0.1747092913385827
0
LINE
8
BLACK
6
CONTINUOUS
10
1.2679104724409449
20
0.1747092913385827
11
1.2698273622047245
21
0.1709868503937008
0
LINE
8
BLACK
6
CONTINUOUS
10
1.2698273622047245
20
0.1709868503937008
11
1.2700342519685039
21
0.1704462598425197
0
LINE
8
BLACK
6
CONTINUOUS
10
1.2700342519685039
20
0.1704462598425197
11
1.270115905511811
21
0.1692970472440945
0
LINE
8
BLACK
6
CONTINUOUS
10
1.270115905511811
20
0.1692970472440945
11
1.2697515748031496
21
0.1682040551181102
0
LINE
8
BLACK
6
CONTINUOUS
10
1.2697515748031496
20
0.1682040551181102
11
1.2689967322834645
21
0.1673337007874016
0
LINE
8
BLACK
6
CONTINUOUS
10
1.2689967322834645
20
0.1673337007874016
11
1.2679662204724409
21
0.1668184251968504
0
LINE
8
BLACK
6
CONTINUOUS
10
1.2679662204724409
20
0.1668184251968504
11
1.2668170078740157
21
0.1667367716535433
0
LINE
8
BLACK
6
CONTINUOUS
10
1.2668170078740157
20
0.1667367716535433
11
1.2657240551181101
21
0.1671011023622047
0
LINE
8
BLACK
6
CONTINUOUS
10
1.2657240551181101
20
0.1671011023622047
11
1.2648536614173229
21
0.1678559448818898
0
LINE
8
BLACK
6
CONTINUOUS
10
1.2648536614173229
20
0.1678559448818898
11
1.2628299606299211
21
0.1717857874015748
0
LINE
8
BLACK
6
CONTINUOUS
10
1.2628299606299211
20
0.1717857874015748
11
1.2595091338582678
21
0.1750431496062992
0
LINE
8
BLACK
6
CONTINUOUS
10
1.2595091338582678
20
0.1750431496062992
11
1.254299842519685
21
0.1784580708661417
0
LINE
8
BLACK
6
CONTINUOUS
10
1.254299842519685
20
0.1784580708661417
11
1.2542981496062993
21
0.1784594488188976
0
LINE
8
BLACK
6
CONTINUOUS
10
1.2542981496062993
20
0.1784594488188976
11
1.2542972834645669
21
0.1784598031496063
0
LINE
8
BLACK
6
CONTINUOUS
10
1.2542972834645669
20
0.1784598031496063
11
1.2542952362204725
21
0.1784618503937008
0
LINE
8
BLACK
6
CONTINUOUS
10
1.2542952362204725
20
0.1784618503937008
11
1.2538520078740156
21
0.178824842519685
0
LINE
8
BLACK
6
CONTINUOUS
10
1.2538520078740156
20
0.178824842519685
11
1.2536893307086614
21
0.1790677559055118
0
LINE
8
BLACK
6
CONTINUOUS
10
1.2536893307086614
20
0.1790677559055118
11
1.2534826377952755
21
0.1792744488188976
0
LINE
8
BLACK
6
CONTINUOUS
10
1.2534826377952755
20
0.1792744488188976
11
1.2533718897637796
21
0.1795417716535433
0
LINE
8
BLACK
6
CONTINUOUS
10
1.2533718897637796
20
0.1795417716535433
11
1.2532109448818898
21
0.179782125984252
0
LINE
8
BLACK
6
CONTINUOUS
10
1.2532109448818898
20
0.179782125984252
11
1.2531535826771654
21
0.1800687795275591
0
LINE
8
BLACK
6
CONTINUOUS
10
1.2531535826771654
20
0.1800687795275591
11
1.2530417322834646
21
0.1803388582677165
0
LINE
8
BLACK
6
CONTINUOUS
10
1.2530417322834646
20
0.1803388582677165
11
1.2530417322834646
21
0.1806281889763779
0
LINE
8
BLACK
6
CONTINUOUS
10
1.2530417322834646
20
0.1806281889763779
11
1.252985
21
0.1809118110236221
0
LINE
8
BLACK
6
CONTINUOUS
10
1.252985
20
0.1809118110236221
11
1.2530417322834646
21
0.1811986220472441
0
LINE
8
BLACK
6
CONTINUOUS
10
1.2530417322834646
20
0.1811986220472441
11
1.2530417322834646
21
0.1814909842519685
0
LINE
8
BLACK
6
CONTINUOUS
10
1.2530417322834646
20
0.1814909842519685
11
1.2531524409448818
21
0.1817582677165354
0
LINE
8
BLACK
6
CONTINUOUS
10
1.2531524409448818
20
0.1817582677165354
11
1.2532085826771653
21
0.1820420472440945
0
LINE
8
BLACK
6
CONTINUOUS
10
1.2532085826771653
20
0.1820420472440945
11
1.253370748031496
21
0.1822853149606299
0
LINE
8
BLACK
6
CONTINUOUS
10
1.253370748031496
20
0.1822853149606299
11
1.2534826377952755
21
0.1825553937007874
0
LINE
8
BLACK
6
CONTINUOUS
10
1.2534826377952755
20
0.1825553937007874
11
1.2536871653543307
21
0.1827599606299213
0
LINE
8
BLACK
6
CONTINUOUS
10
1.2536871653543307
20
0.1827599606299213
11
1.2538476771653544
21
0.1830006692913386
0
LINE
8
BLACK
6
CONTINUOUS
10
1.2538476771653544
20
0.1830006692913386
11
1.2540905511811022
21
0.1831633464566929
0
LINE
8
BLACK
6
CONTINUOUS
10
1.2540905511811022
20
0.1831633464566929
11
1.2542972834645669
21
0.1833700393700787
0
LINE
8
BLACK
6
CONTINUOUS
10
1.2542972834645669
20
0.1833700393700787
11
1.2545645669291339
21
0.1834807874015748
0
LINE
8
BLACK
6
CONTINUOUS
10
1.2545645669291339
20
0.1834807874015748
11
1.2548049606299212
21
0.1836417322834646
0
LINE
8
BLACK
6
CONTINUOUS
10
1.2548049606299212
20
0.1836417322834646
11
1.2550915748031495
21
0.183699094488189
0
LINE
8
BLACK
6
CONTINUOUS
10
1.2550915748031495
20
0.183699094488189
11
1.2553616929133857
21
0.1838109448818898
0
LINE
8
BLACK
6
CONTINUOUS
10
1.2553616929133857
20
0.1838109448818898
11
1.255653031496063
21
0.1838113779527559
0
LINE
8
BLACK
6
CONTINUOUS
10
1.255653031496063
20
0.1838113779527559
11
1.2559346456692912
21
0.1838676771653543
0
LINE
8
BLACK
6
CONTINUOUS
10
1.2559346456692912
20
0.1838676771653543
11
1.2562152755905511
21
0.1838121653543307
0
LINE
8
BLACK
6
CONTINUOUS
10
1.2562152755905511
20
0.1838121653543307
11
1.2923754724409449
21
0.1838635433070866
0
LINE
8
BLACK
6
CONTINUOUS
10
1.2923754724409449
20
0.1838635433070866
11
1.2923550787401574
21
0.1921635039370079
0
LINE
8
BLACK
6
CONTINUOUS
10
1.2923550787401574
20
0.1921635039370079
11
1.292411811023622
21
0.1927395669291339
0
LINE
8
BLACK
6
CONTINUOUS
10
1.292411811023622
20
0.1927395669291339
11
1.2928527165354331
21
0.1938039763779527
0
LINE
8
BLACK
6
CONTINUOUS
10
1.2928527165354331
20
0.1938039763779527
11
1.2936673622047243
21
0.1946186220472441
0
LINE
8
BLACK
6
CONTINUOUS
10
1.2936673622047243
20
0.1946186220472441
11
1.2947317716535434
21
0.1950595275590551
0
LINE
8
BLACK
6
CONTINUOUS
10
1.2947317716535434
20
0.1950595275590551
11
1.2958838976377953
21
0.1950595275590551
0
LINE
8
BLACK
6
CONTINUOUS
10
1.2958838976377953
20
0.1950595275590551
11
1.2969483070866141
21
0.1946186220472441
0
LINE
8
BLACK
6
CONTINUOUS
10
1.2883848031496064
20
0.232554842519685
11
1.2884827952755906
21
0.2325142519685039
0
LINE
8
BLACK
6
CONTINUOUS
10
1.2884827952755906
20
0.2325142519685039
11
1.288588622047244
21
0.2325067322834646
0
LINE
8
BLACK
6
CONTINUOUS
10
1.288588622047244
20
0.2325067322834646
11
1.2891001574803149
21
0.2322585433070866
0
LINE
8
BLACK
6
CONTINUOUS
10
1.2891001574803149
20
0.2322585433070866
11
1.2894492125984252
21
0.232113937007874
0
LINE
8
BLACK
6
CONTINUOUS
10
1.2894492125984252
20
0.232113937007874
11
1.2894973228346456
21
0.2320658267716535
0
LINE
8
BLACK
6
CONTINUOUS
10
1.2894973228346456
20
0.2320658267716535
11
1.2928787795275589
21
0.2304250787401575
0
LINE
8
BLACK
6
CONTINUOUS
10
1.2928787795275589
20
0.2304250787401575
11
1.293126653543307
21
0.2302690551181102
0
LINE
8
BLACK
6
CONTINUOUS
10
1.293126653543307
20
0.2302690551181102
11
1.2931987007874015
21
0.2302392125984252
0
LINE
8
BLACK
6
CONTINUOUS
10
1.2931987007874015
20
0.2302392125984252
11
1.2932448031496062
21
0.2301946850393701
0
LINE
8
BLACK
6
CONTINUOUS
10
1.2932448031496062
20
0.2301946850393701
11
1.2933686614173228
21
0.2301167322834645
0
LINE
8
BLACK
6
CONTINUOUS
10
1.2933686614173228
20
0.2301167322834645
11
1.2935903543307086
21
0.2298611023622047
0
LINE
8
BLACK
6
CONTINUOUS
10
1.2935903543307086
20
0.2298611023622047
11
1.2955209448818896
21
0.2279972440944882
0
LINE
8
BLACK
6
CONTINUOUS
10
1.2955209448818896
20
0.2279972440944882
11
1.2957066929133858
21
0.227770905511811
0
LINE
8
BLACK
6
CONTINUOUS
10
1.2957066929133858
20
0.227770905511811
11
1.2957657480314961
21
0.2277196850393701
0
LINE
8
BLACK
6
CONTINUOUS
10
1.2957657480314961
20
0.2277196850393701
11
1.2957943700787402
21
0.2276640551181102
0
LINE
8
BLACK
6
CONTINUOUS
10
1.2957943700787402
20
0.2276640551181102
11
1.295888188976378
21
0.2275497637795275
0
LINE
8
BLACK
6
CONTINUOUS
10
1.295888188976378
20
0.2275497637795275
11
1.2960318503937007
21
0.2272029133858268
0
LINE
8
BLACK
6
CONTINUOUS
10
1.2960318503937007
20
0.2272029133858268
11
1.2979488582677166
21
0.2234802755905512
0
LINE
8
BLACK
6
CONTINUOUS
10
1.2979488582677166
20
0.2234802755905512
11
1.298155748031496
21
0.2229396850393701
0
LINE
8
BLACK
6
CONTINUOUS
10
1.298155748031496
20
0.2229396850393701
11
1.2981632677165353
21
0.2228338188976378
0
LINE
8
BLACK
6
CONTINUOUS
10
1.2981632677165353
20
0.2228338188976378
11
1.2982038582677164
21
0.2227358267716535
0
LINE
8
BLACK
6
CONTINUOUS
10
1.2982038582677164
20
0.2227358267716535
11
1.2982067716535433
21
0.2222212992125984
0
LINE
8
BLACK
6
CONTINUOUS
10
1.2982067716535433
20
0.2222212992125984
11
1.2982374015748031
21
0.2217904724409449
0
LINE
8
BLACK
6
CONTINUOUS
10
1.2982374015748031
20
0.2217904724409449
11
1.2982096850393701
21
0.2217074409448819
0
LINE
8
BLACK
6
CONTINUOUS
10
1.2982096850393701
20
0.2217074409448819
11
1.298260590551181
21
0.2127859448818898
0
LINE
8
BLACK
6
CONTINUOUS
10
1.298260590551181
20
0.2127859448818898
11
1.2982038582677164
21
0.2122098818897638
0
LINE
8
BLACK
6
CONTINUOUS
10
1.2982038582677164
20
0.2122098818897638
11
1.2981632677165353
21
0.2121119291338583
0
LINE
8
BLACK
6
CONTINUOUS
10
1.2981632677165353
20
0.2121119291338583
11
1.298155748031496
21
0.2120060236220472
0
LINE
8
BLACK
6
CONTINUOUS
10
1.298155748031496
20
0.2120060236220472
11
1.2979074015748031
21
0.2114942913385827
0
LINE
8
BLACK
6
CONTINUOUS
10
1.2979074015748031
20
0.2114942913385827
11
1.2977629527559056
21
0.2111454724409449
0
LINE
8
BLACK
6
CONTINUOUS
10
1.2977629527559056
20
0.2111454724409449
11
1.2977148425196849
21
0.2110974015748031
0
LINE
8
BLACK
6
CONTINUOUS
10
1.2977148425196849
20
0.2110974015748031
11
1.296074094488189
21
0.207715905511811
0
LINE
8
BLACK
6
CONTINUOUS
10
1.296074094488189
20
0.207715905511811
11
1.2959179921259842
21
0.2074679133858268
0
LINE
8
BLACK
6
CONTINUOUS
10
1.2959179921259842
20
0.2074679133858268
11
1.295888188976378
21
0.2073959448818898
0
LINE
8
BLACK
6
CONTINUOUS
10
1.295888188976378
20
0.2073959448818898
11
1.2958436614173228
21
0.2073498818897638
0
LINE
8
BLACK
6
CONTINUOUS
10
1.2958436614173228
20
0.2073498818897638
11
1.2957657480314961
21
0.2072260236220472
0
LINE
8
BLACK
6
CONTINUOUS
10
1.2957657480314961
20
0.2072260236220472
11
1.2955099606299212
21
0.2070042519685039
0
LINE
8
BLACK
6
CONTINUOUS
10
1.2955099606299212
20
0.2070042519685039
11
1.2936461417322835
21
0.2050737007874016
0
LINE
8
BLACK
6
CONTINUOUS
10
1.2936461417322835
20
0.2050737007874016
11
1.2931987007874015
21
0.2047064960629921
0
LINE
8
BLACK
6
CONTINUOUS
10
1.2931987007874015
20
0.2047064960629921
11
1.2921342913385827
21
0.2042656299212599
0
LINE
8
BLACK
6
CONTINUOUS
10
1.2921342913385827
20
0.2042656299212599
11
1.2909822047244095
21
0.2042656299212599
0
LINE
8
BLACK
6
CONTINUOUS
10
1.2909822047244095
20
0.2042656299212599
11
1.2899177952755905
21
0.2047065354330709
0
LINE
8
BLACK
6
CONTINUOUS
10
1.2899177952755905
20
0.2047065354330709
11
1.2891031102362205
21
0.205521220472441
0
LINE
8
BLACK
6
CONTINUOUS
10
1.2891031102362205
20
0.205521220472441
11
1.2886622440944882
21
0.2065856299212598
0
LINE
8
BLACK
6
CONTINUOUS
10
1.2886622440944882
20
0.2065856299212598
11
1.2886622440944882
21
0.2077377165354331
0
LINE
8
BLACK
6
CONTINUOUS
10
1.2886622440944882
20
0.2077377165354331
11
1.2891031496062992
21
0.208802125984252
0
LINE
8
BLACK
6
CONTINUOUS
10
1.2891031496062992
20
0.208802125984252
11
1.2910931889763779
21
0.2108633858267716
0
LINE
8
BLACK
6
CONTINUOUS
10
1.2910931889763779
20
0.2108633858267716
11
1.2924040551181102
21
0.213565
0
LINE
8
BLACK
6
CONTINUOUS
10
1.2924040551181102
20
0.213565
11
1.2923585433070865
21
0.2215467322834646
0
LINE
8
BLACK
6
CONTINUOUS
10
1.2923585433070865
20
0.2215467322834646
11
1.2909647244094489
21
0.2242534251968504
0
LINE
8
BLACK
6
CONTINUOUS
10
1.2909647244094489
20
0.2242534251968504
11
1.2897313385826772
21
0.2254441732283465
0
LINE
8
BLACK
6
CONTINUOUS
10
1.2897313385826772
20
0.2254441732283465
11
1.2870296850393701
21
0.2267550787401575
0
LINE
8
BLACK
6
CONTINUOUS
10
1.2870296850393701
20
0.2267550787401575
11
1.2790479527559055
21
0.2267095669291339
0
LINE
8
BLACK
6
CONTINUOUS
10
1.2790479527559055
20
0.2267095669291339
11
1.2763412204724409
21
0.2253157480314961
0
LINE
8
BLACK
6
CONTINUOUS
10
1.2763412204724409
20
0.2253157480314961
11
1.2751505118110236
21
0.2240824015748031
0
LINE
8
BLACK
6
CONTINUOUS
10
1.2751505118110236
20
0.2240824015748031
11
1.2738396062992126
21
0.221380748031496
0
LINE
8
BLACK
6
CONTINUOUS
10
1.2738396062992126
20
0.221380748031496
11
1.2738851181102362
21
0.2133990157480315
0
LINE
8
BLACK
6
CONTINUOUS
10
1.2738851181102362
20
0.2133990157480315
11
1.2752789370078741
21
0.2106922834645669
0
LINE
8
BLACK
6
CONTINUOUS
10
1.2752789370078741
20
0.2106922834645669
11
1.2767733070866141
21
0.2092495669291339
0
LINE
8
BLACK
6
CONTINUOUS
10
1.2767733070866141
20
0.2092495669291339
11
1.2771405118110235
21
0.208802125984252
0
LINE
8
BLACK
6
CONTINUOUS
10
1.2771405118110235
20
0.208802125984252
11
1.2771974015748031
21
0.2086648031496063
0
LINE
8
BLACK
6
CONTINUOUS
10
1.2771974015748031
20
0.2086648031496063
11
1.2772915748031495
21
0.2085496850393701
0
LINE
8
BLACK
6
CONTINUOUS
10
1.2772915748031495
20
0.2085496850393701
11
1.2774162598425196
21
0.2081364173228346
0
LINE
8
BLACK
6
CONTINUOUS
10
1.2774162598425196
20
0.2081364173228346
11
1.2775814173228346
21
0.2077377165354331
0
LINE
8
BLACK
6
CONTINUOUS
10
1.2775814173228346
20
0.2077377165354331
11
1.2775814173228346
21
0.2075890551181102
0
LINE
8
BLACK
6
CONTINUOUS
10
1.2775814173228346
20
0.2075890551181102
11
1.2776243700787402
21
0.2074466929133858
0
LINE
8
BLACK
6
CONTINUOUS
10
1.2776243700787402
20
0.2074466929133858
11
1.2775814173228346
21
0.2070172047244094
0
LINE
8
BLACK
6
CONTINUOUS
10
1.2775814173228346
20
0.2070172047244094
11
1.2775814173228346
21
0.2065856299212598
0
LINE
8
BLACK
6
CONTINUOUS
10
1.2775814173228346
20
0.2065856299212598
11
1.2775244881889765
21
0.2064483070866142
0
LINE
8
BLACK
6
CONTINUOUS
10
1.2775244881889765
20
0.2064483070866142
11
1.2775097244094489
21
0.2063002755905512
0
LINE
8
BLACK
6
CONTINUOUS
10
1.2775097244094489
20
0.2063002755905512
11
1.277305590551181
21
0.205919842519685
0
LINE
8
BLACK
6
CONTINUOUS
10
1.277305590551181
20
0.205919842519685
11
1.2771405118110235
21
0.205521220472441
0
LINE
8
BLACK
6
CONTINUOUS
10
1.2771405118110235
20
0.205521220472441
11
1.2770353543307087
21
0.2054161023622047
0
LINE
8
BLACK
6
CONTINUOUS
10
1.2770353543307087
20
0.2054161023622047
11
1.2769650787401574
21
0.2052850393700787
0
LINE
8
BLACK
6
CONTINUOUS
10
1.2769650787401574
20
0.2052850393700787
11
1.2766308661417323
21
0.2050116141732283
0
LINE
8
BLACK
6
CONTINUOUS
10
1.2766308661417323
20
0.2050116141732283
11
1.2763258267716535
21
0.2047065354330709
0
LINE
8
BLACK
6
CONTINUOUS
10
1.2763258267716535
20
0.2047065354330709
11
1.2761885433070865
21
0.2046496850393701
0
LINE
8
BLACK
6
CONTINUOUS
10
1.2761885433070865
20
0.2046496850393701
11
1.2760734251968504
21
0.2045554724409449
0
LINE
8
BLACK
6
CONTINUOUS
10
1.2760734251968504
20
0.2045554724409449
11
1.27566
21
0.2044307480314961
0
LINE
8
BLACK
6
CONTINUOUS
10
1.27566
20
0.2044307480314961
11
1.2752614173228347
21
0.2042656299212599
0
LINE
8
BLACK
6
CONTINUOUS
10
1.2752614173228347
20
0.2042656299212599
11
1.2751127952755905
21
0.2042656299212599
0
LINE
8
BLACK
6
CONTINUOUS
10
1.2751127952755905
20
0.2042656299212599
11
1.2749704330708662
21
0.2042226771653543
0
LINE
8
BLACK
6
CONTINUOUS
10
1.2749704330708662
20
0.2042226771653543
11
1.2745278346456692
21
0.2042656299212599
0
LINE
8
BLACK
6
CONTINUOUS
10
1.2745278346456692
20
0.2042656299212599
11
1.2741093307086613
21
0.2042656299212599
0
LINE
8
BLACK
6
CONTINUOUS
10
1.2741093307086613
20
0.2042656299212599
11
1.2739812598425198
21
0.2043187007874016
0
LINE
8
BLACK
6
CONTINUOUS
10
1.2739812598425198
20
0.2043187007874016
11
1.255643937007874
21
0.2060983070866142
0
LINE
8
BLACK
6
CONTINUOUS
10
1.255643937007874
20
0.2060983070866142
11
1.2554340157480315
21
0.2061403937007874
0
LINE
8
BLACK
6
CONTINUOUS
10
1.2554340157480315
20
0.2061403937007874
11
1.2553616929133857
21
0.2061403937007874
0
LINE
8
BLACK
6
CONTINUOUS
10
1.2553616929133857
20
0.2061403937007874
11
1.2552938582677164
21
0.2061685039370079
0
LINE
8
BLACK
6
CONTINUOUS
10
1.2552938582677164
20
0.2061685039370079
11
1.2550763779527558
21
0.2062120866141732
0
LINE
8
BLACK
6
CONTINUOUS
10
1.2550763779527558
20
0.2062120866141732
11
1.254696062992126
21
0.2064161417322835
0
LINE
8
BLACK
6
CONTINUOUS
10
1.254696062992126
20
0.2064161417322835
11
1.2542972834645669
21
0.2065812992125984
0
LINE
8
BLACK
6
CONTINUOUS
10
1.2542972834645669
20
0.2065812992125984
11
1.2541920866141731
21
0.2066864960629921
0
LINE
8
BLACK
6
CONTINUOUS
10
1.2541920866141731
20
0.2066864960629921
11
1.2540611417322833
21
0.2067567322834646
0
LINE
8
BLACK
6
CONTINUOUS
10
1.2540611417322833
20
0.2067567322834646
11
1.253787874015748
21
0.2070907086614173
0
LINE
8
BLACK
6
CONTINUOUS
10
1.253787874015748
20
0.2070907086614173
11
1.2534826377952755
21
0.2073959448818898
0
LINE
8
BLACK
6
CONTINUOUS
10
1.2534826377952755
20
0.2073959448818898
11
1.2534257086614173
21
0.2075333070866142
0
LINE
8
BLACK
6
CONTINUOUS
10
1.2534257086614173
20
0.2075333070866142
11
1.2533315748031495
21
0.2076483858267716
0
LINE
8
BLACK
6
CONTINUOUS
10
1.2533315748031495
20
0.2076483858267716
11
1.2532068503937008
21
0.2080616929133858
0
LINE
8
BLACK
6
CONTINUOUS
10
1.2532068503937008
20
0.2080616929133858
11
1.2530417322834646
21
0.2084603543307087
0
LINE
8
BLACK
6
CONTINUOUS
10
1.2530417322834646
20
0.2084603543307087
11
1.2530412598425196
21
0.2086105118110236
0
LINE
8
BLACK
6
CONTINUOUS
10
1.2530412598425196
20
0.2086105118110236
11
1.252998779527559
21
0.2087513779527559
0
LINE
8
BLACK
6
CONTINUOUS
10
1.252998779527559
20
0.2087513779527559
11
1.2530396456692914
21
0.2091603543307086
0
LINE
8
BLACK
6
CONTINUOUS
10
1.2530396456692914
20
0.2091603543307086
11
1.252985
21
0.2277840551181102
0
LINE
8
BLACK
6
CONTINUOUS
10
1.252985
20
0.2277840551181102
11
1.2530417322834646
21
0.2283601181102362
0
LINE
8
BLACK
6
CONTINUOUS
10
1.2530417322834646
20
0.2283601181102362
11
1.2534826377952755
21
0.2294245275590551
0
LINE
8
BLACK
6
CONTINUOUS
10
1.2534826377952755
20
0.2294245275590551
11
1.2542972834645669
21
0.2302391732283464
0
LINE
8
BLACK
6
CONTINUOUS
10
1.2542972834645669
20
0.2302391732283464
11
1.2553616929133857
21
0.2306800787401575
0
LINE
8
BLACK
6
CONTINUOUS
10
1.2553616929133857
20
0.2306800787401575
11
1.2565138188976377
21
0.2306800787401575
0
LINE
8
BLACK
6
CONTINUOUS
10
1.2565138188976377
20
0.2306800787401575
11
1.2575782283464567
21
0.2302391732283464
0
LINE
8
BLACK
6
CONTINUOUS
10
1.2575782283464567
20
0.2302391732283464
11
1.258392874015748
21
0.2294245275590551
0
LINE
8
BLACK
6
CONTINUOUS
10
1.258392874015748
20
0.2294245275590551
11
1.258833779527559
21
0.2283601181102362
0
LINE
8
BLACK
6
CONTINUOUS
10
1.258833779527559
20
0.2283601181102362
11
1.2588827952755905
21
0.2116619291338583
0
LINE
8
BLACK
6
CONTINUOUS
10
1.2588827952755905
20
0.2116619291338583
11
1.2686834251968504
21
0.2107107874015748
0
LINE
8
BLACK
6
CONTINUOUS
10
1.2686834251968504
20
0.2107107874015748
11
1.2682948425196849
21
0.2114654330708661
0
LINE
8
BLACK
6
CONTINUOUS
10
1.2682948425196849
20
0.2114654330708661
11
1.2680879527559055
21
0.212006062992126
0
LINE
8
BLACK
6
CONTINUOUS
10
1.2680879527559055
20
0.212006062992126
11
1.2680804330708662
21
0.2121118897637795
0
LINE
8
BLACK
6
CONTINUOUS
10
1.2680804330708662
20
0.2121118897637795
11
1.268039842519685
21
0.2122098818897638
0
LINE
8
BLACK
6
CONTINUOUS
10
1.268039842519685
20
0.2122098818897638
11
1.2680368897637795
21
0.2127244881889764
0
LINE
8
BLACK
6
CONTINUOUS
10
1.2680368897637795
20
0.2127244881889764
11
1.2680062992125984
21
0.2131552755905512
0
LINE
8
BLACK
6
CONTINUOUS
10
1.2680062992125984
20
0.2131552755905512
11
1.2680339763779527
21
0.2132383464566929
0
LINE
8
BLACK
6
CONTINUOUS
10
1.2680339763779527
20
0.2132383464566929
11
1.2679831102362205
21
0.2221597637795276
0
LINE
8
BLACK
6
CONTINUOUS
10
1.2679831102362205
20
0.2221597637795276
11
1.268039842519685
21
0.2227358267716535
0
LINE
8
BLACK
6
CONTINUOUS
10
1.268039842519685
20
0.2227358267716535
11
1.2680804330708662
21
0.2228338582677165
0
LINE
8
BLACK
6
CONTINUOUS
10
1.2680804330708662
20
0.2228338582677165
11
1.2680879527559055
21
0.2229396456692913
0
LINE
8
BLACK
6
CONTINUOUS
10
1.2680879527559055
20
0.2229396456692913
11
1.2683361417322834
21
0.223451220472441
0
LINE
8
BLACK
6
CONTINUOUS
10
1.2683361417322834
20
0.223451220472441
11
1.2684807480314961
21
0.2238002362204724
0
LINE
8
BLACK
6
CONTINUOUS
10
1.2684807480314961
20
0.2238002362204724
11
1.2685288582677166
21
0.2238483858267717
0
LINE
8
BLACK
6
CONTINUOUS
10
1.2685288582677166
20
0.2238483858267717
11
1.2701696062992125
21
0.2272298031496063
0
LINE
8
BLACK
6
CONTINUOUS
10
1.2701696062992125
20
0.2272298031496063
11
1.2703256692913385
21
0.2274778346456693
0
LINE
8
BLACK
6
CONTINUOUS
10
1.2703256692913385
20
0.2274778346456693
11
1.2703555118110237
21
0.2275497637795275
0
LINE
8
BLACK
6
CONTINUOUS
10
1.2703555118110237
20
0.2275497637795275
11
1.2704
21
0.2275958661417323
0
LINE
8
BLACK
6
CONTINUOUS
10
1.2704
20
0.2275958661417323
11
1.2704779527559056
21
0.2277196850393701
0
LINE
8
BLACK
6
CONTINUOUS
10
1.2704779527559056
20
0.2277196850393701
11
1.270733622047244
21
0.2279414566929134
0
LINE
8
BLACK
6
CONTINUOUS
10
1.270733622047244
20
0.2279414566929134
11
1.2725974803149607
21
0.229871968503937
0
LINE
8
BLACK
6
CONTINUOUS
10
1.2725974803149607
20
0.229871968503937
11
1.2728238188976377
21
0.2300577559055118
0
LINE
8
BLACK
6
CONTINUOUS
10
1.2728238188976377
20
0.2300577559055118
11
1.272875
21
0.2301167322834645
0
LINE
8
BLACK
6
CONTINUOUS
10
1.272875
20
0.2301167322834645
11
1.2729306299212597
21
0.2301453937007874
0
LINE
8
BLACK
6
CONTINUOUS
10
1.2729306299212597
20
0.2301453937007874
11
1.2730449212598425
21
0.2302391732283464
0
LINE
8
BLACK
6
CONTINUOUS
10
1.2730449212598425
20
0.2302391732283464
11
1.2733917716535432
21
0.230382874015748
0
LINE
8
BLACK
6
CONTINUOUS
10
1.2733917716535432
20
0.230382874015748
11
1.2771144094488189
21
0.232299842519685
0
LINE
8
BLACK
6
CONTINUOUS
10
1.2771144094488189
20
0.232299842519685
11
1.277655
21
0.2325067322834646
0
LINE
8
BLACK
6
CONTINUOUS
10
1.277655
20
0.2325067322834646
11
1.2777608661417323
21
0.2325142913385827
0
LINE
8
BLACK
6
CONTINUOUS
10
1.2777608661417323
20
0.2325142913385827
11
1.2778588582677166
21
0.232554842519685
0
LINE
8
BLACK
6
CONTINUOUS
10
1.2778588582677166
20
0.232554842519685
11
1.2783733858267716
21
0.2325577952755905
0
LINE
8
BLACK
6
CONTINUOUS
10
1.2783733858267716
20
0.2325577952755905
11
1.2788042125984251
21
0.2325883858267717
0
LINE
8
BLACK
6
CONTINUOUS
10
1.2788042125984251
20
0.2325883858267717
11
1.2788872440944881
21
0.2325607086614173
0
LINE
8
BLACK
6
CONTINUOUS
10
1.2788872440944881
20
0.2325607086614173
11
1.2878087401574803
21
0.2326115748031496
0
LINE
8
BLACK
6
CONTINUOUS
10
1.2878087401574803
20
0.2326115748031496
11
1.2883848031496064
21
0.232554842519685
0
LINE
8
BLACK
6
CONTINUOUS
10
1.2950734645669291
20
0.2508616535433071
11
1.2950735433070866
21
0.2508616141732283
0
LINE
8
BLACK
6
CONTINUOUS
10
1.2950735433070866
20
0.2508616141732283
11
1.2973957480314959
21
0.2486196456692913
0
LINE
8
BLACK
6
CONTINUOUS
10
1.2973957480314959
20
0.2486196456692913
11
1.2977629527559056
21
0.2481722047244095
0
LINE
8
BLACK
6
CONTINUOUS
10
1.2977629527559056
20
0.2481722047244095
11
1.2979045275590551
21
0.2478304330708661
0
LINE
8
BLACK
6
CONTINUOUS
10
1.2979045275590551
20
0.2478304330708661
11
1.2982038582677164
21
0.2471077559055118
0
LINE
8
BLACK
6
CONTINUOUS
10
1.2982038582677164
20
0.2471077559055118
11
1.2982038582677164
21
0.2459556692913386
0
LINE
8
BLACK
6
CONTINUOUS
10
1.2982038582677164
20
0.2459556692913386
11
1.2977629527559056
21
0.2448912598425197
0
LINE
8
BLACK
6
CONTINUOUS
10
1.2977629527559056
20
0.2448912598425197
11
1.2955209842519684
21
0.2425690551181102
0
LINE
8
BLACK
6
CONTINUOUS
10
1.2955209842519684
20
0.2425690551181102
11
1.2950735433070866
21
0.2422018503937008
0
LINE
8
BLACK
6
CONTINUOUS
10
1.2950735433070866
20
0.2422018503937008
11
1.2940091338582678
21
0.2417609448818898
0
LINE
8
BLACK
6
CONTINUOUS
10
1.2940091338582678
20
0.2417609448818898
11
1.2928570472440946
21
0.2417609448818898
0
LINE
8
BLACK
6
CONTINUOUS
10
1.2928570472440946
20
0.2417609448818898
11
1.2917926377952755
21
0.242201811023622
0
LINE
8
BLACK
6
CONTINUOUS
10
1.2917926377952755
20
0.242201811023622
11
1.2894703937007874
21
0.2444437795275591
0
LINE
8
BLACK
6
CONTINUOUS
10
1.2894703937007874
20
0.2444437795275591
11
1.2891031496062992
21
0.2448912598425197
0
LINE
8
BLACK
6
CONTINUOUS
10
1.2891031496062992
20
0.2448912598425197
11
1.2891031102362205
21
0.2448912992125984
0
LINE
8
BLACK
6
CONTINUOUS
10
1.2891031102362205
20
0.2448912992125984
11
1.2886622440944882
21
0.2459557086614173
0
LINE
8
BLACK
6
CONTINUOUS
10
1.2886622440944882
20
0.2459557086614173
11
1.2886622440944882
21
0.2471077952755905
0
LINE
8
BLACK
6
CONTINUOUS
10
1.2886622440944882
20
0.2471077952755905
11
1.2889615748031495
21
0.2478304330708661
0
LINE
8
BLACK
6
CONTINUOUS
10
1.2889615748031495
20
0.2478304330708661
11
1.2891031102362205
21
0.2481721653543307
0
LINE
8
BLACK
6
CONTINUOUS
10
1.2891031102362205
20
0.2481721653543307
11
1.2891031496062992
21
0.2481722047244095
0
LINE
8
BLACK
6
CONTINUOUS
10
1.2891031496062992
20
0.2481722047244095
11
1.291345157480315
21
0.2504944094488189
0
LINE
8
BLACK
6
CONTINUOUS
10
1.291345157480315
20
0.2504944094488189
11
1.2917926377952755
21
0.2508616535433071
0
LINE
8
BLACK
6
CONTINUOUS
10
1.2917926377952755
20
0.2508616535433071
11
1.2928570472440946
21
0.2513025196850394
0
LINE
8
BLACK
6
CONTINUOUS
10
1.2928570472440946
20
0.2513025196850394
11
1.2940091338582678
21
0.2513025196850394
0
LINE
8
BLACK
6
CONTINUOUS
10
1.2940091338582678
20
0.2513025196850394
11
1.2950734645669291
21
0.2508616535433071
0
LINE
8
BLACK
6
CONTINUOUS
10
1.2804101968503936
20
0.2888446456692914
11
1.2804532283464567
21
0.2888510236220472
0
LINE
8
BLACK
6
CONTINUOUS
10
1.2804532283464567
20
0.2888510236220472
11
1.2805268897637796
21
0.2888331496062992
0
LINE
8
BLACK
6
CONTINUOUS
10
1.2805268897637796
20
0.2888331496062992
11
1.2808857480314961
21
0.2887977952755905
0
LINE
8
BLACK
6
CONTINUOUS
10
1.2808857480314961
20
0.2887977952755905
11
1.2811876377952756
21
0.2886727559055118
0
LINE
8
BLACK
6
CONTINUOUS
10
1.2811876377952756
20
0.2886727559055118
11
1.2885248818897637
21
0.2868916141732283
0
LINE
8
BLACK
6
CONTINUOUS
10
1.2885248818897637
20
0.2868916141732283
11
1.2885673622047245
21
0.2868764566929134
0
LINE
8
BLACK
6
CONTINUOUS
10
1.2885673622047245
20
0.2868764566929134
11
1.288588622047244
21
0.2868749212598425
0
LINE
8
BLACK
6
CONTINUOUS
10
1.288588622047244
20
0.2868749212598425
11
1.2886361417322834
21
0.2868518897637795
0
LINE
8
BLACK
6
CONTINUOUS
10
1.2886361417322834
20
0.2868518897637795
11
1.2890699999999999
21
0.2866968503937008
0
LINE
8
BLACK
6
CONTINUOUS
10
1.2890699999999999
20
0.2866968503937008
11
1.289286968503937
21
0.286536062992126
0
LINE
8
BLACK
6
CONTINUOUS
10
1.289286968503937
20
0.286536062992126
11
1.2928787795275589
21
0.2847932677165354
0
LINE
8
BLACK
6
CONTINUOUS
10
1.2928787795275589
20
0.2847932677165354
11
1.293126653543307
21
0.2846372440944882
0
LINE
8
BLACK
6
CONTINUOUS
10
1.293126653543307
20
0.2846372440944882
11
1.2931987007874015
21
0.2846074015748031
0
LINE
8
BLACK
6
CONTINUOUS
10
1.2931987007874015
20
0.2846074015748031
11
1.2932448031496062
21
0.284562874015748
0
LINE
8
BLACK
6
CONTINUOUS
10
1.2932448031496062
20
0.284562874015748
11
1.2933686614173228
21
0.2844849212598425
0
LINE
8
BLACK
6
CONTINUOUS
10
1.2933686614173228
20
0.2844849212598425
11
1.2935903543307086
21
0.2842292913385827
0
LINE
8
BLACK
6
CONTINUOUS
10
1.2935903543307086
20
0.2842292913385827
11
1.2955209448818896
21
0.2823654330708661
0
LINE
8
BLACK
6
CONTINUOUS
10
1.2955209448818896
20
0.2823654330708661
11
1.2957066929133858
21
0.282139094488189
0
LINE
8
BLACK
6
CONTINUOUS
10
1.2957066929133858
20
0.282139094488189
11
1.2957657480314961
21
0.282087874015748
0
LINE
8
BLACK
6
CONTINUOUS
10
1.2957657480314961
20
0.282087874015748
11
1.2957943700787402
21
0.2820322440944882
0
LINE
8
BLACK
6
CONTINUOUS
10
1.2957943700787402
20
0.2820322440944882
11
1.295888188976378
21
0.2819179527559055
0
LINE
8
BLACK
6
CONTINUOUS
10
1.295888188976378
20
0.2819179527559055
11
1.2960318503937007
21
0.2815711023622047
0
LINE
8
BLACK
6
CONTINUOUS
10
1.2960318503937007
20
0.2815711023622047
11
1.2979488582677166
21
0.2778484645669291
0
LINE
8
BLACK
6
CONTINUOUS
10
1.2979488582677166
20
0.2778484645669291
11
1.298155748031496
21
0.277307874015748
0
LINE
8
BLACK
6
CONTINUOUS
10
1.298155748031496
20
0.277307874015748
11
1.2981632677165353
21
0.2772020078740157
0
LINE
8
BLACK
6
CONTINUOUS
10
1.2981632677165353
20
0.2772020078740157
11
1.2982038582677164
21
0.2771040157480315
0
LINE
8
BLACK
6
CONTINUOUS
10
1.2982038582677164
20
0.2771040157480315
11
1.2982114566929133
21
0.2765236614173228
0
LINE
8
BLACK
6
CONTINUOUS
10
1.2982114566929133
20
0.2765236614173228
11
1.2982374015748031
21
0.2761586614173228
0
LINE
8
BLACK
6
CONTINUOUS
10
1.2982374015748031
20
0.2761586614173228
11
1.2982170472440944
21
0.2760976377952756
0
LINE
8
BLACK
6
CONTINUOUS
10
1.2982170472440944
20
0.2760976377952756
11
1.298260590551181
21
0.2727784251968504
0
LINE
8
BLACK
6
CONTINUOUS
10
1.298260590551181
20
0.2727784251968504
11
1.2982038582677164
21
0.2722023622047244
0
LINE
8
BLACK
6
CONTINUOUS
10
1.2982038582677164
20
0.2722023622047244
11
1.2981632677165353
21
0.2721044094488189
0
LINE
8
BLACK
6
CONTINUOUS
10
1.2981632677165353
20
0.2721044094488189
11
1.298155748031496
21
0.2719985039370079
0
LINE
8
BLACK
6
CONTINUOUS
10
1.298155748031496
20
0.2719985039370079
11
1.2979074015748031
21
0.2714867716535433
0
LINE
8
BLACK
6
CONTINUOUS
10
1.2979074015748031
20
0.2714867716535433
11
1.2977629527559056
21
0.2711379527559055
0
LINE
8
BLACK
6
CONTINUOUS
10
1.2977629527559056
20
0.2711379527559055
11
1.2977148425196849
21
0.2710898818897638
0
LINE
8
BLACK
6
CONTINUOUS
10
1.2977148425196849
20
0.2710898818897638
11
1.296074094488189
21
0.2677083858267716
0
LINE
8
BLACK
6
CONTINUOUS
10
1.296074094488189
20
0.2677083858267716
11
1.2959179921259842
21
0.2674603937007874
0
LINE
8
BLACK
6
CONTINUOUS
10
1.2959179921259842
20
0.2674603937007874
11
1.295888188976378
21
0.2673884251968504
0
LINE
8
BLACK
6
CONTINUOUS
10
1.295888188976378
20
0.2673884251968504
11
1.2958436614173228
21
0.2673423622047244
0
LINE
8
BLACK
6
CONTINUOUS
10
1.2958436614173228
20
0.2673423622047244
11
1.2957657480314961
21
0.2672185039370079
0
LINE
8
BLACK
6
CONTINUOUS
10
1.2957657480314961
20
0.2672185039370079
11
1.2955099606299212
21
0.2669967322834645
0
LINE
8
BLACK
6
CONTINUOUS
10
1.2955099606299212
20
0.2669967322834645
11
1.2936461417322835
21
0.2650661811023622
0
LINE
8
BLACK
6
CONTINUOUS
10
1.2936461417322835
20
0.2650661811023622
11
1.2934198031496063
21
0.2648804724409449
0
LINE
8
BLACK
6
CONTINUOUS
10
1.2934198031496063
20
0.2648804724409449
11
1.2933686614173228
21
0.2648214566929134
0
LINE
8
BLACK
6
CONTINUOUS
10
1.2933686614173228
20
0.2648214566929134
11
1.293313031496063
21
0.2647928346456693
0
LINE
8
BLACK
6
CONTINUOUS
10
1.293313031496063
20
0.2647928346456693
11
1.2931987007874015
21
0.2646989763779528
0
LINE
8
BLACK
6
CONTINUOUS
10
1.2931987007874015
20
0.2646989763779528
11
1.2928517716535433
21
0.2645553149606299
0
LINE
8
BLACK
6
CONTINUOUS
10
1.2928517716535433
20
0.2645553149606299
11
1.2891292519685038
21
0.2626383464566929
0
LINE
8
BLACK
6
CONTINUOUS
10
1.2891292519685038
20
0.2626383464566929
11
1.289087125984252
21
0.2626222440944882
0
LINE
8
BLACK
6
CONTINUOUS
10
1.289087125984252
20
0.2626222440944882
11
1.2890699999999999
21
0.2626095275590551
0
LINE
8
BLACK
6
CONTINUOUS
10
1.2890699999999999
20
0.2626095275590551
11
1.2890209842519684
21
0.2625969291338582
0
LINE
8
BLACK
6
CONTINUOUS
10
1.2890209842519684
20
0.2625969291338582
11
1.288588622047244
21
0.2624314566929134
0
LINE
8
BLACK
6
CONTINUOUS
10
1.288588622047244
20
0.2624314566929134
11
1.2882974015748032
21
0.2624107874015748
0
LINE
8
BLACK
6
CONTINUOUS
10
1.2882974015748032
20
0.2624107874015748
11
1.2810258267716534
21
0.26054
0
LINE
8
BLACK
6
CONTINUOUS
10
1.2810258267716534
20
0.26054
11
1.2809259448818897
21
0.2605252362204724
0
LINE
8
BLACK
6
CONTINUOUS
10
1.2809259448818897
20
0.2605252362204724
11
1.2808857480314961
21
0.2605085826771654
0
LINE
8
BLACK
6
CONTINUOUS
10
1.2808857480314961
20
0.2605085826771654
11
1.2808103543307086
21
0.260508188976378
0
LINE
8
BLACK
6
CONTINUOUS
10
1.2808103543307086
20
0.260508188976378
11
1.2804532283464567
21
0.2604553543307087
0
LINE
8
BLACK
6
CONTINUOUS
10
1.2804532283464567
20
0.2604553543307087
11
1.2801246456692914
21
0.2605042519685039
0
LINE
8
BLACK
6
CONTINUOUS
10
1.2801246456692914
20
0.2605042519685039
11
1.2709358661417323
21
0.2604518503937008
0
LINE
8
BLACK
6
CONTINUOUS
10
1.2709358661417323
20
0.2604518503937008
11
1.27083531496063
21
0.2604617716535433
0
LINE
8
BLACK
6
CONTINUOUS
10
1.27083531496063
20
0.2604617716535433
11
1.2707923228346456
21
0.2604553543307087
0
LINE
8
BLACK
6
CONTINUOUS
10
1.2707923228346456
20
0.2604553543307087
11
1.2707186220472442
21
0.2604732677165355
0
LINE
8
BLACK
6
CONTINUOUS
10
1.2707186220472442
20
0.2604732677165355
11
1.2703598031496062
21
0.2605085826771654
0
LINE
8
BLACK
6
CONTINUOUS
10
1.2703598031496062
20
0.2605085826771654
11
1.270057874015748
21
0.2606336614173228
0
LINE
8
BLACK
6
CONTINUOUS
10
1.270057874015748
20
0.2606336614173228
11
1.2627206692913386
21
0.2624147637795275
0
LINE
8
BLACK
6
CONTINUOUS
10
1.2627206692913386
20
0.2624147637795275
11
1.2626781496062991
21
0.2624299606299212
0
LINE
8
BLACK
6
CONTINUOUS
10
1.2626781496062991
20
0.2624299606299212
11
1.2626568897637795
21
0.2624314566929134
0
LINE
8
BLACK
6
CONTINUOUS
10
1.2626568897637795
20
0.2624314566929134
11
1.2626092125984252
21
0.2624546062992126
0
LINE
8
BLACK
6
CONTINUOUS
10
1.2626092125984252
20
0.2624546062992126
11
1.2621755511811024
21
0.2626095275590551
0
LINE
8
BLACK
6
CONTINUOUS
10
1.2621755511811024
20
0.2626095275590551
11
1.2619585826771653
21
0.2627702755905512
0
LINE
8
BLACK
6
CONTINUOUS
10
1.2619585826771653
20
0.2627702755905512
11
1.2583667716535434
21
0.2645131102362205
0
LINE
8
BLACK
6
CONTINUOUS
10
1.2583667716535434
20
0.2645131102362205
11
1.2581187401574803
21
0.2646692125984252
0
LINE
8
BLACK
6
CONTINUOUS
10
1.2581187401574803
20
0.2646692125984252
11
1.258046811023622
21
0.2646990157480315
0
LINE
8
BLACK
6
CONTINUOUS
10
1.258046811023622
20
0.2646990157480315
11
1.2580007086614173
21
0.2647435433070866
0
LINE
8
BLACK
6
CONTINUOUS
10
1.2580007086614173
20
0.2647435433070866
11
1.2578768897637795
21
0.2648214566929134
0
LINE
8
BLACK
6
CONTINUOUS
10
1.2578768897637795
20
0.2648214566929134
11
1.2576551181102362
21
0.2650771653543307
0
LINE
8
BLACK
6
CONTINUOUS
10
1.2576551181102362
20
0.2650771653543307
11
1.2557246062992127
21
0.2669409842519685
0
LINE
8
BLACK
6
CONTINUOUS
10
1.2557246062992127
20
0.2669409842519685
11
1.2555388188976377
21
0.2671673622047244
0
LINE
8
BLACK
6
CONTINUOUS
10
1.2555388188976377
20
0.2671673622047244
11
1.2554798425196849
21
0.2672185039370079
0
LINE
8
BLACK
6
CONTINUOUS
10
1.2554798425196849
20
0.2672185039370079
11
1.2554511811023621
21
0.2672741732283465
0
LINE
8
BLACK
6
CONTINUOUS
10
1.2554511811023621
20
0.2672741732283465
11
1.255357401574803
21
0.2673884251968504
0
LINE
8
BLACK
6
CONTINUOUS
10
1.255357401574803
20
0.2673884251968504
11
1.2552137401574803
21
0.2677352362204725
0
LINE
8
BLACK
6
CONTINUOUS
10
1.2552137401574803
20
0.2677352362204725
11
1.2532967322834645
21
0.2714579133858268
0
LINE
8
BLACK
6
CONTINUOUS
10
1.2532967322834645
20
0.2714579133858268
11
1.253089842519685
21
0.2719985433070866
0
LINE
8
BLACK
6
CONTINUOUS
10
1.253089842519685
20
0.2719985433070866
11
1.2530823228346457
21
0.2721043700787402
0
LINE
8
BLACK
6
CONTINUOUS
10
1.2530823228346457
20
0.2721043700787402
11
1.2530417322834646
21
0.2722023622047244
0
LINE
8
BLACK
6
CONTINUOUS
10
1.2530417322834646
20
0.2722023622047244
11
1.253034094488189
21
0.2727828346456693
0
LINE
8
BLACK
6
CONTINUOUS
10
1.253034094488189
20
0.2727828346456693
11
1.253008188976378
21
0.2731477559055118
0
LINE
8
BLACK
6
CONTINUOUS
10
1.253008188976378
20
0.2731477559055118
11
1.2530285039370079
21
0.2732088188976378
0
LINE
8
BLACK
6
CONTINUOUS
10
1.2530285039370079
20
0.2732088188976378
11
1.252985
21
0.2765279527559055
0
LINE
8
BLACK
6
CONTINUOUS
10
1.252985
20
0.2765279527559055
11
1.2530417322834646
21
0.2771040157480315
0
LINE
8
BLACK
6
CONTINUOUS
10
1.2530417322834646
20
0.2771040157480315
11
1.2530823228346457
21
0.2772020472440945
0
LINE
8
BLACK
6
CONTINUOUS
10
1.2530823228346457
20
0.2772020472440945
11
1.253089842519685
21
0.2773078346456693
0
LINE
8
BLACK
6
CONTINUOUS
10
1.253089842519685
20
0.2773078346456693
11
1.2533380314960629
21
0.2778194094488189
0
LINE
8
BLACK
6
CONTINUOUS
10
1.2533380314960629
20
0.2778194094488189
11
1.2534826377952755
21
0.2781684251968504
0
LINE
8
BLACK
6
CONTINUOUS
10
1.2534826377952755
20
0.2781684251968504
11
1.2535307480314961
21
0.2782165748031496
0
LINE
8
BLACK
6
CONTINUOUS
10
1.2535307480314961
20
0.2782165748031496
11
1.2551714960629921
21
0.2815979921259842
0
LINE
8
BLACK
6
CONTINUOUS
10
1.2551714960629921
20
0.2815979921259842
11
1.2553275590551181
21
0.2818460236220472
0
LINE
8
BLACK
6
CONTINUOUS
10
1.2553275590551181
20
0.2818460236220472
11
1.255357401574803
21
0.2819179527559055
0
LINE
8
BLACK
6
CONTINUOUS
10
1.255357401574803
20
0.2819179527559055
11
1.2554018897637795
21
0.2819640551181102
0
LINE
8
BLACK
6
CONTINUOUS
10
1.2554018897637795
20
0.2819640551181102
11
1.2554798425196849
21
0.282087874015748
0
LINE
8
BLACK
6
CONTINUOUS
10
1.2554798425196849
20
0.282087874015748
11
1.2557355118110236
21
0.2823096456692913
0
LINE
8
BLACK
6
CONTINUOUS
10
1.2557355118110236
20
0.2823096456692913
11
1.2575993700787402
21
0.2842401574803149
0
LINE
8
BLACK
6
CONTINUOUS
10
1.2575993700787402
20
0.2842401574803149
11
1.2578257086614173
21
0.2844259448818898
0
LINE
8
BLACK
6
CONTINUOUS
10
1.2578257086614173
20
0.2844259448818898
11
1.2578768897637795
21
0.2844849212598425
0
LINE
8
BLACK
6
CONTINUOUS
10
1.2578768897637795
20
0.2844849212598425
11
1.2579325196850393
21
0.2845135826771654
0
LINE
8
BLACK
6
CONTINUOUS
10
1.2579325196850393
20
0.2845135826771654
11
1.258046811023622
21
0.2846073622047244
0
LINE
8
BLACK
6
CONTINUOUS
10
1.258046811023622
20
0.2846073622047244
11
1.2583936614173228
21
0.284751062992126
0
LINE
8
BLACK
6
CONTINUOUS
10
1.2583936614173228
20
0.284751062992126
11
1.2621162992125985
21
0.286668031496063
0
LINE
8
BLACK
6
CONTINUOUS
10
1.2621162992125985
20
0.286668031496063
11
1.2621583858267715
21
0.2866841732283464
0
LINE
8
BLACK
6
CONTINUOUS
10
1.2621583858267715
20
0.2866841732283464
11
1.2621755511811024
21
0.2866968503937008
0
LINE
8
BLACK
6
CONTINUOUS
10
1.2621755511811024
20
0.2866968503937008
11
1.2622244881889764
21
0.2867094488188976
0
LINE
8
BLACK
6
CONTINUOUS
10
1.2622244881889764
20
0.2867094488188976
11
1.2626568897637795
21
0.2868749212598425
0
LINE
8
BLACK
6
CONTINUOUS
10
1.2626568897637795
20
0.2868749212598425
11
1.2629481102362203
21
0.2868956299212598
0
LINE
8
BLACK
6
CONTINUOUS
10
1.2629481102362203
20
0.2868956299212598
11
1.2702197244094489
21
0.2887663779527559
0
LINE
8
BLACK
6
CONTINUOUS
10
1.2702197244094489
20
0.2887663779527559
11
1.2703195669291338
21
0.2887811811023622
0
LINE
8
BLACK
6
CONTINUOUS
10
1.2703195669291338
20
0.2887811811023622
11
1.2703598031496062
21
0.2887977952755905
0
LINE
8
BLACK
6
CONTINUOUS
10
1.2703598031496062
20
0.2887977952755905
11
1.270435157480315
21
0.2887982283464567
0
LINE
8
BLACK
6
CONTINUOUS
10
1.270435157480315
20
0.2887982283464567
11
1.2707923228346456
21
0.2888510236220472
0
LINE
8
BLACK
6
CONTINUOUS
10
1.2707923228346456
20
0.2888510236220472
11
1.2711208661417324
21
0.2888021653543307
0
LINE
8
BLACK
6
CONTINUOUS
10
1.2711208661417324
20
0.2888021653543307
11
1.28030968503937
21
0.2888545275590551
0
LINE
8
BLACK
6
CONTINUOUS
10
1.28030968503937
20
0.2888545275590551
11
1.2804101968503936
21
0.2888446456692914
0
LINE
8
BLACK
6
CONTINUOUS
10
1.2711011023622047
20
0.2829499606299212
11
1.2642754330708661
21
0.281193937007874
0
LINE
8
BLACK
6
CONTINUOUS
10
1.2642754330708661
20
0.281193937007874
11
1.2613431102362205
21
0.279683937007874
0
LINE
8
BLACK
6
CONTINUOUS
10
1.2613431102362205
20
0.279683937007874
11
1.2601524015748031
21
0.2784505905511811
0
LINE
8
BLACK
6
CONTINUOUS
10
1.2601524015748031
20
0.2784505905511811
11
1.2588512598425197
21
0.275769094488189
0
LINE
8
BLACK
6
CONTINUOUS
10
1.2588512598425197
20
0.275769094488189
11
1.2588823228346457
21
0.2734005511811023
0
LINE
8
BLACK
6
CONTINUOUS
10
1.2588823228346457
20
0.2734005511811023
11
1.2602808267716534
21
0.2706847637795275
0
LINE
8
BLACK
6
CONTINUOUS
10
1.2602808267716534
20
0.2706847637795275
11
1.2615142125984251
21
0.2694940157480315
0
LINE
8
BLACK
6
CONTINUOUS
10
1.2615142125984251
20
0.2694940157480315
11
1.2646644488188976
21
0.2679654724409449
0
LINE
8
BLACK
6
CONTINUOUS
10
1.2646644488188976
20
0.2679654724409449
11
1.2714958661417322
21
0.2663071259842519
0
LINE
8
BLACK
6
CONTINUOUS
10
1.2714958661417322
20
0.2663071259842519
11
1.2801444094488188
21
0.2663564566929134
0
LINE
8
BLACK
6
CONTINUOUS
10
1.2801444094488188
20
0.2663564566929134
11
1.2869700787401575
21
0.2681124803149606
0
LINE
8
BLACK
6
CONTINUOUS
10
1.2869700787401575
20
0.2681124803149606
11
1.2899024015748031
21
0.2696225196850394
0
LINE
8
BLACK
6
CONTINUOUS
10
1.2899024015748031
20
0.2696225196850394
11
1.2910931889763779
21
0.2708558661417323
0
LINE
8
BLACK
6
CONTINUOUS
10
1.2910931889763779
20
0.2708558661417323
11
1.2923942913385826
21
0.2735373228346457
0
LINE
8
BLACK
6
CONTINUOUS
10
1.2923942913385826
20
0.2735373228346457
11
1.2923632283464566
21
0.2759058661417323
0
LINE
8
BLACK
6
CONTINUOUS
10
1.2923632283464566
20
0.2759058661417323
11
1.2909647244094489
21
0.2786216141732283
0
LINE
8
BLACK
6
CONTINUOUS
10
1.2909647244094489
20
0.2786216141732283
11
1.2897313385826772
21
0.2798123622047244
0
LINE
8
BLACK
6
CONTINUOUS
10
1.2897313385826772
20
0.2798123622047244
11
1.2865810629921259
21
0.2813409448818898
0
LINE
8
BLACK
6
CONTINUOUS
10
1.2865810629921259
20
0.2813409448818898
11
1.2797496456692914
21
0.2829992913385826
0
LINE
8
BLACK
6
CONTINUOUS
10
1.2797496456692914
20
0.2829992913385826
11
1.2711011023622047
21
0.2829499606299212
0
LINE
8
BLACK
6
CONTINUOUS
10
1.2958838976377953
20
0.3694127559055118
11
1.2969483070866141
21
0.3689718503937008
0
LINE
8
BLACK
6
CONTINUOUS
10
1.2969483070866141
20
0.3689718503937008
11
1.2977629527559056
21
0.3681572047244094
0
LINE
8
BLACK
6
CONTINUOUS
10
1.2977629527559056
20
0.3681572047244094
11
1.2982038582677164
21
0.3670927952755905
0
LINE
8
BLACK
6
CONTINUOUS
10
1.2982038582677164
20
0.3670927952755905
11
1.2982038582677164
21
0.3659406692913386
0
LINE
8
BLACK
6
CONTINUOUS
10
1.2982038582677164
20
0.3659406692913386
11
1.2977629527559056
21
0.3648762598425197
0
LINE
8
BLACK
6
CONTINUOUS
10
1.2977629527559056
20
0.3648762598425197
11
1.2969483070866141
21
0.3640616141732284
0
LINE
8
BLACK
6
CONTINUOUS
10
1.2969483070866141
20
0.3640616141732284
11
1.2958838976377953
21
0.3636207086614173
0
LINE
8
BLACK
6
CONTINUOUS
10
1.2958838976377953
20
0.3636207086614173
11
1.2752948031496063
21
0.3635656299212598
0
LINE
8
BLACK
6
CONTINUOUS
10
1.2752948031496063
20
0.3635656299212598
11
1.2730886614173229
21
0.3624295669291339
0
LINE
8
BLACK
6
CONTINUOUS
10
1.2730886614173229
20
0.3624295669291339
11
1.271969409448819
21
0.3601228346456693
0
LINE
8
BLACK
6
CONTINUOUS
10
1.271969409448819
20
0.3601228346456693
11
1.2720081889763779
21
0.3558853543307087
0
LINE
8
BLACK
6
CONTINUOUS
10
1.2720081889763779
20
0.3558853543307087
11
1.2731482677165353
21
0.3536714173228346
0
LINE
8
BLACK
6
CONTINUOUS
10
1.2731482677165353
20
0.3536714173228346
11
1.2754728346456692
21
0.3525435039370078
0
LINE
8
BLACK
6
CONTINUOUS
10
1.2754728346456692
20
0.3525435039370078
11
1.2953078346456692
21
0.3525965748031496
0
LINE
8
BLACK
6
CONTINUOUS
10
1.2953078346456692
20
0.3525965748031496
11
1.2958838976377953
21
0.352539842519685
0
LINE
8
BLACK
6
CONTINUOUS
10
1.2958838976377953
20
0.352539842519685
11
1.2969483070866141
21
0.352098937007874
0
LINE
8
BLACK
6
CONTINUOUS
10
1.2969483070866141
20
0.352098937007874
11
1.2977629527559056
21
0.3512842913385827
0
LINE
8
BLACK
6
CONTINUOUS
10
1.2977629527559056
20
0.3512842913385827
11
1.2982038582677164
21
0.3502198818897638
0
LINE
8
BLACK
6
CONTINUOUS
10
1.2982038582677164
20
0.3502198818897638
11
1.2982038582677164
21
0.3490677559055118
0
LINE
8
BLACK
6
CONTINUOUS
10
1.2982038582677164
20
0.3490677559055118
11
1.2977629527559056
21
0.3480033464566929
0
LINE
8
BLACK
6
CONTINUOUS
10
1.2977629527559056
20
0.3480033464566929
11
1.2969483070866141
21
0.3471887007874015
0
LINE
8
BLACK
6
CONTINUOUS
10
1.2969483070866141
20
0.3471887007874015
11
1.2958838976377953
21
0.3467477952755905
0
LINE
8
BLACK
6
CONTINUOUS
10
1.2958838976377953
20
0.3467477952755905
11
1.2752948031496063
21
0.346692716535433
0
LINE
8
BLACK
6
CONTINUOUS
10
1.2752948031496063
20
0.346692716535433
11
1.2730887007874014
21
0.3455566535433071
0
LINE
8
BLACK
6
CONTINUOUS
10
1.2730887007874014
20
0.3455566535433071
11
1.271969409448819
21
0.3432499606299212
0
LINE
8
BLACK
6
CONTINUOUS
10
1.271969409448819
20
0.3432499606299212
11
1.2720081889763779
21
0.3390124803149606
0
LINE
8
BLACK
6
CONTINUOUS
10
1.2720081889763779
20
0.3390124803149606
11
1.2734041732283465
21
0.3363015748031496
0
LINE
8
BLACK
6
CONTINUOUS
10
1.2734041732283465
20
0.3363015748031496
11
1.2740492913385826
21
0.3356787401574803
0
LINE
8
BLACK
6
CONTINUOUS
10
1.2740492913385826
20
0.3356787401574803
11
1.2953078346456692
21
0.3357237007874015
0
LINE
8
BLACK
6
CONTINUOUS
10
1.2953078346456692
20
0.3357237007874015
11
1.2958838976377953
21
0.335666968503937
0
LINE
8
BLACK
6
CONTINUOUS
10
1.2958838976377953
20
0.335666968503937
11
1.2969483070866141
21
0.335226062992126
0
LINE
8
BLACK
6
CONTINUOUS
10
1.2969483070866141
20
0.335226062992126
11
1.2977629527559056
21
0.3344114173228346
0
LINE
8
BLACK
6
CONTINUOUS
10
1.2977629527559056
20
0.3344114173228346
11
1.2982038582677164
21
0.3333470078740157
0
LINE
8
BLACK
6
CONTINUOUS
10
1.2982038582677164
20
0.3333470078740157
11
1.2982038582677164
21
0.3321948818897638
0
LINE
8
BLACK
6
CONTINUOUS
10
1.2982038582677164
20
0.3321948818897638
11
1.2977629527559056
21
0.3311304724409449
0
LINE
8
BLACK
6
CONTINUOUS
10
1.2977629527559056
20
0.3311304724409449
11
1.2969483070866141
21
0.3303158267716536
0
LINE
8
BLACK
6
CONTINUOUS
10
1.2969483070866141
20
0.3303158267716536
11
1.2958838976377953
21
0.3298749212598425
0
LINE
8
BLACK
6
CONTINUOUS
10
1.2958838976377953
20
0.3298749212598425
11
1.2690611023622047
21
0.3298181889763779
0
LINE
8
BLACK
6
CONTINUOUS
10
1.2690611023622047
20
0.3298181889763779
11
1.2684850393700786
21
0.3298749212598425
0
LINE
8
BLACK
6
CONTINUOUS
10
1.2684850393700786
20
0.3298749212598425
11
1.2674206299212598
21
0.3303158267716536
0
LINE
8
BLACK
6
CONTINUOUS
10
1.2674206299212598
20
0.3303158267716536
11
1.2666059842519686
21
0.3311304724409449
0
LINE
8
BLACK
6
CONTINUOUS
10
1.2666059842519686
20
0.3311304724409449
11
1.2661650787401575
21
0.3321948818897638
0
LINE
8
BLACK
6
CONTINUOUS
10
1.2661650787401575
20
0.3321948818897638
11
1.2661650787401575
21
0.3333470078740157
0
LINE
8
BLACK
6
CONTINUOUS
10
1.2661650787401575
20
0.3333470078740157
11
1.2666059842519686
21
0.3344114173228346
0
LINE
8
BLACK
6
CONTINUOUS
10
1.2666059842519686
20
0.3344114173228346
11
1.2673885433070866
21
0.3351940157480315
0
LINE
8
BLACK
6
CONTINUOUS
10
1.2673885433070866
20
0.3351940157480315
11
1.2664200787401574
21
0.3370747244094488
0
LINE
8
BLACK
6
CONTINUOUS
10
1.2664200787401574
20
0.3370747244094488
11
1.2662131889763779
21
0.3376153543307087
0
LINE
8
BLACK
6
CONTINUOUS
10
1.2662131889763779
20
0.3376153543307087
11
1.2662056692913386
21
0.3377211811023622
0
LINE
8
BLACK
6
CONTINUOUS
10
1.2662056692913386
20
0.3377211811023622
11
1.2661650787401575
21
0.3378191732283464
0
LINE
8
BLACK
6
CONTINUOUS
10
1.2661650787401575
20
0.3378191732283464
11
1.2661600787401575
21
0.3383624409448819
0
LINE
8
BLACK
6
CONTINUOUS
10
1.2661600787401575
20
0.3383624409448819
11
1.2661315354330709
21
0.3387645669291339
0
LINE
8
BLACK
6
CONTINUOUS
10
1.2661315354330709
20
0.3387645669291339
11
1.266155748031496
21
0.3388372834645669
0
LINE
8
BLACK
6
CONTINUOUS
10
1.266155748031496
20
0.3388372834645669
11
1.2661083464566929
21
0.3440195275590551
0
LINE
8
BLACK
6
CONTINUOUS
10
1.2661083464566929
20
0.3440195275590551
11
1.2661650787401575
21
0.3445955905511811
0
LINE
8
BLACK
6
CONTINUOUS
10
1.2661650787401575
20
0.3445955905511811
11
1.2662056692913386
21
0.3446936220472441
0
LINE
8
BLACK
6
CONTINUOUS
10
1.2662056692913386
20
0.3446936220472441
11
1.2662131889763779
21
0.3447994094488189
0
LINE
8
BLACK
6
CONTINUOUS
10
1.2662131889763779
20
0.3447994094488189
11
1.2664613779527558
21
0.3453109842519685
0
LINE
8
BLACK
6
CONTINUOUS
10
1.2664613779527558
20
0.3453109842519685
11
1.2666059842519686
21
0.34566
0
LINE
8
BLACK
6
CONTINUOUS
10
1.2666059842519686
20
0.34566
11
1.266654094488189
21
0.3457081496062992
0
LINE
8
BLACK
6
CONTINUOUS
10
1.266654094488189
20
0.3457081496062992
11
1.2682948425196849
21
0.3490895669291338
0
LINE
8
BLACK
6
CONTINUOUS
10
1.2682948425196849
20
0.3490895669291338
11
1.2683554724409449
21
0.3491859448818898
0
LINE
8
BLACK
6
CONTINUOUS
10
1.2683554724409449
20
0.3491859448818898
11
1.2683706299212598
21
0.3492313385826771
0
LINE
8
BLACK
6
CONTINUOUS
10
1.2683706299212598
20
0.3492313385826771
11
1.2684196456692913
21
0.3492879133858268
0
LINE
8
BLACK
6
CONTINUOUS
10
1.2684196456692913
20
0.3492879133858268
11
1.268603188976378
21
0.3495794488188976
0
LINE
8
BLACK
6
CONTINUOUS
10
1.268603188976378
20
0.3495794488188976
11
1.268677401574803
21
0.3496438188976378
0
LINE
8
BLACK
6
CONTINUOUS
10
1.268677401574803
20
0.3496438188976378
11
1.268603188976378
21
0.349708188976378
0
LINE
8
BLACK
6
CONTINUOUS
10
1.268603188976378
20
0.349708188976378
11
1.2685018110236219
21
0.3499050393700787
0
LINE
8
BLACK
6
CONTINUOUS
10
1.2685018110236219
20
0.3499050393700787
11
1.2683706299212598
21
0.3500562992125984
0
LINE
8
BLACK
6
CONTINUOUS
10
1.2683706299212598
20
0.3500562992125984
11
1.2682727952755906
21
0.3503498031496063
0
LINE
8
BLACK
6
CONTINUOUS
10
1.2682727952755906
20
0.3503498031496063
11
1.2664200787401574
21
0.3539475984251969
0
LINE
8
BLACK
6
CONTINUOUS
10
1.2664200787401574
20
0.3539475984251969
11
1.2662131889763779
21
0.3544882283464567
0
LINE
8
BLACK
6
CONTINUOUS
10
1.2662131889763779
20
0.3544882283464567
11
1.2662056692913386
21
0.3545940551181102
0
LINE
8
BLACK
6
CONTINUOUS
10
1.2662056692913386
20
0.3545940551181102
11
1.2661650787401575
21
0.3546920472440945
0
LINE
8
BLACK
6
CONTINUOUS
10
1.2661650787401575
20
0.3546920472440945
11
1.2661600787401575
21
0.3552353149606299
0
LINE
8
BLACK
6
CONTINUOUS
10
1.2661600787401575
20
0.3552353149606299
11
1.2661315354330709
21
0.3556374409448819
0
LINE
8
BLACK
6
CONTINUOUS
10
1.2661315354330709
20
0.3556374409448819
11
1.266155748031496
21
0.3557101574803149
0
LINE
8
BLACK
6
CONTINUOUS
10
1.266155748031496
20
0.3557101574803149
11
1.2661083464566929
21
0.3608924015748031
0
LINE
8
BLACK
6
CONTINUOUS
10
1.2661083464566929
20
0.3608924015748031
11
1.2661650787401575
21
0.3614684645669291
0
LINE
8
BLACK
6
CONTINUOUS
10
1.2661650787401575
20
0.3614684645669291
11
1.2662056692913386
21
0.3615664960629921
0
LINE
8
BLACK
6
CONTINUOUS
10
1.2662056692913386
20
0.3615664960629921
11
1.2662131889763779
21
0.3616722834645669
0
LINE
8
BLACK
6
CONTINUOUS
10
1.2662131889763779
20
0.3616722834645669
11
1.2664614173228346
21
0.3621838976377953
0
LINE
8
BLACK
6
CONTINUOUS
10
1.2664614173228346
20
0.3621838976377953
11
1.2666059842519686
21
0.362532874015748
0
LINE
8
BLACK
6
CONTINUOUS
10
1.2666059842519686
20
0.362532874015748
11
1.266654094488189
21
0.3625810236220472
0
LINE
8
BLACK
6
CONTINUOUS
10
1.266654094488189
20
0.3625810236220472
11
1.2682948425196849
21
0.3659624803149606
0
LINE
8
BLACK
6
CONTINUOUS
10
1.2682948425196849
20
0.3659624803149606
11
1.2683554724409449
21
0.3660588188976378
0
LINE
8
BLACK
6
CONTINUOUS
10
1.2683554724409449
20
0.3660588188976378
11
1.2683706299212598
21
0.3661042519685039
0
LINE
8
BLACK
6
CONTINUOUS
10
1.2683706299212598
20
0.3661042519685039
11
1.2684196850393701
21
0.3661608661417323
0
LINE
8
BLACK
6
CONTINUOUS
10
1.2684196850393701
20
0.3661608661417323
11
1.268603188976378
21
0.3664523228346457
0
LINE
8
BLACK
6
CONTINUOUS
10
1.268603188976378
20
0.3664523228346457
11
1.2688827952755906
21
0.366694842519685
0
LINE
8
BLACK
6
CONTINUOUS
10
1.2688827952755906
20
0.366694842519685
11
1.2691254724409449
21
0.3669746456692913
0
LINE
8
BLACK
6
CONTINUOUS
10
1.2691254724409449
20
0.3669746456692913
11
1.269322283464567
21
0.3670760236220472
0
LINE
8
BLACK
6
CONTINUOUS
10
1.269322283464567
20
0.3670760236220472
11
1.2694735826771653
21
0.3672072047244094
0
LINE
8
BLACK
6
CONTINUOUS
10
1.2694735826771653
20
0.3672072047244094
11
1.2697670472440945
21
0.3673050393700787
0
LINE
8
BLACK
6
CONTINUOUS
10
1.2697670472440945
20
0.3673050393700787
11
1.2733648818897638
21
0.3691577559055118
0
LINE
8
BLACK
6
CONTINUOUS
10
1.2733648818897638
20
0.3691577559055118
11
1.2739054724409449
21
0.3693646456692913
0
LINE
8
BLACK
6
CONTINUOUS
10
1.2739054724409449
20
0.3693646456692913
11
1.2740113385826772
21
0.3693722047244095
0
LINE
8
BLACK
6
CONTINUOUS
10
1.2740113385826772
20
0.3693722047244095
11
1.2741093307086613
21
0.3694127559055118
0
LINE
8
BLACK
6
CONTINUOUS
10
1.2741093307086613
20
0.3694127559055118
11
1.2746011023622046
21
0.369414094488189
0
LINE
8
BLACK
6
CONTINUOUS
10
1.2746011023622046
20
0.369414094488189
11
1.27505468503937
21
0.3694462992125984
0
LINE
8
BLACK
6
CONTINUOUS
10
1.27505468503937
20
0.3694462992125984
11
1.2751469685039369
21
0.3694155511811024
0
LINE
8
BLACK
6
CONTINUOUS
10
1.2751469685039369
20
0.3694155511811024
11
1.2953078346456692
21
0.3694694881889763
0
LINE
8
BLACK
6
CONTINUOUS
10
1.2953078346456692
20
0.3694694881889763
11
1.2958838976377953
21
0.3694127559055118
0
LINE
8
BLACK
6
CONTINUOUS
10
1.2958838976377953
20
0.4219061811023622
11
1.2969483070866141
21
0.4214652755905512
0
LINE
8
BLACK
6
CONTINUOUS
10
1.2969483070866141
20
0.4214652755905512
11
1.2977629527559056
21
0.4206506299212598
0
LINE
8
BLACK
6
CONTINUOUS
10
1.2977629527559056
20
0.4206506299212598
11
1.2982038582677164
21
0.4195862204724409
0
LINE
8
BLACK
6
CONTINUOUS
10
1.2982038582677164
20
0.4195862204724409
11
1.2982038582677164
21
0.418434094488189
0
LINE
8
BLACK
6
CONTINUOUS
10
1.2982038582677164
20
0.418434094488189
11
1.2977629527559056
21
0.4173696850393701
0
LINE
8
BLACK
6
CONTINUOUS
10
1.2977629527559056
20
0.4173696850393701
11
1.2969483070866141
21
0.4165550393700787
0
LINE
8
BLACK
6
CONTINUOUS
10
1.2969483070866141
20
0.4165550393700787
11
1.2958838976377953
21
0.4161141338582677
0
LINE
8
BLACK
6
CONTINUOUS
10
1.2958838976377953
20
0.4161141338582677
11
1.2752948031496063
21
0.4160590551181102
0
LINE
8
BLACK
6
CONTINUOUS
10
1.2752948031496063
20
0.4160590551181102
11
1.2730886614173229
21
0.4149229921259843
0
LINE
8
BLACK
6
CONTINUOUS
10
1.2730886614173229
20
0.4149229921259843
11
1.271969409448819
21
0.4126162598425197
0
LINE
8
BLACK
6
CONTINUOUS
10
1.271969409448819
20
0.4126162598425197
11
1.2720081889763779
21
0.408378779527559
0
LINE
8
BLACK
6
CONTINUOUS
10
1.2720081889763779
20
0.408378779527559
11
1.2731482677165353
21
0.406164842519685
0
LINE
8
BLACK
6
CONTINUOUS
10
1.2731482677165353
20
0.406164842519685
11
1.2754728346456692
21
0.4050369291338582
0
LINE
8
BLACK
6
CONTINUOUS
10
1.2754728346456692
20
0.4050369291338582
11
1.2953078346456692
21
0.40509
0
LINE
8
BLACK
6
CONTINUOUS
10
1.2953078346456692
20
0.40509
11
1.2958838976377953
21
0.4050332677165354
0
LINE
8
BLACK
6
CONTINUOUS
10
1.2958838976377953
20
0.4050332677165354
11
1.2969483070866141
21
0.4045923622047244
0
LINE
8
BLACK
6
CONTINUOUS
10
1.2969483070866141
20
0.4045923622047244
11
1.2977629527559056
21
0.403777716535433
0
LINE
8
BLACK
6
CONTINUOUS
10
1.2977629527559056
20
0.403777716535433
11
1.2982038582677164
21
0.4027133070866142
0
LINE
8
BLACK
6
CONTINUOUS
10
1.2982038582677164
20
0.4027133070866142
11
1.2982038582677164
21
0.4015611811023622
0
LINE
8
BLACK
6
CONTINUOUS
10
1.2982038582677164
20
0.4015611811023622
11
1.2977629527559056
21
0.4004967716535433
0
LINE
8
BLACK
6
CONTINUOUS
10
1.2977629527559056
20
0.4004967716535433
11
1.2969483070866141
21
0.399682125984252
0
LINE
8
BLACK
6
CONTINUOUS
10
1.2969483070866141
20
0.399682125984252
11
1.2958838976377953
21
0.3992412204724409
0
LINE
8
BLACK
6
CONTINUOUS
10
1.2958838976377953
20
0.3992412204724409
11
1.2752948031496063
21
0.3991861417322835
0
LINE
8
BLACK
6
CONTINUOUS
10
1.2752948031496063
20
0.3991861417322835
11
1.2730887007874014
21
0.3980500787401575
0
LINE
8
BLACK
6
CONTINUOUS
10
1.2730887007874014
20
0.3980500787401575
11
1.271969409448819
21
0.3957433858267717
0
LINE
8
BLACK
6
CONTINUOUS
10
1.271969409448819
20
0.3957433858267717
11
1.2720081889763779
21
0.391505905511811
0
LINE
8
BLACK
6
CONTINUOUS
10
1.2720081889763779
20
0.391505905511811
11
1.2734041732283465
21
0.388795
0
LINE
8
BLACK
6
CONTINUOUS
10
1.2734041732283465
20
0.388795
11
1.2740492913385826
21
0.3881721653543307
0
LINE
8
BLACK
6
CONTINUOUS
10
1.2740492913385826
20
0.3881721653543307
11
1.2953078346456692
21
0.388217125984252
0
LINE
8
BLACK
6
CONTINUOUS
10
1.2953078346456692
20
0.388217125984252
11
1.2958838976377953
21
0.3881603937007874
0
LINE
8
BLACK
6
CONTINUOUS
10
1.2958838976377953
20
0.3881603937007874
11
1.2969483070866141
21
0.3877194881889764
0
LINE
8
BLACK
6
CONTINUOUS
10
1.2969483070866141
20
0.3877194881889764
11
1.2977629527559056
21
0.386904842519685
0
LINE
8
BLACK
6
CONTINUOUS
10
1.2977629527559056
20
0.386904842519685
11
1.2982038582677164
21
0.3858404330708661
0
LINE
8
BLACK
6
CONTINUOUS
10
1.2982038582677164
20
0.3858404330708661
11
1.2982038582677164
21
0.3846883070866142
0
LINE
8
BLACK
6
CONTINUOUS
10
1.2982038582677164
20
0.3846883070866142
11
1.2977629527559056
21
0.3836238976377953
0
LINE
8
BLACK
6
CONTINUOUS
10
1.2977629527559056
20
0.3836238976377953
11
1.2969483070866141
21
0.3828092519685039
0
LINE
8
BLACK
6
CONTINUOUS
10
1.2969483070866141
20
0.3828092519685039
11
1.2958838976377953
21
0.3823683464566929
0
LINE
8
BLACK
6
CONTINUOUS
10
1.2958838976377953
20
0.3823683464566929
11
1.2690611023622047
21
0.3823116141732283
0
LINE
8
BLACK
6
CONTINUOUS
10
1.2690611023622047
20
0.3823116141732283
11
1.2684850393700786
21
0.3823683464566929
0
LINE
8
BLACK
6
CONTINUOUS
10
1.2684850393700786
20
0.3823683464566929
11
1.2674206299212598
21
0.3828092519685039
0
LINE
8
BLACK
6
CONTINUOUS
10
1.2674206299212598
20
0.3828092519685039
11
1.2666059842519686
21
0.3836238976377953
0
LINE
8
BLACK
6
CONTINUOUS
10
1.2666059842519686
20
0.3836238976377953
11
1.2661650787401575
21
0.3846883070866142
0
LINE
8
BLACK
6
CONTINUOUS
10
1.2661650787401575
20
0.3846883070866142
11
1.2661650787401575
21
0.3858404330708661
0
LINE
8
BLACK
6
CONTINUOUS
10
1.2661650787401575
20
0.3858404330708661
11
1.2666059842519686
21
0.386904842519685
0
LINE
8
BLACK
6
CONTINUOUS
10
1.2666059842519686
20
0.386904842519685
11
1.2673885433070866
21
0.3876874409448819
0
LINE
8
BLACK
6
CONTINUOUS
10
1.2673885433070866
20
0.3876874409448819
11
1.2664200787401574
21
0.3895681496062992
0
LINE
8
BLACK
6
CONTINUOUS
10
1.2664200787401574
20
0.3895681496062992
11
1.2662131889763779
21
0.3901087795275591
0
LINE
8
BLACK
6
CONTINUOUS
10
1.2662131889763779
20
0.3901087795275591
11
1.2662056692913386
21
0.3902146062992126
0
LINE
8
BLACK
6
CONTINUOUS
10
1.2662056692913386
20
0.3902146062992126
11
1.2661650787401575
21
0.3903125984251968
0
LINE
8
BLACK
6
CONTINUOUS
10
1.2661650787401575
20
0.3903125984251968
11
1.2661600787401575
21
0.3908558661417323
0
LINE
8
BLACK
6
CONTINUOUS
10
1.2661600787401575
20
0.3908558661417323
11
1.2661315354330709
21
0.3912579921259842
0
LINE
8
BLACK
6
CONTINUOUS
10
1.2661315354330709
20
0.3912579921259842
11
1.266155748031496
21
0.3913307086614173
0
LINE
8
BLACK
6
CONTINUOUS
10
1.266155748031496
20
0.3913307086614173
11
1.2661083464566929
21
0.3965129527559055
0
LINE
8
BLACK
6
CONTINUOUS
10
1.2661083464566929
20
0.3965129527559055
11
1.2661650787401575
21
0.3970890157480315
0
LINE
8
BLACK
6
CONTINUOUS
10
1.2661650787401575
20
0.3970890157480315
11
1.2662056692913386
21
0.3971870472440945
0
LINE
8
BLACK
6
CONTINUOUS
10
1.2662056692913386
20
0.3971870472440945
11
1.2662131889763779
21
0.3972928346456693
0
LINE
8
BLACK
6
CONTINUOUS
10
1.2662131889763779
20
0.3972928346456693
11
1.2664613779527558
21
0.3978044094488189
0
LINE
8
BLACK
6
CONTINUOUS
10
1.2664613779527558
20
0.3978044094488189
11
1.2666059842519686
21
0.3981534251968504
0
LINE
8
BLACK
6
CONTINUOUS
10
1.2666059842519686
20
0.3981534251968504
11
1.266654094488189
21
0.3982015748031496
0
LINE
8
BLACK
6
CONTINUOUS
10
1.266654094488189
20
0.3982015748031496
11
1.2682948425196849
21
0.4015829921259843
0
LINE
8
BLACK
6
CONTINUOUS
10
1.2682948425196849
20
0.4015829921259843
11
1.2683554724409449
21
0.4016793700787402
0
LINE
8
BLACK
6
CONTINUOUS
10
1.2683554724409449
20
0.4016793700787402
11
1.2683706299212598
21
0.4017247637795275
0
LINE
8
BLACK
6
CONTINUOUS
10
1.2683706299212598
20
0.4017247637795275
11
1.2684196456692913
21
0.4017813385826772
0
LINE
8
BLACK
6
CONTINUOUS
10
1.2684196456692913
20
0.4017813385826772
11
1.268603188976378
21
0.402072874015748
0
LINE
8
BLACK
6
CONTINUOUS
10
1.268603188976378
20
0.402072874015748
11
1.268677401574803
21
0.4021372440944882
0
LINE
8
BLACK
6
CONTINUOUS
10
1.268677401574803
20
0.4021372440944882
11
1.268603188976378
21
0.4022016141732284
0
LINE
8
BLACK
6
CONTINUOUS
10
1.268603188976378
20
0.4022016141732284
11
1.2685018110236219
21
0.4023984645669291
0
LINE
8
BLACK
6
CONTINUOUS
10
1.2685018110236219
20
0.4023984645669291
11
1.2683706299212598
21
0.4025497244094488
0
LINE
8
BLACK
6
CONTINUOUS
10
1.2683706299212598
20
0.4025497244094488
11
1.2682727952755906
21
0.4028432283464567
0
LINE
8
BLACK
6
CONTINUOUS
10
1.2682727952755906
20
0.4028432283464567
11
1.2664200787401574
21
0.4064410236220473
0
LINE
8
BLACK
6
CONTINUOUS
10
1.2664200787401574
20
0.4064410236220473
11
1.2662131889763779
21
0.4069816535433071
0
LINE
8
BLACK
6
CONTINUOUS
10
1.2662131889763779
20
0.4069816535433071
11
1.2662056692913386
21
0.4070874803149606
0
LINE
8
BLACK
6
CONTINUOUS
10
1.2662056692913386
20
0.4070874803149606
11
1.2661650787401575
21
0.4071854724409449
0
LINE
8
BLACK
6
CONTINUOUS
10
1.2661650787401575
20
0.4071854724409449
11
1.2661600787401575
21
0.4077287401574803
0
LINE
8
BLACK
6
CONTINUOUS
10
1.2661600787401575
20
0.4077287401574803
11
1.2661315354330709
21
0.4081308661417323
0
LINE
8
BLACK
6
CONTINUOUS
10
1.2661315354330709
20
0.4081308661417323
11
1.266155748031496
21
0.4082035826771653
0
LINE
8
BLACK
6
CONTINUOUS
10
1.266155748031496
20
0.4082035826771653
11
1.2661083464566929
21
0.4133858267716535
0
LINE
8
BLACK
6
CONTINUOUS
10
1.2661083464566929
20
0.4133858267716535
11
1.2661650787401575
21
0.4139618897637795
0
LINE
8
BLACK
6
CONTINUOUS
10
1.2661650787401575
20
0.4139618897637795
11
1.2662056692913386
21
0.4140599212598425
0
LINE
8
BLACK
6
CONTINUOUS
10
1.2662056692913386
20
0.4140599212598425
11
1.2662131889763779
21
0.4141657086614173
0
LINE
8
BLACK
6
CONTINUOUS
10
1.2662131889763779
20
0.4141657086614173
11
1.2664614173228346
21
0.4146773228346456
0
LINE
8
BLACK
6
CONTINUOUS
10
1.2664614173228346
20
0.4146773228346456
11
1.2666059842519686
21
0.4150262992125984
0
LINE
8
BLACK
6
CONTINUOUS
10
1.2666059842519686
20
0.4150262992125984
11
1.266654094488189
21
0.4150744488188976
0
LINE
8
BLACK
6
CONTINUOUS
10
1.266654094488189
20
0.4150744488188976
11
1.2682948425196849
21
0.418455905511811
0
LINE
8
BLACK
6
CONTINUOUS
10
1.2682948425196849
20
0.418455905511811
11
1.2683554724409449
21
0.4185522440944882
0
LINE
8
BLACK
6
CONTINUOUS
10
1.2683554724409449
20
0.4185522440944882
11
1.2683706299212598
21
0.4185976771653543
0
LINE
8
BLACK
6
CONTINUOUS
10
1.2683706299212598
20
0.4185976771653543
11
1.2684196850393701
21
0.4186542913385827
0
LINE
8
BLACK
6
CONTINUOUS
10
1.2684196850393701
20
0.4186542913385827
11
1.268603188976378
21
0.418945748031496
0
LINE
8
BLACK
6
CONTINUOUS
10
1.268603188976378
20
0.418945748031496
11
1.2688827952755906
21
0.4191882677165354
0
LINE
8
BLACK
6
CONTINUOUS
10
1.2688827952755906
20
0.4191882677165354
11
1.2691254724409449
21
0.4194680708661417
0
LINE
8
BLACK
6
CONTINUOUS
10
1.2691254724409449
20
0.4194680708661417
11
1.269322283464567
21
0.4195694488188976
0
LINE
8
BLACK
6
CONTINUOUS
10
1.269322283464567
20
0.4195694488188976
11
1.2694735826771653
21
0.4197006299212598
0
LINE
8
BLACK
6
CONTINUOUS
10
1.2694735826771653
20
0.4197006299212598
11
1.2697670472440945
21
0.4197984645669291
0
LINE
8
BLACK
6
CONTINUOUS
10
1.2697670472440945
20
0.4197984645669291
11
1.2733648818897638
21
0.4216511811023622
0
LINE
8
BLACK
6
CONTINUOUS
10
1.2733648818897638
20
0.4216511811023622
11
1.2739054724409449
21
0.4218580708661417
0
LINE
8
BLACK
6
CONTINUOUS
10
1.2739054724409449
20
0.4218580708661417
11
1.2740113385826772
21
0.4218656299212598
0
LINE
8
BLACK
6
CONTINUOUS
10
1.2740113385826772
20
0.4218656299212598
11
1.2741093307086613
21
0.4219061811023622
0
LINE
8
BLACK
6
CONTINUOUS
10
1.2741093307086613
20
0.4219061811023622
11
1.2746011023622046
21
0.4219075196850394
0
LINE
8
BLACK
6
CONTINUOUS
10
1.2746011023622046
20
0.4219075196850394
11
1.27505468503937
21
0.4219397244094488
0
LINE
8
BLACK
6
CONTINUOUS
10
1.27505468503937
20
0.4219397244094488
11
1.2751469685039369
21
0.4219089763779528
0
LINE
8
BLACK
6
CONTINUOUS
10
1.2751469685039369
20
0.4219089763779528
11
1.2953078346456692
21
0.4219629133858268
0
LINE
8
BLACK
6
CONTINUOUS
10
1.2953078346456692
20
0.4219629133858268
11
1.2958838976377953
21
0.4219061811023622
0
LINE
8
BLACK
6
CONTINUOUS
10
1.1791529921259842
20
0.7451131102362205
11
1.1791338582677164
21
0.7649771653543307
0
LINE
8
BLACK
6
CONTINUOUS
10
1.1791338582677164
20
0.7649771653543307
11
1.1792837007874015
21
0.7657304724409448
0
LINE
8
BLACK
6
CONTINUOUS
10
1.1792837007874015
20
0.7657304724409448
11
1.1803490551181102
21
0.7667958267716535
0
LINE
8
BLACK
6
CONTINUOUS
10
1.1803490551181102
20
0.7667958267716535
11
1.1818556692913385
21
0.7667958267716535
0
LINE
8
BLACK
6
CONTINUOUS
10
1.1818556692913385
20
0.7667958267716535
11
1.1829210236220473
21
0.7657304724409448
0
LINE
8
BLACK
6
CONTINUOUS
10
1.1829210236220473
20
0.7657304724409448
11
1.1829435826771653
21
0.7422913779527559
0
LINE
8
BLACK
6
CONTINUOUS
10
1.1829435826771653
20
0.7422913779527559
11
1.1830633464566929
21
0.7420613385826772
0
LINE
8
BLACK
6
CONTINUOUS
10
1.1830633464566929
20
0.7420613385826772
11
1.1830092519685038
21
0.7418897637795275
0
LINE
8
BLACK
6
CONTINUOUS
10
1.1830092519685038
20
0.7418897637795275
11
1.1830633464566929
21
0.741718188976378
0
LINE
8
BLACK
6
CONTINUOUS
10
1.1830633464566929
20
0.741718188976378
11
1.1829443700787401
21
0.7414896850393701
0
LINE
8
BLACK
6
CONTINUOUS
10
1.1829443700787401
20
0.7414896850393701
11
1.1830708661417322
21
0.610236220472441
0
LINE
8
BLACK
6
CONTINUOUS
10
1.1830708661417322
20
0.610236220472441
11
1.1829210236220473
21
0.6094829133858267
0
LINE
8
BLACK
6
CONTINUOUS
10
1.1829210236220473
20
0.6094829133858267
11
1.1818556692913385
21
0.6084175590551181
0
LINE
8
BLACK
6
CONTINUOUS
10
1.1818556692913385
20
0.6084175590551181
11
1.1803490551181102
21
0.6084175590551181
0
LINE
8
BLACK
6
CONTINUOUS
10
1.1803490551181102
20
0.6084175590551181
11
1.1792837007874015
21
0.6094829133858267
0
LINE
8
BLACK
6
CONTINUOUS
10
1.1792837007874015
20
0.6094829133858267
11
1.1791590551181101
21
0.738814842519685
0
LINE
8
BLACK
6
CONTINUOUS
10
1.1791590551181101
20
0.738814842519685
11
1.137660748031496
21
0.7170562204724409
0
LINE
8
BLACK
6
CONTINUOUS
10
1.137660748031496
20
0.7170562204724409
11
1.1369233858267715
21
0.7168412992125984
0
LINE
8
BLACK
6
CONTINUOUS
10
1.1369233858267715
20
0.7168412992125984
11
1.135486496062992
21
0.7172943700787402
0
LINE
8
BLACK
6
CONTINUOUS
10
1.135486496062992
20
0.7172943700787402
11
1.1347907874015748
21
0.7186307480314961
0
LINE
8
BLACK
6
CONTINUOUS
10
1.1347907874015748
20
0.7186307480314961
11
1.1352438582677165
21
0.7200676377952756
0
LINE
8
BLACK
6
CONTINUOUS
10
1.1352438582677165
20
0.7200676377952756
11
1.1733926377952755
21
0.7400700393700788
0
LINE
8
BLACK
6
CONTINUOUS
10
1.1733926377952755
20
0.7400700393700788
11
0.0077729133858268
21
0.7399222834645669
0
LINE
8
BLACK
6
CONTINUOUS
10
0.0077729133858268
20
0.7399222834645669
11
0.0452594881889764
21
0.7205484251968504
0
LINE
8
BLACK
6
CONTINUOUS
10
0.0452594881889764
20
0.7205484251968504
11
0.0458585039370079
21
0.7200676771653544
0
LINE
8
BLACK
6
CONTINUOUS
10
0.0458585039370079
20
0.7200676771653544
11
0.0463115354330709
21
0.7186307480314961
0
LINE
8
BLACK
6
CONTINUOUS
10
0.0463115354330709
20
0.7186307480314961
11
0.0456158661417323
21
0.7172943700787402
0
LINE
8
BLACK
6
CONTINUOUS
10
0.0456158661417323
20
0.7172943700787402
11
0.0441789763779528
21
0.7168412992125984
0
LINE
8
BLACK
6
CONTINUOUS
10
0.0441789763779528
20
0.7168412992125984
11
0.0018446850393701
21
0.7387205511811024
0
LINE
8
BLACK
6
CONTINUOUS
10
0.0018446850393701
20
0.7387205511811024
11
0.0019685039370079
21
0.610236220472441
0
LINE
8
BLACK
6
CONTINUOUS
10
0.0019685039370079
20
0.610236220472441
11
0.0018186614173228
21
0.6094829133858267
0
LINE
8
BLACK
6
CONTINUOUS
10
0.0018186614173228
20
0.6094829133858267
11
0.0007533070866142
21
0.6084175590551181
0
LINE
8
BLACK
6
CONTINUOUS
10
0.0007533070866142
20
0.6084175590551181
11
-0.0007533070866142
21
0.6084175590551181
0
LINE
8
BLACK
6
CONTINUOUS
10
-0.0007533070866142
20
0.6084175590551181
11
-0.0018186614173228
21
0.6094829133858267
0
LINE
8
BLACK
6
CONTINUOUS
10
-0.0018186614173228
20
0.6094829133858267
11
-0.001946062992126
21
0.7416894881889764
0
LINE
8
BLACK
6
CONTINUOUS
10
-0.001946062992126
20
0.7416894881889764
11
-0.0019610236220472
21
0.741718188976378
0
LINE
8
BLACK
6
CONTINUOUS
10
-0.0019610236220472
20
0.741718188976378
11
-0.0019461417322835
21
0.7417654330708662
0
LINE
8
BLACK
6
CONTINUOUS
10
-0.0019461417322835
20
0.7417654330708662
11
-0.0019463779527559
21
0.7420149212598425
0
LINE
8
BLACK
6
CONTINUOUS
10
-0.0019463779527559
20
0.7420149212598425
11
-0.0019610236220472
21
0.7420613385826772
0
LINE
8
BLACK
6
CONTINUOUS
10
-0.0019610236220472
20
0.7420613385826772
11
-0.0019464566929134
21
0.7420893700787401
0
LINE
8
BLACK
6
CONTINUOUS
10
-0.0019464566929134
20
0.7420893700787401
11
-0.0019685039370079
21
0.7649771653543307
0
LINE
8
BLACK
6
CONTINUOUS
10
-0.0019685039370079
20
0.7649771653543307
11
-0.0018186614173228
21
0.7657304724409448
0
LINE
8
BLACK
6
CONTINUOUS
10
-0.0018186614173228
20
0.7657304724409448
11
-0.0007533070866142
21
0.7667958267716535
0
LINE
8
BLACK
6
CONTINUOUS
10
-0.0007533070866142
20
0.7667958267716535
11
0.0007533070866142
21
0.7667958267716535
0
LINE
8
BLACK
6
CONTINUOUS
10
0.0007533070866142
20
0.7667958267716535
11
0.0018186614173228
21
0.7657304724409448
0
LINE
8
BLACK
6
CONTINUOUS
10
0.0018186614173228
20
0.7657304724409448
11
0.0018387007874016
21
0.7449098425196851
0
LINE
8
BLACK
6
CONTINUOUS
10
0.0018387007874016
20
0.7449098425196851
11
0.0434415748031496
21
0.7667232677165354
0
LINE
8
BLACK
6
CONTINUOUS
10
0.0434415748031496
20
0.7667232677165354
11
0.0441789763779528
21
0.7669382283464566
0
LINE
8
BLACK
6
CONTINUOUS
10
0.0441789763779528
20
0.7669382283464566
11
0.0456158661417323
21
0.766485157480315
0
LINE
8
BLACK
6
CONTINUOUS
10
0.0456158661417323
20
0.766485157480315
11
0.0463115354330709
21
0.765148779527559
0
LINE
8
BLACK
6
CONTINUOUS
10
0.0463115354330709
20
0.765148779527559
11
0.0458585039370079
21
0.7637118503937008
0
LINE
8
BLACK
6
CONTINUOUS
10
0.0458585039370079
20
0.7637118503937008
11
0.0077097244094488
21
0.7437095275590551
0
LINE
8
BLACK
6
CONTINUOUS
10
0.0077097244094488
20
0.7437095275590551
11
1.1733294094488189
21
0.7438572834645669
0
LINE
8
BLACK
6
CONTINUOUS
10
1.1733294094488189
20
0.7438572834645669
11
1.135842874015748
21
0.7632311023622047
0
LINE
8
BLACK
6
CONTINUOUS
10
1.135842874015748
20
0.7632311023622047
11
1.1352438582677165
21
0.7637118897637795
0
LINE
8
BLACK
6
CONTINUOUS
10
1.1352438582677165
20
0.7637118897637795
11
1.1347907874015748
21
0.765148779527559
0
LINE
8
BLACK
6
CONTINUOUS
10
1.1347907874015748
20
0.765148779527559
11
1.135486496062992
21
0.766485157480315
0
LINE
8
BLACK
6
CONTINUOUS
10
1.135486496062992
20
0.766485157480315
11
1.1369233858267715
21
0.7669382283464566
0
LINE
8
BLACK
6
CONTINUOUS
10
1.1369233858267715
20
0.7669382283464566
11
1.1791529921259842
21
0.7451131102362205
0
LINE
8
BLACK
6
CONTINUOUS
10
0.4877437007874016
20
0.8115519291338582
11
0.4878211811023622
21
0.8115570866141733
0
LINE
8
BLACK
6
CONTINUOUS
10
0.4878211811023622
20
0.8115570866141733
11
0.4878745275590551
21
0.8115390551181102
0
LINE
8
BLACK
6
CONTINUOUS
10
0.4878745275590551
20
0.8115390551181102
11
0.4880151181102362
21
0.8115251968503937
0
LINE
8
BLACK
6
CONTINUOUS
10
0.4880151181102362
20
0.8115251968503937
11
0.4884583070866141
21
0.8113416141732284
0
LINE
8
BLACK
6
CONTINUOUS
10
0.4884583070866141
20
0.8113416141732284
11
0.4889125590551181
21
0.8111879921259842
0
LINE
8
BLACK
6
CONTINUOUS
10
0.4889125590551181
20
0.8111879921259842
11
0.4889875196850393
21
0.8111224409448818
0
LINE
8
BLACK
6
CONTINUOUS
10
0.4889875196850393
20
0.8111224409448818
11
0.4890795275590551
21
0.8110842913385826
0
LINE
8
BLACK
6
CONTINUOUS
10
0.4890795275590551
20
0.8110842913385826
11
0.4894185039370079
21
0.8107453149606298
0
LINE
8
BLACK
6
CONTINUOUS
10
0.4894185039370079
20
0.8107453149606298
11
0.4897796456692913
21
0.8104293307086614
0
LINE
8
BLACK
6
CONTINUOUS
10
0.4897796456692913
20
0.8104293307086614
11
0.4898238188976378
21
0.8103399999999999
0
LINE
8
BLACK
6
CONTINUOUS
10
0.4898238188976378
20
0.8103399999999999
11
0.4898941732283464
21
0.8102696456692913
0
LINE
8
BLACK
6
CONTINUOUS
10
0.4898941732283464
20
0.8102696456692913
11
0.4900776377952756
21
0.8098267322834646
0
LINE
8
BLACK
6
CONTINUOUS
10
0.4900776377952756
20
0.8098267322834646
11
0.4902903543307087
21
0.8093965748031496
0
LINE
8
BLACK
6
CONTINUOUS
10
0.4902903543307087
20
0.8093965748031496
11
0.490296968503937
21
0.8092972440944882
0
LINE
8
BLACK
6
CONTINUOUS
10
0.490296968503937
20
0.8092972440944882
11
0.4903350787401575
21
0.8092052362204725
0
LINE
8
BLACK
6
CONTINUOUS
10
0.4903350787401575
20
0.8092052362204725
11
0.4903350787401575
21
0.8087255511811023
0
LINE
8
BLACK
6
CONTINUOUS
10
0.4903350787401575
20
0.8087255511811023
11
0.490366968503937
21
0.8082470472440945
0
LINE
8
BLACK
6
CONTINUOUS
10
0.490366968503937
20
0.8082470472440945
11
0.4903350787401575
21
0.8081527559055118
0
LINE
8
BLACK
6
CONTINUOUS
10
0.4903350787401575
20
0.8081527559055118
11
0.4903350787401575
21
0.8080531102362205
0
LINE
8
BLACK
6
CONTINUOUS
10
0.4903350787401575
20
0.8080531102362205
11
0.4901514566929134
21
0.8076099212598425
0
LINE
8
BLACK
6
CONTINUOUS
10
0.4901514566929134
20
0.8076099212598425
11
0.489997874015748
21
0.8071556692913385
0
LINE
8
BLACK
6
CONTINUOUS
10
0.489997874015748
20
0.8071556692913385
11
0.4899319291338582
21
0.8070799212598425
0
LINE
8
BLACK
6
CONTINUOUS
10
0.4899319291338582
20
0.8070799212598425
11
0.4898941732283464
21
0.8069887007874016
0
LINE
8
BLACK
6
CONTINUOUS
10
0.4898941732283464
20
0.8069887007874016
11
0.4895739763779527
21
0.8066685433070866
0
LINE
8
BLACK
6
CONTINUOUS
10
0.4895739763779527
20
0.8066685433070866
11
0.4807085039370079
21
0.7964798031496063
0
LINE
8
BLACK
6
CONTINUOUS
10
0.4807085039370079
20
0.7964798031496063
11
0.4807198818897638
21
0.7964789763779527
0
LINE
8
BLACK
6
CONTINUOUS
10
0.4807198818897638
20
0.7964789763779527
11
0.4812314173228346
21
0.7962307874015748
0
LINE
8
BLACK
6
CONTINUOUS
10
0.4812314173228346
20
0.7962307874015748
11
0.4815804724409449
21
0.7960861811023622
0
LINE
8
BLACK
6
CONTINUOUS
10
0.4815804724409449
20
0.7960861811023622
11
0.4816285826771654
21
0.7960380708661418
0
LINE
8
BLACK
6
CONTINUOUS
10
0.4816285826771654
20
0.7960380708661418
11
0.4850100393700787
21
0.7943973228346457
0
LINE
8
BLACK
6
CONTINUOUS
10
0.4850100393700787
20
0.7943973228346457
11
0.485258031496063
21
0.7942412598425197
0
LINE
8
BLACK
6
CONTINUOUS
10
0.485258031496063
20
0.7942412598425197
11
0.48533
21
0.7942114173228346
0
LINE
8
BLACK
6
CONTINUOUS
10
0.48533
20
0.7942114173228346
11
0.485376062992126
21
0.7941669291338582
0
LINE
8
BLACK
6
CONTINUOUS
10
0.485376062992126
20
0.7941669291338582
11
0.4854999212598425
21
0.7940889763779527
0
LINE
8
BLACK
6
CONTINUOUS
10
0.4854999212598425
20
0.7940889763779527
11
0.4857216535433071
21
0.7938333070866141
0
LINE
8
BLACK
6
CONTINUOUS
10
0.4857216535433071
20
0.7938333070866141
11
0.4876522047244095
21
0.7919694488188976
0
LINE
8
BLACK
6
CONTINUOUS
10
0.4876522047244095
20
0.7919694488188976
11
0.4878379527559055
21
0.7917431102362205
0
LINE
8
BLACK
6
CONTINUOUS
10
0.4878379527559055
20
0.7917431102362205
11
0.487896968503937
21
0.7916919291338582
0
LINE
8
BLACK
6
CONTINUOUS
10
0.487896968503937
20
0.7916919291338582
11
0.4879255905511811
21
0.7916362992125984
0
LINE
8
BLACK
6
CONTINUOUS
10
0.4879255905511811
20
0.7916362992125984
11
0.4880194094488189
21
0.7915220078740157
0
LINE
8
BLACK
6
CONTINUOUS
10
0.4880194094488189
20
0.7915220078740157
11
0.4881630708661417
21
0.791175157480315
0
LINE
8
BLACK
6
CONTINUOUS
10
0.4881630708661417
20
0.791175157480315
11
0.4900800787401575
21
0.7874525196850394
0
LINE
8
BLACK
6
CONTINUOUS
10
0.4900800787401575
20
0.7874525196850394
11
0.490286968503937
21
0.7869119291338582
0
LINE
8
BLACK
6
CONTINUOUS
10
0.490286968503937
20
0.7869119291338582
11
0.4902944881889764
21
0.786806062992126
0
LINE
8
BLACK
6
CONTINUOUS
10
0.4902944881889764
20
0.786806062992126
11
0.4903350787401575
21
0.7867080708661417
0
LINE
8
BLACK
6
CONTINUOUS
10
0.4903350787401575
20
0.7867080708661417
11
0.4903379921259842
21
0.7861935433070866
0
LINE
8
BLACK
6
CONTINUOUS
10
0.4903379921259842
20
0.7861935433070866
11
0.4903686220472441
21
0.7857627165354331
0
LINE
8
BLACK
6
CONTINUOUS
10
0.4903686220472441
20
0.7857627165354331
11
0.490340905511811
21
0.78567968503937
0
LINE
8
BLACK
6
CONTINUOUS
10
0.490340905511811
20
0.78567968503937
11
0.4903918110236221
21
0.7767581889763779
0
LINE
8
BLACK
6
CONTINUOUS
10
0.4903918110236221
20
0.7767581889763779
11
0.4903350787401575
21
0.776182125984252
0
LINE
8
BLACK
6
CONTINUOUS
10
0.4903350787401575
20
0.776182125984252
11
0.4902944881889764
21
0.7760841732283464
0
LINE
8
BLACK
6
CONTINUOUS
10
0.4902944881889764
20
0.7760841732283464
11
0.490286968503937
21
0.7759782677165354
0
LINE
8
BLACK
6
CONTINUOUS
10
0.490286968503937
20
0.7759782677165354
11
0.4900386220472441
21
0.7754665354330709
0
LINE
8
BLACK
6
CONTINUOUS
10
0.4900386220472441
20
0.7754665354330709
11
0.4898941732283464
21
0.775117716535433
0
LINE
8
BLACK
6
CONTINUOUS
10
0.4898941732283464
20
0.775117716535433
11
0.489846062992126
21
0.7750696456692914
0
LINE
8
BLACK
6
CONTINUOUS
10
0.489846062992126
20
0.7750696456692914
11
0.4882053149606299
21
0.7716881496062992
0
LINE
8
BLACK
6
CONTINUOUS
10
0.4882053149606299
20
0.7716881496062992
11
0.4880492519685039
21
0.7714402755905512
0
LINE
8
BLACK
6
CONTINUOUS
10
0.4880492519685039
20
0.7714402755905512
11
0.4880194488188976
21
0.7713682283464567
0
LINE
8
BLACK
6
CONTINUOUS
10
0.4880194488188976
20
0.7713682283464567
11
0.4879748818897638
21
0.771322125984252
0
LINE
8
BLACK
6
CONTINUOUS
10
0.4879748818897638
20
0.771322125984252
11
0.487896968503937
21
0.7711982677165354
0
LINE
8
BLACK
6
CONTINUOUS
10
0.487896968503937
20
0.7711982677165354
11
0.4876412992125984
21
0.7709765748031496
0
LINE
8
BLACK
6
CONTINUOUS
10
0.4876412992125984
20
0.7709765748031496
11
0.4857774803149606
21
0.7690459842519685
0
LINE
8
BLACK
6
CONTINUOUS
10
0.4857774803149606
20
0.7690459842519685
11
0.4855511023622047
21
0.7688602362204724
0
LINE
8
BLACK
6
CONTINUOUS
10
0.4855511023622047
20
0.7688602362204724
11
0.4854999212598425
21
0.7688011811023622
0
LINE
8
BLACK
6
CONTINUOUS
10
0.4854999212598425
20
0.7688011811023622
11
0.4854442519685039
21
0.7687725590551181
0
LINE
8
BLACK
6
CONTINUOUS
10
0.4854442519685039
20
0.7687725590551181
11
0.48533
21
0.7686787401574803
0
LINE
8
BLACK
6
CONTINUOUS
10
0.48533
20
0.7686787401574803
11
0.4849831102362205
21
0.7685350787401575
0
LINE
8
BLACK
6
CONTINUOUS
10
0.4849831102362205
20
0.7685350787401575
11
0.4812605118110236
21
0.7666180708661418
0
LINE
8
BLACK
6
CONTINUOUS
10
0.4812605118110236
20
0.7666180708661418
11
0.4807198818897638
21
0.7664111811023622
0
LINE
8
BLACK
6
CONTINUOUS
10
0.4807198818897638
20
0.7664111811023622
11
0.4806140551181102
21
0.7664037007874016
0
LINE
8
BLACK
6
CONTINUOUS
10
0.4806140551181102
20
0.7664037007874016
11
0.480516062992126
21
0.7663630708661417
0
LINE
8
BLACK
6
CONTINUOUS
10
0.480516062992126
20
0.7663630708661417
11
0.4800084645669291
21
0.7663606692913386
0
LINE
8
BLACK
6
CONTINUOUS
10
0.4800084645669291
20
0.7663606692913386
11
0.4795706692913386
21
0.7663295275590551
0
LINE
8
BLACK
6
CONTINUOUS
10
0.4795706692913386
20
0.7663295275590551
11
0.4794848818897638
21
0.7663581496062992
0
LINE
8
BLACK
6
CONTINUOUS
10
0.4794848818897638
20
0.7663581496062992
11
0.4686914173228346
21
0.7663063385826772
0
LINE
8
BLACK
6
CONTINUOUS
10
0.4686914173228346
20
0.7663063385826772
11
0.4681153543307087
21
0.7663630708661417
0
LINE
8
BLACK
6
CONTINUOUS
10
0.4681153543307087
20
0.7663630708661417
11
0.4680173622047244
21
0.7664036614173229
0
LINE
8
BLACK
6
CONTINUOUS
10
0.4680173622047244
20
0.7664036614173229
11
0.4679114960629921
21
0.7664111811023622
0
LINE
8
BLACK
6
CONTINUOUS
10
0.4679114960629921
20
0.7664111811023622
11
0.4673997244094488
21
0.7666595275590551
0
LINE
8
BLACK
6
CONTINUOUS
10
0.4673997244094488
20
0.7666595275590551
11
0.4670509448818898
21
0.7668039763779527
0
LINE
8
BLACK
6
CONTINUOUS
10
0.4670509448818898
20
0.7668039763779527
11
0.4670028346456693
21
0.7668520866141733
0
LINE
8
BLACK
6
CONTINUOUS
10
0.4670028346456693
20
0.7668520866141733
11
0.4636213779527559
21
0.7684928346456693
0
LINE
8
BLACK
6
CONTINUOUS
10
0.4636213779527559
20
0.7684928346456693
11
0.4633733464566929
21
0.768648937007874
0
LINE
8
BLACK
6
CONTINUOUS
10
0.4633733464566929
20
0.768648937007874
11
0.4633014173228346
21
0.7686787401574803
0
LINE
8
BLACK
6
CONTINUOUS
10
0.4633014173228346
20
0.7686787401574803
11
0.4632553149606299
21
0.7687232677165354
0
LINE
8
BLACK
6
CONTINUOUS
10
0.4632553149606299
20
0.7687232677165354
11
0.4631314960629921
21
0.7688011811023622
0
LINE
8
BLACK
6
CONTINUOUS
10
0.4631314960629921
20
0.7688011811023622
11
0.4629096850393701
21
0.769056968503937
0
LINE
8
BLACK
6
CONTINUOUS
10
0.4629096850393701
20
0.769056968503937
11
0.4609791732283465
21
0.7709207874015748
0
LINE
8
BLACK
6
CONTINUOUS
10
0.4609791732283465
20
0.7709207874015748
11
0.460611968503937
21
0.7713682283464567
0
LINE
8
BLACK
6
CONTINUOUS
10
0.460611968503937
20
0.7713682283464567
11
0.4601711023622047
21
0.7724326377952756
0
LINE
8
BLACK
6
CONTINUOUS
10
0.4601711023622047
20
0.7724326377952756
11
0.4601711023622047
21
0.7735847244094488
0
LINE
8
BLACK
6
CONTINUOUS
10
0.4601711023622047
20
0.7735847244094488
11
0.4606120078740157
21
0.7746491338582677
0
LINE
8
BLACK
6
CONTINUOUS
10
0.4606120078740157
20
0.7746491338582677
11
0.4614266929133858
21
0.7754638188976378
0
LINE
8
BLACK
6
CONTINUOUS
10
0.4614266929133858
20
0.7754638188976378
11
0.4624911023622047
21
0.77590468503937
0
LINE
8
BLACK
6
CONTINUOUS
10
0.4624911023622047
20
0.77590468503937
11
0.463643188976378
21
0.77590468503937
0
LINE
8
BLACK
6
CONTINUOUS
10
0.463643188976378
20
0.77590468503937
11
0.4647075984251968
21
0.7754637795275591
0
LINE
8
BLACK
6
CONTINUOUS
10
0.4647075984251968
20
0.7754637795275591
11
0.4667688188976378
21
0.7734737401574803
0
LINE
8
BLACK
6
CONTINUOUS
10
0.4667688188976378
20
0.7734737401574803
11
0.4694729527559055
21
0.772161653543307
0
LINE
8
BLACK
6
CONTINUOUS
10
0.4694729527559055
20
0.772161653543307
11
0.479328031496063
21
0.772208937007874
0
LINE
8
BLACK
6
CONTINUOUS
10
0.479328031496063
20
0.772208937007874
11
0.4820336220472441
21
0.7736022047244094
0
LINE
8
BLACK
6
CONTINUOUS
10
0.4820336220472441
20
0.7736022047244094
11
0.4832244094488189
21
0.7748356299212599
0
LINE
8
BLACK
6
CONTINUOUS
10
0.4832244094488189
20
0.7748356299212599
11
0.4845352755905512
21
0.7775372440944882
0
LINE
8
BLACK
6
CONTINUOUS
10
0.4845352755905512
20
0.7775372440944882
11
0.4844897637795276
21
0.7855189763779528
0
LINE
8
BLACK
6
CONTINUOUS
10
0.4844897637795276
20
0.7855189763779528
11
0.4830959448818897
21
0.7882257086614173
0
LINE
8
BLACK
6
CONTINUOUS
10
0.4830959448818897
20
0.7882257086614173
11
0.4818625984251969
21
0.7894164173228346
0
LINE
8
BLACK
6
CONTINUOUS
10
0.4818625984251969
20
0.7894164173228346
11
0.4791703937007874
21
0.7907227559055118
0
LINE
8
BLACK
6
CONTINUOUS
10
0.4791703937007874
20
0.7907227559055118
11
0.4743157086614173
21
0.7906783070866141
0
LINE
8
BLACK
6
CONTINUOUS
10
0.4743157086614173
20
0.7906783070866141
11
0.4740110236220472
21
0.7907083464566929
0
LINE
8
BLACK
6
CONTINUOUS
10
0.4740110236220472
20
0.7907083464566929
11
0.4739335826771653
21
0.7907031496062992
0
LINE
8
BLACK
6
CONTINUOUS
10
0.4739335826771653
20
0.7907031496062992
11
0.4738801968503937
21
0.790721220472441
0
LINE
8
BLACK
6
CONTINUOUS
10
0.4738801968503937
20
0.790721220472441
11
0.4737396456692913
21
0.7907350393700787
0
LINE
8
BLACK
6
CONTINUOUS
10
0.4737396456692913
20
0.7907350393700787
11
0.4732964173228346
21
0.7909186614173228
0
LINE
8
BLACK
6
CONTINUOUS
10
0.4732964173228346
20
0.7909186614173228
11
0.4728422047244095
21
0.7910722440944882
0
LINE
8
BLACK
6
CONTINUOUS
10
0.4728422047244095
20
0.7910722440944882
11
0.4727672047244094
21
0.7911378346456692
0
LINE
8
BLACK
6
CONTINUOUS
10
0.4727672047244094
20
0.7911378346456692
11
0.4726752362204724
21
0.7911759448818897
0
LINE
8
BLACK
6
CONTINUOUS
10
0.4726752362204724
20
0.7911759448818897
11
0.4723362204724409
21
0.7915149606299212
0
LINE
8
BLACK
6
CONTINUOUS
10
0.4723362204724409
20
0.7915149606299212
11
0.4719751181102362
21
0.791830905511811
0
LINE
8
BLACK
6
CONTINUOUS
10
0.4719751181102362
20
0.791830905511811
11
0.471930905511811
21
0.7919202755905511
0
LINE
8
BLACK
6
CONTINUOUS
10
0.471930905511811
20
0.7919202755905511
11
0.4718605905511811
21
0.791990590551181
0
LINE
8
BLACK
6
CONTINUOUS
10
0.4718605905511811
20
0.791990590551181
11
0.4716770866141732
21
0.7924335433070866
0
LINE
8
BLACK
6
CONTINUOUS
10
0.4716770866141732
20
0.7924335433070866
11
0.4714644094488189
21
0.7928636614173228
0
LINE
8
BLACK
6
CONTINUOUS
10
0.4714644094488189
20
0.7928636614173228
11
0.4714577559055118
21
0.792963031496063
0
LINE
8
BLACK
6
CONTINUOUS
10
0.4714577559055118
20
0.792963031496063
11
0.4714196850393701
21
0.793055
0
LINE
8
BLACK
6
CONTINUOUS
10
0.4714196850393701
20
0.793055
11
0.4714196850393701
21
0.7935347244094488
0
LINE
8
BLACK
6
CONTINUOUS
10
0.4714196850393701
20
0.7935347244094488
11
0.4713877952755905
21
0.794013188976378
0
LINE
8
BLACK
6
CONTINUOUS
10
0.4713877952755905
20
0.794013188976378
11
0.4714196850393701
21
0.7941075196850393
0
LINE
8
BLACK
6
CONTINUOUS
10
0.4714196850393701
20
0.7941075196850393
11
0.4714196850393701
21
0.7942071259842519
0
LINE
8
BLACK
6
CONTINUOUS
10
0.4714196850393701
20
0.7942071259842519
11
0.4716032677165354
21
0.7946503543307086
0
LINE
8
BLACK
6
CONTINUOUS
10
0.4716032677165354
20
0.7946503543307086
11
0.4717568897637795
21
0.7951045669291339
0
LINE
8
BLACK
6
CONTINUOUS
10
0.4717568897637795
20
0.7951045669291339
11
0.4718227952755906
21
0.7951803543307087
0
LINE
8
BLACK
6
CONTINUOUS
10
0.4718227952755906
20
0.7951803543307087
11
0.4718605905511811
21
0.7952715354330708
0
LINE
8
BLACK
6
CONTINUOUS
10
0.4718605905511811
20
0.7952715354330708
11
0.4721807480314961
21
0.7955917322834646
0
LINE
8
BLACK
6
CONTINUOUS
10
0.4721807480314961
20
0.7955917322834646
11
0.4809911811023622
21
0.8057172047244094
0
LINE
8
BLACK
6
CONTINUOUS
10
0.4809911811023622
20
0.8057172047244094
11
0.463067125984252
21
0.8056764173228347
0
LINE
8
BLACK
6
CONTINUOUS
10
0.463067125984252
20
0.8056764173228347
11
0.462491062992126
21
0.8057331496062992
0
LINE
8
BLACK
6
CONTINUOUS
10
0.462491062992126
20
0.8057331496062992
11
0.4614266535433071
21
0.8061740551181102
0
LINE
8
BLACK
6
CONTINUOUS
10
0.4614266535433071
20
0.8061740551181102
11
0.4606120078740157
21
0.8069887007874016
0
LINE
8
BLACK
6
CONTINUOUS
10
0.4606120078740157
20
0.8069887007874016
11
0.4601711023622047
21
0.8080531102362205
0
LINE
8
BLACK
6
CONTINUOUS
10
0.4601711023622047
20
0.8080531102362205
11
0.4601711023622047
21
0.8092052362204725
0
LINE
8
BLACK
6
CONTINUOUS
10
0.4601711023622047
20
0.8092052362204725
11
0.4606120078740157
21
0.8102696456692913
0
LINE
8
BLACK
6
CONTINUOUS
10
0.4606120078740157
20
0.8102696456692913
11
0.4614266535433071
21
0.8110842913385826
0
LINE
8
BLACK
6
CONTINUOUS
10
0.4614266535433071
20
0.8110842913385826
11
0.462491062992126
21
0.8115251968503937
0
LINE
8
BLACK
6
CONTINUOUS
10
0.462491062992126
20
0.8115251968503937
11
0.4874390551181102
21
0.8115819291338583
0
LINE
8
BLACK
6
CONTINUOUS
10
0.4874390551181102
20
0.8115819291338583
11
0.4877437007874016
21
0.8115519291338582
0
LINE
8
BLACK
6
CONTINUOUS
10
0.5161366141732283
20
0.8115251968503937
11
0.5162346062992126
21
0.8114846062992126
0
LINE
8
BLACK
6
CONTINUOUS
10
0.5162346062992126
20
0.8114846062992126
11
0.5163404330708661
21
0.8114770866141732
0
LINE
8
BLACK
6
CONTINUOUS
10
0.5163404330708661
20
0.8114770866141732
11
0.516851968503937
21
0.8112288976377953
0
LINE
8
BLACK
6
CONTINUOUS
10
0.516851968503937
20
0.8112288976377953
11
0.5172010236220472
21
0.8110842913385826
0
LINE
8
BLACK
6
CONTINUOUS
10
0.5172010236220472
20
0.8110842913385826
11
0.5172491338582677
21
0.8110361811023622
0
LINE
8
BLACK
6
CONTINUOUS
10
0.5172491338582677
20
0.8110361811023622
11
0.5206305905511811
21
0.8093954330708661
0
LINE
8
BLACK
6
CONTINUOUS
10
0.5206305905511811
20
0.8093954330708661
11
0.5208785826771654
21
0.8092393700787401
0
LINE
8
BLACK
6
CONTINUOUS
10
0.5208785826771654
20
0.8092393700787401
11
0.5209505511811023
21
0.8092095275590551
0
LINE
8
BLACK
6
CONTINUOUS
10
0.5209505511811023
20
0.8092095275590551
11
0.5209966141732283
21
0.8091650393700788
0
LINE
8
BLACK
6
CONTINUOUS
10
0.5209966141732283
20
0.8091650393700788
11
0.5211204724409448
21
0.8090870866141732
0
LINE
8
BLACK
6
CONTINUOUS
10
0.5211204724409448
20
0.8090870866141732
11
0.5213422047244094
21
0.8088314173228346
0
LINE
8
BLACK
6
CONTINUOUS
10
0.5213422047244094
20
0.8088314173228346
11
0.5232727559055118
21
0.8069675590551181
0
LINE
8
BLACK
6
CONTINUOUS
10
0.5232727559055118
20
0.8069675590551181
11
0.5234585039370079
21
0.8067412204724409
0
LINE
8
BLACK
6
CONTINUOUS
10
0.5234585039370079
20
0.8067412204724409
11
0.5235175196850393
21
0.8066900393700788
0
LINE
8
BLACK
6
CONTINUOUS
10
0.5235175196850393
20
0.8066900393700788
11
0.5235461417322834
21
0.8066344094488189
0
LINE
8
BLACK
6
CONTINUOUS
10
0.5235461417322834
20
0.8066344094488189
11
0.5236399606299212
21
0.8065201181102362
0
LINE
8
BLACK
6
CONTINUOUS
10
0.5236399606299212
20
0.8065201181102362
11
0.523783622047244
21
0.8061732677165354
0
LINE
8
BLACK
6
CONTINUOUS
10
0.523783622047244
20
0.8061732677165354
11
0.5257006299212599
21
0.8024506299212598
0
LINE
8
BLACK
6
CONTINUOUS
10
0.5257006299212599
20
0.8024506299212598
11
0.5257167322834646
21
0.8024085433070866
0
LINE
8
BLACK
6
CONTINUOUS
10
0.5257167322834646
20
0.8024085433070866
11
0.5257294488188976
21
0.8023913779527558
0
LINE
8
BLACK
6
CONTINUOUS
10
0.5257294488188976
20
0.8023913779527558
11
0.5257420078740157
21
0.8023424409448818
0
LINE
8
BLACK
6
CONTINUOUS
10
0.5257420078740157
20
0.8023424409448818
11
0.5259075196850393
21
0.8019100393700788
0
LINE
8
BLACK
6
CONTINUOUS
10
0.5259075196850393
20
0.8019100393700788
11
0.5259281889763779
21
0.8016188188976378
0
LINE
8
BLACK
6
CONTINUOUS
10
0.5259281889763779
20
0.8016188188976378
11
0.5277989763779527
21
0.7943472047244095
0
LINE
8
BLACK
6
CONTINUOUS
10
0.5277989763779527
20
0.7943472047244095
11
0.5278137401574803
21
0.7942473622047244
0
LINE
8
BLACK
6
CONTINUOUS
10
0.5278137401574803
20
0.7942473622047244
11
0.5278303937007874
21
0.7942071259842519
0
LINE
8
BLACK
6
CONTINUOUS
10
0.5278303937007874
20
0.7942071259842519
11
0.5278307874015747
21
0.7941317716535433
0
LINE
8
BLACK
6
CONTINUOUS
10
0.5278307874015747
20
0.7941317716535433
11
0.527883622047244
21
0.7937746062992126
0
LINE
8
BLACK
6
CONTINUOUS
10
0.527883622047244
20
0.7937746062992126
11
0.5278347244094488
21
0.7934460629921259
0
LINE
8
BLACK
6
CONTINUOUS
10
0.5278347244094488
20
0.7934460629921259
11
0.5278871259842519
21
0.7842572440944882
0
LINE
8
BLACK
6
CONTINUOUS
10
0.5278871259842519
20
0.7842572440944882
11
0.5278772047244095
21
0.7841567322834645
0
LINE
8
BLACK
6
CONTINUOUS
10
0.5278772047244095
20
0.7841567322834645
11
0.527883622047244
21
0.7841137007874015
0
LINE
8
BLACK
6
CONTINUOUS
10
0.527883622047244
20
0.7841137007874015
11
0.5278657086614174
21
0.7840400393700787
0
LINE
8
BLACK
6
CONTINUOUS
10
0.5278657086614174
20
0.7840400393700787
11
0.5278303937007874
21
0.7836811811023622
0
LINE
8
BLACK
6
CONTINUOUS
10
0.5278303937007874
20
0.7836811811023622
11
0.5277053149606299
21
0.7833792913385826
0
LINE
8
BLACK
6
CONTINUOUS
10
0.5277053149606299
20
0.7833792913385826
11
0.5259242125984251
21
0.7760420472440944
0
LINE
8
BLACK
6
CONTINUOUS
10
0.5259242125984251
20
0.7760420472440944
11
0.5259090157480315
21
0.7759995669291339
0
LINE
8
BLACK
6
CONTINUOUS
10
0.5259090157480315
20
0.7759995669291339
11
0.5259075196850393
21
0.7759782677165354
0
LINE
8
BLACK
6
CONTINUOUS
10
0.5259075196850393
20
0.7759782677165354
11
0.5258843700787401
21
0.7759306299212598
0
LINE
8
BLACK
6
CONTINUOUS
10
0.5258843700787401
20
0.7759306299212598
11
0.5257294488188976
21
0.7754969291338583
0
LINE
8
BLACK
6
CONTINUOUS
10
0.5257294488188976
20
0.7754969291338583
11
0.5255687007874016
21
0.77528
0
LINE
8
BLACK
6
CONTINUOUS
10
0.5255687007874016
20
0.77528
11
0.5238258661417323
21
0.7716881496062992
0
LINE
8
BLACK
6
CONTINUOUS
10
0.5238258661417323
20
0.7716881496062992
11
0.5236698031496063
21
0.7714402755905512
0
LINE
8
BLACK
6
CONTINUOUS
10
0.5236698031496063
20
0.7714402755905512
11
0.52364
21
0.7713682283464567
0
LINE
8
BLACK
6
CONTINUOUS
10
0.52364
20
0.7713682283464567
11
0.5235954330708661
21
0.771322125984252
0
LINE
8
BLACK
6
CONTINUOUS
10
0.5235954330708661
20
0.771322125984252
11
0.5235175196850393
21
0.7711982677165354
0
LINE
8
BLACK
6
CONTINUOUS
10
0.5235175196850393
20
0.7711982677165354
11
0.5232618503937008
21
0.7709765748031496
0
LINE
8
BLACK
6
CONTINUOUS
10
0.5232618503937008
20
0.7709765748031496
11
0.521398031496063
21
0.7690459842519685
0
LINE
8
BLACK
6
CONTINUOUS
10
0.521398031496063
20
0.7690459842519685
11
0.5211716535433071
21
0.7688602362204724
0
LINE
8
BLACK
6
CONTINUOUS
10
0.5211716535433071
20
0.7688602362204724
11
0.5211204724409448
21
0.7688011811023622
0
LINE
8
BLACK
6
CONTINUOUS
10
0.5211204724409448
20
0.7688011811023622
11
0.5210648031496062
21
0.7687725590551181
0
LINE
8
BLACK
6
CONTINUOUS
10
0.5210648031496062
20
0.7687725590551181
11
0.5209505511811023
21
0.7686787401574803
0
LINE
8
BLACK
6
CONTINUOUS
10
0.5209505511811023
20
0.7686787401574803
11
0.5206036614173228
21
0.7685350787401575
0
LINE
8
BLACK
6
CONTINUOUS
10
0.5206036614173228
20
0.7685350787401575
11
0.516881062992126
21
0.7666180708661418
0
LINE
8
BLACK
6
CONTINUOUS
10
0.516881062992126
20
0.7666180708661418
11
0.5163404330708661
21
0.7664111811023622
0
LINE
8
BLACK
6
CONTINUOUS
10
0.5163404330708661
20
0.7664111811023622
11
0.5162346062992126
21
0.7664037007874016
0
LINE
8
BLACK
6
CONTINUOUS
10
0.5162346062992126
20
0.7664037007874016
11
0.5161366141732283
21
0.7663630708661417
0
LINE
8
BLACK
6
CONTINUOUS
10
0.5161366141732283
20
0.7663630708661417
11
0.5155561417322835
21
0.7663554724409448
0
LINE
8
BLACK
6
CONTINUOUS
10
0.5155561417322835
20
0.7663554724409448
11
0.5151912204724409
21
0.7663295275590551
0
LINE
8
BLACK
6
CONTINUOUS
10
0.5151912204724409
20
0.7663295275590551
11
0.515130157480315
21
0.7663498818897637
0
LINE
8
BLACK
6
CONTINUOUS
10
0.515130157480315
20
0.7663498818897637
11
0.5118110236220472
21
0.7663063385826772
0
LINE
8
BLACK
6
CONTINUOUS
10
0.5118110236220472
20
0.7663063385826772
11
0.5112349606299212
21
0.7663630708661417
0
LINE
8
BLACK
6
CONTINUOUS
10
0.5112349606299212
20
0.7663630708661417
11
0.511136968503937
21
0.7664036614173229
0
LINE
8
BLACK
6
CONTINUOUS
10
0.511136968503937
20
0.7664036614173229
11
0.5110311023622047
21
0.7664111811023622
0
LINE
8
BLACK
6
CONTINUOUS
10
0.5110311023622047
20
0.7664111811023622
11
0.5105193307086614
21
0.7666595275590551
0
LINE
8
BLACK
6
CONTINUOUS
10
0.5105193307086614
20
0.7666595275590551
11
0.5101705511811023
21
0.7668039763779527
0
LINE
8
BLACK
6
CONTINUOUS
10
0.5101705511811023
20
0.7668039763779527
11
0.5101224409448819
21
0.7668520866141733
0
LINE
8
BLACK
6
CONTINUOUS
10
0.5101224409448819
20
0.7668520866141733
11
0.5067409842519685
21
0.7684928346456693
0
LINE
8
BLACK
6
CONTINUOUS
10
0.5067409842519685
20
0.7684928346456693
11
0.5064929527559054
21
0.768648937007874
0
LINE
8
BLACK
6
CONTINUOUS
10
0.5064929527559054
20
0.768648937007874
11
0.5064210236220472
21
0.7686787401574803
0
LINE
8
BLACK
6
CONTINUOUS
10
0.5064210236220472
20
0.7686787401574803
11
0.5063749212598425
21
0.7687232677165354
0
LINE
8
BLACK
6
CONTINUOUS
10
0.5063749212598425
20
0.7687232677165354
11
0.5062511023622047
21
0.7688011811023622
0
LINE
8
BLACK
6
CONTINUOUS
10
0.5062511023622047
20
0.7688011811023622
11
0.5060292913385827
21
0.769056968503937
0
LINE
8
BLACK
6
CONTINUOUS
10
0.5060292913385827
20
0.769056968503937
11
0.504098779527559
21
0.7709207874015748
0
LINE
8
BLACK
6
CONTINUOUS
10
0.504098779527559
20
0.7709207874015748
11
0.503913031496063
21
0.7711471259842519
0
LINE
8
BLACK
6
CONTINUOUS
10
0.503913031496063
20
0.7711471259842519
11
0.5038540551181102
21
0.7711982677165354
0
LINE
8
BLACK
6
CONTINUOUS
10
0.5038540551181102
20
0.7711982677165354
11
0.5038253937007874
21
0.7712538976377953
0
LINE
8
BLACK
6
CONTINUOUS
10
0.5038253937007874
20
0.7712538976377953
11
0.5037315748031496
21
0.7713682283464567
0
LINE
8
BLACK
6
CONTINUOUS
10
0.5037315748031496
20
0.7713682283464567
11
0.503587874015748
21
0.7717151574803149
0
LINE
8
BLACK
6
CONTINUOUS
10
0.503587874015748
20
0.7717151574803149
11
0.5016709448818898
21
0.7754376771653543
0
LINE
8
BLACK
6
CONTINUOUS
10
0.5016709448818898
20
0.7754376771653543
11
0.5016548031496063
21
0.7754798031496063
0
LINE
8
BLACK
6
CONTINUOUS
10
0.5016548031496063
20
0.7754798031496063
11
0.501642125984252
21
0.7754969291338583
0
LINE
8
BLACK
6
CONTINUOUS
10
0.501642125984252
20
0.7754969291338583
11
0.5016294881889763
21
0.7755459448818898
0
LINE
8
BLACK
6
CONTINUOUS
10
0.5016294881889763
20
0.7755459448818898
11
0.5014640551181102
21
0.7759783070866142
0
LINE
8
BLACK
6
CONTINUOUS
10
0.5014640551181102
20
0.7759783070866142
11
0.5014433464566929
21
0.7762695275590551
0
LINE
8
BLACK
6
CONTINUOUS
10
0.5014433464566929
20
0.7762695275590551
11
0.4995725984251969
21
0.7835411023622048
0
LINE
8
BLACK
6
CONTINUOUS
10
0.4995725984251969
20
0.7835411023622048
11
0.4995577952755905
21
0.7836409842519685
0
LINE
8
BLACK
6
CONTINUOUS
10
0.4995577952755905
20
0.7836409842519685
11
0.4995411811023622
21
0.7836811811023622
0
LINE
8
BLACK
6
CONTINUOUS
10
0.4995411811023622
20
0.7836811811023622
11
0.4995407480314961
21
0.7837565748031496
0
LINE
8
BLACK
6
CONTINUOUS
10
0.4995407480314961
20
0.7837565748031496
11
0.4994879527559055
21
0.7841137007874015
0
LINE
8
BLACK
6
CONTINUOUS
10
0.4994879527559055
20
0.7841137007874015
11
0.499536811023622
21
0.7844422834645669
0
LINE
8
BLACK
6
CONTINUOUS
10
0.499536811023622
20
0.7844422834645669
11
0.4994844488188976
21
0.7936310629921259
0
LINE
8
BLACK
6
CONTINUOUS
10
0.4994844488188976
20
0.7936310629921259
11
0.4994943307086614
21
0.7937316141732284
0
LINE
8
BLACK
6
CONTINUOUS
10
0.4994943307086614
20
0.7937316141732284
11
0.4994879527559055
21
0.7937746062992126
0
LINE
8
BLACK
6
CONTINUOUS
10
0.4994879527559055
20
0.7937746062992126
11
0.4995058267716535
21
0.7938483070866141
0
LINE
8
BLACK
6
CONTINUOUS
10
0.4995058267716535
20
0.7938483070866141
11
0.4995411811023622
21
0.7942071259842519
0
LINE
8
BLACK
6
CONTINUOUS
10
0.4995411811023622
20
0.7942071259842519
11
0.4996662204724409
21
0.7945090551181102
0
LINE
8
BLACK
6
CONTINUOUS
10
0.4996662204724409
20
0.7945090551181102
11
0.5014473622047244
21
0.8018462598425197
0
LINE
8
BLACK
6
CONTINUOUS
10
0.5014473622047244
20
0.8018462598425197
11
0.5014625196850394
21
0.801888779527559
0
LINE
8
BLACK
6
CONTINUOUS
10
0.5014625196850394
20
0.801888779527559
11
0.5014640551181102
21
0.80191
0
LINE
8
BLACK
6
CONTINUOUS
10
0.5014640551181102
20
0.80191
11
0.5014870866141732
21
0.8019575590551181
0
LINE
8
BLACK
6
CONTINUOUS
10
0.5014870866141732
20
0.8019575590551181
11
0.501642125984252
21
0.8023913779527558
0
LINE
8
BLACK
6
CONTINUOUS
10
0.501642125984252
20
0.8023913779527558
11
0.5018029133858267
21
0.8026083858267716
0
LINE
8
BLACK
6
CONTINUOUS
10
0.5018029133858267
20
0.8026083858267716
11
0.5035457086614173
21
0.8062001574803149
0
LINE
8
BLACK
6
CONTINUOUS
10
0.5035457086614173
20
0.8062001574803149
11
0.5037017716535434
21
0.8064481889763779
0
LINE
8
BLACK
6
CONTINUOUS
10
0.5037017716535434
20
0.8064481889763779
11
0.5037316141732283
21
0.8065201181102362
0
LINE
8
BLACK
6
CONTINUOUS
10
0.5037316141732283
20
0.8065201181102362
11
0.5037761023622047
21
0.806566220472441
0
LINE
8
BLACK
6
CONTINUOUS
10
0.5037761023622047
20
0.806566220472441
11
0.5038540551181102
21
0.8066900393700788
0
LINE
8
BLACK
6
CONTINUOUS
10
0.5038540551181102
20
0.8066900393700788
11
0.5041097244094488
21
0.8069118110236221
0
LINE
8
BLACK
6
CONTINUOUS
10
0.5041097244094488
20
0.8069118110236221
11
0.5059735826771653
21
0.8088423228346456
0
LINE
8
BLACK
6
CONTINUOUS
10
0.5059735826771653
20
0.8088423228346456
11
0.5061999212598425
21
0.8090281102362205
0
LINE
8
BLACK
6
CONTINUOUS
10
0.5061999212598425
20
0.8090281102362205
11
0.5062511023622047
21
0.8090870866141732
0
LINE
8
BLACK
6
CONTINUOUS
10
0.5062511023622047
20
0.8090870866141732
11
0.5063067322834646
21
0.809115748031496
0
LINE
8
BLACK
6
CONTINUOUS
10
0.5063067322834646
20
0.809115748031496
11
0.5064210236220472
21
0.8092095275590551
0
LINE
8
BLACK
6
CONTINUOUS
10
0.5064210236220472
20
0.8092095275590551
11
0.506767874015748
21
0.8093532283464566
0
LINE
8
BLACK
6
CONTINUOUS
10
0.506767874015748
20
0.8093532283464566
11
0.5104905118110236
21
0.8112701968503937
0
LINE
8
BLACK
6
CONTINUOUS
10
0.5104905118110236
20
0.8112701968503937
11
0.5110311023622047
21
0.8114770866141732
0
LINE
8
BLACK
6
CONTINUOUS
10
0.5110311023622047
20
0.8114770866141732
11
0.511136968503937
21
0.8114846456692913
0
LINE
8
BLACK
6
CONTINUOUS
10
0.511136968503937
20
0.8114846456692913
11
0.5112349606299212
21
0.8115251968503937
0
LINE
8
BLACK
6
CONTINUOUS
10
0.5112349606299212
20
0.8115251968503937
11
0.5118153149606299
21
0.8115328346456693
0
LINE
8
BLACK
6
CONTINUOUS
10
0.5118153149606299
20
0.8115328346456693
11
0.5121803149606299
21
0.8115587401574803
0
LINE
8
BLACK
6
CONTINUOUS
10
0.5121803149606299
20
0.8115587401574803
11
0.5122413385826772
21
0.8115384251968504
0
LINE
8
BLACK
6
CONTINUOUS
10
0.5122413385826772
20
0.8115384251968504
11
0.5155605511811023
21
0.8115819291338583
0
LINE
8
BLACK
6
CONTINUOUS
10
0.5155605511811023
20
0.8115819291338583
11
0.5161366141732283
21
0.8115251968503937
0
LINE
8
BLACK
6
CONTINUOUS
10
0.5124331102362205
20
0.8056846062992126
11
0.5097173228346457
21
0.8042861023622047
0
LINE
8
BLACK
6
CONTINUOUS
10
0.5097173228346457
20
0.8042861023622047
11
0.5085266141732283
21
0.8030527559055118
0
LINE
8
BLACK
6
CONTINUOUS
10
0.5085266141732283
20
0.8030527559055118
11
0.5069980314960629
21
0.7999024803149606
0
LINE
8
BLACK
6
CONTINUOUS
10
0.5069980314960629
20
0.7999024803149606
11
0.5053396850393701
21
0.7930710629921259
0
LINE
8
BLACK
6
CONTINUOUS
10
0.5053396850393701
20
0.7930710629921259
11
0.5053890157480315
21
0.7844225196850394
0
LINE
8
BLACK
6
CONTINUOUS
10
0.5053890157480315
20
0.7844225196850394
11
0.5071450393700787
21
0.7775968503937007
0
LINE
8
BLACK
6
CONTINUOUS
10
0.5071450393700787
20
0.7775968503937007
11
0.5086550787401575
21
0.7746645275590551
0
LINE
8
BLACK
6
CONTINUOUS
10
0.5086550787401575
20
0.7746645275590551
11
0.5098884251968504
21
0.7734737401574803
0
LINE
8
BLACK
6
CONTINUOUS
10
0.5098884251968504
20
0.7734737401574803
11
0.5125698818897638
21
0.7721726377952756
0
LINE
8
BLACK
6
CONTINUOUS
10
0.5125698818897638
20
0.7721726377952756
11
0.5149384251968504
21
0.7722037007874015
0
LINE
8
BLACK
6
CONTINUOUS
10
0.5149384251968504
20
0.7722037007874015
11
0.5176541732283464
21
0.7736022047244094
0
LINE
8
BLACK
6
CONTINUOUS
10
0.5176541732283464
20
0.7736022047244094
11
0.5188449606299212
21
0.7748356299212599
0
LINE
8
BLACK
6
CONTINUOUS
10
0.5188449606299212
20
0.7748356299212599
11
0.5203735039370079
21
0.7779858661417323
0
LINE
8
BLACK
6
CONTINUOUS
10
0.5203735039370079
20
0.7779858661417323
11
0.5220318503937008
21
0.7848172834645669
0
LINE
8
BLACK
6
CONTINUOUS
10
0.5220318503937008
20
0.7848172834645669
11
0.5219825196850394
21
0.7934658267716536
0
LINE
8
BLACK
6
CONTINUOUS
10
0.5219825196850394
20
0.7934658267716536
11
0.5202264960629921
21
0.8002914960629921
0
LINE
8
BLACK
6
CONTINUOUS
10
0.5202264960629921
20
0.8002914960629921
11
0.5187164960629921
21
0.8032238188976378
0
LINE
8
BLACK
6
CONTINUOUS
10
0.5187164960629921
20
0.8032238188976378
11
0.5174831496062992
21
0.8044145275590551
0
LINE
8
BLACK
6
CONTINUOUS
10
0.5174831496062992
20
0.8044145275590551
11
0.5148016535433071
21
0.8057156692913385
0
LINE
8
BLACK
6
CONTINUOUS
10
0.5148016535433071
20
0.8057156692913385
11
0.5124331102362205
21
0.8056846062992126
0
LINE
8
BLACK
6
CONTINUOUS
10
0.5723795669291338
20
0.8115251968503937
11
0.5724775590551181
21
0.8114846062992126
0
LINE
8
BLACK
6
CONTINUOUS
10
0.5724775590551181
20
0.8114846062992126
11
0.5725833858267716
21
0.8114770866141732
0
LINE
8
BLACK
6
CONTINUOUS
10
0.5725833858267716
20
0.8114770866141732
11
0.5730949212598425
21
0.8112288976377953
0
LINE
8
BLACK
6
CONTINUOUS
10
0.5730949212598425
20
0.8112288976377953
11
0.5734439763779527
21
0.8110842913385826
0
LINE
8
BLACK
6
CONTINUOUS
10
0.5734439763779527
20
0.8110842913385826
11
0.5734920866141732
21
0.8110361811023622
0
LINE
8
BLACK
6
CONTINUOUS
10
0.5734920866141732
20
0.8110361811023622
11
0.5768735433070866
21
0.8093954330708661
0
LINE
8
BLACK
6
CONTINUOUS
10
0.5768735433070866
20
0.8093954330708661
11
0.5771215354330709
21
0.8092393700787401
0
LINE
8
BLACK
6
CONTINUOUS
10
0.5771215354330709
20
0.8092393700787401
11
0.5771935039370079
21
0.8092095275590551
0
LINE
8
BLACK
6
CONTINUOUS
10
0.5771935039370079
20
0.8092095275590551
11
0.5772395669291338
21
0.8091650393700788
0
LINE
8
BLACK
6
CONTINUOUS
10
0.5772395669291338
20
0.8091650393700788
11
0.5773634251968504
21
0.8090870866141732
0
LINE
8
BLACK
6
CONTINUOUS
10
0.5773634251968504
20
0.8090870866141732
11
0.5775851574803149
21
0.8088314173228346
0
LINE
8
BLACK
6
CONTINUOUS
10
0.5775851574803149
20
0.8088314173228346
11
0.5795157086614173
21
0.8069675590551181
0
LINE
8
BLACK
6
CONTINUOUS
10
0.5795157086614173
20
0.8069675590551181
11
0.5797014566929134
21
0.8067412204724409
0
LINE
8
BLACK
6
CONTINUOUS
10
0.5797014566929134
20
0.8067412204724409
11
0.5797604724409449
21
0.8066900393700788
0
LINE
8
BLACK
6
CONTINUOUS
10
0.5797604724409449
20
0.8066900393700788
11
0.5797890944881889
21
0.8066344094488189
0
LINE
8
BLACK
6
CONTINUOUS
10
0.5797890944881889
20
0.8066344094488189
11
0.5798829133858268
21
0.8065201181102362
0
LINE
8
BLACK
6
CONTINUOUS
10
0.5798829133858268
20
0.8065201181102362
11
0.5800265748031496
21
0.8061732677165354
0
LINE
8
BLACK
6
CONTINUOUS
10
0.5800265748031496
20
0.8061732677165354
11
0.5819435826771654
21
0.8024506299212598
0
LINE
8
BLACK
6
CONTINUOUS
10
0.5819435826771654
20
0.8024506299212598
11
0.58195968503937
21
0.8024085433070866
0
LINE
8
BLACK
6
CONTINUOUS
10
0.58195968503937
20
0.8024085433070866
11
0.5819724015748031
21
0.8023913779527558
0
LINE
8
BLACK
6
CONTINUOUS
10
0.5819724015748031
20
0.8023913779527558
11
0.5819849606299212
21
0.8023424409448818
0
LINE
8
BLACK
6
CONTINUOUS
10
0.5819849606299212
20
0.8023424409448818
11
0.5821504724409449
21
0.8019100393700788
0
LINE
8
BLACK
6
CONTINUOUS
10
0.5821504724409449
20
0.8019100393700788
11
0.5821711417322835
21
0.8016188188976378
0
LINE
8
BLACK
6
CONTINUOUS
10
0.5821711417322835
20
0.8016188188976378
11
0.5840419291338582
21
0.7943472047244095
0
LINE
8
BLACK
6
CONTINUOUS
10
0.5840419291338582
20
0.7943472047244095
11
0.5840566929133858
21
0.7942473622047244
0
LINE
8
BLACK
6
CONTINUOUS
10
0.5840566929133858
20
0.7942473622047244
11
0.584073346456693
21
0.7942071259842519
0
LINE
8
BLACK
6
CONTINUOUS
10
0.584073346456693
20
0.7942071259842519
11
0.5840737401574803
21
0.7941317716535433
0
LINE
8
BLACK
6
CONTINUOUS
10
0.5840737401574803
20
0.7941317716535433
11
0.5841265748031496
21
0.7937746062992126
0
LINE
8
BLACK
6
CONTINUOUS
10
0.5841265748031496
20
0.7937746062992126
11
0.5840776771653543
21
0.7934460629921259
0
LINE
8
BLACK
6
CONTINUOUS
10
0.5840776771653543
20
0.7934460629921259
11
0.5841300787401574
21
0.7842572440944882
0
LINE
8
BLACK
6
CONTINUOUS
10
0.5841300787401574
20
0.7842572440944882
11
0.584120157480315
21
0.7841567322834645
0
LINE
8
BLACK
6
CONTINUOUS
10
0.584120157480315
20
0.7841567322834645
11
0.5841265748031496
21
0.7841137007874015
0
LINE
8
BLACK
6
CONTINUOUS
10
0.5841265748031496
20
0.7841137007874015
11
0.5841086614173229
21
0.7840400393700787
0
LINE
8
BLACK
6
CONTINUOUS
10
0.5841086614173229
20
0.7840400393700787
11
0.584073346456693
21
0.7836811811023622
0
LINE
8
BLACK
6
CONTINUOUS
10
0.584073346456693
20
0.7836811811023622
11
0.5839482677165354
21
0.7833792913385826
0
LINE
8
BLACK
6
CONTINUOUS
10
0.5839482677165354
20
0.7833792913385826
11
0.5821671653543307
21
0.7760420472440944
0
LINE
8
BLACK
6
CONTINUOUS
10
0.5821671653543307
20
0.7760420472440944
11
0.582151968503937
21
0.7759995669291339
0
LINE
8
BLACK
6
CONTINUOUS
10
0.582151968503937
20
0.7759995669291339
11
0.5821504724409449
21
0.7759782677165354
0
LINE
8
BLACK
6
CONTINUOUS
10
0.5821504724409449
20
0.7759782677165354
11
0.5821273228346456
21
0.7759306299212598
0
LINE
8
BLACK
6
CONTINUOUS
10
0.5821273228346456
20
0.7759306299212598
11
0.5819724015748031
21
0.7754969291338583
0
LINE
8
BLACK
6
CONTINUOUS
10
0.5819724015748031
20
0.7754969291338583
11
0.5818116535433071
21
0.77528
0
LINE
8
BLACK
6
CONTINUOUS
10
0.5818116535433071
20
0.77528
11
0.5800688188976377
21
0.7716881496062992
0
LINE
8
BLACK
6
CONTINUOUS
10
0.5800688188976377
20
0.7716881496062992
11
0.5799127559055118
21
0.7714402755905512
0
LINE
8
BLACK
6
CONTINUOUS
10
0.5799127559055118
20
0.7714402755905512
11
0.5798829527559055
21
0.7713682283464567
0
LINE
8
BLACK
6
CONTINUOUS
10
0.5798829527559055
20
0.7713682283464567
11
0.5798383858267716
21
0.771322125984252
0
LINE
8
BLACK
6
CONTINUOUS
10
0.5798383858267716
20
0.771322125984252
11
0.5797604724409449
21
0.7711982677165354
0
LINE
8
BLACK
6
CONTINUOUS
10
0.5797604724409449
20
0.7711982677165354
11
0.5795048031496063
21
0.7709765748031496
0
LINE
8
BLACK
6
CONTINUOUS
10
0.5795048031496063
20
0.7709765748031496
11
0.5776409842519685
21
0.7690459842519685
0
LINE
8
BLACK
6
CONTINUOUS
10
0.5776409842519685
20
0.7690459842519685
11
0.5774146062992126
21
0.7688602362204724
0
LINE
8
BLACK
6
CONTINUOUS
10
0.5774146062992126
20
0.7688602362204724
11
0.5773634251968504
21
0.7688011811023622
0
LINE
8
BLACK
6
CONTINUOUS
10
0.5773634251968504
20
0.7688011811023622
11
0.5773077559055118
21
0.7687725590551181
0
LINE
8
BLACK
6
CONTINUOUS
10
0.5773077559055118
20
0.7687725590551181
11
0.5771935039370079
21
0.7686787401574803
0
LINE
8
BLACK
6
CONTINUOUS
10
0.5771935039370079
20
0.7686787401574803
11
0.5768466141732284
21
0.7685350787401575
0
LINE
8
BLACK
6
CONTINUOUS
10
0.5768466141732284
20
0.7685350787401575
11
0.5731240157480315
21
0.7666180708661418
0
LINE
8
BLACK
6
CONTINUOUS
10
0.5731240157480315
20
0.7666180708661418
11
0.5725833858267716
21
0.7664111811023622
0
LINE
8
BLACK
6
CONTINUOUS
10
0.5725833858267716
20
0.7664111811023622
11
0.5724775590551181
21
0.7664037007874016
0
LINE
8
BLACK
6
CONTINUOUS
10
0.5724775590551181
20
0.7664037007874016
11
0.5723795669291338
21
0.7663630708661417
0
LINE
8
BLACK
6
CONTINUOUS
10
0.5723795669291338
20
0.7663630708661417
11
0.571799094488189
21
0.7663554724409448
0
LINE
8
BLACK
6
CONTINUOUS
10
0.571799094488189
20
0.7663554724409448
11
0.5714341732283464
21
0.7663295275590551
0
LINE
8
BLACK
6
CONTINUOUS
10
0.5714341732283464
20
0.7663295275590551
11
0.5713731102362205
21
0.7663498818897637
0
LINE
8
BLACK
6
CONTINUOUS
10
0.5713731102362205
20
0.7663498818897637
11
0.5680539763779527
21
0.7663063385826772
0
LINE
8
BLACK
6
CONTINUOUS
10
0.5680539763779527
20
0.7663063385826772
11
0.5674779133858268
21
0.7663630708661417
0
LINE
8
BLACK
6
CONTINUOUS
10
0.5674779133858268
20
0.7663630708661417
11
0.5673799212598425
21
0.7664036614173229
0
LINE
8
BLACK
6
CONTINUOUS
10
0.5673799212598425
20
0.7664036614173229
11
0.5672740551181102
21
0.7664111811023622
0
LINE
8
BLACK
6
CONTINUOUS
10
0.5672740551181102
20
0.7664111811023622
11
0.5667622834645669
21
0.7666595275590551
0
LINE
8
BLACK
6
CONTINUOUS
10
0.5667622834645669
20
0.7666595275590551
11
0.5664135039370078
21
0.7668039763779527
0
LINE
8
BLACK
6
CONTINUOUS
10
0.5664135039370078
20
0.7668039763779527
11
0.5663653937007874
21
0.7668520866141733
0
LINE
8
BLACK
6
CONTINUOUS
10
0.5663653937007874
20
0.7668520866141733
11
0.562983937007874
21
0.7684928346456693
0
LINE
8
BLACK
6
CONTINUOUS
10
0.562983937007874
20
0.7684928346456693
11
0.562735905511811
21
0.768648937007874
0
LINE
8
BLACK
6
CONTINUOUS
10
0.562735905511811
20
0.768648937007874
11
0.5626639763779527
21
0.7686787401574803
0
LINE
8
BLACK
6
CONTINUOUS
10
0.5626639763779527
20
0.7686787401574803
11
0.562617874015748
21
0.7687232677165354
0
LINE
8
BLACK
6
CONTINUOUS
10
0.562617874015748
20
0.7687232677165354
11
0.5624940551181102
21
0.7688011811023622
0
LINE
8
BLACK
6
CONTINUOUS
10
0.5624940551181102
20
0.7688011811023622
11
0.5622722440944882
21
0.769056968503937
0
LINE
8
BLACK
6
CONTINUOUS
10
0.5622722440944882
20
0.769056968503937
11
0.5603417322834645
21
0.7709207874015748
0
LINE
8
BLACK
6
CONTINUOUS
10
0.5603417322834645
20
0.7709207874015748
11
0.5601559842519684
21
0.7711471259842519
0
LINE
8
BLACK
6
CONTINUOUS
10
0.5601559842519684
20
0.7711471259842519
11
0.5600970078740157
21
0.7711982677165354
0
LINE
8
BLACK
6
CONTINUOUS
10
0.5600970078740157
20
0.7711982677165354
11
0.5600683464566929
21
0.7712538976377953
0
LINE
8
BLACK
6
CONTINUOUS
10
0.5600683464566929
20
0.7712538976377953
11
0.5599745275590551
21
0.7713682283464567
0
LINE
8
BLACK
6
CONTINUOUS
10
0.5599745275590551
20
0.7713682283464567
11
0.5598308267716535
21
0.7717151574803149
0
LINE
8
BLACK
6
CONTINUOUS
10
0.5598308267716535
20
0.7717151574803149
11
0.5579138976377953
21
0.7754376771653543
0
LINE
8
BLACK
6
CONTINUOUS
10
0.5579138976377953
20
0.7754376771653543
11
0.5578977559055118
21
0.7754798031496063
0
LINE
8
BLACK
6
CONTINUOUS
10
0.5578977559055118
20
0.7754798031496063
11
0.5578850787401575
21
0.7754969291338583
0
LINE
8
BLACK
6
CONTINUOUS
10
0.5578850787401575
20
0.7754969291338583
11
0.5578724409448819
21
0.7755459448818898
0
LINE
8
BLACK
6
CONTINUOUS
10
0.5578724409448819
20
0.7755459448818898
11
0.5577070078740157
21
0.7759783070866142
0
LINE
8
BLACK
6
CONTINUOUS
10
0.5577070078740157
20
0.7759783070866142
11
0.5576862992125984
21
0.7762695275590551
0
LINE
8
BLACK
6
CONTINUOUS
10
0.5576862992125984
20
0.7762695275590551
11
0.5558155511811024
21
0.7835411023622048
0
LINE
8
BLACK
6
CONTINUOUS
10
0.5558155511811024
20
0.7835411023622048
11
0.555800748031496
21
0.7836409842519685
0
LINE
8
BLACK
6
CONTINUOUS
10
0.555800748031496
20
0.7836409842519685
11
0.5557841338582677
21
0.7836811811023622
0
LINE
8
BLACK
6
CONTINUOUS
10
0.5557841338582677
20
0.7836811811023622
11
0.5557837007874016
21
0.7837565748031496
0
LINE
8
BLACK
6
CONTINUOUS
10
0.5557837007874016
20
0.7837565748031496
11
0.555730905511811
21
0.7841137007874015
0
LINE
8
BLACK
6
CONTINUOUS
10
0.555730905511811
20
0.7841137007874015
11
0.5557797637795275
21
0.7844422834645669
0
LINE
8
BLACK
6
CONTINUOUS
10
0.5557797637795275
20
0.7844422834645669
11
0.5557274015748032
21
0.7936310629921259
0
LINE
8
BLACK
6
CONTINUOUS
10
0.5557274015748032
20
0.7936310629921259
11
0.555737283464567
21
0.7937316141732284
0
LINE
8
BLACK
6
CONTINUOUS
10
0.555737283464567
20
0.7937316141732284
11
0.555730905511811
21
0.7937746062992126
0
LINE
8
BLACK
6
CONTINUOUS
10
0.555730905511811
20
0.7937746062992126
11
0.5557487795275591
21
0.7938483070866141
0
LINE
8
BLACK
6
CONTINUOUS
10
0.5557487795275591
20
0.7938483070866141
11
0.5557841338582677
21
0.7942071259842519
0
LINE
8
BLACK
6
CONTINUOUS
10
0.5557841338582677
20
0.7942071259842519
11
0.5559091732283464
21
0.7945090551181102
0
LINE
8
BLACK
6
CONTINUOUS
10
0.5559091732283464
20
0.7945090551181102
11
0.5576903149606299
21
0.8018462598425197
0
LINE
8
BLACK
6
CONTINUOUS
10
0.5576903149606299
20
0.8018462598425197
11
0.5577054724409448
21
0.801888779527559
0
LINE
8
BLACK
6
CONTINUOUS
10
0.5577054724409448
20
0.801888779527559
11
0.5577070078740157
21
0.80191
0
LINE
8
BLACK
6
CONTINUOUS
10
0.5577070078740157
20
0.80191
11
0.5577300393700787
21
0.8019575590551181
0
LINE
8
BLACK
6
CONTINUOUS
10
0.5577300393700787
20
0.8019575590551181
11
0.5578850787401575
21
0.8023913779527558
0
LINE
8
BLACK
6
CONTINUOUS
10
0.5578850787401575
20
0.8023913779527558
11
0.5580458661417322
21
0.8026083858267716
0
LINE
8
BLACK
6
CONTINUOUS
10
0.5580458661417322
20
0.8026083858267716
11
0.5597886614173229
21
0.8062001574803149
0
LINE
8
BLACK
6
CONTINUOUS
10
0.5597886614173229
20
0.8062001574803149
11
0.5599447244094488
21
0.8064481889763779
0
LINE
8
BLACK
6
CONTINUOUS
10
0.5599447244094488
20
0.8064481889763779
11
0.5599745669291338
21
0.8065201181102362
0
LINE
8
BLACK
6
CONTINUOUS
10
0.5599745669291338
20
0.8065201181102362
11
0.5600190551181102
21
0.806566220472441
0
LINE
8
BLACK
6
CONTINUOUS
10
0.5600190551181102
20
0.806566220472441
11
0.5600970078740157
21
0.8066900393700788
0
LINE
8
BLACK
6
CONTINUOUS
10
0.5600970078740157
20
0.8066900393700788
11
0.5603526771653543
21
0.8069118110236221
0
LINE
8
BLACK
6
CONTINUOUS
10
0.5603526771653543
20
0.8069118110236221
11
0.5622165354330708
21
0.8088423228346456
0
LINE
8
BLACK
6
CONTINUOUS
10
0.5622165354330708
20
0.8088423228346456
11
0.562442874015748
21
0.8090281102362205
0
LINE
8
BLACK
6
CONTINUOUS
10
0.562442874015748
20
0.8090281102362205
11
0.5624940551181102
21
0.8090870866141732
0
LINE
8
BLACK
6
CONTINUOUS
10
0.5624940551181102
20
0.8090870866141732
11
0.5625496850393701
21
0.809115748031496
0
LINE
8
BLACK
6
CONTINUOUS
10
0.5625496850393701
20
0.809115748031496
11
0.5626639763779527
21
0.8092095275590551
0
LINE
8
BLACK
6
CONTINUOUS
10
0.5626639763779527
20
0.8092095275590551
11
0.5630108267716535
21
0.8093532283464566
0
LINE
8
BLACK
6
CONTINUOUS
10
0.5630108267716535
20
0.8093532283464566
11
0.5667334645669291
21
0.8112701968503937
0
LINE
8
BLACK
6
CONTINUOUS
10
0.5667334645669291
20
0.8112701968503937
11
0.5672740551181102
21
0.8114770866141732
0
LINE
8
BLACK
6
CONTINUOUS
10
0.5672740551181102
20
0.8114770866141732
11
0.5673799212598425
21
0.8114846456692913
0
LINE
8
BLACK
6
CONTINUOUS
10
0.5673799212598425
20
0.8114846456692913
11
0.5674779133858268
21
0.8115251968503937
0
LINE
8
BLACK
6
CONTINUOUS
10
0.5674779133858268
20
0.8115251968503937
11
0.5680582677165354
21
0.8115328346456693
0
LINE
8
BLACK
6
CONTINUOUS
10
0.5680582677165354
20
0.8115328346456693
11
0.5684232677165354
21
0.8115587401574803
0
LINE
8
BLACK
6
CONTINUOUS
10
0.5684232677165354
20
0.8115587401574803
11
0.5684842913385827
21
0.8115384251968504
0
LINE
8
BLACK
6
CONTINUOUS
10
0.5684842913385827
20
0.8115384251968504
11
0.5718035039370079
21
0.8115819291338583
0
LINE
8
BLACK
6
CONTINUOUS
10
0.5718035039370079
20
0.8115819291338583
11
0.5723795669291338
21
0.8115251968503937
0
LINE
8
BLACK
6
CONTINUOUS
10
0.5686760629921259
20
0.8056846062992126
11
0.5659602755905512
21
0.8042861023622047
0
LINE
8
BLACK
6
CONTINUOUS
10
0.5659602755905512
20
0.8042861023622047
11
0.5647695669291338
21
0.8030527559055118
0
LINE
8
BLACK
6
CONTINUOUS
10
0.5647695669291338
20
0.8030527559055118
11
0.5632409842519684
21
0.7999024803149606
0
LINE
8
BLACK
6
CONTINUOUS
10
0.5632409842519684
20
0.7999024803149606
11
0.5615826377952756
21
0.7930710629921259
0
LINE
8
BLACK
6
CONTINUOUS
10
0.5615826377952756
20
0.7930710629921259
11
0.561631968503937
21
0.7844225196850394
0
LINE
8
BLACK
6
CONTINUOUS
10
0.561631968503937
20
0.7844225196850394
11
0.5633879921259842
21
0.7775968503937007
0
LINE
8
BLACK
6
CONTINUOUS
10
0.5633879921259842
20
0.7775968503937007
11
0.564898031496063
21
0.7746645275590551
0
LINE
8
BLACK
6
CONTINUOUS
10
0.564898031496063
20
0.7746645275590551
11
0.5661313779527559
21
0.7734737401574803
0
LINE
8
BLACK
6
CONTINUOUS
10
0.5661313779527559
20
0.7734737401574803
11
0.5688128346456692
21
0.7721726377952756
0
LINE
8
BLACK
6
CONTINUOUS
10
0.5688128346456692
20
0.7721726377952756
11
0.5711813779527559
21
0.7722037007874015
0
LINE
8
BLACK
6
CONTINUOUS
10
0.5711813779527559
20
0.7722037007874015
11
0.5738971259842519
21
0.7736022047244094
0
LINE
8
BLACK
6
CONTINUOUS
10
0.5738971259842519
20
0.7736022047244094
11
0.5750879133858268
21
0.7748356299212599
0
LINE
8
BLACK
6
CONTINUOUS
10
0.5750879133858268
20
0.7748356299212599
11
0.5766164566929134
21
0.7779858661417323
0
LINE
8
BLACK
6
CONTINUOUS
10
0.5766164566929134
20
0.7779858661417323
11
0.5782748031496063
21
0.7848172834645669
0
LINE
8
BLACK
6
CONTINUOUS
10
0.5782748031496063
20
0.7848172834645669
11
0.5782254724409449
21
0.7934658267716536
0
LINE
8
BLACK
6
CONTINUOUS
10
0.5782254724409449
20
0.7934658267716536
11
0.5764694488188976
21
0.8002914960629921
0
LINE
8
BLACK
6
CONTINUOUS
10
0.5764694488188976
20
0.8002914960629921
11
0.5749594488188976
21
0.8032238188976378
0
LINE
8
BLACK
6
CONTINUOUS
10
0.5749594488188976
20
0.8032238188976378
11
0.5737261023622047
21
0.8044145275590551
0
LINE
8
BLACK
6
CONTINUOUS
10
0.5737261023622047
20
0.8044145275590551
11
0.5710446062992126
21
0.8057156692913385
0
LINE
8
BLACK
6
CONTINUOUS
10
0.5710446062992126
20
0.8057156692913385
11
0.5686760629921259
21
0.8056846062992126
0
LINE
8
BLACK
6
CONTINUOUS
10
0.5427274015748031
20
0.7757621653543307
11
0.5434477165354331
21
0.7754638188976378
0
LINE
8
BLACK
6
CONTINUOUS
10
0.5434477165354331
20
0.7754638188976378
11
0.5434477559055118
21
0.7754637795275591
0
LINE
8
BLACK
6
CONTINUOUS
10
0.5434477559055118
20
0.7754637795275591
11
0.5457699606299212
21
0.7732217716535433
0
LINE
8
BLACK
6
CONTINUOUS
10
0.5457699606299212
20
0.7732217716535433
11
0.5461372047244094
21
0.7727742913385827
0
LINE
8
BLACK
6
CONTINUOUS
10
0.5461372047244094
20
0.7727742913385827
11
0.5465762598425197
21
0.7717142125984252
0
LINE
8
BLACK
6
CONTINUOUS
10
0.5465762598425197
20
0.7717142125984252
11
0.5465780708661417
21
0.7717098818897637
0
LINE
8
BLACK
6
CONTINUOUS
10
0.5465780708661417
20
0.7717098818897637
11
0.5465780708661417
21
0.7705577952755905
0
LINE
8
BLACK
6
CONTINUOUS
10
0.5465780708661417
20
0.7705577952755905
11
0.5461371653543307
21
0.7694933858267716
0
LINE
8
BLACK
6
CONTINUOUS
10
0.5461371653543307
20
0.7694933858267716
11
0.5438951968503937
21
0.7671711811023622
0
LINE
8
BLACK
6
CONTINUOUS
10
0.5438951968503937
20
0.7671711811023622
11
0.5434477559055118
21
0.7668039763779527
0
LINE
8
BLACK
6
CONTINUOUS
10
0.5434477559055118
20
0.7668039763779527
11
0.5423833464566929
21
0.7663630708661417
0
LINE
8
BLACK
6
CONTINUOUS
10
0.5423833464566929
20
0.7663630708661417
11
0.5423833070866142
21
0.7663630708661417
0
LINE
8
BLACK
6
CONTINUOUS
10
0.5423833070866142
20
0.7663630708661417
11
0.5412312598425196
21
0.7663630708661417
0
LINE
8
BLACK
6
CONTINUOUS
10
0.5412312598425196
20
0.7663630708661417
11
0.5412312204724409
21
0.7663630708661417
0
LINE
8
BLACK
6
CONTINUOUS
10
0.5412312204724409
20
0.7663630708661417
11
0.5401668110236221
21
0.7668039763779527
0
LINE
8
BLACK
6
CONTINUOUS
10
0.5401668110236221
20
0.7668039763779527
11
0.5378446062992126
21
0.7690459448818897
0
LINE
8
BLACK
6
CONTINUOUS
10
0.5378446062992126
20
0.7690459448818897
11
0.5374774015748032
21
0.7694933858267716
0
LINE
8
BLACK
6
CONTINUOUS
10
0.5374774015748032
20
0.7694933858267716
11
0.5372348031496063
21
0.770079094488189
0
LINE
8
BLACK
6
CONTINUOUS
10
0.5372348031496063
20
0.770079094488189
11
0.5370364960629921
21
0.7705577952755905
0
LINE
8
BLACK
6
CONTINUOUS
10
0.5370364960629921
20
0.7705577952755905
11
0.5370364960629921
21
0.7717098818897637
0
LINE
8
BLACK
6
CONTINUOUS
10
0.5370364960629921
20
0.7717098818897637
11
0.5374773622047244
21
0.7727742913385827
0
LINE
8
BLACK
6
CONTINUOUS
10
0.5374773622047244
20
0.7727742913385827
11
0.5397193307086614
21
0.7750965354330709
0
LINE
8
BLACK
6
CONTINUOUS
10
0.5397193307086614
20
0.7750965354330709
11
0.5401668110236221
21
0.7754637795275591
0
LINE
8
BLACK
6
CONTINUOUS
10
0.5401668110236221
20
0.7754637795275591
11
0.5401668503937008
21
0.7754638188976378
0
LINE
8
BLACK
6
CONTINUOUS
10
0.5401668503937008
20
0.7754638188976378
11
0.5408871653543307
21
0.7757621653543307
0
LINE
8
BLACK
6
CONTINUOUS
10
0.5408871653543307
20
0.7757621653543307
11
0.5412312204724409
21
0.77590468503937
0
LINE
8
BLACK
6
CONTINUOUS
10
0.5412312204724409
20
0.77590468503937
11
0.5423833070866142
21
0.77590468503937
0
LINE
8
BLACK
6
CONTINUOUS
10
0.5423833070866142
20
0.77590468503937
11
0.5423833464566929
21
0.77590468503937
0
LINE
8
BLACK
6
CONTINUOUS
10
0.5423833464566929
20
0.77590468503937
11
0.5427274015748031
21
0.7757621653543307
0
LINE
8
BLACK
6
CONTINUOUS
10
0.6567440157480314
20
0.7984018503937008
11
0.6568420078740157
21
0.7983612598425197
0
LINE
8
BLACK
6
CONTINUOUS
10
0.6568420078740157
20
0.7983612598425197
11
0.6569478346456693
21
0.7983537401574803
0
LINE
8
BLACK
6
CONTINUOUS
10
0.6569478346456693
20
0.7983537401574803
11
0.6574594094488189
21
0.7981055118110236
0
LINE
8
BLACK
6
CONTINUOUS
10
0.6574594094488189
20
0.7981055118110236
11
0.6578084251968503
21
0.7979609448818897
0
LINE
8
BLACK
6
CONTINUOUS
10
0.6578084251968503
20
0.7979609448818897
11
0.6578565354330709
21
0.7979128346456693
0
LINE
8
BLACK
6
CONTINUOUS
10
0.6578565354330709
20
0.7979128346456693
11
0.661238031496063
21
0.7962720866141733
0
LINE
8
BLACK
6
CONTINUOUS
10
0.661238031496063
20
0.7962720866141733
11
0.6613343307086614
21
0.7962114566929134
0
LINE
8
BLACK
6
CONTINUOUS
10
0.6613343307086614
20
0.7962114566929134
11
0.6613798031496063
21
0.7961962992125984
0
LINE
8
BLACK
6
CONTINUOUS
10
0.6613798031496063
20
0.7961962992125984
11
0.6614363779527559
21
0.7961472440944881
0
LINE
8
BLACK
6
CONTINUOUS
10
0.6614363779527559
20
0.7961472440944881
11
0.6617278740157481
21
0.7959637401574803
0
LINE
8
BLACK
6
CONTINUOUS
10
0.6617278740157481
20
0.7959637401574803
11
0.6619703543307086
21
0.7956841338582678
0
LINE
8
BLACK
6
CONTINUOUS
10
0.6619703543307086
20
0.7956841338582678
11
0.6622501968503937
21
0.7954414566929133
0
LINE
8
BLACK
6
CONTINUOUS
10
0.6622501968503937
20
0.7954414566929133
11
0.6623515354330709
21
0.7952446456692913
0
LINE
8
BLACK
6
CONTINUOUS
10
0.6623515354330709
20
0.7952446456692913
11
0.6624827559055118
21
0.7950933464566929
0
LINE
8
BLACK
6
CONTINUOUS
10
0.6624827559055118
20
0.7950933464566929
11
0.6625805511811024
21
0.7947998818897638
0
LINE
8
BLACK
6
CONTINUOUS
10
0.6625805511811024
20
0.7947998818897638
11
0.6644333070866142
21
0.7912020472440945
0
LINE
8
BLACK
6
CONTINUOUS
10
0.6644333070866142
20
0.7912020472440945
11
0.6646401968503937
21
0.7906614566929133
0
LINE
8
BLACK
6
CONTINUOUS
10
0.6646401968503937
20
0.7906614566929133
11
0.6646477165354331
21
0.7905555905511811
0
LINE
8
BLACK
6
CONTINUOUS
10
0.6646477165354331
20
0.7905555905511811
11
0.6646883070866142
21
0.7904575984251968
0
LINE
8
BLACK
6
CONTINUOUS
10
0.6646883070866142
20
0.7904575984251968
11
0.6646896062992126
21
0.7899658267716535
0
LINE
8
BLACK
6
CONTINUOUS
10
0.6646896062992126
20
0.7899658267716535
11
0.6647218503937008
21
0.7895122440944882
0
LINE
8
BLACK
6
CONTINUOUS
10
0.6647218503937008
20
0.7895122440944882
11
0.664691062992126
21
0.7894199606299213
0
LINE
8
BLACK
6
CONTINUOUS
10
0.664691062992126
20
0.7894199606299213
11
0.6647450393700787
21
0.769259094488189
0
LINE
8
BLACK
6
CONTINUOUS
10
0.6647450393700787
20
0.769259094488189
11
0.6646883070866142
21
0.768683031496063
0
LINE
8
BLACK
6
CONTINUOUS
10
0.6646883070866142
20
0.768683031496063
11
0.6642474015748031
21
0.7676186220472441
0
LINE
8
BLACK
6
CONTINUOUS
10
0.6642474015748031
20
0.7676186220472441
11
0.6634327559055118
21
0.7668039763779527
0
LINE
8
BLACK
6
CONTINUOUS
10
0.6634327559055118
20
0.7668039763779527
11
0.6623683464566928
21
0.7663630708661417
0
LINE
8
BLACK
6
CONTINUOUS
10
0.6623683464566928
20
0.7663630708661417
11
0.6612162204724409
21
0.7663630708661417
0
LINE
8
BLACK
6
CONTINUOUS
10
0.6612162204724409
20
0.7663630708661417
11
0.6601518110236221
21
0.7668039763779527
0
LINE
8
BLACK
6
CONTINUOUS
10
0.6601518110236221
20
0.7668039763779527
11
0.6593371653543307
21
0.7676186220472441
0
LINE
8
BLACK
6
CONTINUOUS
10
0.6593371653543307
20
0.7676186220472441
11
0.6588962598425196
21
0.768683031496063
0
LINE
8
BLACK
6
CONTINUOUS
10
0.6588962598425196
20
0.768683031496063
11
0.6588411417322835
21
0.789272125984252
0
LINE
8
BLACK
6
CONTINUOUS
10
0.6588411417322835
20
0.789272125984252
11
0.6577050787401575
21
0.7914782677165354
0
LINE
8
BLACK
6
CONTINUOUS
10
0.6577050787401575
20
0.7914782677165354
11
0.6553983464566929
21
0.7925975196850393
0
LINE
8
BLACK
6
CONTINUOUS
10
0.6553983464566929
20
0.7925975196850393
11
0.6511608661417323
21
0.7925587401574803
0
LINE
8
BLACK
6
CONTINUOUS
10
0.6511608661417323
20
0.7925587401574803
11
0.648946968503937
21
0.7914186614173229
0
LINE
8
BLACK
6
CONTINUOUS
10
0.648946968503937
20
0.7914186614173229
11
0.6478190157480315
21
0.789094094488189
0
LINE
8
BLACK
6
CONTINUOUS
10
0.6478190157480315
20
0.789094094488189
11
0.6478721259842519
21
0.769259094488189
0
LINE
8
BLACK
6
CONTINUOUS
10
0.6478721259842519
20
0.769259094488189
11
0.6478153937007873
21
0.768683031496063
0
LINE
8
BLACK
6
CONTINUOUS
10
0.6478153937007873
20
0.768683031496063
11
0.6473744881889764
21
0.7676186220472441
0
LINE
8
BLACK
6
CONTINUOUS
10
0.6473744881889764
20
0.7676186220472441
11
0.646559842519685
21
0.7668039763779527
0
LINE
8
BLACK
6
CONTINUOUS
10
0.646559842519685
20
0.7668039763779527
11
0.6454954330708661
21
0.7663630708661417
0
LINE
8
BLACK
6
CONTINUOUS
10
0.6454954330708661
20
0.7663630708661417
11
0.6443433070866141
21
0.7663630708661417
0
LINE
8
BLACK
6
CONTINUOUS
10
0.6443433070866141
20
0.7663630708661417
11
0.6432788976377952
21
0.7668039763779527
0
LINE
8
BLACK
6
CONTINUOUS
10
0.6432788976377952
20
0.7668039763779527
11
0.6424642519685039
21
0.7676186220472441
0
LINE
8
BLACK
6
CONTINUOUS
10
0.6424642519685039
20
0.7676186220472441
11
0.6420233464566929
21
0.768683031496063
0
LINE
8
BLACK
6
CONTINUOUS
10
0.6420233464566929
20
0.768683031496063
11
0.6419682283464567
21
0.789272125984252
0
LINE
8
BLACK
6
CONTINUOUS
10
0.6419682283464567
20
0.789272125984252
11
0.6408321653543307
21
0.7914782283464566
0
LINE
8
BLACK
6
CONTINUOUS
10
0.6408321653543307
20
0.7914782283464566
11
0.6385254724409448
21
0.7925975196850393
0
LINE
8
BLACK
6
CONTINUOUS
10
0.6385254724409448
20
0.7925975196850393
11
0.6342879921259842
21
0.7925587401574803
0
LINE
8
BLACK
6
CONTINUOUS
10
0.6342879921259842
20
0.7925587401574803
11
0.6315770866141732
21
0.7911627559055118
0
LINE
8
BLACK
6
CONTINUOUS
10
0.6315770866141732
20
0.7911627559055118
11
0.630954251968504
21
0.7905176377952756
0
LINE
8
BLACK
6
CONTINUOUS
10
0.630954251968504
20
0.7905176377952756
11
0.6309992519685039
21
0.769259094488189
0
LINE
8
BLACK
6
CONTINUOUS
10
0.6309992519685039
20
0.769259094488189
11
0.6309425196850393
21
0.768683031496063
0
LINE
8
BLACK
6
CONTINUOUS
10
0.6309425196850393
20
0.768683031496063
11
0.6305016141732284
21
0.7676186220472441
0
LINE
8
BLACK
6
CONTINUOUS
10
0.6305016141732284
20
0.7676186220472441
11
0.629686968503937
21
0.7668039763779527
0
LINE
8
BLACK
6
CONTINUOUS
10
0.629686968503937
20
0.7668039763779527
11
0.6286225590551181
21
0.7663630708661417
0
LINE
8
BLACK
6
CONTINUOUS
10
0.6286225590551181
20
0.7663630708661417
11
0.6274704330708661
21
0.7663630708661417
0
LINE
8
BLACK
6
CONTINUOUS
10
0.6274704330708661
20
0.7663630708661417
11
0.6264060236220472
21
0.7668039763779527
0
LINE
8
BLACK
6
CONTINUOUS
10
0.6264060236220472
20
0.7668039763779527
11
0.6255913779527559
21
0.7676186220472441
0
LINE
8
BLACK
6
CONTINUOUS
10
0.6255913779527559
20
0.7676186220472441
11
0.6251504724409449
21
0.768683031496063
0
LINE
8
BLACK
6
CONTINUOUS
10
0.6251504724409449
20
0.768683031496063
11
0.6250937401574803
21
0.7955058267716535
0
LINE
8
BLACK
6
CONTINUOUS
10
0.6250937401574803
20
0.7955058267716535
11
0.6251504724409449
21
0.7960818897637795
0
LINE
8
BLACK
6
CONTINUOUS
10
0.6251504724409449
20
0.7960818897637795
11
0.6255913779527559
21
0.7971462992125984
0
LINE
8
BLACK
6
CONTINUOUS
10
0.6255913779527559
20
0.7971462992125984
11
0.6264060236220472
21
0.7979609448818897
0
LINE
8
BLACK
6
CONTINUOUS
10
0.6264060236220472
20
0.7979609448818897
11
0.6274704330708661
21
0.7984018503937008
0
LINE
8
BLACK
6
CONTINUOUS
10
0.6274704330708661
20
0.7984018503937008
11
0.6286225590551181
21
0.7984018503937008
0
LINE
8
BLACK
6
CONTINUOUS
10
0.6286225590551181
20
0.7984018503937008
11
0.629686968503937
21
0.7979609448818897
0
LINE
8
BLACK
6
CONTINUOUS
10
0.629686968503937
20
0.7979609448818897
11
0.6304695275590551
21
0.7971783858267716
0
LINE
8
BLACK
6
CONTINUOUS
10
0.6304695275590551
20
0.7971783858267716
11
0.6323502755905511
21
0.7981468503937008
0
LINE
8
BLACK
6
CONTINUOUS
10
0.6323502755905511
20
0.7981468503937008
11
0.6328908661417323
21
0.7983537401574803
0
LINE
8
BLACK
6
CONTINUOUS
10
0.6328908661417323
20
0.7983537401574803
11
0.6329967322834645
21
0.7983612992125984
0
LINE
8
BLACK
6
CONTINUOUS
10
0.6329967322834645
20
0.7983612992125984
11
0.6330947244094488
21
0.7984018503937008
0
LINE
8
BLACK
6
CONTINUOUS
10
0.6330947244094488
20
0.7984018503937008
11
0.6336379133858268
21
0.7984068503937007
0
LINE
8
BLACK
6
CONTINUOUS
10
0.6336379133858268
20
0.7984068503937007
11
0.6340400787401574
21
0.7984353937007874
0
LINE
8
BLACK
6
CONTINUOUS
10
0.6340400787401574
20
0.7984353937007874
11
0.6341127559055117
21
0.7984111811023622
0
LINE
8
BLACK
6
CONTINUOUS
10
0.6341127559055117
20
0.7984111811023622
11
0.6392950787401575
21
0.7984585826771653
0
LINE
8
BLACK
6
CONTINUOUS
10
0.6392950787401575
20
0.7984585826771653
11
0.6398711417322834
21
0.7984018503937008
0
LINE
8
BLACK
6
CONTINUOUS
10
0.6398711417322834
20
0.7984018503937008
11
0.6399691338582677
21
0.7983612598425197
0
LINE
8
BLACK
6
CONTINUOUS
10
0.6399691338582677
20
0.7983612598425197
11
0.6400749606299212
21
0.7983537401574803
0
LINE
8
BLACK
6
CONTINUOUS
10
0.6400749606299212
20
0.7983537401574803
11
0.6405864960629921
21
0.7981055511811024
0
LINE
8
BLACK
6
CONTINUOUS
10
0.6405864960629921
20
0.7981055511811024
11
0.6409355511811023
21
0.7979609448818897
0
LINE
8
BLACK
6
CONTINUOUS
10
0.6409355511811023
20
0.7979609448818897
11
0.6409836614173228
21
0.7979128346456693
0
LINE
8
BLACK
6
CONTINUOUS
10
0.6409836614173228
20
0.7979128346456693
11
0.6443651181102362
21
0.7962720866141733
0
LINE
8
BLACK
6
CONTINUOUS
10
0.6443651181102362
20
0.7962720866141733
11
0.6444614566929133
21
0.7962114566929134
0
LINE
8
BLACK
6
CONTINUOUS
10
0.6444614566929133
20
0.7962114566929134
11
0.6445068897637796
21
0.7961962992125984
0
LINE
8
BLACK
6
CONTINUOUS
10
0.6445068897637796
20
0.7961962992125984
11
0.6445634251968504
21
0.7961472834645669
0
LINE
8
BLACK
6
CONTINUOUS
10
0.6445634251968504
20
0.7961472834645669
11
0.644855
21
0.7959637401574803
0
LINE
8
BLACK
6
CONTINUOUS
10
0.644855
20
0.7959637401574803
11
0.6449193700787401
21
0.7958895275590551
0
LINE
8
BLACK
6
CONTINUOUS
10
0.6449193700787401
20
0.7958895275590551
11
0.6449837401574803
21
0.7959637401574803
0
LINE
8
BLACK
6
CONTINUOUS
10
0.6449837401574803
20
0.7959637401574803
11
0.6451805511811024
21
0.7960651181102362
0
LINE
8
BLACK
6
CONTINUOUS
10
0.6451805511811024
20
0.7960651181102362
11
0.6453318503937008
21
0.7961962992125984
0
LINE
8
BLACK
6
CONTINUOUS
10
0.6453318503937008
20
0.7961962992125984
11
0.6456253149606299
21
0.7962941338582677
0
LINE
8
BLACK
6
CONTINUOUS
10
0.6456253149606299
20
0.7962941338582677
11
0.6492231496062992
21
0.7981468503937008
0
LINE
8
BLACK
6
CONTINUOUS
10
0.6492231496062992
20
0.7981468503937008
11
0.6497637401574803
21
0.7983537401574803
0
LINE
8
BLACK
6
CONTINUOUS
10
0.6497637401574803
20
0.7983537401574803
11
0.6498696062992125
21
0.7983612992125984
0
LINE
8
BLACK
6
CONTINUOUS
10
0.6498696062992125
20
0.7983612992125984
11
0.6499675984251968
21
0.7984018503937008
0
LINE
8
BLACK
6
CONTINUOUS
10
0.6499675984251968
20
0.7984018503937008
11
0.6505107874015748
21
0.7984068503937007
0
LINE
8
BLACK
6
CONTINUOUS
10
0.6505107874015748
20
0.7984068503937007
11
0.6509129527559055
21
0.7984353937007874
0
LINE
8
BLACK
6
CONTINUOUS
10
0.6509129527559055
20
0.7984353937007874
11
0.6509856299212599
21
0.7984111811023622
0
LINE
8
BLACK
6
CONTINUOUS
10
0.6509856299212599
20
0.7984111811023622
11
0.6561679527559054
21
0.7984585826771653
0
LINE
8
BLACK
6
CONTINUOUS
10
0.6561679527559054
20
0.7984585826771653
11
0.6567440157480314
21
0.7984018503937008
0
LINE
8
BLACK
6
CONTINUOUS
10
0.7092374409448818
20
0.7984018503937008
11
0.7093354330708661
21
0.7983612598425197
0
LINE
8
BLACK
6
CONTINUOUS
10
0.7093354330708661
20
0.7983612598425197
11
0.7094412598425197
21
0.7983537401574803
0
LINE
8
BLACK
6
CONTINUOUS
10
0.7094412598425197
20
0.7983537401574803
11
0.7099528346456693
21
0.7981055118110236
0
LINE
8
BLACK
6
CONTINUOUS
10
0.7099528346456693
20
0.7981055118110236
11
0.7103018503937008
21
0.7979609448818897
0
LINE
8
BLACK
6
CONTINUOUS
10
0.7103018503937008
20
0.7979609448818897
11
0.7103499606299213
21
0.7979128346456693
0
LINE
8
BLACK
6
CONTINUOUS
10
0.7103499606299213
20
0.7979128346456693
11
0.7137314566929134
21
0.7962720866141733
0
LINE
8
BLACK
6
CONTINUOUS
10
0.7137314566929134
20
0.7962720866141733
11
0.7138277559055118
21
0.7962114566929134
0
LINE
8
BLACK
6
CONTINUOUS
10
0.7138277559055118
20
0.7962114566929134
11
0.7138732283464567
21
0.7961962992125984
0
LINE
8
BLACK
6
CONTINUOUS
10
0.7138732283464567
20
0.7961962992125984
11
0.7139298031496063
21
0.7961472440944881
0
LINE
8
BLACK
6
CONTINUOUS
10
0.7139298031496063
20
0.7961472440944881
11
0.7142212992125984
21
0.7959637401574803
0
LINE
8
BLACK
6
CONTINUOUS
10
0.7142212992125984
20
0.7959637401574803
11
0.714463779527559
21
0.7956841338582678
0
LINE
8
BLACK
6
CONTINUOUS
10
0.714463779527559
20
0.7956841338582678
11
0.7147436220472441
21
0.7954414566929133
0
LINE
8
BLACK
6
CONTINUOUS
10
0.7147436220472441
20
0.7954414566929133
11
0.7148449606299212
21
0.7952446456692913
0
LINE
8
BLACK
6
CONTINUOUS
10
0.7148449606299212
20
0.7952446456692913
11
0.7149761811023622
21
0.7950933464566929
0
LINE
8
BLACK
6
CONTINUOUS
10
0.7149761811023622
20
0.7950933464566929
11
0.7150739763779528
21
0.7947998818897638
0
LINE
8
BLACK
6
CONTINUOUS
10
0.7150739763779528
20
0.7947998818897638
11
0.7169267322834646
21
0.7912020472440945
0
LINE
8
BLACK
6
CONTINUOUS
10
0.7169267322834646
20
0.7912020472440945
11
0.7171336220472441
21
0.7906614566929133
0
LINE
8
BLACK
6
CONTINUOUS
10
0.7171336220472441
20
0.7906614566929133
11
0.7171411417322835
21
0.7905555905511811
0
LINE
8
BLACK
6
CONTINUOUS
10
0.7171411417322835
20
0.7905555905511811
11
0.7171817322834646
21
0.7904575984251968
0
LINE
8
BLACK
6
CONTINUOUS
10
0.7171817322834646
20
0.7904575984251968
11
0.717183031496063
21
0.7899658267716535
0
LINE
8
BLACK
6
CONTINUOUS
10
0.717183031496063
20
0.7899658267716535
11
0.7172152755905512
21
0.7895122440944882
0
LINE
8
BLACK
6
CONTINUOUS
10
0.7172152755905512
20
0.7895122440944882
11
0.7171844881889764
21
0.7894199606299213
0
LINE
8
BLACK
6
CONTINUOUS
10
0.7171844881889764
20
0.7894199606299213
11
0.7172384645669291
21
0.769259094488189
0
LINE
8
BLACK
6
CONTINUOUS
10
0.7172384645669291
20
0.769259094488189
11
0.7171817322834646
21
0.768683031496063
0
LINE
8
BLACK
6
CONTINUOUS
10
0.7171817322834646
20
0.768683031496063
11
0.7167408267716535
21
0.7676186220472441
0
LINE
8
BLACK
6
CONTINUOUS
10
0.7167408267716535
20
0.7676186220472441
11
0.7159261811023622
21
0.7668039763779527
0
LINE
8
BLACK
6
CONTINUOUS
10
0.7159261811023622
20
0.7668039763779527
11
0.7148617716535433
21
0.7663630708661417
0
LINE
8
BLACK
6
CONTINUOUS
10
0.7148617716535433
20
0.7663630708661417
11
0.7137096456692913
21
0.7663630708661417
0
LINE
8
BLACK
6
CONTINUOUS
10
0.7137096456692913
20
0.7663630708661417
11
0.7126452362204724
21
0.7668039763779527
0
LINE
8
BLACK
6
CONTINUOUS
10
0.7126452362204724
20
0.7668039763779527
11
0.7118305905511811
21
0.7676186220472441
0
LINE
8
BLACK
6
CONTINUOUS
10
0.7118305905511811
20
0.7676186220472441
11
0.7113896850393701
21
0.768683031496063
0
LINE
8
BLACK
6
CONTINUOUS
10
0.7113896850393701
20
0.768683031496063
11
0.7113345669291339
21
0.789272125984252
0
LINE
8
BLACK
6
CONTINUOUS
10
0.7113345669291339
20
0.789272125984252
11
0.7101985039370079
21
0.7914782677165354
0
LINE
8
BLACK
6
CONTINUOUS
10
0.7101985039370079
20
0.7914782677165354
11
0.7078917716535433
21
0.7925975196850393
0
LINE
8
BLACK
6
CONTINUOUS
10
0.7078917716535433
20
0.7925975196850393
11
0.7036542913385827
21
0.7925587401574803
0
LINE
8
BLACK
6
CONTINUOUS
10
0.7036542913385827
20
0.7925587401574803
11
0.7014403937007874
21
0.7914186614173229
0
LINE
8
BLACK
6
CONTINUOUS
10
0.7014403937007874
20
0.7914186614173229
11
0.7003124409448819
21
0.789094094488189
0
LINE
8
BLACK
6
CONTINUOUS
10
0.7003124409448819
20
0.789094094488189
11
0.7003655511811023
21
0.769259094488189
0
LINE
8
BLACK
6
CONTINUOUS
10
0.7003655511811023
20
0.769259094488189
11
0.7003088188976377
21
0.768683031496063
0
LINE
8
BLACK
6
CONTINUOUS
10
0.7003088188976377
20
0.768683031496063
11
0.6998679133858268
21
0.7676186220472441
0
LINE
8
BLACK
6
CONTINUOUS
10
0.6998679133858268
20
0.7676186220472441
11
0.6990532677165354
21
0.7668039763779527
0
LINE
8
BLACK
6
CONTINUOUS
10
0.6990532677165354
20
0.7668039763779527
11
0.6979888582677165
21
0.7663630708661417
0
LINE
8
BLACK
6
CONTINUOUS
10
0.6979888582677165
20
0.7663630708661417
11
0.6968367322834645
21
0.7663630708661417
0
LINE
8
BLACK
6
CONTINUOUS
10
0.6968367322834645
20
0.7663630708661417
11
0.6957723228346456
21
0.7668039763779527
0
LINE
8
BLACK
6
CONTINUOUS
10
0.6957723228346456
20
0.7668039763779527
11
0.6949576771653543
21
0.7676186220472441
0
LINE
8
BLACK
6
CONTINUOUS
10
0.6949576771653543
20
0.7676186220472441
11
0.6945167716535433
21
0.768683031496063
0
LINE
8
BLACK
6
CONTINUOUS
10
0.6945167716535433
20
0.768683031496063
11
0.694461653543307
21
0.789272125984252
0
LINE
8
BLACK
6
CONTINUOUS
10
0.694461653543307
20
0.789272125984252
11
0.693325590551181
21
0.7914782283464566
0
LINE
8
BLACK
6
CONTINUOUS
10
0.693325590551181
20
0.7914782283464566
11
0.6910188976377952
21
0.7925975196850393
0
LINE
8
BLACK
6
CONTINUOUS
10
0.6910188976377952
20
0.7925975196850393
11
0.6867814173228346
21
0.7925587401574803
0
LINE
8
BLACK
6
CONTINUOUS
10
0.6867814173228346
20
0.7925587401574803
11
0.6840705118110236
21
0.7911627559055118
0
LINE
8
BLACK
6
CONTINUOUS
10
0.6840705118110236
20
0.7911627559055118
11
0.6834476771653543
21
0.7905176377952756
0
LINE
8
BLACK
6
CONTINUOUS
10
0.6834476771653543
20
0.7905176377952756
11
0.6834926771653543
21
0.769259094488189
0
LINE
8
BLACK
6
CONTINUOUS
10
0.6834926771653543
20
0.769259094488189
11
0.6834359448818897
21
0.768683031496063
0
LINE
8
BLACK
6
CONTINUOUS
10
0.6834359448818897
20
0.768683031496063
11
0.6829950393700788
21
0.7676186220472441
0
LINE
8
BLACK
6
CONTINUOUS
10
0.6829950393700788
20
0.7676186220472441
11
0.6821803937007874
21
0.7668039763779527
0
LINE
8
BLACK
6
CONTINUOUS
10
0.6821803937007874
20
0.7668039763779527
11
0.6811159842519685
21
0.7663630708661417
0
LINE
8
BLACK
6
CONTINUOUS
10
0.6811159842519685
20
0.7663630708661417
11
0.6799638582677165
21
0.7663630708661417
0
LINE
8
BLACK
6
CONTINUOUS
10
0.6799638582677165
20
0.7663630708661417
11
0.6788994488188976
21
0.7668039763779527
0
LINE
8
BLACK
6
CONTINUOUS
10
0.6788994488188976
20
0.7668039763779527
11
0.6780848031496063
21
0.7676186220472441
0
LINE
8
BLACK
6
CONTINUOUS
10
0.6780848031496063
20
0.7676186220472441
11
0.6776438976377953
21
0.768683031496063
0
LINE
8
BLACK
6
CONTINUOUS
10
0.6776438976377953
20
0.768683031496063
11
0.6775871653543307
21
0.7955058267716535
0
LINE
8
BLACK
6
CONTINUOUS
10
0.6775871653543307
20
0.7955058267716535
11
0.6776438976377953
21
0.7960818897637795
0
LINE
8
BLACK
6
CONTINUOUS
10
0.6776438976377953
20
0.7960818897637795
11
0.6780848031496063
21
0.7971462992125984
0
LINE
8
BLACK
6
CONTINUOUS
10
0.6780848031496063
20
0.7971462992125984
11
0.6788994488188976
21
0.7979609448818897
0
LINE
8
BLACK
6
CONTINUOUS
10
0.6788994488188976
20
0.7979609448818897
11
0.6799638582677165
21
0.7984018503937008
0
LINE
8
BLACK
6
CONTINUOUS
10
0.6799638582677165
20
0.7984018503937008
11
0.6811159842519685
21
0.7984018503937008
0
LINE
8
BLACK
6
CONTINUOUS
10
0.6811159842519685
20
0.7984018503937008
11
0.6821803937007874
21
0.7979609448818897
0
LINE
8
BLACK
6
CONTINUOUS
10
0.6821803937007874
20
0.7979609448818897
11
0.6829629527559055
21
0.7971783858267716
0
LINE
8
BLACK
6
CONTINUOUS
10
0.6829629527559055
20
0.7971783858267716
11
0.6848437007874015
21
0.7981468503937008
0
LINE
8
BLACK
6
CONTINUOUS
10
0.6848437007874015
20
0.7981468503937008
11
0.6853842913385827
21
0.7983537401574803
0
LINE
8
BLACK
6
CONTINUOUS
10
0.6853842913385827
20
0.7983537401574803
11
0.6854901574803149
21
0.7983612992125984
0
LINE
8
BLACK
6
CONTINUOUS
10
0.6854901574803149
20
0.7983612992125984
11
0.6855881496062992
21
0.7984018503937008
0
LINE
8
BLACK
6
CONTINUOUS
10
0.6855881496062992
20
0.7984018503937008
11
0.6861313385826772
21
0.7984068503937007
0
LINE
8
BLACK
6
CONTINUOUS
10
0.6861313385826772
20
0.7984068503937007
11
0.6865335039370078
21
0.7984353937007874
0
LINE
8
BLACK
6
CONTINUOUS
10
0.6865335039370078
20
0.7984353937007874
11
0.6866061811023622
21
0.7984111811023622
0
LINE
8
BLACK
6
CONTINUOUS
10
0.6866061811023622
20
0.7984111811023622
11
0.6917885039370079
21
0.7984585826771653
0
LINE
8
BLACK
6
CONTINUOUS
10
0.6917885039370079
20
0.7984585826771653
11
0.6923645669291338
21
0.7984018503937008
0
LINE
8
BLACK
6
CONTINUOUS
10
0.6923645669291338
20
0.7984018503937008
11
0.6924625590551181
21
0.7983612598425197
0
LINE
8
BLACK
6
CONTINUOUS
10
0.6924625590551181
20
0.7983612598425197
11
0.6925683858267716
21
0.7983537401574803
0
LINE
8
BLACK
6
CONTINUOUS
10
0.6925683858267716
20
0.7983537401574803
11
0.6930799212598425
21
0.7981055511811024
0
LINE
8
BLACK
6
CONTINUOUS
10
0.6930799212598425
20
0.7981055511811024
11
0.6934289763779528
21
0.7979609448818897
0
LINE
8
BLACK
6
CONTINUOUS
10
0.6934289763779528
20
0.7979609448818897
11
0.6934770866141732
21
0.7979128346456693
0
LINE
8
BLACK
6
CONTINUOUS
10
0.6934770866141732
20
0.7979128346456693
11
0.6968585433070866
21
0.7962720866141733
0
LINE
8
BLACK
6
CONTINUOUS
10
0.6968585433070866
20
0.7962720866141733
11
0.6969548818897637
21
0.7962114566929134
0
LINE
8
BLACK
6
CONTINUOUS
10
0.6969548818897637
20
0.7962114566929134
11
0.6970003149606299
21
0.7961962992125984
0
LINE
8
BLACK
6
CONTINUOUS
10
0.6970003149606299
20
0.7961962992125984
11
0.6970568503937008
21
0.7961472834645669
0
LINE
8
BLACK
6
CONTINUOUS
10
0.6970568503937008
20
0.7961472834645669
11
0.6973484251968504
21
0.7959637401574803
0
LINE
8
BLACK
6
CONTINUOUS
10
0.6973484251968504
20
0.7959637401574803
11
0.6974127952755905
21
0.7958895275590551
0
LINE
8
BLACK
6
CONTINUOUS
10
0.6974127952755905
20
0.7958895275590551
11
0.6974771653543307
21
0.7959637401574803
0
LINE
8
BLACK
6
CONTINUOUS
10
0.6974771653543307
20
0.7959637401574803
11
0.6976739763779527
21
0.7960651181102362
0
LINE
8
BLACK
6
CONTINUOUS
10
0.6976739763779527
20
0.7960651181102362
11
0.6978252755905512
21
0.7961962992125984
0
LINE
8
BLACK
6
CONTINUOUS
10
0.6978252755905512
20
0.7961962992125984
11
0.6981187401574803
21
0.7962941338582677
0
LINE
8
BLACK
6
CONTINUOUS
10
0.6981187401574803
20
0.7962941338582677
11
0.7017165748031496
21
0.7981468503937008
0
LINE
8
BLACK
6
CONTINUOUS
10
0.7017165748031496
20
0.7981468503937008
11
0.7022571653543307
21
0.7983537401574803
0
LINE
8
BLACK
6
CONTINUOUS
10
0.7022571653543307
20
0.7983537401574803
11
0.7023630314960629
21
0.7983612992125984
0
LINE
8
BLACK
6
CONTINUOUS
10
0.7023630314960629
20
0.7983612992125984
11
0.7024610236220472
21
0.7984018503937008
0
LINE
8
BLACK
6
CONTINUOUS
10
0.7024610236220472
20
0.7984018503937008
11
0.7030042125984252
21
0.7984068503937007
0
LINE
8
BLACK
6
CONTINUOUS
10
0.7030042125984252
20
0.7984068503937007
11
0.7034063779527558
21
0.7984353937007874
0
LINE
8
BLACK
6
CONTINUOUS
10
0.7034063779527558
20
0.7984353937007874
11
0.7034790551181103
21
0.7984111811023622
0
LINE
8
BLACK
6
CONTINUOUS
10
0.7034790551181103
20
0.7984111811023622
11
0.7086613779527559
21
0.7984585826771653
0
LINE
8
BLACK
6
CONTINUOUS
10
0.7086613779527559
20
0.7984585826771653
11
0.7092374409448818
21
0.7984018503937008
  0
ENDSEC
  0
EOF
