  0
SECTION
  2
HEADER
  9
$ANGBASE
  50
0.0
  9
$ANGDIR
  70
1
  9
$MEASUREMENT
  70
0
  0
ENDSEC
  0
SECTION
  2
TABLES
  0
TABLE
  2
LTYPE
  70
4
  0
LTYPE
  5
40F
  2
CONTINUOUS
  70
0
  3
Solid line
  72
65
  73
0
  40
0.0
  0
LTYPE
  5
410
  2
DASHDOT
 70
0
  3
Dash Dot ____ _ ____ _
 72
65
 73
4
 40
2.0
 49
1.25
 49
-0.25
 49
0.25
 49
-0.25
  0
LTYPE
  5
411
  2
DASHED
 70
0
  3
Dashed __ __ __ __ __
 72
65
 73
2
 40
0.75
 49
0.5
 49
-0.25
  0
LTYPE
  5
43B
  2
DOTTED
 70
0
  3
Dotted .  .  .  .
 72
65
 73
2
 40
0.2
 49
0.0
 49
-0.2
  0
ENDTAB
  0
TABLE
  2
STYLE
  70
4
  0
STYLE
  2
KICAD
  70
0
  40
0
  41
1
  42
1
  50
0
  71
0
  3
isocp.shx
  0
STYLE
  2
KICADB
  70
0
  40
0
  41
1
  42
1
  50
0
  71
0
  3
isocp.shx
  0
STYLE
  2
KICADI
  70
0
  40
0
  41
1
  42
1
  50
15
  71
0
  3
isocp.shx
  0
STYLE
  2
KICADBI
  70
0
  40
0
  41
1
  42
1
  50
15
  71
0
  3
isocp.shx
  0
ENDTAB
  0
TABLE
  2
LAYER
  70
1
  0
LAYER
  2
BLACK
  70
0
  62
7
  6
CONTINUOUS
  0
ENDTAB
  0
ENDSEC
  0
SECTION
  2
ENTITIES
0
LINE
8
BLACK
6
CONTINUOUS
10
0.1129223622047244
20
0.057248031496063
11
0.1221473622047244
21
0.0540811023622047
0
LINE
8
BLACK
6
CONTINUOUS
10
0.1221473622047244
20
0.0540811023622047
11
0.1307252755905512
21
0.0494389763779528
0
LINE
8
BLACK
6
CONTINUOUS
10
0.1307252755905512
20
0.0494389763779528
11
0.138422125984252
21
0.0434482677165354
0
LINE
8
BLACK
6
CONTINUOUS
10
0.138422125984252
20
0.0434482677165354
11
0.1450279921259842
21
0.0362724015748032
0
LINE
8
BLACK
6
CONTINUOUS
10
0.1450279921259842
20
0.0362724015748032
11
0.1503626377952756
21
0.028107125984252
0
LINE
8
BLACK
6
CONTINUOUS
10
0.1503626377952756
20
0.028107125984252
11
0.1542805511811024
21
0.019175157480315
0
LINE
8
BLACK
6
CONTINUOUS
10
0.1542805511811024
20
0.019175157480315
11
0.1566748818897638
21
0.009720157480315
0
LINE
8
BLACK
6
CONTINUOUS
10
0.1566748818897638
20
0.009720157480315
11
0.1574803149606299
21
0.
0
LINE
8
BLACK
6
CONTINUOUS
10
0.1574803149606299
20
0.
11
0.1566748818897638
21
-0.009720157480315
0
LINE
8
BLACK
6
CONTINUOUS
10
0.1566748818897638
20
-0.009720157480315
11
0.1542805511811024
21
-0.019175157480315
0
LINE
8
BLACK
6
CONTINUOUS
10
0.1542805511811024
20
-0.019175157480315
11
0.1503626377952756
21
-0.028107125984252
0
LINE
8
BLACK
6
CONTINUOUS
10
0.1503626377952756
20
-0.028107125984252
11
0.1450279921259842
21
-0.0362724015748032
0
LINE
8
BLACK
6
CONTINUOUS
10
0.1450279921259842
20
-0.0362724015748032
11
0.138422125984252
21
-0.0434482677165354
0
LINE
8
BLACK
6
CONTINUOUS
10
0.138422125984252
20
-0.0434482677165354
11
0.1307252755905512
21
-0.0494389763779528
0
LINE
8
BLACK
6
CONTINUOUS
10
0.1307252755905512
20
-0.0494389763779528
11
0.1221473622047244
21
-0.0540811023622047
0
LINE
8
BLACK
6
CONTINUOUS
10
0.1221473622047244
20
-0.0540811023622047
11
0.1129223622047244
21
-0.057248031496063
0
LINE
8
BLACK
6
CONTINUOUS
10
0.1129223622047244
20
-0.057248031496063
11
0.1033019291338583
21
-0.0588534251968504
0
LINE
8
BLACK
6
CONTINUOUS
10
0.1033019291338583
20
-0.0588534251968504
11
0.0935484645669291
21
-0.0588534251968504
0
LINE
8
BLACK
6
CONTINUOUS
10
0.0935484645669291
20
-0.0588534251968504
11
0.083928031496063
21
-0.057248031496063
0
LINE
8
BLACK
6
CONTINUOUS
10
0.083928031496063
20
-0.057248031496063
11
0.074703031496063
21
-0.0540811023622047
0
LINE
8
BLACK
6
CONTINUOUS
10
0.074703031496063
20
-0.0540811023622047
11
0.0661251181102362
21
-0.0494389763779528
0
LINE
8
BLACK
6
CONTINUOUS
10
0.0661251181102362
20
-0.0494389763779528
11
0.0584282677165354
21
-0.0434482677165354
0
LINE
8
BLACK
6
CONTINUOUS
10
0.0584282677165354
20
-0.0434482677165354
11
0.0518224015748031
21
-0.0362724015748032
0
LINE
8
BLACK
6
CONTINUOUS
10
0.0518224015748031
20
-0.0362724015748032
11
0.0464877559055118
21
-0.028107125984252
0
LINE
8
BLACK
6
CONTINUOUS
10
0.0464877559055118
20
-0.028107125984252
11
0.042569842519685
21
-0.019175157480315
0
LINE
8
BLACK
6
CONTINUOUS
10
0.042569842519685
20
-0.019175157480315
11
0.0401755118110236
21
-0.009720157480315
0
LINE
8
BLACK
6
CONTINUOUS
10
0.0401755118110236
20
-0.009720157480315
11
0.0393700787401575
21
0.
0
LINE
8
BLACK
6
CONTINUOUS
10
0.0393700787401575
20
0.
11
0.0401755118110236
21
0.009720157480315
0
LINE
8
BLACK
6
CONTINUOUS
10
0.0401755118110236
20
0.009720157480315
11
0.042569842519685
21
0.019175157480315
0
LINE
8
BLACK
6
CONTINUOUS
10
0.042569842519685
20
0.019175157480315
11
0.0464877559055118
21
0.028107125984252
0
LINE
8
BLACK
6
CONTINUOUS
10
0.0464877559055118
20
0.028107125984252
11
0.0518224015748031
21
0.0362724015748032
0
LINE
8
BLACK
6
CONTINUOUS
10
0.0518224015748031
20
0.0362724015748032
11
0.0584282677165354
21
0.0434482677165354
0
LINE
8
BLACK
6
CONTINUOUS
10
0.0584282677165354
20
0.0434482677165354
11
0.0661251181102362
21
0.0494389763779528
0
LINE
8
BLACK
6
CONTINUOUS
10
0.0661251181102362
20
0.0494389763779528
11
0.074703031496063
21
0.0540811023622047
0
LINE
8
BLACK
6
CONTINUOUS
10
0.074703031496063
20
0.0540811023622047
11
0.083928031496063
21
0.057248031496063
0
LINE
8
BLACK
6
CONTINUOUS
10
0.083928031496063
20
0.057248031496063
11
0.0935484645669291
21
0.0588534251968504
0
LINE
8
BLACK
6
CONTINUOUS
10
0.0935484645669291
20
0.0588534251968504
11
0.1033019291338583
21
0.0588534251968504
0
LINE
8
BLACK
6
CONTINUOUS
10
0.1033019291338583
20
0.0588534251968504
11
0.1129223622047244
21
0.057248031496063
0
LINE
8
BLACK
6
CONTINUOUS
10
0.5066231496062992
20
0.057248031496063
11
0.5158481496062992
21
0.0540811023622047
0
LINE
8
BLACK
6
CONTINUOUS
10
0.5158481496062992
20
0.0540811023622047
11
0.524426062992126
21
0.0494389763779528
0
LINE
8
BLACK
6
CONTINUOUS
10
0.524426062992126
20
0.0494389763779528
11
0.5321229133858267
21
0.0434482677165354
0
LINE
8
BLACK
6
CONTINUOUS
10
0.5321229133858267
20
0.0434482677165354
11
0.538728779527559
21
0.0362724015748032
0
LINE
8
BLACK
6
CONTINUOUS
10
0.538728779527559
20
0.0362724015748032
11
0.5440634251968504
21
0.028107125984252
0
LINE
8
BLACK
6
CONTINUOUS
10
0.5440634251968504
20
0.028107125984252
11
0.5479813385826772
21
0.019175157480315
0
LINE
8
BLACK
6
CONTINUOUS
10
0.5479813385826772
20
0.019175157480315
11
0.5503756692913385
21
0.009720157480315
0
LINE
8
BLACK
6
CONTINUOUS
10
0.5503756692913385
20
0.009720157480315
11
0.5511811023622047
21
0.
0
LINE
8
BLACK
6
CONTINUOUS
10
0.5511811023622047
20
0.
11
0.5503756692913385
21
-0.009720157480315
0
LINE
8
BLACK
6
CONTINUOUS
10
0.5503756692913385
20
-0.009720157480315
11
0.5479813385826772
21
-0.019175157480315
0
LINE
8
BLACK
6
CONTINUOUS
10
0.5479813385826772
20
-0.019175157480315
11
0.5440634251968504
21
-0.028107125984252
0
LINE
8
BLACK
6
CONTINUOUS
10
0.5440634251968504
20
-0.028107125984252
11
0.538728779527559
21
-0.0362724015748032
0
LINE
8
BLACK
6
CONTINUOUS
10
0.538728779527559
20
-0.0362724015748032
11
0.5321229133858267
21
-0.0434482677165354
0
LINE
8
BLACK
6
CONTINUOUS
10
0.5321229133858267
20
-0.0434482677165354
11
0.524426062992126
21
-0.0494389763779528
0
LINE
8
BLACK
6
CONTINUOUS
10
0.524426062992126
20
-0.0494389763779528
11
0.5158481496062992
21
-0.0540811023622047
0
LINE
8
BLACK
6
CONTINUOUS
10
0.5158481496062992
20
-0.0540811023622047
11
0.5066231496062992
21
-0.057248031496063
0
LINE
8
BLACK
6
CONTINUOUS
10
0.5066231496062992
20
-0.057248031496063
11
0.497002716535433
21
-0.0588534251968504
0
LINE
8
BLACK
6
CONTINUOUS
10
0.497002716535433
20
-0.0588534251968504
11
0.4872492519685039
21
-0.0588534251968504
0
LINE
8
BLACK
6
CONTINUOUS
10
0.4872492519685039
20
-0.0588534251968504
11
0.4776288188976378
21
-0.057248031496063
0
LINE
8
BLACK
6
CONTINUOUS
10
0.4776288188976378
20
-0.057248031496063
11
0.4684038188976378
21
-0.0540811023622047
0
LINE
8
BLACK
6
CONTINUOUS
10
0.4684038188976378
20
-0.0540811023622047
11
0.459825905511811
21
-0.0494389763779528
0
LINE
8
BLACK
6
CONTINUOUS
10
0.459825905511811
20
-0.0494389763779528
11
0.4521290551181102
21
-0.0434482677165354
0
LINE
8
BLACK
6
CONTINUOUS
10
0.4521290551181102
20
-0.0434482677165354
11
0.4455231889763779
21
-0.0362724015748032
0
LINE
8
BLACK
6
CONTINUOUS
10
0.4455231889763779
20
-0.0362724015748032
11
0.4401885433070866
21
-0.028107125984252
0
LINE
8
BLACK
6
CONTINUOUS
10
0.4401885433070866
20
-0.028107125984252
11
0.4362706299212598
21
-0.019175157480315
0
LINE
8
BLACK
6
CONTINUOUS
10
0.4362706299212598
20
-0.019175157480315
11
0.4338762992125984
21
-0.009720157480315
0
LINE
8
BLACK
6
CONTINUOUS
10
0.4338762992125984
20
-0.009720157480315
11
0.4330708661417323
21
0.
0
LINE
8
BLACK
6
CONTINUOUS
10
0.4330708661417323
20
0.
11
0.4338762992125984
21
0.009720157480315
0
LINE
8
BLACK
6
CONTINUOUS
10
0.4338762992125984
20
0.009720157480315
11
0.4362706299212598
21
0.019175157480315
0
LINE
8
BLACK
6
CONTINUOUS
10
0.4362706299212598
20
0.019175157480315
11
0.4401885433070866
21
0.028107125984252
0
LINE
8
BLACK
6
CONTINUOUS
10
0.4401885433070866
20
0.028107125984252
11
0.4455231889763779
21
0.0362724015748032
0
LINE
8
BLACK
6
CONTINUOUS
10
0.4455231889763779
20
0.0362724015748032
11
0.4521290551181102
21
0.0434482677165354
0
LINE
8
BLACK
6
CONTINUOUS
10
0.4521290551181102
20
0.0434482677165354
11
0.459825905511811
21
0.0494389763779528
0
LINE
8
BLACK
6
CONTINUOUS
10
0.459825905511811
20
0.0494389763779528
11
0.4684038188976378
21
0.0540811023622047
0
LINE
8
BLACK
6
CONTINUOUS
10
0.4684038188976378
20
0.0540811023622047
11
0.4776288188976378
21
0.057248031496063
0
LINE
8
BLACK
6
CONTINUOUS
10
0.4776288188976378
20
0.057248031496063
11
0.4872492519685039
21
0.0588534251968504
0
LINE
8
BLACK
6
CONTINUOUS
10
0.4872492519685039
20
0.0588534251968504
11
0.497002716535433
21
0.0588534251968504
0
LINE
8
BLACK
6
CONTINUOUS
10
0.497002716535433
20
0.0588534251968504
11
0.5066231496062992
21
0.057248031496063
0
LINE
8
BLACK
6
CONTINUOUS
10
0.9003239370078739
20
0.057248031496063
11
0.909548937007874
21
0.0540811023622047
0
LINE
8
BLACK
6
CONTINUOUS
10
0.909548937007874
20
0.0540811023622047
11
0.9181268503937008
21
0.0494389763779528
0
LINE
8
BLACK
6
CONTINUOUS
10
0.9181268503937008
20
0.0494389763779528
11
0.9258237007874015
21
0.0434482677165354
0
LINE
8
BLACK
6
CONTINUOUS
10
0.9258237007874015
20
0.0434482677165354
11
0.9324295669291338
21
0.0362724015748032
0
LINE
8
BLACK
6
CONTINUOUS
10
0.9324295669291338
20
0.0362724015748032
11
0.9377642125984251
21
0.028107125984252
0
LINE
8
BLACK
6
CONTINUOUS
10
0.9377642125984251
20
0.028107125984252
11
0.9416821259842519
21
0.019175157480315
0
LINE
8
BLACK
6
CONTINUOUS
10
0.9416821259842519
20
0.019175157480315
11
0.9440764566929134
21
0.009720157480315
0
LINE
8
BLACK
6
CONTINUOUS
10
0.9440764566929134
20
0.009720157480315
11
0.9448818897637795
21
0.
0
LINE
8
BLACK
6
CONTINUOUS
10
0.9448818897637795
20
0.
11
0.9440764566929134
21
-0.009720157480315
0
LINE
8
BLACK
6
CONTINUOUS
10
0.9440764566929134
20
-0.009720157480315
11
0.9416821259842519
21
-0.019175157480315
0
LINE
8
BLACK
6
CONTINUOUS
10
0.9416821259842519
20
-0.019175157480315
11
0.9377642125984251
21
-0.028107125984252
0
LINE
8
BLACK
6
CONTINUOUS
10
0.9377642125984251
20
-0.028107125984252
11
0.9324295669291338
21
-0.0362724015748032
0
LINE
8
BLACK
6
CONTINUOUS
10
0.9324295669291338
20
-0.0362724015748032
11
0.9258237007874015
21
-0.0434482677165354
0
LINE
8
BLACK
6
CONTINUOUS
10
0.9258237007874015
20
-0.0434482677165354
11
0.9181268503937008
21
-0.0494389763779528
0
LINE
8
BLACK
6
CONTINUOUS
10
0.9181268503937008
20
-0.0494389763779528
11
0.909548937007874
21
-0.0540811023622047
0
LINE
8
BLACK
6
CONTINUOUS
10
0.909548937007874
20
-0.0540811023622047
11
0.9003239370078739
21
-0.057248031496063
0
LINE
8
BLACK
6
CONTINUOUS
10
0.9003239370078739
20
-0.057248031496063
11
0.8907035039370078
21
-0.0588534251968504
0
LINE
8
BLACK
6
CONTINUOUS
10
0.8907035039370078
20
-0.0588534251968504
11
0.8809500393700788
21
-0.0588534251968504
0
LINE
8
BLACK
6
CONTINUOUS
10
0.8809500393700788
20
-0.0588534251968504
11
0.8713296062992126
21
-0.057248031496063
0
LINE
8
BLACK
6
CONTINUOUS
10
0.8713296062992126
20
-0.057248031496063
11
0.8621046062992126
21
-0.0540811023622047
0
LINE
8
BLACK
6
CONTINUOUS
10
0.8621046062992126
20
-0.0540811023622047
11
0.8535266929133858
21
-0.0494389763779528
0
LINE
8
BLACK
6
CONTINUOUS
10
0.8535266929133858
20
-0.0494389763779528
11
0.8458298425196851
21
-0.0434482677165354
0
LINE
8
BLACK
6
CONTINUOUS
10
0.8458298425196851
20
-0.0434482677165354
11
0.8392239763779528
21
-0.0362724015748032
0
LINE
8
BLACK
6
CONTINUOUS
10
0.8392239763779528
20
-0.0362724015748032
11
0.8338893307086614
21
-0.028107125984252
0
LINE
8
BLACK
6
CONTINUOUS
10
0.8338893307086614
20
-0.028107125984252
11
0.8299714173228346
21
-0.019175157480315
0
LINE
8
BLACK
6
CONTINUOUS
10
0.8299714173228346
20
-0.019175157480315
11
0.8275770866141732
21
-0.009720157480315
0
LINE
8
BLACK
6
CONTINUOUS
10
0.8275770866141732
20
-0.009720157480315
11
0.8267716535433071
21
0.
0
LINE
8
BLACK
6
CONTINUOUS
10
0.8267716535433071
20
0.
11
0.8275770866141732
21
0.009720157480315
0
LINE
8
BLACK
6
CONTINUOUS
10
0.8275770866141732
20
0.009720157480315
11
0.8299714173228346
21
0.019175157480315
0
LINE
8
BLACK
6
CONTINUOUS
10
0.8299714173228346
20
0.019175157480315
11
0.8338893307086614
21
0.028107125984252
0
LINE
8
BLACK
6
CONTINUOUS
10
0.8338893307086614
20
0.028107125984252
11
0.8392239763779528
21
0.0362724015748032
0
LINE
8
BLACK
6
CONTINUOUS
10
0.8392239763779528
20
0.0362724015748032
11
0.8458298425196851
21
0.0434482677165354
0
LINE
8
BLACK
6
CONTINUOUS
10
0.8458298425196851
20
0.0434482677165354
11
0.8535266929133858
21
0.0494389763779528
0
LINE
8
BLACK
6
CONTINUOUS
10
0.8535266929133858
20
0.0494389763779528
11
0.8621046062992126
21
0.0540811023622047
0
LINE
8
BLACK
6
CONTINUOUS
10
0.8621046062992126
20
0.0540811023622047
11
0.8713296062992126
21
0.057248031496063
0
LINE
8
BLACK
6
CONTINUOUS
10
0.8713296062992126
20
0.057248031496063
11
0.8809500393700788
21
0.0588534251968504
0
LINE
8
BLACK
6
CONTINUOUS
10
0.8809500393700788
20
0.0588534251968504
11
0.8907035039370078
21
0.0588534251968504
0
LINE
8
BLACK
6
CONTINUOUS
10
0.8907035039370078
20
0.0588534251968504
11
0.9003239370078739
21
0.057248031496063
0
LINE
8
BLACK
6
CONTINUOUS
10
0.3064049212598425
20
0.1449382283464567
11
0.3103756299212598
21
0.143185
0
LINE
8
BLACK
6
CONTINUOUS
10
0.3103756299212598
20
0.143185
11
0.313444842519685
21
0.1401157874015748
0
LINE
8
BLACK
6
CONTINUOUS
10
0.313444842519685
20
0.1401157874015748
11
0.3151980708661417
21
0.1361450787401575
0
LINE
8
BLACK
6
CONTINUOUS
10
0.3151980708661417
20
0.1361450787401575
11
0.315511811023622
21
0.1334409448818898
0
LINE
8
BLACK
6
CONTINUOUS
10
0.315511811023622
20
0.1334409448818898
11
0.315511811023622
21
0.113755905511811
0
LINE
8
BLACK
6
CONTINUOUS
10
0.315511811023622
20
0.113755905511811
11
0.3151980708661417
21
0.1110517716535433
0
LINE
8
BLACK
6
CONTINUOUS
10
0.3151980708661417
20
0.1110517716535433
11
0.313444842519685
21
0.107081062992126
0
LINE
8
BLACK
6
CONTINUOUS
10
0.313444842519685
20
0.107081062992126
11
0.3103756299212598
21
0.1040118503937008
0
LINE
8
BLACK
6
CONTINUOUS
10
0.3103756299212598
20
0.1040118503937008
11
0.3064049212598425
21
0.1022586220472441
0
LINE
8
BLACK
6
CONTINUOUS
10
0.3064049212598425
20
0.1022586220472441
11
0.3037007874015748
21
0.1019448818897638
0
LINE
8
BLACK
6
CONTINUOUS
10
0.3037007874015748
20
0.1019448818897638
11
0.2662992125984252
21
0.1019448818897638
0
LINE
8
BLACK
6
CONTINUOUS
10
0.2662992125984252
20
0.1019448818897638
11
0.2635950787401575
21
0.1022586220472441
0
LINE
8
BLACK
6
CONTINUOUS
10
0.2635950787401575
20
0.1022586220472441
11
0.2596243700787402
21
0.1040118503937008
0
LINE
8
BLACK
6
CONTINUOUS
10
0.2596243700787402
20
0.1040118503937008
11
0.2565551574803149
21
0.107081062992126
0
LINE
8
BLACK
6
CONTINUOUS
10
0.2565551574803149
20
0.107081062992126
11
0.2548019291338582
21
0.1110517716535433
0
LINE
8
BLACK
6
CONTINUOUS
10
0.2548019291338582
20
0.1110517716535433
11
0.2544881889763779
21
0.113755905511811
0
LINE
8
BLACK
6
CONTINUOUS
10
0.2544881889763779
20
0.113755905511811
11
0.2544881889763779
21
0.1334409448818898
0
LINE
8
BLACK
6
CONTINUOUS
10
0.2544881889763779
20
0.1334409448818898
11
0.2548019291338582
21
0.1361450787401575
0
LINE
8
BLACK
6
CONTINUOUS
10
0.2548019291338582
20
0.1361450787401575
11
0.2565551574803149
21
0.1401157874015748
0
LINE
8
BLACK
6
CONTINUOUS
10
0.2565551574803149
20
0.1401157874015748
11
0.2596243700787402
21
0.143185
0
LINE
8
BLACK
6
CONTINUOUS
10
0.2596243700787402
20
0.143185
11
0.2635950787401575
21
0.1449382283464567
0
LINE
8
BLACK
6
CONTINUOUS
10
0.2635950787401575
20
0.1449382283464567
11
0.2662992125984252
21
0.145251968503937
0
LINE
8
BLACK
6
CONTINUOUS
10
0.2662992125984252
20
0.145251968503937
11
0.3037007874015748
21
0.145251968503937
0
LINE
8
BLACK
6
CONTINUOUS
10
0.3037007874015748
20
0.145251968503937
11
0.3064049212598425
21
0.1449382283464567
0
LINE
8
BLACK
6
CONTINUOUS
10
0.385406968503937
20
0.1357785826771654
11
0.3879614566929134
21
0.1340716929133858
0
LINE
8
BLACK
6
CONTINUOUS
10
0.3879614566929134
20
0.1340716929133858
11
0.3896683464566929
21
0.1315172047244094
0
LINE
8
BLACK
6
CONTINUOUS
10
0.3896683464566929
20
0.1315172047244094
11
0.3902677165354331
21
0.128503937007874
0
LINE
8
BLACK
6
CONTINUOUS
10
0.3902677165354331
20
0.128503937007874
11
0.3902677165354331
21
0.1166929133858268
0
LINE
8
BLACK
6
CONTINUOUS
10
0.3902677165354331
20
0.1166929133858268
11
0.3896683464566929
21
0.1136796456692913
0
LINE
8
BLACK
6
CONTINUOUS
10
0.3896683464566929
20
0.1136796456692913
11
0.3879614566929134
21
0.111125157480315
0
LINE
8
BLACK
6
CONTINUOUS
10
0.3879614566929134
20
0.111125157480315
11
0.385406968503937
21
0.1094182677165354
0
LINE
8
BLACK
6
CONTINUOUS
10
0.385406968503937
20
0.1094182677165354
11
0.3823937007874016
21
0.1088188976377953
0
LINE
8
BLACK
6
CONTINUOUS
10
0.3823937007874016
20
0.1088188976377953
11
0.3420393700787401
21
0.1088188976377953
0
LINE
8
BLACK
6
CONTINUOUS
10
0.3420393700787401
20
0.1088188976377953
11
0.3390261023622047
21
0.1094182677165354
0
LINE
8
BLACK
6
CONTINUOUS
10
0.3390261023622047
20
0.1094182677165354
11
0.3364716141732284
21
0.111125157480315
0
LINE
8
BLACK
6
CONTINUOUS
10
0.3364716141732284
20
0.111125157480315
11
0.3347647244094488
21
0.1136796456692913
0
LINE
8
BLACK
6
CONTINUOUS
10
0.3347647244094488
20
0.1136796456692913
11
0.3341653543307087
21
0.1166929133858268
0
LINE
8
BLACK
6
CONTINUOUS
10
0.3341653543307087
20
0.1166929133858268
11
0.3341653543307087
21
0.128503937007874
0
LINE
8
BLACK
6
CONTINUOUS
10
0.3341653543307087
20
0.128503937007874
11
0.3347647244094488
21
0.1315172047244094
0
LINE
8
BLACK
6
CONTINUOUS
10
0.3347647244094488
20
0.1315172047244094
11
0.3364716141732284
21
0.1340716929133858
0
LINE
8
BLACK
6
CONTINUOUS
10
0.3364716141732284
20
0.1340716929133858
11
0.3390261023622047
21
0.1357785826771654
0
LINE
8
BLACK
6
CONTINUOUS
10
0.3390261023622047
20
0.1357785826771654
11
0.3420393700787401
21
0.1363779527559055
0
LINE
8
BLACK
6
CONTINUOUS
10
0.3420393700787401
20
0.1363779527559055
11
0.3823937007874016
21
0.1363779527559055
0
LINE
8
BLACK
6
CONTINUOUS
10
0.3823937007874016
20
0.1363779527559055
11
0.385406968503937
21
0.1357785826771654
0
LINE
8
BLACK
6
CONTINUOUS
10
0.4749738976377952
20
0.1357785826771654
11
0.4775283858267717
21
0.1340716929133858
0
LINE
8
BLACK
6
CONTINUOUS
10
0.4775283858267717
20
0.1340716929133858
11
0.4792352755905512
21
0.1315172047244094
0
LINE
8
BLACK
6
CONTINUOUS
10
0.4792352755905512
20
0.1315172047244094
11
0.4798346456692913
21
0.128503937007874
0
LINE
8
BLACK
6
CONTINUOUS
10
0.4798346456692913
20
0.128503937007874
11
0.4798346456692913
21
0.1166929133858268
0
LINE
8
BLACK
6
CONTINUOUS
10
0.4798346456692913
20
0.1166929133858268
11
0.4792352755905512
21
0.1136796456692913
0
LINE
8
BLACK
6
CONTINUOUS
10
0.4792352755905512
20
0.1136796456692913
11
0.4775283858267717
21
0.111125157480315
0
LINE
8
BLACK
6
CONTINUOUS
10
0.4775283858267717
20
0.111125157480315
11
0.4749738976377952
21
0.1094182677165354
0
LINE
8
BLACK
6
CONTINUOUS
10
0.4749738976377952
20
0.1094182677165354
11
0.4719606299212598
21
0.1088188976377953
0
LINE
8
BLACK
6
CONTINUOUS
10
0.4719606299212598
20
0.1088188976377953
11
0.4316062992125984
21
0.1088188976377953
0
LINE
8
BLACK
6
CONTINUOUS
10
0.4316062992125984
20
0.1088188976377953
11
0.428593031496063
21
0.1094182677165354
0
LINE
8
BLACK
6
CONTINUOUS
10
0.428593031496063
20
0.1094182677165354
11
0.4260385433070866
21
0.111125157480315
0
LINE
8
BLACK
6
CONTINUOUS
10
0.4260385433070866
20
0.111125157480315
11
0.4243316535433071
21
0.1136796456692913
0
LINE
8
BLACK
6
CONTINUOUS
10
0.4243316535433071
20
0.1136796456692913
11
0.4237322834645669
21
0.1166929133858268
0
LINE
8
BLACK
6
CONTINUOUS
10
0.4237322834645669
20
0.1166929133858268
11
0.4237322834645669
21
0.128503937007874
0
LINE
8
BLACK
6
CONTINUOUS
10
0.4237322834645669
20
0.128503937007874
11
0.4243316535433071
21
0.1315172047244094
0
LINE
8
BLACK
6
CONTINUOUS
10
0.4243316535433071
20
0.1315172047244094
11
0.4260385433070866
21
0.1340716929133858
0
LINE
8
BLACK
6
CONTINUOUS
10
0.4260385433070866
20
0.1340716929133858
11
0.428593031496063
21
0.1357785826771654
0
LINE
8
BLACK
6
CONTINUOUS
10
0.428593031496063
20
0.1357785826771654
11
0.4316062992125984
21
0.1363779527559055
0
LINE
8
BLACK
6
CONTINUOUS
10
0.4316062992125984
20
0.1363779527559055
11
0.4719606299212598
21
0.1363779527559055
0
LINE
8
BLACK
6
CONTINUOUS
10
0.4719606299212598
20
0.1363779527559055
11
0.4749738976377952
21
0.1357785826771654
0
LINE
8
BLACK
6
CONTINUOUS
10
0.533985748031496
20
0.153349094488189
11
0.5374981889763779
21
0.151002125984252
0
LINE
8
BLACK
6
CONTINUOUS
10
0.5374981889763779
20
0.151002125984252
11
0.5398451574803149
21
0.1474896850393701
0
LINE
8
BLACK
6
CONTINUOUS
10
0.5398451574803149
20
0.1474896850393701
11
0.5406692913385827
21
0.1433464566929134
0
LINE
8
BLACK
6
CONTINUOUS
10
0.5406692913385827
20
0.1433464566929134
11
0.5406692913385827
21
0.1256299212598425
0
LINE
8
BLACK
6
CONTINUOUS
10
0.5406692913385827
20
0.1256299212598425
11
0.5398451574803149
21
0.1214866929133858
0
LINE
8
BLACK
6
CONTINUOUS
10
0.5398451574803149
20
0.1214866929133858
11
0.5374981889763779
21
0.1179742519685039
0
LINE
8
BLACK
6
CONTINUOUS
10
0.5374981889763779
20
0.1179742519685039
11
0.533985748031496
21
0.1156272834645669
0
LINE
8
BLACK
6
CONTINUOUS
10
0.533985748031496
20
0.1156272834645669
11
0.5298425196850394
21
0.1148031496062992
0
LINE
8
BLACK
6
CONTINUOUS
10
0.5298425196850394
20
0.1148031496062992
11
0.5101574803149607
21
0.1148031496062992
0
LINE
8
BLACK
6
CONTINUOUS
10
0.5101574803149607
20
0.1148031496062992
11
0.5060142519685039
21
0.1156272834645669
0
LINE
8
BLACK
6
CONTINUOUS
10
0.5060142519685039
20
0.1156272834645669
11
0.502501811023622
21
0.1179742519685039
0
LINE
8
BLACK
6
CONTINUOUS
10
0.502501811023622
20
0.1179742519685039
11
0.500154842519685
21
0.1214866929133858
0
LINE
8
BLACK
6
CONTINUOUS
10
0.500154842519685
20
0.1214866929133858
11
0.4993307086614173
21
0.1256299212598425
0
LINE
8
BLACK
6
CONTINUOUS
10
0.4993307086614173
20
0.1256299212598425
11
0.4993307086614173
21
0.1433464566929134
0
LINE
8
BLACK
6
CONTINUOUS
10
0.4993307086614173
20
0.1433464566929134
11
0.500154842519685
21
0.1474896850393701
0
LINE
8
BLACK
6
CONTINUOUS
10
0.500154842519685
20
0.1474896850393701
11
0.502501811023622
21
0.151002125984252
0
LINE
8
BLACK
6
CONTINUOUS
10
0.502501811023622
20
0.151002125984252
11
0.5060142519685039
21
0.153349094488189
0
LINE
8
BLACK
6
CONTINUOUS
10
0.5060142519685039
20
0.153349094488189
11
0.5101574803149607
21
0.1541732283464567
0
LINE
8
BLACK
6
CONTINUOUS
10
0.5101574803149607
20
0.1541732283464567
11
0.5298425196850394
21
0.1541732283464567
0
LINE
8
BLACK
6
CONTINUOUS
10
0.5298425196850394
20
0.1541732283464567
11
0.533985748031496
21
0.153349094488189
0
LINE
8
BLACK
6
CONTINUOUS
10
0.1108616141732283
20
0.1699618503937008
11
0.1148323228346457
21
0.1682086220472441
0
LINE
8
BLACK
6
CONTINUOUS
10
0.1148323228346457
20
0.1682086220472441
11
0.1179015354330709
21
0.1651394094488189
0
LINE
8
BLACK
6
CONTINUOUS
10
0.1179015354330709
20
0.1651394094488189
11
0.1196547637795276
21
0.1611687007874016
0
LINE
8
BLACK
6
CONTINUOUS
10
0.1196547637795276
20
0.1611687007874016
11
0.1199685039370079
21
0.1584645669291339
0
LINE
8
BLACK
6
CONTINUOUS
10
0.1199685039370079
20
0.1584645669291339
11
0.1199685039370079
21
0.1387795275590551
0
LINE
8
BLACK
6
CONTINUOUS
10
0.1199685039370079
20
0.1387795275590551
11
0.1196547637795276
21
0.1360753937007874
0
LINE
8
BLACK
6
CONTINUOUS
10
0.1196547637795276
20
0.1360753937007874
11
0.1179015354330709
21
0.1321046850393701
0
LINE
8
BLACK
6
CONTINUOUS
10
0.1179015354330709
20
0.1321046850393701
11
0.1148323228346457
21
0.1290354724409449
0
LINE
8
BLACK
6
CONTINUOUS
10
0.1148323228346457
20
0.1290354724409449
11
0.1108616141732283
21
0.1272822440944882
0
LINE
8
BLACK
6
CONTINUOUS
10
0.1108616141732283
20
0.1272822440944882
11
0.1081574803149606
21
0.1269685039370079
0
LINE
8
BLACK
6
CONTINUOUS
10
0.1081574803149606
20
0.1269685039370079
11
0.0215433070866142
21
0.1269685039370079
0
LINE
8
BLACK
6
CONTINUOUS
10
0.0215433070866142
20
0.1269685039370079
11
0.0188391732283465
21
0.1272822440944882
0
LINE
8
BLACK
6
CONTINUOUS
10
0.0188391732283465
20
0.1272822440944882
11
0.0148684645669291
21
0.1290354724409449
0
LINE
8
BLACK
6
CONTINUOUS
10
0.0148684645669291
20
0.1290354724409449
11
0.0117992519685039
21
0.1321046850393701
0
LINE
8
BLACK
6
CONTINUOUS
10
0.0117992519685039
20
0.1321046850393701
11
0.0100460236220472
21
0.1360753937007874
0
LINE
8
BLACK
6
CONTINUOUS
10
0.0100460236220472
20
0.1360753937007874
11
0.0097322834645669
21
0.1387795275590551
0
LINE
8
BLACK
6
CONTINUOUS
10
0.0097322834645669
20
0.1387795275590551
11
0.0097322834645669
21
0.1584645669291339
0
LINE
8
BLACK
6
CONTINUOUS
10
0.0097322834645669
20
0.1584645669291339
11
0.0100460236220472
21
0.1611687007874016
0
LINE
8
BLACK
6
CONTINUOUS
10
0.0100460236220472
20
0.1611687007874016
11
0.0117992519685039
21
0.1651394094488189
0
LINE
8
BLACK
6
CONTINUOUS
10
0.0117992519685039
20
0.1651394094488189
11
0.0148684645669291
21
0.1682086220472441
0
LINE
8
BLACK
6
CONTINUOUS
10
0.0148684645669291
20
0.1682086220472441
11
0.0188391732283465
21
0.1699618503937008
0
LINE
8
BLACK
6
CONTINUOUS
10
0.0188391732283465
20
0.1699618503937008
11
0.0215433070866142
21
0.1702755905511811
0
LINE
8
BLACK
6
CONTINUOUS
10
0.0215433070866142
20
0.1702755905511811
11
0.1081574803149606
21
0.1702755905511811
0
LINE
8
BLACK
6
CONTINUOUS
10
0.1081574803149606
20
0.1702755905511811
11
0.1108616141732283
21
0.1699618503937008
0
LINE
8
BLACK
6
CONTINUOUS
10
0.385406968503937
20
0.173180157480315
11
0.3879614566929134
21
0.1714732677165354
0
LINE
8
BLACK
6
CONTINUOUS
10
0.3879614566929134
20
0.1714732677165354
11
0.3896683464566929
21
0.168918779527559
0
LINE
8
BLACK
6
CONTINUOUS
10
0.3896683464566929
20
0.168918779527559
11
0.3902677165354331
21
0.1659055118110236
0
LINE
8
BLACK
6
CONTINUOUS
10
0.3902677165354331
20
0.1659055118110236
11
0.3902677165354331
21
0.1540944881889764
0
LINE
8
BLACK
6
CONTINUOUS
10
0.3902677165354331
20
0.1540944881889764
11
0.3896683464566929
21
0.1510812204724409
0
LINE
8
BLACK
6
CONTINUOUS
10
0.3896683464566929
20
0.1510812204724409
11
0.3879614566929134
21
0.1485267322834646
0
LINE
8
BLACK
6
CONTINUOUS
10
0.3879614566929134
20
0.1485267322834646
11
0.385406968503937
21
0.146819842519685
0
LINE
8
BLACK
6
CONTINUOUS
10
0.385406968503937
20
0.146819842519685
11
0.3823937007874016
21
0.1462204724409449
0
LINE
8
BLACK
6
CONTINUOUS
10
0.3823937007874016
20
0.1462204724409449
11
0.3420393700787401
21
0.1462204724409449
0
LINE
8
BLACK
6
CONTINUOUS
10
0.3420393700787401
20
0.1462204724409449
11
0.3390261023622047
21
0.146819842519685
0
LINE
8
BLACK
6
CONTINUOUS
10
0.3390261023622047
20
0.146819842519685
11
0.3364716141732284
21
0.1485267322834646
0
LINE
8
BLACK
6
CONTINUOUS
10
0.3364716141732284
20
0.1485267322834646
11
0.3347647244094488
21
0.1510812204724409
0
LINE
8
BLACK
6
CONTINUOUS
10
0.3347647244094488
20
0.1510812204724409
11
0.3341653543307087
21
0.1540944881889764
0
LINE
8
BLACK
6
CONTINUOUS
10
0.3341653543307087
20
0.1540944881889764
11
0.3341653543307087
21
0.1659055118110236
0
LINE
8
BLACK
6
CONTINUOUS
10
0.3341653543307087
20
0.1659055118110236
11
0.3347647244094488
21
0.168918779527559
0
LINE
8
BLACK
6
CONTINUOUS
10
0.3347647244094488
20
0.168918779527559
11
0.3364716141732284
21
0.1714732677165354
0
LINE
8
BLACK
6
CONTINUOUS
10
0.3364716141732284
20
0.1714732677165354
11
0.3390261023622047
21
0.173180157480315
0
LINE
8
BLACK
6
CONTINUOUS
10
0.3390261023622047
20
0.173180157480315
11
0.3420393700787401
21
0.1737795275590551
0
LINE
8
BLACK
6
CONTINUOUS
10
0.3420393700787401
20
0.1737795275590551
11
0.3823937007874016
21
0.1737795275590551
0
LINE
8
BLACK
6
CONTINUOUS
10
0.3823937007874016
20
0.1737795275590551
11
0.385406968503937
21
0.173180157480315
0
LINE
8
BLACK
6
CONTINUOUS
10
0.533985748031496
20
0.2143727165354331
11
0.5374981889763779
21
0.2120257480314961
0
LINE
8
BLACK
6
CONTINUOUS
10
0.5374981889763779
20
0.2120257480314961
11
0.5398451574803149
21
0.2085133070866142
0
LINE
8
BLACK
6
CONTINUOUS
10
0.5398451574803149
20
0.2085133070866142
11
0.5406692913385827
21
0.2043700787401575
0
LINE
8
BLACK
6
CONTINUOUS
10
0.5406692913385827
20
0.2043700787401575
11
0.5406692913385827
21
0.1866535433070866
0
LINE
8
BLACK
6
CONTINUOUS
10
0.5406692913385827
20
0.1866535433070866
11
0.5398451574803149
21
0.1825103149606299
0
LINE
8
BLACK
6
CONTINUOUS
10
0.5398451574803149
20
0.1825103149606299
11
0.5374981889763779
21
0.178997874015748
0
LINE
8
BLACK
6
CONTINUOUS
10
0.5374981889763779
20
0.178997874015748
11
0.533985748031496
21
0.176650905511811
0
LINE
8
BLACK
6
CONTINUOUS
10
0.533985748031496
20
0.176650905511811
11
0.5298425196850394
21
0.1758267716535433
0
LINE
8
BLACK
6
CONTINUOUS
10
0.5298425196850394
20
0.1758267716535433
11
0.5101574803149607
21
0.1758267716535433
0
LINE
8
BLACK
6
CONTINUOUS
10
0.5101574803149607
20
0.1758267716535433
11
0.5060142519685039
21
0.176650905511811
0
LINE
8
BLACK
6
CONTINUOUS
10
0.5060142519685039
20
0.176650905511811
11
0.502501811023622
21
0.178997874015748
0
LINE
8
BLACK
6
CONTINUOUS
10
0.502501811023622
20
0.178997874015748
11
0.500154842519685
21
0.1825103149606299
0
LINE
8
BLACK
6
CONTINUOUS
10
0.500154842519685
20
0.1825103149606299
11
0.4993307086614173
21
0.1866535433070866
0
LINE
8
BLACK
6
CONTINUOUS
10
0.4993307086614173
20
0.1866535433070866
11
0.4993307086614173
21
0.2043700787401575
0
LINE
8
BLACK
6
CONTINUOUS
10
0.4993307086614173
20
0.2043700787401575
11
0.500154842519685
21
0.2085133070866142
0
LINE
8
BLACK
6
CONTINUOUS
10
0.500154842519685
20
0.2085133070866142
11
0.502501811023622
21
0.2120257480314961
0
LINE
8
BLACK
6
CONTINUOUS
10
0.502501811023622
20
0.2120257480314961
11
0.5060142519685039
21
0.2143727165354331
0
LINE
8
BLACK
6
CONTINUOUS
10
0.5060142519685039
20
0.2143727165354331
11
0.5101574803149607
21
0.2151968503937008
0
LINE
8
BLACK
6
CONTINUOUS
10
0.5101574803149607
20
0.2151968503937008
11
0.5298425196850394
21
0.2151968503937008
0
LINE
8
BLACK
6
CONTINUOUS
10
0.5298425196850394
20
0.2151968503937008
11
0.533985748031496
21
0.2143727165354331
0
LINE
8
BLACK
6
CONTINUOUS
10
0.3064049212598425
20
0.2197413779527559
11
0.3103756299212598
21
0.2179881496062992
0
LINE
8
BLACK
6
CONTINUOUS
10
0.3103756299212598
20
0.2179881496062992
11
0.313444842519685
21
0.214918937007874
0
LINE
8
BLACK
6
CONTINUOUS
10
0.313444842519685
20
0.214918937007874
11
0.3151980708661417
21
0.2109482283464567
0
LINE
8
BLACK
6
CONTINUOUS
10
0.3151980708661417
20
0.2109482283464567
11
0.315511811023622
21
0.208244094488189
0
LINE
8
BLACK
6
CONTINUOUS
10
0.315511811023622
20
0.208244094488189
11
0.315511811023622
21
0.1885590551181102
0
LINE
8
BLACK
6
CONTINUOUS
10
0.315511811023622
20
0.1885590551181102
11
0.3151980708661417
21
0.1858549212598425
0
LINE
8
BLACK
6
CONTINUOUS
10
0.3151980708661417
20
0.1858549212598425
11
0.313444842519685
21
0.1818842125984252
0
LINE
8
BLACK
6
CONTINUOUS
10
0.313444842519685
20
0.1818842125984252
11
0.3103756299212598
21
0.178815
0
LINE
8
BLACK
6
CONTINUOUS
10
0.3103756299212598
20
0.178815
11
0.3064049212598425
21
0.1770617716535433
0
LINE
8
BLACK
6
CONTINUOUS
10
0.3064049212598425
20
0.1770617716535433
11
0.3037007874015748
21
0.176748031496063
0
LINE
8
BLACK
6
CONTINUOUS
10
0.3037007874015748
20
0.176748031496063
11
0.2662992125984252
21
0.176748031496063
0
LINE
8
BLACK
6
CONTINUOUS
10
0.2662992125984252
20
0.176748031496063
11
0.2635950787401575
21
0.1770617716535433
0
LINE
8
BLACK
6
CONTINUOUS
10
0.2635950787401575
20
0.1770617716535433
11
0.2596243700787402
21
0.178815
0
LINE
8
BLACK
6
CONTINUOUS
10
0.2596243700787402
20
0.178815
11
0.2565551574803149
21
0.1818842125984252
0
LINE
8
BLACK
6
CONTINUOUS
10
0.2565551574803149
20
0.1818842125984252
11
0.2548019291338582
21
0.1858549212598425
0
LINE
8
BLACK
6
CONTINUOUS
10
0.2548019291338582
20
0.1858549212598425
11
0.2544881889763779
21
0.1885590551181102
0
LINE
8
BLACK
6
CONTINUOUS
10
0.2544881889763779
20
0.1885590551181102
11
0.2544881889763779
21
0.208244094488189
0
LINE
8
BLACK
6
CONTINUOUS
10
0.2544881889763779
20
0.208244094488189
11
0.2548019291338582
21
0.2109482283464567
0
LINE
8
BLACK
6
CONTINUOUS
10
0.2548019291338582
20
0.2109482283464567
11
0.2565551574803149
21
0.214918937007874
0
LINE
8
BLACK
6
CONTINUOUS
10
0.2565551574803149
20
0.214918937007874
11
0.2596243700787402
21
0.2179881496062992
0
LINE
8
BLACK
6
CONTINUOUS
10
0.2596243700787402
20
0.2179881496062992
11
0.2635950787401575
21
0.2197413779527559
0
LINE
8
BLACK
6
CONTINUOUS
10
0.2635950787401575
20
0.2197413779527559
11
0.2662992125984252
21
0.2200551181102362
0
LINE
8
BLACK
6
CONTINUOUS
10
0.2662992125984252
20
0.2200551181102362
11
0.3037007874015748
21
0.2200551181102362
0
LINE
8
BLACK
6
CONTINUOUS
10
0.3037007874015748
20
0.2200551181102362
11
0.3064049212598425
21
0.2197413779527559
0
LINE
8
BLACK
6
CONTINUOUS
10
0.385406968503937
20
0.2105817322834646
11
0.3879614566929134
21
0.208874842519685
0
LINE
8
BLACK
6
CONTINUOUS
10
0.3879614566929134
20
0.208874842519685
11
0.3896683464566929
21
0.2063203543307087
0
LINE
8
BLACK
6
CONTINUOUS
10
0.3896683464566929
20
0.2063203543307087
11
0.3902677165354331
21
0.2033070866141732
0
LINE
8
BLACK
6
CONTINUOUS
10
0.3902677165354331
20
0.2033070866141732
11
0.3902677165354331
21
0.191496062992126
0
LINE
8
BLACK
6
CONTINUOUS
10
0.3902677165354331
20
0.191496062992126
11
0.3896683464566929
21
0.1884827952755906
0
LINE
8
BLACK
6
CONTINUOUS
10
0.3896683464566929
20
0.1884827952755906
11
0.3879614566929134
21
0.1859283070866142
0
LINE
8
BLACK
6
CONTINUOUS
10
0.3879614566929134
20
0.1859283070866142
11
0.385406968503937
21
0.1842214173228346
0
LINE
8
BLACK
6
CONTINUOUS
10
0.385406968503937
20
0.1842214173228346
11
0.3823937007874016
21
0.1836220472440945
0
LINE
8
BLACK
6
CONTINUOUS
10
0.3823937007874016
20
0.1836220472440945
11
0.3420393700787401
21
0.1836220472440945
0
LINE
8
BLACK
6
CONTINUOUS
10
0.3420393700787401
20
0.1836220472440945
11
0.3390261023622047
21
0.1842214173228346
0
LINE
8
BLACK
6
CONTINUOUS
10
0.3390261023622047
20
0.1842214173228346
11
0.3364716141732284
21
0.1859283070866142
0
LINE
8
BLACK
6
CONTINUOUS
10
0.3364716141732284
20
0.1859283070866142
11
0.3347647244094488
21
0.1884827952755906
0
LINE
8
BLACK
6
CONTINUOUS
10
0.3347647244094488
20
0.1884827952755906
11
0.3341653543307087
21
0.191496062992126
0
LINE
8
BLACK
6
CONTINUOUS
10
0.3341653543307087
20
0.191496062992126
11
0.3341653543307087
21
0.2033070866141732
0
LINE
8
BLACK
6
CONTINUOUS
10
0.3341653543307087
20
0.2033070866141732
11
0.3347647244094488
21
0.2063203543307087
0
LINE
8
BLACK
6
CONTINUOUS
10
0.3347647244094488
20
0.2063203543307087
11
0.3364716141732284
21
0.208874842519685
0
LINE
8
BLACK
6
CONTINUOUS
10
0.3364716141732284
20
0.208874842519685
11
0.3390261023622047
21
0.2105817322834646
0
LINE
8
BLACK
6
CONTINUOUS
10
0.3390261023622047
20
0.2105817322834646
11
0.3420393700787401
21
0.2111811023622047
0
LINE
8
BLACK
6
CONTINUOUS
10
0.3420393700787401
20
0.2111811023622047
11
0.3823937007874016
21
0.2111811023622047
0
LINE
8
BLACK
6
CONTINUOUS
10
0.3823937007874016
20
0.2111811023622047
11
0.385406968503937
21
0.2105817322834646
0
LINE
8
BLACK
6
CONTINUOUS
10
0.4749738976377952
20
0.2105817322834646
11
0.4775283858267717
21
0.208874842519685
0
LINE
8
BLACK
6
CONTINUOUS
10
0.4775283858267717
20
0.208874842519685
11
0.4792352755905512
21
0.2063203543307087
0
LINE
8
BLACK
6
CONTINUOUS
10
0.4792352755905512
20
0.2063203543307087
11
0.4798346456692913
21
0.2033070866141732
0
LINE
8
BLACK
6
CONTINUOUS
10
0.4798346456692913
20
0.2033070866141732
11
0.4798346456692913
21
0.191496062992126
0
LINE
8
BLACK
6
CONTINUOUS
10
0.4798346456692913
20
0.191496062992126
11
0.4792352755905512
21
0.1884827952755906
0
LINE
8
BLACK
6
CONTINUOUS
10
0.4792352755905512
20
0.1884827952755906
11
0.4775283858267717
21
0.1859283070866142
0
LINE
8
BLACK
6
CONTINUOUS
10
0.4775283858267717
20
0.1859283070866142
11
0.4749738976377952
21
0.1842214173228346
0
LINE
8
BLACK
6
CONTINUOUS
10
0.4749738976377952
20
0.1842214173228346
11
0.4719606299212598
21
0.1836220472440945
0
LINE
8
BLACK
6
CONTINUOUS
10
0.4719606299212598
20
0.1836220472440945
11
0.4316062992125984
21
0.1836220472440945
0
LINE
8
BLACK
6
CONTINUOUS
10
0.4316062992125984
20
0.1836220472440945
11
0.428593031496063
21
0.1842214173228346
0
LINE
8
BLACK
6
CONTINUOUS
10
0.428593031496063
20
0.1842214173228346
11
0.4260385433070866
21
0.1859283070866142
0
LINE
8
BLACK
6
CONTINUOUS
10
0.4260385433070866
20
0.1859283070866142
11
0.4243316535433071
21
0.1884827952755906
0
LINE
8
BLACK
6
CONTINUOUS
10
0.4243316535433071
20
0.1884827952755906
11
0.4237322834645669
21
0.191496062992126
0
LINE
8
BLACK
6
CONTINUOUS
10
0.4237322834645669
20
0.191496062992126
11
0.4237322834645669
21
0.2033070866141732
0
LINE
8
BLACK
6
CONTINUOUS
10
0.4237322834645669
20
0.2033070866141732
11
0.4243316535433071
21
0.2063203543307087
0
LINE
8
BLACK
6
CONTINUOUS
10
0.4243316535433071
20
0.2063203543307087
11
0.4260385433070866
21
0.208874842519685
0
LINE
8
BLACK
6
CONTINUOUS
10
0.4260385433070866
20
0.208874842519685
11
0.428593031496063
21
0.2105817322834646
0
LINE
8
BLACK
6
CONTINUOUS
10
0.428593031496063
20
0.2105817322834646
11
0.4316062992125984
21
0.2111811023622047
0
LINE
8
BLACK
6
CONTINUOUS
10
0.4316062992125984
20
0.2111811023622047
11
0.4719606299212598
21
0.2111811023622047
0
LINE
8
BLACK
6
CONTINUOUS
10
0.4719606299212598
20
0.2111811023622047
11
0.4749738976377952
21
0.2105817322834646
0
LINE
8
BLACK
6
CONTINUOUS
10
0.221406968503937
20
0.2346368503937008
11
0.2239614566929134
21
0.2329299606299212
0
LINE
8
BLACK
6
CONTINUOUS
10
0.2239614566929134
20
0.2329299606299212
11
0.2256683464566929
21
0.2303754724409449
0
LINE
8
BLACK
6
CONTINUOUS
10
0.2256683464566929
20
0.2303754724409449
11
0.2262677165354331
21
0.2273622047244094
0
LINE
8
BLACK
6
CONTINUOUS
10
0.2262677165354331
20
0.2273622047244094
11
0.2262677165354331
21
0.2155511811023622
0
LINE
8
BLACK
6
CONTINUOUS
10
0.2262677165354331
20
0.2155511811023622
11
0.2256683464566929
21
0.2125379133858268
0
LINE
8
BLACK
6
CONTINUOUS
10
0.2256683464566929
20
0.2125379133858268
11
0.2239614566929134
21
0.2099834251968504
0
LINE
8
BLACK
6
CONTINUOUS
10
0.2239614566929134
20
0.2099834251968504
11
0.221406968503937
21
0.2082765354330709
0
LINE
8
BLACK
6
CONTINUOUS
10
0.221406968503937
20
0.2082765354330709
11
0.2183937007874016
21
0.2076771653543307
0
LINE
8
BLACK
6
CONTINUOUS
10
0.2183937007874016
20
0.2076771653543307
11
0.1632755905511811
21
0.2076771653543307
0
LINE
8
BLACK
6
CONTINUOUS
10
0.1632755905511811
20
0.2076771653543307
11
0.1602623228346457
21
0.2082765354330709
0
LINE
8
BLACK
6
CONTINUOUS
10
0.1602623228346457
20
0.2082765354330709
11
0.1577078346456693
21
0.2099834251968504
0
LINE
8
BLACK
6
CONTINUOUS
10
0.1577078346456693
20
0.2099834251968504
11
0.1560009448818898
21
0.2125379133858268
0
LINE
8
BLACK
6
CONTINUOUS
10
0.1560009448818898
20
0.2125379133858268
11
0.1554015748031496
21
0.2155511811023622
0
LINE
8
BLACK
6
CONTINUOUS
10
0.1554015748031496
20
0.2155511811023622
11
0.1554015748031496
21
0.2273622047244094
0
LINE
8
BLACK
6
CONTINUOUS
10
0.1554015748031496
20
0.2273622047244094
11
0.1560009448818898
21
0.2303754724409449
0
LINE
8
BLACK
6
CONTINUOUS
10
0.1560009448818898
20
0.2303754724409449
11
0.1577078346456693
21
0.2329299606299212
0
LINE
8
BLACK
6
CONTINUOUS
10
0.1577078346456693
20
0.2329299606299212
11
0.1602623228346457
21
0.2346368503937008
0
LINE
8
BLACK
6
CONTINUOUS
10
0.1602623228346457
20
0.2346368503937008
11
0.1632755905511811
21
0.2352362204724409
0
LINE
8
BLACK
6
CONTINUOUS
10
0.1632755905511811
20
0.2352362204724409
11
0.2183937007874016
21
0.2352362204724409
0
LINE
8
BLACK
6
CONTINUOUS
10
0.2183937007874016
20
0.2352362204724409
11
0.221406968503937
21
0.2346368503937008
0
LINE
8
BLACK
6
CONTINUOUS
10
0.9847849606299213
20
0.2836246850393701
11
0.9882974015748032
21
0.281277716535433
0
LINE
8
BLACK
6
CONTINUOUS
10
0.9882974015748032
20
0.281277716535433
11
0.9906443700787402
21
0.2777652755905512
0
LINE
8
BLACK
6
CONTINUOUS
10
0.9906443700787402
20
0.2777652755905512
11
0.9914685039370078
21
0.2736220472440945
0
LINE
8
BLACK
6
CONTINUOUS
10
0.9914685039370078
20
0.2736220472440945
11
0.9914685039370078
21
0.2559055118110236
0
LINE
8
BLACK
6
CONTINUOUS
10
0.9914685039370078
20
0.2559055118110236
11
0.9906443700787402
21
0.2517622834645669
0
LINE
8
BLACK
6
CONTINUOUS
10
0.9906443700787402
20
0.2517622834645669
11
0.9882974015748032
21
0.248249842519685
0
LINE
8
BLACK
6
CONTINUOUS
10
0.9882974015748032
20
0.248249842519685
11
0.9847849606299213
21
0.245902874015748
0
LINE
8
BLACK
6
CONTINUOUS
10
0.9847849606299213
20
0.245902874015748
11
0.9806417322834645
21
0.2450787401574803
0
LINE
8
BLACK
6
CONTINUOUS
10
0.9806417322834645
20
0.2450787401574803
11
0.9609566929133858
21
0.2450787401574803
0
LINE
8
BLACK
6
CONTINUOUS
10
0.9609566929133858
20
0.2450787401574803
11
0.9568134645669291
21
0.245902874015748
0
LINE
8
BLACK
6
CONTINUOUS
10
0.9568134645669291
20
0.245902874015748
11
0.9533010236220473
21
0.248249842519685
0
LINE
8
BLACK
6
CONTINUOUS
10
0.9533010236220473
20
0.248249842519685
11
0.9509540551181103
21
0.2517622834645669
0
LINE
8
BLACK
6
CONTINUOUS
10
0.9509540551181103
20
0.2517622834645669
11
0.9501299212598425
21
0.2559055118110236
0
LINE
8
BLACK
6
CONTINUOUS
10
0.9501299212598425
20
0.2559055118110236
11
0.9501299212598425
21
0.2736220472440945
0
LINE
8
BLACK
6
CONTINUOUS
10
0.9501299212598425
20
0.2736220472440945
11
0.9509540551181103
21
0.2777652755905512
0
LINE
8
BLACK
6
CONTINUOUS
10
0.9509540551181103
20
0.2777652755905512
11
0.9533010236220473
21
0.281277716535433
0
LINE
8
BLACK
6
CONTINUOUS
10
0.9533010236220473
20
0.281277716535433
11
0.9568134645669291
21
0.2836246850393701
0
LINE
8
BLACK
6
CONTINUOUS
10
0.9568134645669291
20
0.2836246850393701
11
0.9609566929133858
21
0.2844488188976378
0
LINE
8
BLACK
6
CONTINUOUS
10
0.9609566929133858
20
0.2844488188976378
11
0.9806417322834645
21
0.2844488188976378
0
LINE
8
BLACK
6
CONTINUOUS
10
0.9806417322834645
20
0.2844488188976378
11
0.9847849606299213
21
0.2836246850393701
0
LINE
8
BLACK
6
CONTINUOUS
10
0.3194896850393701
20
0.286845157480315
11
0.323002125984252
21
0.284498188976378
0
LINE
8
BLACK
6
CONTINUOUS
10
0.323002125984252
20
0.284498188976378
11
0.325349094488189
21
0.2809857480314961
0
LINE
8
BLACK
6
CONTINUOUS
10
0.325349094488189
20
0.2809857480314961
11
0.3261732283464567
21
0.2768425196850394
0
LINE
8
BLACK
6
CONTINUOUS
10
0.3261732283464567
20
0.2768425196850394
11
0.3261732283464567
21
0.2571574803149606
0
LINE
8
BLACK
6
CONTINUOUS
10
0.3261732283464567
20
0.2571574803149606
11
0.325349094488189
21
0.2530142519685039
0
LINE
8
BLACK
6
CONTINUOUS
10
0.325349094488189
20
0.2530142519685039
11
0.323002125984252
21
0.249501811023622
0
LINE
8
BLACK
6
CONTINUOUS
10
0.323002125984252
20
0.249501811023622
11
0.3194896850393701
21
0.247154842519685
0
LINE
8
BLACK
6
CONTINUOUS
10
0.3194896850393701
20
0.247154842519685
11
0.3153464566929134
21
0.2463307086614173
0
LINE
8
BLACK
6
CONTINUOUS
10
0.3153464566929134
20
0.2463307086614173
11
0.2976299212598425
21
0.2463307086614173
0
LINE
8
BLACK
6
CONTINUOUS
10
0.2976299212598425
20
0.2463307086614173
11
0.2934866929133858
21
0.247154842519685
0
LINE
8
BLACK
6
CONTINUOUS
10
0.2934866929133858
20
0.247154842519685
11
0.2899742519685039
21
0.249501811023622
0
LINE
8
BLACK
6
CONTINUOUS
10
0.2899742519685039
20
0.249501811023622
11
0.2876272834645669
21
0.2530142519685039
0
LINE
8
BLACK
6
CONTINUOUS
10
0.2876272834645669
20
0.2530142519685039
11
0.2868031496062992
21
0.2571574803149606
0
LINE
8
BLACK
6
CONTINUOUS
10
0.2868031496062992
20
0.2571574803149606
11
0.2868031496062992
21
0.2768425196850394
0
LINE
8
BLACK
6
CONTINUOUS
10
0.2868031496062992
20
0.2768425196850394
11
0.2876272834645669
21
0.2809857480314961
0
LINE
8
BLACK
6
CONTINUOUS
10
0.2876272834645669
20
0.2809857480314961
11
0.2899742519685039
21
0.284498188976378
0
LINE
8
BLACK
6
CONTINUOUS
10
0.2899742519685039
20
0.284498188976378
11
0.2934866929133858
21
0.286845157480315
0
LINE
8
BLACK
6
CONTINUOUS
10
0.2934866929133858
20
0.286845157480315
11
0.2976299212598425
21
0.2876692913385827
0
LINE
8
BLACK
6
CONTINUOUS
10
0.2976299212598425
20
0.2876692913385827
11
0.3153464566929134
21
0.2876692913385827
0
LINE
8
BLACK
6
CONTINUOUS
10
0.3153464566929134
20
0.2876692913385827
11
0.3194896850393701
21
0.286845157480315
0
LINE
8
BLACK
6
CONTINUOUS
10
0.3805133070866142
20
0.286845157480315
11
0.384025748031496
21
0.284498188976378
0
LINE
8
BLACK
6
CONTINUOUS
10
0.384025748031496
20
0.284498188976378
11
0.386372716535433
21
0.2809857480314961
0
LINE
8
BLACK
6
CONTINUOUS
10
0.386372716535433
20
0.2809857480314961
11
0.3871968503937008
21
0.2768425196850394
0
LINE
8
BLACK
6
CONTINUOUS
10
0.3871968503937008
20
0.2768425196850394
11
0.3871968503937008
21
0.2571574803149606
0
LINE
8
BLACK
6
CONTINUOUS
10
0.3871968503937008
20
0.2571574803149606
11
0.386372716535433
21
0.2530142519685039
0
LINE
8
BLACK
6
CONTINUOUS
10
0.386372716535433
20
0.2530142519685039
11
0.384025748031496
21
0.249501811023622
0
LINE
8
BLACK
6
CONTINUOUS
10
0.384025748031496
20
0.249501811023622
11
0.3805133070866142
21
0.247154842519685
0
LINE
8
BLACK
6
CONTINUOUS
10
0.3805133070866142
20
0.247154842519685
11
0.3763700787401575
21
0.2463307086614173
0
LINE
8
BLACK
6
CONTINUOUS
10
0.3763700787401575
20
0.2463307086614173
11
0.3586535433070866
21
0.2463307086614173
0
LINE
8
BLACK
6
CONTINUOUS
10
0.3586535433070866
20
0.2463307086614173
11
0.3545103149606299
21
0.247154842519685
0
LINE
8
BLACK
6
CONTINUOUS
10
0.3545103149606299
20
0.247154842519685
11
0.350997874015748
21
0.249501811023622
0
LINE
8
BLACK
6
CONTINUOUS
10
0.350997874015748
20
0.249501811023622
11
0.348650905511811
21
0.2530142519685039
0
LINE
8
BLACK
6
CONTINUOUS
10
0.348650905511811
20
0.2530142519685039
11
0.3478267716535433
21
0.2571574803149606
0
LINE
8
BLACK
6
CONTINUOUS
10
0.3478267716535433
20
0.2571574803149606
11
0.3478267716535433
21
0.2768425196850394
0
LINE
8
BLACK
6
CONTINUOUS
10
0.3478267716535433
20
0.2768425196850394
11
0.348650905511811
21
0.2809857480314961
0
LINE
8
BLACK
6
CONTINUOUS
10
0.348650905511811
20
0.2809857480314961
11
0.350997874015748
21
0.284498188976378
0
LINE
8
BLACK
6
CONTINUOUS
10
0.350997874015748
20
0.284498188976378
11
0.3545103149606299
21
0.286845157480315
0
LINE
8
BLACK
6
CONTINUOUS
10
0.3545103149606299
20
0.286845157480315
11
0.3586535433070866
21
0.2876692913385827
0
LINE
8
BLACK
6
CONTINUOUS
10
0.3586535433070866
20
0.2876692913385827
11
0.3763700787401575
21
0.2876692913385827
0
LINE
8
BLACK
6
CONTINUOUS
10
0.3763700787401575
20
0.2876692913385827
11
0.3805133070866142
21
0.286845157480315
0
LINE
8
BLACK
6
CONTINUOUS
10
0.4685933464566929
20
0.2854870078740158
11
0.4717864960629921
21
0.2833534251968504
0
LINE
8
BLACK
6
CONTINUOUS
10
0.4717864960629921
20
0.2833534251968504
11
0.4739200787401575
21
0.2801602755905512
0
LINE
8
BLACK
6
CONTINUOUS
10
0.4739200787401575
20
0.2801602755905512
11
0.4746692913385827
21
0.2763937007874016
0
LINE
8
BLACK
6
CONTINUOUS
10
0.4746692913385827
20
0.2763937007874016
11
0.4746692913385827
21
0.2606456692913386
0
LINE
8
BLACK
6
CONTINUOUS
10
0.4746692913385827
20
0.2606456692913386
11
0.4739200787401575
21
0.256879094488189
0
LINE
8
BLACK
6
CONTINUOUS
10
0.4739200787401575
20
0.256879094488189
11
0.4717864960629921
21
0.2536859448818898
0
LINE
8
BLACK
6
CONTINUOUS
10
0.4717864960629921
20
0.2536859448818898
11
0.4685933464566929
21
0.2515523622047244
0
LINE
8
BLACK
6
CONTINUOUS
10
0.4685933464566929
20
0.2515523622047244
11
0.4648267716535433
21
0.2508031496062992
0
LINE
8
BLACK
6
CONTINUOUS
10
0.4648267716535433
20
0.2508031496062992
11
0.4431732283464567
21
0.2508031496062992
0
LINE
8
BLACK
6
CONTINUOUS
10
0.4431732283464567
20
0.2508031496062992
11
0.4394066535433071
21
0.2515523622047244
0
LINE
8
BLACK
6
CONTINUOUS
10
0.4394066535433071
20
0.2515523622047244
11
0.4362135039370079
21
0.2536859448818898
0
LINE
8
BLACK
6
CONTINUOUS
10
0.4362135039370079
20
0.2536859448818898
11
0.4340799212598425
21
0.256879094488189
0
LINE
8
BLACK
6
CONTINUOUS
10
0.4340799212598425
20
0.256879094488189
11
0.4333307086614173
21
0.2606456692913386
0
LINE
8
BLACK
6
CONTINUOUS
10
0.4333307086614173
20
0.2606456692913386
11
0.4333307086614173
21
0.2763937007874016
0
LINE
8
BLACK
6
CONTINUOUS
10
0.4333307086614173
20
0.2763937007874016
11
0.4340799212598425
21
0.2801602755905512
0
LINE
8
BLACK
6
CONTINUOUS
10
0.4340799212598425
20
0.2801602755905512
11
0.4362135039370079
21
0.2833534251968504
0
LINE
8
BLACK
6
CONTINUOUS
10
0.4362135039370079
20
0.2833534251968504
11
0.4394066535433071
21
0.2854870078740158
0
LINE
8
BLACK
6
CONTINUOUS
10
0.4394066535433071
20
0.2854870078740158
11
0.4431732283464567
21
0.286236220472441
0
LINE
8
BLACK
6
CONTINUOUS
10
0.4431732283464567
20
0.286236220472441
11
0.4648267716535433
21
0.286236220472441
0
LINE
8
BLACK
6
CONTINUOUS
10
0.4648267716535433
20
0.286236220472441
11
0.4685933464566929
21
0.2854870078740158
0
LINE
8
BLACK
6
CONTINUOUS
10
0.5305933464566929
20
0.2854870078740158
11
0.5337864960629921
21
0.2833534251968504
0
LINE
8
BLACK
6
CONTINUOUS
10
0.5337864960629921
20
0.2833534251968504
11
0.5359200787401575
21
0.2801602755905512
0
LINE
8
BLACK
6
CONTINUOUS
10
0.5359200787401575
20
0.2801602755905512
11
0.5366692913385827
21
0.2763937007874016
0
LINE
8
BLACK
6
CONTINUOUS
10
0.5366692913385827
20
0.2763937007874016
11
0.5366692913385827
21
0.2606456692913386
0
LINE
8
BLACK
6
CONTINUOUS
10
0.5366692913385827
20
0.2606456692913386
11
0.5359200787401575
21
0.256879094488189
0
LINE
8
BLACK
6
CONTINUOUS
10
0.5359200787401575
20
0.256879094488189
11
0.5337864960629921
21
0.2536859448818898
0
LINE
8
BLACK
6
CONTINUOUS
10
0.5337864960629921
20
0.2536859448818898
11
0.5305933464566929
21
0.2515523622047244
0
LINE
8
BLACK
6
CONTINUOUS
10
0.5305933464566929
20
0.2515523622047244
11
0.5268267716535433
21
0.2508031496062992
0
LINE
8
BLACK
6
CONTINUOUS
10
0.5268267716535433
20
0.2508031496062992
11
0.5051732283464567
21
0.2508031496062992
0
LINE
8
BLACK
6
CONTINUOUS
10
0.5051732283464567
20
0.2508031496062992
11
0.501406653543307
21
0.2515523622047244
0
LINE
8
BLACK
6
CONTINUOUS
10
0.501406653543307
20
0.2515523622047244
11
0.4982135039370079
21
0.2536859448818898
0
LINE
8
BLACK
6
CONTINUOUS
10
0.4982135039370079
20
0.2536859448818898
11
0.4960799212598425
21
0.256879094488189
0
LINE
8
BLACK
6
CONTINUOUS
10
0.4960799212598425
20
0.256879094488189
11
0.4953307086614173
21
0.2606456692913386
0
LINE
8
BLACK
6
CONTINUOUS
10
0.4953307086614173
20
0.2606456692913386
11
0.4953307086614173
21
0.2763937007874016
0
LINE
8
BLACK
6
CONTINUOUS
10
0.4953307086614173
20
0.2763937007874016
11
0.4960799212598425
21
0.2801602755905512
0
LINE
8
BLACK
6
CONTINUOUS
10
0.4960799212598425
20
0.2801602755905512
11
0.4982135039370079
21
0.2833534251968504
0
LINE
8
BLACK
6
CONTINUOUS
10
0.4982135039370079
20
0.2833534251968504
11
0.501406653543307
21
0.2854870078740158
0
LINE
8
BLACK
6
CONTINUOUS
10
0.501406653543307
20
0.2854870078740158
11
0.5051732283464567
21
0.286236220472441
0
LINE
8
BLACK
6
CONTINUOUS
10
0.5051732283464567
20
0.286236220472441
11
0.5268267716535433
21
0.286236220472441
0
LINE
8
BLACK
6
CONTINUOUS
10
0.5268267716535433
20
0.286236220472441
11
0.5305933464566929
21
0.2854870078740158
0
LINE
8
BLACK
6
CONTINUOUS
10
0.221406968503937
20
0.2838494488188976
11
0.2239614566929134
21
0.2821425590551181
0
LINE
8
BLACK
6
CONTINUOUS
10
0.2239614566929134
20
0.2821425590551181
11
0.2256683464566929
21
0.2795880708661417
0
LINE
8
BLACK
6
CONTINUOUS
10
0.2256683464566929
20
0.2795880708661417
11
0.2262677165354331
21
0.2765748031496063
0
LINE
8
BLACK
6
CONTINUOUS
10
0.2262677165354331
20
0.2765748031496063
11
0.2262677165354331
21
0.264763779527559
0
LINE
8
BLACK
6
CONTINUOUS
10
0.2262677165354331
20
0.264763779527559
11
0.2256683464566929
21
0.2617505118110236
0
LINE
8
BLACK
6
CONTINUOUS
10
0.2256683464566929
20
0.2617505118110236
11
0.2239614566929134
21
0.2591960236220472
0
LINE
8
BLACK
6
CONTINUOUS
10
0.2239614566929134
20
0.2591960236220472
11
0.221406968503937
21
0.2574891338582677
0
LINE
8
BLACK
6
CONTINUOUS
10
0.221406968503937
20
0.2574891338582677
11
0.2183937007874016
21
0.2568897637795275
0
LINE
8
BLACK
6
CONTINUOUS
10
0.2183937007874016
20
0.2568897637795275
11
0.1632755905511811
21
0.2568897637795275
0
LINE
8
BLACK
6
CONTINUOUS
10
0.1632755905511811
20
0.2568897637795275
11
0.1602623228346457
21
0.2574891338582677
0
LINE
8
BLACK
6
CONTINUOUS
10
0.1602623228346457
20
0.2574891338582677
11
0.1577078346456693
21
0.2591960236220472
0
LINE
8
BLACK
6
CONTINUOUS
10
0.1577078346456693
20
0.2591960236220472
11
0.1560009448818898
21
0.2617505118110236
0
LINE
8
BLACK
6
CONTINUOUS
10
0.1560009448818898
20
0.2617505118110236
11
0.1554015748031496
21
0.264763779527559
0
LINE
8
BLACK
6
CONTINUOUS
10
0.1554015748031496
20
0.264763779527559
11
0.1554015748031496
21
0.2765748031496063
0
LINE
8
BLACK
6
CONTINUOUS
10
0.1554015748031496
20
0.2765748031496063
11
0.1560009448818898
21
0.2795880708661417
0
LINE
8
BLACK
6
CONTINUOUS
10
0.1560009448818898
20
0.2795880708661417
11
0.1577078346456693
21
0.2821425590551181
0
LINE
8
BLACK
6
CONTINUOUS
10
0.1577078346456693
20
0.2821425590551181
11
0.1602623228346457
21
0.2838494488188976
0
LINE
8
BLACK
6
CONTINUOUS
10
0.1602623228346457
20
0.2838494488188976
11
0.1632755905511811
21
0.2844488188976378
0
LINE
8
BLACK
6
CONTINUOUS
10
0.1632755905511811
20
0.2844488188976378
11
0.2183937007874016
21
0.2844488188976378
0
LINE
8
BLACK
6
CONTINUOUS
10
0.2183937007874016
20
0.2844488188976378
11
0.221406968503937
21
0.2838494488188976
0
LINE
8
BLACK
6
CONTINUOUS
10
1.0360367716535432
20
0.2872517322834646
11
1.0366753937007873
21
0.286825
0
LINE
8
BLACK
6
CONTINUOUS
10
1.0366753937007873
20
0.286825
11
1.0371021259842519
21
0.2861863779527559
0
LINE
8
BLACK
6
CONTINUOUS
10
1.0371021259842519
20
0.2861863779527559
11
1.037251968503937
21
0.2854330708661417
0
LINE
8
BLACK
6
CONTINUOUS
10
1.037251968503937
20
0.2854330708661417
11
1.037251968503937
21
0.2736220472440945
0
LINE
8
BLACK
6
CONTINUOUS
10
1.037251968503937
20
0.2736220472440945
11
1.0371021259842519
21
0.2728687401574803
0
LINE
8
BLACK
6
CONTINUOUS
10
1.0371021259842519
20
0.2728687401574803
11
1.0366753937007873
21
0.2722301181102362
0
LINE
8
BLACK
6
CONTINUOUS
10
1.0366753937007873
20
0.2722301181102362
11
1.0360367716535432
21
0.2718033858267717
0
LINE
8
BLACK
6
CONTINUOUS
10
1.0360367716535432
20
0.2718033858267717
11
1.0352834645669291
21
0.2716535433070866
0
LINE
8
BLACK
6
CONTINUOUS
10
1.0352834645669291
20
0.2716535433070866
11
1.0155984251968504
21
0.2716535433070866
0
LINE
8
BLACK
6
CONTINUOUS
10
1.0155984251968504
20
0.2716535433070866
11
1.0148451181102363
21
0.2718033858267717
0
LINE
8
BLACK
6
CONTINUOUS
10
1.0148451181102363
20
0.2718033858267717
11
1.0142064960629922
21
0.2722301181102362
0
LINE
8
BLACK
6
CONTINUOUS
10
1.0142064960629922
20
0.2722301181102362
11
1.0137797637795276
21
0.2728687401574803
0
LINE
8
BLACK
6
CONTINUOUS
10
1.0137797637795276
20
0.2728687401574803
11
1.0136299212598425
21
0.2736220472440945
0
LINE
8
BLACK
6
CONTINUOUS
10
1.0136299212598425
20
0.2736220472440945
11
1.0136299212598425
21
0.2854330708661417
0
LINE
8
BLACK
6
CONTINUOUS
10
1.0136299212598425
20
0.2854330708661417
11
1.0137797637795276
21
0.2861863779527559
0
LINE
8
BLACK
6
CONTINUOUS
10
1.0137797637795276
20
0.2861863779527559
11
1.0142064960629922
21
0.286825
0
LINE
8
BLACK
6
CONTINUOUS
10
1.0142064960629922
20
0.286825
11
1.0148451181102363
21
0.2872517322834646
0
LINE
8
BLACK
6
CONTINUOUS
10
1.0148451181102363
20
0.2872517322834646
11
1.0155984251968504
21
0.2874015748031496
0
LINE
8
BLACK
6
CONTINUOUS
10
1.0155984251968504
20
0.2874015748031496
11
1.0352834645669291
21
0.2874015748031496
0
LINE
8
BLACK
6
CONTINUOUS
10
1.0352834645669291
20
0.2874015748031496
11
1.0360367716535432
21
0.2872517322834646
0
LINE
8
BLACK
6
CONTINUOUS
10
1.0911548818897638
20
0.2872517322834646
11
1.0917935039370079
21
0.286825
0
LINE
8
BLACK
6
CONTINUOUS
10
1.0917935039370079
20
0.286825
11
1.0922202362204725
21
0.2861863779527559
0
LINE
8
BLACK
6
CONTINUOUS
10
1.0922202362204725
20
0.2861863779527559
11
1.0923700787401573
21
0.2854330708661417
0
LINE
8
BLACK
6
CONTINUOUS
10
1.0923700787401573
20
0.2854330708661417
11
1.0923700787401573
21
0.2736220472440945
0
LINE
8
BLACK
6
CONTINUOUS
10
1.0923700787401573
20
0.2736220472440945
11
1.0922202362204725
21
0.2728687401574803
0
LINE
8
BLACK
6
CONTINUOUS
10
1.0922202362204725
20
0.2728687401574803
11
1.0917935039370079
21
0.2722301181102362
0
LINE
8
BLACK
6
CONTINUOUS
10
1.0917935039370079
20
0.2722301181102362
11
1.0911548818897638
21
0.2718033858267717
0
LINE
8
BLACK
6
CONTINUOUS
10
1.0911548818897638
20
0.2718033858267717
11
1.0904015748031495
21
0.2716535433070866
0
LINE
8
BLACK
6
CONTINUOUS
10
1.0904015748031495
20
0.2716535433070866
11
1.0707165354330708
21
0.2716535433070866
0
LINE
8
BLACK
6
CONTINUOUS
10
1.0707165354330708
20
0.2716535433070866
11
1.0699632283464566
21
0.2718033858267717
0
LINE
8
BLACK
6
CONTINUOUS
10
1.0699632283464566
20
0.2718033858267717
11
1.0693246062992126
21
0.2722301181102362
0
LINE
8
BLACK
6
CONTINUOUS
10
1.0693246062992126
20
0.2722301181102362
11
1.068897874015748
21
0.2728687401574803
0
LINE
8
BLACK
6
CONTINUOUS
10
1.068897874015748
20
0.2728687401574803
11
1.0687480314960629
21
0.2736220472440945
0
LINE
8
BLACK
6
CONTINUOUS
10
1.0687480314960629
20
0.2736220472440945
11
1.0687480314960629
21
0.2854330708661417
0
LINE
8
BLACK
6
CONTINUOUS
10
1.0687480314960629
20
0.2854330708661417
11
1.068897874015748
21
0.2861863779527559
0
LINE
8
BLACK
6
CONTINUOUS
10
1.068897874015748
20
0.2861863779527559
11
1.0693246062992126
21
0.286825
0
LINE
8
BLACK
6
CONTINUOUS
10
1.0693246062992126
20
0.286825
11
1.0699632283464566
21
0.2872517322834646
0
LINE
8
BLACK
6
CONTINUOUS
10
1.0699632283464566
20
0.2872517322834646
11
1.0707165354330708
21
0.2874015748031496
0
LINE
8
BLACK
6
CONTINUOUS
10
1.0707165354330708
20
0.2874015748031496
11
1.0904015748031495
21
0.2874015748031496
0
LINE
8
BLACK
6
CONTINUOUS
10
1.0904015748031495
20
0.2874015748031496
11
1.0911548818897638
21
0.2872517322834646
0
LINE
8
BLACK
6
CONTINUOUS
10
1.0360367716535432
20
0.3187477952755906
11
1.0366753937007873
21
0.318321062992126
0
LINE
8
BLACK
6
CONTINUOUS
10
1.0366753937007873
20
0.318321062992126
11
1.0371021259842519
21
0.3176824409448819
0
LINE
8
BLACK
6
CONTINUOUS
10
1.0371021259842519
20
0.3176824409448819
11
1.037251968503937
21
0.3169291338582677
0
LINE
8
BLACK
6
CONTINUOUS
10
1.037251968503937
20
0.3169291338582677
11
1.037251968503937
21
0.3051181102362205
0
LINE
8
BLACK
6
CONTINUOUS
10
1.037251968503937
20
0.3051181102362205
11
1.0371021259842519
21
0.3043648031496063
0
LINE
8
BLACK
6
CONTINUOUS
10
1.0371021259842519
20
0.3043648031496063
11
1.0366753937007873
21
0.3037261811023622
0
LINE
8
BLACK
6
CONTINUOUS
10
1.0366753937007873
20
0.3037261811023622
11
1.0360367716535432
21
0.3032994488188976
0
LINE
8
BLACK
6
CONTINUOUS
10
1.0360367716535432
20
0.3032994488188976
11
1.0352834645669291
21
0.3031496062992126
0
LINE
8
BLACK
6
CONTINUOUS
10
1.0352834645669291
20
0.3031496062992126
11
1.0155984251968504
21
0.3031496062992126
0
LINE
8
BLACK
6
CONTINUOUS
10
1.0155984251968504
20
0.3031496062992126
11
1.0148451181102363
21
0.3032994488188976
0
LINE
8
BLACK
6
CONTINUOUS
10
1.0148451181102363
20
0.3032994488188976
11
1.0142064960629922
21
0.3037261811023622
0
LINE
8
BLACK
6
CONTINUOUS
10
1.0142064960629922
20
0.3037261811023622
11
1.0137797637795276
21
0.3043648031496063
0
LINE
8
BLACK
6
CONTINUOUS
10
1.0137797637795276
20
0.3043648031496063
11
1.0136299212598425
21
0.3051181102362205
0
LINE
8
BLACK
6
CONTINUOUS
10
1.0136299212598425
20
0.3051181102362205
11
1.0136299212598425
21
0.3169291338582677
0
LINE
8
BLACK
6
CONTINUOUS
10
1.0136299212598425
20
0.3169291338582677
11
1.0137797637795276
21
0.3176824409448819
0
LINE
8
BLACK
6
CONTINUOUS
10
1.0137797637795276
20
0.3176824409448819
11
1.0142064960629922
21
0.318321062992126
0
LINE
8
BLACK
6
CONTINUOUS
10
1.0142064960629922
20
0.318321062992126
11
1.0148451181102363
21
0.3187477952755906
0
LINE
8
BLACK
6
CONTINUOUS
10
1.0148451181102363
20
0.3187477952755906
11
1.0155984251968504
21
0.3188976377952756
0
LINE
8
BLACK
6
CONTINUOUS
10
1.0155984251968504
20
0.3188976377952756
11
1.0352834645669291
21
0.3188976377952756
0
LINE
8
BLACK
6
CONTINUOUS
10
1.0352834645669291
20
0.3188976377952756
11
1.0360367716535432
21
0.3187477952755906
0
LINE
8
BLACK
6
CONTINUOUS
10
1.0911548818897638
20
0.3187477952755906
11
1.0917935039370079
21
0.318321062992126
0
LINE
8
BLACK
6
CONTINUOUS
10
1.0917935039370079
20
0.318321062992126
11
1.0922202362204725
21
0.3176824409448819
0
LINE
8
BLACK
6
CONTINUOUS
10
1.0922202362204725
20
0.3176824409448819
11
1.0923700787401573
21
0.3169291338582677
0
LINE
8
BLACK
6
CONTINUOUS
10
1.0923700787401573
20
0.3169291338582677
11
1.0923700787401573
21
0.3051181102362205
0
LINE
8
BLACK
6
CONTINUOUS
10
1.0923700787401573
20
0.3051181102362205
11
1.0922202362204725
21
0.3043648031496063
0
LINE
8
BLACK
6
CONTINUOUS
10
1.0922202362204725
20
0.3043648031496063
11
1.0917935039370079
21
0.3037261811023622
0
LINE
8
BLACK
6
CONTINUOUS
10
1.0917935039370079
20
0.3037261811023622
11
1.0911548818897638
21
0.3032994488188976
0
LINE
8
BLACK
6
CONTINUOUS
10
1.0911548818897638
20
0.3032994488188976
11
1.0904015748031495
21
0.3031496062992126
0
LINE
8
BLACK
6
CONTINUOUS
10
1.0904015748031495
20
0.3031496062992126
11
1.0707165354330708
21
0.3031496062992126
0
LINE
8
BLACK
6
CONTINUOUS
10
1.0707165354330708
20
0.3031496062992126
11
1.0699632283464566
21
0.3032994488188976
0
LINE
8
BLACK
6
CONTINUOUS
10
1.0699632283464566
20
0.3032994488188976
11
1.0693246062992126
21
0.3037261811023622
0
LINE
8
BLACK
6
CONTINUOUS
10
1.0693246062992126
20
0.3037261811023622
11
1.068897874015748
21
0.3043648031496063
0
LINE
8
BLACK
6
CONTINUOUS
10
1.068897874015748
20
0.3043648031496063
11
1.0687480314960629
21
0.3051181102362205
0
LINE
8
BLACK
6
CONTINUOUS
10
1.0687480314960629
20
0.3051181102362205
11
1.0687480314960629
21
0.3169291338582677
0
LINE
8
BLACK
6
CONTINUOUS
10
1.0687480314960629
20
0.3169291338582677
11
1.068897874015748
21
0.3176824409448819
0
LINE
8
BLACK
6
CONTINUOUS
10
1.068897874015748
20
0.3176824409448819
11
1.0693246062992126
21
0.318321062992126
0
LINE
8
BLACK
6
CONTINUOUS
10
1.0693246062992126
20
0.318321062992126
11
1.0699632283464566
21
0.3187477952755906
0
LINE
8
BLACK
6
CONTINUOUS
10
1.0699632283464566
20
0.3187477952755906
11
1.0707165354330708
21
0.3188976377952756
0
LINE
8
BLACK
6
CONTINUOUS
10
1.0707165354330708
20
0.3188976377952756
11
1.0904015748031495
21
0.3188976377952756
0
LINE
8
BLACK
6
CONTINUOUS
10
1.0904015748031495
20
0.3188976377952756
11
1.0911548818897638
21
0.3187477952755906
0
LINE
8
BLACK
6
CONTINUOUS
10
0.221406968503937
20
0.3330620472440945
11
0.2239614566929134
21
0.331355157480315
0
LINE
8
BLACK
6
CONTINUOUS
10
0.2239614566929134
20
0.331355157480315
11
0.2256683464566929
21
0.3288006692913386
0
LINE
8
BLACK
6
CONTINUOUS
10
0.2256683464566929
20
0.3288006692913386
11
0.2262677165354331
21
0.3257874015748031
0
LINE
8
BLACK
6
CONTINUOUS
10
0.2262677165354331
20
0.3257874015748031
11
0.2262677165354331
21
0.3139763779527559
0
LINE
8
BLACK
6
CONTINUOUS
10
0.2262677165354331
20
0.3139763779527559
11
0.2256683464566929
21
0.3109631102362205
0
LINE
8
BLACK
6
CONTINUOUS
10
0.2256683464566929
20
0.3109631102362205
11
0.2239614566929134
21
0.3084086220472441
0
LINE
8
BLACK
6
CONTINUOUS
10
0.2239614566929134
20
0.3084086220472441
11
0.221406968503937
21
0.3067017322834645
0
LINE
8
BLACK
6
CONTINUOUS
10
0.221406968503937
20
0.3067017322834645
11
0.2183937007874016
21
0.3061023622047244
0
LINE
8
BLACK
6
CONTINUOUS
10
0.2183937007874016
20
0.3061023622047244
11
0.1632755905511811
21
0.3061023622047244
0
LINE
8
BLACK
6
CONTINUOUS
10
0.1632755905511811
20
0.3061023622047244
11
0.1602623228346457
21
0.3067017322834645
0
LINE
8
BLACK
6
CONTINUOUS
10
0.1602623228346457
20
0.3067017322834645
11
0.1577078346456693
21
0.3084086220472441
0
LINE
8
BLACK
6
CONTINUOUS
10
0.1577078346456693
20
0.3084086220472441
11
0.1560009448818898
21
0.3109631102362205
0
LINE
8
BLACK
6
CONTINUOUS
10
0.1560009448818898
20
0.3109631102362205
11
0.1554015748031496
21
0.3139763779527559
0
LINE
8
BLACK
6
CONTINUOUS
10
0.1554015748031496
20
0.3139763779527559
11
0.1554015748031496
21
0.3257874015748031
0
LINE
8
BLACK
6
CONTINUOUS
10
0.1554015748031496
20
0.3257874015748031
11
0.1560009448818898
21
0.3288006692913386
0
LINE
8
BLACK
6
CONTINUOUS
10
0.1560009448818898
20
0.3288006692913386
11
0.1577078346456693
21
0.331355157480315
0
LINE
8
BLACK
6
CONTINUOUS
10
0.1577078346456693
20
0.331355157480315
11
0.1602623228346457
21
0.3330620472440945
0
LINE
8
BLACK
6
CONTINUOUS
10
0.1602623228346457
20
0.3330620472440945
11
0.1632755905511811
21
0.3336614173228347
0
LINE
8
BLACK
6
CONTINUOUS
10
0.1632755905511811
20
0.3336614173228347
11
0.2183937007874016
21
0.3336614173228347
0
LINE
8
BLACK
6
CONTINUOUS
10
0.2183937007874016
20
0.3336614173228347
11
0.221406968503937
21
0.3330620472440945
0
LINE
8
BLACK
6
CONTINUOUS
10
0.9847849606299213
20
0.3446483070866141
11
0.9882974015748032
21
0.3423013385826771
0
LINE
8
BLACK
6
CONTINUOUS
10
0.9882974015748032
20
0.3423013385826771
11
0.9906443700787402
21
0.3387888976377953
0
LINE
8
BLACK
6
CONTINUOUS
10
0.9906443700787402
20
0.3387888976377953
11
0.9914685039370078
21
0.3346456692913386
0
LINE
8
BLACK
6
CONTINUOUS
10
0.9914685039370078
20
0.3346456692913386
11
0.9914685039370078
21
0.3169291338582677
0
LINE
8
BLACK
6
CONTINUOUS
10
0.9914685039370078
20
0.3169291338582677
11
0.9906443700787402
21
0.312785905511811
0
LINE
8
BLACK
6
CONTINUOUS
10
0.9906443700787402
20
0.312785905511811
11
0.9882974015748032
21
0.3092734645669291
0
LINE
8
BLACK
6
CONTINUOUS
10
0.9882974015748032
20
0.3092734645669291
11
0.9847849606299213
21
0.3069264960629921
0
LINE
8
BLACK
6
CONTINUOUS
10
0.9847849606299213
20
0.3069264960629921
11
0.9806417322834645
21
0.3061023622047244
0
LINE
8
BLACK
6
CONTINUOUS
10
0.9806417322834645
20
0.3061023622047244
11
0.9609566929133858
21
0.3061023622047244
0
LINE
8
BLACK
6
CONTINUOUS
10
0.9609566929133858
20
0.3061023622047244
11
0.9568134645669291
21
0.3069264960629921
0
LINE
8
BLACK
6
CONTINUOUS
10
0.9568134645669291
20
0.3069264960629921
11
0.9533010236220473
21
0.3092734645669291
0
LINE
8
BLACK
6
CONTINUOUS
10
0.9533010236220473
20
0.3092734645669291
11
0.9509540551181103
21
0.312785905511811
0
LINE
8
BLACK
6
CONTINUOUS
10
0.9509540551181103
20
0.312785905511811
11
0.9501299212598425
21
0.3169291338582677
0
LINE
8
BLACK
6
CONTINUOUS
10
0.9501299212598425
20
0.3169291338582677
11
0.9501299212598425
21
0.3346456692913386
0
LINE
8
BLACK
6
CONTINUOUS
10
0.9501299212598425
20
0.3346456692913386
11
0.9509540551181103
21
0.3387888976377953
0
LINE
8
BLACK
6
CONTINUOUS
10
0.9509540551181103
20
0.3387888976377953
11
0.9533010236220473
21
0.3423013385826771
0
LINE
8
BLACK
6
CONTINUOUS
10
0.9533010236220473
20
0.3423013385826771
11
0.9568134645669291
21
0.3446483070866141
0
LINE
8
BLACK
6
CONTINUOUS
10
0.9568134645669291
20
0.3446483070866141
11
0.9609566929133858
21
0.3454724409448819
0
LINE
8
BLACK
6
CONTINUOUS
10
0.9609566929133858
20
0.3454724409448819
11
0.9806417322834645
21
0.3454724409448819
0
LINE
8
BLACK
6
CONTINUOUS
10
0.9806417322834645
20
0.3454724409448819
11
0.9847849606299213
21
0.3446483070866141
0
LINE
8
BLACK
6
CONTINUOUS
10
0.4685933464566929
20
0.3504476377952756
11
0.4717864960629921
21
0.3483140551181103
0
LINE
8
BLACK
6
CONTINUOUS
10
0.4717864960629921
20
0.3483140551181103
11
0.4739200787401575
21
0.345120905511811
0
LINE
8
BLACK
6
CONTINUOUS
10
0.4739200787401575
20
0.345120905511811
11
0.4746692913385827
21
0.3413543307086614
0
LINE
8
BLACK
6
CONTINUOUS
10
0.4746692913385827
20
0.3413543307086614
11
0.4746692913385827
21
0.3256062992125984
0
LINE
8
BLACK
6
CONTINUOUS
10
0.4746692913385827
20
0.3256062992125984
11
0.4739200787401575
21
0.3218397244094488
0
LINE
8
BLACK
6
CONTINUOUS
10
0.4739200787401575
20
0.3218397244094488
11
0.4717864960629921
21
0.3186465748031496
0
LINE
8
BLACK
6
CONTINUOUS
10
0.4717864960629921
20
0.3186465748031496
11
0.4685933464566929
21
0.3165129921259843
0
LINE
8
BLACK
6
CONTINUOUS
10
0.4685933464566929
20
0.3165129921259843
11
0.4648267716535433
21
0.3157637795275591
0
LINE
8
BLACK
6
CONTINUOUS
10
0.4648267716535433
20
0.3157637795275591
11
0.4431732283464567
21
0.3157637795275591
0
LINE
8
BLACK
6
CONTINUOUS
10
0.4431732283464567
20
0.3157637795275591
11
0.4394066535433071
21
0.3165129921259843
0
LINE
8
BLACK
6
CONTINUOUS
10
0.4394066535433071
20
0.3165129921259843
11
0.4362135039370079
21
0.3186465748031496
0
LINE
8
BLACK
6
CONTINUOUS
10
0.4362135039370079
20
0.3186465748031496
11
0.4340799212598425
21
0.3218397244094488
0
LINE
8
BLACK
6
CONTINUOUS
10
0.4340799212598425
20
0.3218397244094488
11
0.4333307086614173
21
0.3256062992125984
0
LINE
8
BLACK
6
CONTINUOUS
10
0.4333307086614173
20
0.3256062992125984
11
0.4333307086614173
21
0.3413543307086614
0
LINE
8
BLACK
6
CONTINUOUS
10
0.4333307086614173
20
0.3413543307086614
11
0.4340799212598425
21
0.345120905511811
0
LINE
8
BLACK
6
CONTINUOUS
10
0.4340799212598425
20
0.345120905511811
11
0.4362135039370079
21
0.3483140551181103
0
LINE
8
BLACK
6
CONTINUOUS
10
0.4362135039370079
20
0.3483140551181103
11
0.4394066535433071
21
0.3504476377952756
0
LINE
8
BLACK
6
CONTINUOUS
10
0.4394066535433071
20
0.3504476377952756
11
0.4431732283464567
21
0.3511968503937008
0
LINE
8
BLACK
6
CONTINUOUS
10
0.4431732283464567
20
0.3511968503937008
11
0.4648267716535433
21
0.3511968503937008
0
LINE
8
BLACK
6
CONTINUOUS
10
0.4648267716535433
20
0.3511968503937008
11
0.4685933464566929
21
0.3504476377952756
0
LINE
8
BLACK
6
CONTINUOUS
10
0.5305933464566929
20
0.3504476377952756
11
0.5337864960629921
21
0.3483140551181103
0
LINE
8
BLACK
6
CONTINUOUS
10
0.5337864960629921
20
0.3483140551181103
11
0.5359200787401575
21
0.345120905511811
0
LINE
8
BLACK
6
CONTINUOUS
10
0.5359200787401575
20
0.345120905511811
11
0.5366692913385827
21
0.3413543307086614
0
LINE
8
BLACK
6
CONTINUOUS
10
0.5366692913385827
20
0.3413543307086614
11
0.5366692913385827
21
0.3256062992125984
0
LINE
8
BLACK
6
CONTINUOUS
10
0.5366692913385827
20
0.3256062992125984
11
0.5359200787401575
21
0.3218397244094488
0
LINE
8
BLACK
6
CONTINUOUS
10
0.5359200787401575
20
0.3218397244094488
11
0.5337864960629921
21
0.3186465748031496
0
LINE
8
BLACK
6
CONTINUOUS
10
0.5337864960629921
20
0.3186465748031496
11
0.5305933464566929
21
0.3165129921259843
0
LINE
8
BLACK
6
CONTINUOUS
10
0.5305933464566929
20
0.3165129921259843
11
0.5268267716535433
21
0.3157637795275591
0
LINE
8
BLACK
6
CONTINUOUS
10
0.5268267716535433
20
0.3157637795275591
11
0.5051732283464567
21
0.3157637795275591
0
LINE
8
BLACK
6
CONTINUOUS
10
0.5051732283464567
20
0.3157637795275591
11
0.501406653543307
21
0.3165129921259843
0
LINE
8
BLACK
6
CONTINUOUS
10
0.501406653543307
20
0.3165129921259843
11
0.4982135039370079
21
0.3186465748031496
0
LINE
8
BLACK
6
CONTINUOUS
10
0.4982135039370079
20
0.3186465748031496
11
0.4960799212598425
21
0.3218397244094488
0
LINE
8
BLACK
6
CONTINUOUS
10
0.4960799212598425
20
0.3218397244094488
11
0.4953307086614173
21
0.3256062992125984
0
LINE
8
BLACK
6
CONTINUOUS
10
0.4953307086614173
20
0.3256062992125984
11
0.4953307086614173
21
0.3413543307086614
0
LINE
8
BLACK
6
CONTINUOUS
10
0.4953307086614173
20
0.3413543307086614
11
0.4960799212598425
21
0.345120905511811
0
LINE
8
BLACK
6
CONTINUOUS
10
0.4960799212598425
20
0.345120905511811
11
0.4982135039370079
21
0.3483140551181103
0
LINE
8
BLACK
6
CONTINUOUS
10
0.4982135039370079
20
0.3483140551181103
11
0.501406653543307
21
0.3504476377952756
0
LINE
8
BLACK
6
CONTINUOUS
10
0.501406653543307
20
0.3504476377952756
11
0.5051732283464567
21
0.3511968503937008
0
LINE
8
BLACK
6
CONTINUOUS
10
0.5051732283464567
20
0.3511968503937008
11
0.5268267716535433
21
0.3511968503937008
0
LINE
8
BLACK
6
CONTINUOUS
10
0.5268267716535433
20
0.3511968503937008
11
0.5305933464566929
21
0.3504476377952756
0
LINE
8
BLACK
6
CONTINUOUS
10
0.3067587007874016
20
0.3754870078740157
11
0.3099518503937008
21
0.3733534251968504
0
LINE
8
BLACK
6
CONTINUOUS
10
0.3099518503937008
20
0.3733534251968504
11
0.3120854330708661
21
0.3701602755905511
0
LINE
8
BLACK
6
CONTINUOUS
10
0.3120854330708661
20
0.3701602755905511
11
0.3128346456692913
21
0.3663937007874016
0
LINE
8
BLACK
6
CONTINUOUS
10
0.3128346456692913
20
0.3663937007874016
11
0.3128346456692913
21
0.3506456692913386
0
LINE
8
BLACK
6
CONTINUOUS
10
0.3128346456692913
20
0.3506456692913386
11
0.3120854330708661
21
0.346879094488189
0
LINE
8
BLACK
6
CONTINUOUS
10
0.3120854330708661
20
0.346879094488189
11
0.3099518503937008
21
0.3436859448818897
0
LINE
8
BLACK
6
CONTINUOUS
10
0.3099518503937008
20
0.3436859448818897
11
0.3067587007874016
21
0.3415523622047244
0
LINE
8
BLACK
6
CONTINUOUS
10
0.3067587007874016
20
0.3415523622047244
11
0.302992125984252
21
0.3408031496062992
0
LINE
8
BLACK
6
CONTINUOUS
10
0.302992125984252
20
0.3408031496062992
11
0.2813385826771653
21
0.3408031496062992
0
LINE
8
BLACK
6
CONTINUOUS
10
0.2813385826771653
20
0.3408031496062992
11
0.2775720078740158
21
0.3415523622047244
0
LINE
8
BLACK
6
CONTINUOUS
10
0.2775720078740158
20
0.3415523622047244
11
0.2743788582677165
21
0.3436859448818897
0
LINE
8
BLACK
6
CONTINUOUS
10
0.2743788582677165
20
0.3436859448818897
11
0.2722452755905512
21
0.346879094488189
0
LINE
8
BLACK
6
CONTINUOUS
10
0.2722452755905512
20
0.346879094488189
11
0.271496062992126
21
0.3506456692913386
0
LINE
8
BLACK
6
CONTINUOUS
10
0.271496062992126
20
0.3506456692913386
11
0.271496062992126
21
0.3663937007874016
0
LINE
8
BLACK
6
CONTINUOUS
10
0.271496062992126
20
0.3663937007874016
11
0.2722452755905512
21
0.3701602755905511
0
LINE
8
BLACK
6
CONTINUOUS
10
0.2722452755905512
20
0.3701602755905511
11
0.2743788582677165
21
0.3733534251968504
0
LINE
8
BLACK
6
CONTINUOUS
10
0.2743788582677165
20
0.3733534251968504
11
0.2775720078740158
21
0.3754870078740157
0
LINE
8
BLACK
6
CONTINUOUS
10
0.2775720078740158
20
0.3754870078740157
11
0.2813385826771653
21
0.3762362204724409
0
LINE
8
BLACK
6
CONTINUOUS
10
0.2813385826771653
20
0.3762362204724409
11
0.302992125984252
21
0.3762362204724409
0
LINE
8
BLACK
6
CONTINUOUS
10
0.302992125984252
20
0.3762362204724409
11
0.3067587007874016
21
0.3754870078740157
0
LINE
8
BLACK
6
CONTINUOUS
10
0.3680132677165354
20
0.3704636220472441
11
0.3705677559055118
21
0.3687567322834646
0
LINE
8
BLACK
6
CONTINUOUS
10
0.3705677559055118
20
0.3687567322834646
11
0.3722746456692913
21
0.3662022440944882
0
LINE
8
BLACK
6
CONTINUOUS
10
0.3722746456692913
20
0.3662022440944882
11
0.3728740157480315
21
0.3631889763779527
0
LINE
8
BLACK
6
CONTINUOUS
10
0.3728740157480315
20
0.3631889763779527
11
0.3728740157480315
21
0.3513779527559055
0
LINE
8
BLACK
6
CONTINUOUS
10
0.3728740157480315
20
0.3513779527559055
11
0.3722746456692913
21
0.3483646850393701
0
LINE
8
BLACK
6
CONTINUOUS
10
0.3722746456692913
20
0.3483646850393701
11
0.3705677559055118
21
0.3458101968503937
0
LINE
8
BLACK
6
CONTINUOUS
10
0.3705677559055118
20
0.3458101968503937
11
0.3680132677165354
21
0.3441033070866142
0
LINE
8
BLACK
6
CONTINUOUS
10
0.3680132677165354
20
0.3441033070866142
11
0.365
21
0.343503937007874
0
LINE
8
BLACK
6
CONTINUOUS
10
0.365
20
0.343503937007874
11
0.349251968503937
21
0.343503937007874
0
LINE
8
BLACK
6
CONTINUOUS
10
0.349251968503937
20
0.343503937007874
11
0.3462387007874015
21
0.3441033070866142
0
LINE
8
BLACK
6
CONTINUOUS
10
0.3462387007874015
20
0.3441033070866142
11
0.3436842125984252
21
0.3458101968503937
0
LINE
8
BLACK
6
CONTINUOUS
10
0.3436842125984252
20
0.3458101968503937
11
0.3419773228346457
21
0.3483646850393701
0
LINE
8
BLACK
6
CONTINUOUS
10
0.3419773228346457
20
0.3483646850393701
11
0.3413779527559055
21
0.3513779527559055
0
LINE
8
BLACK
6
CONTINUOUS
10
0.3413779527559055
20
0.3513779527559055
11
0.3413779527559055
21
0.3631889763779527
0
LINE
8
BLACK
6
CONTINUOUS
10
0.3413779527559055
20
0.3631889763779527
11
0.3419773228346457
21
0.3662022440944882
0
LINE
8
BLACK
6
CONTINUOUS
10
0.3419773228346457
20
0.3662022440944882
11
0.3436842125984252
21
0.3687567322834646
0
LINE
8
BLACK
6
CONTINUOUS
10
0.3436842125984252
20
0.3687567322834646
11
0.3462387007874015
21
0.3704636220472441
0
LINE
8
BLACK
6
CONTINUOUS
10
0.3462387007874015
20
0.3704636220472441
11
0.349251968503937
21
0.3710629921259843
0
LINE
8
BLACK
6
CONTINUOUS
10
0.349251968503937
20
0.3710629921259843
11
0.365
21
0.3710629921259843
0
LINE
8
BLACK
6
CONTINUOUS
10
0.365
20
0.3710629921259843
11
0.3680132677165354
21
0.3704636220472441
0
LINE
8
BLACK
6
CONTINUOUS
10
0.221406968503937
20
0.3822746456692913
11
0.2239614566929134
21
0.3805677559055118
0
LINE
8
BLACK
6
CONTINUOUS
10
0.2239614566929134
20
0.3805677559055118
11
0.2256683464566929
21
0.3780132677165354
0
LINE
8
BLACK
6
CONTINUOUS
10
0.2256683464566929
20
0.3780132677165354
11
0.2262677165354331
21
0.375
0
LINE
8
BLACK
6
CONTINUOUS
10
0.2262677165354331
20
0.375
11
0.2262677165354331
21
0.3631889763779527
0
LINE
8
BLACK
6
CONTINUOUS
10
0.2262677165354331
20
0.3631889763779527
11
0.2256683464566929
21
0.3601757086614173
0
LINE
8
BLACK
6
CONTINUOUS
10
0.2256683464566929
20
0.3601757086614173
11
0.2239614566929134
21
0.3576212204724409
0
LINE
8
BLACK
6
CONTINUOUS
10
0.2239614566929134
20
0.3576212204724409
11
0.221406968503937
21
0.3559143307086614
0
LINE
8
BLACK
6
CONTINUOUS
10
0.221406968503937
20
0.3559143307086614
11
0.2183937007874016
21
0.3553149606299212
0
LINE
8
BLACK
6
CONTINUOUS
10
0.2183937007874016
20
0.3553149606299212
11
0.1632755905511811
21
0.3553149606299212
0
LINE
8
BLACK
6
CONTINUOUS
10
0.1632755905511811
20
0.3553149606299212
11
0.1602623228346457
21
0.3559143307086614
0
LINE
8
BLACK
6
CONTINUOUS
10
0.1602623228346457
20
0.3559143307086614
11
0.1577078346456693
21
0.3576212204724409
0
LINE
8
BLACK
6
CONTINUOUS
10
0.1577078346456693
20
0.3576212204724409
11
0.1560009448818898
21
0.3601757086614173
0
LINE
8
BLACK
6
CONTINUOUS
10
0.1560009448818898
20
0.3601757086614173
11
0.1554015748031496
21
0.3631889763779527
0
LINE
8
BLACK
6
CONTINUOUS
10
0.1554015748031496
20
0.3631889763779527
11
0.1554015748031496
21
0.375
0
LINE
8
BLACK
6
CONTINUOUS
10
0.1554015748031496
20
0.375
11
0.1560009448818898
21
0.3780132677165354
0
LINE
8
BLACK
6
CONTINUOUS
10
0.1560009448818898
20
0.3780132677165354
11
0.1577078346456693
21
0.3805677559055118
0
LINE
8
BLACK
6
CONTINUOUS
10
0.1577078346456693
20
0.3805677559055118
11
0.1602623228346457
21
0.3822746456692913
0
LINE
8
BLACK
6
CONTINUOUS
10
0.1602623228346457
20
0.3822746456692913
11
0.1632755905511811
21
0.3828740157480315
0
LINE
8
BLACK
6
CONTINUOUS
10
0.1632755905511811
20
0.3828740157480315
11
0.2183937007874016
21
0.3828740157480315
0
LINE
8
BLACK
6
CONTINUOUS
10
0.2183937007874016
20
0.3828740157480315
11
0.221406968503937
21
0.3822746456692913
0
LINE
8
BLACK
6
CONTINUOUS
10
0.3680132677165354
20
0.4255817322834646
11
0.3705677559055118
21
0.423874842519685
0
LINE
8
BLACK
6
CONTINUOUS
10
0.3705677559055118
20
0.423874842519685
11
0.3722746456692913
21
0.4213203543307086
0
LINE
8
BLACK
6
CONTINUOUS
10
0.3722746456692913
20
0.4213203543307086
11
0.3728740157480315
21
0.4183070866141732
0
LINE
8
BLACK
6
CONTINUOUS
10
0.3728740157480315
20
0.4183070866141732
11
0.3728740157480315
21
0.406496062992126
0
LINE
8
BLACK
6
CONTINUOUS
10
0.3728740157480315
20
0.406496062992126
11
0.3722746456692913
21
0.4034827952755906
0
LINE
8
BLACK
6
CONTINUOUS
10
0.3722746456692913
20
0.4034827952755906
11
0.3705677559055118
21
0.4009283070866141
0
LINE
8
BLACK
6
CONTINUOUS
10
0.3705677559055118
20
0.4009283070866141
11
0.3680132677165354
21
0.3992214173228346
0
LINE
8
BLACK
6
CONTINUOUS
10
0.3680132677165354
20
0.3992214173228346
11
0.365
21
0.3986220472440945
0
LINE
8
BLACK
6
CONTINUOUS
10
0.365
20
0.3986220472440945
11
0.349251968503937
21
0.3986220472440945
0
LINE
8
BLACK
6
CONTINUOUS
10
0.349251968503937
20
0.3986220472440945
11
0.3462387007874015
21
0.3992214173228346
0
LINE
8
BLACK
6
CONTINUOUS
10
0.3462387007874015
20
0.3992214173228346
11
0.3436842125984252
21
0.4009283070866141
0
LINE
8
BLACK
6
CONTINUOUS
10
0.3436842125984252
20
0.4009283070866141
11
0.3419773228346457
21
0.4034827952755906
0
LINE
8
BLACK
6
CONTINUOUS
10
0.3419773228346457
20
0.4034827952755906
11
0.3413779527559055
21
0.406496062992126
0
LINE
8
BLACK
6
CONTINUOUS
10
0.3413779527559055
20
0.406496062992126
11
0.3413779527559055
21
0.4183070866141732
0
LINE
8
BLACK
6
CONTINUOUS
10
0.3413779527559055
20
0.4183070866141732
11
0.3419773228346457
21
0.4213203543307086
0
LINE
8
BLACK
6
CONTINUOUS
10
0.3419773228346457
20
0.4213203543307086
11
0.3436842125984252
21
0.423874842519685
0
LINE
8
BLACK
6
CONTINUOUS
10
0.3436842125984252
20
0.423874842519685
11
0.3462387007874015
21
0.4255817322834646
0
LINE
8
BLACK
6
CONTINUOUS
10
0.3462387007874015
20
0.4255817322834646
11
0.349251968503937
21
0.4261811023622047
0
LINE
8
BLACK
6
CONTINUOUS
10
0.349251968503937
20
0.4261811023622047
11
0.365
21
0.4261811023622047
0
LINE
8
BLACK
6
CONTINUOUS
10
0.365
20
0.4261811023622047
11
0.3680132677165354
21
0.4255817322834646
0
LINE
8
BLACK
6
CONTINUOUS
10
0.3067587007874016
20
0.4404476377952756
11
0.3099518503937008
21
0.4383140551181102
0
LINE
8
BLACK
6
CONTINUOUS
10
0.3099518503937008
20
0.4383140551181102
11
0.3120854330708661
21
0.435120905511811
0
LINE
8
BLACK
6
CONTINUOUS
10
0.3120854330708661
20
0.435120905511811
11
0.3128346456692913
21
0.4313543307086614
0
LINE
8
BLACK
6
CONTINUOUS
10
0.3128346456692913
20
0.4313543307086614
11
0.3128346456692913
21
0.4156062992125984
0
LINE
8
BLACK
6
CONTINUOUS
10
0.3128346456692913
20
0.4156062992125984
11
0.3120854330708661
21
0.4118397244094488
0
LINE
8
BLACK
6
CONTINUOUS
10
0.3120854330708661
20
0.4118397244094488
11
0.3099518503937008
21
0.4086465748031496
0
LINE
8
BLACK
6
CONTINUOUS
10
0.3099518503937008
20
0.4086465748031496
11
0.3067587007874016
21
0.4065129921259842
0
LINE
8
BLACK
6
CONTINUOUS
10
0.3067587007874016
20
0.4065129921259842
11
0.302992125984252
21
0.405763779527559
0
LINE
8
BLACK
6
CONTINUOUS
10
0.302992125984252
20
0.405763779527559
11
0.2813385826771653
21
0.405763779527559
0
LINE
8
BLACK
6
CONTINUOUS
10
0.2813385826771653
20
0.405763779527559
11
0.2775720078740158
21
0.4065129921259842
0
LINE
8
BLACK
6
CONTINUOUS
10
0.2775720078740158
20
0.4065129921259842
11
0.2743788582677165
21
0.4086465748031496
0
LINE
8
BLACK
6
CONTINUOUS
10
0.2743788582677165
20
0.4086465748031496
11
0.2722452755905512
21
0.4118397244094488
0
LINE
8
BLACK
6
CONTINUOUS
10
0.2722452755905512
20
0.4118397244094488
11
0.271496062992126
21
0.4156062992125984
0
LINE
8
BLACK
6
CONTINUOUS
10
0.271496062992126
20
0.4156062992125984
11
0.271496062992126
21
0.4313543307086614
0
LINE
8
BLACK
6
CONTINUOUS
10
0.271496062992126
20
0.4313543307086614
11
0.2722452755905512
21
0.435120905511811
0
LINE
8
BLACK
6
CONTINUOUS
10
0.2722452755905512
20
0.435120905511811
11
0.2743788582677165
21
0.4383140551181102
0
LINE
8
BLACK
6
CONTINUOUS
10
0.2743788582677165
20
0.4383140551181102
11
0.2775720078740158
21
0.4404476377952756
0
LINE
8
BLACK
6
CONTINUOUS
10
0.2775720078740158
20
0.4404476377952756
11
0.2813385826771653
21
0.4411968503937008
0
LINE
8
BLACK
6
CONTINUOUS
10
0.2813385826771653
20
0.4411968503937008
11
0.302992125984252
21
0.4411968503937008
0
LINE
8
BLACK
6
CONTINUOUS
10
0.302992125984252
20
0.4411968503937008
11
0.3067587007874016
21
0.4404476377952756
0
LINE
8
BLACK
6
CONTINUOUS
10
0.1108616141732283
20
0.463268937007874
11
0.1148323228346457
21
0.4615157086614173
0
LINE
8
BLACK
6
CONTINUOUS
10
0.1148323228346457
20
0.4615157086614173
11
0.1179015354330709
21
0.4584464960629921
0
LINE
8
BLACK
6
CONTINUOUS
10
0.1179015354330709
20
0.4584464960629921
11
0.1196547637795276
21
0.4544757874015748
0
LINE
8
BLACK
6
CONTINUOUS
10
0.1196547637795276
20
0.4544757874015748
11
0.1199685039370079
21
0.4517716535433071
0
LINE
8
BLACK
6
CONTINUOUS
10
0.1199685039370079
20
0.4517716535433071
11
0.1199685039370079
21
0.4320866141732284
0
LINE
8
BLACK
6
CONTINUOUS
10
0.1199685039370079
20
0.4320866141732284
11
0.1196547637795276
21
0.4293824803149606
0
LINE
8
BLACK
6
CONTINUOUS
10
0.1196547637795276
20
0.4293824803149606
11
0.1179015354330709
21
0.4254117716535433
0
LINE
8
BLACK
6
CONTINUOUS
10
0.1179015354330709
20
0.4254117716535433
11
0.1148323228346457
21
0.4223425590551181
0
LINE
8
BLACK
6
CONTINUOUS
10
0.1148323228346457
20
0.4223425590551181
11
0.1108616141732283
21
0.4205893307086614
0
LINE
8
BLACK
6
CONTINUOUS
10
0.1108616141732283
20
0.4205893307086614
11
0.1081574803149606
21
0.4202755905511811
0
LINE
8
BLACK
6
CONTINUOUS
10
0.1081574803149606
20
0.4202755905511811
11
0.0215433070866142
21
0.4202755905511811
0
LINE
8
BLACK
6
CONTINUOUS
10
0.0215433070866142
20
0.4202755905511811
11
0.0188391732283465
21
0.4205893307086614
0
LINE
8
BLACK
6
CONTINUOUS
10
0.0188391732283465
20
0.4205893307086614
11
0.0148684645669291
21
0.4223425590551181
0
LINE
8
BLACK
6
CONTINUOUS
10
0.0148684645669291
20
0.4223425590551181
11
0.0117992519685039
21
0.4254117716535433
0
LINE
8
BLACK
6
CONTINUOUS
10
0.0117992519685039
20
0.4254117716535433
11
0.0100460236220472
21
0.4293824803149606
0
LINE
8
BLACK
6
CONTINUOUS
10
0.0100460236220472
20
0.4293824803149606
11
0.0097322834645669
21
0.4320866141732284
0
LINE
8
BLACK
6
CONTINUOUS
10
0.0097322834645669
20
0.4320866141732284
11
0.0097322834645669
21
0.4517716535433071
0
LINE
8
BLACK
6
CONTINUOUS
10
0.0097322834645669
20
0.4517716535433071
11
0.0100460236220472
21
0.4544757874015748
0
LINE
8
BLACK
6
CONTINUOUS
10
0.0100460236220472
20
0.4544757874015748
11
0.0117992519685039
21
0.4584464960629921
0
LINE
8
BLACK
6
CONTINUOUS
10
0.0117992519685039
20
0.4584464960629921
11
0.0148684645669291
21
0.4615157086614173
0
LINE
8
BLACK
6
CONTINUOUS
10
0.0148684645669291
20
0.4615157086614173
11
0.0188391732283465
21
0.463268937007874
0
LINE
8
BLACK
6
CONTINUOUS
10
0.0188391732283465
20
0.463268937007874
11
0.0215433070866142
21
0.4635826771653543
0
LINE
8
BLACK
6
CONTINUOUS
10
0.0215433070866142
20
0.4635826771653543
11
0.1081574803149606
21
0.4635826771653543
0
LINE
8
BLACK
6
CONTINUOUS
10
0.1081574803149606
20
0.4635826771653543
11
0.1108616141732283
21
0.463268937007874
0
LINE
8
BLACK
6
CONTINUOUS
10
0.2850885039370079
20
0.5426577559055118
11
0.287855905511811
21
0.5408086614173229
0
LINE
8
BLACK
6
CONTINUOUS
10
0.287855905511811
20
0.5408086614173229
11
0.289705
21
0.5380412598425197
0
LINE
8
BLACK
6
CONTINUOUS
10
0.289705
20
0.5380412598425197
11
0.2903542913385826
21
0.5347768503937008
0
LINE
8
BLACK
6
CONTINUOUS
10
0.2903542913385826
20
0.5347768503937008
11
0.2903543307086614
21
0.4888451574803149
0
LINE
8
BLACK
6
CONTINUOUS
10
0.2903543307086614
20
0.4888451574803149
11
0.289705
21
0.4855807874015748
0
LINE
8
BLACK
6
CONTINUOUS
10
0.289705
20
0.4855807874015748
11
0.287855905511811
21
0.4828133858267716
0
LINE
8
BLACK
6
CONTINUOUS
10
0.287855905511811
20
0.4828133858267716
11
0.2850885039370079
21
0.4809642913385827
0
LINE
8
BLACK
6
CONTINUOUS
10
0.2850885039370079
20
0.4809642913385827
11
0.281824094488189
21
0.480315
0
LINE
8
BLACK
6
CONTINUOUS
10
0.281824094488189
20
0.480315
11
0.2457349212598425
21
0.4803149606299212
0
LINE
8
BLACK
6
CONTINUOUS
10
0.2457349212598425
20
0.4803149606299212
11
0.2424705511811024
21
0.4809642913385827
0
LINE
8
BLACK
6
CONTINUOUS
10
0.2424705511811024
20
0.4809642913385827
11
0.2397031496062992
21
0.4828133858267716
0
LINE
8
BLACK
6
CONTINUOUS
10
0.2397031496062992
20
0.4828133858267716
11
0.2378540551181102
21
0.4855807874015748
0
LINE
8
BLACK
6
CONTINUOUS
10
0.2378540551181102
20
0.4855807874015748
11
0.2372047637795276
21
0.4888451968503937
0
LINE
8
BLACK
6
CONTINUOUS
10
0.2372047637795276
20
0.4888451968503937
11
0.2372047244094488
21
0.5347768897637795
0
LINE
8
BLACK
6
CONTINUOUS
10
0.2372047244094488
20
0.5347768897637795
11
0.2378540551181102
21
0.5380412598425197
0
LINE
8
BLACK
6
CONTINUOUS
10
0.2378540551181102
20
0.5380412598425197
11
0.2397031496062992
21
0.5408086614173229
0
LINE
8
BLACK
6
CONTINUOUS
10
0.2397031496062992
20
0.5408086614173229
11
0.2424705511811024
21
0.5426577559055118
0
LINE
8
BLACK
6
CONTINUOUS
10
0.2424705511811024
20
0.5426577559055118
11
0.2457349606299213
21
0.5433070472440945
0
LINE
8
BLACK
6
CONTINUOUS
10
0.2457349606299213
20
0.5433070472440945
11
0.2818241338582677
21
0.5433070866141733
0
LINE
8
BLACK
6
CONTINUOUS
10
0.2818241338582677
20
0.5433070866141733
11
0.2850885039370079
21
0.5426577559055118
0
LINE
8
BLACK
6
CONTINUOUS
10
0.4268207874015748
20
0.5426577559055118
11
0.429588188976378
21
0.5408086614173229
0
LINE
8
BLACK
6
CONTINUOUS
10
0.429588188976378
20
0.5408086614173229
11
0.4314372834645669
21
0.5380412598425197
0
LINE
8
BLACK
6
CONTINUOUS
10
0.4314372834645669
20
0.5380412598425197
11
0.4320865748031496
21
0.5347768503937008
0
LINE
8
BLACK
6
CONTINUOUS
10
0.4320865748031496
20
0.5347768503937008
11
0.4320866141732284
21
0.4888451574803149
0
LINE
8
BLACK
6
CONTINUOUS
10
0.4320866141732284
20
0.4888451574803149
11
0.4314372834645669
21
0.4855807874015748
0
LINE
8
BLACK
6
CONTINUOUS
10
0.4314372834645669
20
0.4855807874015748
11
0.429588188976378
21
0.4828133858267716
0
LINE
8
BLACK
6
CONTINUOUS
10
0.429588188976378
20
0.4828133858267716
11
0.4268207874015748
21
0.4809642913385827
0
LINE
8
BLACK
6
CONTINUOUS
10
0.4268207874015748
20
0.4809642913385827
11
0.4235563779527559
21
0.480315
0
LINE
8
BLACK
6
CONTINUOUS
10
0.4235563779527559
20
0.480315
11
0.3874672047244094
21
0.4803149606299212
0
LINE
8
BLACK
6
CONTINUOUS
10
0.3874672047244094
20
0.4803149606299212
11
0.3842028346456693
21
0.4809642913385827
0
LINE
8
BLACK
6
CONTINUOUS
10
0.3842028346456693
20
0.4809642913385827
11
0.3814354330708661
21
0.4828133858267716
0
LINE
8
BLACK
6
CONTINUOUS
10
0.3814354330708661
20
0.4828133858267716
11
0.3795863385826772
21
0.4855807874015748
0
LINE
8
BLACK
6
CONTINUOUS
10
0.3795863385826772
20
0.4855807874015748
11
0.3789370472440945
21
0.4888451968503937
0
LINE
8
BLACK
6
CONTINUOUS
10
0.3789370472440945
20
0.4888451968503937
11
0.3789370078740157
21
0.5347768897637795
0
LINE
8
BLACK
6
CONTINUOUS
10
0.3789370078740157
20
0.5347768897637795
11
0.3795863385826772
21
0.5380412598425197
0
LINE
8
BLACK
6
CONTINUOUS
10
0.3795863385826772
20
0.5380412598425197
11
0.3814354330708661
21
0.5408086614173229
0
LINE
8
BLACK
6
CONTINUOUS
10
0.3814354330708661
20
0.5408086614173229
11
0.3842028346456693
21
0.5426577559055118
0
LINE
8
BLACK
6
CONTINUOUS
10
0.3842028346456693
20
0.5426577559055118
11
0.3874672440944882
21
0.5433070472440945
0
LINE
8
BLACK
6
CONTINUOUS
10
0.3874672440944882
20
0.5433070472440945
11
0.4235564173228346
21
0.5433070866141733
0
LINE
8
BLACK
6
CONTINUOUS
10
0.4235564173228346
20
0.5433070866141733
11
0.4268207874015748
21
0.5426577559055118
0
LINE
8
BLACK
6
CONTINUOUS
10
0.1129223622047244
20
0.6477992125984252
11
0.1221473622047244
21
0.6446322834645669
0
LINE
8
BLACK
6
CONTINUOUS
10
0.1221473622047244
20
0.6446322834645669
11
0.1307252755905512
21
0.639990157480315
0
LINE
8
BLACK
6
CONTINUOUS
10
0.1307252755905512
20
0.639990157480315
11
0.138422125984252
21
0.6339994488188976
0
LINE
8
BLACK
6
CONTINUOUS
10
0.138422125984252
20
0.6339994488188976
11
0.1450279921259842
21
0.6268235826771653
0
LINE
8
BLACK
6
CONTINUOUS
10
0.1450279921259842
20
0.6268235826771653
11
0.1503626377952756
21
0.6186583070866142
0
LINE
8
BLACK
6
CONTINUOUS
10
0.1503626377952756
20
0.6186583070866142
11
0.1542805511811024
21
0.6097263385826771
0
LINE
8
BLACK
6
CONTINUOUS
10
0.1542805511811024
20
0.6097263385826771
11
0.1566748818897638
21
0.6002713385826771
0
LINE
8
BLACK
6
CONTINUOUS
10
0.1566748818897638
20
0.6002713385826771
11
0.1574803149606299
21
0.5905511811023622
0
LINE
8
BLACK
6
CONTINUOUS
10
0.1574803149606299
20
0.5905511811023622
11
0.1566748818897638
21
0.5808310236220472
0
LINE
8
BLACK
6
CONTINUOUS
10
0.1566748818897638
20
0.5808310236220472
11
0.1542805511811024
21
0.5713760236220472
0
LINE
8
BLACK
6
CONTINUOUS
10
0.1542805511811024
20
0.5713760236220472
11
0.1503626377952756
21
0.5624440551181102
0
LINE
8
BLACK
6
CONTINUOUS
10
0.1503626377952756
20
0.5624440551181102
11
0.1450279921259842
21
0.554278779527559
0
LINE
8
BLACK
6
CONTINUOUS
10
0.1450279921259842
20
0.554278779527559
11
0.138422125984252
21
0.5471029133858267
0
LINE
8
BLACK
6
CONTINUOUS
10
0.138422125984252
20
0.5471029133858267
11
0.1307252755905512
21
0.5411122047244095
0
LINE
8
BLACK
6
CONTINUOUS
10
0.1307252755905512
20
0.5411122047244095
11
0.1221473622047244
21
0.5364700787401575
0
LINE
8
BLACK
6
CONTINUOUS
10
0.1221473622047244
20
0.5364700787401575
11
0.1129223622047244
21
0.5333031496062992
0
LINE
8
BLACK
6
CONTINUOUS
10
0.1129223622047244
20
0.5333031496062992
11
0.1033019291338583
21
0.5316977559055118
0
LINE
8
BLACK
6
CONTINUOUS
10
0.1033019291338583
20
0.5316977559055118
11
0.0935484645669291
21
0.5316977559055118
0
LINE
8
BLACK
6
CONTINUOUS
10
0.0935484645669291
20
0.5316977559055118
11
0.083928031496063
21
0.5333031496062992
0
LINE
8
BLACK
6
CONTINUOUS
10
0.083928031496063
20
0.5333031496062992
11
0.074703031496063
21
0.5364700787401575
0
LINE
8
BLACK
6
CONTINUOUS
10
0.074703031496063
20
0.5364700787401575
11
0.0661251181102362
21
0.5411122047244095
0
LINE
8
BLACK
6
CONTINUOUS
10
0.0661251181102362
20
0.5411122047244095
11
0.0584282677165354
21
0.5471029133858267
0
LINE
8
BLACK
6
CONTINUOUS
10
0.0584282677165354
20
0.5471029133858267
11
0.0518224015748031
21
0.554278779527559
0
LINE
8
BLACK
6
CONTINUOUS
10
0.0518224015748031
20
0.554278779527559
11
0.0464877559055118
21
0.5624440551181102
0
LINE
8
BLACK
6
CONTINUOUS
10
0.0464877559055118
20
0.5624440551181102
11
0.042569842519685
21
0.5713760236220472
0
LINE
8
BLACK
6
CONTINUOUS
10
0.042569842519685
20
0.5713760236220472
11
0.0401755118110236
21
0.5808310236220472
0
LINE
8
BLACK
6
CONTINUOUS
10
0.0401755118110236
20
0.5808310236220472
11
0.0393700787401575
21
0.5905511811023622
0
LINE
8
BLACK
6
CONTINUOUS
10
0.0393700787401575
20
0.5905511811023622
11
0.0401755118110236
21
0.6002713385826771
0
LINE
8
BLACK
6
CONTINUOUS
10
0.0401755118110236
20
0.6002713385826771
11
0.042569842519685
21
0.6097263385826771
0
LINE
8
BLACK
6
CONTINUOUS
10
0.042569842519685
20
0.6097263385826771
11
0.0464877559055118
21
0.6186583070866142
0
LINE
8
BLACK
6
CONTINUOUS
10
0.0464877559055118
20
0.6186583070866142
11
0.0518224015748031
21
0.6268235826771653
0
LINE
8
BLACK
6
CONTINUOUS
10
0.0518224015748031
20
0.6268235826771653
11
0.0584282677165354
21
0.6339994488188976
0
LINE
8
BLACK
6
CONTINUOUS
10
0.0584282677165354
20
0.6339994488188976
11
0.0661251181102362
21
0.639990157480315
0
LINE
8
BLACK
6
CONTINUOUS
10
0.0661251181102362
20
0.639990157480315
11
0.074703031496063
21
0.6446322834645669
0
LINE
8
BLACK
6
CONTINUOUS
10
0.074703031496063
20
0.6446322834645669
11
0.083928031496063
21
0.6477992125984252
0
LINE
8
BLACK
6
CONTINUOUS
10
0.083928031496063
20
0.6477992125984252
11
0.0935484645669291
21
0.6494046062992126
0
LINE
8
BLACK
6
CONTINUOUS
10
0.0935484645669291
20
0.6494046062992126
11
0.1033019291338583
21
0.6494046062992126
0
LINE
8
BLACK
6
CONTINUOUS
10
0.1033019291338583
20
0.6494046062992126
11
0.1129223622047244
21
0.6477992125984252
0
LINE
8
BLACK
6
CONTINUOUS
10
0.5066231496062992
20
0.6477992125984252
11
0.5158481496062992
21
0.6446322834645669
0
LINE
8
BLACK
6
CONTINUOUS
10
0.5158481496062992
20
0.6446322834645669
11
0.524426062992126
21
0.639990157480315
0
LINE
8
BLACK
6
CONTINUOUS
10
0.524426062992126
20
0.639990157480315
11
0.5321229133858267
21
0.6339994488188976
0
LINE
8
BLACK
6
CONTINUOUS
10
0.5321229133858267
20
0.6339994488188976
11
0.538728779527559
21
0.6268235826771653
0
LINE
8
BLACK
6
CONTINUOUS
10
0.538728779527559
20
0.6268235826771653
11
0.5440634251968504
21
0.6186583070866142
0
LINE
8
BLACK
6
CONTINUOUS
10
0.5440634251968504
20
0.6186583070866142
11
0.5479813385826772
21
0.6097263385826771
0
LINE
8
BLACK
6
CONTINUOUS
10
0.5479813385826772
20
0.6097263385826771
11
0.5503756692913385
21
0.6002713385826771
0
LINE
8
BLACK
6
CONTINUOUS
10
0.5503756692913385
20
0.6002713385826771
11
0.5511811023622047
21
0.5905511811023622
0
LINE
8
BLACK
6
CONTINUOUS
10
0.5511811023622047
20
0.5905511811023622
11
0.5503756692913385
21
0.5808310236220472
0
LINE
8
BLACK
6
CONTINUOUS
10
0.5503756692913385
20
0.5808310236220472
11
0.5479813385826772
21
0.5713760236220472
0
LINE
8
BLACK
6
CONTINUOUS
10
0.5479813385826772
20
0.5713760236220472
11
0.5440634251968504
21
0.5624440551181102
0
LINE
8
BLACK
6
CONTINUOUS
10
0.5440634251968504
20
0.5624440551181102
11
0.538728779527559
21
0.554278779527559
0
LINE
8
BLACK
6
CONTINUOUS
10
0.538728779527559
20
0.554278779527559
11
0.5321229133858267
21
0.5471029133858267
0
LINE
8
BLACK
6
CONTINUOUS
10
0.5321229133858267
20
0.5471029133858267
11
0.524426062992126
21
0.5411122047244095
0
LINE
8
BLACK
6
CONTINUOUS
10
0.524426062992126
20
0.5411122047244095
11
0.5158481496062992
21
0.5364700787401575
0
LINE
8
BLACK
6
CONTINUOUS
10
0.5158481496062992
20
0.5364700787401575
11
0.5066231496062992
21
0.5333031496062992
0
LINE
8
BLACK
6
CONTINUOUS
10
0.5066231496062992
20
0.5333031496062992
11
0.497002716535433
21
0.5316977559055118
0
LINE
8
BLACK
6
CONTINUOUS
10
0.497002716535433
20
0.5316977559055118
11
0.4872492519685039
21
0.5316977559055118
0
LINE
8
BLACK
6
CONTINUOUS
10
0.4872492519685039
20
0.5316977559055118
11
0.4776288188976378
21
0.5333031496062992
0
LINE
8
BLACK
6
CONTINUOUS
10
0.4776288188976378
20
0.5333031496062992
11
0.4684038188976378
21
0.5364700787401575
0
LINE
8
BLACK
6
CONTINUOUS
10
0.4684038188976378
20
0.5364700787401575
11
0.459825905511811
21
0.5411122047244095
0
LINE
8
BLACK
6
CONTINUOUS
10
0.459825905511811
20
0.5411122047244095
11
0.4521290551181102
21
0.5471029133858267
0
LINE
8
BLACK
6
CONTINUOUS
10
0.4521290551181102
20
0.5471029133858267
11
0.4455231889763779
21
0.554278779527559
0
LINE
8
BLACK
6
CONTINUOUS
10
0.4455231889763779
20
0.554278779527559
11
0.4401885433070866
21
0.5624440551181102
0
LINE
8
BLACK
6
CONTINUOUS
10
0.4401885433070866
20
0.5624440551181102
11
0.4362706299212598
21
0.5713760236220472
0
LINE
8
BLACK
6
CONTINUOUS
10
0.4362706299212598
20
0.5713760236220472
11
0.4338762992125984
21
0.5808310236220472
0
LINE
8
BLACK
6
CONTINUOUS
10
0.4338762992125984
20
0.5808310236220472
11
0.4330708661417323
21
0.5905511811023622
0
LINE
8
BLACK
6
CONTINUOUS
10
0.4330708661417323
20
0.5905511811023622
11
0.4338762992125984
21
0.6002713385826771
0
LINE
8
BLACK
6
CONTINUOUS
10
0.4338762992125984
20
0.6002713385826771
11
0.4362706299212598
21
0.6097263385826771
0
LINE
8
BLACK
6
CONTINUOUS
10
0.4362706299212598
20
0.6097263385826771
11
0.4401885433070866
21
0.6186583070866142
0
LINE
8
BLACK
6
CONTINUOUS
10
0.4401885433070866
20
0.6186583070866142
11
0.4455231889763779
21
0.6268235826771653
0
LINE
8
BLACK
6
CONTINUOUS
10
0.4455231889763779
20
0.6268235826771653
11
0.4521290551181102
21
0.6339994488188976
0
LINE
8
BLACK
6
CONTINUOUS
10
0.4521290551181102
20
0.6339994488188976
11
0.459825905511811
21
0.639990157480315
0
LINE
8
BLACK
6
CONTINUOUS
10
0.459825905511811
20
0.639990157480315
11
0.4684038188976378
21
0.6446322834645669
0
LINE
8
BLACK
6
CONTINUOUS
10
0.4684038188976378
20
0.6446322834645669
11
0.4776288188976378
21
0.6477992125984252
0
LINE
8
BLACK
6
CONTINUOUS
10
0.4776288188976378
20
0.6477992125984252
11
0.4872492519685039
21
0.6494046062992126
0
LINE
8
BLACK
6
CONTINUOUS
10
0.4872492519685039
20
0.6494046062992126
11
0.497002716535433
21
0.6494046062992126
0
LINE
8
BLACK
6
CONTINUOUS
10
0.497002716535433
20
0.6494046062992126
11
0.5066231496062992
21
0.6477992125984252
0
LINE
8
BLACK
6
CONTINUOUS
10
0.9003239370078739
20
0.6477992125984252
11
0.909548937007874
21
0.6446322834645669
0
LINE
8
BLACK
6
CONTINUOUS
10
0.909548937007874
20
0.6446322834645669
11
0.9181268503937008
21
0.639990157480315
0
LINE
8
BLACK
6
CONTINUOUS
10
0.9181268503937008
20
0.639990157480315
11
0.9258237007874015
21
0.6339994488188976
0
LINE
8
BLACK
6
CONTINUOUS
10
0.9258237007874015
20
0.6339994488188976
11
0.9324295669291338
21
0.6268235826771653
0
LINE
8
BLACK
6
CONTINUOUS
10
0.9324295669291338
20
0.6268235826771653
11
0.9377642125984251
21
0.6186583070866142
0
LINE
8
BLACK
6
CONTINUOUS
10
0.9377642125984251
20
0.6186583070866142
11
0.9416821259842519
21
0.6097263385826771
0
LINE
8
BLACK
6
CONTINUOUS
10
0.9416821259842519
20
0.6097263385826771
11
0.9440764566929134
21
0.6002713385826771
0
LINE
8
BLACK
6
CONTINUOUS
10
0.9440764566929134
20
0.6002713385826771
11
0.9448818897637795
21
0.5905511811023622
0
LINE
8
BLACK
6
CONTINUOUS
10
0.9448818897637795
20
0.5905511811023622
11
0.9440764566929134
21
0.5808310236220472
0
LINE
8
BLACK
6
CONTINUOUS
10
0.9440764566929134
20
0.5808310236220472
11
0.9416821259842519
21
0.5713760236220472
0
LINE
8
BLACK
6
CONTINUOUS
10
0.9416821259842519
20
0.5713760236220472
11
0.9377642125984251
21
0.5624440551181102
0
LINE
8
BLACK
6
CONTINUOUS
10
0.9377642125984251
20
0.5624440551181102
11
0.9324295669291338
21
0.554278779527559
0
LINE
8
BLACK
6
CONTINUOUS
10
0.9324295669291338
20
0.554278779527559
11
0.9258237007874015
21
0.5471029133858267
0
LINE
8
BLACK
6
CONTINUOUS
10
0.9258237007874015
20
0.5471029133858267
11
0.9181268503937008
21
0.5411122047244095
0
LINE
8
BLACK
6
CONTINUOUS
10
0.9181268503937008
20
0.5411122047244095
11
0.909548937007874
21
0.5364700787401575
0
LINE
8
BLACK
6
CONTINUOUS
10
0.909548937007874
20
0.5364700787401575
11
0.9003239370078739
21
0.5333031496062992
0
LINE
8
BLACK
6
CONTINUOUS
10
0.9003239370078739
20
0.5333031496062992
11
0.8907035039370078
21
0.5316977559055118
0
LINE
8
BLACK
6
CONTINUOUS
10
0.8907035039370078
20
0.5316977559055118
11
0.8809500393700788
21
0.5316977559055118
0
LINE
8
BLACK
6
CONTINUOUS
10
0.8809500393700788
20
0.5316977559055118
11
0.8713296062992126
21
0.5333031496062992
0
LINE
8
BLACK
6
CONTINUOUS
10
0.8713296062992126
20
0.5333031496062992
11
0.8621046062992126
21
0.5364700787401575
0
LINE
8
BLACK
6
CONTINUOUS
10
0.8621046062992126
20
0.5364700787401575
11
0.8535266929133858
21
0.5411122047244095
0
LINE
8
BLACK
6
CONTINUOUS
10
0.8535266929133858
20
0.5411122047244095
11
0.8458298425196851
21
0.5471029133858267
0
LINE
8
BLACK
6
CONTINUOUS
10
0.8458298425196851
20
0.5471029133858267
11
0.8392239763779528
21
0.554278779527559
0
LINE
8
BLACK
6
CONTINUOUS
10
0.8392239763779528
20
0.554278779527559
11
0.8338893307086614
21
0.5624440551181102
0
LINE
8
BLACK
6
CONTINUOUS
10
0.8338893307086614
20
0.5624440551181102
11
0.8299714173228346
21
0.5713760236220472
0
LINE
8
BLACK
6
CONTINUOUS
10
0.8299714173228346
20
0.5713760236220472
11
0.8275770866141732
21
0.5808310236220472
0
LINE
8
BLACK
6
CONTINUOUS
10
0.8275770866141732
20
0.5808310236220472
11
0.8267716535433071
21
0.5905511811023622
0
LINE
8
BLACK
6
CONTINUOUS
10
0.8267716535433071
20
0.5905511811023622
11
0.8275770866141732
21
0.6002713385826771
0
LINE
8
BLACK
6
CONTINUOUS
10
0.8275770866141732
20
0.6002713385826771
11
0.8299714173228346
21
0.6097263385826771
0
LINE
8
BLACK
6
CONTINUOUS
10
0.8299714173228346
20
0.6097263385826771
11
0.8338893307086614
21
0.6186583070866142
0
LINE
8
BLACK
6
CONTINUOUS
10
0.8338893307086614
20
0.6186583070866142
11
0.8392239763779528
21
0.6268235826771653
0
LINE
8
BLACK
6
CONTINUOUS
10
0.8392239763779528
20
0.6268235826771653
11
0.8458298425196851
21
0.6339994488188976
0
LINE
8
BLACK
6
CONTINUOUS
10
0.8458298425196851
20
0.6339994488188976
11
0.8535266929133858
21
0.639990157480315
0
LINE
8
BLACK
6
CONTINUOUS
10
0.8535266929133858
20
0.639990157480315
11
0.8621046062992126
21
0.6446322834645669
0
LINE
8
BLACK
6
CONTINUOUS
10
0.8621046062992126
20
0.6446322834645669
11
0.8713296062992126
21
0.6477992125984252
0
LINE
8
BLACK
6
CONTINUOUS
10
0.8713296062992126
20
0.6477992125984252
11
0.8809500393700788
21
0.6494046062992126
0
LINE
8
BLACK
6
CONTINUOUS
10
0.8809500393700788
20
0.6494046062992126
11
0.8907035039370078
21
0.6494046062992126
0
LINE
8
BLACK
6
CONTINUOUS
10
0.8907035039370078
20
0.6494046062992126
11
0.9003239370078739
21
0.6477992125984252
  0
ENDSEC
  0
EOF
