  0
SECTION
  2
HEADER
  9
$ANGBASE
  50
0.0
  9
$ANGDIR
  70
1
  9
$MEASUREMENT
  70
0
  0
ENDSEC
  0
SECTION
  2
TABLES
  0
TABLE
  2
LTYPE
  70
4
  0
LTYPE
  5
40F
  2
CONTINUOUS
  70
0
  3
Solid line
  72
65
  73
0
  40
0.0
  0
LTYPE
  5
410
  2
DASHDOT
 70
0
  3
Dash Dot ____ _ ____ _
 72
65
 73
4
 40
2.0
 49
1.25
 49
-0.25
 49
0.25
 49
-0.25
  0
LTYPE
  5
411
  2
DASHED
 70
0
  3
Dashed __ __ __ __ __
 72
65
 73
2
 40
0.75
 49
0.5
 49
-0.25
  0
LTYPE
  5
43B
  2
DOTTED
 70
0
  3
Dotted .  .  .  .
 72
65
 73
2
 40
0.2
 49
0.0
 49
-0.2
  0
ENDTAB
  0
TABLE
  2
STYLE
  70
4
  0
STYLE
  2
KICAD
  70
0
  40
0
  41
1
  42
1
  50
0
  71
0
  3
isocp.shx
  0
STYLE
  2
KICADB
  70
0
  40
0
  41
1
  42
1
  50
0
  71
0
  3
isocp.shx
  0
STYLE
  2
KICADI
  70
0
  40
0
  41
1
  42
1
  50
15
  71
0
  3
isocp.shx
  0
STYLE
  2
KICADBI
  70
0
  40
0
  41
1
  42
1
  50
15
  71
0
  3
isocp.shx
  0
ENDTAB
  0
TABLE
  2
LAYER
  70
1
  0
LAYER
  2
BLACK
  70
0
  62
7
  6
CONTINUOUS
  0
ENDTAB
  0
ENDSEC
  0
SECTION
  2
ENTITIES
0
LINE
8
BLACK
6
CONTINUOUS
10
0.4880853149606299
20
0.2278384645669291
11
0.4886179921259842
21
0.2273057874015748
0
LINE
8
BLACK
6
CONTINUOUS
10
0.4886179921259842
20
0.2273057874015748
11
0.4886929133858268
21
0.0930708661417323
0
LINE
8
BLACK
6
CONTINUOUS
10
0.4886929133858268
20
0.0930708661417323
11
0.4886179921259842
21
0.0926942125984252
0
LINE
8
BLACK
6
CONTINUOUS
10
0.4886179921259842
20
0.0926942125984252
11
0.4880853149606299
21
0.0921615354330709
0
LINE
8
BLACK
6
CONTINUOUS
10
0.4880853149606299
20
0.0921615354330709
11
0.3262913385826772
21
0.0920866141732283
0
LINE
8
BLACK
6
CONTINUOUS
10
0.3262913385826772
20
0.0920866141732283
11
0.32591468503937
21
0.0921615354330709
0
LINE
8
BLACK
6
CONTINUOUS
10
0.32591468503937
20
0.0921615354330709
11
0.3253820078740157
21
0.0926942125984252
0
LINE
8
BLACK
6
CONTINUOUS
10
0.3253820078740157
20
0.0926942125984252
11
0.3253070866141732
21
0.2269291338582677
0
LINE
8
BLACK
6
CONTINUOUS
10
0.3253070866141732
20
0.2269291338582677
11
0.3253820078740157
21
0.2273057874015748
0
LINE
8
BLACK
6
CONTINUOUS
10
0.3253820078740157
20
0.2273057874015748
11
0.32591468503937
21
0.2278384645669291
0
LINE
8
BLACK
6
CONTINUOUS
10
0.32591468503937
20
0.2278384645669291
11
0.4877086614173228
21
0.2279133858267716
0
LINE
8
BLACK
6
CONTINUOUS
10
0.4877086614173228
20
0.2279133858267716
11
0.4880853149606299
21
0.2278384645669291
0
LINE
8
BLACK
6
CONTINUOUS
10
0.3272014173228346
20
0.2259453149606299
11
0.3272750787401575
21
0.0939808661417323
0
LINE
8
BLACK
6
CONTINUOUS
10
0.3272750787401575
20
0.0939808661417323
11
0.4867985433070866
21
0.0940547244094488
0
LINE
8
BLACK
6
CONTINUOUS
10
0.4867985433070866
20
0.0940547244094488
11
0.4867248818897638
21
0.2260191732283464
0
LINE
8
BLACK
6
CONTINUOUS
10
0.4867248818897638
20
0.2260191732283464
11
0.3272014173228346
21
0.2259453149606299
0
LINE
8
BLACK
6
CONTINUOUS
10
0.3239593307086614
20
0.2288384645669291
11
0.3244920078740157
21
0.2283057874015748
0
LINE
8
BLACK
6
CONTINUOUS
10
0.3244920078740157
20
0.2283057874015748
11
0.3245669291338583
21
0.0940708661417323
0
LINE
8
BLACK
6
CONTINUOUS
10
0.3245669291338583
20
0.0940708661417323
11
0.3244920078740157
21
0.0936942125984252
0
LINE
8
BLACK
6
CONTINUOUS
10
0.3244920078740157
20
0.0936942125984252
11
0.3239593307086614
21
0.0931615354330709
0
LINE
8
BLACK
6
CONTINUOUS
10
0.3239593307086614
20
0.0931615354330709
11
0.2464173228346457
21
0.0930866141732283
0
LINE
8
BLACK
6
CONTINUOUS
10
0.2464173228346457
20
0.0930866141732283
11
0.2460406692913386
21
0.0931615354330709
0
LINE
8
BLACK
6
CONTINUOUS
10
0.2460406692913386
20
0.0931615354330709
11
0.2455079921259843
21
0.0936942125984252
0
LINE
8
BLACK
6
CONTINUOUS
10
0.2455079921259843
20
0.0936942125984252
11
0.2454330708661417
21
0.2279291338582677
0
LINE
8
BLACK
6
CONTINUOUS
10
0.2454330708661417
20
0.2279291338582677
11
0.2455079921259843
21
0.2283057874015748
0
LINE
8
BLACK
6
CONTINUOUS
10
0.2455079921259843
20
0.2283057874015748
11
0.2460406692913386
21
0.2288384645669291
0
LINE
8
BLACK
6
CONTINUOUS
10
0.2460406692913386
20
0.2288384645669291
11
0.3235826771653543
21
0.2289133858267716
0
LINE
8
BLACK
6
CONTINUOUS
10
0.3235826771653543
20
0.2289133858267716
11
0.3239593307086614
21
0.2288384645669291
0
LINE
8
BLACK
6
CONTINUOUS
10
0.2473274015748032
20
0.2269457874015748
11
0.247401062992126
21
0.0949815354330709
0
LINE
8
BLACK
6
CONTINUOUS
10
0.247401062992126
20
0.0949815354330709
11
0.3226725590551181
21
0.0950542519685039
0
LINE
8
BLACK
6
CONTINUOUS
10
0.3226725590551181
20
0.0950542519685039
11
0.3225988976377953
21
0.2270185039370079
0
LINE
8
BLACK
6
CONTINUOUS
10
0.3225988976377953
20
0.2270185039370079
11
0.2473274015748032
21
0.2269457874015748
0
LINE
8
BLACK
6
CONTINUOUS
10
0.5491168110236221
20
0.2241770472440945
11
0.5496494881889764
21
0.2236443700787402
0
LINE
8
BLACK
6
CONTINUOUS
10
0.5496494881889764
20
0.2236443700787402
11
0.5497244094488188
21
0.1067322834645669
0
LINE
8
BLACK
6
CONTINUOUS
10
0.5497244094488188
20
0.1067322834645669
11
0.5496494881889764
21
0.1063556299212598
0
LINE
8
BLACK
6
CONTINUOUS
10
0.5496494881889764
20
0.1063556299212598
11
0.5491168110236221
21
0.1058229527559055
0
LINE
8
BLACK
6
CONTINUOUS
10
0.5491168110236221
20
0.1058229527559055
11
0.491259842519685
21
0.105748031496063
0
LINE
8
BLACK
6
CONTINUOUS
10
0.491259842519685
20
0.105748031496063
11
0.4908831889763779
21
0.1058229527559055
0
LINE
8
BLACK
6
CONTINUOUS
10
0.4908831889763779
20
0.1058229527559055
11
0.4903505118110236
21
0.1063556299212598
0
LINE
8
BLACK
6
CONTINUOUS
10
0.4903505118110236
20
0.1063556299212598
11
0.4902755905511811
21
0.2232677165354331
0
LINE
8
BLACK
6
CONTINUOUS
10
0.4902755905511811
20
0.2232677165354331
11
0.4903505118110236
21
0.2236443700787402
0
LINE
8
BLACK
6
CONTINUOUS
10
0.4903505118110236
20
0.2236443700787402
11
0.4908831889763779
21
0.2241770472440945
0
LINE
8
BLACK
6
CONTINUOUS
10
0.4908831889763779
20
0.2241770472440945
11
0.5487401574803149
21
0.224251968503937
0
LINE
8
BLACK
6
CONTINUOUS
10
0.5487401574803149
20
0.224251968503937
11
0.5491168110236221
21
0.2241770472440945
0
LINE
8
BLACK
6
CONTINUOUS
10
0.4921700393700787
20
0.2222846456692913
11
0.4922435039370079
21
0.1076433858267716
0
LINE
8
BLACK
6
CONTINUOUS
10
0.4922435039370079
20
0.1076433858267716
11
0.5478299212598425
21
0.1077153937007874
0
LINE
8
BLACK
6
CONTINUOUS
10
0.5478299212598425
20
0.1077153937007874
11
0.5477564566929134
21
0.2223566535433071
0
LINE
8
BLACK
6
CONTINUOUS
10
0.5477564566929134
20
0.2223566535433071
11
0.4921700393700787
21
0.2222846456692913
0
LINE
8
BLACK
6
CONTINUOUS
10
0.244360905511811
20
0.4820116929133858
11
0.2448935826771654
21
0.4814790157480315
0
LINE
8
BLACK
6
CONTINUOUS
10
0.2448935826771654
20
0.4814790157480315
11
0.2449685039370079
21
0.1094488188976378
0
LINE
8
BLACK
6
CONTINUOUS
10
0.2449685039370079
20
0.1094488188976378
11
0.2448935826771654
21
0.1090721653543307
0
LINE
8
BLACK
6
CONTINUOUS
10
0.2448935826771654
20
0.1090721653543307
11
0.244360905511811
21
0.1085394881889764
0
LINE
8
BLACK
6
CONTINUOUS
10
0.244360905511811
20
0.1085394881889764
11
-0.0079842519685039
21
0.1084645669291339
0
LINE
8
BLACK
6
CONTINUOUS
10
-0.0079842519685039
20
0.1084645669291339
11
-0.008360905511811
21
0.1085394881889764
0
LINE
8
BLACK
6
CONTINUOUS
10
-0.008360905511811
20
0.1085394881889764
11
-0.0088935826771654
21
0.1090721653543307
0
LINE
8
BLACK
6
CONTINUOUS
10
-0.0088935826771654
20
0.1090721653543307
11
-0.0089685039370079
21
0.4811023622047244
0
LINE
8
BLACK
6
CONTINUOUS
10
-0.0089685039370079
20
0.4811023622047244
11
-0.0088935826771654
21
0.4814790157480315
0
LINE
8
BLACK
6
CONTINUOUS
10
-0.0088935826771654
20
0.4814790157480315
11
-0.008360905511811
21
0.4820116929133858
0
LINE
8
BLACK
6
CONTINUOUS
10
-0.008360905511811
20
0.4820116929133858
11
0.2439842519685039
21
0.4820866141732283
0
LINE
8
BLACK
6
CONTINUOUS
10
0.2439842519685039
20
0.4820866141732283
11
0.244360905511811
21
0.4820116929133858
0
LINE
8
BLACK
6
CONTINUOUS
10
-0.0070746850393701
20
0.4801183858267716
11
-0.0070001968503937
21
0.1103585826771653
0
LINE
8
BLACK
6
CONTINUOUS
10
-0.0070001968503937
20
0.1103585826771653
11
0.2430746456692913
21
0.1104328346456693
0
LINE
8
BLACK
6
CONTINUOUS
10
0.2430746456692913
20
0.1104328346456693
11
0.2430001574803149
21
0.4801926377952756
0
LINE
8
BLACK
6
CONTINUOUS
10
0.2430001574803149
20
0.4801926377952756
11
-0.0070746850393701
21
0.4801183858267716
0
LINE
8
BLACK
6
CONTINUOUS
10
0.9999160236220472
20
0.3544526377952756
11
1.0004487007874014
21
0.3539199606299213
0
LINE
8
BLACK
6
CONTINUOUS
10
1.0004487007874014
20
0.3539199606299213
11
1.000523622047244
21
0.237007874015748
0
LINE
8
BLACK
6
CONTINUOUS
10
1.000523622047244
20
0.237007874015748
11
1.0004487007874014
21
0.236631220472441
0
LINE
8
BLACK
6
CONTINUOUS
10
1.0004487007874014
20
0.236631220472441
11
0.9999160236220472
21
0.2360985433070866
0
LINE
8
BLACK
6
CONTINUOUS
10
0.9999160236220472
20
0.2360985433070866
11
0.9420590551181102
21
0.2360236220472441
0
LINE
8
BLACK
6
CONTINUOUS
10
0.9420590551181102
20
0.2360236220472441
11
0.9416824015748031
21
0.2360985433070866
0
LINE
8
BLACK
6
CONTINUOUS
10
0.9416824015748031
20
0.2360985433070866
11
0.9411497244094488
21
0.236631220472441
0
LINE
8
BLACK
6
CONTINUOUS
10
0.9411497244094488
20
0.236631220472441
11
0.9410748031496062
21
0.3535433070866142
0
LINE
8
BLACK
6
CONTINUOUS
10
0.9410748031496062
20
0.3535433070866142
11
0.9411497244094488
21
0.3539199606299213
0
LINE
8
BLACK
6
CONTINUOUS
10
0.9411497244094488
20
0.3539199606299213
11
0.9416824015748031
21
0.3544526377952756
0
LINE
8
BLACK
6
CONTINUOUS
10
0.9416824015748031
20
0.3544526377952756
11
0.9995393700787402
21
0.3545275590551181
0
LINE
8
BLACK
6
CONTINUOUS
10
0.9995393700787402
20
0.3545275590551181
11
0.9999160236220472
21
0.3544526377952756
0
LINE
8
BLACK
6
CONTINUOUS
10
0.9429692519685039
20
0.3525602362204724
11
0.943042716535433
21
0.2379189763779528
0
LINE
8
BLACK
6
CONTINUOUS
10
0.943042716535433
20
0.2379189763779528
11
0.9986291338582677
21
0.2379909842519685
0
LINE
8
BLACK
6
CONTINUOUS
10
0.9986291338582677
20
0.2379909842519685
11
0.9985556692913385
21
0.3526322440944882
0
LINE
8
BLACK
6
CONTINUOUS
10
0.9985556692913385
20
0.3526322440944882
11
0.9429692519685039
21
0.3525602362204724
0
LINE
8
BLACK
6
CONTINUOUS
10
0.3956443700787401
20
0.2966494881889764
11
0.3961770472440945
21
0.296116811023622
0
LINE
8
BLACK
6
CONTINUOUS
10
0.3961770472440945
20
0.296116811023622
11
0.396251968503937
21
0.238259842519685
0
LINE
8
BLACK
6
CONTINUOUS
10
0.396251968503937
20
0.238259842519685
11
0.3961770472440945
21
0.2378831889763779
0
LINE
8
BLACK
6
CONTINUOUS
10
0.3961770472440945
20
0.2378831889763779
11
0.3956443700787401
21
0.2373505118110236
0
LINE
8
BLACK
6
CONTINUOUS
10
0.3956443700787401
20
0.2373505118110236
11
0.2787322834645669
21
0.2372755905511811
0
LINE
8
BLACK
6
CONTINUOUS
10
0.2787322834645669
20
0.2372755905511811
11
0.2783556299212598
21
0.2373505118110236
0
LINE
8
BLACK
6
CONTINUOUS
10
0.2783556299212598
20
0.2373505118110236
11
0.2778229527559055
21
0.2378831889763779
0
LINE
8
BLACK
6
CONTINUOUS
10
0.2778229527559055
20
0.2378831889763779
11
0.277748031496063
21
0.295740157480315
0
LINE
8
BLACK
6
CONTINUOUS
10
0.277748031496063
20
0.295740157480315
11
0.2778229527559055
21
0.296116811023622
0
LINE
8
BLACK
6
CONTINUOUS
10
0.2778229527559055
20
0.296116811023622
11
0.2783556299212598
21
0.2966494881889764
0
LINE
8
BLACK
6
CONTINUOUS
10
0.2783556299212598
20
0.2966494881889764
11
0.3952677165354331
21
0.2967244094488189
0
LINE
8
BLACK
6
CONTINUOUS
10
0.3952677165354331
20
0.2967244094488189
11
0.3956443700787401
21
0.2966494881889764
0
LINE
8
BLACK
6
CONTINUOUS
10
0.2796433464566929
20
0.2947564960629921
11
0.2797153543307087
21
0.2391700787401575
0
LINE
8
BLACK
6
CONTINUOUS
10
0.2797153543307087
20
0.2391700787401575
11
0.3943566141732283
21
0.2392435433070866
0
LINE
8
BLACK
6
CONTINUOUS
10
0.3943566141732283
20
0.2392435433070866
11
0.3942846062992126
21
0.2948299606299212
0
LINE
8
BLACK
6
CONTINUOUS
10
0.3942846062992126
20
0.2948299606299212
11
0.2796433464566929
21
0.2947564960629921
0
LINE
8
BLACK
6
CONTINUOUS
10
0.483116811023622
20
0.3601770472440945
11
0.4836494881889764
21
0.3596443700787402
0
LINE
8
BLACK
6
CONTINUOUS
10
0.4836494881889764
20
0.3596443700787402
11
0.4837244094488189
21
0.2427322834645669
0
LINE
8
BLACK
6
CONTINUOUS
10
0.4837244094488189
20
0.2427322834645669
11
0.4836494881889764
21
0.2423556299212598
0
LINE
8
BLACK
6
CONTINUOUS
10
0.4836494881889764
20
0.2423556299212598
11
0.483116811023622
21
0.2418229527559055
0
LINE
8
BLACK
6
CONTINUOUS
10
0.483116811023622
20
0.2418229527559055
11
0.425259842519685
21
0.241748031496063
0
LINE
8
BLACK
6
CONTINUOUS
10
0.425259842519685
20
0.241748031496063
11
0.4248831889763779
21
0.2418229527559055
0
LINE
8
BLACK
6
CONTINUOUS
10
0.4248831889763779
20
0.2418229527559055
11
0.4243505118110236
21
0.2423556299212598
0
LINE
8
BLACK
6
CONTINUOUS
10
0.4243505118110236
20
0.2423556299212598
11
0.4242755905511811
21
0.359267716535433
0
LINE
8
BLACK
6
CONTINUOUS
10
0.4242755905511811
20
0.359267716535433
11
0.4243505118110236
21
0.3596443700787402
0
LINE
8
BLACK
6
CONTINUOUS
10
0.4243505118110236
20
0.3596443700787402
11
0.4248831889763779
21
0.3601770472440945
0
LINE
8
BLACK
6
CONTINUOUS
10
0.4248831889763779
20
0.3601770472440945
11
0.482740157480315
21
0.360251968503937
0
LINE
8
BLACK
6
CONTINUOUS
10
0.482740157480315
20
0.360251968503937
11
0.483116811023622
21
0.3601770472440945
0
LINE
8
BLACK
6
CONTINUOUS
10
0.4261700393700787
20
0.3582846456692914
11
0.4262435039370079
21
0.2436433858267716
0
LINE
8
BLACK
6
CONTINUOUS
10
0.4262435039370079
20
0.2436433858267716
11
0.4818299212598425
21
0.2437153937007874
0
LINE
8
BLACK
6
CONTINUOUS
10
0.4818299212598425
20
0.2437153937007874
11
0.4817564566929134
21
0.3583566535433071
0
LINE
8
BLACK
6
CONTINUOUS
10
0.4817564566929134
20
0.3583566535433071
11
0.4261700393700787
21
0.3582846456692914
0
LINE
8
BLACK
6
CONTINUOUS
10
0.5451168110236221
20
0.3601770472440945
11
0.5456494881889764
21
0.3596443700787402
0
LINE
8
BLACK
6
CONTINUOUS
10
0.5456494881889764
20
0.3596443700787402
11
0.5457244094488188
21
0.2427322834645669
0
LINE
8
BLACK
6
CONTINUOUS
10
0.5457244094488188
20
0.2427322834645669
11
0.5456494881889764
21
0.2423556299212598
0
LINE
8
BLACK
6
CONTINUOUS
10
0.5456494881889764
20
0.2423556299212598
11
0.5451168110236221
21
0.2418229527559055
0
LINE
8
BLACK
6
CONTINUOUS
10
0.5451168110236221
20
0.2418229527559055
11
0.487259842519685
21
0.241748031496063
0
LINE
8
BLACK
6
CONTINUOUS
10
0.487259842519685
20
0.241748031496063
11
0.4868831889763779
21
0.2418229527559055
0
LINE
8
BLACK
6
CONTINUOUS
10
0.4868831889763779
20
0.2418229527559055
11
0.4863505118110236
21
0.2423556299212598
0
LINE
8
BLACK
6
CONTINUOUS
10
0.4863505118110236
20
0.2423556299212598
11
0.4862755905511811
21
0.359267716535433
0
LINE
8
BLACK
6
CONTINUOUS
10
0.4862755905511811
20
0.359267716535433
11
0.4863505118110236
21
0.3596443700787402
0
LINE
8
BLACK
6
CONTINUOUS
10
0.4863505118110236
20
0.3596443700787402
11
0.4868831889763779
21
0.3601770472440945
0
LINE
8
BLACK
6
CONTINUOUS
10
0.4868831889763779
20
0.3601770472440945
11
0.5447401574803149
21
0.360251968503937
0
LINE
8
BLACK
6
CONTINUOUS
10
0.5447401574803149
20
0.360251968503937
11
0.5451168110236221
21
0.3601770472440945
0
LINE
8
BLACK
6
CONTINUOUS
10
0.4881700393700787
20
0.3582846456692914
11
0.4882435039370079
21
0.2436433858267716
0
LINE
8
BLACK
6
CONTINUOUS
10
0.4882435039370079
20
0.2436433858267716
11
0.5438299212598425
21
0.2437153937007874
0
LINE
8
BLACK
6
CONTINUOUS
10
0.5438299212598425
20
0.2437153937007874
11
0.5437564566929134
21
0.3583566535433071
0
LINE
8
BLACK
6
CONTINUOUS
10
0.5437564566929134
20
0.3583566535433071
11
0.4881700393700787
21
0.3582846456692914
0
LINE
8
BLACK
6
CONTINUOUS
10
1.100620748031496
20
0.335555
11
1.1011534251968504
21
0.3350223228346457
0
LINE
8
BLACK
6
CONTINUOUS
10
1.1011534251968504
20
0.3350223228346457
11
1.101228346456693
21
0.2559055118110236
0
LINE
8
BLACK
6
CONTINUOUS
10
1.101228346456693
20
0.2559055118110236
11
1.1011534251968504
21
0.2555288582677165
0
LINE
8
BLACK
6
CONTINUOUS
10
1.1011534251968504
20
0.2555288582677165
11
1.100620748031496
21
0.2549961811023622
0
LINE
8
BLACK
6
CONTINUOUS
10
1.100620748031496
20
0.2549961811023622
11
1.005755905511811
21
0.2549212598425197
0
LINE
8
BLACK
6
CONTINUOUS
10
1.005755905511811
20
0.2549212598425197
11
1.0053792519685039
21
0.2549961811023622
0
LINE
8
BLACK
6
CONTINUOUS
10
1.0053792519685039
20
0.2549961811023622
11
1.0048465748031497
21
0.2555288582677165
0
LINE
8
BLACK
6
CONTINUOUS
10
1.0048465748031497
20
0.2555288582677165
11
1.0047716535433071
21
0.3346456692913386
0
LINE
8
BLACK
6
CONTINUOUS
10
1.0047716535433071
20
0.3346456692913386
11
1.0048465748031497
21
0.3350223228346457
0
LINE
8
BLACK
6
CONTINUOUS
10
1.0048465748031497
20
0.3350223228346457
11
1.0053792519685039
21
0.335555
0
LINE
8
BLACK
6
CONTINUOUS
10
1.0053792519685039
20
0.335555
11
1.1002440944881891
21
0.3356299212598425
0
LINE
8
BLACK
6
CONTINUOUS
10
1.1002440944881891
20
0.3356299212598425
11
1.100620748031496
21
0.335555
0
LINE
8
BLACK
6
CONTINUOUS
10
1.0066664960629921
20
0.3336621653543307
11
1.0067392913385826
21
0.2568159448818897
0
LINE
8
BLACK
6
CONTINUOUS
10
1.0067392913385826
20
0.2568159448818897
11
1.099333464566929
21
0.2568890551181102
0
LINE
8
BLACK
6
CONTINUOUS
10
1.099333464566929
20
0.2568890551181102
11
1.0992606692913385
21
0.3337352755905512
0
LINE
8
BLACK
6
CONTINUOUS
10
1.0992606692913385
20
0.3337352755905512
11
1.0066664960629921
21
0.3336621653543307
0
LINE
8
BLACK
6
CONTINUOUS
10
0.3212821653543307
20
0.4501770472440945
11
0.321814842519685
21
0.4496443700787401
0
LINE
8
BLACK
6
CONTINUOUS
10
0.321814842519685
20
0.4496443700787401
11
0.3218897637795275
21
0.3327322834645669
0
LINE
8
BLACK
6
CONTINUOUS
10
0.3218897637795275
20
0.3327322834645669
11
0.321814842519685
21
0.3323556299212598
0
LINE
8
BLACK
6
CONTINUOUS
10
0.321814842519685
20
0.3323556299212598
11
0.3212821653543307
21
0.3318229527559055
0
LINE
8
BLACK
6
CONTINUOUS
10
0.3212821653543307
20
0.3318229527559055
11
0.2634251968503937
21
0.331748031496063
0
LINE
8
BLACK
6
CONTINUOUS
10
0.2634251968503937
20
0.331748031496063
11
0.2630485433070866
21
0.3318229527559055
0
LINE
8
BLACK
6
CONTINUOUS
10
0.2630485433070866
20
0.3318229527559055
11
0.2625158661417323
21
0.3323556299212598
0
LINE
8
BLACK
6
CONTINUOUS
10
0.2625158661417323
20
0.3323556299212598
11
0.2624409448818897
21
0.4492677165354331
0
LINE
8
BLACK
6
CONTINUOUS
10
0.2624409448818897
20
0.4492677165354331
11
0.2625158661417323
21
0.4496443700787401
0
LINE
8
BLACK
6
CONTINUOUS
10
0.2625158661417323
20
0.4496443700787401
11
0.2630485433070866
21
0.4501770472440945
0
LINE
8
BLACK
6
CONTINUOUS
10
0.2630485433070866
20
0.4501770472440945
11
0.3209055118110236
21
0.450251968503937
0
LINE
8
BLACK
6
CONTINUOUS
10
0.3209055118110236
20
0.450251968503937
11
0.3212821653543307
21
0.4501770472440945
0
LINE
8
BLACK
6
CONTINUOUS
10
0.2643353937007874
20
0.4482846456692913
11
0.2644088582677165
21
0.3336433858267717
0
LINE
8
BLACK
6
CONTINUOUS
10
0.2644088582677165
20
0.3336433858267717
11
0.3199952755905512
21
0.3337153937007874
0
LINE
8
BLACK
6
CONTINUOUS
10
0.3199952755905512
20
0.3337153937007874
11
0.319921811023622
21
0.4483566535433071
0
LINE
8
BLACK
6
CONTINUOUS
10
0.319921811023622
20
0.4483566535433071
11
0.2643353937007874
21
0.4482846456692913
0
LINE
8
BLACK
6
CONTINUOUS
10
0.3850616929133858
20
0.4349644488188976
11
0.3855943700787401
21
0.4344317716535433
0
LINE
8
BLACK
6
CONTINUOUS
10
0.3855943700787401
20
0.4344317716535433
11
0.3856692913385827
21
0.3356299212598425
0
LINE
8
BLACK
6
CONTINUOUS
10
0.3856692913385827
20
0.3356299212598425
11
0.3855943700787401
21
0.3352532677165354
0
LINE
8
BLACK
6
CONTINUOUS
10
0.3855943700787401
20
0.3352532677165354
11
0.3850616929133858
21
0.3347205905511811
0
LINE
8
BLACK
6
CONTINUOUS
10
0.3850616929133858
20
0.3347205905511811
11
0.3295669291338583
21
0.3346456692913386
0
LINE
8
BLACK
6
CONTINUOUS
10
0.3295669291338583
20
0.3346456692913386
11
0.3291902755905512
21
0.3347205905511811
0
LINE
8
BLACK
6
CONTINUOUS
10
0.3291902755905512
20
0.3347205905511811
11
0.3286575984251968
21
0.3352532677165354
0
LINE
8
BLACK
6
CONTINUOUS
10
0.3286575984251968
20
0.3352532677165354
11
0.3285826771653543
21
0.4340551181102362
0
LINE
8
BLACK
6
CONTINUOUS
10
0.3285826771653543
20
0.4340551181102362
11
0.3286575984251968
21
0.4344317716535433
0
LINE
8
BLACK
6
CONTINUOUS
10
0.3286575984251968
20
0.4344317716535433
11
0.3291902755905512
21
0.4349644488188976
0
LINE
8
BLACK
6
CONTINUOUS
10
0.3291902755905512
20
0.4349644488188976
11
0.3846850393700788
21
0.4350393700787402
0
LINE
8
BLACK
6
CONTINUOUS
10
0.3846850393700788
20
0.4350393700787402
11
0.3850616929133858
21
0.4349644488188976
0
LINE
8
BLACK
6
CONTINUOUS
10
0.3304772834645669
20
0.4330721259842519
11
0.3305504724409449
21
0.3365411023622047
0
LINE
8
BLACK
6
CONTINUOUS
10
0.3305504724409449
20
0.3365411023622047
11
0.3837746456692913
21
0.3366129527559055
0
LINE
8
BLACK
6
CONTINUOUS
10
0.3837746456692913
20
0.3366129527559055
11
0.3837014566929134
21
0.4331439763779528
0
LINE
8
BLACK
6
CONTINUOUS
10
0.3837014566929134
20
0.4331439763779528
11
0.3304772834645669
21
0.4330721259842519
  0
ENDSEC
  0
EOF
