  0
SECTION
  2
HEADER
  9
$ANGBASE
  50
0.0
  9
$ANGDIR
  70
1
  9
$MEASUREMENT
  70
0
  0
ENDSEC
  0
SECTION
  2
TABLES
  0
TABLE
  2
LTYPE
  70
4
  0
LTYPE
  5
40F
  2
CONTINUOUS
  70
0
  3
Solid line
  72
65
  73
0
  40
0.0
  0
LTYPE
  5
410
  2
DASHDOT
 70
0
  3
Dash Dot ____ _ ____ _
 72
65
 73
4
 40
2.0
 49
1.25
 49
-0.25
 49
0.25
 49
-0.25
  0
LTYPE
  5
411
  2
DASHED
 70
0
  3
Dashed __ __ __ __ __
 72
65
 73
2
 40
0.75
 49
0.5
 49
-0.25
  0
LTYPE
  5
43B
  2
DOTTED
 70
0
  3
Dotted .  .  .  .
 72
65
 73
2
 40
0.2
 49
0.0
 49
-0.2
  0
ENDTAB
  0
TABLE
  2
STYLE
  70
4
  0
STYLE
  2
KICAD
  70
0
  40
0
  41
1
  42
1
  50
0
  71
0
  3
isocp.shx
  0
STYLE
  2
KICADB
  70
0
  40
0
  41
1
  42
1
  50
0
  71
0
  3
isocp.shx
  0
STYLE
  2
KICADI
  70
0
  40
0
  41
1
  42
1
  50
15
  71
0
  3
isocp.shx
  0
STYLE
  2
KICADBI
  70
0
  40
0
  41
1
  42
1
  50
15
  71
0
  3
isocp.shx
  0
ENDTAB
  0
TABLE
  2
LAYER
  70
1
  0
LAYER
  2
BLACK
  70
0
  62
7
  6
CONTINUOUS
  0
ENDTAB
  0
ENDSEC
  0
SECTION
  2
ENTITIES
0
LINE
8
BLACK
6
CONTINUOUS
10
0.1129223622047244
20
0.057248031496063
11
0.1221473622047244
21
0.0540811023622047
0
LINE
8
BLACK
6
CONTINUOUS
10
0.1221473622047244
20
0.0540811023622047
11
0.1307252755905512
21
0.0494389763779528
0
LINE
8
BLACK
6
CONTINUOUS
10
0.1307252755905512
20
0.0494389763779528
11
0.138422125984252
21
0.0434482677165354
0
LINE
8
BLACK
6
CONTINUOUS
10
0.138422125984252
20
0.0434482677165354
11
0.1450279921259842
21
0.0362724015748032
0
LINE
8
BLACK
6
CONTINUOUS
10
0.1450279921259842
20
0.0362724015748032
11
0.1503626377952756
21
0.028107125984252
0
LINE
8
BLACK
6
CONTINUOUS
10
0.1503626377952756
20
0.028107125984252
11
0.1542805511811024
21
0.019175157480315
0
LINE
8
BLACK
6
CONTINUOUS
10
0.1542805511811024
20
0.019175157480315
11
0.1566748818897638
21
0.009720157480315
0
LINE
8
BLACK
6
CONTINUOUS
10
0.1566748818897638
20
0.009720157480315
11
0.1574803149606299
21
0.
0
LINE
8
BLACK
6
CONTINUOUS
10
0.1574803149606299
20
0.
11
0.1566748818897638
21
-0.009720157480315
0
LINE
8
BLACK
6
CONTINUOUS
10
0.1566748818897638
20
-0.009720157480315
11
0.1542805511811024
21
-0.019175157480315
0
LINE
8
BLACK
6
CONTINUOUS
10
0.1542805511811024
20
-0.019175157480315
11
0.1503626377952756
21
-0.028107125984252
0
LINE
8
BLACK
6
CONTINUOUS
10
0.1503626377952756
20
-0.028107125984252
11
0.1450279921259842
21
-0.0362724015748032
0
LINE
8
BLACK
6
CONTINUOUS
10
0.1450279921259842
20
-0.0362724015748032
11
0.138422125984252
21
-0.0434482677165354
0
LINE
8
BLACK
6
CONTINUOUS
10
0.138422125984252
20
-0.0434482677165354
11
0.1307252755905512
21
-0.0494389763779528
0
LINE
8
BLACK
6
CONTINUOUS
10
0.1307252755905512
20
-0.0494389763779528
11
0.1221473622047244
21
-0.0540811023622047
0
LINE
8
BLACK
6
CONTINUOUS
10
0.1221473622047244
20
-0.0540811023622047
11
0.1129223622047244
21
-0.057248031496063
0
LINE
8
BLACK
6
CONTINUOUS
10
0.1129223622047244
20
-0.057248031496063
11
0.1033019291338583
21
-0.0588534251968504
0
LINE
8
BLACK
6
CONTINUOUS
10
0.1033019291338583
20
-0.0588534251968504
11
0.0935484645669291
21
-0.0588534251968504
0
LINE
8
BLACK
6
CONTINUOUS
10
0.0935484645669291
20
-0.0588534251968504
11
0.083928031496063
21
-0.057248031496063
0
LINE
8
BLACK
6
CONTINUOUS
10
0.083928031496063
20
-0.057248031496063
11
0.074703031496063
21
-0.0540811023622047
0
LINE
8
BLACK
6
CONTINUOUS
10
0.074703031496063
20
-0.0540811023622047
11
0.0661251181102362
21
-0.0494389763779528
0
LINE
8
BLACK
6
CONTINUOUS
10
0.0661251181102362
20
-0.0494389763779528
11
0.0584282677165354
21
-0.0434482677165354
0
LINE
8
BLACK
6
CONTINUOUS
10
0.0584282677165354
20
-0.0434482677165354
11
0.0518224015748031
21
-0.0362724015748032
0
LINE
8
BLACK
6
CONTINUOUS
10
0.0518224015748031
20
-0.0362724015748032
11
0.0464877559055118
21
-0.028107125984252
0
LINE
8
BLACK
6
CONTINUOUS
10
0.0464877559055118
20
-0.028107125984252
11
0.042569842519685
21
-0.019175157480315
0
LINE
8
BLACK
6
CONTINUOUS
10
0.042569842519685
20
-0.019175157480315
11
0.0401755118110236
21
-0.009720157480315
0
LINE
8
BLACK
6
CONTINUOUS
10
0.0401755118110236
20
-0.009720157480315
11
0.0393700787401575
21
0.
0
LINE
8
BLACK
6
CONTINUOUS
10
0.0393700787401575
20
0.
11
0.0401755118110236
21
0.009720157480315
0
LINE
8
BLACK
6
CONTINUOUS
10
0.0401755118110236
20
0.009720157480315
11
0.042569842519685
21
0.019175157480315
0
LINE
8
BLACK
6
CONTINUOUS
10
0.042569842519685
20
0.019175157480315
11
0.0464877559055118
21
0.028107125984252
0
LINE
8
BLACK
6
CONTINUOUS
10
0.0464877559055118
20
0.028107125984252
11
0.0518224015748031
21
0.0362724015748032
0
LINE
8
BLACK
6
CONTINUOUS
10
0.0518224015748031
20
0.0362724015748032
11
0.0584282677165354
21
0.0434482677165354
0
LINE
8
BLACK
6
CONTINUOUS
10
0.0584282677165354
20
0.0434482677165354
11
0.0661251181102362
21
0.0494389763779528
0
LINE
8
BLACK
6
CONTINUOUS
10
0.0661251181102362
20
0.0494389763779528
11
0.074703031496063
21
0.0540811023622047
0
LINE
8
BLACK
6
CONTINUOUS
10
0.074703031496063
20
0.0540811023622047
11
0.083928031496063
21
0.057248031496063
0
LINE
8
BLACK
6
CONTINUOUS
10
0.083928031496063
20
0.057248031496063
11
0.0935484645669291
21
0.0588534251968504
0
LINE
8
BLACK
6
CONTINUOUS
10
0.0935484645669291
20
0.0588534251968504
11
0.1033019291338583
21
0.0588534251968504
0
LINE
8
BLACK
6
CONTINUOUS
10
0.1033019291338583
20
0.0588534251968504
11
0.1129223622047244
21
0.057248031496063
0
LINE
8
BLACK
6
CONTINUOUS
10
0.5066231496062992
20
0.057248031496063
11
0.5158481496062992
21
0.0540811023622047
0
LINE
8
BLACK
6
CONTINUOUS
10
0.5158481496062992
20
0.0540811023622047
11
0.524426062992126
21
0.0494389763779528
0
LINE
8
BLACK
6
CONTINUOUS
10
0.524426062992126
20
0.0494389763779528
11
0.5321229133858267
21
0.0434482677165354
0
LINE
8
BLACK
6
CONTINUOUS
10
0.5321229133858267
20
0.0434482677165354
11
0.538728779527559
21
0.0362724015748032
0
LINE
8
BLACK
6
CONTINUOUS
10
0.538728779527559
20
0.0362724015748032
11
0.5440634251968504
21
0.028107125984252
0
LINE
8
BLACK
6
CONTINUOUS
10
0.5440634251968504
20
0.028107125984252
11
0.5479813385826772
21
0.019175157480315
0
LINE
8
BLACK
6
CONTINUOUS
10
0.5479813385826772
20
0.019175157480315
11
0.5503756692913385
21
0.009720157480315
0
LINE
8
BLACK
6
CONTINUOUS
10
0.5503756692913385
20
0.009720157480315
11
0.5511811023622047
21
0.
0
LINE
8
BLACK
6
CONTINUOUS
10
0.5511811023622047
20
0.
11
0.5503756692913385
21
-0.009720157480315
0
LINE
8
BLACK
6
CONTINUOUS
10
0.5503756692913385
20
-0.009720157480315
11
0.5479813385826772
21
-0.019175157480315
0
LINE
8
BLACK
6
CONTINUOUS
10
0.5479813385826772
20
-0.019175157480315
11
0.5440634251968504
21
-0.028107125984252
0
LINE
8
BLACK
6
CONTINUOUS
10
0.5440634251968504
20
-0.028107125984252
11
0.538728779527559
21
-0.0362724015748032
0
LINE
8
BLACK
6
CONTINUOUS
10
0.538728779527559
20
-0.0362724015748032
11
0.5321229133858267
21
-0.0434482677165354
0
LINE
8
BLACK
6
CONTINUOUS
10
0.5321229133858267
20
-0.0434482677165354
11
0.524426062992126
21
-0.0494389763779528
0
LINE
8
BLACK
6
CONTINUOUS
10
0.524426062992126
20
-0.0494389763779528
11
0.5158481496062992
21
-0.0540811023622047
0
LINE
8
BLACK
6
CONTINUOUS
10
0.5158481496062992
20
-0.0540811023622047
11
0.5066231496062992
21
-0.057248031496063
0
LINE
8
BLACK
6
CONTINUOUS
10
0.5066231496062992
20
-0.057248031496063
11
0.497002716535433
21
-0.0588534251968504
0
LINE
8
BLACK
6
CONTINUOUS
10
0.497002716535433
20
-0.0588534251968504
11
0.4872492519685039
21
-0.0588534251968504
0
LINE
8
BLACK
6
CONTINUOUS
10
0.4872492519685039
20
-0.0588534251968504
11
0.4776288188976378
21
-0.057248031496063
0
LINE
8
BLACK
6
CONTINUOUS
10
0.4776288188976378
20
-0.057248031496063
11
0.4684038188976378
21
-0.0540811023622047
0
LINE
8
BLACK
6
CONTINUOUS
10
0.4684038188976378
20
-0.0540811023622047
11
0.459825905511811
21
-0.0494389763779528
0
LINE
8
BLACK
6
CONTINUOUS
10
0.459825905511811
20
-0.0494389763779528
11
0.4521290551181102
21
-0.0434482677165354
0
LINE
8
BLACK
6
CONTINUOUS
10
0.4521290551181102
20
-0.0434482677165354
11
0.4455231889763779
21
-0.0362724015748032
0
LINE
8
BLACK
6
CONTINUOUS
10
0.4455231889763779
20
-0.0362724015748032
11
0.4401885433070866
21
-0.028107125984252
0
LINE
8
BLACK
6
CONTINUOUS
10
0.4401885433070866
20
-0.028107125984252
11
0.4362706299212598
21
-0.019175157480315
0
LINE
8
BLACK
6
CONTINUOUS
10
0.4362706299212598
20
-0.019175157480315
11
0.4338762992125984
21
-0.009720157480315
0
LINE
8
BLACK
6
CONTINUOUS
10
0.4338762992125984
20
-0.009720157480315
11
0.4330708661417323
21
0.
0
LINE
8
BLACK
6
CONTINUOUS
10
0.4330708661417323
20
0.
11
0.4338762992125984
21
0.009720157480315
0
LINE
8
BLACK
6
CONTINUOUS
10
0.4338762992125984
20
0.009720157480315
11
0.4362706299212598
21
0.019175157480315
0
LINE
8
BLACK
6
CONTINUOUS
10
0.4362706299212598
20
0.019175157480315
11
0.4401885433070866
21
0.028107125984252
0
LINE
8
BLACK
6
CONTINUOUS
10
0.4401885433070866
20
0.028107125984252
11
0.4455231889763779
21
0.0362724015748032
0
LINE
8
BLACK
6
CONTINUOUS
10
0.4455231889763779
20
0.0362724015748032
11
0.4521290551181102
21
0.0434482677165354
0
LINE
8
BLACK
6
CONTINUOUS
10
0.4521290551181102
20
0.0434482677165354
11
0.459825905511811
21
0.0494389763779528
0
LINE
8
BLACK
6
CONTINUOUS
10
0.459825905511811
20
0.0494389763779528
11
0.4684038188976378
21
0.0540811023622047
0
LINE
8
BLACK
6
CONTINUOUS
10
0.4684038188976378
20
0.0540811023622047
11
0.4776288188976378
21
0.057248031496063
0
LINE
8
BLACK
6
CONTINUOUS
10
0.4776288188976378
20
0.057248031496063
11
0.4872492519685039
21
0.0588534251968504
0
LINE
8
BLACK
6
CONTINUOUS
10
0.4872492519685039
20
0.0588534251968504
11
0.497002716535433
21
0.0588534251968504
0
LINE
8
BLACK
6
CONTINUOUS
10
0.497002716535433
20
0.0588534251968504
11
0.5066231496062992
21
0.057248031496063
0
LINE
8
BLACK
6
CONTINUOUS
10
0.9003239370078739
20
0.057248031496063
11
0.909548937007874
21
0.0540811023622047
0
LINE
8
BLACK
6
CONTINUOUS
10
0.909548937007874
20
0.0540811023622047
11
0.9181268503937008
21
0.0494389763779528
0
LINE
8
BLACK
6
CONTINUOUS
10
0.9181268503937008
20
0.0494389763779528
11
0.9258237007874015
21
0.0434482677165354
0
LINE
8
BLACK
6
CONTINUOUS
10
0.9258237007874015
20
0.0434482677165354
11
0.9324295669291338
21
0.0362724015748032
0
LINE
8
BLACK
6
CONTINUOUS
10
0.9324295669291338
20
0.0362724015748032
11
0.9377642125984251
21
0.028107125984252
0
LINE
8
BLACK
6
CONTINUOUS
10
0.9377642125984251
20
0.028107125984252
11
0.9416821259842519
21
0.019175157480315
0
LINE
8
BLACK
6
CONTINUOUS
10
0.9416821259842519
20
0.019175157480315
11
0.9440764566929134
21
0.009720157480315
0
LINE
8
BLACK
6
CONTINUOUS
10
0.9440764566929134
20
0.009720157480315
11
0.9448818897637795
21
0.
0
LINE
8
BLACK
6
CONTINUOUS
10
0.9448818897637795
20
0.
11
0.9440764566929134
21
-0.009720157480315
0
LINE
8
BLACK
6
CONTINUOUS
10
0.9440764566929134
20
-0.009720157480315
11
0.9416821259842519
21
-0.019175157480315
0
LINE
8
BLACK
6
CONTINUOUS
10
0.9416821259842519
20
-0.019175157480315
11
0.9377642125984251
21
-0.028107125984252
0
LINE
8
BLACK
6
CONTINUOUS
10
0.9377642125984251
20
-0.028107125984252
11
0.9324295669291338
21
-0.0362724015748032
0
LINE
8
BLACK
6
CONTINUOUS
10
0.9324295669291338
20
-0.0362724015748032
11
0.9258237007874015
21
-0.0434482677165354
0
LINE
8
BLACK
6
CONTINUOUS
10
0.9258237007874015
20
-0.0434482677165354
11
0.9181268503937008
21
-0.0494389763779528
0
LINE
8
BLACK
6
CONTINUOUS
10
0.9181268503937008
20
-0.0494389763779528
11
0.909548937007874
21
-0.0540811023622047
0
LINE
8
BLACK
6
CONTINUOUS
10
0.909548937007874
20
-0.0540811023622047
11
0.9003239370078739
21
-0.057248031496063
0
LINE
8
BLACK
6
CONTINUOUS
10
0.9003239370078739
20
-0.057248031496063
11
0.8907035039370078
21
-0.0588534251968504
0
LINE
8
BLACK
6
CONTINUOUS
10
0.8907035039370078
20
-0.0588534251968504
11
0.8809500393700788
21
-0.0588534251968504
0
LINE
8
BLACK
6
CONTINUOUS
10
0.8809500393700788
20
-0.0588534251968504
11
0.8713296062992126
21
-0.057248031496063
0
LINE
8
BLACK
6
CONTINUOUS
10
0.8713296062992126
20
-0.057248031496063
11
0.8621046062992126
21
-0.0540811023622047
0
LINE
8
BLACK
6
CONTINUOUS
10
0.8621046062992126
20
-0.0540811023622047
11
0.8535266929133858
21
-0.0494389763779528
0
LINE
8
BLACK
6
CONTINUOUS
10
0.8535266929133858
20
-0.0494389763779528
11
0.8458298425196851
21
-0.0434482677165354
0
LINE
8
BLACK
6
CONTINUOUS
10
0.8458298425196851
20
-0.0434482677165354
11
0.8392239763779528
21
-0.0362724015748032
0
LINE
8
BLACK
6
CONTINUOUS
10
0.8392239763779528
20
-0.0362724015748032
11
0.8338893307086614
21
-0.028107125984252
0
LINE
8
BLACK
6
CONTINUOUS
10
0.8338893307086614
20
-0.028107125984252
11
0.8299714173228346
21
-0.019175157480315
0
LINE
8
BLACK
6
CONTINUOUS
10
0.8299714173228346
20
-0.019175157480315
11
0.8275770866141732
21
-0.009720157480315
0
LINE
8
BLACK
6
CONTINUOUS
10
0.8275770866141732
20
-0.009720157480315
11
0.8267716535433071
21
0.
0
LINE
8
BLACK
6
CONTINUOUS
10
0.8267716535433071
20
0.
11
0.8275770866141732
21
0.009720157480315
0
LINE
8
BLACK
6
CONTINUOUS
10
0.8275770866141732
20
0.009720157480315
11
0.8299714173228346
21
0.019175157480315
0
LINE
8
BLACK
6
CONTINUOUS
10
0.8299714173228346
20
0.019175157480315
11
0.8338893307086614
21
0.028107125984252
0
LINE
8
BLACK
6
CONTINUOUS
10
0.8338893307086614
20
0.028107125984252
11
0.8392239763779528
21
0.0362724015748032
0
LINE
8
BLACK
6
CONTINUOUS
10
0.8392239763779528
20
0.0362724015748032
11
0.8458298425196851
21
0.0434482677165354
0
LINE
8
BLACK
6
CONTINUOUS
10
0.8458298425196851
20
0.0434482677165354
11
0.8535266929133858
21
0.0494389763779528
0
LINE
8
BLACK
6
CONTINUOUS
10
0.8535266929133858
20
0.0494389763779528
11
0.8621046062992126
21
0.0540811023622047
0
LINE
8
BLACK
6
CONTINUOUS
10
0.8621046062992126
20
0.0540811023622047
11
0.8713296062992126
21
0.057248031496063
0
LINE
8
BLACK
6
CONTINUOUS
10
0.8713296062992126
20
0.057248031496063
11
0.8809500393700788
21
0.0588534251968504
0
LINE
8
BLACK
6
CONTINUOUS
10
0.8809500393700788
20
0.0588534251968504
11
0.8907035039370078
21
0.0588534251968504
0
LINE
8
BLACK
6
CONTINUOUS
10
0.8907035039370078
20
0.0588534251968504
11
0.9003239370078739
21
0.057248031496063
0
LINE
8
BLACK
6
CONTINUOUS
10
0.1108616141732283
20
0.1699618503937008
11
0.1148323228346457
21
0.1682086220472441
0
LINE
8
BLACK
6
CONTINUOUS
10
0.1148323228346457
20
0.1682086220472441
11
0.1179015354330709
21
0.1651394094488189
0
LINE
8
BLACK
6
CONTINUOUS
10
0.1179015354330709
20
0.1651394094488189
11
0.1196547637795276
21
0.1611687007874016
0
LINE
8
BLACK
6
CONTINUOUS
10
0.1196547637795276
20
0.1611687007874016
11
0.1199685039370079
21
0.1584645669291339
0
LINE
8
BLACK
6
CONTINUOUS
10
0.1199685039370079
20
0.1584645669291339
11
0.1199685039370079
21
0.1387795275590551
0
LINE
8
BLACK
6
CONTINUOUS
10
0.1199685039370079
20
0.1387795275590551
11
0.1196547637795276
21
0.1360753937007874
0
LINE
8
BLACK
6
CONTINUOUS
10
0.1196547637795276
20
0.1360753937007874
11
0.1179015354330709
21
0.1321046850393701
0
LINE
8
BLACK
6
CONTINUOUS
10
0.1179015354330709
20
0.1321046850393701
11
0.1148323228346457
21
0.1290354724409449
0
LINE
8
BLACK
6
CONTINUOUS
10
0.1148323228346457
20
0.1290354724409449
11
0.1108616141732283
21
0.1272822440944882
0
LINE
8
BLACK
6
CONTINUOUS
10
0.1108616141732283
20
0.1272822440944882
11
0.1081574803149606
21
0.1269685039370079
0
LINE
8
BLACK
6
CONTINUOUS
10
0.1081574803149606
20
0.1269685039370079
11
0.0215433070866142
21
0.1269685039370079
0
LINE
8
BLACK
6
CONTINUOUS
10
0.0215433070866142
20
0.1269685039370079
11
0.0188391732283465
21
0.1272822440944882
0
LINE
8
BLACK
6
CONTINUOUS
10
0.0188391732283465
20
0.1272822440944882
11
0.0148684645669291
21
0.1290354724409449
0
LINE
8
BLACK
6
CONTINUOUS
10
0.0148684645669291
20
0.1290354724409449
11
0.0117992519685039
21
0.1321046850393701
0
LINE
8
BLACK
6
CONTINUOUS
10
0.0117992519685039
20
0.1321046850393701
11
0.0100460236220472
21
0.1360753937007874
0
LINE
8
BLACK
6
CONTINUOUS
10
0.0100460236220472
20
0.1360753937007874
11
0.0097322834645669
21
0.1387795275590551
0
LINE
8
BLACK
6
CONTINUOUS
10
0.0097322834645669
20
0.1387795275590551
11
0.0097322834645669
21
0.1584645669291339
0
LINE
8
BLACK
6
CONTINUOUS
10
0.0097322834645669
20
0.1584645669291339
11
0.0100460236220472
21
0.1611687007874016
0
LINE
8
BLACK
6
CONTINUOUS
10
0.0100460236220472
20
0.1611687007874016
11
0.0117992519685039
21
0.1651394094488189
0
LINE
8
BLACK
6
CONTINUOUS
10
0.0117992519685039
20
0.1651394094488189
11
0.0148684645669291
21
0.1682086220472441
0
LINE
8
BLACK
6
CONTINUOUS
10
0.0148684645669291
20
0.1682086220472441
11
0.0188391732283465
21
0.1699618503937008
0
LINE
8
BLACK
6
CONTINUOUS
10
0.0188391732283465
20
0.1699618503937008
11
0.0215433070866142
21
0.1702755905511811
0
LINE
8
BLACK
6
CONTINUOUS
10
0.0215433070866142
20
0.1702755905511811
11
0.1081574803149606
21
0.1702755905511811
0
LINE
8
BLACK
6
CONTINUOUS
10
0.1081574803149606
20
0.1702755905511811
11
0.1108616141732283
21
0.1699618503937008
0
LINE
8
BLACK
6
CONTINUOUS
10
0.221406968503937
20
0.2346368503937008
11
0.2239614566929134
21
0.2329299606299212
0
LINE
8
BLACK
6
CONTINUOUS
10
0.2239614566929134
20
0.2329299606299212
11
0.2256683464566929
21
0.2303754724409449
0
LINE
8
BLACK
6
CONTINUOUS
10
0.2256683464566929
20
0.2303754724409449
11
0.2262677165354331
21
0.2273622047244094
0
LINE
8
BLACK
6
CONTINUOUS
10
0.2262677165354331
20
0.2273622047244094
11
0.2262677165354331
21
0.2155511811023622
0
LINE
8
BLACK
6
CONTINUOUS
10
0.2262677165354331
20
0.2155511811023622
11
0.2256683464566929
21
0.2125379133858268
0
LINE
8
BLACK
6
CONTINUOUS
10
0.2256683464566929
20
0.2125379133858268
11
0.2239614566929134
21
0.2099834251968504
0
LINE
8
BLACK
6
CONTINUOUS
10
0.2239614566929134
20
0.2099834251968504
11
0.221406968503937
21
0.2082765354330709
0
LINE
8
BLACK
6
CONTINUOUS
10
0.221406968503937
20
0.2082765354330709
11
0.2183937007874016
21
0.2076771653543307
0
LINE
8
BLACK
6
CONTINUOUS
10
0.2183937007874016
20
0.2076771653543307
11
0.1632755905511811
21
0.2076771653543307
0
LINE
8
BLACK
6
CONTINUOUS
10
0.1632755905511811
20
0.2076771653543307
11
0.1602623228346457
21
0.2082765354330709
0
LINE
8
BLACK
6
CONTINUOUS
10
0.1602623228346457
20
0.2082765354330709
11
0.1577078346456693
21
0.2099834251968504
0
LINE
8
BLACK
6
CONTINUOUS
10
0.1577078346456693
20
0.2099834251968504
11
0.1560009448818898
21
0.2125379133858268
0
LINE
8
BLACK
6
CONTINUOUS
10
0.1560009448818898
20
0.2125379133858268
11
0.1554015748031496
21
0.2155511811023622
0
LINE
8
BLACK
6
CONTINUOUS
10
0.1554015748031496
20
0.2155511811023622
11
0.1554015748031496
21
0.2273622047244094
0
LINE
8
BLACK
6
CONTINUOUS
10
0.1554015748031496
20
0.2273622047244094
11
0.1560009448818898
21
0.2303754724409449
0
LINE
8
BLACK
6
CONTINUOUS
10
0.1560009448818898
20
0.2303754724409449
11
0.1577078346456693
21
0.2329299606299212
0
LINE
8
BLACK
6
CONTINUOUS
10
0.1577078346456693
20
0.2329299606299212
11
0.1602623228346457
21
0.2346368503937008
0
LINE
8
BLACK
6
CONTINUOUS
10
0.1602623228346457
20
0.2346368503937008
11
0.1632755905511811
21
0.2352362204724409
0
LINE
8
BLACK
6
CONTINUOUS
10
0.1632755905511811
20
0.2352362204724409
11
0.2183937007874016
21
0.2352362204724409
0
LINE
8
BLACK
6
CONTINUOUS
10
0.2183937007874016
20
0.2352362204724409
11
0.221406968503937
21
0.2346368503937008
0
LINE
8
BLACK
6
CONTINUOUS
10
0.221406968503937
20
0.2838494488188976
11
0.2239614566929134
21
0.2821425590551181
0
LINE
8
BLACK
6
CONTINUOUS
10
0.2239614566929134
20
0.2821425590551181
11
0.2256683464566929
21
0.2795880708661417
0
LINE
8
BLACK
6
CONTINUOUS
10
0.2256683464566929
20
0.2795880708661417
11
0.2262677165354331
21
0.2765748031496063
0
LINE
8
BLACK
6
CONTINUOUS
10
0.2262677165354331
20
0.2765748031496063
11
0.2262677165354331
21
0.264763779527559
0
LINE
8
BLACK
6
CONTINUOUS
10
0.2262677165354331
20
0.264763779527559
11
0.2256683464566929
21
0.2617505118110236
0
LINE
8
BLACK
6
CONTINUOUS
10
0.2256683464566929
20
0.2617505118110236
11
0.2239614566929134
21
0.2591960236220472
0
LINE
8
BLACK
6
CONTINUOUS
10
0.2239614566929134
20
0.2591960236220472
11
0.221406968503937
21
0.2574891338582677
0
LINE
8
BLACK
6
CONTINUOUS
10
0.221406968503937
20
0.2574891338582677
11
0.2183937007874016
21
0.2568897637795275
0
LINE
8
BLACK
6
CONTINUOUS
10
0.2183937007874016
20
0.2568897637795275
11
0.1632755905511811
21
0.2568897637795275
0
LINE
8
BLACK
6
CONTINUOUS
10
0.1632755905511811
20
0.2568897637795275
11
0.1602623228346457
21
0.2574891338582677
0
LINE
8
BLACK
6
CONTINUOUS
10
0.1602623228346457
20
0.2574891338582677
11
0.1577078346456693
21
0.2591960236220472
0
LINE
8
BLACK
6
CONTINUOUS
10
0.1577078346456693
20
0.2591960236220472
11
0.1560009448818898
21
0.2617505118110236
0
LINE
8
BLACK
6
CONTINUOUS
10
0.1560009448818898
20
0.2617505118110236
11
0.1554015748031496
21
0.264763779527559
0
LINE
8
BLACK
6
CONTINUOUS
10
0.1554015748031496
20
0.264763779527559
11
0.1554015748031496
21
0.2765748031496063
0
LINE
8
BLACK
6
CONTINUOUS
10
0.1554015748031496
20
0.2765748031496063
11
0.1560009448818898
21
0.2795880708661417
0
LINE
8
BLACK
6
CONTINUOUS
10
0.1560009448818898
20
0.2795880708661417
11
0.1577078346456693
21
0.2821425590551181
0
LINE
8
BLACK
6
CONTINUOUS
10
0.1577078346456693
20
0.2821425590551181
11
0.1602623228346457
21
0.2838494488188976
0
LINE
8
BLACK
6
CONTINUOUS
10
0.1602623228346457
20
0.2838494488188976
11
0.1632755905511811
21
0.2844488188976378
0
LINE
8
BLACK
6
CONTINUOUS
10
0.1632755905511811
20
0.2844488188976378
11
0.2183937007874016
21
0.2844488188976378
0
LINE
8
BLACK
6
CONTINUOUS
10
0.2183937007874016
20
0.2844488188976378
11
0.221406968503937
21
0.2838494488188976
0
LINE
8
BLACK
6
CONTINUOUS
10
0.221406968503937
20
0.3330620472440945
11
0.2239614566929134
21
0.331355157480315
0
LINE
8
BLACK
6
CONTINUOUS
10
0.2239614566929134
20
0.331355157480315
11
0.2256683464566929
21
0.3288006692913386
0
LINE
8
BLACK
6
CONTINUOUS
10
0.2256683464566929
20
0.3288006692913386
11
0.2262677165354331
21
0.3257874015748031
0
LINE
8
BLACK
6
CONTINUOUS
10
0.2262677165354331
20
0.3257874015748031
11
0.2262677165354331
21
0.3139763779527559
0
LINE
8
BLACK
6
CONTINUOUS
10
0.2262677165354331
20
0.3139763779527559
11
0.2256683464566929
21
0.3109631102362205
0
LINE
8
BLACK
6
CONTINUOUS
10
0.2256683464566929
20
0.3109631102362205
11
0.2239614566929134
21
0.3084086220472441
0
LINE
8
BLACK
6
CONTINUOUS
10
0.2239614566929134
20
0.3084086220472441
11
0.221406968503937
21
0.3067017322834645
0
LINE
8
BLACK
6
CONTINUOUS
10
0.221406968503937
20
0.3067017322834645
11
0.2183937007874016
21
0.3061023622047244
0
LINE
8
BLACK
6
CONTINUOUS
10
0.2183937007874016
20
0.3061023622047244
11
0.1632755905511811
21
0.3061023622047244
0
LINE
8
BLACK
6
CONTINUOUS
10
0.1632755905511811
20
0.3061023622047244
11
0.1602623228346457
21
0.3067017322834645
0
LINE
8
BLACK
6
CONTINUOUS
10
0.1602623228346457
20
0.3067017322834645
11
0.1577078346456693
21
0.3084086220472441
0
LINE
8
BLACK
6
CONTINUOUS
10
0.1577078346456693
20
0.3084086220472441
11
0.1560009448818898
21
0.3109631102362205
0
LINE
8
BLACK
6
CONTINUOUS
10
0.1560009448818898
20
0.3109631102362205
11
0.1554015748031496
21
0.3139763779527559
0
LINE
8
BLACK
6
CONTINUOUS
10
0.1554015748031496
20
0.3139763779527559
11
0.1554015748031496
21
0.3257874015748031
0
LINE
8
BLACK
6
CONTINUOUS
10
0.1554015748031496
20
0.3257874015748031
11
0.1560009448818898
21
0.3288006692913386
0
LINE
8
BLACK
6
CONTINUOUS
10
0.1560009448818898
20
0.3288006692913386
11
0.1577078346456693
21
0.331355157480315
0
LINE
8
BLACK
6
CONTINUOUS
10
0.1577078346456693
20
0.331355157480315
11
0.1602623228346457
21
0.3330620472440945
0
LINE
8
BLACK
6
CONTINUOUS
10
0.1602623228346457
20
0.3330620472440945
11
0.1632755905511811
21
0.3336614173228347
0
LINE
8
BLACK
6
CONTINUOUS
10
0.1632755905511811
20
0.3336614173228347
11
0.2183937007874016
21
0.3336614173228347
0
LINE
8
BLACK
6
CONTINUOUS
10
0.2183937007874016
20
0.3336614173228347
11
0.221406968503937
21
0.3330620472440945
0
LINE
8
BLACK
6
CONTINUOUS
10
0.221406968503937
20
0.3822746456692913
11
0.2239614566929134
21
0.3805677559055118
0
LINE
8
BLACK
6
CONTINUOUS
10
0.2239614566929134
20
0.3805677559055118
11
0.2256683464566929
21
0.3780132677165354
0
LINE
8
BLACK
6
CONTINUOUS
10
0.2256683464566929
20
0.3780132677165354
11
0.2262677165354331
21
0.375
0
LINE
8
BLACK
6
CONTINUOUS
10
0.2262677165354331
20
0.375
11
0.2262677165354331
21
0.3631889763779527
0
LINE
8
BLACK
6
CONTINUOUS
10
0.2262677165354331
20
0.3631889763779527
11
0.2256683464566929
21
0.3601757086614173
0
LINE
8
BLACK
6
CONTINUOUS
10
0.2256683464566929
20
0.3601757086614173
11
0.2239614566929134
21
0.3576212204724409
0
LINE
8
BLACK
6
CONTINUOUS
10
0.2239614566929134
20
0.3576212204724409
11
0.221406968503937
21
0.3559143307086614
0
LINE
8
BLACK
6
CONTINUOUS
10
0.221406968503937
20
0.3559143307086614
11
0.2183937007874016
21
0.3553149606299212
0
LINE
8
BLACK
6
CONTINUOUS
10
0.2183937007874016
20
0.3553149606299212
11
0.1632755905511811
21
0.3553149606299212
0
LINE
8
BLACK
6
CONTINUOUS
10
0.1632755905511811
20
0.3553149606299212
11
0.1602623228346457
21
0.3559143307086614
0
LINE
8
BLACK
6
CONTINUOUS
10
0.1602623228346457
20
0.3559143307086614
11
0.1577078346456693
21
0.3576212204724409
0
LINE
8
BLACK
6
CONTINUOUS
10
0.1577078346456693
20
0.3576212204724409
11
0.1560009448818898
21
0.3601757086614173
0
LINE
8
BLACK
6
CONTINUOUS
10
0.1560009448818898
20
0.3601757086614173
11
0.1554015748031496
21
0.3631889763779527
0
LINE
8
BLACK
6
CONTINUOUS
10
0.1554015748031496
20
0.3631889763779527
11
0.1554015748031496
21
0.375
0
LINE
8
BLACK
6
CONTINUOUS
10
0.1554015748031496
20
0.375
11
0.1560009448818898
21
0.3780132677165354
0
LINE
8
BLACK
6
CONTINUOUS
10
0.1560009448818898
20
0.3780132677165354
11
0.1577078346456693
21
0.3805677559055118
0
LINE
8
BLACK
6
CONTINUOUS
10
0.1577078346456693
20
0.3805677559055118
11
0.1602623228346457
21
0.3822746456692913
0
LINE
8
BLACK
6
CONTINUOUS
10
0.1602623228346457
20
0.3822746456692913
11
0.1632755905511811
21
0.3828740157480315
0
LINE
8
BLACK
6
CONTINUOUS
10
0.1632755905511811
20
0.3828740157480315
11
0.2183937007874016
21
0.3828740157480315
0
LINE
8
BLACK
6
CONTINUOUS
10
0.2183937007874016
20
0.3828740157480315
11
0.221406968503937
21
0.3822746456692913
0
LINE
8
BLACK
6
CONTINUOUS
10
0.1108616141732283
20
0.463268937007874
11
0.1148323228346457
21
0.4615157086614173
0
LINE
8
BLACK
6
CONTINUOUS
10
0.1148323228346457
20
0.4615157086614173
11
0.1179015354330709
21
0.4584464960629921
0
LINE
8
BLACK
6
CONTINUOUS
10
0.1179015354330709
20
0.4584464960629921
11
0.1196547637795276
21
0.4544757874015748
0
LINE
8
BLACK
6
CONTINUOUS
10
0.1196547637795276
20
0.4544757874015748
11
0.1199685039370079
21
0.4517716535433071
0
LINE
8
BLACK
6
CONTINUOUS
10
0.1199685039370079
20
0.4517716535433071
11
0.1199685039370079
21
0.4320866141732284
0
LINE
8
BLACK
6
CONTINUOUS
10
0.1199685039370079
20
0.4320866141732284
11
0.1196547637795276
21
0.4293824803149606
0
LINE
8
BLACK
6
CONTINUOUS
10
0.1196547637795276
20
0.4293824803149606
11
0.1179015354330709
21
0.4254117716535433
0
LINE
8
BLACK
6
CONTINUOUS
10
0.1179015354330709
20
0.4254117716535433
11
0.1148323228346457
21
0.4223425590551181
0
LINE
8
BLACK
6
CONTINUOUS
10
0.1148323228346457
20
0.4223425590551181
11
0.1108616141732283
21
0.4205893307086614
0
LINE
8
BLACK
6
CONTINUOUS
10
0.1108616141732283
20
0.4205893307086614
11
0.1081574803149606
21
0.4202755905511811
0
LINE
8
BLACK
6
CONTINUOUS
10
0.1081574803149606
20
0.4202755905511811
11
0.0215433070866142
21
0.4202755905511811
0
LINE
8
BLACK
6
CONTINUOUS
10
0.0215433070866142
20
0.4202755905511811
11
0.0188391732283465
21
0.4205893307086614
0
LINE
8
BLACK
6
CONTINUOUS
10
0.0188391732283465
20
0.4205893307086614
11
0.0148684645669291
21
0.4223425590551181
0
LINE
8
BLACK
6
CONTINUOUS
10
0.0148684645669291
20
0.4223425590551181
11
0.0117992519685039
21
0.4254117716535433
0
LINE
8
BLACK
6
CONTINUOUS
10
0.0117992519685039
20
0.4254117716535433
11
0.0100460236220472
21
0.4293824803149606
0
LINE
8
BLACK
6
CONTINUOUS
10
0.0100460236220472
20
0.4293824803149606
11
0.0097322834645669
21
0.4320866141732284
0
LINE
8
BLACK
6
CONTINUOUS
10
0.0097322834645669
20
0.4320866141732284
11
0.0097322834645669
21
0.4517716535433071
0
LINE
8
BLACK
6
CONTINUOUS
10
0.0097322834645669
20
0.4517716535433071
11
0.0100460236220472
21
0.4544757874015748
0
LINE
8
BLACK
6
CONTINUOUS
10
0.0100460236220472
20
0.4544757874015748
11
0.0117992519685039
21
0.4584464960629921
0
LINE
8
BLACK
6
CONTINUOUS
10
0.0117992519685039
20
0.4584464960629921
11
0.0148684645669291
21
0.4615157086614173
0
LINE
8
BLACK
6
CONTINUOUS
10
0.0148684645669291
20
0.4615157086614173
11
0.0188391732283465
21
0.463268937007874
0
LINE
8
BLACK
6
CONTINUOUS
10
0.0188391732283465
20
0.463268937007874
11
0.0215433070866142
21
0.4635826771653543
0
LINE
8
BLACK
6
CONTINUOUS
10
0.0215433070866142
20
0.4635826771653543
11
0.1081574803149606
21
0.4635826771653543
0
LINE
8
BLACK
6
CONTINUOUS
10
0.1081574803149606
20
0.4635826771653543
11
0.1108616141732283
21
0.463268937007874
0
LINE
8
BLACK
6
CONTINUOUS
10
0.1129223622047244
20
0.6477992125984252
11
0.1221473622047244
21
0.6446322834645669
0
LINE
8
BLACK
6
CONTINUOUS
10
0.1221473622047244
20
0.6446322834645669
11
0.1307252755905512
21
0.639990157480315
0
LINE
8
BLACK
6
CONTINUOUS
10
0.1307252755905512
20
0.639990157480315
11
0.138422125984252
21
0.6339994488188976
0
LINE
8
BLACK
6
CONTINUOUS
10
0.138422125984252
20
0.6339994488188976
11
0.1450279921259842
21
0.6268235826771653
0
LINE
8
BLACK
6
CONTINUOUS
10
0.1450279921259842
20
0.6268235826771653
11
0.1503626377952756
21
0.6186583070866142
0
LINE
8
BLACK
6
CONTINUOUS
10
0.1503626377952756
20
0.6186583070866142
11
0.1542805511811024
21
0.6097263385826771
0
LINE
8
BLACK
6
CONTINUOUS
10
0.1542805511811024
20
0.6097263385826771
11
0.1566748818897638
21
0.6002713385826771
0
LINE
8
BLACK
6
CONTINUOUS
10
0.1566748818897638
20
0.6002713385826771
11
0.1574803149606299
21
0.5905511811023622
0
LINE
8
BLACK
6
CONTINUOUS
10
0.1574803149606299
20
0.5905511811023622
11
0.1566748818897638
21
0.5808310236220472
0
LINE
8
BLACK
6
CONTINUOUS
10
0.1566748818897638
20
0.5808310236220472
11
0.1542805511811024
21
0.5713760236220472
0
LINE
8
BLACK
6
CONTINUOUS
10
0.1542805511811024
20
0.5713760236220472
11
0.1503626377952756
21
0.5624440551181102
0
LINE
8
BLACK
6
CONTINUOUS
10
0.1503626377952756
20
0.5624440551181102
11
0.1450279921259842
21
0.554278779527559
0
LINE
8
BLACK
6
CONTINUOUS
10
0.1450279921259842
20
0.554278779527559
11
0.138422125984252
21
0.5471029133858267
0
LINE
8
BLACK
6
CONTINUOUS
10
0.138422125984252
20
0.5471029133858267
11
0.1307252755905512
21
0.5411122047244095
0
LINE
8
BLACK
6
CONTINUOUS
10
0.1307252755905512
20
0.5411122047244095
11
0.1221473622047244
21
0.5364700787401575
0
LINE
8
BLACK
6
CONTINUOUS
10
0.1221473622047244
20
0.5364700787401575
11
0.1129223622047244
21
0.5333031496062992
0
LINE
8
BLACK
6
CONTINUOUS
10
0.1129223622047244
20
0.5333031496062992
11
0.1033019291338583
21
0.5316977559055118
0
LINE
8
BLACK
6
CONTINUOUS
10
0.1033019291338583
20
0.5316977559055118
11
0.0935484645669291
21
0.5316977559055118
0
LINE
8
BLACK
6
CONTINUOUS
10
0.0935484645669291
20
0.5316977559055118
11
0.083928031496063
21
0.5333031496062992
0
LINE
8
BLACK
6
CONTINUOUS
10
0.083928031496063
20
0.5333031496062992
11
0.074703031496063
21
0.5364700787401575
0
LINE
8
BLACK
6
CONTINUOUS
10
0.074703031496063
20
0.5364700787401575
11
0.0661251181102362
21
0.5411122047244095
0
LINE
8
BLACK
6
CONTINUOUS
10
0.0661251181102362
20
0.5411122047244095
11
0.0584282677165354
21
0.5471029133858267
0
LINE
8
BLACK
6
CONTINUOUS
10
0.0584282677165354
20
0.5471029133858267
11
0.0518224015748031
21
0.554278779527559
0
LINE
8
BLACK
6
CONTINUOUS
10
0.0518224015748031
20
0.554278779527559
11
0.0464877559055118
21
0.5624440551181102
0
LINE
8
BLACK
6
CONTINUOUS
10
0.0464877559055118
20
0.5624440551181102
11
0.042569842519685
21
0.5713760236220472
0
LINE
8
BLACK
6
CONTINUOUS
10
0.042569842519685
20
0.5713760236220472
11
0.0401755118110236
21
0.5808310236220472
0
LINE
8
BLACK
6
CONTINUOUS
10
0.0401755118110236
20
0.5808310236220472
11
0.0393700787401575
21
0.5905511811023622
0
LINE
8
BLACK
6
CONTINUOUS
10
0.0393700787401575
20
0.5905511811023622
11
0.0401755118110236
21
0.6002713385826771
0
LINE
8
BLACK
6
CONTINUOUS
10
0.0401755118110236
20
0.6002713385826771
11
0.042569842519685
21
0.6097263385826771
0
LINE
8
BLACK
6
CONTINUOUS
10
0.042569842519685
20
0.6097263385826771
11
0.0464877559055118
21
0.6186583070866142
0
LINE
8
BLACK
6
CONTINUOUS
10
0.0464877559055118
20
0.6186583070866142
11
0.0518224015748031
21
0.6268235826771653
0
LINE
8
BLACK
6
CONTINUOUS
10
0.0518224015748031
20
0.6268235826771653
11
0.0584282677165354
21
0.6339994488188976
0
LINE
8
BLACK
6
CONTINUOUS
10
0.0584282677165354
20
0.6339994488188976
11
0.0661251181102362
21
0.639990157480315
0
LINE
8
BLACK
6
CONTINUOUS
10
0.0661251181102362
20
0.639990157480315
11
0.074703031496063
21
0.6446322834645669
0
LINE
8
BLACK
6
CONTINUOUS
10
0.074703031496063
20
0.6446322834645669
11
0.083928031496063
21
0.6477992125984252
0
LINE
8
BLACK
6
CONTINUOUS
10
0.083928031496063
20
0.6477992125984252
11
0.0935484645669291
21
0.6494046062992126
0
LINE
8
BLACK
6
CONTINUOUS
10
0.0935484645669291
20
0.6494046062992126
11
0.1033019291338583
21
0.6494046062992126
0
LINE
8
BLACK
6
CONTINUOUS
10
0.1033019291338583
20
0.6494046062992126
11
0.1129223622047244
21
0.6477992125984252
0
LINE
8
BLACK
6
CONTINUOUS
10
0.5066231496062992
20
0.6477992125984252
11
0.5158481496062992
21
0.6446322834645669
0
LINE
8
BLACK
6
CONTINUOUS
10
0.5158481496062992
20
0.6446322834645669
11
0.524426062992126
21
0.639990157480315
0
LINE
8
BLACK
6
CONTINUOUS
10
0.524426062992126
20
0.639990157480315
11
0.5321229133858267
21
0.6339994488188976
0
LINE
8
BLACK
6
CONTINUOUS
10
0.5321229133858267
20
0.6339994488188976
11
0.538728779527559
21
0.6268235826771653
0
LINE
8
BLACK
6
CONTINUOUS
10
0.538728779527559
20
0.6268235826771653
11
0.5440634251968504
21
0.6186583070866142
0
LINE
8
BLACK
6
CONTINUOUS
10
0.5440634251968504
20
0.6186583070866142
11
0.5479813385826772
21
0.6097263385826771
0
LINE
8
BLACK
6
CONTINUOUS
10
0.5479813385826772
20
0.6097263385826771
11
0.5503756692913385
21
0.6002713385826771
0
LINE
8
BLACK
6
CONTINUOUS
10
0.5503756692913385
20
0.6002713385826771
11
0.5511811023622047
21
0.5905511811023622
0
LINE
8
BLACK
6
CONTINUOUS
10
0.5511811023622047
20
0.5905511811023622
11
0.5503756692913385
21
0.5808310236220472
0
LINE
8
BLACK
6
CONTINUOUS
10
0.5503756692913385
20
0.5808310236220472
11
0.5479813385826772
21
0.5713760236220472
0
LINE
8
BLACK
6
CONTINUOUS
10
0.5479813385826772
20
0.5713760236220472
11
0.5440634251968504
21
0.5624440551181102
0
LINE
8
BLACK
6
CONTINUOUS
10
0.5440634251968504
20
0.5624440551181102
11
0.538728779527559
21
0.554278779527559
0
LINE
8
BLACK
6
CONTINUOUS
10
0.538728779527559
20
0.554278779527559
11
0.5321229133858267
21
0.5471029133858267
0
LINE
8
BLACK
6
CONTINUOUS
10
0.5321229133858267
20
0.5471029133858267
11
0.524426062992126
21
0.5411122047244095
0
LINE
8
BLACK
6
CONTINUOUS
10
0.524426062992126
20
0.5411122047244095
11
0.5158481496062992
21
0.5364700787401575
0
LINE
8
BLACK
6
CONTINUOUS
10
0.5158481496062992
20
0.5364700787401575
11
0.5066231496062992
21
0.5333031496062992
0
LINE
8
BLACK
6
CONTINUOUS
10
0.5066231496062992
20
0.5333031496062992
11
0.497002716535433
21
0.5316977559055118
0
LINE
8
BLACK
6
CONTINUOUS
10
0.497002716535433
20
0.5316977559055118
11
0.4872492519685039
21
0.5316977559055118
0
LINE
8
BLACK
6
CONTINUOUS
10
0.4872492519685039
20
0.5316977559055118
11
0.4776288188976378
21
0.5333031496062992
0
LINE
8
BLACK
6
CONTINUOUS
10
0.4776288188976378
20
0.5333031496062992
11
0.4684038188976378
21
0.5364700787401575
0
LINE
8
BLACK
6
CONTINUOUS
10
0.4684038188976378
20
0.5364700787401575
11
0.459825905511811
21
0.5411122047244095
0
LINE
8
BLACK
6
CONTINUOUS
10
0.459825905511811
20
0.5411122047244095
11
0.4521290551181102
21
0.5471029133858267
0
LINE
8
BLACK
6
CONTINUOUS
10
0.4521290551181102
20
0.5471029133858267
11
0.4455231889763779
21
0.554278779527559
0
LINE
8
BLACK
6
CONTINUOUS
10
0.4455231889763779
20
0.554278779527559
11
0.4401885433070866
21
0.5624440551181102
0
LINE
8
BLACK
6
CONTINUOUS
10
0.4401885433070866
20
0.5624440551181102
11
0.4362706299212598
21
0.5713760236220472
0
LINE
8
BLACK
6
CONTINUOUS
10
0.4362706299212598
20
0.5713760236220472
11
0.4338762992125984
21
0.5808310236220472
0
LINE
8
BLACK
6
CONTINUOUS
10
0.4338762992125984
20
0.5808310236220472
11
0.4330708661417323
21
0.5905511811023622
0
LINE
8
BLACK
6
CONTINUOUS
10
0.4330708661417323
20
0.5905511811023622
11
0.4338762992125984
21
0.6002713385826771
0
LINE
8
BLACK
6
CONTINUOUS
10
0.4338762992125984
20
0.6002713385826771
11
0.4362706299212598
21
0.6097263385826771
0
LINE
8
BLACK
6
CONTINUOUS
10
0.4362706299212598
20
0.6097263385826771
11
0.4401885433070866
21
0.6186583070866142
0
LINE
8
BLACK
6
CONTINUOUS
10
0.4401885433070866
20
0.6186583070866142
11
0.4455231889763779
21
0.6268235826771653
0
LINE
8
BLACK
6
CONTINUOUS
10
0.4455231889763779
20
0.6268235826771653
11
0.4521290551181102
21
0.6339994488188976
0
LINE
8
BLACK
6
CONTINUOUS
10
0.4521290551181102
20
0.6339994488188976
11
0.459825905511811
21
0.639990157480315
0
LINE
8
BLACK
6
CONTINUOUS
10
0.459825905511811
20
0.639990157480315
11
0.4684038188976378
21
0.6446322834645669
0
LINE
8
BLACK
6
CONTINUOUS
10
0.4684038188976378
20
0.6446322834645669
11
0.4776288188976378
21
0.6477992125984252
0
LINE
8
BLACK
6
CONTINUOUS
10
0.4776288188976378
20
0.6477992125984252
11
0.4872492519685039
21
0.6494046062992126
0
LINE
8
BLACK
6
CONTINUOUS
10
0.4872492519685039
20
0.6494046062992126
11
0.497002716535433
21
0.6494046062992126
0
LINE
8
BLACK
6
CONTINUOUS
10
0.497002716535433
20
0.6494046062992126
11
0.5066231496062992
21
0.6477992125984252
0
LINE
8
BLACK
6
CONTINUOUS
10
0.9003239370078739
20
0.6477992125984252
11
0.909548937007874
21
0.6446322834645669
0
LINE
8
BLACK
6
CONTINUOUS
10
0.909548937007874
20
0.6446322834645669
11
0.9181268503937008
21
0.639990157480315
0
LINE
8
BLACK
6
CONTINUOUS
10
0.9181268503937008
20
0.639990157480315
11
0.9258237007874015
21
0.6339994488188976
0
LINE
8
BLACK
6
CONTINUOUS
10
0.9258237007874015
20
0.6339994488188976
11
0.9324295669291338
21
0.6268235826771653
0
LINE
8
BLACK
6
CONTINUOUS
10
0.9324295669291338
20
0.6268235826771653
11
0.9377642125984251
21
0.6186583070866142
0
LINE
8
BLACK
6
CONTINUOUS
10
0.9377642125984251
20
0.6186583070866142
11
0.9416821259842519
21
0.6097263385826771
0
LINE
8
BLACK
6
CONTINUOUS
10
0.9416821259842519
20
0.6097263385826771
11
0.9440764566929134
21
0.6002713385826771
0
LINE
8
BLACK
6
CONTINUOUS
10
0.9440764566929134
20
0.6002713385826771
11
0.9448818897637795
21
0.5905511811023622
0
LINE
8
BLACK
6
CONTINUOUS
10
0.9448818897637795
20
0.5905511811023622
11
0.9440764566929134
21
0.5808310236220472
0
LINE
8
BLACK
6
CONTINUOUS
10
0.9440764566929134
20
0.5808310236220472
11
0.9416821259842519
21
0.5713760236220472
0
LINE
8
BLACK
6
CONTINUOUS
10
0.9416821259842519
20
0.5713760236220472
11
0.9377642125984251
21
0.5624440551181102
0
LINE
8
BLACK
6
CONTINUOUS
10
0.9377642125984251
20
0.5624440551181102
11
0.9324295669291338
21
0.554278779527559
0
LINE
8
BLACK
6
CONTINUOUS
10
0.9324295669291338
20
0.554278779527559
11
0.9258237007874015
21
0.5471029133858267
0
LINE
8
BLACK
6
CONTINUOUS
10
0.9258237007874015
20
0.5471029133858267
11
0.9181268503937008
21
0.5411122047244095
0
LINE
8
BLACK
6
CONTINUOUS
10
0.9181268503937008
20
0.5411122047244095
11
0.909548937007874
21
0.5364700787401575
0
LINE
8
BLACK
6
CONTINUOUS
10
0.909548937007874
20
0.5364700787401575
11
0.9003239370078739
21
0.5333031496062992
0
LINE
8
BLACK
6
CONTINUOUS
10
0.9003239370078739
20
0.5333031496062992
11
0.8907035039370078
21
0.5316977559055118
0
LINE
8
BLACK
6
CONTINUOUS
10
0.8907035039370078
20
0.5316977559055118
11
0.8809500393700788
21
0.5316977559055118
0
LINE
8
BLACK
6
CONTINUOUS
10
0.8809500393700788
20
0.5316977559055118
11
0.8713296062992126
21
0.5333031496062992
0
LINE
8
BLACK
6
CONTINUOUS
10
0.8713296062992126
20
0.5333031496062992
11
0.8621046062992126
21
0.5364700787401575
0
LINE
8
BLACK
6
CONTINUOUS
10
0.8621046062992126
20
0.5364700787401575
11
0.8535266929133858
21
0.5411122047244095
0
LINE
8
BLACK
6
CONTINUOUS
10
0.8535266929133858
20
0.5411122047244095
11
0.8458298425196851
21
0.5471029133858267
0
LINE
8
BLACK
6
CONTINUOUS
10
0.8458298425196851
20
0.5471029133858267
11
0.8392239763779528
21
0.554278779527559
0
LINE
8
BLACK
6
CONTINUOUS
10
0.8392239763779528
20
0.554278779527559
11
0.8338893307086614
21
0.5624440551181102
0
LINE
8
BLACK
6
CONTINUOUS
10
0.8338893307086614
20
0.5624440551181102
11
0.8299714173228346
21
0.5713760236220472
0
LINE
8
BLACK
6
CONTINUOUS
10
0.8299714173228346
20
0.5713760236220472
11
0.8275770866141732
21
0.5808310236220472
0
LINE
8
BLACK
6
CONTINUOUS
10
0.8275770866141732
20
0.5808310236220472
11
0.8267716535433071
21
0.5905511811023622
0
LINE
8
BLACK
6
CONTINUOUS
10
0.8267716535433071
20
0.5905511811023622
11
0.8275770866141732
21
0.6002713385826771
0
LINE
8
BLACK
6
CONTINUOUS
10
0.8275770866141732
20
0.6002713385826771
11
0.8299714173228346
21
0.6097263385826771
0
LINE
8
BLACK
6
CONTINUOUS
10
0.8299714173228346
20
0.6097263385826771
11
0.8338893307086614
21
0.6186583070866142
0
LINE
8
BLACK
6
CONTINUOUS
10
0.8338893307086614
20
0.6186583070866142
11
0.8392239763779528
21
0.6268235826771653
0
LINE
8
BLACK
6
CONTINUOUS
10
0.8392239763779528
20
0.6268235826771653
11
0.8458298425196851
21
0.6339994488188976
0
LINE
8
BLACK
6
CONTINUOUS
10
0.8458298425196851
20
0.6339994488188976
11
0.8535266929133858
21
0.639990157480315
0
LINE
8
BLACK
6
CONTINUOUS
10
0.8535266929133858
20
0.639990157480315
11
0.8621046062992126
21
0.6446322834645669
0
LINE
8
BLACK
6
CONTINUOUS
10
0.8621046062992126
20
0.6446322834645669
11
0.8713296062992126
21
0.6477992125984252
0
LINE
8
BLACK
6
CONTINUOUS
10
0.8713296062992126
20
0.6477992125984252
11
0.8809500393700788
21
0.6494046062992126
0
LINE
8
BLACK
6
CONTINUOUS
10
0.8809500393700788
20
0.6494046062992126
11
0.8907035039370078
21
0.6494046062992126
0
LINE
8
BLACK
6
CONTINUOUS
10
0.8907035039370078
20
0.6494046062992126
11
0.9003239370078739
21
0.6477992125984252
  0
ENDSEC
  0
EOF
