  0
SECTION
  2
HEADER
  9
$ANGBASE
  50
0.0
  9
$ANGDIR
  70
1
  9
$MEASUREMENT
  70
0
  0
ENDSEC
  0
SECTION
  2
TABLES
  0
TABLE
  2
LTYPE
  70
4
  0
LTYPE
  5
40F
  2
CONTINUOUS
  70
0
  3
Solid line
  72
65
  73
0
  40
0.0
  0
LTYPE
  5
410
  2
DASHDOT
 70
0
  3
Dash Dot ____ _ ____ _
 72
65
 73
4
 40
2.0
 49
1.25
 49
-0.25
 49
0.25
 49
-0.25
  0
LTYPE
  5
411
  2
DASHED
 70
0
  3
Dashed __ __ __ __ __
 72
65
 73
2
 40
0.75
 49
0.5
 49
-0.25
  0
LTYPE
  5
43B
  2
DOTTED
 70
0
  3
Dotted .  .  .  .
 72
65
 73
2
 40
0.2
 49
0.0
 49
-0.2
  0
ENDTAB
  0
TABLE
  2
STYLE
  70
4
  0
STYLE
  2
KICAD
  70
0
  40
0
  41
1
  42
1
  50
0
  71
0
  3
isocp.shx
  0
STYLE
  2
KICADB
  70
0
  40
0
  41
1
  42
1
  50
0
  71
0
  3
isocp.shx
  0
STYLE
  2
KICADI
  70
0
  40
0
  41
1
  42
1
  50
15
  71
0
  3
isocp.shx
  0
STYLE
  2
KICADBI
  70
0
  40
0
  41
1
  42
1
  50
15
  71
0
  3
isocp.shx
  0
ENDTAB
  0
TABLE
  2
LAYER
  70
1
  0
LAYER
  2
BLACK
  70
0
  62
7
  6
CONTINUOUS
  0
ENDTAB
  0
ENDSEC
  0
SECTION
  2
ENTITIES
0
LINE
8
BLACK
6
CONTINUOUS
10
0.2548664173228347
20
0.3849772834645669
11
0.2592564566929134
21
0.3827404330708661
0
LINE
8
BLACK
6
CONTINUOUS
10
0.2592564566929134
20
0.3827404330708661
11
0.2627404330708661
21
0.3792564566929134
0
LINE
8
BLACK
6
CONTINUOUS
10
0.2627404330708661
20
0.3792564566929134
11
0.2649772834645669
21
0.3748664173228347
0
LINE
8
BLACK
6
CONTINUOUS
10
0.2649772834645669
20
0.3748664173228347
11
0.265748031496063
21
0.37
0
LINE
8
BLACK
6
CONTINUOUS
10
0.265748031496063
20
0.37
11
0.2649772834645669
21
0.3651335826771653
0
LINE
8
BLACK
6
CONTINUOUS
10
0.2649772834645669
20
0.3651335826771653
11
0.2627404330708661
21
0.3607435433070866
0
LINE
8
BLACK
6
CONTINUOUS
10
0.2627404330708661
20
0.3607435433070866
11
0.2592564566929134
21
0.3572595669291339
0
LINE
8
BLACK
6
CONTINUOUS
10
0.2592564566929134
20
0.3572595669291339
11
0.2548664173228347
21
0.355022716535433
0
LINE
8
BLACK
6
CONTINUOUS
10
0.2548664173228347
20
0.355022716535433
11
0.25
21
0.354251968503937
0
LINE
8
BLACK
6
CONTINUOUS
10
0.25
20
0.354251968503937
11
0.2451335826771653
21
0.355022716535433
0
LINE
8
BLACK
6
CONTINUOUS
10
0.2451335826771653
20
0.355022716535433
11
0.2407435433070866
21
0.3572595669291339
0
LINE
8
BLACK
6
CONTINUOUS
10
0.2407435433070866
20
0.3572595669291339
11
0.2372595669291339
21
0.3607435433070866
0
LINE
8
BLACK
6
CONTINUOUS
10
0.2372595669291339
20
0.3607435433070866
11
0.2370165748031496
21
0.3612204724409449
0
LINE
8
BLACK
6
CONTINUOUS
10
0.2370165748031496
20
0.3612204724409449
11
0.2239076771653543
21
0.3612204724409449
0
LINE
8
BLACK
6
CONTINUOUS
10
0.2239076771653543
20
0.3612204724409449
11
0.2238496850393701
21
0.3609290157480315
0
LINE
8
BLACK
6
CONTINUOUS
10
0.2238496850393701
20
0.3609290157480315
11
0.2225695275590551
21
0.3590131496062992
0
LINE
8
BLACK
6
CONTINUOUS
10
0.2225695275590551
20
0.3590131496062992
11
0.2206536614173228
21
0.3577329921259843
0
LINE
8
BLACK
6
CONTINUOUS
10
0.2206536614173228
20
0.3577329921259843
11
0.2183937007874016
21
0.3572834645669291
0
LINE
8
BLACK
6
CONTINUOUS
10
0.2183937007874016
20
0.3572834645669291
11
0.1632755905511811
21
0.3572834645669291
0
LINE
8
BLACK
6
CONTINUOUS
10
0.1632755905511811
20
0.3572834645669291
11
0.1610156299212598
21
0.3577329921259843
0
LINE
8
BLACK
6
CONTINUOUS
10
0.1610156299212598
20
0.3577329921259843
11
0.1590997637795276
21
0.3590131496062992
0
LINE
8
BLACK
6
CONTINUOUS
10
0.1590997637795276
20
0.3590131496062992
11
0.1589401968503937
21
0.359251968503937
0
LINE
8
BLACK
6
CONTINUOUS
10
0.1589401968503937
20
0.359251968503937
11
0.1231714566929134
21
0.359251968503937
0
LINE
8
BLACK
6
CONTINUOUS
10
0.1231714566929134
20
0.359251968503937
11
0.0798425196850394
21
0.315923031496063
0
LINE
8
BLACK
6
CONTINUOUS
10
0.0798425196850394
20
0.315923031496063
11
0.0798425196850394
21
0.2740769291338583
0
LINE
8
BLACK
6
CONTINUOUS
10
0.0798425196850394
20
0.2740769291338583
11
0.0984214173228346
21
0.255498031496063
0
LINE
8
BLACK
6
CONTINUOUS
10
0.0984214173228346
20
0.255498031496063
11
0.1
21
0.255748031496063
0
LINE
8
BLACK
6
CONTINUOUS
10
0.1
20
0.255748031496063
11
0.1048664173228346
21
0.2549772834645669
0
LINE
8
BLACK
6
CONTINUOUS
10
0.1048664173228346
20
0.2549772834645669
11
0.1092564566929134
21
0.2527404330708661
0
LINE
8
BLACK
6
CONTINUOUS
10
0.1092564566929134
20
0.2527404330708661
11
0.1127404330708661
21
0.2492564566929134
0
LINE
8
BLACK
6
CONTINUOUS
10
0.1127404330708661
20
0.2492564566929134
11
0.1149772834645669
21
0.2448664173228347
0
LINE
8
BLACK
6
CONTINUOUS
10
0.1149772834645669
20
0.2448664173228347
11
0.115748031496063
21
0.24
0
LINE
8
BLACK
6
CONTINUOUS
10
0.115748031496063
20
0.24
11
0.1149772834645669
21
0.2351335826771654
0
LINE
8
BLACK
6
CONTINUOUS
10
0.1149772834645669
20
0.2351335826771654
11
0.1127404330708661
21
0.2307435433070866
0
LINE
8
BLACK
6
CONTINUOUS
10
0.1127404330708661
20
0.2307435433070866
11
0.1092564566929134
21
0.2272595669291338
0
LINE
8
BLACK
6
CONTINUOUS
10
0.1092564566929134
20
0.2272595669291338
11
0.1048664173228346
21
0.2250227165354331
0
LINE
8
BLACK
6
CONTINUOUS
10
0.1048664173228346
20
0.2250227165354331
11
0.1
21
0.224251968503937
0
LINE
8
BLACK
6
CONTINUOUS
10
0.1
20
0.224251968503937
11
0.0951335826771653
21
0.2250227165354331
0
LINE
8
BLACK
6
CONTINUOUS
10
0.0951335826771653
20
0.2250227165354331
11
0.0907435433070866
21
0.2272595669291338
0
LINE
8
BLACK
6
CONTINUOUS
10
0.0907435433070866
20
0.2272595669291338
11
0.0872595669291338
21
0.2307435433070866
0
LINE
8
BLACK
6
CONTINUOUS
10
0.0872595669291338
20
0.2307435433070866
11
0.0850227165354331
21
0.2351335826771654
0
LINE
8
BLACK
6
CONTINUOUS
10
0.0850227165354331
20
0.2351335826771654
11
0.084251968503937
21
0.24
0
LINE
8
BLACK
6
CONTINUOUS
10
0.084251968503937
20
0.24
11
0.084501968503937
21
0.2415785826771653
0
LINE
8
BLACK
6
CONTINUOUS
10
0.084501968503937
20
0.2415785826771653
11
0.0630402755905512
21
0.2630402755905512
0
LINE
8
BLACK
6
CONTINUOUS
10
0.0630402755905512
20
0.2630402755905512
11
0.0618164173228346
21
0.2645316141732283
0
LINE
8
BLACK
6
CONTINUOUS
10
0.0618164173228346
20
0.2645316141732283
11
0.0618162598425197
21
0.2645317716535433
0
LINE
8
BLACK
6
CONTINUOUS
10
0.0618162598425197
20
0.2645317716535433
11
0.0603466141732283
21
0.2680798031496063
0
LINE
8
BLACK
6
CONTINUOUS
10
0.0603466141732283
20
0.2680798031496063
11
0.0601574803149606
21
0.27
0
LINE
8
BLACK
6
CONTINUOUS
10
0.0601574803149606
20
0.27
11
0.0601574803149606
21
0.3199999606299213
0
LINE
8
BLACK
6
CONTINUOUS
10
0.0601574803149606
20
0.3199999606299213
11
0.0603466141732283
21
0.3219201574803149
0
LINE
8
BLACK
6
CONTINUOUS
10
0.0603466141732283
20
0.3219201574803149
11
0.0618162598425197
21
0.325468188976378
0
LINE
8
BLACK
6
CONTINUOUS
10
0.0618162598425197
20
0.325468188976378
11
0.0618164173228346
21
0.3254683858267716
0
LINE
8
BLACK
6
CONTINUOUS
10
0.0618164173228346
20
0.3254683858267716
11
0.0630402755905512
21
0.3269596850393701
0
LINE
8
BLACK
6
CONTINUOUS
10
0.0630402755905512
20
0.3269596850393701
11
0.1121348031496063
21
0.3760542125984252
0
LINE
8
BLACK
6
CONTINUOUS
10
0.1121348031496063
20
0.3760542125984252
11
0.1136263385826772
21
0.3772782677165354
0
LINE
8
BLACK
6
CONTINUOUS
10
0.1136263385826772
20
0.3772782677165354
11
0.1171743700787402
21
0.3787479133858268
0
LINE
8
BLACK
6
CONTINUOUS
10
0.1171743700787402
20
0.3787479133858268
11
0.1171747244094488
21
0.3787479133858268
0
LINE
8
BLACK
6
CONTINUOUS
10
0.1171747244094488
20
0.3787479133858268
11
0.1190945275590551
21
0.3789370078740157
0
LINE
8
BLACK
6
CONTINUOUS
10
0.1190945275590551
20
0.3789370078740157
11
0.1589401968503937
21
0.3789370078740157
0
LINE
8
BLACK
6
CONTINUOUS
10
0.1589401968503937
20
0.3789370078740157
11
0.1590997637795276
21
0.3791758267716535
0
LINE
8
BLACK
6
CONTINUOUS
10
0.1590997637795276
20
0.3791758267716535
11
0.1610156299212598
21
0.3804559842519685
0
LINE
8
BLACK
6
CONTINUOUS
10
0.1610156299212598
20
0.3804559842519685
11
0.1632755905511811
21
0.3809055118110236
0
LINE
8
BLACK
6
CONTINUOUS
10
0.1632755905511811
20
0.3809055118110236
11
0.2183937007874016
21
0.3809055118110236
0
LINE
8
BLACK
6
CONTINUOUS
10
0.2183937007874016
20
0.3809055118110236
11
0.2206536614173228
21
0.3804559842519685
0
LINE
8
BLACK
6
CONTINUOUS
10
0.2206536614173228
20
0.3804559842519685
11
0.2225695275590551
21
0.3791758267716535
0
LINE
8
BLACK
6
CONTINUOUS
10
0.2225695275590551
20
0.3791758267716535
11
0.2238496850393701
21
0.3772599606299212
0
LINE
8
BLACK
6
CONTINUOUS
10
0.2238496850393701
20
0.3772599606299212
11
0.2239076771653543
21
0.3769685039370079
0
LINE
8
BLACK
6
CONTINUOUS
10
0.2239076771653543
20
0.3769685039370079
11
0.2360937795275591
21
0.3769685039370079
0
LINE
8
BLACK
6
CONTINUOUS
10
0.2360937795275591
20
0.3769685039370079
11
0.2372595669291339
21
0.3792564566929134
0
LINE
8
BLACK
6
CONTINUOUS
10
0.2372595669291339
20
0.3792564566929134
11
0.2407435433070866
21
0.3827404330708661
0
LINE
8
BLACK
6
CONTINUOUS
10
0.2407435433070866
20
0.3827404330708661
11
0.2451335826771653
21
0.3849772834645669
0
LINE
8
BLACK
6
CONTINUOUS
10
0.2451335826771653
20
0.3849772834645669
11
0.25
21
0.385748031496063
0
LINE
8
BLACK
6
CONTINUOUS
10
0.25
20
0.385748031496063
11
0.2548664173228347
21
0.3849772834645669
0
LINE
8
BLACK
6
CONTINUOUS
10
0.1366161417322835
20
0.349400905511811
11
0.1410061811023622
21
0.3471640551181102
0
LINE
8
BLACK
6
CONTINUOUS
10
0.1410061811023622
20
0.3471640551181102
11
0.144490157480315
21
0.3436800787401575
0
LINE
8
BLACK
6
CONTINUOUS
10
0.144490157480315
20
0.3436800787401575
11
0.1467270078740157
21
0.3392900393700787
0
LINE
8
BLACK
6
CONTINUOUS
10
0.1467270078740157
20
0.3392900393700787
11
0.1474977559055118
21
0.3344236220472441
0
LINE
8
BLACK
6
CONTINUOUS
10
0.1474977559055118
20
0.3344236220472441
11
0.1467270078740157
21
0.3295572047244094
0
LINE
8
BLACK
6
CONTINUOUS
10
0.1467270078740157
20
0.3295572047244094
11
0.144490157480315
21
0.3251671653543307
0
LINE
8
BLACK
6
CONTINUOUS
10
0.144490157480315
20
0.3251671653543307
11
0.1410061811023622
21
0.3216831889763779
0
LINE
8
BLACK
6
CONTINUOUS
10
0.1410061811023622
20
0.3216831889763779
11
0.1366161417322835
21
0.3194463385826772
0
LINE
8
BLACK
6
CONTINUOUS
10
0.1366161417322835
20
0.3194463385826772
11
0.1317497244094488
21
0.3186755905511811
0
LINE
8
BLACK
6
CONTINUOUS
10
0.1317497244094488
20
0.3186755905511811
11
0.127767874015748
21
0.3193062598425197
0
LINE
8
BLACK
6
CONTINUOUS
10
0.127767874015748
20
0.3193062598425197
11
0.1034645669291339
21
0.2950029527559055
0
LINE
8
BLACK
6
CONTINUOUS
10
0.1034645669291339
20
0.2950029527559055
11
0.1034645669291339
21
0.2922131102362205
0
LINE
8
BLACK
6
CONTINUOUS
10
0.1034645669291339
20
0.2922131102362205
11
0.1289453937007874
21
0.2667322834645669
0
LINE
8
BLACK
6
CONTINUOUS
10
0.1289453937007874
20
0.2667322834645669
11
0.1573700787401575
21
0.2667322834645669
0
LINE
8
BLACK
6
CONTINUOUS
10
0.1573700787401575
20
0.2667322834645669
11
0.1573700787401575
21
0.2765748031496063
0
LINE
8
BLACK
6
CONTINUOUS
10
0.1573700787401575
20
0.2765748031496063
11
0.1578196062992126
21
0.2788347637795275
0
LINE
8
BLACK
6
CONTINUOUS
10
0.1578196062992126
20
0.2788347637795275
11
0.1590997637795276
21
0.2807506299212598
0
LINE
8
BLACK
6
CONTINUOUS
10
0.1590997637795276
20
0.2807506299212598
11
0.1610156299212598
21
0.2820307874015748
0
LINE
8
BLACK
6
CONTINUOUS
10
0.1610156299212598
20
0.2820307874015748
11
0.1632755905511811
21
0.2824803149606299
0
LINE
8
BLACK
6
CONTINUOUS
10
0.1632755905511811
20
0.2824803149606299
11
0.2183937007874016
21
0.2824803149606299
0
LINE
8
BLACK
6
CONTINUOUS
10
0.2183937007874016
20
0.2824803149606299
11
0.2206536614173228
21
0.2820307874015748
0
LINE
8
BLACK
6
CONTINUOUS
10
0.2206536614173228
20
0.2820307874015748
11
0.2225695275590551
21
0.2807506299212598
0
LINE
8
BLACK
6
CONTINUOUS
10
0.2225695275590551
20
0.2807506299212598
11
0.2238496850393701
21
0.2788347637795275
0
LINE
8
BLACK
6
CONTINUOUS
10
0.2238496850393701
20
0.2788347637795275
11
0.2242992125984252
21
0.2765748031496063
0
LINE
8
BLACK
6
CONTINUOUS
10
0.2242992125984252
20
0.2765748031496063
11
0.2242992125984252
21
0.264763779527559
0
LINE
8
BLACK
6
CONTINUOUS
10
0.2242992125984252
20
0.264763779527559
11
0.2238496850393701
21
0.2625038188976378
0
LINE
8
BLACK
6
CONTINUOUS
10
0.2238496850393701
20
0.2625038188976378
11
0.2225695275590551
21
0.2605879527559055
0
LINE
8
BLACK
6
CONTINUOUS
10
0.2225695275590551
20
0.2605879527559055
11
0.2206536614173228
21
0.2593077952755906
0
LINE
8
BLACK
6
CONTINUOUS
10
0.2206536614173228
20
0.2593077952755906
11
0.2183937007874016
21
0.2588582677165354
0
LINE
8
BLACK
6
CONTINUOUS
10
0.2183937007874016
20
0.2588582677165354
11
0.1901591338582677
21
0.2588582677165354
0
LINE
8
BLACK
6
CONTINUOUS
10
0.1901591338582677
20
0.2588582677165354
11
0.1845913779527559
21
0.2532905118110236
0
LINE
8
BLACK
6
CONTINUOUS
10
0.1845913779527559
20
0.2532905118110236
11
0.1833981889763779
21
0.2523112598425197
0
LINE
8
BLACK
6
CONTINUOUS
10
0.1833981889763779
20
0.2523112598425197
11
0.1805597637795276
21
0.2511355511811024
0
LINE
8
BLACK
6
CONTINUOUS
10
0.1805597637795276
20
0.2511355511811024
11
0.1790236220472441
21
0.2509842519685039
0
LINE
8
BLACK
6
CONTINUOUS
10
0.1790236220472441
20
0.2509842519685039
11
0.1256838976377953
21
0.2509842519685039
0
LINE
8
BLACK
6
CONTINUOUS
10
0.1256838976377953
20
0.2509842519685039
11
0.1241477559055118
21
0.2511355511811024
0
LINE
8
BLACK
6
CONTINUOUS
10
0.1241477559055118
20
0.2511355511811024
11
0.1213093307086614
21
0.2523112598425197
0
LINE
8
BLACK
6
CONTINUOUS
10
0.1213093307086614
20
0.2523112598425197
11
0.1201161417322835
21
0.2532905118110236
0
LINE
8
BLACK
6
CONTINUOUS
10
0.1201161417322835
20
0.2532905118110236
11
0.0900227952755906
21
0.2833838582677165
0
LINE
8
BLACK
6
CONTINUOUS
10
0.0900227952755906
20
0.2833838582677165
11
0.0890435433070866
21
0.2845770472440945
0
LINE
8
BLACK
6
CONTINUOUS
10
0.0890435433070866
20
0.2845770472440945
11
0.0878678346456693
21
0.2874154724409449
0
LINE
8
BLACK
6
CONTINUOUS
10
0.0878678346456693
20
0.2874154724409449
11
0.0877165354330709
21
0.2889516141732283
0
LINE
8
BLACK
6
CONTINUOUS
10
0.0877165354330709
20
0.2889516141732283
11
0.0877165354330709
21
0.2982644488188976
0
LINE
8
BLACK
6
CONTINUOUS
10
0.0877165354330709
20
0.2982644488188976
11
0.0878678346456693
21
0.2998005905511811
0
LINE
8
BLACK
6
CONTINUOUS
10
0.0878678346456693
20
0.2998005905511811
11
0.0890435433070866
21
0.3026390157480315
0
LINE
8
BLACK
6
CONTINUOUS
10
0.0890435433070866
20
0.3026390157480315
11
0.0900227952755906
21
0.3038322047244094
0
LINE
8
BLACK
6
CONTINUOUS
10
0.0900227952755906
20
0.3038322047244094
11
0.1166323228346457
21
0.330441811023622
0
LINE
8
BLACK
6
CONTINUOUS
10
0.1166323228346457
20
0.330441811023622
11
0.1160016929133858
21
0.3344236220472441
0
LINE
8
BLACK
6
CONTINUOUS
10
0.1160016929133858
20
0.3344236220472441
11
0.1167724409448819
21
0.3392900393700787
0
LINE
8
BLACK
6
CONTINUOUS
10
0.1167724409448819
20
0.3392900393700787
11
0.1190092913385827
21
0.3436800787401575
0
LINE
8
BLACK
6
CONTINUOUS
10
0.1190092913385827
20
0.3436800787401575
11
0.1224932677165354
21
0.3471640551181102
0
LINE
8
BLACK
6
CONTINUOUS
10
0.1224932677165354
20
0.3471640551181102
11
0.1268833070866142
21
0.349400905511811
0
LINE
8
BLACK
6
CONTINUOUS
10
0.1268833070866142
20
0.349400905511811
11
0.1317497244094488
21
0.3501716535433071
0
LINE
8
BLACK
6
CONTINUOUS
10
0.1317497244094488
20
0.3501716535433071
11
0.1366161417322835
21
0.349400905511811
0
LINE
8
BLACK
6
CONTINUOUS
10
0.2206536614173228
20
0.3312433858267717
11
0.2225695275590551
21
0.3299632283464567
0
LINE
8
BLACK
6
CONTINUOUS
10
0.2225695275590551
20
0.3299632283464567
11
0.2238496850393701
21
0.3280473622047244
0
LINE
8
BLACK
6
CONTINUOUS
10
0.2238496850393701
20
0.3280473622047244
11
0.2242992125984252
21
0.3257874015748031
0
LINE
8
BLACK
6
CONTINUOUS
10
0.2242992125984252
20
0.3257874015748031
11
0.2242992125984252
21
0.3139763779527559
0
LINE
8
BLACK
6
CONTINUOUS
10
0.2242992125984252
20
0.3139763779527559
11
0.2238496850393701
21
0.3117164173228346
0
LINE
8
BLACK
6
CONTINUOUS
10
0.2238496850393701
20
0.3117164173228346
11
0.2225695275590551
21
0.3098005511811023
0
LINE
8
BLACK
6
CONTINUOUS
10
0.2225695275590551
20
0.3098005511811023
11
0.2206536614173228
21
0.3085203937007874
0
LINE
8
BLACK
6
CONTINUOUS
10
0.2206536614173228
20
0.3085203937007874
11
0.2183937007874016
21
0.3080708661417323
0
LINE
8
BLACK
6
CONTINUOUS
10
0.2183937007874016
20
0.3080708661417323
11
0.1632755905511811
21
0.3080708661417323
0
LINE
8
BLACK
6
CONTINUOUS
10
0.1632755905511811
20
0.3080708661417323
11
0.1614397637795276
21
0.3084360236220473
0
LINE
8
BLACK
6
CONTINUOUS
10
0.1614397637795276
20
0.3084360236220473
11
0.1505936614173228
21
0.2975899212598425
0
LINE
8
BLACK
6
CONTINUOUS
10
0.1505936614173228
20
0.2975899212598425
11
0.1512243307086614
21
0.293608031496063
0
LINE
8
BLACK
6
CONTINUOUS
10
0.1512243307086614
20
0.293608031496063
11
0.1504535826771654
21
0.2887416141732284
0
LINE
8
BLACK
6
CONTINUOUS
10
0.1504535826771654
20
0.2887416141732284
11
0.1482167322834646
21
0.2843515748031496
0
LINE
8
BLACK
6
CONTINUOUS
10
0.1482167322834646
20
0.2843515748031496
11
0.1447327559055118
21
0.2808675984251968
0
LINE
8
BLACK
6
CONTINUOUS
10
0.1447327559055118
20
0.2808675984251968
11
0.1403427165354331
21
0.2786307480314961
0
LINE
8
BLACK
6
CONTINUOUS
10
0.1403427165354331
20
0.2786307480314961
11
0.1354762992125984
21
0.27786
0
LINE
8
BLACK
6
CONTINUOUS
10
0.1354762992125984
20
0.27786
11
0.1306098818897638
21
0.2786307480314961
0
LINE
8
BLACK
6
CONTINUOUS
10
0.1306098818897638
20
0.2786307480314961
11
0.126219842519685
21
0.2808675984251968
0
LINE
8
BLACK
6
CONTINUOUS
10
0.126219842519685
20
0.2808675984251968
11
0.1227358661417323
21
0.2843515748031496
0
LINE
8
BLACK
6
CONTINUOUS
10
0.1227358661417323
20
0.2843515748031496
11
0.1204990157480315
21
0.2887416141732284
0
LINE
8
BLACK
6
CONTINUOUS
10
0.1204990157480315
20
0.2887416141732284
11
0.1197282677165354
21
0.293608031496063
0
LINE
8
BLACK
6
CONTINUOUS
10
0.1197282677165354
20
0.293608031496063
11
0.1204990157480315
21
0.2984744488188976
0
LINE
8
BLACK
6
CONTINUOUS
10
0.1204990157480315
20
0.2984744488188976
11
0.1227358661417323
21
0.3028644881889764
0
LINE
8
BLACK
6
CONTINUOUS
10
0.1227358661417323
20
0.3028644881889764
11
0.126219842519685
21
0.3063484645669291
0
LINE
8
BLACK
6
CONTINUOUS
10
0.126219842519685
20
0.3063484645669291
11
0.1306098818897638
21
0.3085853149606299
0
LINE
8
BLACK
6
CONTINUOUS
10
0.1306098818897638
20
0.3085853149606299
11
0.1354762992125984
21
0.309356062992126
0
LINE
8
BLACK
6
CONTINUOUS
10
0.1354762992125984
20
0.309356062992126
11
0.1394581496062992
21
0.3087254330708661
0
LINE
8
BLACK
6
CONTINUOUS
10
0.1394581496062992
20
0.3087254330708661
11
0.1561824015748031
21
0.3254496456692914
0
LINE
8
BLACK
6
CONTINUOUS
10
0.1561824015748031
20
0.3254496456692914
11
0.1573755905511811
21
0.3264288976377953
0
LINE
8
BLACK
6
CONTINUOUS
10
0.1573755905511811
20
0.3264288976377953
11
0.1575086220472441
21
0.3264840157480315
0
LINE
8
BLACK
6
CONTINUOUS
10
0.1575086220472441
20
0.3264840157480315
11
0.1578196062992126
21
0.3280473622047244
0
LINE
8
BLACK
6
CONTINUOUS
10
0.1578196062992126
20
0.3280473622047244
11
0.1590997637795276
21
0.3299632283464567
0
LINE
8
BLACK
6
CONTINUOUS
10
0.1590997637795276
20
0.3299632283464567
11
0.1610156299212598
21
0.3312433858267717
0
LINE
8
BLACK
6
CONTINUOUS
10
0.1610156299212598
20
0.3312433858267717
11
0.1632755905511811
21
0.3316929133858267
0
LINE
8
BLACK
6
CONTINUOUS
10
0.1632755905511811
20
0.3316929133858267
11
0.2183937007874016
21
0.3316929133858267
0
LINE
8
BLACK
6
CONTINUOUS
10
0.2183937007874016
20
0.3316929133858267
11
0.2206536614173228
21
0.3312433858267717
0
LINE
8
BLACK
6
CONTINUOUS
10
0.0321092519685039
20
0.5778671653543307
11
0.0328633070866142
21
0.5765611417322835
0
LINE
8
BLACK
6
CONTINUOUS
10
0.0328633070866142
20
0.5765611417322835
11
0.0348933070866142
21
0.5689849606299212
0
LINE
8
BLACK
6
CONTINUOUS
10
0.0348933070866142
20
0.5689849606299212
11
0.0382516141732283
21
0.5608772834645669
0
LINE
8
BLACK
6
CONTINUOUS
10
0.0382516141732283
20
0.5608772834645669
11
0.0382517322834646
21
0.560876968503937
0
LINE
8
BLACK
6
CONTINUOUS
10
0.0382517322834646
20
0.560876968503937
11
0.0426397244094488
21
0.5532767716535433
0
LINE
8
BLACK
6
CONTINUOUS
10
0.0426397244094488
20
0.5532767716535433
11
0.0426398818897638
21
0.5532765354330709
0
LINE
8
BLACK
6
CONTINUOUS
10
0.0426398818897638
20
0.5532765354330709
11
0.0479821653543307
21
0.5463142519685039
0
LINE
8
BLACK
6
CONTINUOUS
10
0.0479821653543307
20
0.5463142519685039
11
0.0541882283464567
21
0.5401081889763779
0
LINE
8
BLACK
6
CONTINUOUS
10
0.0541882283464567
20
0.5401081889763779
11
0.0611505118110236
21
0.534765905511811
0
LINE
8
BLACK
6
CONTINUOUS
10
0.0611505118110236
20
0.534765905511811
11
0.0611506299212598
21
0.5347658267716535
0
LINE
8
BLACK
6
CONTINUOUS
10
0.0611506299212598
20
0.5347658267716535
11
0.0687509448818898
21
0.5303777559055118
0
LINE
8
BLACK
6
CONTINUOUS
10
0.0687509448818898
20
0.5303777559055118
11
0.0768590157480315
21
0.5270192913385827
0
LINE
8
BLACK
6
CONTINUOUS
10
0.0768590157480315
20
0.5270192913385827
11
0.0853361023622047
21
0.5247478740157481
0
LINE
8
BLACK
6
CONTINUOUS
10
0.0853361023622047
20
0.5247478740157481
11
0.094037125984252
21
0.5236023622047244
0
LINE
8
BLACK
6
CONTINUOUS
10
0.094037125984252
20
0.5236023622047244
11
0.0940372047244094
21
0.5236023622047244
0
LINE
8
BLACK
6
CONTINUOUS
10
0.0940372047244094
20
0.5236023622047244
11
0.102813188976378
21
0.5236023622047244
0
LINE
8
BLACK
6
CONTINUOUS
10
0.102813188976378
20
0.5236023622047244
11
0.1028132677165354
21
0.5236023622047244
0
LINE
8
BLACK
6
CONTINUOUS
10
0.1028132677165354
20
0.5236023622047244
11
0.1115142913385827
21
0.5247478740157481
0
LINE
8
BLACK
6
CONTINUOUS
10
0.1115142913385827
20
0.5247478740157481
11
0.1199913779527559
21
0.5270192913385827
0
LINE
8
BLACK
6
CONTINUOUS
10
0.1199913779527559
20
0.5270192913385827
11
0.1280994488188976
21
0.5303777559055118
0
LINE
8
BLACK
6
CONTINUOUS
10
0.1280994488188976
20
0.5303777559055118
11
0.1356997637795276
21
0.5347658267716535
0
LINE
8
BLACK
6
CONTINUOUS
10
0.1356997637795276
20
0.5347658267716535
11
0.1416745275590551
21
0.5393503937007874
0
LINE
8
BLACK
6
CONTINUOUS
10
0.1416745275590551
20
0.5393503937007874
11
0.142662125984252
21
0.5401081889763779
0
LINE
8
BLACK
6
CONTINUOUS
10
0.142662125984252
20
0.5401081889763779
11
0.1426621653543307
21
0.5401082677165354
0
LINE
8
BLACK
6
CONTINUOUS
10
0.1426621653543307
20
0.5401082677165354
11
0.1426623622047244
21
0.5401083858267717
0
LINE
8
BLACK
6
CONTINUOUS
10
0.1426623622047244
20
0.5401083858267717
11
0.1445878346456693
21
0.5420338582677166
0
LINE
8
BLACK
6
CONTINUOUS
10
0.1445878346456693
20
0.5420338582677166
11
0.1488679921259843
21
0.5463140157480315
0
LINE
8
BLACK
6
CONTINUOUS
10
0.1488679921259843
20
0.5463140157480315
11
0.1495692125984252
21
0.5472278346456693
0
LINE
8
BLACK
6
CONTINUOUS
10
0.1495692125984252
20
0.5472278346456693
11
0.1542104724409449
21
0.5532765354330709
0
LINE
8
BLACK
6
CONTINUOUS
10
0.1542104724409449
20
0.5532765354330709
11
0.1542105511811024
21
0.5532766141732284
0
LINE
8
BLACK
6
CONTINUOUS
10
0.1542105511811024
20
0.5532766141732284
11
0.1585986220472441
21
0.5608769291338582
0
LINE
8
BLACK
6
CONTINUOUS
10
0.1585986220472441
20
0.5608769291338582
11
0.1619570866141732
21
0.568985
0
LINE
8
BLACK
6
CONTINUOUS
10
0.1619570866141732
20
0.568985
11
0.1639870866141732
21
0.5765611811023622
0
LINE
8
BLACK
6
CONTINUOUS
10
0.1639870866141732
20
0.5765611811023622
11
0.1653445275590551
21
0.5783301574803149
0
LINE
8
BLACK
6
CONTINUOUS
10
0.1653445275590551
20
0.5783301574803149
11
0.1668012204724409
21
0.5787204724409448
0
LINE
8
BLACK
6
CONTINUOUS
10
0.1668012204724409
20
0.5787204724409448
11
0.4237499606299213
21
0.5787204724409448
0
LINE
8
BLACK
6
CONTINUOUS
10
0.4237499606299213
20
0.5787204724409448
11
0.4258100393700787
21
0.5778671653543307
0
LINE
8
BLACK
6
CONTINUOUS
10
0.4258100393700787
20
0.5778671653543307
11
0.426564094488189
21
0.5765611417322835
0
LINE
8
BLACK
6
CONTINUOUS
10
0.426564094488189
20
0.5765611417322835
11
0.428594094488189
21
0.5689849606299212
0
LINE
8
BLACK
6
CONTINUOUS
10
0.428594094488189
20
0.5689849606299212
11
0.4319524015748031
21
0.5608772834645669
0
LINE
8
BLACK
6
CONTINUOUS
10
0.4319524015748031
20
0.5608772834645669
11
0.4319525196850393
21
0.560876968503937
0
LINE
8
BLACK
6
CONTINUOUS
10
0.4319525196850393
20
0.560876968503937
11
0.4363405118110236
21
0.5532767716535433
0
LINE
8
BLACK
6
CONTINUOUS
10
0.4363405118110236
20
0.5532767716535433
11
0.4363406692913386
21
0.5532765354330709
0
LINE
8
BLACK
6
CONTINUOUS
10
0.4363406692913386
20
0.5532765354330709
11
0.4416829527559055
21
0.5463142519685039
0
LINE
8
BLACK
6
CONTINUOUS
10
0.4416829527559055
20
0.5463142519685039
11
0.4478890157480315
21
0.5401081889763779
0
LINE
8
BLACK
6
CONTINUOUS
10
0.4478890157480315
20
0.5401081889763779
11
0.4548512992125984
21
0.534765905511811
0
LINE
8
BLACK
6
CONTINUOUS
10
0.4548512992125984
20
0.534765905511811
11
0.4548514173228346
21
0.5347658267716535
0
LINE
8
BLACK
6
CONTINUOUS
10
0.4548514173228346
20
0.5347658267716535
11
0.4624517322834645
21
0.5303777559055118
0
LINE
8
BLACK
6
CONTINUOUS
10
0.4624517322834645
20
0.5303777559055118
11
0.4705598031496063
21
0.5270192913385827
0
LINE
8
BLACK
6
CONTINUOUS
10
0.4705598031496063
20
0.5270192913385827
11
0.4790368897637795
21
0.5247478740157481
0
LINE
8
BLACK
6
CONTINUOUS
10
0.4790368897637795
20
0.5247478740157481
11
0.4877379133858268
21
0.5236023622047244
0
LINE
8
BLACK
6
CONTINUOUS
10
0.4877379133858268
20
0.5236023622047244
11
0.4877379921259842
21
0.5236023622047244
0
LINE
8
BLACK
6
CONTINUOUS
10
0.4877379921259842
20
0.5236023622047244
11
0.4965139763779527
21
0.5236023622047244
0
LINE
8
BLACK
6
CONTINUOUS
10
0.4965139763779527
20
0.5236023622047244
11
0.4965140551181102
21
0.5236023622047244
0
LINE
8
BLACK
6
CONTINUOUS
10
0.4965140551181102
20
0.5236023622047244
11
0.5052150787401575
21
0.5247478740157481
0
LINE
8
BLACK
6
CONTINUOUS
10
0.5052150787401575
20
0.5247478740157481
11
0.5136921653543307
21
0.5270192913385827
0
LINE
8
BLACK
6
CONTINUOUS
10
0.5136921653543307
20
0.5270192913385827
11
0.5218002362204724
21
0.5303777559055118
0
LINE
8
BLACK
6
CONTINUOUS
10
0.5218002362204724
20
0.5303777559055118
11
0.5294005511811023
21
0.5347658267716535
0
LINE
8
BLACK
6
CONTINUOUS
10
0.5294005511811023
20
0.5347658267716535
11
0.53537531496063
21
0.5393503937007874
0
LINE
8
BLACK
6
CONTINUOUS
10
0.53537531496063
20
0.5393503937007874
11
0.5363629133858268
21
0.5401081889763779
0
LINE
8
BLACK
6
CONTINUOUS
10
0.5363629133858268
20
0.5401081889763779
11
0.5363629527559055
21
0.5401082677165354
0
LINE
8
BLACK
6
CONTINUOUS
10
0.5363629527559055
20
0.5401082677165354
11
0.5363631496062992
21
0.5401083858267717
0
LINE
8
BLACK
6
CONTINUOUS
10
0.5363631496062992
20
0.5401083858267717
11
0.5396683070866142
21
0.5434135826771653
0
LINE
8
BLACK
6
CONTINUOUS
10
0.5396683070866142
20
0.5434135826771653
11
0.5417283464566929
21
0.5442668503937008
0
LINE
8
BLACK
6
CONTINUOUS
10
0.5417283464566929
20
0.5442668503937008
11
0.5437884251968503
21
0.5434135433070866
0
LINE
8
BLACK
6
CONTINUOUS
10
0.5437884251968503
20
0.5434135433070866
11
0.5446417322834646
21
0.5413534645669291
0
LINE
8
BLACK
6
CONTINUOUS
10
0.5446417322834646
20
0.5413534645669291
11
0.5446417322834646
21
0.5413527559055118
0
LINE
8
BLACK
6
CONTINUOUS
10
0.5446417322834646
20
0.5413527559055118
11
0.5445897244094489
21
0.3236803937007874
0
LINE
8
BLACK
6
CONTINUOUS
10
0.5445897244094489
20
0.3236803937007874
11
0.5437359055118111
21
0.3216205511811023
0
LINE
8
BLACK
6
CONTINUOUS
10
0.5437359055118111
20
0.3216205511811023
11
0.5416763385826772
21
0.3207677165354331
0
LINE
8
BLACK
6
CONTINUOUS
10
0.5416763385826772
20
0.3207677165354331
11
0.4627379921259843
21
0.3207677165354331
0
LINE
8
BLACK
6
CONTINUOUS
10
0.4627379921259843
20
0.3207677165354331
11
0.4606779133858268
21
0.3216210236220473
0
LINE
8
BLACK
6
CONTINUOUS
10
0.4606779133858268
20
0.3216210236220473
11
0.4346816929133858
21
0.3476172440944882
0
LINE
8
BLACK
6
CONTINUOUS
10
0.4346816929133858
20
0.3476172440944882
11
0.4338283858267716
21
0.3496773228346456
0
LINE
8
BLACK
6
CONTINUOUS
10
0.4338283858267716
20
0.3496773228346456
11
0.4338457480314961
21
0.349941811023622
0
LINE
8
BLACK
6
CONTINUOUS
10
0.4338457480314961
20
0.349941811023622
11
0.4338457480314961
21
0.35
0
LINE
8
BLACK
6
CONTINUOUS
10
0.4338457480314961
20
0.35
11
0.4330332283464567
21
0.3561716929133858
0
LINE
8
BLACK
6
CONTINUOUS
10
0.4330332283464567
20
0.3561716929133858
11
0.4330332283464567
21
0.3561717322834645
0
LINE
8
BLACK
6
CONTINUOUS
10
0.4330332283464567
20
0.3561717322834645
11
0.4322439763779528
21
0.358077125984252
0
LINE
8
BLACK
6
CONTINUOUS
10
0.4322439763779528
20
0.358077125984252
11
0.4306510236220472
21
0.361922874015748
0
LINE
8
BLACK
6
CONTINUOUS
10
0.4306510236220472
20
0.361922874015748
11
0.4268614960629921
21
0.3668614960629921
0
LINE
8
BLACK
6
CONTINUOUS
10
0.4268614960629921
20
0.3668614960629921
11
0.4268613779527559
21
0.3668616141732283
0
LINE
8
BLACK
6
CONTINUOUS
10
0.4268613779527559
20
0.3668616141732283
11
0.421922874015748
21
0.3706510236220472
0
LINE
8
BLACK
6
CONTINUOUS
10
0.421922874015748
20
0.3706510236220472
11
0.4161716929133858
21
0.3730332677165354
0
LINE
8
BLACK
6
CONTINUOUS
10
0.4161716929133858
20
0.3730332677165354
11
0.41
21
0.3738457480314961
0
LINE
8
BLACK
6
CONTINUOUS
10
0.41
20
0.3738457480314961
11
0.4038283070866142
21
0.3730332677165354
0
LINE
8
BLACK
6
CONTINUOUS
10
0.4038283070866142
20
0.3730332677165354
11
0.4038282677165354
21
0.3730332677165354
0
LINE
8
BLACK
6
CONTINUOUS
10
0.4038282677165354
20
0.3730332677165354
11
0.3980770866141732
21
0.3706510236220472
0
LINE
8
BLACK
6
CONTINUOUS
10
0.3980770866141732
20
0.3706510236220472
11
0.3931385826771653
21
0.3668616141732283
0
LINE
8
BLACK
6
CONTINUOUS
10
0.3931385826771653
20
0.3668616141732283
11
0.3931383858267716
21
0.3668614173228346
0
LINE
8
BLACK
6
CONTINUOUS
10
0.3931383858267716
20
0.3668614173228346
11
0.3893489763779527
21
0.3619229133858268
0
LINE
8
BLACK
6
CONTINUOUS
10
0.3893489763779527
20
0.3619229133858268
11
0.3869667322834646
21
0.3561717322834645
0
LINE
8
BLACK
6
CONTINUOUS
10
0.3869667322834646
20
0.3561717322834645
11
0.3869667322834646
21
0.3561716929133858
0
LINE
8
BLACK
6
CONTINUOUS
10
0.3869667322834646
20
0.3561716929133858
11
0.3861542519685039
21
0.35
0
LINE
8
BLACK
6
CONTINUOUS
10
0.3861542519685039
20
0.35
11
0.3869667322834646
21
0.3438283464566929
0
LINE
8
BLACK
6
CONTINUOUS
10
0.3869667322834646
20
0.3438283464566929
11
0.3869667322834646
21
0.3438283070866142
0
LINE
8
BLACK
6
CONTINUOUS
10
0.3869667322834646
20
0.3438283070866142
11
0.3893489763779527
21
0.3380771259842519
0
LINE
8
BLACK
6
CONTINUOUS
10
0.3893489763779527
20
0.3380771259842519
11
0.3931383858267716
21
0.3331386220472441
0
LINE
8
BLACK
6
CONTINUOUS
10
0.3931383858267716
20
0.3331386220472441
11
0.3931385826771653
21
0.3331384251968504
0
LINE
8
BLACK
6
CONTINUOUS
10
0.3931385826771653
20
0.3331384251968504
11
0.3960684645669291
21
0.3308902755905512
0
LINE
8
BLACK
6
CONTINUOUS
10
0.3960684645669291
20
0.3308902755905512
11
0.3980771259842519
21
0.3293489763779527
0
LINE
8
BLACK
6
CONTINUOUS
10
0.3980771259842519
20
0.3293489763779527
11
0.4038282677165354
21
0.3269667716535433
0
LINE
8
BLACK
6
CONTINUOUS
10
0.4038282677165354
20
0.3269667716535433
11
0.41
21
0.3261542519685039
0
LINE
8
BLACK
6
CONTINUOUS
10
0.41
20
0.3261542519685039
11
0.41
21
0.3261542913385826
0
LINE
8
BLACK
6
CONTINUOUS
10
0.41
20
0.3261542913385826
11
0.4100000393700787
21
0.3261542519685039
0
LINE
8
BLACK
6
CONTINUOUS
10
0.4100000393700787
20
0.3261542519685039
11
0.4101909842519685
21
0.3261542519685039
0
LINE
8
BLACK
6
CONTINUOUS
10
0.4101909842519685
20
0.3261542519685039
11
0.4101909842519685
21
0.3260799212598425
0
LINE
8
BLACK
6
CONTINUOUS
10
0.4101909842519685
20
0.3260799212598425
11
0.4120958267716535
21
0.3255698818897638
0
LINE
8
BLACK
6
CONTINUOUS
10
0.4120958267716535
20
0.3255698818897638
11
0.4123827559055118
21
0.3253183070866142
0
LINE
8
BLACK
6
CONTINUOUS
10
0.4123827559055118
20
0.3253183070866142
11
0.4453183858267716
21
0.2923826771653543
0
LINE
8
BLACK
6
CONTINUOUS
10
0.4453183858267716
20
0.2923826771653543
11
0.4489138582677165
21
0.290306811023622
0
LINE
8
BLACK
6
CONTINUOUS
10
0.4489138582677165
20
0.290306811023622
11
0.4529241338582677
21
0.2892322834645669
0
LINE
8
BLACK
6
CONTINUOUS
10
0.4529241338582677
20
0.2892322834645669
11
0.4570758661417323
21
0.2892322834645669
0
LINE
8
BLACK
6
CONTINUOUS
10
0.4570758661417323
20
0.2892322834645669
11
0.4651857874015748
21
0.2892322834645669
0
LINE
8
BLACK
6
CONTINUOUS
10
0.4651857874015748
20
0.2892322834645669
11
0.4672458661417322
21
0.2883789763779527
0
LINE
8
BLACK
6
CONTINUOUS
10
0.4672458661417322
20
0.2883789763779527
11
0.4680991732283464
21
0.2863188976377953
0
LINE
8
BLACK
6
CONTINUOUS
10
0.4680991732283464
20
0.2863188976377953
11
0.467497125984252
21
0.2845453543307087
0
LINE
8
BLACK
6
CONTINUOUS
10
0.467497125984252
20
0.2845453543307087
11
0.4643489763779527
21
0.2804425984251969
0
LINE
8
BLACK
6
CONTINUOUS
10
0.4643489763779527
20
0.2804425984251969
11
0.4619667322834646
21
0.2746914173228346
0
LINE
8
BLACK
6
CONTINUOUS
10
0.4619667322834646
20
0.2746914173228346
11
0.4619667322834646
21
0.2746913779527559
0
LINE
8
BLACK
6
CONTINUOUS
10
0.4619667322834646
20
0.2746913779527559
11
0.4611542519685039
21
0.2685196850393701
0
LINE
8
BLACK
6
CONTINUOUS
10
0.4611542519685039
20
0.2685196850393701
11
0.4619667322834646
21
0.262348031496063
0
LINE
8
BLACK
6
CONTINUOUS
10
0.4619667322834646
20
0.262348031496063
11
0.4619667322834646
21
0.2623479921259843
0
LINE
8
BLACK
6
CONTINUOUS
10
0.4619667322834646
20
0.2623479921259843
11
0.4643489763779527
21
0.256596811023622
0
LINE
8
BLACK
6
CONTINUOUS
10
0.4643489763779527
20
0.256596811023622
11
0.4681383858267716
21
0.2516583070866142
0
LINE
8
BLACK
6
CONTINUOUS
10
0.4681383858267716
20
0.2516583070866142
11
0.4681385826771653
21
0.2516581102362205
0
LINE
8
BLACK
6
CONTINUOUS
10
0.4681385826771653
20
0.2516581102362205
11
0.4690424409448819
21
0.2509645669291338
0
LINE
8
BLACK
6
CONTINUOUS
10
0.4690424409448819
20
0.2509645669291338
11
0.4730771259842519
21
0.2478686614173228
0
LINE
8
BLACK
6
CONTINUOUS
10
0.4730771259842519
20
0.2478686614173228
11
0.4788282677165354
21
0.2454864566929134
0
LINE
8
BLACK
6
CONTINUOUS
10
0.4788282677165354
20
0.2454864566929134
11
0.485
21
0.244673937007874
0
LINE
8
BLACK
6
CONTINUOUS
10
0.485
20
0.244673937007874
11
0.4911717322834646
21
0.2454864566929134
0
LINE
8
BLACK
6
CONTINUOUS
10
0.4911717322834646
20
0.2454864566929134
11
0.496922874015748
21
0.2478686614173228
0
LINE
8
BLACK
6
CONTINUOUS
10
0.496922874015748
20
0.2478686614173228
11
0.5018614960629921
21
0.2516581889763779
0
LINE
8
BLACK
6
CONTINUOUS
10
0.5018614960629921
20
0.2516581889763779
11
0.5018616141732284
21
0.2516583858267716
0
LINE
8
BLACK
6
CONTINUOUS
10
0.5018616141732284
20
0.2516583858267716
11
0.5019963385826771
21
0.2517930708661417
0
LINE
8
BLACK
6
CONTINUOUS
10
0.5019963385826771
20
0.2517930708661417
11
0.5020487007874016
21
0.2517407086614173
0
LINE
8
BLACK
6
CONTINUOUS
10
0.5020487007874016
20
0.2517407086614173
11
0.5037572834645669
21
0.2527270472440945
0
LINE
8
BLACK
6
CONTINUOUS
10
0.5037572834645669
20
0.2527270472440945
11
0.5041374803149606
21
0.252751968503937
0
LINE
8
BLACK
6
CONTINUOUS
10
0.5041374803149606
20
0.252751968503937
11
0.5095112992125984
21
0.252751968503937
0
LINE
8
BLACK
6
CONTINUOUS
10
0.5095112992125984
20
0.252751968503937
11
0.5115713779527559
21
0.2518986614173228
0
LINE
8
BLACK
6
CONTINUOUS
10
0.5115713779527559
20
0.2518986614173228
11
0.5233789763779527
21
0.2400911023622047
0
LINE
8
BLACK
6
CONTINUOUS
10
0.5233789763779527
20
0.2400911023622047
11
0.524232283464567
21
0.2380310236220472
0
LINE
8
BLACK
6
CONTINUOUS
10
0.524232283464567
20
0.2380310236220472
11
0.524232283464567
21
0.1258817322834646
0
LINE
8
BLACK
6
CONTINUOUS
10
0.524232283464567
20
0.1258817322834646
11
0.5233789763779527
21
0.1238216535433071
0
LINE
8
BLACK
6
CONTINUOUS
10
0.5233789763779527
20
0.1238216535433071
11
0.5198108267716536
21
0.1202535433070866
0
LINE
8
BLACK
6
CONTINUOUS
10
0.5198108267716536
20
0.1202535433070866
11
0.517750748031496
21
0.1194002362204724
0
LINE
8
BLACK
6
CONTINUOUS
10
0.517750748031496
20
0.1194002362204724
11
0.5174862992125984
21
0.1194175590551181
0
LINE
8
BLACK
6
CONTINUOUS
10
0.5174862992125984
20
0.1194175590551181
11
0.5174281102362205
21
0.1194175590551181
0
LINE
8
BLACK
6
CONTINUOUS
10
0.5174281102362205
20
0.1194175590551181
11
0.5112564173228347
21
0.1186050787401575
0
LINE
8
BLACK
6
CONTINUOUS
10
0.5112564173228347
20
0.1186050787401575
11
0.5112563779527559
21
0.1186050787401575
0
LINE
8
BLACK
6
CONTINUOUS
10
0.5112563779527559
20
0.1186050787401575
11
0.5055051968503936
21
0.1162228346456693
0
LINE
8
BLACK
6
CONTINUOUS
10
0.5055051968503936
20
0.1162228346456693
11
0.5005666929133858
21
0.1124334251968504
0
LINE
8
BLACK
6
CONTINUOUS
10
0.5005666929133858
20
0.1124334251968504
11
0.5005664960629921
21
0.1124332283464567
0
LINE
8
BLACK
6
CONTINUOUS
10
0.5005664960629921
20
0.1124332283464567
11
0.4967770866141732
21
0.1074947244094488
0
LINE
8
BLACK
6
CONTINUOUS
10
0.4967770866141732
20
0.1074947244094488
11
0.494394842519685
21
0.1017435433070866
0
LINE
8
BLACK
6
CONTINUOUS
10
0.494394842519685
20
0.1017435433070866
11
0.494394842519685
21
0.1017435039370079
0
LINE
8
BLACK
6
CONTINUOUS
10
0.494394842519685
20
0.1017435039370079
11
0.4935823622047244
21
0.095571811023622
0
LINE
8
BLACK
6
CONTINUOUS
10
0.4935823622047244
20
0.095571811023622
11
0.494394842519685
21
0.089400157480315
0
LINE
8
BLACK
6
CONTINUOUS
10
0.494394842519685
20
0.089400157480315
11
0.494394842519685
21
0.0894001181102362
0
LINE
8
BLACK
6
CONTINUOUS
10
0.494394842519685
20
0.0894001181102362
11
0.4967770866141732
21
0.083648937007874
0
LINE
8
BLACK
6
CONTINUOUS
10
0.4967770866141732
20
0.083648937007874
11
0.5005664960629921
21
0.0787104330708661
0
LINE
8
BLACK
6
CONTINUOUS
10
0.5005664960629921
20
0.0787104330708661
11
0.5005666929133858
21
0.0787102362204724
0
LINE
8
BLACK
6
CONTINUOUS
10
0.5005666929133858
20
0.0787102362204724
11
0.5038590157480315
21
0.0761839763779528
0
LINE
8
BLACK
6
CONTINUOUS
10
0.5038590157480315
20
0.0761839763779528
11
0.5055052362204724
21
0.0749207874015748
0
LINE
8
BLACK
6
CONTINUOUS
10
0.5055052362204724
20
0.0749207874015748
11
0.5112563779527559
21
0.0725385826771654
0
LINE
8
BLACK
6
CONTINUOUS
10
0.5112563779527559
20
0.0725385826771654
11
0.5174281102362205
21
0.071726062992126
0
LINE
8
BLACK
6
CONTINUOUS
10
0.5174281102362205
20
0.071726062992126
11
0.5235998425196851
21
0.0725385826771654
0
LINE
8
BLACK
6
CONTINUOUS
10
0.5235998425196851
20
0.0725385826771654
11
0.5293509842519685
21
0.0749207874015748
0
LINE
8
BLACK
6
CONTINUOUS
10
0.5293509842519685
20
0.0749207874015748
11
0.5342896062992126
21
0.0787103149606299
0
LINE
8
BLACK
6
CONTINUOUS
10
0.5342896062992126
20
0.0787103149606299
11
0.5380791338582677
21
0.083648937007874
0
LINE
8
BLACK
6
CONTINUOUS
10
0.5380791338582677
20
0.083648937007874
11
0.5389275196850394
21
0.0856971653543307
0
LINE
8
BLACK
6
CONTINUOUS
10
0.5389275196850394
20
0.0856971653543307
11
0.5405042125984252
21
0.0872738582677165
0
LINE
8
BLACK
6
CONTINUOUS
10
0.5405042125984252
20
0.0872738582677165
11
0.5427340157480315
21
0.0872738582677165
0
LINE
8
BLACK
6
CONTINUOUS
10
0.5427340157480315
20
0.0872738582677165
11
0.544310748031496
21
0.0856971653543307
0
LINE
8
BLACK
6
CONTINUOUS
10
0.544310748031496
20
0.0856971653543307
11
0.5445325196850394
21
0.0845815354330709
0
LINE
8
BLACK
6
CONTINUOUS
10
0.5445325196850394
20
0.0845815354330709
11
0.5445240944881889
21
0.0493146850393701
0
LINE
8
BLACK
6
CONTINUOUS
10
0.5445240944881889
20
0.0493146850393701
11
0.5436702755905511
21
0.047254842519685
0
LINE
8
BLACK
6
CONTINUOUS
10
0.5436702755905511
20
0.047254842519685
11
0.54161
21
0.0464020078740157
0
LINE
8
BLACK
6
CONTINUOUS
10
0.54161
20
0.0464020078740157
11
0.5395506299212598
21
0.0472553149606299
0
LINE
8
BLACK
6
CONTINUOUS
10
0.5395506299212598
20
0.0472553149606299
11
0.5363629133858268
21
0.050443031496063
0
LINE
8
BLACK
6
CONTINUOUS
10
0.5363629133858268
20
0.050443031496063
11
0.5294006299212598
21
0.0557853149606299
0
LINE
8
BLACK
6
CONTINUOUS
10
0.5294006299212598
20
0.0557853149606299
11
0.5294003937007874
21
0.0557854724409449
0
LINE
8
BLACK
6
CONTINUOUS
10
0.5294003937007874
20
0.0557854724409449
11
0.5218001968503937
21
0.0601734645669291
0
LINE
8
BLACK
6
CONTINUOUS
10
0.5218001968503937
20
0.0601734645669291
11
0.5217998818897638
21
0.0601735826771654
0
LINE
8
BLACK
6
CONTINUOUS
10
0.5217998818897638
20
0.0601735826771654
11
0.5136922047244095
21
0.0635318897637795
0
LINE
8
BLACK
6
CONTINUOUS
10
0.5136922047244095
20
0.0635318897637795
11
0.505215
21
0.0658033464566929
0
LINE
8
BLACK
6
CONTINUOUS
10
0.505215
20
0.0658033464566929
11
0.498805
21
0.0666472440944882
0
LINE
8
BLACK
6
CONTINUOUS
10
0.498805
20
0.0666472440944882
11
0.4965140551181102
21
0.0669488188976378
0
LINE
8
BLACK
6
CONTINUOUS
10
0.4965140551181102
20
0.0669488188976378
11
0.4877379133858268
21
0.0669488188976378
0
LINE
8
BLACK
6
CONTINUOUS
10
0.4877379133858268
20
0.0669488188976378
11
0.4857134645669291
21
0.0666823228346457
0
LINE
8
BLACK
6
CONTINUOUS
10
0.4857134645669291
20
0.0666823228346457
11
0.4790369291338583
21
0.0658033464566929
0
LINE
8
BLACK
6
CONTINUOUS
10
0.4790369291338583
20
0.0658033464566929
11
0.4705597244094488
21
0.0635318897637795
0
LINE
8
BLACK
6
CONTINUOUS
10
0.4705597244094488
20
0.0635318897637795
11
0.4624520472440945
21
0.0601735826771654
0
LINE
8
BLACK
6
CONTINUOUS
10
0.4624520472440945
20
0.0601735826771654
11
0.4624517322834645
21
0.0601734645669291
0
LINE
8
BLACK
6
CONTINUOUS
10
0.4624517322834645
20
0.0601734645669291
11
0.4548515354330708
21
0.0557854724409449
0
LINE
8
BLACK
6
CONTINUOUS
10
0.4548515354330708
20
0.0557854724409449
11
0.4548512992125984
21
0.0557853149606299
0
LINE
8
BLACK
6
CONTINUOUS
10
0.4548512992125984
20
0.0557853149606299
11
0.4478890157480315
21
0.050443031496063
0
LINE
8
BLACK
6
CONTINUOUS
10
0.4478890157480315
20
0.050443031496063
11
0.4416829527559055
21
0.044236968503937
0
LINE
8
BLACK
6
CONTINUOUS
10
0.4416829527559055
20
0.044236968503937
11
0.4363406692913386
21
0.0372746850393701
0
LINE
8
BLACK
6
CONTINUOUS
10
0.4363406692913386
20
0.0372746850393701
11
0.4363405118110236
21
0.0372744488188976
0
LINE
8
BLACK
6
CONTINUOUS
10
0.4363405118110236
20
0.0372744488188976
11
0.4319525196850393
21
0.0296742519685039
0
LINE
8
BLACK
6
CONTINUOUS
10
0.4319525196850393
20
0.0296742519685039
11
0.4319524015748031
21
0.029673937007874
0
LINE
8
BLACK
6
CONTINUOUS
10
0.4319524015748031
20
0.029673937007874
11
0.428594094488189
21
0.0215662598425197
0
LINE
8
BLACK
6
CONTINUOUS
10
0.428594094488189
20
0.0215662598425197
11
0.426564094488189
21
0.0139900393700787
0
LINE
8
BLACK
6
CONTINUOUS
10
0.426564094488189
20
0.0139900393700787
11
0.4252066535433071
21
0.0122210236220472
0
LINE
8
BLACK
6
CONTINUOUS
10
0.4252066535433071
20
0.0122210236220472
11
0.4237499606299213
21
0.0118307086614173
0
LINE
8
BLACK
6
CONTINUOUS
10
0.4237499606299213
20
0.0118307086614173
11
0.1668012204724409
21
0.0118307086614173
0
LINE
8
BLACK
6
CONTINUOUS
10
0.1668012204724409
20
0.0118307086614173
11
0.1647411417322835
21
0.0126840157480315
0
LINE
8
BLACK
6
CONTINUOUS
10
0.1647411417322835
20
0.0126840157480315
11
0.1639870866141732
21
0.0139900393700787
0
LINE
8
BLACK
6
CONTINUOUS
10
0.1639870866141732
20
0.0139900393700787
11
0.1619570472440945
21
0.0215662598425197
0
LINE
8
BLACK
6
CONTINUOUS
10
0.1619570472440945
20
0.0215662598425197
11
0.1585987401574803
21
0.029673937007874
0
LINE
8
BLACK
6
CONTINUOUS
10
0.1585987401574803
20
0.029673937007874
11
0.1585986220472441
21
0.0296742519685039
0
LINE
8
BLACK
6
CONTINUOUS
10
0.1585986220472441
20
0.0296742519685039
11
0.1542106299212598
21
0.0372744488188976
0
LINE
8
BLACK
6
CONTINUOUS
10
0.1542106299212598
20
0.0372744488188976
11
0.1542104724409449
21
0.0372746850393701
0
LINE
8
BLACK
6
CONTINUOUS
10
0.1542104724409449
20
0.0372746850393701
11
0.148868188976378
21
0.044236968503937
0
LINE
8
BLACK
6
CONTINUOUS
10
0.148868188976378
20
0.044236968503937
11
0.142662125984252
21
0.050443031496063
0
LINE
8
BLACK
6
CONTINUOUS
10
0.142662125984252
20
0.050443031496063
11
0.135699842519685
21
0.0557853149606299
0
LINE
8
BLACK
6
CONTINUOUS
10
0.135699842519685
20
0.0557853149606299
11
0.1356996062992126
21
0.0557854724409449
0
LINE
8
BLACK
6
CONTINUOUS
10
0.1356996062992126
20
0.0557854724409449
11
0.1280994094488189
21
0.0601734645669291
0
LINE
8
BLACK
6
CONTINUOUS
10
0.1280994094488189
20
0.0601734645669291
11
0.128099094488189
21
0.0601735826771654
0
LINE
8
BLACK
6
CONTINUOUS
10
0.128099094488189
20
0.0601735826771654
11
0.1199914173228346
21
0.0635318897637795
0
LINE
8
BLACK
6
CONTINUOUS
10
0.1199914173228346
20
0.0635318897637795
11
0.1115142125984252
21
0.0658033464566929
0
LINE
8
BLACK
6
CONTINUOUS
10
0.1115142125984252
20
0.0658033464566929
11
0.1051042125984252
21
0.0666472440944882
0
LINE
8
BLACK
6
CONTINUOUS
10
0.1051042125984252
20
0.0666472440944882
11
0.1028132677165354
21
0.0669488188976378
0
LINE
8
BLACK
6
CONTINUOUS
10
0.1028132677165354
20
0.0669488188976378
11
0.094037125984252
21
0.0669488188976378
0
LINE
8
BLACK
6
CONTINUOUS
10
0.094037125984252
20
0.0669488188976378
11
0.0920126771653543
21
0.0666823228346457
0
LINE
8
BLACK
6
CONTINUOUS
10
0.0920126771653543
20
0.0666823228346457
11
0.0853361417322835
21
0.0658033464566929
0
LINE
8
BLACK
6
CONTINUOUS
10
0.0853361417322835
20
0.0658033464566929
11
0.076858937007874
21
0.0635318897637795
0
LINE
8
BLACK
6
CONTINUOUS
10
0.076858937007874
20
0.0635318897637795
11
0.0687512598425197
21
0.0601735826771654
0
LINE
8
BLACK
6
CONTINUOUS
10
0.0687512598425197
20
0.0601735826771654
11
0.0687509448818898
21
0.0601734645669291
0
LINE
8
BLACK
6
CONTINUOUS
10
0.0687509448818898
20
0.0601734645669291
11
0.0611507480314961
21
0.0557854724409449
0
LINE
8
BLACK
6
CONTINUOUS
10
0.0611507480314961
20
0.0557854724409449
11
0.0611505118110236
21
0.0557853149606299
0
LINE
8
BLACK
6
CONTINUOUS
10
0.0611505118110236
20
0.0557853149606299
11
0.0541882283464567
21
0.050443031496063
0
LINE
8
BLACK
6
CONTINUOUS
10
0.0541882283464567
20
0.050443031496063
11
0.0479821653543307
21
0.044236968503937
0
LINE
8
BLACK
6
CONTINUOUS
10
0.0479821653543307
20
0.044236968503937
11
0.0426398818897638
21
0.0372746850393701
0
LINE
8
BLACK
6
CONTINUOUS
10
0.0426398818897638
20
0.0372746850393701
11
0.0426397244094488
21
0.0372744488188976
0
LINE
8
BLACK
6
CONTINUOUS
10
0.0426397244094488
20
0.0372744488188976
11
0.0382517322834646
21
0.0296742519685039
0
LINE
8
BLACK
6
CONTINUOUS
10
0.0382517322834646
20
0.0296742519685039
11
0.0382516141732283
21
0.029673937007874
0
LINE
8
BLACK
6
CONTINUOUS
10
0.0382516141732283
20
0.029673937007874
11
0.0348933070866142
21
0.0215662598425197
0
LINE
8
BLACK
6
CONTINUOUS
10
0.0348933070866142
20
0.0215662598425197
11
0.0328633070866142
21
0.0139900393700787
0
LINE
8
BLACK
6
CONTINUOUS
10
0.0328633070866142
20
0.0139900393700787
11
0.0315058661417323
21
0.0122210236220472
0
LINE
8
BLACK
6
CONTINUOUS
10
0.0315058661417323
20
0.0122210236220472
11
0.0300491732283465
21
0.0118307086614173
0
LINE
8
BLACK
6
CONTINUOUS
10
0.0300491732283465
20
0.0118307086614173
11
0.014744094488189
21
0.0118307086614173
0
LINE
8
BLACK
6
CONTINUOUS
10
0.014744094488189
20
0.0118307086614173
11
0.0126840157480315
21
0.0126840157480315
0
LINE
8
BLACK
6
CONTINUOUS
10
0.0126840157480315
20
0.0126840157480315
11
0.0118307086614173
21
0.014744094488189
0
LINE
8
BLACK
6
CONTINUOUS
10
0.0118307086614173
20
0.014744094488189
11
0.0118307086614173
21
0.1065300393700787
0
LINE
8
BLACK
6
CONTINUOUS
10
0.0118307086614173
20
0.1065300393700787
11
0.0126840157480315
21
0.1085901181102362
0
LINE
8
BLACK
6
CONTINUOUS
10
0.0126840157480315
20
0.1085901181102362
11
0.014744094488189
21
0.1094434251968504
0
LINE
8
BLACK
6
CONTINUOUS
10
0.014744094488189
20
0.1094434251968504
11
0.0153537795275591
21
0.1093788976377953
0
LINE
8
BLACK
6
CONTINUOUS
10
0.0153537795275591
20
0.1093788976377953
11
0.0154672047244094
21
0.1093546456692913
0
LINE
8
BLACK
6
CONTINUOUS
10
0.0154672047244094
20
0.1093546456692913
11
0.0195549212598425
21
0.1089370472440945
0
LINE
8
BLACK
6
CONTINUOUS
10
0.0195549212598425
20
0.1089370472440945
11
0.019555
21
0.1089370078740158
0
LINE
8
BLACK
6
CONTINUOUS
10
0.019555
20
0.1089370078740158
11
0.0548503937007874
21
0.1089370078740158
0
LINE
8
BLACK
6
CONTINUOUS
10
0.0548503937007874
20
0.1089370078740158
11
0.0548503937007874
21
0.1289370078740157
0
LINE
8
BLACK
6
CONTINUOUS
10
0.0548503937007874
20
0.1289370078740157
11
0.0215433070866142
21
0.1289370078740157
0
LINE
8
BLACK
6
CONTINUOUS
10
0.0215433070866142
20
0.1289370078740157
11
0.0177767322834646
21
0.1296862204724409
0
LINE
8
BLACK
6
CONTINUOUS
10
0.0177767322834646
20
0.1296862204724409
11
0.0145835826771654
21
0.1318198031496063
0
LINE
8
BLACK
6
CONTINUOUS
10
0.0145835826771654
20
0.1318198031496063
11
0.01245
21
0.1350129527559055
0
LINE
8
BLACK
6
CONTINUOUS
10
0.01245
20
0.1350129527559055
11
0.0117007874015748
21
0.1387795275590551
0
LINE
8
BLACK
6
CONTINUOUS
10
0.0117007874015748
20
0.1387795275590551
11
0.0117007874015748
21
0.1584645669291339
0
LINE
8
BLACK
6
CONTINUOUS
10
0.0117007874015748
20
0.1584645669291339
11
0.01245
21
0.1622311417322835
0
LINE
8
BLACK
6
CONTINUOUS
10
0.01245
20
0.1622311417322835
11
0.0145835826771654
21
0.1654242913385827
0
LINE
8
BLACK
6
CONTINUOUS
10
0.0145835826771654
20
0.1654242913385827
11
0.0177767322834646
21
0.167557874015748
0
LINE
8
BLACK
6
CONTINUOUS
10
0.0177767322834646
20
0.167557874015748
11
0.0215433070866142
21
0.1683070866141732
0
LINE
8
BLACK
6
CONTINUOUS
10
0.0215433070866142
20
0.1683070866141732
11
0.0548503937007874
21
0.1683070866141732
0
LINE
8
BLACK
6
CONTINUOUS
10
0.0548503937007874
20
0.1683070866141732
11
0.0548503937007874
21
0.1883070866141732
0
LINE
8
BLACK
6
CONTINUOUS
10
0.0548503937007874
20
0.1883070866141732
11
0.0195549212598425
21
0.1883070866141732
0
LINE
8
BLACK
6
CONTINUOUS
10
0.0195549212598425
20
0.1883070866141732
11
0.0154672047244094
21
0.1878894881889764
0
LINE
8
BLACK
6
CONTINUOUS
10
0.0154672047244094
20
0.1878894881889764
11
0.0153537795275591
21
0.1878651968503937
0
LINE
8
BLACK
6
CONTINUOUS
10
0.0153537795275591
20
0.1878651968503937
11
0.0153094094488189
21
0.1878733858267717
0
LINE
8
BLACK
6
CONTINUOUS
10
0.0153094094488189
20
0.1878733858267717
11
0.0153093307086614
21
0.1878733464566929
0
LINE
8
BLACK
6
CONTINUOUS
10
0.0153093307086614
20
0.1878733464566929
11
0.0153092913385827
21
0.1878733858267717
0
LINE
8
BLACK
6
CONTINUOUS
10
0.0153092913385827
20
0.1878733858267717
11
0.0131607480314961
21
0.1882684645669291
0
LINE
8
BLACK
6
CONTINUOUS
10
0.0131607480314961
20
0.1882684645669291
11
0.0118952362204724
21
0.1901043700787401
0
LINE
8
BLACK
6
CONTINUOUS
10
0.0118952362204724
20
0.1901043700787401
11
0.0118307086614173
21
0.1907140551181102
0
LINE
8
BLACK
6
CONTINUOUS
10
0.0118307086614173
20
0.1907140551181102
11
0.0118307086614173
21
0.2114566929133858
0
LINE
8
BLACK
6
CONTINUOUS
10
0.0118307086614173
20
0.2114566929133858
11
0.0118307086614173
21
0.3223349606299212
0
LINE
8
BLACK
6
CONTINUOUS
10
0.0118307086614173
20
0.3223349606299212
11
0.0118307086614173
21
0.399837125984252
0
LINE
8
BLACK
6
CONTINUOUS
10
0.0118307086614173
20
0.399837125984252
11
0.0126840157480315
21
0.4018972047244094
0
LINE
8
BLACK
6
CONTINUOUS
10
0.0126840157480315
20
0.4018972047244094
11
0.014744094488189
21
0.4027505118110236
0
LINE
8
BLACK
6
CONTINUOUS
10
0.014744094488189
20
0.4027505118110236
11
0.0153537795275591
21
0.4026859842519685
0
LINE
8
BLACK
6
CONTINUOUS
10
0.0153537795275591
20
0.4026859842519685
11
0.0154672047244094
21
0.4026617322834646
0
LINE
8
BLACK
6
CONTINUOUS
10
0.0154672047244094
20
0.4026617322834646
11
0.0195549212598425
21
0.4022441338582677
0
LINE
8
BLACK
6
CONTINUOUS
10
0.0195549212598425
20
0.4022441338582677
11
0.019555
21
0.402244094488189
0
LINE
8
BLACK
6
CONTINUOUS
10
0.019555
20
0.402244094488189
11
0.054441811023622
21
0.402244094488189
0
LINE
8
BLACK
6
CONTINUOUS
10
0.054441811023622
20
0.402244094488189
11
0.0548503937007874
21
0.4024522834645669
0
LINE
8
BLACK
6
CONTINUOUS
10
0.0548503937007874
20
0.4024522834645669
11
0.0548503937007874
21
0.4222440944881889
0
LINE
8
BLACK
6
CONTINUOUS
10
0.0548503937007874
20
0.4222440944881889
11
0.0215433070866142
21
0.4222440944881889
0
LINE
8
BLACK
6
CONTINUOUS
10
0.0215433070866142
20
0.4222440944881889
11
0.0177767322834646
21
0.4229933070866141
0
LINE
8
BLACK
6
CONTINUOUS
10
0.0177767322834646
20
0.4229933070866141
11
0.0145835826771654
21
0.4251268897637795
0
LINE
8
BLACK
6
CONTINUOUS
10
0.0145835826771654
20
0.4251268897637795
11
0.01245
21
0.4283200393700787
0
LINE
8
BLACK
6
CONTINUOUS
10
0.01245
20
0.4283200393700787
11
0.0117007874015748
21
0.4320866141732284
0
LINE
8
BLACK
6
CONTINUOUS
10
0.0117007874015748
20
0.4320866141732284
11
0.0117007874015748
21
0.4517716535433071
0
LINE
8
BLACK
6
CONTINUOUS
10
0.0117007874015748
20
0.4517716535433071
11
0.01245
21
0.4555382283464567
0
LINE
8
BLACK
6
CONTINUOUS
10
0.01245
20
0.4555382283464567
11
0.0145835826771654
21
0.4587313779527559
0
LINE
8
BLACK
6
CONTINUOUS
10
0.0145835826771654
20
0.4587313779527559
11
0.0177767322834646
21
0.4608649606299213
0
LINE
8
BLACK
6
CONTINUOUS
10
0.0177767322834646
20
0.4608649606299213
11
0.0215433070866142
21
0.4616141732283465
0
LINE
8
BLACK
6
CONTINUOUS
10
0.0215433070866142
20
0.4616141732283465
11
0.0548503937007874
21
0.4616141732283465
0
LINE
8
BLACK
6
CONTINUOUS
10
0.0548503937007874
20
0.4616141732283465
11
0.0548503937007874
21
0.4816141732283464
0
LINE
8
BLACK
6
CONTINUOUS
10
0.0548503937007874
20
0.4816141732283464
11
0.0195549212598425
21
0.4816141732283464
0
LINE
8
BLACK
6
CONTINUOUS
10
0.0195549212598425
20
0.4816141732283464
11
0.0154672047244094
21
0.4811965748031496
0
LINE
8
BLACK
6
CONTINUOUS
10
0.0154672047244094
20
0.4811965748031496
11
0.0153537795275591
21
0.4811722834645669
0
LINE
8
BLACK
6
CONTINUOUS
10
0.0153537795275591
20
0.4811722834645669
11
0.0153094094488189
21
0.4811804724409449
0
LINE
8
BLACK
6
CONTINUOUS
10
0.0153094094488189
20
0.4811804724409449
11
0.0153093307086614
21
0.4811804330708661
0
LINE
8
BLACK
6
CONTINUOUS
10
0.0153093307086614
20
0.4811804330708661
11
0.0153092913385827
21
0.4811804724409449
0
LINE
8
BLACK
6
CONTINUOUS
10
0.0153092913385827
20
0.4811804724409449
11
0.0131607480314961
21
0.4815755511811023
0
LINE
8
BLACK
6
CONTINUOUS
10
0.0131607480314961
20
0.4815755511811023
11
0.0118952362204724
21
0.4834114566929134
0
LINE
8
BLACK
6
CONTINUOUS
10
0.0118952362204724
20
0.4834114566929134
11
0.0118307086614173
21
0.4840211417322834
0
LINE
8
BLACK
6
CONTINUOUS
10
0.0118307086614173
20
0.4840211417322834
11
0.0118307086614173
21
0.5758070866141732
0
LINE
8
BLACK
6
CONTINUOUS
10
0.0118307086614173
20
0.5758070866141732
11
0.0126840157480315
21
0.5778671653543307
0
LINE
8
BLACK
6
CONTINUOUS
10
0.0126840157480315
20
0.5778671653543307
11
0.014744094488189
21
0.5787204724409448
0
LINE
8
BLACK
6
CONTINUOUS
10
0.014744094488189
20
0.5787204724409448
11
0.0300491732283465
21
0.5787204724409448
0
LINE
8
BLACK
6
CONTINUOUS
10
0.0300491732283465
20
0.5787204724409448
11
0.0321092519685039
21
0.5778671653543307
0
LINE
8
BLACK
6
CONTINUOUS
10
0.1172507874015748
20
0.1350129527559055
11
0.1151172047244094
21
0.1318198031496063
0
LINE
8
BLACK
6
CONTINUOUS
10
0.1151172047244094
20
0.1318198031496063
11
0.1119240551181102
21
0.1296862204724409
0
LINE
8
BLACK
6
CONTINUOUS
10
0.1119240551181102
20
0.1296862204724409
11
0.1081574803149606
21
0.1289370078740157
0
LINE
8
BLACK
6
CONTINUOUS
10
0.1081574803149606
20
0.1289370078740157
11
0.0748503937007874
21
0.1289370078740157
0
LINE
8
BLACK
6
CONTINUOUS
10
0.0748503937007874
20
0.1289370078740157
11
0.0748503937007874
21
0.1089370078740158
0
LINE
8
BLACK
6
CONTINUOUS
10
0.0748503937007874
20
0.1089370078740158
11
0.1101457874015748
21
0.1089370078740158
0
LINE
8
BLACK
6
CONTINUOUS
10
0.1101457874015748
20
0.1089370078740158
11
0.1101458267716535
21
0.1089370472440945
0
LINE
8
BLACK
6
CONTINUOUS
10
0.1101458267716535
20
0.1089370472440945
11
0.1142332677165354
21
0.1093546062992126
0
LINE
8
BLACK
6
CONTINUOUS
10
0.1142332677165354
20
0.1093546062992126
11
0.1208552755905512
21
0.111548937007874
0
LINE
8
BLACK
6
CONTINUOUS
10
0.1208552755905512
20
0.111548937007874
11
0.1267928346456693
21
0.1152112598425197
0
LINE
8
BLACK
6
CONTINUOUS
10
0.1267928346456693
20
0.1152112598425197
11
0.1267929921259842
21
0.1152113385826772
0
LINE
8
BLACK
6
CONTINUOUS
10
0.1267929921259842
20
0.1152113385826772
11
0.1317256692913386
21
0.1201440157480315
0
LINE
8
BLACK
6
CONTINUOUS
10
0.1317256692913386
20
0.1201440157480315
11
0.1317257480314961
21
0.1201441732283465
0
LINE
8
BLACK
6
CONTINUOUS
10
0.1317257480314961
20
0.1201441732283465
11
0.1353880708661417
21
0.1260817322834646
0
LINE
8
BLACK
6
CONTINUOUS
10
0.1353880708661417
20
0.1260817322834646
11
0.1375824015748031
21
0.1327037401574803
0
LINE
8
BLACK
6
CONTINUOUS
10
0.1375824015748031
20
0.1327037401574803
11
0.1379999606299213
21
0.1367911811023622
0
LINE
8
BLACK
6
CONTINUOUS
10
0.1379999606299213
20
0.1367911811023622
11
0.138
21
0.1367912598425197
0
LINE
8
BLACK
6
CONTINUOUS
10
0.138
20
0.1367912598425197
11
0.138
21
0.1386220472440945
0
LINE
8
BLACK
6
CONTINUOUS
10
0.138
20
0.1386220472440945
11
0.1179686614173228
21
0.1386220472440945
0
LINE
8
BLACK
6
CONTINUOUS
10
0.1179686614173228
20
0.1386220472440945
11
0.1172507874015748
21
0.1350129527559055
0
LINE
8
BLACK
6
CONTINUOUS
10
0.0748503937007874
20
0.1683070866141732
11
0.1081574803149606
21
0.1683070866141732
0
LINE
8
BLACK
6
CONTINUOUS
10
0.1081574803149606
20
0.1683070866141732
11
0.1119240551181102
21
0.167557874015748
0
LINE
8
BLACK
6
CONTINUOUS
10
0.1119240551181102
20
0.167557874015748
11
0.1151172047244094
21
0.1654242913385827
0
LINE
8
BLACK
6
CONTINUOUS
10
0.1151172047244094
20
0.1654242913385827
11
0.1172507874015748
21
0.1622311417322835
0
LINE
8
BLACK
6
CONTINUOUS
10
0.1172507874015748
20
0.1622311417322835
11
0.1179686614173228
21
0.1586220472440945
0
LINE
8
BLACK
6
CONTINUOUS
10
0.1179686614173228
20
0.1586220472440945
11
0.138
21
0.1586220472440945
0
LINE
8
BLACK
6
CONTINUOUS
10
0.138
20
0.1586220472440945
11
0.138
21
0.160452874015748
0
LINE
8
BLACK
6
CONTINUOUS
10
0.138
20
0.160452874015748
11
0.1379999606299213
21
0.1604529527559055
0
LINE
8
BLACK
6
CONTINUOUS
10
0.1379999606299213
20
0.1604529527559055
11
0.1375824015748031
21
0.1645403937007874
0
LINE
8
BLACK
6
CONTINUOUS
10
0.1375824015748031
20
0.1645403937007874
11
0.1353880708661417
21
0.1711624015748031
0
LINE
8
BLACK
6
CONTINUOUS
10
0.1353880708661417
20
0.1711624015748031
11
0.1317257480314961
21
0.1770999606299213
0
LINE
8
BLACK
6
CONTINUOUS
10
0.1317257480314961
20
0.1770999606299213
11
0.1317256692913386
21
0.1771000787401575
0
LINE
8
BLACK
6
CONTINUOUS
10
0.1317256692913386
20
0.1771000787401575
11
0.1267929921259842
21
0.1820327559055118
0
LINE
8
BLACK
6
CONTINUOUS
10
0.1267929921259842
20
0.1820327559055118
11
0.1267928346456693
21
0.182032874015748
0
LINE
8
BLACK
6
CONTINUOUS
10
0.1267928346456693
20
0.182032874015748
11
0.1208552755905512
21
0.1856951968503937
0
LINE
8
BLACK
6
CONTINUOUS
10
0.1208552755905512
20
0.1856951968503937
11
0.1142332677165354
21
0.1878895275590551
0
LINE
8
BLACK
6
CONTINUOUS
10
0.1142332677165354
20
0.1878895275590551
11
0.1101458267716535
21
0.1883070866141732
0
LINE
8
BLACK
6
CONTINUOUS
10
0.1101458267716535
20
0.1883070866141732
11
0.0748503937007874
21
0.1883070866141732
0
LINE
8
BLACK
6
CONTINUOUS
10
0.0748503937007874
20
0.1883070866141732
11
0.0748503937007874
21
0.1683070866141732
0
LINE
8
BLACK
6
CONTINUOUS
10
0.2225695275590551
20
0.2113753543307087
11
0.2206536614173228
21
0.2100951968503937
0
LINE
8
BLACK
6
CONTINUOUS
10
0.2206536614173228
20
0.2100951968503937
11
0.2183937007874016
21
0.2096456692913386
0
LINE
8
BLACK
6
CONTINUOUS
10
0.2183937007874016
20
0.2096456692913386
11
0.2008346456692913
21
0.2096456692913386
0
LINE
8
BLACK
6
CONTINUOUS
10
0.2008346456692913
20
0.2096456692913386
11
0.2008346456692913
21
0.1896457086614173
0
LINE
8
BLACK
6
CONTINUOUS
10
0.2008346456692913
20
0.1896457086614173
11
0.2210100393700787
21
0.1896457086614173
0
LINE
8
BLACK
6
CONTINUOUS
10
0.2210100393700787
20
0.1896457086614173
11
0.2210100787401575
21
0.1896457480314961
0
LINE
8
BLACK
6
CONTINUOUS
10
0.2210100787401575
20
0.1896457480314961
11
0.2224784251968504
21
0.1897612598425197
0
LINE
8
BLACK
6
CONTINUOUS
10
0.2224784251968504
20
0.1897612598425197
11
0.2287638188976378
21
0.1915873622047244
0
LINE
8
BLACK
6
CONTINUOUS
10
0.2287638188976378
20
0.1915873622047244
11
0.2343975590551181
21
0.1949191338582677
0
LINE
8
BLACK
6
CONTINUOUS
10
0.2343975590551181
20
0.1949191338582677
11
0.2390257480314961
21
0.1995473228346457
0
LINE
8
BLACK
6
CONTINUOUS
10
0.2390257480314961
20
0.1995473228346457
11
0.2423575196850394
21
0.205181062992126
0
LINE
8
BLACK
6
CONTINUOUS
10
0.2423575196850394
20
0.205181062992126
11
0.2441808267716535
21
0.2114566929133858
0
LINE
8
BLACK
6
CONTINUOUS
10
0.2441808267716535
20
0.2114566929133858
11
0.2226238582677165
21
0.2114566929133858
0
LINE
8
BLACK
6
CONTINUOUS
10
0.2226238582677165
20
0.2114566929133858
11
0.2225695275590551
21
0.2113753543307087
0
LINE
8
BLACK
6
CONTINUOUS
10
0.1393117322834646
20
0.205181062992126
11
0.1426435039370079
21
0.1995473228346457
0
LINE
8
BLACK
6
CONTINUOUS
10
0.1426435039370079
20
0.1995473228346457
11
0.1472716929133858
21
0.1949191338582677
0
LINE
8
BLACK
6
CONTINUOUS
10
0.1472716929133858
20
0.1949191338582677
11
0.1529054330708661
21
0.1915873622047244
0
LINE
8
BLACK
6
CONTINUOUS
10
0.1529054330708661
20
0.1915873622047244
11
0.159190748031496
21
0.1897612598425197
0
LINE
8
BLACK
6
CONTINUOUS
10
0.159190748031496
20
0.1897612598425197
11
0.1606591732283464
21
0.1896457086614173
0
LINE
8
BLACK
6
CONTINUOUS
10
0.1606591732283464
20
0.1896457086614173
11
0.1808346456692913
21
0.1896457086614173
0
LINE
8
BLACK
6
CONTINUOUS
10
0.1808346456692913
20
0.1896457086614173
11
0.1808346456692913
21
0.2096456692913386
0
LINE
8
BLACK
6
CONTINUOUS
10
0.1808346456692913
20
0.2096456692913386
11
0.1632755905511811
21
0.2096456692913386
0
LINE
8
BLACK
6
CONTINUOUS
10
0.1632755905511811
20
0.2096456692913386
11
0.1610156299212598
21
0.2100951968503937
0
LINE
8
BLACK
6
CONTINUOUS
10
0.1610156299212598
20
0.2100951968503937
11
0.1590997637795276
21
0.2113753543307087
0
LINE
8
BLACK
6
CONTINUOUS
10
0.1590997637795276
20
0.2113753543307087
11
0.1590454330708661
21
0.2114566929133858
0
LINE
8
BLACK
6
CONTINUOUS
10
0.1590454330708661
20
0.2114566929133858
11
0.1374884645669291
21
0.2114566929133858
0
LINE
8
BLACK
6
CONTINUOUS
10
0.1374884645669291
20
0.2114566929133858
11
0.1393117322834646
21
0.205181062992126
0
LINE
8
BLACK
6
CONTINUOUS
10
0.0522637795275591
20
0.2676649212598425
11
0.0530895275590551
21
0.2645832283464567
0
LINE
8
BLACK
6
CONTINUOUS
10
0.0530895275590551
20
0.2645832283464567
11
0.0530895275590551
21
0.2645831889763779
0
LINE
8
BLACK
6
CONTINUOUS
10
0.0530895275590551
20
0.2645831889763779
11
0.0534724015748031
21
0.2631542519685039
0
LINE
8
BLACK
6
CONTINUOUS
10
0.0534724015748031
20
0.2631542519685039
11
0.0534725590551181
21
0.2631538976377953
0
LINE
8
BLACK
6
CONTINUOUS
10
0.0534725590551181
20
0.2631538976377953
11
0.0558074409448819
21
0.2591097637795275
0
LINE
8
BLACK
6
CONTINUOUS
10
0.0558074409448819
20
0.2591097637795275
11
0.0756424409448819
21
0.2392747244094488
0
LINE
8
BLACK
6
CONTINUOUS
10
0.0756424409448819
20
0.2392747244094488
11
0.0764708267716535
21
0.2375949606299212
0
LINE
8
BLACK
6
CONTINUOUS
10
0.0764708267716535
20
0.2375949606299212
11
0.0769667322834646
21
0.2338283070866142
0
LINE
8
BLACK
6
CONTINUOUS
10
0.0769667322834646
20
0.2338283070866142
11
0.0793489763779528
21
0.228077125984252
0
LINE
8
BLACK
6
CONTINUOUS
10
0.0793489763779528
20
0.228077125984252
11
0.0831383858267716
21
0.2231386220472441
0
LINE
8
BLACK
6
CONTINUOUS
10
0.0831383858267716
20
0.2231386220472441
11
0.0831385826771654
21
0.2231384251968504
0
LINE
8
BLACK
6
CONTINUOUS
10
0.0831385826771654
20
0.2231384251968504
11
0.086430905511811
21
0.2206121653543307
0
LINE
8
BLACK
6
CONTINUOUS
10
0.086430905511811
20
0.2206121653543307
11
0.088077125984252
21
0.2193489763779528
0
LINE
8
BLACK
6
CONTINUOUS
10
0.088077125984252
20
0.2193489763779528
11
0.0938282677165354
21
0.2169667716535433
0
LINE
8
BLACK
6
CONTINUOUS
10
0.0938282677165354
20
0.2169667716535433
11
0.1
21
0.2161542519685039
0
LINE
8
BLACK
6
CONTINUOUS
10
0.1
20
0.2161542519685039
11
0.1061717322834646
21
0.2169667716535433
0
LINE
8
BLACK
6
CONTINUOUS
10
0.1061717322834646
20
0.2169667716535433
11
0.111922874015748
21
0.2193489763779528
0
LINE
8
BLACK
6
CONTINUOUS
10
0.111922874015748
20
0.2193489763779528
11
0.1168614960629921
21
0.2231385039370079
0
LINE
8
BLACK
6
CONTINUOUS
10
0.1168614960629921
20
0.2231385039370079
11
0.1206510236220472
21
0.228077125984252
0
LINE
8
BLACK
6
CONTINUOUS
10
0.1206510236220472
20
0.228077125984252
11
0.1230332283464567
21
0.2338282677165354
0
LINE
8
BLACK
6
CONTINUOUS
10
0.1230332283464567
20
0.2338282677165354
11
0.1238457480314961
21
0.24
0
LINE
8
BLACK
6
CONTINUOUS
10
0.1238457480314961
20
0.24
11
0.1238457480314961
21
0.2400000393700787
0
LINE
8
BLACK
6
CONTINUOUS
10
0.1238457480314961
20
0.2400000393700787
11
0.1238457480314961
21
0.2401771653543307
0
LINE
8
BLACK
6
CONTINUOUS
10
0.1238457480314961
20
0.2401771653543307
11
0.1246990551181102
21
0.2422372440944882
0
LINE
8
BLACK
6
CONTINUOUS
10
0.1246990551181102
20
0.2422372440944882
11
0.1267591338582677
21
0.2430905511811023
0
LINE
8
BLACK
6
CONTINUOUS
10
0.1267591338582677
20
0.2430905511811023
11
0.137372874015748
21
0.2430905511811023
0
LINE
8
BLACK
6
CONTINUOUS
10
0.137372874015748
20
0.2430905511811023
11
0.1394329527559055
21
0.2422372440944882
0
LINE
8
BLACK
6
CONTINUOUS
10
0.1394329527559055
20
0.2422372440944882
11
0.1402862598425197
21
0.2401771653543307
0
LINE
8
BLACK
6
CONTINUOUS
10
0.1402862598425197
20
0.2401771653543307
11
0.1398805905511811
21
0.2386941732283465
0
LINE
8
BLACK
6
CONTINUOUS
10
0.1398805905511811
20
0.2386941732283465
11
0.1393117322834646
21
0.2377322440944882
0
LINE
8
BLACK
6
CONTINUOUS
10
0.1393117322834646
20
0.2377322440944882
11
0.1374884645669291
21
0.2314566929133858
0
LINE
8
BLACK
6
CONTINUOUS
10
0.1374884645669291
20
0.2314566929133858
11
0.1590454330708661
21
0.2314566929133858
0
LINE
8
BLACK
6
CONTINUOUS
10
0.1590454330708661
20
0.2314566929133858
11
0.1590997637795276
21
0.231538031496063
0
LINE
8
BLACK
6
CONTINUOUS
10
0.1590997637795276
20
0.231538031496063
11
0.1610156299212598
21
0.232818188976378
0
LINE
8
BLACK
6
CONTINUOUS
10
0.1610156299212598
20
0.232818188976378
11
0.1632755905511811
21
0.2332677165354331
0
LINE
8
BLACK
6
CONTINUOUS
10
0.1632755905511811
20
0.2332677165354331
11
0.2183937007874016
21
0.2332677165354331
0
LINE
8
BLACK
6
CONTINUOUS
10
0.2183937007874016
20
0.2332677165354331
11
0.2206536614173228
21
0.232818188976378
0
LINE
8
BLACK
6
CONTINUOUS
10
0.2206536614173228
20
0.232818188976378
11
0.2225695275590551
21
0.231538031496063
0
LINE
8
BLACK
6
CONTINUOUS
10
0.2225695275590551
20
0.231538031496063
11
0.2226238582677165
21
0.2314566929133858
0
LINE
8
BLACK
6
CONTINUOUS
10
0.2226238582677165
20
0.2314566929133858
11
0.2441807874015748
21
0.2314566929133858
0
LINE
8
BLACK
6
CONTINUOUS
10
0.2441807874015748
20
0.2314566929133858
11
0.2423575196850394
21
0.2377323622047244
0
LINE
8
BLACK
6
CONTINUOUS
10
0.2423575196850394
20
0.2377323622047244
11
0.2390257480314961
21
0.2433661023622047
0
LINE
8
BLACK
6
CONTINUOUS
10
0.2390257480314961
20
0.2433661023622047
11
0.2343975590551181
21
0.2479942913385827
0
LINE
8
BLACK
6
CONTINUOUS
10
0.2343975590551181
20
0.2479942913385827
11
0.2292991338582677
21
0.2510094488188976
0
LINE
8
BLACK
6
CONTINUOUS
10
0.2292991338582677
20
0.2510094488188976
11
0.2279603149606299
21
0.2527925984251969
0
LINE
8
BLACK
6
CONTINUOUS
10
0.2279603149606299
20
0.2527925984251969
11
0.2282744881889764
21
0.255000157480315
0
LINE
8
BLACK
6
CONTINUOUS
10
0.2282744881889764
20
0.255000157480315
11
0.228721968503937
21
0.2555770866141732
0
LINE
8
BLACK
6
CONTINUOUS
10
0.228721968503937
20
0.2555770866141732
11
0.2297794488188976
21
0.2566345275590551
0
LINE
8
BLACK
6
CONTINUOUS
10
0.2297794488188976
20
0.2566345275590551
11
0.2318020866141732
21
0.2607719291338583
0
LINE
8
BLACK
6
CONTINUOUS
10
0.2318020866141732
20
0.2607719291338583
11
0.2321929133858268
21
0.2634543307086614
0
LINE
8
BLACK
6
CONTINUOUS
10
0.2321929133858268
20
0.2634543307086614
11
0.2321929133858268
21
0.2778842519685039
0
LINE
8
BLACK
6
CONTINUOUS
10
0.2321929133858268
20
0.2778842519685039
11
0.2318020866141732
21
0.2805666535433071
0
LINE
8
BLACK
6
CONTINUOUS
10
0.2318020866141732
20
0.2805666535433071
11
0.2297794488188976
21
0.2847040551181103
0
LINE
8
BLACK
6
CONTINUOUS
10
0.2297794488188976
20
0.2847040551181103
11
0.2265229527559055
21
0.2879605511811024
0
LINE
8
BLACK
6
CONTINUOUS
10
0.2265229527559055
20
0.2879605511811024
11
0.2265229133858268
21
0.2879605905511811
0
LINE
8
BLACK
6
CONTINUOUS
10
0.2265229133858268
20
0.2879605905511811
11
0.2223855905511811
21
0.2899831889763779
0
LINE
8
BLACK
6
CONTINUOUS
10
0.2223855905511811
20
0.2899831889763779
11
0.2197033070866142
21
0.2903740157480315
0
LINE
8
BLACK
6
CONTINUOUS
10
0.2197033070866142
20
0.2903740157480315
11
0.2197031496062992
21
0.2903740157480315
0
LINE
8
BLACK
6
CONTINUOUS
10
0.2197031496062992
20
0.2903740157480315
11
0.1622183464566929
21
0.2903740157480315
0
LINE
8
BLACK
6
CONTINUOUS
10
0.1622183464566929
20
0.2903740157480315
11
0.1601582677165354
21
0.2912273228346456
0
LINE
8
BLACK
6
CONTINUOUS
10
0.1601582677165354
20
0.2912273228346456
11
0.1593049606299212
21
0.2932874015748032
0
LINE
8
BLACK
6
CONTINUOUS
10
0.1593049606299212
20
0.2932874015748032
11
0.1593220472440945
21
0.2935479921259843
0
LINE
8
BLACK
6
CONTINUOUS
10
0.1593220472440945
20
0.2935479921259843
11
0.1593220472440945
21
0.2937989763779528
0
LINE
8
BLACK
6
CONTINUOUS
10
0.1593220472440945
20
0.2937989763779528
11
0.1593962598425197
21
0.2937989763779528
0
LINE
8
BLACK
6
CONTINUOUS
10
0.1593962598425197
20
0.2937989763779528
11
0.1599066141732284
21
0.2957041732283465
0
LINE
8
BLACK
6
CONTINUOUS
10
0.1599066141732284
20
0.2957041732283465
11
0.1601576771653543
21
0.2959905511811023
0
LINE
8
BLACK
6
CONTINUOUS
10
0.1601576771653543
20
0.2959905511811023
11
0.1634911023622047
21
0.2993238976377953
0
LINE
8
BLACK
6
CONTINUOUS
10
0.1634911023622047
20
0.2993238976377953
11
0.1655511417322835
21
0.3001771653543307
0
LINE
8
BLACK
6
CONTINUOUS
10
0.1655511417322835
20
0.3001771653543307
11
0.2197029133858268
21
0.3001771653543307
0
LINE
8
BLACK
6
CONTINUOUS
10
0.2197029133858268
20
0.3001771653543307
11
0.2197031496062992
21
0.3001771653543307
0
LINE
8
BLACK
6
CONTINUOUS
10
0.2197031496062992
20
0.3001771653543307
11
0.2223855511811024
21
0.3005679921259842
0
LINE
8
BLACK
6
CONTINUOUS
10
0.2223855511811024
20
0.3005679921259842
11
0.2265229527559055
21
0.3025906299212598
0
LINE
8
BLACK
6
CONTINUOUS
10
0.2265229527559055
20
0.3025906299212598
11
0.2297794488188976
21
0.305847125984252
0
LINE
8
BLACK
6
CONTINUOUS
10
0.2297794488188976
20
0.305847125984252
11
0.2318020866141732
21
0.3099845275590551
0
LINE
8
BLACK
6
CONTINUOUS
10
0.2318020866141732
20
0.3099845275590551
11
0.2321929133858268
21
0.3126669291338582
0
LINE
8
BLACK
6
CONTINUOUS
10
0.2321929133858268
20
0.3126669291338582
11
0.2321929133858268
21
0.3270968503937008
0
LINE
8
BLACK
6
CONTINUOUS
10
0.2321929133858268
20
0.3270968503937008
11
0.2318020866141732
21
0.3297792519685039
0
LINE
8
BLACK
6
CONTINUOUS
10
0.2318020866141732
20
0.3297792519685039
11
0.2297794488188976
21
0.3339166535433071
0
LINE
8
BLACK
6
CONTINUOUS
10
0.2297794488188976
20
0.3339166535433071
11
0.2265229527559055
21
0.3371731496062992
0
LINE
8
BLACK
6
CONTINUOUS
10
0.2265229527559055
20
0.3371731496062992
11
0.2265229133858268
21
0.3371731889763779
0
LINE
8
BLACK
6
CONTINUOUS
10
0.2265229133858268
20
0.3371731889763779
11
0.2223855905511811
21
0.3391957874015748
0
LINE
8
BLACK
6
CONTINUOUS
10
0.2223855905511811
20
0.3391957874015748
11
0.2197033070866142
21
0.3395866141732283
0
LINE
8
BLACK
6
CONTINUOUS
10
0.2197033070866142
20
0.3395866141732283
11
0.2197031496062992
21
0.3395866141732283
0
LINE
8
BLACK
6
CONTINUOUS
10
0.2197031496062992
20
0.3395866141732283
11
0.1619661417322835
21
0.3395866141732283
0
LINE
8
BLACK
6
CONTINUOUS
10
0.1619661417322835
20
0.3395866141732283
11
0.1619659448818898
21
0.3395866141732283
0
LINE
8
BLACK
6
CONTINUOUS
10
0.1619659448818898
20
0.3395866141732283
11
0.1592837007874016
21
0.3391957874015748
0
LINE
8
BLACK
6
CONTINUOUS
10
0.1592837007874016
20
0.3391957874015748
11
0.1592835039370079
21
0.3391957086614173
0
LINE
8
BLACK
6
CONTINUOUS
10
0.1592835039370079
20
0.3391957086614173
11
0.1588076771653543
21
0.3389631102362204
0
LINE
8
BLACK
6
CONTINUOUS
10
0.1588076771653543
20
0.3389631102362204
11
0.1565821653543307
21
0.3388250393700787
0
LINE
8
BLACK
6
CONTINUOUS
10
0.1565821653543307
20
0.3388250393700787
11
0.1549108661417323
21
0.3403011023622047
0
LINE
8
BLACK
6
CONTINUOUS
10
0.1549108661417323
20
0.3403011023622047
11
0.1548366535433071
21
0.3404656299212598
0
LINE
8
BLACK
6
CONTINUOUS
10
0.1548366535433071
20
0.3404656299212598
11
0.1547829527559055
21
0.3405952755905512
0
LINE
8
BLACK
6
CONTINUOUS
10
0.1547829527559055
20
0.3405952755905512
11
0.1547829527559055
21
0.3405953543307086
0
LINE
8
BLACK
6
CONTINUOUS
10
0.1547829527559055
20
0.3405953543307086
11
0.1524007480314961
21
0.3463464960629921
0
LINE
8
BLACK
6
CONTINUOUS
10
0.1524007480314961
20
0.3463464960629921
11
0.1521514566929134
21
0.3466713779527559
0
LINE
8
BLACK
6
CONTINUOUS
10
0.1521514566929134
20
0.3466713779527559
11
0.1515743700787402
21
0.348825157480315
0
LINE
8
BLACK
6
CONTINUOUS
10
0.1515743700787402
20
0.348825157480315
11
0.1526892519685039
21
0.3507562204724409
0
LINE
8
BLACK
6
CONTINUOUS
10
0.1526892519685039
20
0.3507562204724409
11
0.1544628346456693
21
0.3513582677165354
0
LINE
8
BLACK
6
CONTINUOUS
10
0.1544628346456693
20
0.3513582677165354
11
0.1553825196850394
21
0.3513582677165354
0
LINE
8
BLACK
6
CONTINUOUS
10
0.1553825196850394
20
0.3513582677165354
11
0.1566620472440945
21
0.3510622440944882
0
LINE
8
BLACK
6
CONTINUOUS
10
0.1566620472440945
20
0.3510622440944882
11
0.1590322834645669
21
0.3499035433070866
0
LINE
8
BLACK
6
CONTINUOUS
10
0.1590322834645669
20
0.3499035433070866
11
0.1592837401574803
21
0.3497805905511811
0
LINE
8
BLACK
6
CONTINUOUS
10
0.1592837401574803
20
0.3497805905511811
11
0.1619661417322835
21
0.3493897637795276
0
LINE
8
BLACK
6
CONTINUOUS
10
0.1619661417322835
20
0.3493897637795276
11
0.1619663779527559
21
0.3493897637795276
0
LINE
8
BLACK
6
CONTINUOUS
10
0.1619663779527559
20
0.3493897637795276
11
0.2197029133858268
21
0.3493897637795276
0
LINE
8
BLACK
6
CONTINUOUS
10
0.2197029133858268
20
0.3493897637795276
11
0.2197031496062992
21
0.3493897637795276
0
LINE
8
BLACK
6
CONTINUOUS
10
0.2197031496062992
20
0.3493897637795276
11
0.2223855511811024
21
0.3497805905511811
0
LINE
8
BLACK
6
CONTINUOUS
10
0.2223855511811024
20
0.3497805905511811
11
0.2265229527559055
21
0.3518032283464567
0
LINE
8
BLACK
6
CONTINUOUS
10
0.2265229527559055
20
0.3518032283464567
11
0.2271931889763779
21
0.3524734645669291
0
LINE
8
BLACK
6
CONTINUOUS
10
0.2271931889763779
20
0.3524734645669291
11
0.2292532677165354
21
0.3533267716535433
0
LINE
8
BLACK
6
CONTINUOUS
10
0.2292532677165354
20
0.3533267716535433
11
0.2319041732283464
21
0.3533267716535433
0
LINE
8
BLACK
6
CONTINUOUS
10
0.2319041732283464
20
0.3533267716535433
11
0.2336777165354331
21
0.3527247244094488
0
LINE
8
BLACK
6
CONTINUOUS
10
0.2336777165354331
20
0.3527247244094488
11
0.2358443307086614
21
0.3510622440944882
0
LINE
8
BLACK
6
CONTINUOUS
10
0.2358443307086614
20
0.3510622440944882
11
0.238077125984252
21
0.3493489763779528
0
LINE
8
BLACK
6
CONTINUOUS
10
0.238077125984252
20
0.3493489763779528
11
0.2438282677165354
21
0.3469667716535433
0
LINE
8
BLACK
6
CONTINUOUS
10
0.2438282677165354
20
0.3469667716535433
11
0.25
21
0.3461542519685039
0
LINE
8
BLACK
6
CONTINUOUS
10
0.25
20
0.3461542519685039
11
0.2561717322834646
21
0.3469667716535433
0
LINE
8
BLACK
6
CONTINUOUS
10
0.2561717322834646
20
0.3469667716535433
11
0.261922874015748
21
0.3493489763779528
0
LINE
8
BLACK
6
CONTINUOUS
10
0.261922874015748
20
0.3493489763779528
11
0.2668614960629921
21
0.3531385039370079
0
LINE
8
BLACK
6
CONTINUOUS
10
0.2668614960629921
20
0.3531385039370079
11
0.2706510236220472
21
0.358077125984252
0
LINE
8
BLACK
6
CONTINUOUS
10
0.2706510236220472
20
0.358077125984252
11
0.2730332283464567
21
0.3638282677165354
0
LINE
8
BLACK
6
CONTINUOUS
10
0.2730332283464567
20
0.3638282677165354
11
0.2738457480314961
21
0.37
0
LINE
8
BLACK
6
CONTINUOUS
10
0.2738457480314961
20
0.37
11
0.2730332283464567
21
0.3761717322834646
0
LINE
8
BLACK
6
CONTINUOUS
10
0.2730332283464567
20
0.3761717322834646
11
0.2706510236220472
21
0.381922874015748
0
LINE
8
BLACK
6
CONTINUOUS
10
0.2706510236220472
20
0.381922874015748
11
0.2683764960629921
21
0.384887125984252
0
LINE
8
BLACK
6
CONTINUOUS
10
0.2683764960629921
20
0.384887125984252
11
0.2668615748031496
21
0.3868614173228346
0
LINE
8
BLACK
6
CONTINUOUS
10
0.2668615748031496
20
0.3868614173228346
11
0.2668613779527559
21
0.3868616141732283
0
LINE
8
BLACK
6
CONTINUOUS
10
0.2668613779527559
20
0.3868616141732283
11
0.261922874015748
21
0.3906510236220472
0
LINE
8
BLACK
6
CONTINUOUS
10
0.261922874015748
20
0.3906510236220472
11
0.2561716929133858
21
0.3930332677165354
0
LINE
8
BLACK
6
CONTINUOUS
10
0.2561716929133858
20
0.3930332677165354
11
0.25
21
0.3938457480314961
0
LINE
8
BLACK
6
CONTINUOUS
10
0.25
20
0.3938457480314961
11
0.2438283070866142
21
0.3930332677165354
0
LINE
8
BLACK
6
CONTINUOUS
10
0.2438283070866142
20
0.3930332677165354
11
0.2438282677165354
21
0.3930332677165354
0
LINE
8
BLACK
6
CONTINUOUS
10
0.2438282677165354
20
0.3930332677165354
11
0.2380770866141732
21
0.3906510236220472
0
LINE
8
BLACK
6
CONTINUOUS
10
0.2380770866141732
20
0.3906510236220472
11
0.2331385826771654
21
0.3868616141732283
0
LINE
8
BLACK
6
CONTINUOUS
10
0.2331385826771654
20
0.3868616141732283
11
0.2331385433070866
21
0.3868615748031496
0
LINE
8
BLACK
6
CONTINUOUS
10
0.2331385433070866
20
0.3868615748031496
11
0.2328212204724409
21
0.3864480708661417
0
LINE
8
BLACK
6
CONTINUOUS
10
0.2328212204724409
20
0.3864480708661417
11
0.2324789763779528
21
0.3860020472440945
0
LINE
8
BLACK
6
CONTINUOUS
10
0.2324789763779528
20
0.3860020472440945
11
0.2305479921259843
21
0.384887125984252
0
LINE
8
BLACK
6
CONTINUOUS
10
0.2305479921259843
20
0.384887125984252
11
0.2301676771653543
21
0.3848622047244095
0
LINE
8
BLACK
6
CONTINUOUS
10
0.2301676771653543
20
0.3848622047244095
11
0.2292532677165354
21
0.3848622047244095
0
LINE
8
BLACK
6
CONTINUOUS
10
0.2292532677165354
20
0.3848622047244095
11
0.2271931889763779
21
0.3857155118110236
0
LINE
8
BLACK
6
CONTINUOUS
10
0.2271931889763779
20
0.3857155118110236
11
0.2265229133858268
21
0.3863857874015748
0
LINE
8
BLACK
6
CONTINUOUS
10
0.2265229133858268
20
0.3863857874015748
11
0.2223855905511811
21
0.3884083858267716
0
LINE
8
BLACK
6
CONTINUOUS
10
0.2223855905511811
20
0.3884083858267716
11
0.2197033070866142
21
0.3887992125984252
0
LINE
8
BLACK
6
CONTINUOUS
10
0.2197033070866142
20
0.3887992125984252
11
0.2197031496062992
21
0.3887992125984252
0
LINE
8
BLACK
6
CONTINUOUS
10
0.2197031496062992
20
0.3887992125984252
11
0.1619661417322835
21
0.3887992125984252
0
LINE
8
BLACK
6
CONTINUOUS
10
0.1619661417322835
20
0.3887992125984252
11
0.1619659448818898
21
0.3887992125984252
0
LINE
8
BLACK
6
CONTINUOUS
10
0.1619659448818898
20
0.3887992125984252
11
0.1592837007874016
21
0.3884083858267716
0
LINE
8
BLACK
6
CONTINUOUS
10
0.1592837007874016
20
0.3884083858267716
11
0.1592836614173228
21
0.3884083858267716
0
LINE
8
BLACK
6
CONTINUOUS
10
0.1592836614173228
20
0.3884083858267716
11
0.1566620472440945
21
0.3871267322834646
0
LINE
8
BLACK
6
CONTINUOUS
10
0.1566620472440945
20
0.3871267322834646
11
0.1553825196850394
21
0.3868307086614173
0
LINE
8
BLACK
6
CONTINUOUS
10
0.1553825196850394
20
0.3868307086614173
11
0.1167594488188976
21
0.3868307086614173
0
LINE
8
BLACK
6
CONTINUOUS
10
0.1167594488188976
20
0.3868307086614173
11
0.1135259448818898
21
0.3859642913385827
0
LINE
8
BLACK
6
CONTINUOUS
10
0.1135259448818898
20
0.3859642913385827
11
0.1122487401574803
21
0.3856220866141732
0
LINE
8
BLACK
6
CONTINUOUS
10
0.1122487401574803
20
0.3856220866141732
11
0.1122485039370079
21
0.385621968503937
0
LINE
8
BLACK
6
CONTINUOUS
10
0.1122485039370079
20
0.385621968503937
11
0.1082041732283465
21
0.3832870078740158
0
LINE
8
BLACK
6
CONTINUOUS
10
0.1082041732283465
20
0.3832870078740158
11
0.0558074015748031
21
0.330890157480315
0
LINE
8
BLACK
6
CONTINUOUS
10
0.0558074015748031
20
0.330890157480315
11
0.0534724803149606
21
0.3268459842519685
0
LINE
8
BLACK
6
CONTINUOUS
10
0.0534724803149606
20
0.3268459842519685
11
0.0534724409448819
21
0.3268458267716535
0
LINE
8
BLACK
6
CONTINUOUS
10
0.0534724409448819
20
0.3268458267716535
11
0.0532372047244094
21
0.3259680708661417
0
LINE
8
BLACK
6
CONTINUOUS
10
0.0532372047244094
20
0.3259680708661417
11
0.0532372440944882
21
0.325968031496063
0
LINE
8
BLACK
6
CONTINUOUS
10
0.0532372440944882
20
0.325968031496063
11
0.0522637795275591
21
0.3223349606299212
0
LINE
8
BLACK
6
CONTINUOUS
10
0.0522637795275591
20
0.3223349606299212
11
0.0522637795275591
21
0.2676649212598425
0
LINE
8
BLACK
6
CONTINUOUS
10
0.1172507874015748
20
0.4283200393700787
11
0.1151172047244094
21
0.4251268897637795
0
LINE
8
BLACK
6
CONTINUOUS
10
0.1151172047244094
20
0.4251268897637795
11
0.1119240551181102
21
0.4229933070866141
0
LINE
8
BLACK
6
CONTINUOUS
10
0.1119240551181102
20
0.4229933070866141
11
0.1081574803149606
21
0.4222440944881889
0
LINE
8
BLACK
6
CONTINUOUS
10
0.1081574803149606
20
0.4222440944881889
11
0.0748503937007874
21
0.4222440944881889
0
LINE
8
BLACK
6
CONTINUOUS
10
0.0748503937007874
20
0.4222440944881889
11
0.0748503937007874
21
0.402244094488189
0
LINE
8
BLACK
6
CONTINUOUS
10
0.0748503937007874
20
0.402244094488189
11
0.1101457874015748
21
0.402244094488189
0
LINE
8
BLACK
6
CONTINUOUS
10
0.1101457874015748
20
0.402244094488189
11
0.1101458267716535
21
0.4022441338582677
0
LINE
8
BLACK
6
CONTINUOUS
10
0.1101458267716535
20
0.4022441338582677
11
0.1142332677165354
21
0.4026616929133858
0
LINE
8
BLACK
6
CONTINUOUS
10
0.1142332677165354
20
0.4026616929133858
11
0.1208552755905512
21
0.4048560236220473
0
LINE
8
BLACK
6
CONTINUOUS
10
0.1208552755905512
20
0.4048560236220473
11
0.1267928346456693
21
0.4085183464566929
0
LINE
8
BLACK
6
CONTINUOUS
10
0.1267928346456693
20
0.4085183464566929
11
0.1267929921259842
21
0.4085184251968504
0
LINE
8
BLACK
6
CONTINUOUS
10
0.1267929921259842
20
0.4085184251968504
11
0.1317256692913386
21
0.4134511023622047
0
LINE
8
BLACK
6
CONTINUOUS
10
0.1317256692913386
20
0.4134511023622047
11
0.1317257480314961
21
0.4134512598425197
0
LINE
8
BLACK
6
CONTINUOUS
10
0.1317257480314961
20
0.4134512598425197
11
0.1353880708661417
21
0.4193888188976378
0
LINE
8
BLACK
6
CONTINUOUS
10
0.1353880708661417
20
0.4193888188976378
11
0.1375824015748031
21
0.4260108267716535
0
LINE
8
BLACK
6
CONTINUOUS
10
0.1375824015748031
20
0.4260108267716535
11
0.1379999606299213
21
0.4300982677165354
0
LINE
8
BLACK
6
CONTINUOUS
10
0.1379999606299213
20
0.4300982677165354
11
0.138
21
0.4300983464566929
0
LINE
8
BLACK
6
CONTINUOUS
10
0.138
20
0.4300983464566929
11
0.138
21
0.4319291338582677
0
LINE
8
BLACK
6
CONTINUOUS
10
0.138
20
0.4319291338582677
11
0.1179686614173228
21
0.4319291338582677
0
LINE
8
BLACK
6
CONTINUOUS
10
0.1179686614173228
20
0.4319291338582677
11
0.1172507874015748
21
0.4283200393700787
0
LINE
8
BLACK
6
CONTINUOUS
10
0.0748503937007874
20
0.4616141732283465
11
0.1081574803149606
21
0.4616141732283465
0
LINE
8
BLACK
6
CONTINUOUS
10
0.1081574803149606
20
0.4616141732283465
11
0.1119240551181102
21
0.4608649606299213
0
LINE
8
BLACK
6
CONTINUOUS
10
0.1119240551181102
20
0.4608649606299213
11
0.1151172047244094
21
0.4587313779527559
0
LINE
8
BLACK
6
CONTINUOUS
10
0.1151172047244094
20
0.4587313779527559
11
0.1172507874015748
21
0.4555382283464567
0
LINE
8
BLACK
6
CONTINUOUS
10
0.1172507874015748
20
0.4555382283464567
11
0.1179686614173228
21
0.4519291338582677
0
LINE
8
BLACK
6
CONTINUOUS
10
0.1179686614173228
20
0.4519291338582677
11
0.138
21
0.4519291338582677
0
LINE
8
BLACK
6
CONTINUOUS
10
0.138
20
0.4519291338582677
11
0.138
21
0.4537599606299212
0
LINE
8
BLACK
6
CONTINUOUS
10
0.138
20
0.4537599606299212
11
0.1379999606299213
21
0.4537600393700787
0
LINE
8
BLACK
6
CONTINUOUS
10
0.1379999606299213
20
0.4537600393700787
11
0.1375824015748031
21
0.4578474803149606
0
LINE
8
BLACK
6
CONTINUOUS
10
0.1375824015748031
20
0.4578474803149606
11
0.1353880708661417
21
0.4644694881889764
0
LINE
8
BLACK
6
CONTINUOUS
10
0.1353880708661417
20
0.4644694881889764
11
0.1317257480314961
21
0.4704070472440945
0
LINE
8
BLACK
6
CONTINUOUS
10
0.1317257480314961
20
0.4704070472440945
11
0.1317256692913386
21
0.4704071653543307
0
LINE
8
BLACK
6
CONTINUOUS
10
0.1317256692913386
20
0.4704071653543307
11
0.1267929921259842
21
0.475339842519685
0
LINE
8
BLACK
6
CONTINUOUS
10
0.1267929921259842
20
0.475339842519685
11
0.1267928346456693
21
0.4753399606299212
0
LINE
8
BLACK
6
CONTINUOUS
10
0.1267928346456693
20
0.4753399606299212
11
0.1208552755905512
21
0.4790022834645669
0
LINE
8
BLACK
6
CONTINUOUS
10
0.1208552755905512
20
0.4790022834645669
11
0.1142332677165354
21
0.4811966141732283
0
LINE
8
BLACK
6
CONTINUOUS
10
0.1142332677165354
20
0.4811966141732283
11
0.1101458267716535
21
0.4816141732283464
0
LINE
8
BLACK
6
CONTINUOUS
10
0.1101458267716535
20
0.4816141732283464
11
0.0748503937007874
21
0.4816141732283464
0
LINE
8
BLACK
6
CONTINUOUS
10
0.0748503937007874
20
0.4816141732283464
11
0.0748503937007874
21
0.4616141732283465
0
LINE
8
BLACK
6
CONTINUOUS
10
0.279507874015748
20
0.5409276377952755
11
0.279507874015748
21
0.4861257874015748
0
LINE
8
BLACK
6
CONTINUOUS
10
0.279507874015748
20
0.4861257874015748
11
0.279507874015748
21
0.484251968503937
0
LINE
8
BLACK
6
CONTINUOUS
10
0.279507874015748
20
0.484251968503937
11
0.279507874015748
21
0.481588188976378
0
LINE
8
BLACK
6
CONTINUOUS
10
0.279507874015748
20
0.481588188976378
11
0.2800980708661417
21
0.4790022834645669
0
LINE
8
BLACK
6
CONTINUOUS
10
0.2800980708661417
20
0.4790022834645669
11
0.2806933070866142
21
0.4763942519685039
0
LINE
8
BLACK
6
CONTINUOUS
10
0.2806933070866142
20
0.4763942519685039
11
0.2806934251968504
21
0.4763939763779527
0
LINE
8
BLACK
6
CONTINUOUS
10
0.2806934251968504
20
0.4763939763779527
11
0.2830048818897637
21
0.4715942519685039
0
LINE
8
BLACK
6
CONTINUOUS
10
0.2830048818897637
20
0.4715942519685039
11
0.2830049212598425
21
0.4715942125984252
0
LINE
8
BLACK
6
CONTINUOUS
10
0.2830049212598425
20
0.4715942125984252
11
0.2863265748031496
21
0.467428937007874
0
LINE
8
BLACK
6
CONTINUOUS
10
0.2863265748031496
20
0.467428937007874
11
0.2904918503937008
21
0.4641072834645669
0
LINE
8
BLACK
6
CONTINUOUS
10
0.2904918503937008
20
0.4641072834645669
11
0.2952918110236221
21
0.4617957086614173
0
LINE
8
BLACK
6
CONTINUOUS
10
0.2952918110236221
20
0.4617957086614173
11
0.3004858267716535
21
0.4606102362204724
0
LINE
8
BLACK
6
CONTINUOUS
10
0.3004858267716535
20
0.4606102362204724
11
0.3004859448818897
21
0.4606102362204724
0
LINE
8
BLACK
6
CONTINUOUS
10
0.3004859448818897
20
0.4606102362204724
11
0.3688053937007874
21
0.4606102362204724
0
LINE
8
BLACK
6
CONTINUOUS
10
0.3688053937007874
20
0.4606102362204724
11
0.3688055118110236
21
0.4606102362204724
0
LINE
8
BLACK
6
CONTINUOUS
10
0.3688055118110236
20
0.4606102362204724
11
0.3739995275590551
21
0.4617957086614173
0
LINE
8
BLACK
6
CONTINUOUS
10
0.3739995275590551
20
0.4617957086614173
11
0.3787994881889764
21
0.4641072834645669
0
LINE
8
BLACK
6
CONTINUOUS
10
0.3787994881889764
20
0.4641072834645669
11
0.3829647637795275
21
0.467428937007874
0
LINE
8
BLACK
6
CONTINUOUS
10
0.3829647637795275
20
0.467428937007874
11
0.3862864173228346
21
0.4715942125984252
0
LINE
8
BLACK
6
CONTINUOUS
10
0.3862864173228346
20
0.4715942125984252
11
0.3885979921259842
21
0.4763941732283464
0
LINE
8
BLACK
6
CONTINUOUS
10
0.3885979921259842
20
0.4763941732283464
11
0.3897834645669291
21
0.481588188976378
0
LINE
8
BLACK
6
CONTINUOUS
10
0.3897834645669291
20
0.481588188976378
11
0.3897834645669291
21
0.484251968503937
0
LINE
8
BLACK
6
CONTINUOUS
10
0.3897834645669291
20
0.484251968503937
11
0.3897834645669291
21
0.4861257874015748
0
LINE
8
BLACK
6
CONTINUOUS
10
0.3897834645669291
20
0.4861257874015748
11
0.3897834645669291
21
0.5409276377952755
0
LINE
8
BLACK
6
CONTINUOUS
10
0.3897834645669291
20
0.5409276377952755
11
0.3897834645669291
21
0.5420338582677166
0
LINE
8
BLACK
6
CONTINUOUS
10
0.3897834645669291
20
0.5420338582677166
11
0.3885979921259842
21
0.547227874015748
0
LINE
8
BLACK
6
CONTINUOUS
10
0.3885979921259842
20
0.547227874015748
11
0.3862864173228346
21
0.5520278346456693
0
LINE
8
BLACK
6
CONTINUOUS
10
0.3862864173228346
20
0.5520278346456693
11
0.3829647637795275
21
0.5561931102362204
0
LINE
8
BLACK
6
CONTINUOUS
10
0.3829647637795275
20
0.5561931102362204
11
0.3787994881889764
21
0.5595147637795276
0
LINE
8
BLACK
6
CONTINUOUS
10
0.3787994881889764
20
0.5595147637795276
11
0.3787994488188977
21
0.5595148031496063
0
LINE
8
BLACK
6
CONTINUOUS
10
0.3787994488188977
20
0.5595148031496063
11
0.3739997244094488
21
0.5618262598425197
0
LINE
8
BLACK
6
CONTINUOUS
10
0.3739997244094488
20
0.5618262598425197
11
0.3739994488188976
21
0.5618263779527559
0
LINE
8
BLACK
6
CONTINUOUS
10
0.3739994488188976
20
0.5618263779527559
11
0.3717009448818898
21
0.5623509842519685
0
LINE
8
BLACK
6
CONTINUOUS
10
0.3717009448818898
20
0.5623509842519685
11
0.3688055118110236
21
0.5630118110236221
0
LINE
8
BLACK
6
CONTINUOUS
10
0.3688055118110236
20
0.5630118110236221
11
0.3676992913385826
21
0.5630118110236221
0
LINE
8
BLACK
6
CONTINUOUS
10
0.3676992913385826
20
0.5630118110236221
11
0.3050234251968504
21
0.5630118110236221
0
LINE
8
BLACK
6
CONTINUOUS
10
0.3050234251968504
20
0.5630118110236221
11
0.3031496062992126
21
0.5630118110236221
0
LINE
8
BLACK
6
CONTINUOUS
10
0.3031496062992126
20
0.5630118110236221
11
0.3004858267716535
21
0.5630118110236221
0
LINE
8
BLACK
6
CONTINUOUS
10
0.3004858267716535
20
0.5630118110236221
11
0.298044094488189
21
0.5624545275590551
0
LINE
8
BLACK
6
CONTINUOUS
10
0.298044094488189
20
0.5624545275590551
11
0.2952918503937008
21
0.5618263779527559
0
LINE
8
BLACK
6
CONTINUOUS
10
0.2952918503937008
20
0.5618263779527559
11
0.2952915748031496
21
0.5618262598425197
0
LINE
8
BLACK
6
CONTINUOUS
10
0.2952915748031496
20
0.5618262598425197
11
0.2904918503937008
21
0.5595148031496063
0
LINE
8
BLACK
6
CONTINUOUS
10
0.2904918503937008
20
0.5595148031496063
11
0.2863265748031496
21
0.5561931102362204
0
LINE
8
BLACK
6
CONTINUOUS
10
0.2863265748031496
20
0.5561931102362204
11
0.2830048818897637
21
0.5520278346456693
0
LINE
8
BLACK
6
CONTINUOUS
10
0.2830048818897637
20
0.5520278346456693
11
0.2806934251968504
21
0.5472281102362204
0
LINE
8
BLACK
6
CONTINUOUS
10
0.2806934251968504
20
0.5472281102362204
11
0.2806933070866142
21
0.5472278346456693
0
LINE
8
BLACK
6
CONTINUOUS
10
0.2806933070866142
20
0.5472278346456693
11
0.2804847637795276
21
0.5463140157480315
0
LINE
8
BLACK
6
CONTINUOUS
10
0.2804847637795276
20
0.5463140157480315
11
0.279507874015748
21
0.5420338582677166
0
LINE
8
BLACK
6
CONTINUOUS
10
0.279507874015748
20
0.5420338582677166
11
0.279507874015748
21
0.5409276377952755
0
LINE
8
BLACK
6
CONTINUOUS
10
0.9895361417322834
20
0.2877227165354331
11
0.9923745669291338
21
0.2865470078740158
0
LINE
8
BLACK
6
CONTINUOUS
10
0.9923745669291338
20
0.2865470078740158
11
0.9935677559055118
21
0.2855677559055118
0
LINE
8
BLACK
6
CONTINUOUS
10
0.9935677559055118
20
0.2855677559055118
11
1.0010181102362206
21
0.2781174015748031
0
LINE
8
BLACK
6
CONTINUOUS
10
1.0010181102362206
20
0.2781174015748031
11
1.0049999999999999
21
0.278748031496063
0
LINE
8
BLACK
6
CONTINUOUS
10
1.0049999999999999
20
0.278748031496063
11
1.0098664173228347
21
0.2779772834645669
0
LINE
8
BLACK
6
CONTINUOUS
10
1.0098664173228347
20
0.2779772834645669
11
1.0142564566929133
21
0.2757404330708662
0
LINE
8
BLACK
6
CONTINUOUS
10
1.0142564566929133
20
0.2757404330708662
11
1.0177404330708661
21
0.2722564566929134
0
LINE
8
BLACK
6
CONTINUOUS
10
1.0177404330708661
20
0.2722564566929134
11
1.0199772834645668
21
0.2678664173228346
0
LINE
8
BLACK
6
CONTINUOUS
10
1.0199772834645668
20
0.2678664173228346
11
1.0207480314960631
21
0.263
0
LINE
8
BLACK
6
CONTINUOUS
10
1.0207480314960631
20
0.263
11
1.0199772834645668
21
0.2581335826771654
0
LINE
8
BLACK
6
CONTINUOUS
10
1.0199772834645668
20
0.2581335826771654
11
1.0177404330708661
21
0.2537435433070866
0
LINE
8
BLACK
6
CONTINUOUS
10
1.0177404330708661
20
0.2537435433070866
11
1.0142564566929133
21
0.2502595669291339
0
LINE
8
BLACK
6
CONTINUOUS
10
1.0142564566929133
20
0.2502595669291339
11
1.0098664173228347
21
0.2480227165354331
0
LINE
8
BLACK
6
CONTINUOUS
10
1.0098664173228347
20
0.2480227165354331
11
1.0049999999999999
21
0.247251968503937
0
LINE
8
BLACK
6
CONTINUOUS
10
1.0049999999999999
20
0.247251968503937
11
1.0001335826771653
21
0.2480227165354331
0
LINE
8
BLACK
6
CONTINUOUS
10
1.0001335826771653
20
0.2480227165354331
11
0.9957435433070866
21
0.2502595669291339
0
LINE
8
BLACK
6
CONTINUOUS
10
0.9957435433070866
20
0.2502595669291339
11
0.9922595669291339
21
0.2537435433070866
0
LINE
8
BLACK
6
CONTINUOUS
10
0.9922595669291339
20
0.2537435433070866
11
0.9900227165354331
21
0.2581335826771654
0
LINE
8
BLACK
6
CONTINUOUS
10
0.9900227165354331
20
0.2581335826771654
11
0.989251968503937
21
0.263
0
LINE
8
BLACK
6
CONTINUOUS
10
0.989251968503937
20
0.263
11
0.9898825984251969
21
0.2669818897637795
0
LINE
8
BLACK
6
CONTINUOUS
10
0.9898825984251969
20
0.2669818897637795
11
0.9847385039370079
21
0.2721259842519685
0
LINE
8
BLACK
6
CONTINUOUS
10
0.9847385039370079
20
0.2721259842519685
11
0.5774925590551181
21
0.2721259842519685
0
LINE
8
BLACK
6
CONTINUOUS
10
0.5774925590551181
20
0.2721259842519685
11
0.5478740157480315
21
0.2425074803149606
0
LINE
8
BLACK
6
CONTINUOUS
10
0.5478740157480315
20
0.2425074803149606
11
0.5478740157480315
21
0.1181437007874016
0
LINE
8
BLACK
6
CONTINUOUS
10
0.5478740157480315
20
0.1181437007874016
11
0.547722716535433
21
0.1166075590551181
0
LINE
8
BLACK
6
CONTINUOUS
10
0.547722716535433
20
0.1166075590551181
11
0.5465470078740158
21
0.1137691338582677
0
LINE
8
BLACK
6
CONTINUOUS
10
0.5465470078740158
20
0.1137691338582677
11
0.5455677559055118
21
0.112575905511811
0
LINE
8
BLACK
6
CONTINUOUS
10
0.5455677559055118
20
0.112575905511811
11
0.5325454724409449
21
0.0995537007874016
0
LINE
8
BLACK
6
CONTINUOUS
10
0.5325454724409449
20
0.0995537007874016
11
0.5331761417322834
21
0.095571811023622
0
LINE
8
BLACK
6
CONTINUOUS
10
0.5331761417322834
20
0.095571811023622
11
0.5324053937007874
21
0.0907053937007874
0
LINE
8
BLACK
6
CONTINUOUS
10
0.5324053937007874
20
0.0907053937007874
11
0.5301685433070866
21
0.0863153543307087
0
LINE
8
BLACK
6
CONTINUOUS
10
0.5301685433070866
20
0.0863153543307087
11
0.5266845669291339
21
0.0828313779527559
0
LINE
8
BLACK
6
CONTINUOUS
10
0.5266845669291339
20
0.0828313779527559
11
0.5222945275590551
21
0.0805945275590551
0
LINE
8
BLACK
6
CONTINUOUS
10
0.5222945275590551
20
0.0805945275590551
11
0.5174281102362205
21
0.079823779527559
0
LINE
8
BLACK
6
CONTINUOUS
10
0.5174281102362205
20
0.079823779527559
11
0.5125616929133858
21
0.0805945275590551
0
LINE
8
BLACK
6
CONTINUOUS
10
0.5125616929133858
20
0.0805945275590551
11
0.5081716535433071
21
0.0828313779527559
0
LINE
8
BLACK
6
CONTINUOUS
10
0.5081716535433071
20
0.0828313779527559
11
0.5046876771653543
21
0.0863153543307087
0
LINE
8
BLACK
6
CONTINUOUS
10
0.5046876771653543
20
0.0863153543307087
11
0.5024508267716535
21
0.0907053937007874
0
LINE
8
BLACK
6
CONTINUOUS
10
0.5024508267716535
20
0.0907053937007874
11
0.5016800787401575
21
0.095571811023622
0
LINE
8
BLACK
6
CONTINUOUS
10
0.5016800787401575
20
0.095571811023622
11
0.5024508267716535
21
0.1004382283464567
0
LINE
8
BLACK
6
CONTINUOUS
10
0.5024508267716535
20
0.1004382283464567
11
0.5046876771653543
21
0.1048282677165354
0
LINE
8
BLACK
6
CONTINUOUS
10
0.5046876771653543
20
0.1048282677165354
11
0.5081716535433071
21
0.1083122440944882
0
LINE
8
BLACK
6
CONTINUOUS
10
0.5081716535433071
20
0.1083122440944882
11
0.5125616929133858
21
0.110549094488189
0
LINE
8
BLACK
6
CONTINUOUS
10
0.5125616929133858
20
0.110549094488189
11
0.5174281102362205
21
0.111319842519685
0
LINE
8
BLACK
6
CONTINUOUS
10
0.5174281102362205
20
0.111319842519685
11
0.5214099606299213
21
0.1106892125984252
0
LINE
8
BLACK
6
CONTINUOUS
10
0.5214099606299213
20
0.1106892125984252
11
0.5321259842519684
21
0.1214052362204724
0
LINE
8
BLACK
6
CONTINUOUS
10
0.5321259842519684
20
0.1214052362204724
11
0.5321259842519684
21
0.2425074803149606
0
LINE
8
BLACK
6
CONTINUOUS
10
0.5321259842519684
20
0.2425074803149606
11
0.5139877952755906
21
0.2606456692913386
0
LINE
8
BLACK
6
CONTINUOUS
10
0.5139877952755906
20
0.2606456692913386
11
0.498444842519685
21
0.2606456692913386
0
LINE
8
BLACK
6
CONTINUOUS
10
0.498444842519685
20
0.2606456692913386
11
0.4977404330708661
21
0.2592632283464567
0
LINE
8
BLACK
6
CONTINUOUS
10
0.4977404330708661
20
0.2592632283464567
11
0.4942564566929133
21
0.2557792519685039
0
LINE
8
BLACK
6
CONTINUOUS
10
0.4942564566929133
20
0.2557792519685039
11
0.4898664173228346
21
0.2535424015748031
0
LINE
8
BLACK
6
CONTINUOUS
10
0.4898664173228346
20
0.2535424015748031
11
0.485
21
0.2527716535433071
0
LINE
8
BLACK
6
CONTINUOUS
10
0.485
20
0.2527716535433071
11
0.4801335826771653
21
0.2535424015748031
0
LINE
8
BLACK
6
CONTINUOUS
10
0.4801335826771653
20
0.2535424015748031
11
0.4757435433070866
21
0.2557792519685039
0
LINE
8
BLACK
6
CONTINUOUS
10
0.4757435433070866
20
0.2557792519685039
11
0.4722595669291338
21
0.2592632283464567
0
LINE
8
BLACK
6
CONTINUOUS
10
0.4722595669291338
20
0.2592632283464567
11
0.470022716535433
21
0.2636532677165354
0
LINE
8
BLACK
6
CONTINUOUS
10
0.470022716535433
20
0.2636532677165354
11
0.469251968503937
21
0.2685196850393701
0
LINE
8
BLACK
6
CONTINUOUS
10
0.469251968503937
20
0.2685196850393701
11
0.470022716535433
21
0.2733861023622047
0
LINE
8
BLACK
6
CONTINUOUS
10
0.470022716535433
20
0.2733861023622047
11
0.4722595669291338
21
0.2777761417322834
0
LINE
8
BLACK
6
CONTINUOUS
10
0.4722595669291338
20
0.2777761417322834
11
0.4757435433070866
21
0.2812601181102362
0
LINE
8
BLACK
6
CONTINUOUS
10
0.4757435433070866
20
0.2812601181102362
11
0.4801335826771653
21
0.283496968503937
0
LINE
8
BLACK
6
CONTINUOUS
10
0.4801335826771653
20
0.283496968503937
11
0.485
21
0.2842677165354331
0
LINE
8
BLACK
6
CONTINUOUS
10
0.485
20
0.2842677165354331
11
0.4898664173228346
21
0.283496968503937
0
LINE
8
BLACK
6
CONTINUOUS
10
0.4898664173228346
20
0.283496968503937
11
0.4942564566929133
21
0.2812601181102362
0
LINE
8
BLACK
6
CONTINUOUS
10
0.4942564566929133
20
0.2812601181102362
11
0.4977404330708661
21
0.2777761417322834
0
LINE
8
BLACK
6
CONTINUOUS
10
0.4977404330708661
20
0.2777761417322834
11
0.498444842519685
21
0.2763937007874016
0
LINE
8
BLACK
6
CONTINUOUS
10
0.498444842519685
20
0.2763937007874016
11
0.5172492913385827
21
0.2763937007874016
0
LINE
8
BLACK
6
CONTINUOUS
10
0.5172492913385827
20
0.2763937007874016
11
0.5187854330708661
21
0.2762424015748031
0
LINE
8
BLACK
6
CONTINUOUS
10
0.5187854330708661
20
0.2762424015748031
11
0.5216238582677165
21
0.2750666929133858
0
LINE
8
BLACK
6
CONTINUOUS
10
0.5216238582677165
20
0.2750666929133858
11
0.5228170472440945
21
0.2740874409448819
0
LINE
8
BLACK
6
CONTINUOUS
10
0.5228170472440945
20
0.2740874409448819
11
0.54
21
0.2569045275590551
0
LINE
8
BLACK
6
CONTINUOUS
10
0.54
20
0.2569045275590551
11
0.5686632283464567
21
0.2855677559055118
0
LINE
8
BLACK
6
CONTINUOUS
10
0.5686632283464567
20
0.2855677559055118
11
0.5698564566929134
21
0.2865470078740158
0
LINE
8
BLACK
6
CONTINUOUS
10
0.5698564566929134
20
0.2865470078740158
11
0.5726948818897638
21
0.2877227165354331
0
LINE
8
BLACK
6
CONTINUOUS
10
0.5726948818897638
20
0.2877227165354331
11
0.5742310236220473
21
0.2878740157480315
0
LINE
8
BLACK
6
CONTINUOUS
10
0.5742310236220473
20
0.2878740157480315
11
0.988
21
0.2878740157480315
0
LINE
8
BLACK
6
CONTINUOUS
10
0.988
20
0.2878740157480315
11
0.9895361417322834
21
0.2877227165354331
0
LINE
8
BLACK
6
CONTINUOUS
10
0.4148664173228346
20
0.3649772834645669
11
0.4192564566929134
21
0.3627404330708661
0
LINE
8
BLACK
6
CONTINUOUS
10
0.4192564566929134
20
0.3627404330708661
11
0.4227404330708661
21
0.3592564566929134
0
LINE
8
BLACK
6
CONTINUOUS
10
0.4227404330708661
20
0.3592564566929134
11
0.4249772834645669
21
0.3548664173228346
0
LINE
8
BLACK
6
CONTINUOUS
10
0.4249772834645669
20
0.3548664173228346
11
0.425748031496063
21
0.35
0
LINE
8
BLACK
6
CONTINUOUS
10
0.425748031496063
20
0.35
11
0.4251173622047244
21
0.3460181496062992
0
LINE
8
BLACK
6
CONTINUOUS
10
0.4251173622047244
20
0.3460181496062992
11
0.4582614960629921
21
0.3128740157480315
0
LINE
8
BLACK
6
CONTINUOUS
10
0.4582614960629921
20
0.3128740157480315
11
0.9677385039370079
21
0.3128740157480315
0
LINE
8
BLACK
6
CONTINUOUS
10
0.9677385039370079
20
0.3128740157480315
11
0.9978825984251968
21
0.3430181496062992
0
LINE
8
BLACK
6
CONTINUOUS
10
0.9978825984251968
20
0.3430181496062992
11
0.9972519685039369
21
0.347
0
LINE
8
BLACK
6
CONTINUOUS
10
0.9972519685039369
20
0.347
11
0.9980227165354331
21
0.3518664173228346
0
LINE
8
BLACK
6
CONTINUOUS
10
0.9980227165354331
20
0.3518664173228346
11
1.0002595669291339
21
0.3562564566929134
0
LINE
8
BLACK
6
CONTINUOUS
10
1.0002595669291339
20
0.3562564566929134
11
1.0037435433070865
21
0.3597404330708661
0
LINE
8
BLACK
6
CONTINUOUS
10
1.0037435433070865
20
0.3597404330708661
11
1.0081335826771654
21
0.3619772834645669
0
LINE
8
BLACK
6
CONTINUOUS
10
1.0081335826771654
20
0.3619772834645669
11
1.0129999999999999
21
0.362748031496063
0
LINE
8
BLACK
6
CONTINUOUS
10
1.0129999999999999
20
0.362748031496063
11
1.0178664173228347
21
0.3619772834645669
0
LINE
8
BLACK
6
CONTINUOUS
10
1.0178664173228347
20
0.3619772834645669
11
1.0222564566929133
21
0.3597404330708661
0
LINE
8
BLACK
6
CONTINUOUS
10
1.0222564566929133
20
0.3597404330708661
11
1.0257404330708662
21
0.3562564566929134
0
LINE
8
BLACK
6
CONTINUOUS
10
1.0257404330708662
20
0.3562564566929134
11
1.0279772834645668
21
0.3518664173228346
0
LINE
8
BLACK
6
CONTINUOUS
10
1.0279772834645668
20
0.3518664173228346
11
1.0287480314960629
21
0.347
0
LINE
8
BLACK
6
CONTINUOUS
10
1.0287480314960629
20
0.347
11
1.0279772834645668
21
0.3421335826771654
0
LINE
8
BLACK
6
CONTINUOUS
10
1.0279772834645668
20
0.3421335826771654
11
1.0257404330708662
21
0.3377435433070866
0
LINE
8
BLACK
6
CONTINUOUS
10
1.0257404330708662
20
0.3377435433070866
11
1.0222564566929133
21
0.3342595669291338
0
LINE
8
BLACK
6
CONTINUOUS
10
1.0222564566929133
20
0.3342595669291338
11
1.0178664173228347
21
0.3320227165354331
0
LINE
8
BLACK
6
CONTINUOUS
10
1.0178664173228347
20
0.3320227165354331
11
1.0129999999999999
21
0.331251968503937
0
LINE
8
BLACK
6
CONTINUOUS
10
1.0129999999999999
20
0.331251968503937
11
1.0090181102362203
21
0.3318826377952756
0
LINE
8
BLACK
6
CONTINUOUS
10
1.0090181102362203
20
0.3318826377952756
11
0.9765677559055118
21
0.2994322440944882
0
LINE
8
BLACK
6
CONTINUOUS
10
0.9765677559055118
20
0.2994322440944882
11
0.9753745669291338
21
0.2984529921259843
0
LINE
8
BLACK
6
CONTINUOUS
10
0.9753745669291338
20
0.2984529921259843
11
0.9725361417322834
21
0.2972772834645669
0
LINE
8
BLACK
6
CONTINUOUS
10
0.9725361417322834
20
0.2972772834645669
11
0.971
21
0.2971259842519685
0
LINE
8
BLACK
6
CONTINUOUS
10
0.971
20
0.2971259842519685
11
0.455
21
0.2971259842519685
0
LINE
8
BLACK
6
CONTINUOUS
10
0.455
20
0.2971259842519685
11
0.4534638582677165
21
0.2972772834645669
0
LINE
8
BLACK
6
CONTINUOUS
10
0.4534638582677165
20
0.2972772834645669
11
0.4506254330708661
21
0.2984529921259843
0
LINE
8
BLACK
6
CONTINUOUS
10
0.4506254330708661
20
0.2984529921259843
11
0.4494322440944882
21
0.2994322440944882
0
LINE
8
BLACK
6
CONTINUOUS
10
0.4494322440944882
20
0.2994322440944882
11
0.4139818503937008
21
0.3348826377952756
0
LINE
8
BLACK
6
CONTINUOUS
10
0.4139818503937008
20
0.3348826377952756
11
0.41
21
0.334251968503937
0
LINE
8
BLACK
6
CONTINUOUS
10
0.41
20
0.334251968503937
11
0.4051335826771654
21
0.3350227165354331
0
LINE
8
BLACK
6
CONTINUOUS
10
0.4051335826771654
20
0.3350227165354331
11
0.4007435433070866
21
0.3372595669291338
0
LINE
8
BLACK
6
CONTINUOUS
10
0.4007435433070866
20
0.3372595669291338
11
0.3972595669291338
21
0.3407435433070866
0
LINE
8
BLACK
6
CONTINUOUS
10
0.3972595669291338
20
0.3407435433070866
11
0.3950227165354331
21
0.3451335826771654
0
LINE
8
BLACK
6
CONTINUOUS
10
0.3950227165354331
20
0.3451335826771654
11
0.394251968503937
21
0.35
0
LINE
8
BLACK
6
CONTINUOUS
10
0.394251968503937
20
0.35
11
0.3950227165354331
21
0.3548664173228346
0
LINE
8
BLACK
6
CONTINUOUS
10
0.3950227165354331
20
0.3548664173228346
11
0.3972595669291338
21
0.3592564566929134
0
LINE
8
BLACK
6
CONTINUOUS
10
0.3972595669291338
20
0.3592564566929134
11
0.4007435433070866
21
0.3627404330708661
0
LINE
8
BLACK
6
CONTINUOUS
10
0.4007435433070866
20
0.3627404330708661
11
0.4051335826771654
21
0.3649772834645669
0
LINE
8
BLACK
6
CONTINUOUS
10
0.4051335826771654
20
0.3649772834645669
11
0.41
21
0.365748031496063
0
LINE
8
BLACK
6
CONTINUOUS
10
0.41
20
0.365748031496063
11
0.4148664173228346
21
0.3649772834645669
0
CIRCLE
8
BLACK
10
0.4921259842519685
20
0.5905511811023622
40
0.0068897637795276
0
CIRCLE
8
BLACK
10
0.4921259842519685
20
0.
40
0.0068897637795276
0
CIRCLE
8
BLACK
10
0.0984251968503937
20
0.5905511811023622
40
0.0068897637795276
0
CIRCLE
8
BLACK
10
0.8858267716535433
20
0.
40
0.0068897637795276
0
CIRCLE
8
BLACK
10
0.8858267716535433
20
0.5905511811023622
40
0.0068897637795276
0
CIRCLE
8
BLACK
10
0.0984251968503937
20
0.
40
0.0068897637795276
0
CIRCLE
8
BLACK
10
0.165
20
0.17
40
0.0078740157480315
0
CIRCLE
8
BLACK
10
0.045
20
0.505
40
0.0078740157480315
0
CIRCLE
8
BLACK
10
0.155
20
0.475
40
0.0078740157480315
0
CIRCLE
8
BLACK
10
0.085
20
0.505
40
0.0078740157480315
0
CIRCLE
8
BLACK
10
0.125
20
0.505
40
0.0078740157480315
0
CIRCLE
8
BLACK
10
0.0413043307086614
20
0.2127825984251968
40
0.0078740157480315
0
CIRCLE
8
BLACK
10
0.045
20
0.09
40
0.0078740157480315
0
CIRCLE
8
BLACK
10
0.41
20
0.26
40
0.0078740157480315
0
CIRCLE
8
BLACK
10
0.0605978346456693
20
0.3879238976377953
40
0.0078740157480315
0
CIRCLE
8
BLACK
10
0.135
20
0.09
40
0.0078740157480315
0
CIRCLE
8
BLACK
10
0.165
20
0.125
40
0.0078740157480315
0
CIRCLE
8
BLACK
10
0.0365354330708661
20
0.35
40
0.0078740157480315
0
CIRCLE
8
BLACK
10
0.09
20
0.09
40
0.0078740157480315
0
CIRCLE
8
BLACK
10
0.2
20
0.42
40
0.0078740157480315
0
CIRCLE
8
BLACK
10
0.03
20
0.3
40
0.0078740157480315
0
CIRCLE
8
BLACK
10
0.3828622047244095
20
0.4381377952755905
40
0.0078740157480315
0
CIRCLE
8
BLACK
10
0.0310194488188976
20
0.2532666141732283
40
0.0078740157480315
0
CIRCLE
8
BLACK
10
0.16
20
0.42
40
0.0078740157480315
0
CIRCLE
8
BLACK
10
0.485
20
0.2685196850393701
40
0.0078740157480315
0
CIRCLE
8
BLACK
10
1.0049999999999999
20
0.263
40
0.0078740157480315
0
CIRCLE
8
BLACK
10
0.5174281102362205
20
0.095571811023622
40
0.0078740157480315
0
CIRCLE
8
BLACK
10
0.1
20
0.24
40
0.0078740157480315
0
CIRCLE
8
BLACK
10
0.25
20
0.37
40
0.0078740157480315
0
CIRCLE
8
BLACK
10
1.0129999999999999
20
0.347
40
0.0078740157480315
0
CIRCLE
8
BLACK
10
0.41
20
0.35
40
0.0078740157480315
0
CIRCLE
8
BLACK
10
0.1317497244094488
20
0.3344236220472441
40
0.0078740157480315
0
CIRCLE
8
BLACK
10
0.1354762992125984
20
0.293608031496063
40
0.0078740157480315
  0
ENDSEC
  0
EOF
