  0
SECTION
  2
HEADER
  9
$ANGBASE
  50
0.0
  9
$ANGDIR
  70
1
  9
$MEASUREMENT
  70
0
  0
ENDSEC
  0
SECTION
  2
TABLES
  0
TABLE
  2
LTYPE
  70
4
  0
LTYPE
  5
40F
  2
CONTINUOUS
  70
0
  3
Solid line
  72
65
  73
0
  40
0.0
  0
LTYPE
  5
410
  2
DASHDOT
 70
0
  3
Dash Dot ____ _ ____ _
 72
65
 73
4
 40
2.0
 49
1.25
 49
-0.25
 49
0.25
 49
-0.25
  0
LTYPE
  5
411
  2
DASHED
 70
0
  3
Dashed __ __ __ __ __
 72
65
 73
2
 40
0.75
 49
0.5
 49
-0.25
  0
LTYPE
  5
43B
  2
DOTTED
 70
0
  3
Dotted .  .  .  .
 72
65
 73
2
 40
0.2
 49
0.0
 49
-0.2
  0
ENDTAB
  0
TABLE
  2
STYLE
  70
4
  0
STYLE
  2
KICAD
  70
0
  40
0
  41
1
  42
1
  50
0
  71
0
  3
isocp.shx
  0
STYLE
  2
KICADB
  70
0
  40
0
  41
1
  42
1
  50
0
  71
0
  3
isocp.shx
  0
STYLE
  2
KICADI
  70
0
  40
0
  41
1
  42
1
  50
15
  71
0
  3
isocp.shx
  0
STYLE
  2
KICADBI
  70
0
  40
0
  41
1
  42
1
  50
15
  71
0
  3
isocp.shx
  0
ENDTAB
  0
TABLE
  2
LAYER
  70
1
  0
LAYER
  2
BLACK
  70
0
  62
7
  6
CONTINUOUS
  0
ENDTAB
  0
ENDSEC
  0
SECTION
  2
ENTITIES
0
LINE
8
BLACK
6
CONTINUOUS
10
1.1249792125984253
20
0.5063097637795275
11
1.1321051968503937
21
0.5044003937007874
0
LINE
8
BLACK
6
CONTINUOUS
10
1.1321051968503937
20
0.5044003937007874
11
1.1387913385826771
21
0.5012825590551181
0
LINE
8
BLACK
6
CONTINUOUS
10
1.1387913385826771
20
0.5012825590551181
11
1.144834527559055
21
0.4970511023622047
0
LINE
8
BLACK
6
CONTINUOUS
10
1.144834527559055
20
0.4970511023622047
11
1.1500511023622046
21
0.4918345275590551
0
LINE
8
BLACK
6
CONTINUOUS
10
1.1500511023622046
20
0.4918345275590551
11
1.154282559055118
21
0.4857913385826771
0
LINE
8
BLACK
6
CONTINUOUS
10
1.154282559055118
20
0.4857913385826771
11
1.1574003937007873
21
0.4791051968503937
0
LINE
8
BLACK
6
CONTINUOUS
10
1.1574003937007873
20
0.4791051968503937
11
1.1593097637795275
21
0.4719792125984252
0
LINE
8
BLACK
6
CONTINUOUS
10
1.1593097637795275
20
0.4719792125984252
11
1.1599527559055118
21
0.4646299212598425
0
LINE
8
BLACK
6
CONTINUOUS
10
1.1599527559055118
20
0.4646299212598425
11
1.1598961417322835
21
0.4644557086614173
0
LINE
8
BLACK
6
CONTINUOUS
10
1.1598961417322835
20
0.4644557086614173
11
1.1599527559055118
21
0.1173700787401575
0
LINE
8
BLACK
6
CONTINUOUS
10
1.1599527559055118
20
0.1173700787401575
11
1.1593097637795275
21
0.1100207874015748
0
LINE
8
BLACK
6
CONTINUOUS
10
1.1593097637795275
20
0.1100207874015748
11
1.1574003937007873
21
0.1028948031496063
0
LINE
8
BLACK
6
CONTINUOUS
10
1.1574003937007873
20
0.1028948031496063
11
1.154282559055118
21
0.0962086614173228
0
LINE
8
BLACK
6
CONTINUOUS
10
1.154282559055118
20
0.0962086614173228
11
1.1500511023622046
21
0.0901654724409449
0
LINE
8
BLACK
6
CONTINUOUS
10
1.1500511023622046
20
0.0901654724409449
11
1.144834527559055
21
0.0849488976377953
0
LINE
8
BLACK
6
CONTINUOUS
10
1.144834527559055
20
0.0849488976377953
11
1.1387913385826771
21
0.0807174409448819
0
LINE
8
BLACK
6
CONTINUOUS
10
1.1387913385826771
20
0.0807174409448819
11
1.1321051968503937
21
0.0775996062992126
0
LINE
8
BLACK
6
CONTINUOUS
10
1.1321051968503937
20
0.0775996062992126
11
1.1249792125984253
21
0.0756902362204724
0
LINE
8
BLACK
6
CONTINUOUS
10
1.1249792125984253
20
0.0756902362204724
11
1.1176299212598424
21
0.0750472440944882
0
LINE
8
BLACK
6
CONTINUOUS
10
1.1176299212598424
20
0.0750472440944882
11
1.1174555511811024
21
0.0751038976377953
0
LINE
8
BLACK
6
CONTINUOUS
10
1.1174555511811024
20
0.0751038976377953
11
0.5993007086614173
21
0.0750472834645669
0
LINE
8
BLACK
6
CONTINUOUS
10
0.5993007086614173
20
0.0750472834645669
11
0.5993007086614173
21
0.0750472440944882
0
LINE
8
BLACK
6
CONTINUOUS
10
0.5993007086614173
20
0.0750472440944882
11
0.5993006692913385
21
0.0750472834645669
0
LINE
8
BLACK
6
CONTINUOUS
10
0.5993006692913385
20
0.0750472834645669
11
0.5993005905511811
21
0.0750472440944882
0
LINE
8
BLACK
6
CONTINUOUS
10
0.5993005905511811
20
0.0750472440944882
11
0.5992996456692913
21
0.0750473622047244
0
LINE
8
BLACK
6
CONTINUOUS
10
0.5992996456692913
20
0.0750473622047244
11
0.5919594094488189
21
0.0756885433070866
0
LINE
8
BLACK
6
CONTINUOUS
10
0.5919594094488189
20
0.0756885433070866
11
0.5848406299212598
21
0.0775935433070866
0
LINE
8
BLACK
6
CONTINUOUS
10
0.5848406299212598
20
0.0775935433070866
11
0.5781602362204724
21
0.0807044881889764
0
LINE
8
BLACK
6
CONTINUOUS
10
0.5781602362204724
20
0.0807044881889764
11
0.5721207086614173
21
0.0849270472440945
0
LINE
8
BLACK
6
CONTINUOUS
10
0.5721207086614173
20
0.0849270472440945
11
0.566905157480315
21
0.090133188976378
0
LINE
8
BLACK
6
CONTINUOUS
10
0.566905157480315
20
0.090133188976378
11
0.5626717322834646
21
0.0961650787401575
0
LINE
8
BLACK
6
CONTINUOUS
10
0.5626717322834646
20
0.0961650787401575
11
0.559548779527559
21
0.1028398818897638
0
LINE
8
BLACK
6
CONTINUOUS
10
0.559548779527559
20
0.1028398818897638
11
0.5576309842519684
21
0.1099551968503937
0
LINE
8
BLACK
6
CONTINUOUS
10
0.5576309842519684
20
0.1099551968503937
11
0.5569764566929134
21
0.1172953149606299
0
LINE
8
BLACK
6
CONTINUOUS
10
0.5569764566929134
20
0.1172953149606299
11
0.5569778346456693
21
0.1172953543307087
0
LINE
8
BLACK
6
CONTINUOUS
10
0.5569778346456693
20
0.1172953543307087
11
0.5570337401574803
21
0.1174684645669291
0
LINE
8
BLACK
6
CONTINUOUS
10
0.5570337401574803
20
0.1174684645669291
11
0.556836062992126
21
0.1975558661417323
0
LINE
8
BLACK
6
CONTINUOUS
10
0.556836062992126
20
0.1975558661417323
11
0.5568362598425197
21
0.1975582677165354
0
LINE
8
BLACK
6
CONTINUOUS
10
0.5568362598425197
20
0.1975582677165354
11
0.5574059842519685
21
0.2045525590551181
0
LINE
8
BLACK
6
CONTINUOUS
10
0.5574059842519685
20
0.2045525590551181
11
0.5591244488188977
21
0.2113587401574803
0
LINE
8
BLACK
6
CONTINUOUS
10
0.5591244488188977
20
0.2113587401574803
11
0.5619442519685039
21
0.2177873228346457
0
LINE
8
BLACK
6
CONTINUOUS
10
0.5619442519685039
20
0.2177873228346457
11
0.5657877952755905
21
0.2236614173228346
0
LINE
8
BLACK
6
CONTINUOUS
10
0.5657877952755905
20
0.2236614173228346
11
0.5705493307086614
21
0.2288194881889764
0
LINE
8
BLACK
6
CONTINUOUS
10
0.5705493307086614
20
0.2288194881889764
11
0.5705495669291338
21
0.2288192125984252
0
LINE
8
BLACK
6
CONTINUOUS
10
0.5705495669291338
20
0.2288192125984252
11
0.5707122047244094
21
0.2288934645669291
0
LINE
8
BLACK
6
CONTINUOUS
10
0.5707122047244094
20
0.2288934645669291
11
0.5912620078740157
21
0.2478186614173228
0
LINE
8
BLACK
6
CONTINUOUS
10
0.5912620078740157
20
0.2478186614173228
11
0.5912638188976378
21
0.2478200787401575
0
LINE
8
BLACK
6
CONTINUOUS
10
0.5912638188976378
20
0.2478200787401575
11
0.5961899606299212
21
0.2517072047244094
0
LINE
8
BLACK
6
CONTINUOUS
10
0.5961899606299212
20
0.2517072047244094
11
0.6016387795275591
21
0.2548241732283464
0
LINE
8
BLACK
6
CONTINUOUS
10
0.6016387795275591
20
0.2548241732283464
11
0.6074886614173228
21
0.2571010236220472
0
LINE
8
BLACK
6
CONTINUOUS
10
0.6074886614173228
20
0.2571010236220472
11
0.6136109842519685
21
0.2584876771653543
0
LINE
8
BLACK
6
CONTINUOUS
10
0.6136109842519685
20
0.2584876771653543
11
0.6198710236220473
21
0.2589535826771653
0
LINE
8
BLACK
6
CONTINUOUS
10
0.6198710236220473
20
0.2589535826771653
11
0.6198710236220473
21
0.2589527559055118
0
LINE
8
BLACK
6
CONTINUOUS
10
0.6198710236220473
20
0.2589527559055118
11
0.6200451181102362
21
0.2588962204724409
0
LINE
8
BLACK
6
CONTINUOUS
10
0.6200451181102362
20
0.2588962204724409
11
0.868692283464567
21
0.2589527559055118
0
LINE
8
BLACK
6
CONTINUOUS
10
0.868692283464567
20
0.2589527559055118
11
0.8686923228346457
21
0.2589527559055118
0
LINE
8
BLACK
6
CONTINUOUS
10
0.8686923228346457
20
0.2589527559055118
11
0.8686923622047243
21
0.2589527559055118
0
LINE
8
BLACK
6
CONTINUOUS
10
0.8686923622047243
20
0.2589527559055118
11
0.8686924803149606
21
0.2589527559055118
0
LINE
8
BLACK
6
CONTINUOUS
10
0.8686924803149606
20
0.2589527559055118
11
0.8753131102362205
21
0.2584317716535433
0
LINE
8
BLACK
6
CONTINUOUS
10
0.8753131102362205
20
0.2584317716535433
11
0.881770905511811
21
0.2568814960629921
0
LINE
8
BLACK
6
CONTINUOUS
10
0.881770905511811
20
0.2568814960629921
11
0.8879066535433071
21
0.2543400787401575
0
LINE
8
BLACK
6
CONTINUOUS
10
0.8879066535433071
20
0.2543400787401575
11
0.8935692913385826
21
0.2508700787401575
0
LINE
8
BLACK
6
CONTINUOUS
10
0.8935692913385826
20
0.2508700787401575
11
0.8986193700787402
21
0.246556968503937
0
LINE
8
BLACK
6
CONTINUOUS
10
0.8986193700787402
20
0.246556968503937
11
0.898619094488189
21
0.2465567322834646
0
LINE
8
BLACK
6
CONTINUOUS
10
0.898619094488189
20
0.2465567322834646
11
0.8987008267716535
21
0.2463962992125984
0
LINE
8
BLACK
6
CONTINUOUS
10
0.8987008267716535
20
0.2463962992125984
11
0.9255566929133858
21
0.2196191338582677
0
LINE
8
BLACK
6
CONTINUOUS
10
0.9255566929133858
20
0.2196191338582677
11
0.9255590157480315
21
0.2196162992125984
0
LINE
8
BLACK
6
CONTINUOUS
10
0.9255590157480315
20
0.2196162992125984
11
0.9275830708661417
21
0.2175922834645669
0
LINE
8
BLACK
6
CONTINUOUS
10
0.9275830708661417
20
0.2175922834645669
11
0.9322205905511811
21
0.2142229921259843
0
LINE
8
BLACK
6
CONTINUOUS
10
0.9322205905511811
20
0.2142229921259843
11
0.9373281102362204
21
0.2116206692913386
0
LINE
8
BLACK
6
CONTINUOUS
10
0.9373281102362204
20
0.2116206692913386
11
0.9427798031496063
21
0.2098493700787402
0
LINE
8
BLACK
6
CONTINUOUS
10
0.9427798031496063
20
0.2098493700787402
11
0.9484414960629921
21
0.2089527165354331
0
LINE
8
BLACK
6
CONTINUOUS
10
0.9484414960629921
20
0.2089527165354331
11
0.9513075984251969
21
0.2089527559055118
0
LINE
8
BLACK
6
CONTINUOUS
10
0.9513075984251969
20
0.2089527559055118
11
0.9514811417322835
21
0.2088963779527559
0
LINE
8
BLACK
6
CONTINUOUS
10
0.9514811417322835
20
0.2088963779527559
11
1.0774833464566929
21
0.2089527559055118
0
LINE
8
BLACK
6
CONTINUOUS
10
1.0774833464566929
20
0.2089527559055118
11
1.0774833858267716
21
0.2089527559055118
0
LINE
8
BLACK
6
CONTINUOUS
10
1.0774833858267716
20
0.2089527559055118
11
1.0774834251968504
21
0.2089527559055118
0
LINE
8
BLACK
6
CONTINUOUS
10
1.0774834251968504
20
0.2089527559055118
11
1.0774834251968504
21
0.2089534251968504
0
LINE
8
BLACK
6
CONTINUOUS
10
1.0774834251968504
20
0.2089534251968504
11
1.0803099212598426
21
0.2089557086614173
0
LINE
8
BLACK
6
CONTINUOUS
10
1.0803099212598426
20
0.2089557086614173
11
1.0858952362204723
21
0.2098279133858268
0
LINE
8
BLACK
6
CONTINUOUS
10
1.0858952362204723
20
0.2098279133858268
11
1.0912790551181102
21
0.2115515354330709
0
LINE
8
BLACK
6
CONTINUOUS
10
1.0912790551181102
20
0.2115515354330709
11
1.0963324015748031
21
0.2140853149606299
0
LINE
8
BLACK
6
CONTINUOUS
10
1.0963324015748031
20
0.2140853149606299
11
1.1009342519685039
21
0.2173685039370079
0
LINE
8
BLACK
6
CONTINUOUS
10
1.1009342519685039
20
0.2173685039370079
11
1.1029559448818897
21
0.2193438188976378
0
LINE
8
BLACK
6
CONTINUOUS
10
1.1029559448818897
20
0.2193438188976378
11
1.1030964173228346
21
0.2194135433070866
0
LINE
8
BLACK
6
CONTINUOUS
10
1.1030964173228346
20
0.2194135433070866
11
1.1061025196850394
21
0.2224233858267717
0
LINE
8
BLACK
6
CONTINUOUS
10
1.1061025196850394
20
0.2224233858267717
11
1.1061025196850394
21
0.2224234251968504
0
LINE
8
BLACK
6
CONTINUOUS
10
1.1061025196850394
20
0.2224234251968504
11
1.1061025984251969
21
0.2224235039370079
0
LINE
8
BLACK
6
CONTINUOUS
10
1.1061025984251969
20
0.2224235039370079
11
1.1061022440944881
21
0.2224238976377953
0
LINE
8
BLACK
6
CONTINUOUS
10
1.1061022440944881
20
0.2224238976377953
11
1.1081808661417323
21
0.2244542519685039
0
LINE
8
BLACK
6
CONTINUOUS
10
1.1081808661417323
20
0.2244542519685039
11
1.1116372047244094
21
0.2291261023622047
0
LINE
8
BLACK
6
CONTINUOUS
10
1.1116372047244094
20
0.2291261023622047
11
1.1143090157480315
21
0.2342868897637795
0
LINE
8
BLACK
6
CONTINUOUS
10
1.1143090157480315
20
0.2342868897637795
11
1.1161286220472442
21
0.239806062992126
0
LINE
8
BLACK
6
CONTINUOUS
10
1.1161286220472442
20
0.239806062992126
11
1.1170500393700786
21
0.2455439763779527
0
LINE
8
BLACK
6
CONTINUOUS
10
1.1170500393700786
20
0.2455439763779527
11
1.1170472440944881
21
0.2484496456692913
0
LINE
8
BLACK
6
CONTINUOUS
10
1.1170472440944881
20
0.2484496456692913
11
1.1171033858267716
21
0.2486225590551181
0
LINE
8
BLACK
6
CONTINUOUS
10
1.1171033858267716
20
0.2486225590551181
11
1.1170472440944881
21
0.3242209448818897
0
LINE
8
BLACK
6
CONTINUOUS
10
1.1170472440944881
20
0.3242209448818897
11
1.1170475590551181
21
0.3242241732283465
0
LINE
8
BLACK
6
CONTINUOUS
10
1.1170475590551181
20
0.3242241732283465
11
1.1170501968503936
21
0.3271275196850393
0
LINE
8
BLACK
6
CONTINUOUS
10
1.1170501968503936
20
0.3271275196850393
11
1.1161281102362204
21
0.3328670866141732
0
LINE
8
BLACK
6
CONTINUOUS
10
1.1161281102362204
20
0.3328670866141732
11
1.1143074015748031
21
0.3383877952755905
0
LINE
8
BLACK
6
CONTINUOUS
10
1.1143074015748031
20
0.3383877952755905
11
1.1116341338582676
21
0.343549842519685
0
LINE
8
BLACK
6
CONTINUOUS
10
1.1116341338582676
20
0.343549842519685
11
1.1081759842519685
21
0.3482225590551181
0
LINE
8
BLACK
6
CONTINUOUS
10
1.1081759842519685
20
0.3482225590551181
11
1.1060963779527559
21
0.3502532283464567
0
LINE
8
BLACK
6
CONTINUOUS
10
1.1060963779527559
20
0.3502532283464567
11
1.1060146850393699
21
0.3504092913385827
0
LINE
8
BLACK
6
CONTINUOUS
10
1.1060146850393699
20
0.3504092913385827
11
1.0934116535433072
21
0.3626622834645669
0
LINE
8
BLACK
6
CONTINUOUS
10
1.0934116535433072
20
0.3626622834645669
11
1.0934114566929134
21
0.3626620866141732
0
LINE
8
BLACK
6
CONTINUOUS
10
1.0934114566929134
20
0.3626620866141732
11
1.0913900000000001
21
0.3646364173228346
0
LINE
8
BLACK
6
CONTINUOUS
10
1.0913900000000001
20
0.3646364173228346
11
1.0867889763779528
21
0.3679179133858267
0
LINE
8
BLACK
6
CONTINUOUS
10
1.0867889763779528
20
0.3679179133858267
11
1.0817368110236221
21
0.3704503543307087
0
LINE
8
BLACK
6
CONTINUOUS
10
1.0817368110236221
20
0.3704503543307087
11
1.0763544881889764
21
0.3721730708661417
0
LINE
8
BLACK
6
CONTINUOUS
10
1.0763544881889764
20
0.3721730708661417
11
1.0707708267716536
21
0.3730449212598425
0
LINE
8
BLACK
6
CONTINUOUS
10
1.0707708267716536
20
0.3730449212598425
11
1.0679451574803149
21
0.3730472440944882
0
LINE
8
BLACK
6
CONTINUOUS
10
1.0679451574803149
20
0.3730472440944882
11
1.0677720472440944
21
0.3731035039370079
0
LINE
8
BLACK
6
CONTINUOUS
10
1.0677720472440944
20
0.3731035039370079
11
0.9813076377952755
21
0.3730472440944882
0
LINE
8
BLACK
6
CONTINUOUS
10
0.9813076377952755
20
0.3730472440944882
11
0.9813075984251969
21
0.3730472834645669
0
LINE
8
BLACK
6
CONTINUOUS
10
0.9813075984251969
20
0.3730472834645669
11
0.9813075984251969
21
0.3730472440944882
0
LINE
8
BLACK
6
CONTINUOUS
10
0.9813075984251969
20
0.3730472440944882
11
0.9813075984251969
21
0.3730457086614173
0
LINE
8
BLACK
6
CONTINUOUS
10
0.9813075984251969
20
0.3730457086614173
11
0.9784415354330709
21
0.373045748031496
0
LINE
8
BLACK
6
CONTINUOUS
10
0.9784415354330709
20
0.373045748031496
11
0.97278
21
0.3721492125984252
0
LINE
8
BLACK
6
CONTINUOUS
10
0.97278
20
0.3721492125984252
11
0.9673283858267716
21
0.3703781102362205
0
LINE
8
BLACK
6
CONTINUOUS
10
0.9673283858267716
20
0.3703781102362205
11
0.9622209055118111
21
0.367776062992126
0
LINE
8
BLACK
6
CONTINUOUS
10
0.9622209055118111
20
0.367776062992126
11
0.9575833070866141
21
0.364407125984252
0
LINE
8
BLACK
6
CONTINUOUS
10
0.9575833070866141
20
0.364407125984252
11
0.9555565354330708
21
0.3623807086614173
0
LINE
8
BLACK
6
CONTINUOUS
10
0.9555565354330708
20
0.3623807086614173
11
0.9553961023622047
21
0.3622990157480315
0
LINE
8
BLACK
6
CONTINUOUS
10
0.9553961023622047
20
0.3622990157480315
11
0.9286191338582677
21
0.3354433070866142
0
LINE
8
BLACK
6
CONTINUOUS
10
0.9286191338582677
20
0.3354433070866142
11
0.9286189763779528
21
0.3354432283464567
0
LINE
8
BLACK
6
CONTINUOUS
10
0.9286189763779528
20
0.3354432283464567
11
0.9286189763779528
21
0.3354431496062992
0
LINE
8
BLACK
6
CONTINUOUS
10
0.9286189763779528
20
0.3354431496062992
11
0.9235687401574803
21
0.3311305118110236
0
LINE
8
BLACK
6
CONTINUOUS
10
0.9235687401574803
20
0.3311305118110236
11
0.9179061417322835
21
0.327660905511811
0
LINE
8
BLACK
6
CONTINUOUS
10
0.9179061417322835
20
0.327660905511811
11
0.9117705118110236
21
0.3251198031496063
0
LINE
8
BLACK
6
CONTINUOUS
10
0.9117705118110236
20
0.3251198031496063
11
0.9053129133858268
21
0.3235696850393701
0
LINE
8
BLACK
6
CONTINUOUS
10
0.9053129133858268
20
0.3235696850393701
11
0.8986923228346456
21
0.3230487795275591
0
LINE
8
BLACK
6
CONTINUOUS
10
0.8986923228346456
20
0.3230487795275591
11
0.8986923228346456
21
0.3230472440944882
0
LINE
8
BLACK
6
CONTINUOUS
10
0.8986923228346456
20
0.3230472440944882
11
0.8985181889763779
21
0.3231038582677165
0
LINE
8
BLACK
6
CONTINUOUS
10
0.8985181889763779
20
0.3231038582677165
11
0.6253076771653543
21
0.3230472834645669
0
LINE
8
BLACK
6
CONTINUOUS
10
0.6253076771653543
20
0.3230472834645669
11
0.6253076771653543
21
0.3230472440944882
0
LINE
8
BLACK
6
CONTINUOUS
10
0.6253076771653543
20
0.3230472440944882
11
0.6253076377952755
21
0.3230472834645669
0
LINE
8
BLACK
6
CONTINUOUS
10
0.6253076377952755
20
0.3230472834645669
11
0.6253076377952755
21
0.3230472440944882
0
LINE
8
BLACK
6
CONTINUOUS
10
0.6253076377952755
20
0.3230472440944882
11
0.6253074803149606
21
0.3230472834645669
0
LINE
8
BLACK
6
CONTINUOUS
10
0.6253074803149606
20
0.3230472834645669
11
0.6186869291338583
21
0.3235682677165354
0
LINE
8
BLACK
6
CONTINUOUS
10
0.6186869291338583
20
0.3235682677165354
11
0.6122291732283465
21
0.3251187007874016
0
LINE
8
BLACK
6
CONTINUOUS
10
0.6122291732283465
20
0.3251187007874016
11
0.6060935433070866
21
0.3276603149606299
0
LINE
8
BLACK
6
CONTINUOUS
10
0.6060935433070866
20
0.3276603149606299
11
0.6004311023622048
21
0.3311305905511811
0
LINE
8
BLACK
6
CONTINUOUS
10
0.6004311023622048
20
0.3311305905511811
11
0.5953812992125984
21
0.3354439763779528
0
LINE
8
BLACK
6
CONTINUOUS
10
0.5953812992125984
20
0.3354439763779528
11
0.5953807480314961
21
0.3354434251968504
0
LINE
8
BLACK
6
CONTINUOUS
10
0.5953807480314961
20
0.3354434251968504
11
0.5952991338582677
21
0.3356035826771653
0
LINE
8
BLACK
6
CONTINUOUS
10
0.5952991338582677
20
0.3356035826771653
11
0.5704433070866142
21
0.3603808661417323
0
LINE
8
BLACK
6
CONTINUOUS
10
0.5704433070866142
20
0.3603808661417323
11
0.5704424803149606
21
0.3603818897637795
0
LINE
8
BLACK
6
CONTINUOUS
10
0.5704424803149606
20
0.3603818897637795
11
0.5661302362204724
21
0.3654309448818898
0
LINE
8
BLACK
6
CONTINUOUS
10
0.5661302362204724
20
0.3654309448818898
11
0.5626602755905512
21
0.3710935433070866
0
LINE
8
BLACK
6
CONTINUOUS
10
0.5626602755905512
20
0.3710935433070866
11
0.5601188976377952
21
0.3772292125984252
0
LINE
8
BLACK
6
CONTINUOUS
10
0.5601188976377952
20
0.3772292125984252
11
0.5585686220472441
21
0.383686968503937
0
LINE
8
BLACK
6
CONTINUOUS
10
0.5585686220472441
20
0.383686968503937
11
0.5580476377952756
21
0.3903076771653543
0
LINE
8
BLACK
6
CONTINUOUS
10
0.5580476377952756
20
0.3903076771653543
11
0.5580472440944881
21
0.3903076771653543
0
LINE
8
BLACK
6
CONTINUOUS
10
0.5580472440944881
20
0.3903076771653543
11
0.5581033858267717
21
0.3904805511811024
0
LINE
8
BLACK
6
CONTINUOUS
10
0.5581033858267717
20
0.3904805511811024
11
0.5580472440944881
21
0.4646299212598425
0
LINE
8
BLACK
6
CONTINUOUS
10
0.5580472440944881
20
0.4646299212598425
11
0.5586902362204724
21
0.4719792125984252
0
LINE
8
BLACK
6
CONTINUOUS
10
0.5586902362204724
20
0.4719792125984252
11
0.5605996062992126
21
0.4791051968503937
0
LINE
8
BLACK
6
CONTINUOUS
10
0.5605996062992126
20
0.4791051968503937
11
0.5637174409448819
21
0.4857913385826771
0
LINE
8
BLACK
6
CONTINUOUS
10
0.5637174409448819
20
0.4857913385826771
11
0.5679488976377952
21
0.4918345275590551
0
LINE
8
BLACK
6
CONTINUOUS
10
0.5679488976377952
20
0.4918345275590551
11
0.5731654724409448
21
0.4970511023622047
0
LINE
8
BLACK
6
CONTINUOUS
10
0.5731654724409448
20
0.4970511023622047
11
0.5792086614173229
21
0.5012825590551181
0
LINE
8
BLACK
6
CONTINUOUS
10
0.5792086614173229
20
0.5012825590551181
11
0.5858948031496063
21
0.5044003937007874
0
LINE
8
BLACK
6
CONTINUOUS
10
0.5858948031496063
20
0.5044003937007874
11
0.5930207874015748
21
0.5063097637795275
0
LINE
8
BLACK
6
CONTINUOUS
10
0.5930207874015748
20
0.5063097637795275
11
0.6003700787401575
21
0.5069527559055118
0
LINE
8
BLACK
6
CONTINUOUS
10
0.6003700787401575
20
0.5069527559055118
11
0.6005444094488189
21
0.5068961417322835
0
LINE
8
BLACK
6
CONTINUOUS
10
0.6005444094488189
20
0.5068961417322835
11
1.1176299212598424
21
0.5069527559055118
0
LINE
8
BLACK
6
CONTINUOUS
10
1.1176299212598424
20
0.5069527559055118
11
1.1249792125984253
21
0.5063097637795275
0
LINE
8
BLACK
6
CONTINUOUS
10
0.6003700787401575
20
0.5010472440944882
11
0.5971839763779527
21
0.5010472440944882
0
LINE
8
BLACK
6
CONTINUOUS
10
0.5971839763779527
20
0.5010472440944882
11
0.5909085826771654
21
0.4999407086614173
0
LINE
8
BLACK
6
CONTINUOUS
10
0.5909085826771654
20
0.4999407086614173
11
0.5849206692913386
21
0.4977612992125984
0
LINE
8
BLACK
6
CONTINUOUS
10
0.5849206692913386
20
0.4977612992125984
11
0.5794021653543306
21
0.4945751968503937
0
LINE
8
BLACK
6
CONTINUOUS
10
0.5794021653543306
20
0.4945751968503937
11
0.5745207874015748
21
0.4904792125984252
0
LINE
8
BLACK
6
CONTINUOUS
10
0.5745207874015748
20
0.4904792125984252
11
0.5704248031496063
21
0.4855978346456693
0
LINE
8
BLACK
6
CONTINUOUS
10
0.5704248031496063
20
0.4855978346456693
11
0.5672387007874016
21
0.4800793307086614
0
LINE
8
BLACK
6
CONTINUOUS
10
0.5672387007874016
20
0.4800793307086614
11
0.5650592913385827
21
0.4740914173228346
0
LINE
8
BLACK
6
CONTINUOUS
10
0.5650592913385827
20
0.4740914173228346
11
0.5639527559055117
21
0.4678160236220472
0
LINE
8
BLACK
6
CONTINUOUS
10
0.5639527559055117
20
0.4678160236220472
11
0.5639527559055117
21
0.4646299212598425
0
LINE
8
BLACK
6
CONTINUOUS
10
0.5639527559055117
20
0.4646299212598425
11
0.5638965748031496
21
0.4644570866141732
0
LINE
8
BLACK
6
CONTINUOUS
10
0.5638965748031496
20
0.4644570866141732
11
0.5639527559055117
21
0.3903076377952756
0
LINE
8
BLACK
6
CONTINUOUS
10
0.5639527559055117
20
0.3903076377952756
11
0.5639527559055117
21
0.3903075984251969
0
LINE
8
BLACK
6
CONTINUOUS
10
0.5639527559055117
20
0.3903075984251969
11
0.5639531496062992
21
0.3903075984251969
0
LINE
8
BLACK
6
CONTINUOUS
10
0.5639531496062992
20
0.3903075984251969
11
0.5639531102362204
21
0.3874414960629921
0
LINE
8
BLACK
6
CONTINUOUS
10
0.5639531102362204
20
0.3874414960629921
11
0.5648497637795276
21
0.3817798818897638
0
LINE
8
BLACK
6
CONTINUOUS
10
0.5648497637795276
20
0.3817798818897638
11
0.5666210236220472
21
0.3763282283464567
0
LINE
8
BLACK
6
CONTINUOUS
10
0.5666210236220472
20
0.3763282283464567
11
0.5692233070866142
21
0.3712208267716535
0
LINE
8
BLACK
6
CONTINUOUS
10
0.5692233070866142
20
0.3712208267716535
11
0.5725925590551181
21
0.3665833464566929
0
LINE
8
BLACK
6
CONTINUOUS
10
0.5725925590551181
20
0.3665833464566929
11
0.5746191732283464
21
0.3645566929133858
0
LINE
8
BLACK
6
CONTINUOUS
10
0.5746191732283464
20
0.3645566929133858
11
0.5746191732283464
21
0.3645566535433071
0
LINE
8
BLACK
6
CONTINUOUS
10
0.5746191732283464
20
0.3645566535433071
11
0.5747007480314961
21
0.3643964960629921
0
LINE
8
BLACK
6
CONTINUOUS
10
0.5747007480314961
20
0.3643964960629921
11
0.5995566929133858
21
0.3396191338582677
0
LINE
8
BLACK
6
CONTINUOUS
10
0.5995566929133858
20
0.3396191338582677
11
0.5995567716535433
21
0.3396190551181102
0
LINE
8
BLACK
6
CONTINUOUS
10
0.5995567716535433
20
0.3396190551181102
11
0.599556811023622
21
0.3396190157480315
0
LINE
8
BLACK
6
CONTINUOUS
10
0.599556811023622
20
0.3396190157480315
11
0.5995573622047244
21
0.3396195669291339
0
LINE
8
BLACK
6
CONTINUOUS
10
0.5995573622047244
20
0.3396195669291339
11
0.6015838582677165
21
0.3375928346456693
0
LINE
8
BLACK
6
CONTINUOUS
10
0.6015838582677165
20
0.3375928346456693
11
0.6062211023622047
21
0.3342233464566929
0
LINE
8
BLACK
6
CONTINUOUS
10
0.6062211023622047
20
0.3342233464566929
11
0.6113284251968504
21
0.3316208661417323
0
LINE
8
BLACK
6
CONTINUOUS
10
0.6113284251968504
20
0.3316208661417323
11
0.6167799606299212
21
0.3298494488188976
0
LINE
8
BLACK
6
CONTINUOUS
10
0.6167799606299212
20
0.3298494488188976
11
0.6224415354330709
21
0.3289527165354331
0
LINE
8
BLACK
6
CONTINUOUS
10
0.6224415354330709
20
0.3289527165354331
11
0.6253075984251968
21
0.3289527559055118
0
LINE
8
BLACK
6
CONTINUOUS
10
0.6253075984251968
20
0.3289527559055118
11
0.6254817322834646
21
0.3288961811023622
0
LINE
8
BLACK
6
CONTINUOUS
10
0.6254817322834646
20
0.3288961811023622
11
0.8986923622047244
21
0.3289527559055118
0
LINE
8
BLACK
6
CONTINUOUS
10
0.8986923622047244
20
0.3289527559055118
11
0.8986924015748031
21
0.3289527559055118
0
LINE
8
BLACK
6
CONTINUOUS
10
0.8986924015748031
20
0.3289527559055118
11
0.8986924015748031
21
0.3289542913385827
0
LINE
8
BLACK
6
CONTINUOUS
10
0.8986924015748031
20
0.3289542913385827
11
0.9015584645669291
21
0.3289542519685039
0
LINE
8
BLACK
6
CONTINUOUS
10
0.9015584645669291
20
0.3289542519685039
11
0.90722
21
0.3298507874015748
0
LINE
8
BLACK
6
CONTINUOUS
10
0.90722
20
0.3298507874015748
11
0.9126716141732283
21
0.3316218897637795
0
LINE
8
BLACK
6
CONTINUOUS
10
0.9126716141732283
20
0.3316218897637795
11
0.917779094488189
21
0.334223937007874
0
LINE
8
BLACK
6
CONTINUOUS
10
0.917779094488189
20
0.334223937007874
11
0.9224166929133858
21
0.337592874015748
0
LINE
8
BLACK
6
CONTINUOUS
10
0.9224166929133858
20
0.337592874015748
11
0.9244434645669292
21
0.3396192913385827
0
LINE
8
BLACK
6
CONTINUOUS
10
0.9244434645669292
20
0.3396192913385827
11
0.9246038582677165
21
0.3397010236220472
0
LINE
8
BLACK
6
CONTINUOUS
10
0.9246038582677165
20
0.3397010236220472
11
0.9513808661417322
21
0.3665566929133858
0
LINE
8
BLACK
6
CONTINUOUS
10
0.9513808661417322
20
0.3665566929133858
11
0.9513809842519685
21
0.366556811023622
0
LINE
8
BLACK
6
CONTINUOUS
10
0.9513809842519685
20
0.366556811023622
11
0.9513810236220472
21
0.3665568503937008
0
LINE
8
BLACK
6
CONTINUOUS
10
0.9513810236220472
20
0.3665568503937008
11
0.9564312598425196
21
0.3708694881889764
0
LINE
8
BLACK
6
CONTINUOUS
10
0.9564312598425196
20
0.3708694881889764
11
0.9620938582677165
21
0.374339094488189
0
LINE
8
BLACK
6
CONTINUOUS
10
0.9620938582677165
20
0.374339094488189
11
0.9682294881889764
21
0.3768801968503937
0
LINE
8
BLACK
6
CONTINUOUS
10
0.9682294881889764
20
0.3768801968503937
11
0.9746870866141732
21
0.3784303149606299
0
LINE
8
BLACK
6
CONTINUOUS
10
0.9746870866141732
20
0.3784303149606299
11
0.9813076771653543
21
0.378951220472441
0
LINE
8
BLACK
6
CONTINUOUS
10
0.9813076771653543
20
0.378951220472441
11
0.9813076771653543
21
0.3789527559055118
0
LINE
8
BLACK
6
CONTINUOUS
10
0.9813076771653543
20
0.3789527559055118
11
0.981480748031496
21
0.3788965354330708
0
LINE
8
BLACK
6
CONTINUOUS
10
0.981480748031496
20
0.3788965354330708
11
1.0679451968503937
21
0.3789527559055118
0
LINE
8
BLACK
6
CONTINUOUS
10
1.0679451968503937
20
0.3789527559055118
11
1.0679452362204724
21
0.3789527559055118
0
LINE
8
BLACK
6
CONTINUOUS
10
1.0679452362204724
20
0.3789527559055118
11
1.0744740551181102
21
0.3784461023622047
0
LINE
8
BLACK
6
CONTINUOUS
10
1.0744740551181102
20
0.3784461023622047
11
1.0808466141732282
21
0.3769383464566929
0
LINE
8
BLACK
6
CONTINUOUS
10
1.0808466141732282
20
0.3769383464566929
11
1.0869102755905511
21
0.3744655905511811
0
LINE
8
BLACK
6
CONTINUOUS
10
1.0869102755905511
20
0.3744655905511811
11
1.0925198818897637
21
0.3710870078740157
0
LINE
8
BLACK
6
CONTINUOUS
10
1.0925198818897637
20
0.3710870078740157
11
1.0975411811023621
21
0.3668835433070866
0
LINE
8
BLACK
6
CONTINUOUS
10
1.0975411811023621
20
0.3668835433070866
11
1.0975413385826771
21
0.3668837007874016
0
LINE
8
BLACK
6
CONTINUOUS
10
1.0975413385826771
20
0.3668837007874016
11
1.0976229921259841
21
0.3667276771653543
0
LINE
8
BLACK
6
CONTINUOUS
10
1.0976229921259841
20
0.3667276771653543
11
1.1102259448818896
21
0.3544748031496063
0
LINE
8
BLACK
6
CONTINUOUS
10
1.1102259448818896
20
0.3544748031496063
11
1.1102260629921259
21
0.3544747244094488
0
LINE
8
BLACK
6
CONTINUOUS
10
1.1102260629921259
20
0.3544747244094488
11
1.1102260236220471
21
0.3544747244094488
0
LINE
8
BLACK
6
CONTINUOUS
10
1.1102260236220471
20
0.3544747244094488
11
1.1146498425196849
21
0.3493977165354331
0
LINE
8
BLACK
6
CONTINUOUS
10
1.1146498425196849
20
0.3493977165354331
11
1.1182124409448819
21
0.3436833464566929
0
LINE
8
BLACK
6
CONTINUOUS
10
1.1182124409448819
20
0.3436833464566929
11
1.1208236220472441
21
0.3374762598425197
0
LINE
8
BLACK
6
CONTINUOUS
10
1.1208236220472441
20
0.3374762598425197
11
1.1224172834645669
21
0.3309335826771653
0
LINE
8
BLACK
6
CONTINUOUS
10
1.1224172834645669
20
0.3309335826771653
11
1.1229530708661417
21
0.3242209842519685
0
LINE
8
BLACK
6
CONTINUOUS
10
1.1229530708661417
20
0.3242209842519685
11
1.1229527559055117
21
0.3242209842519685
0
LINE
8
BLACK
6
CONTINUOUS
10
1.1229527559055117
20
0.3242209842519685
11
1.1228965748031496
21
0.3240481102362205
0
LINE
8
BLACK
6
CONTINUOUS
10
1.1228965748031496
20
0.3240481102362205
11
1.1229527165354329
21
0.248449842519685
0
LINE
8
BLACK
6
CONTINUOUS
10
1.1229527165354329
20
0.248449842519685
11
1.1229527559055117
21
0.2484498031496063
0
LINE
8
BLACK
6
CONTINUOUS
10
1.1229527559055117
20
0.2484498031496063
11
1.1224174409448819
21
0.2417391338582677
0
LINE
8
BLACK
6
CONTINUOUS
10
1.1224174409448819
20
0.2417391338582677
11
1.1208248031496062
21
0.2351982283464567
0
LINE
8
BLACK
6
CONTINUOUS
10
1.1208248031496062
20
0.2351982283464567
11
1.1182150787401575
21
0.2289926771653543
0
LINE
8
BLACK
6
CONTINUOUS
10
1.1182150787401575
20
0.2289926771653543
11
1.1146543307086614
21
0.2232794488188976
0
LINE
8
BLACK
6
CONTINUOUS
10
1.1146543307086614
20
0.2232794488188976
11
1.1102326771653543
21
0.2182031889763779
0
LINE
8
BLACK
6
CONTINUOUS
10
1.1102326771653543
20
0.2182031889763779
11
1.1102330708661416
21
0.2182027952755906
0
LINE
8
BLACK
6
CONTINUOUS
10
1.1102330708661416
20
0.2182027952755906
11
1.1100925590551181
21
0.2181331496062992
0
LINE
8
BLACK
6
CONTINUOUS
10
1.1100925590551181
20
0.2181331496062992
11
1.1070866141732283
21
0.2151233070866142
0
LINE
8
BLACK
6
CONTINUOUS
10
1.1070866141732283
20
0.2151233070866142
11
1.1070865748031495
21
0.2151232677165354
0
LINE
8
BLACK
6
CONTINUOUS
10
1.1070865748031495
20
0.2151232677165354
11
1.1020645669291338
21
0.2109175984251968
0
LINE
8
BLACK
6
CONTINUOUS
10
1.1020645669291338
20
0.2109175984251968
11
1.0964537401574803
21
0.2075372440944882
0
LINE
8
BLACK
6
CONTINUOUS
10
1.0964537401574803
20
0.2075372440944882
11
1.0903884645669291
21
0.205063188976378
0
LINE
8
BLACK
6
CONTINUOUS
10
1.0903884645669291
20
0.205063188976378
11
1.0840140944881889
21
0.2035546850393701
0
LINE
8
BLACK
6
CONTINUOUS
10
1.0840140944881889
20
0.2035546850393701
11
1.0774832677165354
21
0.2030479133858268
0
LINE
8
BLACK
6
CONTINUOUS
10
1.0774832677165354
20
0.2030479133858268
11
1.0774832677165354
21
0.2030472440944882
0
LINE
8
BLACK
6
CONTINUOUS
10
1.0774832677165354
20
0.2030472440944882
11
1.07730968503937
21
0.2031036614173228
0
LINE
8
BLACK
6
CONTINUOUS
10
1.07730968503937
20
0.2031036614173228
11
0.9513076771653544
21
0.2030472834645669
0
LINE
8
BLACK
6
CONTINUOUS
10
0.9513076771653544
20
0.2030472834645669
11
0.9513076771653544
21
0.2030472440944882
0
LINE
8
BLACK
6
CONTINUOUS
10
0.9513076771653544
20
0.2030472440944882
11
0.9513076377952756
21
0.2030472834645669
0
LINE
8
BLACK
6
CONTINUOUS
10
0.9513076377952756
20
0.2030472834645669
11
0.9513076377952756
21
0.2030472440944882
0
LINE
8
BLACK
6
CONTINUOUS
10
0.9513076377952756
20
0.2030472440944882
11
0.9513074803149606
21
0.2030472834645669
0
LINE
8
BLACK
6
CONTINUOUS
10
0.9513074803149606
20
0.2030472834645669
11
0.9446868897637795
21
0.2035682283464567
0
LINE
8
BLACK
6
CONTINUOUS
10
0.9446868897637795
20
0.2035682283464567
11
0.9382290944881889
21
0.2051185039370079
0
LINE
8
BLACK
6
CONTINUOUS
10
0.9382290944881889
20
0.2051185039370079
11
0.9320933464566928
21
0.2076599212598425
0
LINE
8
BLACK
6
CONTINUOUS
10
0.9320933464566928
20
0.2076599212598425
11
0.9264307086614173
21
0.2111299212598425
0
LINE
8
BLACK
6
CONTINUOUS
10
0.9264307086614173
20
0.2111299212598425
11
0.9213806299212598
21
0.215443031496063
0
LINE
8
BLACK
6
CONTINUOUS
10
0.9213806299212598
20
0.215443031496063
11
0.921380905511811
21
0.2154432677165354
0
LINE
8
BLACK
6
CONTINUOUS
10
0.921380905511811
20
0.2154432677165354
11
0.9212991338582677
21
0.2156037401574803
0
LINE
8
BLACK
6
CONTINUOUS
10
0.9212991338582677
20
0.2156037401574803
11
0.8944433070866141
21
0.2423808661417323
0
LINE
8
BLACK
6
CONTINUOUS
10
0.8944433070866141
20
0.2423808661417323
11
0.8944409448818897
21
0.2423837401574803
0
LINE
8
BLACK
6
CONTINUOUS
10
0.8944409448818897
20
0.2423837401574803
11
0.8924169291338583
21
0.2444077165354331
0
LINE
8
BLACK
6
CONTINUOUS
10
0.8924169291338583
20
0.2444077165354331
11
0.8877794094488188
21
0.2477770078740157
0
LINE
8
BLACK
6
CONTINUOUS
10
0.8877794094488188
20
0.2477770078740157
11
0.8826718897637795
21
0.2503793307086614
0
LINE
8
BLACK
6
CONTINUOUS
10
0.8826718897637795
20
0.2503793307086614
11
0.8772201968503937
21
0.2521506299212599
0
LINE
8
BLACK
6
CONTINUOUS
10
0.8772201968503937
20
0.2521506299212599
11
0.8715585039370078
21
0.2530472834645669
0
LINE
8
BLACK
6
CONTINUOUS
10
0.8715585039370078
20
0.2530472834645669
11
0.8686924015748031
21
0.2530472440944882
0
LINE
8
BLACK
6
CONTINUOUS
10
0.8686924015748031
20
0.2530472440944882
11
0.8685183070866141
21
0.2531038188976378
0
LINE
8
BLACK
6
CONTINUOUS
10
0.8685183070866141
20
0.2531038188976378
11
0.6198714173228347
21
0.2530472834645669
0
LINE
8
BLACK
6
CONTINUOUS
10
0.6198714173228347
20
0.2530472834645669
11
0.6198712204724409
21
0.2530472440944882
0
LINE
8
BLACK
6
CONTINUOUS
10
0.6198712204724409
20
0.2530472440944882
11
0.6198627559055118
21
0.2530481102362205
0
LINE
8
BLACK
6
CONTINUOUS
10
0.6198627559055118
20
0.2530481102362205
11
0.6171630708661417
21
0.2530494488188976
0
LINE
8
BLACK
6
CONTINUOUS
10
0.6171630708661417
20
0.2530494488188976
11
0.6118060236220473
21
0.2522479527559055
0
LINE
8
BLACK
6
CONTINUOUS
10
0.6118060236220473
20
0.2522479527559055
11
0.6066264173228346
21
0.2506629921259843
0
LINE
8
BLACK
6
CONTINUOUS
10
0.6066264173228346
20
0.2506629921259843
11
0.6017381496062992
21
0.2483294488188976
0
LINE
8
BLACK
6
CONTINUOUS
10
0.6017381496062992
20
0.2483294488188976
11
0.5972487795275591
21
0.2452985826771653
0
LINE
8
BLACK
6
CONTINUOUS
10
0.5972487795275591
20
0.2452985826771653
11
0.5952539763779527
21
0.2434666535433071
0
LINE
8
BLACK
6
CONTINUOUS
10
0.5952539763779527
20
0.2434666535433071
11
0.595253937007874
21
0.2434666929133858
0
LINE
8
BLACK
6
CONTINUOUS
10
0.595253937007874
20
0.2434666929133858
11
0.5950912598425196
21
0.2433924803149606
0
LINE
8
BLACK
6
CONTINUOUS
10
0.5950912598425196
20
0.2433924803149606
11
0.5745416141732284
21
0.2244674015748031
0
LINE
8
BLACK
6
CONTINUOUS
10
0.5745416141732284
20
0.2244674015748031
11
0.5745390551181102
21
0.2244655118110236
0
LINE
8
BLACK
6
CONTINUOUS
10
0.5745390551181102
20
0.2244655118110236
11
0.5723090157480315
21
0.2224182677165354
0
LINE
8
BLACK
6
CONTINUOUS
10
0.5723090157480315
20
0.2224182677165354
11
0.5685812598425197
21
0.217639094488189
0
LINE
8
BLACK
6
CONTINUOUS
10
0.5685812598425197
20
0.217639094488189
11
0.56569468503937
21
0.2123095669291339
0
LINE
8
BLACK
6
CONTINUOUS
10
0.56569468503937
20
0.2123095669291339
11
0.5637287007874016
21
0.2065761811023622
0
LINE
8
BLACK
6
CONTINUOUS
10
0.5637287007874016
20
0.2065761811023622
11
0.5627373622047244
21
0.2005967716535433
0
LINE
8
BLACK
6
CONTINUOUS
10
0.5627373622047244
20
0.2005967716535433
11
0.5627415748031496
21
0.1975662204724409
0
LINE
8
BLACK
6
CONTINUOUS
10
0.5627415748031496
20
0.1975662204724409
11
0.5626856299212598
21
0.1973931496062992
0
LINE
8
BLACK
6
CONTINUOUS
10
0.5626856299212598
20
0.1973931496062992
11
0.5628833464566929
21
0.1173057874015748
0
LINE
8
BLACK
6
CONTINUOUS
10
0.5628833464566929
20
0.1173057874015748
11
0.5628819291338583
21
0.1172914173228346
0
LINE
8
BLACK
6
CONTINUOUS
10
0.5628819291338583
20
0.1172914173228346
11
0.562887283464567
21
0.1141231496062992
0
LINE
8
BLACK
6
CONTINUOUS
10
0.562887283464567
20
0.1141231496062992
11
0.5640024409448818
21
0.1078564173228346
0
LINE
8
BLACK
6
CONTINUOUS
10
0.5640024409448818
20
0.1078564173228346
11
0.5661877165354331
21
0.1018781102362205
0
LINE
8
BLACK
6
CONTINUOUS
10
0.5661877165354331
20
0.1018781102362205
11
0.5693768897637795
21
0.0963694488188976
0
LINE
8
BLACK
6
CONTINUOUS
10
0.5693768897637795
20
0.0963694488188976
11
0.5734732283464566
21
0.0914975196850394
0
LINE
8
BLACK
6
CONTINUOUS
10
0.5734732283464566
20
0.0914975196850394
11
0.5783525196850393
21
0.0874099606299213
0
LINE
8
BLACK
6
CONTINUOUS
10
0.5783525196850393
20
0.0874099606299213
11
0.5838668897637795
21
0.0842307480314961
0
LINE
8
BLACK
6
CONTINUOUS
10
0.5838668897637795
20
0.0842307480314961
11
0.5898491338582676
21
0.0820562204724409
0
LINE
8
BLACK
6
CONTINUOUS
10
0.5898491338582676
20
0.0820562204724409
11
0.596117874015748
21
0.0809523622047244
0
LINE
8
BLACK
6
CONTINUOUS
10
0.596117874015748
20
0.0809523622047244
11
0.5993004724409449
21
0.0809527559055118
0
LINE
8
BLACK
6
CONTINUOUS
10
0.5993004724409449
20
0.0809527559055118
11
0.5994748425196851
21
0.0808961417322835
0
LINE
8
BLACK
6
CONTINUOUS
10
0.5994748425196851
20
0.0808961417322835
11
1.1176299212598424
21
0.0809527559055118
0
LINE
8
BLACK
6
CONTINUOUS
10
1.1176299212598424
20
0.0809527559055118
11
1.1208160236220472
21
0.0809527559055118
0
LINE
8
BLACK
6
CONTINUOUS
10
1.1208160236220472
20
0.0809527559055118
11
1.1270914173228346
21
0.0820592913385827
0
LINE
8
BLACK
6
CONTINUOUS
10
1.1270914173228346
20
0.0820592913385827
11
1.1330793307086613
21
0.0842387007874016
0
LINE
8
BLACK
6
CONTINUOUS
10
1.1330793307086613
20
0.0842387007874016
11
1.1385978346456693
21
0.0874248031496063
0
LINE
8
BLACK
6
CONTINUOUS
10
1.1385978346456693
20
0.0874248031496063
11
1.1434792125984252
21
0.0915207874015748
0
LINE
8
BLACK
6
CONTINUOUS
10
1.1434792125984252
20
0.0915207874015748
11
1.1475751968503938
21
0.0964021653543307
0
LINE
8
BLACK
6
CONTINUOUS
10
1.1475751968503938
20
0.0964021653543307
11
1.1507612992125984
21
0.1019206692913386
0
LINE
8
BLACK
6
CONTINUOUS
10
1.1507612992125984
20
0.1019206692913386
11
1.1529407086614174
21
0.1079085826771654
0
LINE
8
BLACK
6
CONTINUOUS
10
1.1529407086614174
20
0.1079085826771654
11
1.1540472440944882
21
0.1141839763779528
0
LINE
8
BLACK
6
CONTINUOUS
10
1.1540472440944882
20
0.1141839763779528
11
1.1540472440944882
21
0.1173700787401575
0
LINE
8
BLACK
6
CONTINUOUS
10
1.1540472440944882
20
0.1173700787401575
11
1.1541038188976378
21
0.1175443307086614
0
LINE
8
BLACK
6
CONTINUOUS
10
1.1541038188976378
20
0.1175443307086614
11
1.1540472440944882
21
0.4646299212598425
0
LINE
8
BLACK
6
CONTINUOUS
10
1.1540472440944882
20
0.4646299212598425
11
1.1540472440944882
21
0.4678160236220472
0
LINE
8
BLACK
6
CONTINUOUS
10
1.1540472440944882
20
0.4678160236220472
11
1.1529407086614174
21
0.4740914173228346
0
LINE
8
BLACK
6
CONTINUOUS
10
1.1529407086614174
20
0.4740914173228346
11
1.1507612992125984
21
0.4800793307086614
0
LINE
8
BLACK
6
CONTINUOUS
10
1.1507612992125984
20
0.4800793307086614
11
1.1475751968503938
21
0.4855978346456693
0
LINE
8
BLACK
6
CONTINUOUS
10
1.1475751968503938
20
0.4855978346456693
11
1.1434792125984252
21
0.4904792125984252
0
LINE
8
BLACK
6
CONTINUOUS
10
1.1434792125984252
20
0.4904792125984252
11
1.1385978346456693
21
0.4945751968503937
0
LINE
8
BLACK
6
CONTINUOUS
10
1.1385978346456693
20
0.4945751968503937
11
1.1330793307086613
21
0.4977612992125984
0
LINE
8
BLACK
6
CONTINUOUS
10
1.1330793307086613
20
0.4977612992125984
11
1.1270914173228346
21
0.4999407086614173
0
LINE
8
BLACK
6
CONTINUOUS
10
1.1270914173228346
20
0.4999407086614173
11
1.1208160236220472
21
0.5010472440944882
0
LINE
8
BLACK
6
CONTINUOUS
10
1.1208160236220472
20
0.5010472440944882
11
1.1176299212598424
21
0.5010472440944882
0
LINE
8
BLACK
6
CONTINUOUS
10
1.1176299212598424
20
0.5010472440944882
11
1.1174555511811024
21
0.5011038976377953
0
LINE
8
BLACK
6
CONTINUOUS
10
1.1174555511811024
20
0.5011038976377953
11
0.6003700787401575
21
0.5010472440944882
0
LINE
8
BLACK
6
CONTINUOUS
10
0.3700957086614173
20
0.5515390944881889
11
0.3736625984251968
21
0.5497216929133858
0
LINE
8
BLACK
6
CONTINUOUS
10
0.3736625984251968
20
0.5497216929133858
11
0.3764933464566929
21
0.5468909448818897
0
LINE
8
BLACK
6
CONTINUOUS
10
0.3764933464566929
20
0.5468909448818897
11
0.3783107480314961
21
0.5433240551181102
0
LINE
8
BLACK
6
CONTINUOUS
10
0.3783107480314961
20
0.5433240551181102
11
0.3789370078740157
21
0.5393700787401575
0
LINE
8
BLACK
6
CONTINUOUS
10
0.3789370078740157
20
0.5393700787401575
11
0.378862874015748
21
0.5391420472440944
0
LINE
8
BLACK
6
CONTINUOUS
10
0.378862874015748
20
0.5391420472440944
11
0.3789370078740157
21
0.484251968503937
0
LINE
8
BLACK
6
CONTINUOUS
10
0.3789370078740157
20
0.484251968503937
11
0.3783107480314961
21
0.4802979921259842
0
LINE
8
BLACK
6
CONTINUOUS
10
0.3783107480314961
20
0.4802979921259842
11
0.3764933464566929
21
0.4767311023622047
0
LINE
8
BLACK
6
CONTINUOUS
10
0.3764933464566929
20
0.4767311023622047
11
0.3736625984251968
21
0.4739003543307087
0
LINE
8
BLACK
6
CONTINUOUS
10
0.3736625984251968
20
0.4739003543307087
11
0.3700957086614173
21
0.4720829527559055
0
LINE
8
BLACK
6
CONTINUOUS
10
0.3700957086614173
20
0.4720829527559055
11
0.3661417322834646
21
0.4714566929133858
0
LINE
8
BLACK
6
CONTINUOUS
10
0.3661417322834646
20
0.4714566929133858
11
0.3659133464566929
21
0.471530905511811
0
LINE
8
BLACK
6
CONTINUOUS
10
0.3659133464566929
20
0.471530905511811
11
0.3031496062992126
21
0.4714566929133858
0
LINE
8
BLACK
6
CONTINUOUS
10
0.3031496062992126
20
0.4714566929133858
11
0.2991956299212598
21
0.4720829527559055
0
LINE
8
BLACK
6
CONTINUOUS
10
0.2991956299212598
20
0.4720829527559055
11
0.2956287401574803
21
0.4739003543307087
0
LINE
8
BLACK
6
CONTINUOUS
10
0.2956287401574803
20
0.4739003543307087
11
0.2927979921259842
21
0.4767311023622047
0
LINE
8
BLACK
6
CONTINUOUS
10
0.2927979921259842
20
0.4767311023622047
11
0.2909805905511811
21
0.4802979921259842
0
LINE
8
BLACK
6
CONTINUOUS
10
0.2909805905511811
20
0.4802979921259842
11
0.2903543307086614
21
0.484251968503937
0
LINE
8
BLACK
6
CONTINUOUS
10
0.2903543307086614
20
0.484251968503937
11
0.2904284251968504
21
0.4844800393700787
0
LINE
8
BLACK
6
CONTINUOUS
10
0.2904284251968504
20
0.4844800393700787
11
0.2903543307086614
21
0.5393700787401575
0
LINE
8
BLACK
6
CONTINUOUS
10
0.2903543307086614
20
0.5393700787401575
11
0.2909805905511811
21
0.5433240551181102
0
LINE
8
BLACK
6
CONTINUOUS
10
0.2909805905511811
20
0.5433240551181102
11
0.2927979921259842
21
0.5468909448818897
0
LINE
8
BLACK
6
CONTINUOUS
10
0.2927979921259842
20
0.5468909448818897
11
0.2956287401574803
21
0.5497216929133858
0
LINE
8
BLACK
6
CONTINUOUS
10
0.2956287401574803
20
0.5497216929133858
11
0.2991956299212598
21
0.5515390944881889
0
LINE
8
BLACK
6
CONTINUOUS
10
0.2991956299212598
20
0.5515390944881889
11
0.3031496062992126
21
0.5521653543307087
0
LINE
8
BLACK
6
CONTINUOUS
10
0.3031496062992126
20
0.5521653543307087
11
0.3033779527559055
21
0.5520911811023622
0
LINE
8
BLACK
6
CONTINUOUS
10
0.3033779527559055
20
0.5520911811023622
11
0.3661417322834646
21
0.5521653543307087
0
LINE
8
BLACK
6
CONTINUOUS
10
0.3661417322834646
20
0.5521653543307087
11
0.3700957086614173
21
0.5515390944881889
0
LINE
8
BLACK
6
CONTINUOUS
10
0.3031496062992126
20
0.5501968503937008
11
0.3014348031496063
21
0.5501968503937008
0
LINE
8
BLACK
6
CONTINUOUS
10
0.3014348031496063
20
0.5501968503937008
11
0.2981730708661417
21
0.5491370472440945
0
LINE
8
BLACK
6
CONTINUOUS
10
0.2981730708661417
20
0.5491370472440945
11
0.2953985039370079
21
0.5471211811023622
0
LINE
8
BLACK
6
CONTINUOUS
10
0.2953985039370079
20
0.5471211811023622
11
0.2933826377952756
21
0.5443466141732284
0
LINE
8
BLACK
6
CONTINUOUS
10
0.2933826377952756
20
0.5443466141732284
11
0.2923228346456693
21
0.5410848818897638
0
LINE
8
BLACK
6
CONTINUOUS
10
0.2923228346456693
20
0.5410848818897638
11
0.2923228346456693
21
0.5393700787401575
0
LINE
8
BLACK
6
CONTINUOUS
10
0.2923228346456693
20
0.5393700787401575
11
0.2922487007874016
21
0.5391420472440944
0
LINE
8
BLACK
6
CONTINUOUS
10
0.2922487007874016
20
0.5391420472440944
11
0.2923228346456693
21
0.484251968503937
0
LINE
8
BLACK
6
CONTINUOUS
10
0.2923228346456693
20
0.484251968503937
11
0.2923228346456693
21
0.4825371653543307
0
LINE
8
BLACK
6
CONTINUOUS
10
0.2923228346456693
20
0.4825371653543307
11
0.2933826377952756
21
0.4792754330708661
0
LINE
8
BLACK
6
CONTINUOUS
10
0.2933826377952756
20
0.4792754330708661
11
0.2953985039370079
21
0.4765008661417323
0
LINE
8
BLACK
6
CONTINUOUS
10
0.2953985039370079
20
0.4765008661417323
11
0.2981730708661417
21
0.474485
0
LINE
8
BLACK
6
CONTINUOUS
10
0.2981730708661417
20
0.474485
11
0.3014348031496063
21
0.4734251968503937
0
LINE
8
BLACK
6
CONTINUOUS
10
0.3014348031496063
20
0.4734251968503937
11
0.3031496062992126
21
0.4734251968503937
0
LINE
8
BLACK
6
CONTINUOUS
10
0.3031496062992126
20
0.4734251968503937
11
0.3033779527559055
21
0.4733510236220472
0
LINE
8
BLACK
6
CONTINUOUS
10
0.3033779527559055
20
0.4733510236220472
11
0.3661417322834646
21
0.4734251968503937
0
LINE
8
BLACK
6
CONTINUOUS
10
0.3661417322834646
20
0.4734251968503937
11
0.3678565354330708
21
0.4734251968503937
0
LINE
8
BLACK
6
CONTINUOUS
10
0.3678565354330708
20
0.4734251968503937
11
0.3711182677165354
21
0.474485
0
LINE
8
BLACK
6
CONTINUOUS
10
0.3711182677165354
20
0.474485
11
0.3738928346456693
21
0.4765008661417323
0
LINE
8
BLACK
6
CONTINUOUS
10
0.3738928346456693
20
0.4765008661417323
11
0.3759087007874016
21
0.4792754330708661
0
LINE
8
BLACK
6
CONTINUOUS
10
0.3759087007874016
20
0.4792754330708661
11
0.3769685039370079
21
0.4825371653543307
0
LINE
8
BLACK
6
CONTINUOUS
10
0.3769685039370079
20
0.4825371653543307
11
0.3769685039370079
21
0.484251968503937
0
LINE
8
BLACK
6
CONTINUOUS
10
0.3769685039370079
20
0.484251968503937
11
0.3770425984251968
21
0.4844800393700787
0
LINE
8
BLACK
6
CONTINUOUS
10
0.3770425984251968
20
0.4844800393700787
11
0.3769685039370079
21
0.5393700787401575
0
LINE
8
BLACK
6
CONTINUOUS
10
0.3769685039370079
20
0.5393700787401575
11
0.3769685039370079
21
0.5410848818897638
0
LINE
8
BLACK
6
CONTINUOUS
10
0.3769685039370079
20
0.5410848818897638
11
0.3759087007874016
21
0.5443466141732284
0
LINE
8
BLACK
6
CONTINUOUS
10
0.3759087007874016
20
0.5443466141732284
11
0.3738928346456693
21
0.5471211811023622
0
LINE
8
BLACK
6
CONTINUOUS
10
0.3738928346456693
20
0.5471211811023622
11
0.3711182677165354
21
0.5491370472440945
0
LINE
8
BLACK
6
CONTINUOUS
10
0.3711182677165354
20
0.5491370472440945
11
0.3678565354330708
21
0.5501968503937008
0
LINE
8
BLACK
6
CONTINUOUS
10
0.3678565354330708
20
0.5501968503937008
11
0.3661417322834646
21
0.5501968503937008
0
LINE
8
BLACK
6
CONTINUOUS
10
0.3661417322834646
20
0.5501968503937008
11
0.3659133464566929
21
0.550271062992126
0
LINE
8
BLACK
6
CONTINUOUS
10
0.3659133464566929
20
0.550271062992126
11
0.3031496062992126
21
0.5501968503937008
0
LINE
8
BLACK
6
CONTINUOUS
10
1.1816784251968504
20
0.5934472047244095
11
1.1827428346456692
21
0.5930062992125984
0
LINE
8
BLACK
6
CONTINUOUS
10
1.1827428346456692
20
0.5930062992125984
11
1.1835574803149607
21
0.5921916535433071
0
LINE
8
BLACK
6
CONTINUOUS
10
1.1835574803149607
20
0.5921916535433071
11
1.1839983858267715
21
0.5911272440944881
0
LINE
8
BLACK
6
CONTINUOUS
10
1.1839983858267715
20
0.5911272440944881
11
1.1840551181102361
21
0.
0
LINE
8
BLACK
6
CONTINUOUS
10
1.1840551181102361
20
0.
11
1.1839983858267715
21
-0.000576062992126
0
LINE
8
BLACK
6
CONTINUOUS
10
1.1839983858267715
20
-0.000576062992126
11
1.1835574803149607
21
-0.0016404724409449
0
LINE
8
BLACK
6
CONTINUOUS
10
1.1835574803149607
20
-0.0016404724409449
11
1.1827428346456692
21
-0.0024551181102362
0
LINE
8
BLACK
6
CONTINUOUS
10
1.1827428346456692
20
-0.0024551181102362
11
1.1816784251968504
21
-0.0028960236220472
0
LINE
8
BLACK
6
CONTINUOUS
10
1.1816784251968504
20
-0.0028960236220472
11
0.
21
-0.0029527559055118
0
LINE
8
BLACK
6
CONTINUOUS
10
0.
20
-0.0029527559055118
11
-0.000576062992126
21
-0.0028960236220472
0
LINE
8
BLACK
6
CONTINUOUS
10
-0.000576062992126
20
-0.0028960236220472
11
-0.0016404724409449
21
-0.0024551181102362
0
LINE
8
BLACK
6
CONTINUOUS
10
-0.0016404724409449
20
-0.0024551181102362
11
-0.0024551181102362
21
-0.0016404724409449
0
LINE
8
BLACK
6
CONTINUOUS
10
-0.0024551181102362
20
-0.0016404724409449
11
-0.0028960236220472
21
-0.000576062992126
0
LINE
8
BLACK
6
CONTINUOUS
10
-0.0028960236220472
20
-0.000576062992126
11
-0.0029527559055118
21
0.5905511811023622
0
LINE
8
BLACK
6
CONTINUOUS
10
-0.0029527559055118
20
0.5905511811023622
11
-0.0028960236220472
21
0.5911272440944881
0
LINE
8
BLACK
6
CONTINUOUS
10
-0.0028960236220472
20
0.5911272440944881
11
-0.0024551181102362
21
0.5921916535433071
0
LINE
8
BLACK
6
CONTINUOUS
10
-0.0024551181102362
20
0.5921916535433071
11
-0.0016404724409449
21
0.5930062992125984
0
LINE
8
BLACK
6
CONTINUOUS
10
-0.0016404724409449
20
0.5930062992125984
11
-0.000576062992126
21
0.5934472047244095
0
LINE
8
BLACK
6
CONTINUOUS
10
-0.000576062992126
20
0.5934472047244095
11
1.1811023622047243
21
0.593503937007874
0
LINE
8
BLACK
6
CONTINUOUS
10
1.1811023622047243
20
0.593503937007874
11
1.1816784251968504
21
0.5934472047244095
0
LINE
8
BLACK
6
CONTINUOUS
10
0.0028963385826772
20
0.5875985826771654
11
0.0029524409448819
21
0.0028962204724409
0
LINE
8
BLACK
6
CONTINUOUS
10
0.0029524409448819
20
0.0028962204724409
11
1.1782059842519685
21
0.0029526377952756
0
LINE
8
BLACK
6
CONTINUOUS
10
1.1782059842519685
20
0.0029526377952756
11
1.1781498818897638
21
0.587655
0
LINE
8
BLACK
6
CONTINUOUS
10
1.1781498818897638
20
0.587655
11
0.0028963385826772
21
0.5875985826771654
  0
ENDSEC
  0
EOF
