  0
SECTION
  2
HEADER
  9
$ANGBASE
  50
0.0
  9
$ANGDIR
  70
1
  9
$MEASUREMENT
  70
0
  0
ENDSEC
  0
SECTION
  2
TABLES
  0
TABLE
  2
LTYPE
  70
4
  0
LTYPE
  5
40F
  2
CONTINUOUS
  70
0
  3
Solid line
  72
65
  73
0
  40
0.0
  0
LTYPE
  5
410
  2
DASHDOT
 70
0
  3
Dash Dot ____ _ ____ _
 72
65
 73
4
 40
2.0
 49
1.25
 49
-0.25
 49
0.25
 49
-0.25
  0
LTYPE
  5
411
  2
DASHED
 70
0
  3
Dashed __ __ __ __ __
 72
65
 73
2
 40
0.75
 49
0.5
 49
-0.25
  0
LTYPE
  5
43B
  2
DOTTED
 70
0
  3
Dotted .  .  .  .
 72
65
 73
2
 40
0.2
 49
0.0
 49
-0.2
  0
ENDTAB
  0
TABLE
  2
STYLE
  70
4
  0
STYLE
  2
KICAD
  70
0
  40
0
  41
1
  42
1
  50
0
  71
0
  3
isocp.shx
  0
STYLE
  2
KICADB
  70
0
  40
0
  41
1
  42
1
  50
0
  71
0
  3
isocp.shx
  0
STYLE
  2
KICADI
  70
0
  40
0
  41
1
  42
1
  50
15
  71
0
  3
isocp.shx
  0
STYLE
  2
KICADBI
  70
0
  40
0
  41
1
  42
1
  50
15
  71
0
  3
isocp.shx
  0
ENDTAB
  0
TABLE
  2
LAYER
  70
1
  0
LAYER
  2
BLACK
  70
0
  62
7
  6
CONTINUOUS
  0
ENDTAB
  0
ENDSEC
  0
SECTION
  2
ENTITIES
0
LINE
8
BLACK
6
CONTINUOUS
10
0.3074673622047244
20
0.1425342519685039
11
0.3106605118110236
21
0.1404006692913386
0
LINE
8
BLACK
6
CONTINUOUS
10
0.3106605118110236
20
0.1404006692913386
11
0.312794094488189
21
0.1372075196850394
0
LINE
8
BLACK
6
CONTINUOUS
10
0.312794094488189
20
0.1372075196850394
11
0.3135433070866142
21
0.1334409448818898
0
LINE
8
BLACK
6
CONTINUOUS
10
0.3135433070866142
20
0.1334409448818898
11
0.3135433070866142
21
0.113755905511811
0
LINE
8
BLACK
6
CONTINUOUS
10
0.3135433070866142
20
0.113755905511811
11
0.312794094488189
21
0.1099893307086614
0
LINE
8
BLACK
6
CONTINUOUS
10
0.312794094488189
20
0.1099893307086614
11
0.3106605118110236
21
0.1067961811023622
0
LINE
8
BLACK
6
CONTINUOUS
10
0.3106605118110236
20
0.1067961811023622
11
0.3074673622047244
21
0.1046625984251968
0
LINE
8
BLACK
6
CONTINUOUS
10
0.3074673622047244
20
0.1046625984251968
11
0.3037007874015748
21
0.1039133858267716
0
LINE
8
BLACK
6
CONTINUOUS
10
0.3037007874015748
20
0.1039133858267716
11
0.2662992125984252
21
0.1039133858267716
0
LINE
8
BLACK
6
CONTINUOUS
10
0.2662992125984252
20
0.1039133858267716
11
0.2625326377952756
21
0.1046625984251968
0
LINE
8
BLACK
6
CONTINUOUS
10
0.2625326377952756
20
0.1046625984251968
11
0.2593394881889764
21
0.1067961811023622
0
LINE
8
BLACK
6
CONTINUOUS
10
0.2593394881889764
20
0.1067961811023622
11
0.257205905511811
21
0.1099893307086614
0
LINE
8
BLACK
6
CONTINUOUS
10
0.257205905511811
20
0.1099893307086614
11
0.2564566929133858
21
0.113755905511811
0
LINE
8
BLACK
6
CONTINUOUS
10
0.2564566929133858
20
0.113755905511811
11
0.2564566929133858
21
0.1334409448818898
0
LINE
8
BLACK
6
CONTINUOUS
10
0.2564566929133858
20
0.1334409448818898
11
0.257205905511811
21
0.1372075196850394
0
LINE
8
BLACK
6
CONTINUOUS
10
0.257205905511811
20
0.1372075196850394
11
0.2593394881889764
21
0.1404006692913386
0
LINE
8
BLACK
6
CONTINUOUS
10
0.2593394881889764
20
0.1404006692913386
11
0.2625326377952756
21
0.1425342519685039
0
LINE
8
BLACK
6
CONTINUOUS
10
0.2625326377952756
20
0.1425342519685039
11
0.2662992125984252
21
0.1432834645669291
0
LINE
8
BLACK
6
CONTINUOUS
10
0.2662992125984252
20
0.1432834645669291
11
0.3037007874015748
21
0.1432834645669291
0
LINE
8
BLACK
6
CONTINUOUS
10
0.3037007874015748
20
0.1432834645669291
11
0.3074673622047244
21
0.1425342519685039
0
LINE
8
BLACK
6
CONTINUOUS
10
0.3846536614173228
20
0.1339599212598425
11
0.3865695275590551
21
0.1326797637795276
0
LINE
8
BLACK
6
CONTINUOUS
10
0.3865695275590551
20
0.1326797637795276
11
0.3878496850393701
21
0.1307638976377953
0
LINE
8
BLACK
6
CONTINUOUS
10
0.3878496850393701
20
0.1307638976377953
11
0.3882992125984252
21
0.128503937007874
0
LINE
8
BLACK
6
CONTINUOUS
10
0.3882992125984252
20
0.128503937007874
11
0.3882992125984252
21
0.1166929133858268
0
LINE
8
BLACK
6
CONTINUOUS
10
0.3882992125984252
20
0.1166929133858268
11
0.3878496850393701
21
0.1144329527559055
0
LINE
8
BLACK
6
CONTINUOUS
10
0.3878496850393701
20
0.1144329527559055
11
0.3865695275590551
21
0.1125170866141732
0
LINE
8
BLACK
6
CONTINUOUS
10
0.3865695275590551
20
0.1125170866141732
11
0.3846536614173228
21
0.1112369291338583
0
LINE
8
BLACK
6
CONTINUOUS
10
0.3846536614173228
20
0.1112369291338583
11
0.3823937007874016
21
0.1107874015748031
0
LINE
8
BLACK
6
CONTINUOUS
10
0.3823937007874016
20
0.1107874015748031
11
0.3420393700787401
21
0.1107874015748031
0
LINE
8
BLACK
6
CONTINUOUS
10
0.3420393700787401
20
0.1107874015748031
11
0.3397794094488189
21
0.1112369291338583
0
LINE
8
BLACK
6
CONTINUOUS
10
0.3397794094488189
20
0.1112369291338583
11
0.3378635433070866
21
0.1125170866141732
0
LINE
8
BLACK
6
CONTINUOUS
10
0.3378635433070866
20
0.1125170866141732
11
0.3365833858267717
21
0.1144329527559055
0
LINE
8
BLACK
6
CONTINUOUS
10
0.3365833858267717
20
0.1144329527559055
11
0.3361338582677165
21
0.1166929133858268
0
LINE
8
BLACK
6
CONTINUOUS
10
0.3361338582677165
20
0.1166929133858268
11
0.3361338582677165
21
0.128503937007874
0
LINE
8
BLACK
6
CONTINUOUS
10
0.3361338582677165
20
0.128503937007874
11
0.3365833858267717
21
0.1307638976377953
0
LINE
8
BLACK
6
CONTINUOUS
10
0.3365833858267717
20
0.1307638976377953
11
0.3378635433070866
21
0.1326797637795276
0
LINE
8
BLACK
6
CONTINUOUS
10
0.3378635433070866
20
0.1326797637795276
11
0.3397794094488189
21
0.1339599212598425
0
LINE
8
BLACK
6
CONTINUOUS
10
0.3397794094488189
20
0.1339599212598425
11
0.3420393700787401
21
0.1344094488188976
0
LINE
8
BLACK
6
CONTINUOUS
10
0.3420393700787401
20
0.1344094488188976
11
0.3823937007874016
21
0.1344094488188976
0
LINE
8
BLACK
6
CONTINUOUS
10
0.3823937007874016
20
0.1344094488188976
11
0.3846536614173228
21
0.1339599212598425
0
LINE
8
BLACK
6
CONTINUOUS
10
0.4742205905511811
20
0.1339599212598425
11
0.4761364566929134
21
0.1326797637795276
0
LINE
8
BLACK
6
CONTINUOUS
10
0.4761364566929134
20
0.1326797637795276
11
0.4774166141732283
21
0.1307638976377953
0
LINE
8
BLACK
6
CONTINUOUS
10
0.4774166141732283
20
0.1307638976377953
11
0.4778661417322835
21
0.128503937007874
0
LINE
8
BLACK
6
CONTINUOUS
10
0.4778661417322835
20
0.128503937007874
11
0.4778661417322835
21
0.1166929133858268
0
LINE
8
BLACK
6
CONTINUOUS
10
0.4778661417322835
20
0.1166929133858268
11
0.4774166141732283
21
0.1144329527559055
0
LINE
8
BLACK
6
CONTINUOUS
10
0.4774166141732283
20
0.1144329527559055
11
0.4761364566929134
21
0.1125170866141732
0
LINE
8
BLACK
6
CONTINUOUS
10
0.4761364566929134
20
0.1125170866141732
11
0.4742205905511811
21
0.1112369291338583
0
LINE
8
BLACK
6
CONTINUOUS
10
0.4742205905511811
20
0.1112369291338583
11
0.4719606299212598
21
0.1107874015748031
0
LINE
8
BLACK
6
CONTINUOUS
10
0.4719606299212598
20
0.1107874015748031
11
0.4316062992125984
21
0.1107874015748031
0
LINE
8
BLACK
6
CONTINUOUS
10
0.4316062992125984
20
0.1107874015748031
11
0.4293463385826772
21
0.1112369291338583
0
LINE
8
BLACK
6
CONTINUOUS
10
0.4293463385826772
20
0.1112369291338583
11
0.4274304724409449
21
0.1125170866141732
0
LINE
8
BLACK
6
CONTINUOUS
10
0.4274304724409449
20
0.1125170866141732
11
0.4261503149606299
21
0.1144329527559055
0
LINE
8
BLACK
6
CONTINUOUS
10
0.4261503149606299
20
0.1144329527559055
11
0.4257007874015748
21
0.1166929133858268
0
LINE
8
BLACK
6
CONTINUOUS
10
0.4257007874015748
20
0.1166929133858268
11
0.4257007874015748
21
0.128503937007874
0
LINE
8
BLACK
6
CONTINUOUS
10
0.4257007874015748
20
0.128503937007874
11
0.4261503149606299
21
0.1307638976377953
0
LINE
8
BLACK
6
CONTINUOUS
10
0.4261503149606299
20
0.1307638976377953
11
0.4274304724409449
21
0.1326797637795276
0
LINE
8
BLACK
6
CONTINUOUS
10
0.4274304724409449
20
0.1326797637795276
11
0.4293463385826772
21
0.1339599212598425
0
LINE
8
BLACK
6
CONTINUOUS
10
0.4293463385826772
20
0.1339599212598425
11
0.4316062992125984
21
0.1344094488188976
0
LINE
8
BLACK
6
CONTINUOUS
10
0.4316062992125984
20
0.1344094488188976
11
0.4719606299212598
21
0.1344094488188976
0
LINE
8
BLACK
6
CONTINUOUS
10
0.4719606299212598
20
0.1344094488188976
11
0.4742205905511811
21
0.1339599212598425
0
LINE
8
BLACK
6
CONTINUOUS
10
0.5332324409448819
20
0.1515304330708661
11
0.5361062598425197
21
0.1496101968503937
0
LINE
8
BLACK
6
CONTINUOUS
10
0.5361062598425197
20
0.1496101968503937
11
0.5380264960629921
21
0.1467363779527559
0
LINE
8
BLACK
6
CONTINUOUS
10
0.5380264960629921
20
0.1467363779527559
11
0.5387007874015748
21
0.1433464566929134
0
LINE
8
BLACK
6
CONTINUOUS
10
0.5387007874015748
20
0.1433464566929134
11
0.5387007874015748
21
0.1256299212598425
0
LINE
8
BLACK
6
CONTINUOUS
10
0.5387007874015748
20
0.1256299212598425
11
0.5380264960629921
21
0.12224
0
LINE
8
BLACK
6
CONTINUOUS
10
0.5380264960629921
20
0.12224
11
0.5361062598425197
21
0.1193661811023622
0
LINE
8
BLACK
6
CONTINUOUS
10
0.5361062598425197
20
0.1193661811023622
11
0.5332324409448819
21
0.1174459448818898
0
LINE
8
BLACK
6
CONTINUOUS
10
0.5332324409448819
20
0.1174459448818898
11
0.5298425196850394
21
0.1167716535433071
0
LINE
8
BLACK
6
CONTINUOUS
10
0.5298425196850394
20
0.1167716535433071
11
0.5101574803149607
21
0.1167716535433071
0
LINE
8
BLACK
6
CONTINUOUS
10
0.5101574803149607
20
0.1167716535433071
11
0.5067675590551181
21
0.1174459448818898
0
LINE
8
BLACK
6
CONTINUOUS
10
0.5067675590551181
20
0.1174459448818898
11
0.5038937401574803
21
0.1193661811023622
0
LINE
8
BLACK
6
CONTINUOUS
10
0.5038937401574803
20
0.1193661811023622
11
0.5019735039370079
21
0.12224
0
LINE
8
BLACK
6
CONTINUOUS
10
0.5019735039370079
20
0.12224
11
0.5012992125984251
21
0.1256299212598425
0
LINE
8
BLACK
6
CONTINUOUS
10
0.5012992125984251
20
0.1256299212598425
11
0.5012992125984251
21
0.1433464566929134
0
LINE
8
BLACK
6
CONTINUOUS
10
0.5012992125984251
20
0.1433464566929134
11
0.5019735039370079
21
0.1467363779527559
0
LINE
8
BLACK
6
CONTINUOUS
10
0.5019735039370079
20
0.1467363779527559
11
0.5038937401574803
21
0.1496101968503937
0
LINE
8
BLACK
6
CONTINUOUS
10
0.5038937401574803
20
0.1496101968503937
11
0.5067675590551181
21
0.1515304330708661
0
LINE
8
BLACK
6
CONTINUOUS
10
0.5067675590551181
20
0.1515304330708661
11
0.5101574803149607
21
0.1522047244094488
0
LINE
8
BLACK
6
CONTINUOUS
10
0.5101574803149607
20
0.1522047244094488
11
0.5298425196850394
21
0.1522047244094488
0
LINE
8
BLACK
6
CONTINUOUS
10
0.5298425196850394
20
0.1522047244094488
11
0.5332324409448819
21
0.1515304330708661
0
LINE
8
BLACK
6
CONTINUOUS
10
0.1119240551181102
20
0.167557874015748
11
0.1151172047244094
21
0.1654242913385827
0
LINE
8
BLACK
6
CONTINUOUS
10
0.1151172047244094
20
0.1654242913385827
11
0.1172507874015748
21
0.1622311417322835
0
LINE
8
BLACK
6
CONTINUOUS
10
0.1172507874015748
20
0.1622311417322835
11
0.118
21
0.1584645669291339
0
LINE
8
BLACK
6
CONTINUOUS
10
0.118
20
0.1584645669291339
11
0.118
21
0.1387795275590551
0
LINE
8
BLACK
6
CONTINUOUS
10
0.118
20
0.1387795275590551
11
0.1172507874015748
21
0.1350129527559055
0
LINE
8
BLACK
6
CONTINUOUS
10
0.1172507874015748
20
0.1350129527559055
11
0.1151172047244094
21
0.1318198031496063
0
LINE
8
BLACK
6
CONTINUOUS
10
0.1151172047244094
20
0.1318198031496063
11
0.1119240551181102
21
0.1296862204724409
0
LINE
8
BLACK
6
CONTINUOUS
10
0.1119240551181102
20
0.1296862204724409
11
0.1081574803149606
21
0.1289370078740157
0
LINE
8
BLACK
6
CONTINUOUS
10
0.1081574803149606
20
0.1289370078740157
11
0.0215433070866142
21
0.1289370078740157
0
LINE
8
BLACK
6
CONTINUOUS
10
0.0215433070866142
20
0.1289370078740157
11
0.0177767322834646
21
0.1296862204724409
0
LINE
8
BLACK
6
CONTINUOUS
10
0.0177767322834646
20
0.1296862204724409
11
0.0145835826771654
21
0.1318198031496063
0
LINE
8
BLACK
6
CONTINUOUS
10
0.0145835826771654
20
0.1318198031496063
11
0.01245
21
0.1350129527559055
0
LINE
8
BLACK
6
CONTINUOUS
10
0.01245
20
0.1350129527559055
11
0.0117007874015748
21
0.1387795275590551
0
LINE
8
BLACK
6
CONTINUOUS
10
0.0117007874015748
20
0.1387795275590551
11
0.0117007874015748
21
0.1584645669291339
0
LINE
8
BLACK
6
CONTINUOUS
10
0.0117007874015748
20
0.1584645669291339
11
0.01245
21
0.1622311417322835
0
LINE
8
BLACK
6
CONTINUOUS
10
0.01245
20
0.1622311417322835
11
0.0145835826771654
21
0.1654242913385827
0
LINE
8
BLACK
6
CONTINUOUS
10
0.0145835826771654
20
0.1654242913385827
11
0.0177767322834646
21
0.167557874015748
0
LINE
8
BLACK
6
CONTINUOUS
10
0.0177767322834646
20
0.167557874015748
11
0.0215433070866142
21
0.1683070866141732
0
LINE
8
BLACK
6
CONTINUOUS
10
0.0215433070866142
20
0.1683070866141732
11
0.1081574803149606
21
0.1683070866141732
0
LINE
8
BLACK
6
CONTINUOUS
10
0.1081574803149606
20
0.1683070866141732
11
0.1119240551181102
21
0.167557874015748
0
LINE
8
BLACK
6
CONTINUOUS
10
0.3846536614173228
20
0.1713614960629921
11
0.3865695275590551
21
0.1700813385826772
0
LINE
8
BLACK
6
CONTINUOUS
10
0.3865695275590551
20
0.1700813385826772
11
0.3878496850393701
21
0.1681654724409449
0
LINE
8
BLACK
6
CONTINUOUS
10
0.3878496850393701
20
0.1681654724409449
11
0.3882992125984252
21
0.1659055118110236
0
LINE
8
BLACK
6
CONTINUOUS
10
0.3882992125984252
20
0.1659055118110236
11
0.3882992125984252
21
0.1540944881889764
0
LINE
8
BLACK
6
CONTINUOUS
10
0.3882992125984252
20
0.1540944881889764
11
0.3878496850393701
21
0.1518345275590551
0
LINE
8
BLACK
6
CONTINUOUS
10
0.3878496850393701
20
0.1518345275590551
11
0.3865695275590551
21
0.1499186614173228
0
LINE
8
BLACK
6
CONTINUOUS
10
0.3865695275590551
20
0.1499186614173228
11
0.3846536614173228
21
0.1486385039370079
0
LINE
8
BLACK
6
CONTINUOUS
10
0.3846536614173228
20
0.1486385039370079
11
0.3823937007874016
21
0.1481889763779528
0
LINE
8
BLACK
6
CONTINUOUS
10
0.3823937007874016
20
0.1481889763779528
11
0.3420393700787401
21
0.1481889763779528
0
LINE
8
BLACK
6
CONTINUOUS
10
0.3420393700787401
20
0.1481889763779528
11
0.3397794094488189
21
0.1486385039370079
0
LINE
8
BLACK
6
CONTINUOUS
10
0.3397794094488189
20
0.1486385039370079
11
0.3378635433070866
21
0.1499186614173228
0
LINE
8
BLACK
6
CONTINUOUS
10
0.3378635433070866
20
0.1499186614173228
11
0.3365833858267717
21
0.1518345275590551
0
LINE
8
BLACK
6
CONTINUOUS
10
0.3365833858267717
20
0.1518345275590551
11
0.3361338582677165
21
0.1540944881889764
0
LINE
8
BLACK
6
CONTINUOUS
10
0.3361338582677165
20
0.1540944881889764
11
0.3361338582677165
21
0.1659055118110236
0
LINE
8
BLACK
6
CONTINUOUS
10
0.3361338582677165
20
0.1659055118110236
11
0.3365833858267717
21
0.1681654724409449
0
LINE
8
BLACK
6
CONTINUOUS
10
0.3365833858267717
20
0.1681654724409449
11
0.3378635433070866
21
0.1700813385826772
0
LINE
8
BLACK
6
CONTINUOUS
10
0.3378635433070866
20
0.1700813385826772
11
0.3397794094488189
21
0.1713614960629921
0
LINE
8
BLACK
6
CONTINUOUS
10
0.3397794094488189
20
0.1713614960629921
11
0.3420393700787401
21
0.1718110236220472
0
LINE
8
BLACK
6
CONTINUOUS
10
0.3420393700787401
20
0.1718110236220472
11
0.3823937007874016
21
0.1718110236220472
0
LINE
8
BLACK
6
CONTINUOUS
10
0.3823937007874016
20
0.1718110236220472
11
0.3846536614173228
21
0.1713614960629921
0
LINE
8
BLACK
6
CONTINUOUS
10
0.5332324409448819
20
0.2125540551181102
11
0.5361062598425197
21
0.2106338188976378
0
LINE
8
BLACK
6
CONTINUOUS
10
0.5361062598425197
20
0.2106338188976378
11
0.5380264960629921
21
0.20776
0
LINE
8
BLACK
6
CONTINUOUS
10
0.5380264960629921
20
0.20776
11
0.5387007874015748
21
0.2043700787401575
0
LINE
8
BLACK
6
CONTINUOUS
10
0.5387007874015748
20
0.2043700787401575
11
0.5387007874015748
21
0.1866535433070866
0
LINE
8
BLACK
6
CONTINUOUS
10
0.5387007874015748
20
0.1866535433070866
11
0.5380264960629921
21
0.1832636220472441
0
LINE
8
BLACK
6
CONTINUOUS
10
0.5380264960629921
20
0.1832636220472441
11
0.5361062598425197
21
0.1803898031496063
0
LINE
8
BLACK
6
CONTINUOUS
10
0.5361062598425197
20
0.1803898031496063
11
0.5332324409448819
21
0.1784695669291338
0
LINE
8
BLACK
6
CONTINUOUS
10
0.5332324409448819
20
0.1784695669291338
11
0.5298425196850394
21
0.1777952755905512
0
LINE
8
BLACK
6
CONTINUOUS
10
0.5298425196850394
20
0.1777952755905512
11
0.5101574803149607
21
0.1777952755905512
0
LINE
8
BLACK
6
CONTINUOUS
10
0.5101574803149607
20
0.1777952755905512
11
0.5067675590551181
21
0.1784695669291338
0
LINE
8
BLACK
6
CONTINUOUS
10
0.5067675590551181
20
0.1784695669291338
11
0.5038937401574803
21
0.1803898031496063
0
LINE
8
BLACK
6
CONTINUOUS
10
0.5038937401574803
20
0.1803898031496063
11
0.5019735039370079
21
0.1832636220472441
0
LINE
8
BLACK
6
CONTINUOUS
10
0.5019735039370079
20
0.1832636220472441
11
0.5012992125984251
21
0.1866535433070866
0
LINE
8
BLACK
6
CONTINUOUS
10
0.5012992125984251
20
0.1866535433070866
11
0.5012992125984251
21
0.2043700787401575
0
LINE
8
BLACK
6
CONTINUOUS
10
0.5012992125984251
20
0.2043700787401575
11
0.5019735039370079
21
0.20776
0
LINE
8
BLACK
6
CONTINUOUS
10
0.5019735039370079
20
0.20776
11
0.5038937401574803
21
0.2106338188976378
0
LINE
8
BLACK
6
CONTINUOUS
10
0.5038937401574803
20
0.2106338188976378
11
0.5067675590551181
21
0.2125540551181102
0
LINE
8
BLACK
6
CONTINUOUS
10
0.5067675590551181
20
0.2125540551181102
11
0.5101574803149607
21
0.2132283464566929
0
LINE
8
BLACK
6
CONTINUOUS
10
0.5101574803149607
20
0.2132283464566929
11
0.5298425196850394
21
0.2132283464566929
0
LINE
8
BLACK
6
CONTINUOUS
10
0.5298425196850394
20
0.2132283464566929
11
0.5332324409448819
21
0.2125540551181102
0
LINE
8
BLACK
6
CONTINUOUS
10
0.3074673622047244
20
0.2173374015748031
11
0.3106605118110236
21
0.2152038188976378
0
LINE
8
BLACK
6
CONTINUOUS
10
0.3106605118110236
20
0.2152038188976378
11
0.312794094488189
21
0.2120106692913386
0
LINE
8
BLACK
6
CONTINUOUS
10
0.312794094488189
20
0.2120106692913386
11
0.3135433070866142
21
0.208244094488189
0
LINE
8
BLACK
6
CONTINUOUS
10
0.3135433070866142
20
0.208244094488189
11
0.3135433070866142
21
0.1885590551181102
0
LINE
8
BLACK
6
CONTINUOUS
10
0.3135433070866142
20
0.1885590551181102
11
0.312794094488189
21
0.1847924803149606
0
LINE
8
BLACK
6
CONTINUOUS
10
0.312794094488189
20
0.1847924803149606
11
0.3106605118110236
21
0.1815993307086614
0
LINE
8
BLACK
6
CONTINUOUS
10
0.3106605118110236
20
0.1815993307086614
11
0.3074673622047244
21
0.1794657480314961
0
LINE
8
BLACK
6
CONTINUOUS
10
0.3074673622047244
20
0.1794657480314961
11
0.3037007874015748
21
0.1787165354330709
0
LINE
8
BLACK
6
CONTINUOUS
10
0.3037007874015748
20
0.1787165354330709
11
0.2662992125984252
21
0.1787165354330709
0
LINE
8
BLACK
6
CONTINUOUS
10
0.2662992125984252
20
0.1787165354330709
11
0.2625326377952756
21
0.1794657480314961
0
LINE
8
BLACK
6
CONTINUOUS
10
0.2625326377952756
20
0.1794657480314961
11
0.2593394881889764
21
0.1815993307086614
0
LINE
8
BLACK
6
CONTINUOUS
10
0.2593394881889764
20
0.1815993307086614
11
0.257205905511811
21
0.1847924803149606
0
LINE
8
BLACK
6
CONTINUOUS
10
0.257205905511811
20
0.1847924803149606
11
0.2564566929133858
21
0.1885590551181102
0
LINE
8
BLACK
6
CONTINUOUS
10
0.2564566929133858
20
0.1885590551181102
11
0.2564566929133858
21
0.208244094488189
0
LINE
8
BLACK
6
CONTINUOUS
10
0.2564566929133858
20
0.208244094488189
11
0.257205905511811
21
0.2120106692913386
0
LINE
8
BLACK
6
CONTINUOUS
10
0.257205905511811
20
0.2120106692913386
11
0.2593394881889764
21
0.2152038188976378
0
LINE
8
BLACK
6
CONTINUOUS
10
0.2593394881889764
20
0.2152038188976378
11
0.2625326377952756
21
0.2173374015748031
0
LINE
8
BLACK
6
CONTINUOUS
10
0.2625326377952756
20
0.2173374015748031
11
0.2662992125984252
21
0.2180866141732283
0
LINE
8
BLACK
6
CONTINUOUS
10
0.2662992125984252
20
0.2180866141732283
11
0.3037007874015748
21
0.2180866141732283
0
LINE
8
BLACK
6
CONTINUOUS
10
0.3037007874015748
20
0.2180866141732283
11
0.3074673622047244
21
0.2173374015748031
0
LINE
8
BLACK
6
CONTINUOUS
10
0.3846536614173228
20
0.2087630708661417
11
0.3865695275590551
21
0.2074829133858268
0
LINE
8
BLACK
6
CONTINUOUS
10
0.3865695275590551
20
0.2074829133858268
11
0.3878496850393701
21
0.2055670472440945
0
LINE
8
BLACK
6
CONTINUOUS
10
0.3878496850393701
20
0.2055670472440945
11
0.3882992125984252
21
0.2033070866141732
0
LINE
8
BLACK
6
CONTINUOUS
10
0.3882992125984252
20
0.2033070866141732
11
0.3882992125984252
21
0.191496062992126
0
LINE
8
BLACK
6
CONTINUOUS
10
0.3882992125984252
20
0.191496062992126
11
0.3878496850393701
21
0.1892361023622047
0
LINE
8
BLACK
6
CONTINUOUS
10
0.3878496850393701
20
0.1892361023622047
11
0.3865695275590551
21
0.1873202362204724
0
LINE
8
BLACK
6
CONTINUOUS
10
0.3865695275590551
20
0.1873202362204724
11
0.3846536614173228
21
0.1860400787401575
0
LINE
8
BLACK
6
CONTINUOUS
10
0.3846536614173228
20
0.1860400787401575
11
0.3823937007874016
21
0.1855905511811023
0
LINE
8
BLACK
6
CONTINUOUS
10
0.3823937007874016
20
0.1855905511811023
11
0.3420393700787401
21
0.1855905511811023
0
LINE
8
BLACK
6
CONTINUOUS
10
0.3420393700787401
20
0.1855905511811023
11
0.3397794094488189
21
0.1860400787401575
0
LINE
8
BLACK
6
CONTINUOUS
10
0.3397794094488189
20
0.1860400787401575
11
0.3378635433070866
21
0.1873202362204724
0
LINE
8
BLACK
6
CONTINUOUS
10
0.3378635433070866
20
0.1873202362204724
11
0.3365833858267717
21
0.1892361023622047
0
LINE
8
BLACK
6
CONTINUOUS
10
0.3365833858267717
20
0.1892361023622047
11
0.3361338582677165
21
0.191496062992126
0
LINE
8
BLACK
6
CONTINUOUS
10
0.3361338582677165
20
0.191496062992126
11
0.3361338582677165
21
0.2033070866141732
0
LINE
8
BLACK
6
CONTINUOUS
10
0.3361338582677165
20
0.2033070866141732
11
0.3365833858267717
21
0.2055670472440945
0
LINE
8
BLACK
6
CONTINUOUS
10
0.3365833858267717
20
0.2055670472440945
11
0.3378635433070866
21
0.2074829133858268
0
LINE
8
BLACK
6
CONTINUOUS
10
0.3378635433070866
20
0.2074829133858268
11
0.3397794094488189
21
0.2087630708661417
0
LINE
8
BLACK
6
CONTINUOUS
10
0.3397794094488189
20
0.2087630708661417
11
0.3420393700787401
21
0.2092125984251968
0
LINE
8
BLACK
6
CONTINUOUS
10
0.3420393700787401
20
0.2092125984251968
11
0.3823937007874016
21
0.2092125984251968
0
LINE
8
BLACK
6
CONTINUOUS
10
0.3823937007874016
20
0.2092125984251968
11
0.3846536614173228
21
0.2087630708661417
0
LINE
8
BLACK
6
CONTINUOUS
10
0.4742205905511811
20
0.2087630708661417
11
0.4761364566929134
21
0.2074829133858268
0
LINE
8
BLACK
6
CONTINUOUS
10
0.4761364566929134
20
0.2074829133858268
11
0.4774166141732283
21
0.2055670472440945
0
LINE
8
BLACK
6
CONTINUOUS
10
0.4774166141732283
20
0.2055670472440945
11
0.4778661417322835
21
0.2033070866141732
0
LINE
8
BLACK
6
CONTINUOUS
10
0.4778661417322835
20
0.2033070866141732
11
0.4778661417322835
21
0.191496062992126
0
LINE
8
BLACK
6
CONTINUOUS
10
0.4778661417322835
20
0.191496062992126
11
0.4774166141732283
21
0.1892361023622047
0
LINE
8
BLACK
6
CONTINUOUS
10
0.4774166141732283
20
0.1892361023622047
11
0.4761364566929134
21
0.1873202362204724
0
LINE
8
BLACK
6
CONTINUOUS
10
0.4761364566929134
20
0.1873202362204724
11
0.4742205905511811
21
0.1860400787401575
0
LINE
8
BLACK
6
CONTINUOUS
10
0.4742205905511811
20
0.1860400787401575
11
0.4719606299212598
21
0.1855905511811023
0
LINE
8
BLACK
6
CONTINUOUS
10
0.4719606299212598
20
0.1855905511811023
11
0.4316062992125984
21
0.1855905511811023
0
LINE
8
BLACK
6
CONTINUOUS
10
0.4316062992125984
20
0.1855905511811023
11
0.4293463385826772
21
0.1860400787401575
0
LINE
8
BLACK
6
CONTINUOUS
10
0.4293463385826772
20
0.1860400787401575
11
0.4274304724409449
21
0.1873202362204724
0
LINE
8
BLACK
6
CONTINUOUS
10
0.4274304724409449
20
0.1873202362204724
11
0.4261503149606299
21
0.1892361023622047
0
LINE
8
BLACK
6
CONTINUOUS
10
0.4261503149606299
20
0.1892361023622047
11
0.4257007874015748
21
0.191496062992126
0
LINE
8
BLACK
6
CONTINUOUS
10
0.4257007874015748
20
0.191496062992126
11
0.4257007874015748
21
0.2033070866141732
0
LINE
8
BLACK
6
CONTINUOUS
10
0.4257007874015748
20
0.2033070866141732
11
0.4261503149606299
21
0.2055670472440945
0
LINE
8
BLACK
6
CONTINUOUS
10
0.4261503149606299
20
0.2055670472440945
11
0.4274304724409449
21
0.2074829133858268
0
LINE
8
BLACK
6
CONTINUOUS
10
0.4274304724409449
20
0.2074829133858268
11
0.4293463385826772
21
0.2087630708661417
0
LINE
8
BLACK
6
CONTINUOUS
10
0.4293463385826772
20
0.2087630708661417
11
0.4316062992125984
21
0.2092125984251968
0
LINE
8
BLACK
6
CONTINUOUS
10
0.4316062992125984
20
0.2092125984251968
11
0.4719606299212598
21
0.2092125984251968
0
LINE
8
BLACK
6
CONTINUOUS
10
0.4719606299212598
20
0.2092125984251968
11
0.4742205905511811
21
0.2087630708661417
0
LINE
8
BLACK
6
CONTINUOUS
10
0.2206536614173228
20
0.232818188976378
11
0.2225695275590551
21
0.231538031496063
0
LINE
8
BLACK
6
CONTINUOUS
10
0.2225695275590551
20
0.231538031496063
11
0.2238496850393701
21
0.2296221653543307
0
LINE
8
BLACK
6
CONTINUOUS
10
0.2238496850393701
20
0.2296221653543307
11
0.2242992125984252
21
0.2273622047244094
0
LINE
8
BLACK
6
CONTINUOUS
10
0.2242992125984252
20
0.2273622047244094
11
0.2242992125984252
21
0.2155511811023622
0
LINE
8
BLACK
6
CONTINUOUS
10
0.2242992125984252
20
0.2155511811023622
11
0.2238496850393701
21
0.213291220472441
0
LINE
8
BLACK
6
CONTINUOUS
10
0.2238496850393701
20
0.213291220472441
11
0.2225695275590551
21
0.2113753543307087
0
LINE
8
BLACK
6
CONTINUOUS
10
0.2225695275590551
20
0.2113753543307087
11
0.2206536614173228
21
0.2100951968503937
0
LINE
8
BLACK
6
CONTINUOUS
10
0.2206536614173228
20
0.2100951968503937
11
0.2183937007874016
21
0.2096456692913386
0
LINE
8
BLACK
6
CONTINUOUS
10
0.2183937007874016
20
0.2096456692913386
11
0.1632755905511811
21
0.2096456692913386
0
LINE
8
BLACK
6
CONTINUOUS
10
0.1632755905511811
20
0.2096456692913386
11
0.1610156299212598
21
0.2100951968503937
0
LINE
8
BLACK
6
CONTINUOUS
10
0.1610156299212598
20
0.2100951968503937
11
0.1590997637795276
21
0.2113753543307087
0
LINE
8
BLACK
6
CONTINUOUS
10
0.1590997637795276
20
0.2113753543307087
11
0.1578196062992126
21
0.213291220472441
0
LINE
8
BLACK
6
CONTINUOUS
10
0.1578196062992126
20
0.213291220472441
11
0.1573700787401575
21
0.2155511811023622
0
LINE
8
BLACK
6
CONTINUOUS
10
0.1573700787401575
20
0.2155511811023622
11
0.1573700787401575
21
0.2273622047244094
0
LINE
8
BLACK
6
CONTINUOUS
10
0.1573700787401575
20
0.2273622047244094
11
0.1578196062992126
21
0.2296221653543307
0
LINE
8
BLACK
6
CONTINUOUS
10
0.1578196062992126
20
0.2296221653543307
11
0.1590997637795276
21
0.231538031496063
0
LINE
8
BLACK
6
CONTINUOUS
10
0.1590997637795276
20
0.231538031496063
11
0.1610156299212598
21
0.232818188976378
0
LINE
8
BLACK
6
CONTINUOUS
10
0.1610156299212598
20
0.232818188976378
11
0.1632755905511811
21
0.2332677165354331
0
LINE
8
BLACK
6
CONTINUOUS
10
0.1632755905511811
20
0.2332677165354331
11
0.2183937007874016
21
0.2332677165354331
0
LINE
8
BLACK
6
CONTINUOUS
10
0.2183937007874016
20
0.2332677165354331
11
0.2206536614173228
21
0.232818188976378
0
LINE
8
BLACK
6
CONTINUOUS
10
0.984031653543307
20
0.2818060236220473
11
0.9869054724409448
21
0.2798857874015748
0
LINE
8
BLACK
6
CONTINUOUS
10
0.9869054724409448
20
0.2798857874015748
11
0.9888257086614173
21
0.277011968503937
0
LINE
8
BLACK
6
CONTINUOUS
10
0.9888257086614173
20
0.277011968503937
11
0.9894999999999999
21
0.2736220472440945
0
LINE
8
BLACK
6
CONTINUOUS
10
0.9894999999999999
20
0.2736220472440945
11
0.9894999999999999
21
0.2559055118110236
0
LINE
8
BLACK
6
CONTINUOUS
10
0.9894999999999999
20
0.2559055118110236
11
0.9888257086614173
21
0.2525155905511811
0
LINE
8
BLACK
6
CONTINUOUS
10
0.9888257086614173
20
0.2525155905511811
11
0.9869054724409448
21
0.2496417716535433
0
LINE
8
BLACK
6
CONTINUOUS
10
0.9869054724409448
20
0.2496417716535433
11
0.984031653543307
21
0.2477215354330708
0
LINE
8
BLACK
6
CONTINUOUS
10
0.984031653543307
20
0.2477215354330708
11
0.9806417322834645
21
0.2470472440944882
0
LINE
8
BLACK
6
CONTINUOUS
10
0.9806417322834645
20
0.2470472440944882
11
0.9609566929133858
21
0.2470472440944882
0
LINE
8
BLACK
6
CONTINUOUS
10
0.9609566929133858
20
0.2470472440944882
11
0.9575667716535433
21
0.2477215354330708
0
LINE
8
BLACK
6
CONTINUOUS
10
0.9575667716535433
20
0.2477215354330708
11
0.9546929527559055
21
0.2496417716535433
0
LINE
8
BLACK
6
CONTINUOUS
10
0.9546929527559055
20
0.2496417716535433
11
0.9527727165354331
21
0.2525155905511811
0
LINE
8
BLACK
6
CONTINUOUS
10
0.9527727165354331
20
0.2525155905511811
11
0.9520984251968504
21
0.2559055118110236
0
LINE
8
BLACK
6
CONTINUOUS
10
0.9520984251968504
20
0.2559055118110236
11
0.9520984251968504
21
0.2736220472440945
0
LINE
8
BLACK
6
CONTINUOUS
10
0.9520984251968504
20
0.2736220472440945
11
0.9527727165354331
21
0.277011968503937
0
LINE
8
BLACK
6
CONTINUOUS
10
0.9527727165354331
20
0.277011968503937
11
0.9546929527559055
21
0.2798857874015748
0
LINE
8
BLACK
6
CONTINUOUS
10
0.9546929527559055
20
0.2798857874015748
11
0.9575667716535433
21
0.2818060236220473
0
LINE
8
BLACK
6
CONTINUOUS
10
0.9575667716535433
20
0.2818060236220473
11
0.9609566929133858
21
0.2824803149606299
0
LINE
8
BLACK
6
CONTINUOUS
10
0.9609566929133858
20
0.2824803149606299
11
0.9806417322834645
21
0.2824803149606299
0
LINE
8
BLACK
6
CONTINUOUS
10
0.9806417322834645
20
0.2824803149606299
11
0.984031653543307
21
0.2818060236220473
0
LINE
8
BLACK
6
CONTINUOUS
10
0.3187363779527559
20
0.2850264960629921
11
0.3216101968503937
21
0.2831062598425197
0
LINE
8
BLACK
6
CONTINUOUS
10
0.3216101968503937
20
0.2831062598425197
11
0.3235304330708662
21
0.2802324409448819
0
LINE
8
BLACK
6
CONTINUOUS
10
0.3235304330708662
20
0.2802324409448819
11
0.3242047244094488
21
0.2768425196850394
0
LINE
8
BLACK
6
CONTINUOUS
10
0.3242047244094488
20
0.2768425196850394
11
0.3242047244094488
21
0.2571574803149606
0
LINE
8
BLACK
6
CONTINUOUS
10
0.3242047244094488
20
0.2571574803149606
11
0.3235304330708662
21
0.2537675590551181
0
LINE
8
BLACK
6
CONTINUOUS
10
0.3235304330708662
20
0.2537675590551181
11
0.3216101968503937
21
0.2508937401574803
0
LINE
8
BLACK
6
CONTINUOUS
10
0.3216101968503937
20
0.2508937401574803
11
0.3187363779527559
21
0.2489735039370079
0
LINE
8
BLACK
6
CONTINUOUS
10
0.3187363779527559
20
0.2489735039370079
11
0.3153464566929134
21
0.2482992125984252
0
LINE
8
BLACK
6
CONTINUOUS
10
0.3153464566929134
20
0.2482992125984252
11
0.2976299212598425
21
0.2482992125984252
0
LINE
8
BLACK
6
CONTINUOUS
10
0.2976299212598425
20
0.2482992125984252
11
0.29424
21
0.2489735039370079
0
LINE
8
BLACK
6
CONTINUOUS
10
0.29424
20
0.2489735039370079
11
0.2913661811023622
21
0.2508937401574803
0
LINE
8
BLACK
6
CONTINUOUS
10
0.2913661811023622
20
0.2508937401574803
11
0.2894459448818897
21
0.2537675590551181
0
LINE
8
BLACK
6
CONTINUOUS
10
0.2894459448818897
20
0.2537675590551181
11
0.2887716535433071
21
0.2571574803149606
0
LINE
8
BLACK
6
CONTINUOUS
10
0.2887716535433071
20
0.2571574803149606
11
0.2887716535433071
21
0.2768425196850394
0
LINE
8
BLACK
6
CONTINUOUS
10
0.2887716535433071
20
0.2768425196850394
11
0.2894459448818897
21
0.2802324409448819
0
LINE
8
BLACK
6
CONTINUOUS
10
0.2894459448818897
20
0.2802324409448819
11
0.2913661811023622
21
0.2831062598425197
0
LINE
8
BLACK
6
CONTINUOUS
10
0.2913661811023622
20
0.2831062598425197
11
0.29424
21
0.2850264960629921
0
LINE
8
BLACK
6
CONTINUOUS
10
0.29424
20
0.2850264960629921
11
0.2976299212598425
21
0.2857007874015748
0
LINE
8
BLACK
6
CONTINUOUS
10
0.2976299212598425
20
0.2857007874015748
11
0.3153464566929134
21
0.2857007874015748
0
LINE
8
BLACK
6
CONTINUOUS
10
0.3153464566929134
20
0.2857007874015748
11
0.3187363779527559
21
0.2850264960629921
0
LINE
8
BLACK
6
CONTINUOUS
10
0.37976
20
0.2850264960629921
11
0.3826338188976378
21
0.2831062598425197
0
LINE
8
BLACK
6
CONTINUOUS
10
0.3826338188976378
20
0.2831062598425197
11
0.3845540551181102
21
0.2802324409448819
0
LINE
8
BLACK
6
CONTINUOUS
10
0.3845540551181102
20
0.2802324409448819
11
0.3852283464566929
21
0.2768425196850394
0
LINE
8
BLACK
6
CONTINUOUS
10
0.3852283464566929
20
0.2768425196850394
11
0.3852283464566929
21
0.2571574803149606
0
LINE
8
BLACK
6
CONTINUOUS
10
0.3852283464566929
20
0.2571574803149606
11
0.3845540551181102
21
0.2537675590551181
0
LINE
8
BLACK
6
CONTINUOUS
10
0.3845540551181102
20
0.2537675590551181
11
0.3826338188976378
21
0.2508937401574803
0
LINE
8
BLACK
6
CONTINUOUS
10
0.3826338188976378
20
0.2508937401574803
11
0.37976
21
0.2489735039370079
0
LINE
8
BLACK
6
CONTINUOUS
10
0.37976
20
0.2489735039370079
11
0.3763700787401575
21
0.2482992125984252
0
LINE
8
BLACK
6
CONTINUOUS
10
0.3763700787401575
20
0.2482992125984252
11
0.3586535433070866
21
0.2482992125984252
0
LINE
8
BLACK
6
CONTINUOUS
10
0.3586535433070866
20
0.2482992125984252
11
0.3552636220472441
21
0.2489735039370079
0
LINE
8
BLACK
6
CONTINUOUS
10
0.3552636220472441
20
0.2489735039370079
11
0.3523898031496063
21
0.2508937401574803
0
LINE
8
BLACK
6
CONTINUOUS
10
0.3523898031496063
20
0.2508937401574803
11
0.3504695669291338
21
0.2537675590551181
0
LINE
8
BLACK
6
CONTINUOUS
10
0.3504695669291338
20
0.2537675590551181
11
0.3497952755905512
21
0.2571574803149606
0
LINE
8
BLACK
6
CONTINUOUS
10
0.3497952755905512
20
0.2571574803149606
11
0.3497952755905512
21
0.2768425196850394
0
LINE
8
BLACK
6
CONTINUOUS
10
0.3497952755905512
20
0.2768425196850394
11
0.3504695669291338
21
0.2802324409448819
0
LINE
8
BLACK
6
CONTINUOUS
10
0.3504695669291338
20
0.2802324409448819
11
0.3523898031496063
21
0.2831062598425197
0
LINE
8
BLACK
6
CONTINUOUS
10
0.3523898031496063
20
0.2831062598425197
11
0.3552636220472441
21
0.2850264960629921
0
LINE
8
BLACK
6
CONTINUOUS
10
0.3552636220472441
20
0.2850264960629921
11
0.3586535433070866
21
0.2857007874015748
0
LINE
8
BLACK
6
CONTINUOUS
10
0.3586535433070866
20
0.2857007874015748
11
0.3763700787401575
21
0.2857007874015748
0
LINE
8
BLACK
6
CONTINUOUS
10
0.3763700787401575
20
0.2857007874015748
11
0.37976
21
0.2850264960629921
0
LINE
8
BLACK
6
CONTINUOUS
10
0.4678400393700787
20
0.2836683464566929
11
0.4703945275590551
21
0.2819614566929134
0
LINE
8
BLACK
6
CONTINUOUS
10
0.4703945275590551
20
0.2819614566929134
11
0.4721014173228346
21
0.279406968503937
0
LINE
8
BLACK
6
CONTINUOUS
10
0.4721014173228346
20
0.279406968503937
11
0.4727007874015748
21
0.2763937007874016
0
LINE
8
BLACK
6
CONTINUOUS
10
0.4727007874015748
20
0.2763937007874016
11
0.4727007874015748
21
0.2606456692913386
0
LINE
8
BLACK
6
CONTINUOUS
10
0.4727007874015748
20
0.2606456692913386
11
0.4721014173228346
21
0.2576324015748032
0
LINE
8
BLACK
6
CONTINUOUS
10
0.4721014173228346
20
0.2576324015748032
11
0.4703945275590551
21
0.2550779133858267
0
LINE
8
BLACK
6
CONTINUOUS
10
0.4703945275590551
20
0.2550779133858267
11
0.4678400393700787
21
0.2533710236220472
0
LINE
8
BLACK
6
CONTINUOUS
10
0.4678400393700787
20
0.2533710236220472
11
0.4648267716535433
21
0.2527716535433071
0
LINE
8
BLACK
6
CONTINUOUS
10
0.4648267716535433
20
0.2527716535433071
11
0.4431732283464567
21
0.2527716535433071
0
LINE
8
BLACK
6
CONTINUOUS
10
0.4431732283464567
20
0.2527716535433071
11
0.4401599606299212
21
0.2533710236220472
0
LINE
8
BLACK
6
CONTINUOUS
10
0.4401599606299212
20
0.2533710236220472
11
0.4376054724409449
21
0.2550779133858267
0
LINE
8
BLACK
6
CONTINUOUS
10
0.4376054724409449
20
0.2550779133858267
11
0.4358985826771654
21
0.2576324015748032
0
LINE
8
BLACK
6
CONTINUOUS
10
0.4358985826771654
20
0.2576324015748032
11
0.4352992125984252
21
0.2606456692913386
0
LINE
8
BLACK
6
CONTINUOUS
10
0.4352992125984252
20
0.2606456692913386
11
0.4352992125984252
21
0.2763937007874016
0
LINE
8
BLACK
6
CONTINUOUS
10
0.4352992125984252
20
0.2763937007874016
11
0.4358985826771654
21
0.279406968503937
0
LINE
8
BLACK
6
CONTINUOUS
10
0.4358985826771654
20
0.279406968503937
11
0.4376054724409449
21
0.2819614566929134
0
LINE
8
BLACK
6
CONTINUOUS
10
0.4376054724409449
20
0.2819614566929134
11
0.4401599606299212
21
0.2836683464566929
0
LINE
8
BLACK
6
CONTINUOUS
10
0.4401599606299212
20
0.2836683464566929
11
0.4431732283464567
21
0.2842677165354331
0
LINE
8
BLACK
6
CONTINUOUS
10
0.4431732283464567
20
0.2842677165354331
11
0.4648267716535433
21
0.2842677165354331
0
LINE
8
BLACK
6
CONTINUOUS
10
0.4648267716535433
20
0.2842677165354331
11
0.4678400393700787
21
0.2836683464566929
0
LINE
8
BLACK
6
CONTINUOUS
10
0.5298400393700787
20
0.2836683464566929
11
0.5323945275590551
21
0.2819614566929134
0
LINE
8
BLACK
6
CONTINUOUS
10
0.5323945275590551
20
0.2819614566929134
11
0.5341014173228347
21
0.279406968503937
0
LINE
8
BLACK
6
CONTINUOUS
10
0.5341014173228347
20
0.279406968503937
11
0.5347007874015748
21
0.2763937007874016
0
LINE
8
BLACK
6
CONTINUOUS
10
0.5347007874015748
20
0.2763937007874016
11
0.5347007874015748
21
0.2606456692913386
0
LINE
8
BLACK
6
CONTINUOUS
10
0.5347007874015748
20
0.2606456692913386
11
0.5341014173228347
21
0.2576324015748032
0
LINE
8
BLACK
6
CONTINUOUS
10
0.5341014173228347
20
0.2576324015748032
11
0.5323945275590551
21
0.2550779133858267
0
LINE
8
BLACK
6
CONTINUOUS
10
0.5323945275590551
20
0.2550779133858267
11
0.5298400393700787
21
0.2533710236220472
0
LINE
8
BLACK
6
CONTINUOUS
10
0.5298400393700787
20
0.2533710236220472
11
0.5268267716535433
21
0.2527716535433071
0
LINE
8
BLACK
6
CONTINUOUS
10
0.5268267716535433
20
0.2527716535433071
11
0.5051732283464567
21
0.2527716535433071
0
LINE
8
BLACK
6
CONTINUOUS
10
0.5051732283464567
20
0.2527716535433071
11
0.5021599606299213
21
0.2533710236220472
0
LINE
8
BLACK
6
CONTINUOUS
10
0.5021599606299213
20
0.2533710236220472
11
0.4996054724409449
21
0.2550779133858267
0
LINE
8
BLACK
6
CONTINUOUS
10
0.4996054724409449
20
0.2550779133858267
11
0.4978985826771654
21
0.2576324015748032
0
LINE
8
BLACK
6
CONTINUOUS
10
0.4978985826771654
20
0.2576324015748032
11
0.4972992125984252
21
0.2606456692913386
0
LINE
8
BLACK
6
CONTINUOUS
10
0.4972992125984252
20
0.2606456692913386
11
0.4972992125984252
21
0.2763937007874016
0
LINE
8
BLACK
6
CONTINUOUS
10
0.4972992125984252
20
0.2763937007874016
11
0.4978985826771654
21
0.279406968503937
0
LINE
8
BLACK
6
CONTINUOUS
10
0.4978985826771654
20
0.279406968503937
11
0.4996054724409449
21
0.2819614566929134
0
LINE
8
BLACK
6
CONTINUOUS
10
0.4996054724409449
20
0.2819614566929134
11
0.5021599606299213
21
0.2836683464566929
0
LINE
8
BLACK
6
CONTINUOUS
10
0.5021599606299213
20
0.2836683464566929
11
0.5051732283464567
21
0.2842677165354331
0
LINE
8
BLACK
6
CONTINUOUS
10
0.5051732283464567
20
0.2842677165354331
11
0.5268267716535433
21
0.2842677165354331
0
LINE
8
BLACK
6
CONTINUOUS
10
0.5268267716535433
20
0.2842677165354331
11
0.5298400393700787
21
0.2836683464566929
0
LINE
8
BLACK
6
CONTINUOUS
10
0.2206536614173228
20
0.2820307874015748
11
0.2225695275590551
21
0.2807506299212598
0
LINE
8
BLACK
6
CONTINUOUS
10
0.2225695275590551
20
0.2807506299212598
11
0.2238496850393701
21
0.2788347637795275
0
LINE
8
BLACK
6
CONTINUOUS
10
0.2238496850393701
20
0.2788347637795275
11
0.2242992125984252
21
0.2765748031496063
0
LINE
8
BLACK
6
CONTINUOUS
10
0.2242992125984252
20
0.2765748031496063
11
0.2242992125984252
21
0.264763779527559
0
LINE
8
BLACK
6
CONTINUOUS
10
0.2242992125984252
20
0.264763779527559
11
0.2238496850393701
21
0.2625038188976378
0
LINE
8
BLACK
6
CONTINUOUS
10
0.2238496850393701
20
0.2625038188976378
11
0.2225695275590551
21
0.2605879527559055
0
LINE
8
BLACK
6
CONTINUOUS
10
0.2225695275590551
20
0.2605879527559055
11
0.2206536614173228
21
0.2593077952755906
0
LINE
8
BLACK
6
CONTINUOUS
10
0.2206536614173228
20
0.2593077952755906
11
0.2183937007874016
21
0.2588582677165354
0
LINE
8
BLACK
6
CONTINUOUS
10
0.2183937007874016
20
0.2588582677165354
11
0.1632755905511811
21
0.2588582677165354
0
LINE
8
BLACK
6
CONTINUOUS
10
0.1632755905511811
20
0.2588582677165354
11
0.1610156299212598
21
0.2593077952755906
0
LINE
8
BLACK
6
CONTINUOUS
10
0.1610156299212598
20
0.2593077952755906
11
0.1590997637795276
21
0.2605879527559055
0
LINE
8
BLACK
6
CONTINUOUS
10
0.1590997637795276
20
0.2605879527559055
11
0.1578196062992126
21
0.2625038188976378
0
LINE
8
BLACK
6
CONTINUOUS
10
0.1578196062992126
20
0.2625038188976378
11
0.1573700787401575
21
0.264763779527559
0
LINE
8
BLACK
6
CONTINUOUS
10
0.1573700787401575
20
0.264763779527559
11
0.1573700787401575
21
0.2765748031496063
0
LINE
8
BLACK
6
CONTINUOUS
10
0.1573700787401575
20
0.2765748031496063
11
0.1578196062992126
21
0.2788347637795275
0
LINE
8
BLACK
6
CONTINUOUS
10
0.1578196062992126
20
0.2788347637795275
11
0.1590997637795276
21
0.2807506299212598
0
LINE
8
BLACK
6
CONTINUOUS
10
0.1590997637795276
20
0.2807506299212598
11
0.1610156299212598
21
0.2820307874015748
0
LINE
8
BLACK
6
CONTINUOUS
10
0.1610156299212598
20
0.2820307874015748
11
0.1632755905511811
21
0.2824803149606299
0
LINE
8
BLACK
6
CONTINUOUS
10
0.1632755905511811
20
0.2824803149606299
11
0.2183937007874016
21
0.2824803149606299
0
LINE
8
BLACK
6
CONTINUOUS
10
0.2183937007874016
20
0.2824803149606299
11
0.2206536614173228
21
0.2820307874015748
0
LINE
8
BLACK
6
CONTINUOUS
10
1.0352834645669291
20
0.2736220472440945
11
1.0155984251968504
21
0.2736220472440945
0
LINE
8
BLACK
6
CONTINUOUS
10
1.0155984251968504
20
0.2736220472440945
11
1.0155984251968504
21
0.2854330708661417
0
LINE
8
BLACK
6
CONTINUOUS
10
1.0155984251968504
20
0.2854330708661417
11
1.0352834645669291
21
0.2854330708661417
0
LINE
8
BLACK
6
CONTINUOUS
10
1.0352834645669291
20
0.2854330708661417
11
1.0352834645669291
21
0.2736220472440945
0
LINE
8
BLACK
6
CONTINUOUS
10
1.0904015748031495
20
0.2736220472440945
11
1.0707165354330708
21
0.2736220472440945
0
LINE
8
BLACK
6
CONTINUOUS
10
1.0707165354330708
20
0.2736220472440945
11
1.0707165354330708
21
0.2854330708661417
0
LINE
8
BLACK
6
CONTINUOUS
10
1.0707165354330708
20
0.2854330708661417
11
1.0904015748031495
21
0.2854330708661417
0
LINE
8
BLACK
6
CONTINUOUS
10
1.0904015748031495
20
0.2854330708661417
11
1.0904015748031495
21
0.2736220472440945
0
LINE
8
BLACK
6
CONTINUOUS
10
1.0352834645669291
20
0.3051181102362205
11
1.0155984251968504
21
0.3051181102362205
0
LINE
8
BLACK
6
CONTINUOUS
10
1.0155984251968504
20
0.3051181102362205
11
1.0155984251968504
21
0.3169291338582677
0
LINE
8
BLACK
6
CONTINUOUS
10
1.0155984251968504
20
0.3169291338582677
11
1.0352834645669291
21
0.3169291338582677
0
LINE
8
BLACK
6
CONTINUOUS
10
1.0352834645669291
20
0.3169291338582677
11
1.0352834645669291
21
0.3051181102362205
0
LINE
8
BLACK
6
CONTINUOUS
10
1.0904015748031495
20
0.3051181102362205
11
1.0707165354330708
21
0.3051181102362205
0
LINE
8
BLACK
6
CONTINUOUS
10
1.0707165354330708
20
0.3051181102362205
11
1.0707165354330708
21
0.3169291338582677
0
LINE
8
BLACK
6
CONTINUOUS
10
1.0707165354330708
20
0.3169291338582677
11
1.0904015748031495
21
0.3169291338582677
0
LINE
8
BLACK
6
CONTINUOUS
10
1.0904015748031495
20
0.3169291338582677
11
1.0904015748031495
21
0.3051181102362205
0
LINE
8
BLACK
6
CONTINUOUS
10
0.2206536614173228
20
0.3312433858267717
11
0.2225695275590551
21
0.3299632283464567
0
LINE
8
BLACK
6
CONTINUOUS
10
0.2225695275590551
20
0.3299632283464567
11
0.2238496850393701
21
0.3280473622047244
0
LINE
8
BLACK
6
CONTINUOUS
10
0.2238496850393701
20
0.3280473622047244
11
0.2242992125984252
21
0.3257874015748031
0
LINE
8
BLACK
6
CONTINUOUS
10
0.2242992125984252
20
0.3257874015748031
11
0.2242992125984252
21
0.3139763779527559
0
LINE
8
BLACK
6
CONTINUOUS
10
0.2242992125984252
20
0.3139763779527559
11
0.2238496850393701
21
0.3117164173228346
0
LINE
8
BLACK
6
CONTINUOUS
10
0.2238496850393701
20
0.3117164173228346
11
0.2225695275590551
21
0.3098005511811023
0
LINE
8
BLACK
6
CONTINUOUS
10
0.2225695275590551
20
0.3098005511811023
11
0.2206536614173228
21
0.3085203937007874
0
LINE
8
BLACK
6
CONTINUOUS
10
0.2206536614173228
20
0.3085203937007874
11
0.2183937007874016
21
0.3080708661417323
0
LINE
8
BLACK
6
CONTINUOUS
10
0.2183937007874016
20
0.3080708661417323
11
0.1632755905511811
21
0.3080708661417323
0
LINE
8
BLACK
6
CONTINUOUS
10
0.1632755905511811
20
0.3080708661417323
11
0.1610156299212598
21
0.3085203937007874
0
LINE
8
BLACK
6
CONTINUOUS
10
0.1610156299212598
20
0.3085203937007874
11
0.1590997637795276
21
0.3098005511811023
0
LINE
8
BLACK
6
CONTINUOUS
10
0.1590997637795276
20
0.3098005511811023
11
0.1578196062992126
21
0.3117164173228346
0
LINE
8
BLACK
6
CONTINUOUS
10
0.1578196062992126
20
0.3117164173228346
11
0.1573700787401575
21
0.3139763779527559
0
LINE
8
BLACK
6
CONTINUOUS
10
0.1573700787401575
20
0.3139763779527559
11
0.1573700787401575
21
0.3257874015748031
0
LINE
8
BLACK
6
CONTINUOUS
10
0.1573700787401575
20
0.3257874015748031
11
0.1578196062992126
21
0.3280473622047244
0
LINE
8
BLACK
6
CONTINUOUS
10
0.1578196062992126
20
0.3280473622047244
11
0.1590997637795276
21
0.3299632283464567
0
LINE
8
BLACK
6
CONTINUOUS
10
0.1590997637795276
20
0.3299632283464567
11
0.1610156299212598
21
0.3312433858267717
0
LINE
8
BLACK
6
CONTINUOUS
10
0.1610156299212598
20
0.3312433858267717
11
0.1632755905511811
21
0.3316929133858267
0
LINE
8
BLACK
6
CONTINUOUS
10
0.1632755905511811
20
0.3316929133858267
11
0.2183937007874016
21
0.3316929133858267
0
LINE
8
BLACK
6
CONTINUOUS
10
0.2183937007874016
20
0.3316929133858267
11
0.2206536614173228
21
0.3312433858267717
0
LINE
8
BLACK
6
CONTINUOUS
10
0.984031653543307
20
0.3428296456692913
11
0.9869054724409448
21
0.3409094094488189
0
LINE
8
BLACK
6
CONTINUOUS
10
0.9869054724409448
20
0.3409094094488189
11
0.9888257086614173
21
0.3380355905511811
0
LINE
8
BLACK
6
CONTINUOUS
10
0.9888257086614173
20
0.3380355905511811
11
0.9894999999999999
21
0.3346456692913386
0
LINE
8
BLACK
6
CONTINUOUS
10
0.9894999999999999
20
0.3346456692913386
11
0.9894999999999999
21
0.3169291338582677
0
LINE
8
BLACK
6
CONTINUOUS
10
0.9894999999999999
20
0.3169291338582677
11
0.9888257086614173
21
0.3135392125984252
0
LINE
8
BLACK
6
CONTINUOUS
10
0.9888257086614173
20
0.3135392125984252
11
0.9869054724409448
21
0.3106653937007874
0
LINE
8
BLACK
6
CONTINUOUS
10
0.9869054724409448
20
0.3106653937007874
11
0.984031653543307
21
0.3087451574803149
0
LINE
8
BLACK
6
CONTINUOUS
10
0.984031653543307
20
0.3087451574803149
11
0.9806417322834645
21
0.3080708661417323
0
LINE
8
BLACK
6
CONTINUOUS
10
0.9806417322834645
20
0.3080708661417323
11
0.9609566929133858
21
0.3080708661417323
0
LINE
8
BLACK
6
CONTINUOUS
10
0.9609566929133858
20
0.3080708661417323
11
0.9575667716535433
21
0.3087451574803149
0
LINE
8
BLACK
6
CONTINUOUS
10
0.9575667716535433
20
0.3087451574803149
11
0.9546929527559055
21
0.3106653937007874
0
LINE
8
BLACK
6
CONTINUOUS
10
0.9546929527559055
20
0.3106653937007874
11
0.9527727165354331
21
0.3135392125984252
0
LINE
8
BLACK
6
CONTINUOUS
10
0.9527727165354331
20
0.3135392125984252
11
0.9520984251968504
21
0.3169291338582677
0
LINE
8
BLACK
6
CONTINUOUS
10
0.9520984251968504
20
0.3169291338582677
11
0.9520984251968504
21
0.3346456692913386
0
LINE
8
BLACK
6
CONTINUOUS
10
0.9520984251968504
20
0.3346456692913386
11
0.9527727165354331
21
0.3380355905511811
0
LINE
8
BLACK
6
CONTINUOUS
10
0.9527727165354331
20
0.3380355905511811
11
0.9546929527559055
21
0.3409094094488189
0
LINE
8
BLACK
6
CONTINUOUS
10
0.9546929527559055
20
0.3409094094488189
11
0.9575667716535433
21
0.3428296456692913
0
LINE
8
BLACK
6
CONTINUOUS
10
0.9575667716535433
20
0.3428296456692913
11
0.9609566929133858
21
0.343503937007874
0
LINE
8
BLACK
6
CONTINUOUS
10
0.9609566929133858
20
0.343503937007874
11
0.9806417322834645
21
0.343503937007874
0
LINE
8
BLACK
6
CONTINUOUS
10
0.9806417322834645
20
0.343503937007874
11
0.984031653543307
21
0.3428296456692913
0
LINE
8
BLACK
6
CONTINUOUS
10
0.4678400393700787
20
0.3486289763779528
11
0.4703945275590551
21
0.3469220866141732
0
LINE
8
BLACK
6
CONTINUOUS
10
0.4703945275590551
20
0.3469220866141732
11
0.4721014173228346
21
0.3443675984251968
0
LINE
8
BLACK
6
CONTINUOUS
10
0.4721014173228346
20
0.3443675984251968
11
0.4727007874015748
21
0.3413543307086614
0
LINE
8
BLACK
6
CONTINUOUS
10
0.4727007874015748
20
0.3413543307086614
11
0.4727007874015748
21
0.3256062992125984
0
LINE
8
BLACK
6
CONTINUOUS
10
0.4727007874015748
20
0.3256062992125984
11
0.4721014173228346
21
0.322593031496063
0
LINE
8
BLACK
6
CONTINUOUS
10
0.4721014173228346
20
0.322593031496063
11
0.4703945275590551
21
0.3200385433070866
0
LINE
8
BLACK
6
CONTINUOUS
10
0.4703945275590551
20
0.3200385433070866
11
0.4678400393700787
21
0.3183316535433071
0
LINE
8
BLACK
6
CONTINUOUS
10
0.4678400393700787
20
0.3183316535433071
11
0.4648267716535433
21
0.3177322834645669
0
LINE
8
BLACK
6
CONTINUOUS
10
0.4648267716535433
20
0.3177322834645669
11
0.4431732283464567
21
0.3177322834645669
0
LINE
8
BLACK
6
CONTINUOUS
10
0.4431732283464567
20
0.3177322834645669
11
0.4401599606299212
21
0.3183316535433071
0
LINE
8
BLACK
6
CONTINUOUS
10
0.4401599606299212
20
0.3183316535433071
11
0.4376054724409449
21
0.3200385433070866
0
LINE
8
BLACK
6
CONTINUOUS
10
0.4376054724409449
20
0.3200385433070866
11
0.4358985826771654
21
0.322593031496063
0
LINE
8
BLACK
6
CONTINUOUS
10
0.4358985826771654
20
0.322593031496063
11
0.4352992125984252
21
0.3256062992125984
0
LINE
8
BLACK
6
CONTINUOUS
10
0.4352992125984252
20
0.3256062992125984
11
0.4352992125984252
21
0.3413543307086614
0
LINE
8
BLACK
6
CONTINUOUS
10
0.4352992125984252
20
0.3413543307086614
11
0.4358985826771654
21
0.3443675984251968
0
LINE
8
BLACK
6
CONTINUOUS
10
0.4358985826771654
20
0.3443675984251968
11
0.4376054724409449
21
0.3469220866141732
0
LINE
8
BLACK
6
CONTINUOUS
10
0.4376054724409449
20
0.3469220866141732
11
0.4401599606299212
21
0.3486289763779528
0
LINE
8
BLACK
6
CONTINUOUS
10
0.4401599606299212
20
0.3486289763779528
11
0.4431732283464567
21
0.3492283464566929
0
LINE
8
BLACK
6
CONTINUOUS
10
0.4431732283464567
20
0.3492283464566929
11
0.4648267716535433
21
0.3492283464566929
0
LINE
8
BLACK
6
CONTINUOUS
10
0.4648267716535433
20
0.3492283464566929
11
0.4678400393700787
21
0.3486289763779528
0
LINE
8
BLACK
6
CONTINUOUS
10
0.5298400393700787
20
0.3486289763779528
11
0.5323945275590551
21
0.3469220866141732
0
LINE
8
BLACK
6
CONTINUOUS
10
0.5323945275590551
20
0.3469220866141732
11
0.5341014173228347
21
0.3443675984251968
0
LINE
8
BLACK
6
CONTINUOUS
10
0.5341014173228347
20
0.3443675984251968
11
0.5347007874015748
21
0.3413543307086614
0
LINE
8
BLACK
6
CONTINUOUS
10
0.5347007874015748
20
0.3413543307086614
11
0.5347007874015748
21
0.3256062992125984
0
LINE
8
BLACK
6
CONTINUOUS
10
0.5347007874015748
20
0.3256062992125984
11
0.5341014173228347
21
0.322593031496063
0
LINE
8
BLACK
6
CONTINUOUS
10
0.5341014173228347
20
0.322593031496063
11
0.5323945275590551
21
0.3200385433070866
0
LINE
8
BLACK
6
CONTINUOUS
10
0.5323945275590551
20
0.3200385433070866
11
0.5298400393700787
21
0.3183316535433071
0
LINE
8
BLACK
6
CONTINUOUS
10
0.5298400393700787
20
0.3183316535433071
11
0.5268267716535433
21
0.3177322834645669
0
LINE
8
BLACK
6
CONTINUOUS
10
0.5268267716535433
20
0.3177322834645669
11
0.5051732283464567
21
0.3177322834645669
0
LINE
8
BLACK
6
CONTINUOUS
10
0.5051732283464567
20
0.3177322834645669
11
0.5021599606299213
21
0.3183316535433071
0
LINE
8
BLACK
6
CONTINUOUS
10
0.5021599606299213
20
0.3183316535433071
11
0.4996054724409449
21
0.3200385433070866
0
LINE
8
BLACK
6
CONTINUOUS
10
0.4996054724409449
20
0.3200385433070866
11
0.4978985826771654
21
0.322593031496063
0
LINE
8
BLACK
6
CONTINUOUS
10
0.4978985826771654
20
0.322593031496063
11
0.4972992125984252
21
0.3256062992125984
0
LINE
8
BLACK
6
CONTINUOUS
10
0.4972992125984252
20
0.3256062992125984
11
0.4972992125984252
21
0.3413543307086614
0
LINE
8
BLACK
6
CONTINUOUS
10
0.4972992125984252
20
0.3413543307086614
11
0.4978985826771654
21
0.3443675984251968
0
LINE
8
BLACK
6
CONTINUOUS
10
0.4978985826771654
20
0.3443675984251968
11
0.4996054724409449
21
0.3469220866141732
0
LINE
8
BLACK
6
CONTINUOUS
10
0.4996054724409449
20
0.3469220866141732
11
0.5021599606299213
21
0.3486289763779528
0
LINE
8
BLACK
6
CONTINUOUS
10
0.5021599606299213
20
0.3486289763779528
11
0.5051732283464567
21
0.3492283464566929
0
LINE
8
BLACK
6
CONTINUOUS
10
0.5051732283464567
20
0.3492283464566929
11
0.5268267716535433
21
0.3492283464566929
0
LINE
8
BLACK
6
CONTINUOUS
10
0.5268267716535433
20
0.3492283464566929
11
0.5298400393700787
21
0.3486289763779528
0
LINE
8
BLACK
6
CONTINUOUS
10
0.3060053937007874
20
0.3736683464566929
11
0.3085598818897638
21
0.3719614566929134
0
LINE
8
BLACK
6
CONTINUOUS
10
0.3085598818897638
20
0.3719614566929134
11
0.3102667716535433
21
0.369406968503937
0
LINE
8
BLACK
6
CONTINUOUS
10
0.3102667716535433
20
0.369406968503937
11
0.3108661417322834
21
0.3663937007874016
0
LINE
8
BLACK
6
CONTINUOUS
10
0.3108661417322834
20
0.3663937007874016
11
0.3108661417322834
21
0.3506456692913386
0
LINE
8
BLACK
6
CONTINUOUS
10
0.3108661417322834
20
0.3506456692913386
11
0.3102667716535433
21
0.3476324015748031
0
LINE
8
BLACK
6
CONTINUOUS
10
0.3102667716535433
20
0.3476324015748031
11
0.3085598818897638
21
0.3450779133858268
0
LINE
8
BLACK
6
CONTINUOUS
10
0.3085598818897638
20
0.3450779133858268
11
0.3060053937007874
21
0.3433710236220472
0
LINE
8
BLACK
6
CONTINUOUS
10
0.3060053937007874
20
0.3433710236220472
11
0.302992125984252
21
0.3427716535433071
0
LINE
8
BLACK
6
CONTINUOUS
10
0.302992125984252
20
0.3427716535433071
11
0.2813385826771653
21
0.3427716535433071
0
LINE
8
BLACK
6
CONTINUOUS
10
0.2813385826771653
20
0.3427716535433071
11
0.2783253149606299
21
0.3433710236220472
0
LINE
8
BLACK
6
CONTINUOUS
10
0.2783253149606299
20
0.3433710236220472
11
0.2757708267716535
21
0.3450779133858268
0
LINE
8
BLACK
6
CONTINUOUS
10
0.2757708267716535
20
0.3450779133858268
11
0.274063937007874
21
0.3476324015748031
0
LINE
8
BLACK
6
CONTINUOUS
10
0.274063937007874
20
0.3476324015748031
11
0.2734645669291338
21
0.3506456692913386
0
LINE
8
BLACK
6
CONTINUOUS
10
0.2734645669291338
20
0.3506456692913386
11
0.2734645669291338
21
0.3663937007874016
0
LINE
8
BLACK
6
CONTINUOUS
10
0.2734645669291338
20
0.3663937007874016
11
0.274063937007874
21
0.369406968503937
0
LINE
8
BLACK
6
CONTINUOUS
10
0.274063937007874
20
0.369406968503937
11
0.2757708267716535
21
0.3719614566929134
0
LINE
8
BLACK
6
CONTINUOUS
10
0.2757708267716535
20
0.3719614566929134
11
0.2783253149606299
21
0.3736683464566929
0
LINE
8
BLACK
6
CONTINUOUS
10
0.2783253149606299
20
0.3736683464566929
11
0.2813385826771653
21
0.3742677165354331
0
LINE
8
BLACK
6
CONTINUOUS
10
0.2813385826771653
20
0.3742677165354331
11
0.302992125984252
21
0.3742677165354331
0
LINE
8
BLACK
6
CONTINUOUS
10
0.302992125984252
20
0.3742677165354331
11
0.3060053937007874
21
0.3736683464566929
0
LINE
8
BLACK
6
CONTINUOUS
10
0.3672599606299213
20
0.3686449606299212
11
0.3691758267716536
21
0.3673648031496063
0
LINE
8
BLACK
6
CONTINUOUS
10
0.3691758267716536
20
0.3673648031496063
11
0.3704559842519685
21
0.365448937007874
0
LINE
8
BLACK
6
CONTINUOUS
10
0.3704559842519685
20
0.365448937007874
11
0.3709055118110236
21
0.3631889763779527
0
LINE
8
BLACK
6
CONTINUOUS
10
0.3709055118110236
20
0.3631889763779527
11
0.3709055118110236
21
0.3513779527559055
0
LINE
8
BLACK
6
CONTINUOUS
10
0.3709055118110236
20
0.3513779527559055
11
0.3704559842519685
21
0.3491179921259843
0
LINE
8
BLACK
6
CONTINUOUS
10
0.3704559842519685
20
0.3491179921259843
11
0.3691758267716536
21
0.347202125984252
0
LINE
8
BLACK
6
CONTINUOUS
10
0.3691758267716536
20
0.347202125984252
11
0.3672599606299213
21
0.345921968503937
0
LINE
8
BLACK
6
CONTINUOUS
10
0.3672599606299213
20
0.345921968503937
11
0.365
21
0.3454724409448819
0
LINE
8
BLACK
6
CONTINUOUS
10
0.365
20
0.3454724409448819
11
0.349251968503937
21
0.3454724409448819
0
LINE
8
BLACK
6
CONTINUOUS
10
0.349251968503937
20
0.3454724409448819
11
0.3469920078740157
21
0.345921968503937
0
LINE
8
BLACK
6
CONTINUOUS
10
0.3469920078740157
20
0.345921968503937
11
0.3450761417322835
21
0.347202125984252
0
LINE
8
BLACK
6
CONTINUOUS
10
0.3450761417322835
20
0.347202125984252
11
0.3437959842519685
21
0.3491179921259843
0
LINE
8
BLACK
6
CONTINUOUS
10
0.3437959842519685
20
0.3491179921259843
11
0.3433464566929134
21
0.3513779527559055
0
LINE
8
BLACK
6
CONTINUOUS
10
0.3433464566929134
20
0.3513779527559055
11
0.3433464566929134
21
0.3631889763779527
0
LINE
8
BLACK
6
CONTINUOUS
10
0.3433464566929134
20
0.3631889763779527
11
0.3437959842519685
21
0.365448937007874
0
LINE
8
BLACK
6
CONTINUOUS
10
0.3437959842519685
20
0.365448937007874
11
0.3450761417322835
21
0.3673648031496063
0
LINE
8
BLACK
6
CONTINUOUS
10
0.3450761417322835
20
0.3673648031496063
11
0.3469920078740157
21
0.3686449606299212
0
LINE
8
BLACK
6
CONTINUOUS
10
0.3469920078740157
20
0.3686449606299212
11
0.349251968503937
21
0.3690944881889764
0
LINE
8
BLACK
6
CONTINUOUS
10
0.349251968503937
20
0.3690944881889764
11
0.365
21
0.3690944881889764
0
LINE
8
BLACK
6
CONTINUOUS
10
0.365
20
0.3690944881889764
11
0.3672599606299213
21
0.3686449606299212
0
LINE
8
BLACK
6
CONTINUOUS
10
0.2206536614173228
20
0.3804559842519685
11
0.2225695275590551
21
0.3791758267716535
0
LINE
8
BLACK
6
CONTINUOUS
10
0.2225695275590551
20
0.3791758267716535
11
0.2238496850393701
21
0.3772599606299212
0
LINE
8
BLACK
6
CONTINUOUS
10
0.2238496850393701
20
0.3772599606299212
11
0.2242992125984252
21
0.375
0
LINE
8
BLACK
6
CONTINUOUS
10
0.2242992125984252
20
0.375
11
0.2242992125984252
21
0.3631889763779527
0
LINE
8
BLACK
6
CONTINUOUS
10
0.2242992125984252
20
0.3631889763779527
11
0.2238496850393701
21
0.3609290157480315
0
LINE
8
BLACK
6
CONTINUOUS
10
0.2238496850393701
20
0.3609290157480315
11
0.2225695275590551
21
0.3590131496062992
0
LINE
8
BLACK
6
CONTINUOUS
10
0.2225695275590551
20
0.3590131496062992
11
0.2206536614173228
21
0.3577329921259843
0
LINE
8
BLACK
6
CONTINUOUS
10
0.2206536614173228
20
0.3577329921259843
11
0.2183937007874016
21
0.3572834645669291
0
LINE
8
BLACK
6
CONTINUOUS
10
0.2183937007874016
20
0.3572834645669291
11
0.1632755905511811
21
0.3572834645669291
0
LINE
8
BLACK
6
CONTINUOUS
10
0.1632755905511811
20
0.3572834645669291
11
0.1610156299212598
21
0.3577329921259843
0
LINE
8
BLACK
6
CONTINUOUS
10
0.1610156299212598
20
0.3577329921259843
11
0.1590997637795276
21
0.3590131496062992
0
LINE
8
BLACK
6
CONTINUOUS
10
0.1590997637795276
20
0.3590131496062992
11
0.1578196062992126
21
0.3609290157480315
0
LINE
8
BLACK
6
CONTINUOUS
10
0.1578196062992126
20
0.3609290157480315
11
0.1573700787401575
21
0.3631889763779527
0
LINE
8
BLACK
6
CONTINUOUS
10
0.1573700787401575
20
0.3631889763779527
11
0.1573700787401575
21
0.375
0
LINE
8
BLACK
6
CONTINUOUS
10
0.1573700787401575
20
0.375
11
0.1578196062992126
21
0.3772599606299212
0
LINE
8
BLACK
6
CONTINUOUS
10
0.1578196062992126
20
0.3772599606299212
11
0.1590997637795276
21
0.3791758267716535
0
LINE
8
BLACK
6
CONTINUOUS
10
0.1590997637795276
20
0.3791758267716535
11
0.1610156299212598
21
0.3804559842519685
0
LINE
8
BLACK
6
CONTINUOUS
10
0.1610156299212598
20
0.3804559842519685
11
0.1632755905511811
21
0.3809055118110236
0
LINE
8
BLACK
6
CONTINUOUS
10
0.1632755905511811
20
0.3809055118110236
11
0.2183937007874016
21
0.3809055118110236
0
LINE
8
BLACK
6
CONTINUOUS
10
0.2183937007874016
20
0.3809055118110236
11
0.2206536614173228
21
0.3804559842519685
0
LINE
8
BLACK
6
CONTINUOUS
10
0.3672599606299213
20
0.4237630708661417
11
0.3691758267716536
21
0.4224829133858268
0
LINE
8
BLACK
6
CONTINUOUS
10
0.3691758267716536
20
0.4224829133858268
11
0.3704559842519685
21
0.4205670472440945
0
LINE
8
BLACK
6
CONTINUOUS
10
0.3704559842519685
20
0.4205670472440945
11
0.3709055118110236
21
0.4183070866141732
0
LINE
8
BLACK
6
CONTINUOUS
10
0.3709055118110236
20
0.4183070866141732
11
0.3709055118110236
21
0.406496062992126
0
LINE
8
BLACK
6
CONTINUOUS
10
0.3709055118110236
20
0.406496062992126
11
0.3704559842519685
21
0.4042361023622047
0
LINE
8
BLACK
6
CONTINUOUS
10
0.3704559842519685
20
0.4042361023622047
11
0.3691758267716536
21
0.4023202362204724
0
LINE
8
BLACK
6
CONTINUOUS
10
0.3691758267716536
20
0.4023202362204724
11
0.3672599606299213
21
0.4010400787401575
0
LINE
8
BLACK
6
CONTINUOUS
10
0.3672599606299213
20
0.4010400787401575
11
0.365
21
0.4005905511811024
0
LINE
8
BLACK
6
CONTINUOUS
10
0.365
20
0.4005905511811024
11
0.349251968503937
21
0.4005905511811024
0
LINE
8
BLACK
6
CONTINUOUS
10
0.349251968503937
20
0.4005905511811024
11
0.3469920078740157
21
0.4010400787401575
0
LINE
8
BLACK
6
CONTINUOUS
10
0.3469920078740157
20
0.4010400787401575
11
0.3450761417322835
21
0.4023202362204724
0
LINE
8
BLACK
6
CONTINUOUS
10
0.3450761417322835
20
0.4023202362204724
11
0.3437959842519685
21
0.4042361023622047
0
LINE
8
BLACK
6
CONTINUOUS
10
0.3437959842519685
20
0.4042361023622047
11
0.3433464566929134
21
0.406496062992126
0
LINE
8
BLACK
6
CONTINUOUS
10
0.3433464566929134
20
0.406496062992126
11
0.3433464566929134
21
0.4183070866141732
0
LINE
8
BLACK
6
CONTINUOUS
10
0.3433464566929134
20
0.4183070866141732
11
0.3437959842519685
21
0.4205670472440945
0
LINE
8
BLACK
6
CONTINUOUS
10
0.3437959842519685
20
0.4205670472440945
11
0.3450761417322835
21
0.4224829133858268
0
LINE
8
BLACK
6
CONTINUOUS
10
0.3450761417322835
20
0.4224829133858268
11
0.3469920078740157
21
0.4237630708661417
0
LINE
8
BLACK
6
CONTINUOUS
10
0.3469920078740157
20
0.4237630708661417
11
0.349251968503937
21
0.4242125984251968
0
LINE
8
BLACK
6
CONTINUOUS
10
0.349251968503937
20
0.4242125984251968
11
0.365
21
0.4242125984251968
0
LINE
8
BLACK
6
CONTINUOUS
10
0.365
20
0.4242125984251968
11
0.3672599606299213
21
0.4237630708661417
0
LINE
8
BLACK
6
CONTINUOUS
10
0.3060053937007874
20
0.4386289763779527
11
0.3085598818897638
21
0.4369220866141732
0
LINE
8
BLACK
6
CONTINUOUS
10
0.3085598818897638
20
0.4369220866141732
11
0.3102667716535433
21
0.4343675984251968
0
LINE
8
BLACK
6
CONTINUOUS
10
0.3102667716535433
20
0.4343675984251968
11
0.3108661417322834
21
0.4313543307086614
0
LINE
8
BLACK
6
CONTINUOUS
10
0.3108661417322834
20
0.4313543307086614
11
0.3108661417322834
21
0.4156062992125984
0
LINE
8
BLACK
6
CONTINUOUS
10
0.3108661417322834
20
0.4156062992125984
11
0.3102667716535433
21
0.412593031496063
0
LINE
8
BLACK
6
CONTINUOUS
10
0.3102667716535433
20
0.412593031496063
11
0.3085598818897638
21
0.4100385433070866
0
LINE
8
BLACK
6
CONTINUOUS
10
0.3085598818897638
20
0.4100385433070866
11
0.3060053937007874
21
0.4083316535433071
0
LINE
8
BLACK
6
CONTINUOUS
10
0.3060053937007874
20
0.4083316535433071
11
0.302992125984252
21
0.4077322834645669
0
LINE
8
BLACK
6
CONTINUOUS
10
0.302992125984252
20
0.4077322834645669
11
0.2813385826771653
21
0.4077322834645669
0
LINE
8
BLACK
6
CONTINUOUS
10
0.2813385826771653
20
0.4077322834645669
11
0.2783253149606299
21
0.4083316535433071
0
LINE
8
BLACK
6
CONTINUOUS
10
0.2783253149606299
20
0.4083316535433071
11
0.2757708267716535
21
0.4100385433070866
0
LINE
8
BLACK
6
CONTINUOUS
10
0.2757708267716535
20
0.4100385433070866
11
0.274063937007874
21
0.412593031496063
0
LINE
8
BLACK
6
CONTINUOUS
10
0.274063937007874
20
0.412593031496063
11
0.2734645669291338
21
0.4156062992125984
0
LINE
8
BLACK
6
CONTINUOUS
10
0.2734645669291338
20
0.4156062992125984
11
0.2734645669291338
21
0.4313543307086614
0
LINE
8
BLACK
6
CONTINUOUS
10
0.2734645669291338
20
0.4313543307086614
11
0.274063937007874
21
0.4343675984251968
0
LINE
8
BLACK
6
CONTINUOUS
10
0.274063937007874
20
0.4343675984251968
11
0.2757708267716535
21
0.4369220866141732
0
LINE
8
BLACK
6
CONTINUOUS
10
0.2757708267716535
20
0.4369220866141732
11
0.2783253149606299
21
0.4386289763779527
0
LINE
8
BLACK
6
CONTINUOUS
10
0.2783253149606299
20
0.4386289763779527
11
0.2813385826771653
21
0.4392283464566929
0
LINE
8
BLACK
6
CONTINUOUS
10
0.2813385826771653
20
0.4392283464566929
11
0.302992125984252
21
0.4392283464566929
0
LINE
8
BLACK
6
CONTINUOUS
10
0.302992125984252
20
0.4392283464566929
11
0.3060053937007874
21
0.4386289763779527
0
LINE
8
BLACK
6
CONTINUOUS
10
0.1119240551181102
20
0.4608649606299213
11
0.1151172047244094
21
0.4587313779527559
0
LINE
8
BLACK
6
CONTINUOUS
10
0.1151172047244094
20
0.4587313779527559
11
0.1172507874015748
21
0.4555382283464567
0
LINE
8
BLACK
6
CONTINUOUS
10
0.1172507874015748
20
0.4555382283464567
11
0.118
21
0.4517716535433071
0
LINE
8
BLACK
6
CONTINUOUS
10
0.118
20
0.4517716535433071
11
0.118
21
0.4320866141732284
0
LINE
8
BLACK
6
CONTINUOUS
10
0.118
20
0.4320866141732284
11
0.1172507874015748
21
0.4283200393700787
0
LINE
8
BLACK
6
CONTINUOUS
10
0.1172507874015748
20
0.4283200393700787
11
0.1151172047244094
21
0.4251268897637795
0
LINE
8
BLACK
6
CONTINUOUS
10
0.1151172047244094
20
0.4251268897637795
11
0.1119240551181102
21
0.4229933070866141
0
LINE
8
BLACK
6
CONTINUOUS
10
0.1119240551181102
20
0.4229933070866141
11
0.1081574803149606
21
0.4222440944881889
0
LINE
8
BLACK
6
CONTINUOUS
10
0.1081574803149606
20
0.4222440944881889
11
0.0215433070866142
21
0.4222440944881889
0
LINE
8
BLACK
6
CONTINUOUS
10
0.0215433070866142
20
0.4222440944881889
11
0.0177767322834646
21
0.4229933070866141
0
LINE
8
BLACK
6
CONTINUOUS
10
0.0177767322834646
20
0.4229933070866141
11
0.0145835826771654
21
0.4251268897637795
0
LINE
8
BLACK
6
CONTINUOUS
10
0.0145835826771654
20
0.4251268897637795
11
0.01245
21
0.4283200393700787
0
LINE
8
BLACK
6
CONTINUOUS
10
0.01245
20
0.4283200393700787
11
0.0117007874015748
21
0.4320866141732284
0
LINE
8
BLACK
6
CONTINUOUS
10
0.0117007874015748
20
0.4320866141732284
11
0.0117007874015748
21
0.4517716535433071
0
LINE
8
BLACK
6
CONTINUOUS
10
0.0117007874015748
20
0.4517716535433071
11
0.01245
21
0.4555382283464567
0
LINE
8
BLACK
6
CONTINUOUS
10
0.01245
20
0.4555382283464567
11
0.0145835826771654
21
0.4587313779527559
0
LINE
8
BLACK
6
CONTINUOUS
10
0.0145835826771654
20
0.4587313779527559
11
0.0177767322834646
21
0.4608649606299213
0
LINE
8
BLACK
6
CONTINUOUS
10
0.0177767322834646
20
0.4608649606299213
11
0.0215433070866142
21
0.4616141732283465
0
LINE
8
BLACK
6
CONTINUOUS
10
0.0215433070866142
20
0.4616141732283465
11
0.1081574803149606
21
0.4616141732283465
0
LINE
8
BLACK
6
CONTINUOUS
10
0.1081574803149606
20
0.4616141732283465
11
0.1119240551181102
21
0.4608649606299213
0
LINE
8
BLACK
6
CONTINUOUS
10
0.2843351968503937
20
0.540839094488189
11
0.286463937007874
21
0.5394166929133858
0
LINE
8
BLACK
6
CONTINUOUS
10
0.286463937007874
20
0.5394166929133858
11
0.2878863385826771
21
0.5372879527559055
0
LINE
8
BLACK
6
CONTINUOUS
10
0.2878863385826771
20
0.5372879527559055
11
0.2883857874015748
21
0.5347768503937008
0
LINE
8
BLACK
6
CONTINUOUS
10
0.2883857874015748
20
0.5347768503937008
11
0.2883858267716535
21
0.4888451574803149
0
LINE
8
BLACK
6
CONTINUOUS
10
0.2883858267716535
20
0.4888451574803149
11
0.2878863385826771
21
0.486334094488189
0
LINE
8
BLACK
6
CONTINUOUS
10
0.2878863385826771
20
0.486334094488189
11
0.286463937007874
21
0.4842053543307087
0
LINE
8
BLACK
6
CONTINUOUS
10
0.286463937007874
20
0.4842053543307087
11
0.2843351968503937
21
0.4827829527559055
0
LINE
8
BLACK
6
CONTINUOUS
10
0.2843351968503937
20
0.4827829527559055
11
0.281824094488189
21
0.4822835039370079
0
LINE
8
BLACK
6
CONTINUOUS
10
0.281824094488189
20
0.4822835039370079
11
0.2457349212598425
21
0.4822834645669291
0
LINE
8
BLACK
6
CONTINUOUS
10
0.2457349212598425
20
0.4822834645669291
11
0.2432238582677165
21
0.4827829527559055
0
LINE
8
BLACK
6
CONTINUOUS
10
0.2432238582677165
20
0.4827829527559055
11
0.2410951181102362
21
0.4842053543307087
0
LINE
8
BLACK
6
CONTINUOUS
10
0.2410951181102362
20
0.4842053543307087
11
0.2396727165354331
21
0.486334094488189
0
LINE
8
BLACK
6
CONTINUOUS
10
0.2396727165354331
20
0.486334094488189
11
0.2391732677165354
21
0.4888451968503937
0
LINE
8
BLACK
6
CONTINUOUS
10
0.2391732677165354
20
0.4888451968503937
11
0.2391732283464567
21
0.5347768897637795
0
LINE
8
BLACK
6
CONTINUOUS
10
0.2391732283464567
20
0.5347768897637795
11
0.2396727165354331
21
0.5372879527559055
0
LINE
8
BLACK
6
CONTINUOUS
10
0.2396727165354331
20
0.5372879527559055
11
0.2410951181102362
21
0.5394166929133858
0
LINE
8
BLACK
6
CONTINUOUS
10
0.2410951181102362
20
0.5394166929133858
11
0.2432238582677165
21
0.540839094488189
0
LINE
8
BLACK
6
CONTINUOUS
10
0.2432238582677165
20
0.540839094488189
11
0.2457349606299213
21
0.5413385433070866
0
LINE
8
BLACK
6
CONTINUOUS
10
0.2457349606299213
20
0.5413385433070866
11
0.2818241338582677
21
0.5413385826771654
0
LINE
8
BLACK
6
CONTINUOUS
10
0.2818241338582677
20
0.5413385826771654
11
0.2843351968503937
21
0.540839094488189
0
LINE
8
BLACK
6
CONTINUOUS
10
0.4260674803149606
20
0.540839094488189
11
0.4281962204724409
21
0.5394166929133858
0
LINE
8
BLACK
6
CONTINUOUS
10
0.4281962204724409
20
0.5394166929133858
11
0.4296186220472441
21
0.5372879527559055
0
LINE
8
BLACK
6
CONTINUOUS
10
0.4296186220472441
20
0.5372879527559055
11
0.4301180708661417
21
0.5347768503937008
0
LINE
8
BLACK
6
CONTINUOUS
10
0.4301180708661417
20
0.5347768503937008
11
0.4301181102362205
21
0.4888451574803149
0
LINE
8
BLACK
6
CONTINUOUS
10
0.4301181102362205
20
0.4888451574803149
11
0.4296186220472441
21
0.486334094488189
0
LINE
8
BLACK
6
CONTINUOUS
10
0.4296186220472441
20
0.486334094488189
11
0.4281962204724409
21
0.4842053543307087
0
LINE
8
BLACK
6
CONTINUOUS
10
0.4281962204724409
20
0.4842053543307087
11
0.4260674803149606
21
0.4827829527559055
0
LINE
8
BLACK
6
CONTINUOUS
10
0.4260674803149606
20
0.4827829527559055
11
0.4235563779527559
21
0.4822835039370079
0
LINE
8
BLACK
6
CONTINUOUS
10
0.4235563779527559
20
0.4822835039370079
11
0.3874672047244094
21
0.4822834645669291
0
LINE
8
BLACK
6
CONTINUOUS
10
0.3874672047244094
20
0.4822834645669291
11
0.3849561417322834
21
0.4827829527559055
0
LINE
8
BLACK
6
CONTINUOUS
10
0.3849561417322834
20
0.4827829527559055
11
0.3828274015748032
21
0.4842053543307087
0
LINE
8
BLACK
6
CONTINUOUS
10
0.3828274015748032
20
0.4842053543307087
11
0.381405
21
0.486334094488189
0
LINE
8
BLACK
6
CONTINUOUS
10
0.381405
20
0.486334094488189
11
0.3809055511811024
21
0.4888451968503937
0
LINE
8
BLACK
6
CONTINUOUS
10
0.3809055511811024
20
0.4888451968503937
11
0.3809055118110236
21
0.5347768897637795
0
LINE
8
BLACK
6
CONTINUOUS
10
0.3809055118110236
20
0.5347768897637795
11
0.381405
21
0.5372879527559055
0
LINE
8
BLACK
6
CONTINUOUS
10
0.381405
20
0.5372879527559055
11
0.3828274015748032
21
0.5394166929133858
0
LINE
8
BLACK
6
CONTINUOUS
10
0.3828274015748032
20
0.5394166929133858
11
0.3849561417322834
21
0.540839094488189
0
LINE
8
BLACK
6
CONTINUOUS
10
0.3849561417322834
20
0.540839094488189
11
0.3874672440944882
21
0.5413385433070866
0
LINE
8
BLACK
6
CONTINUOUS
10
0.3874672440944882
20
0.5413385433070866
11
0.4235564173228346
21
0.5413385826771654
0
LINE
8
BLACK
6
CONTINUOUS
10
0.4235564173228346
20
0.5413385826771654
11
0.4260674803149606
21
0.540839094488189
  0
ENDSEC
  0
EOF
