  0
SECTION
  2
HEADER
  9
$ANGBASE
  50
0.0
  9
$ANGDIR
  70
1
  9
$MEASUREMENT
  70
0
  0
ENDSEC
  0
SECTION
  2
TABLES
  0
TABLE
  2
LTYPE
  70
4
  0
LTYPE
  5
40F
  2
CONTINUOUS
  70
0
  3
Solid line
  72
65
  73
0
  40
0.0
  0
LTYPE
  5
410
  2
DASHDOT
 70
0
  3
Dash Dot ____ _ ____ _
 72
65
 73
4
 40
2.0
 49
1.25
 49
-0.25
 49
0.25
 49
-0.25
  0
LTYPE
  5
411
  2
DASHED
 70
0
  3
Dashed __ __ __ __ __
 72
65
 73
2
 40
0.75
 49
0.5
 49
-0.25
  0
LTYPE
  5
43B
  2
DOTTED
 70
0
  3
Dotted .  .  .  .
 72
65
 73
2
 40
0.2
 49
0.0
 49
-0.2
  0
ENDTAB
  0
TABLE
  2
STYLE
  70
4
  0
STYLE
  2
KICAD
  70
0
  40
0
  41
1
  42
1
  50
0
  71
0
  3
isocp.shx
  0
STYLE
  2
KICADB
  70
0
  40
0
  41
1
  42
1
  50
0
  71
0
  3
isocp.shx
  0
STYLE
  2
KICADI
  70
0
  40
0
  41
1
  42
1
  50
15
  71
0
  3
isocp.shx
  0
STYLE
  2
KICADBI
  70
0
  40
0
  41
1
  42
1
  50
15
  71
0
  3
isocp.shx
  0
ENDTAB
  0
TABLE
  2
LAYER
  70
1
  0
LAYER
  2
BLACK
  70
0
  62
7
  6
CONTINUOUS
  0
ENDTAB
  0
ENDSEC
  0
SECTION
  2
ENTITIES
0
LINE
8
BLACK
6
CONTINUOUS
10
-0.0245600787401575
20
0.0872605118110236
11
-0.0244620866141732
21
0.0872199212598425
0
LINE
8
BLACK
6
CONTINUOUS
10
-0.0244620866141732
20
0.0872199212598425
11
-0.0243562598425197
21
0.0872124015748031
0
LINE
8
BLACK
6
CONTINUOUS
10
-0.0243562598425197
20
0.0872124015748031
11
-0.0238156299212598
21
0.0870055118110236
0
LINE
8
BLACK
6
CONTINUOUS
10
-0.0238156299212598
20
0.0870055118110236
11
-0.0200661023622047
21
0.0851307480314961
0
LINE
8
BLACK
6
CONTINUOUS
10
-0.0200661023622047
20
0.0851307480314961
11
-0.0198182283464567
21
0.0849747244094488
0
LINE
8
BLACK
6
CONTINUOUS
10
-0.0198182283464567
20
0.0849747244094488
11
-0.0197461811023622
21
0.0849448818897638
0
LINE
8
BLACK
6
CONTINUOUS
10
-0.0197461811023622
20
0.0849448818897638
11
-0.019665157480315
21
0.0848783858267717
0
LINE
8
BLACK
6
CONTINUOUS
10
-0.019665157480315
20
0.0848783858267717
11
-0.0195762204724409
21
0.0848224015748031
0
LINE
8
BLACK
6
CONTINUOUS
10
-0.0195762204724409
20
0.0848224015748031
11
-0.0195250787401575
21
0.0847634251968504
0
LINE
8
BLACK
6
CONTINUOUS
10
-0.0195250787401575
20
0.0847634251968504
11
-0.0192987401574803
21
0.0845776771653543
0
LINE
8
BLACK
6
CONTINUOUS
10
-0.0192987401574803
20
0.0845776771653543
11
-0.017423937007874
21
0.0827029133858268
0
LINE
8
BLACK
6
CONTINUOUS
10
-0.017423937007874
20
0.0827029133858268
11
-0.017238188976378
21
0.0824765748031496
0
LINE
8
BLACK
6
CONTINUOUS
10
-0.017238188976378
20
0.0824765748031496
11
-0.0171791338582677
21
0.0824253543307087
0
LINE
8
BLACK
6
CONTINUOUS
10
-0.0171791338582677
20
0.0824253543307087
11
-0.0171231496062992
21
0.0823364173228346
0
LINE
8
BLACK
6
CONTINUOUS
10
-0.0171231496062992
20
0.0823364173228346
11
-0.0170566929133858
21
0.0822554330708661
0
LINE
8
BLACK
6
CONTINUOUS
10
-0.0170566929133858
20
0.0822554330708661
11
-0.0170268897637795
21
0.0821835039370079
0
LINE
8
BLACK
6
CONTINUOUS
10
-0.0170268897637795
20
0.0821835039370079
11
-0.0168707874015748
21
0.0819354724409449
0
LINE
8
BLACK
6
CONTINUOUS
10
-0.0168707874015748
20
0.0819354724409449
11
-0.0149960236220472
21
0.0781859448818898
0
LINE
8
BLACK
6
CONTINUOUS
10
-0.0149960236220472
20
0.0781859448818898
11
-0.0147891338582677
21
0.0776453543307087
0
LINE
8
BLACK
6
CONTINUOUS
10
-0.0147891338582677
20
0.0776453543307087
11
-0.0147816141732283
21
0.0775394881889764
0
LINE
8
BLACK
6
CONTINUOUS
10
-0.0147816141732283
20
0.0775394881889764
11
-0.0147410236220472
21
0.0774414960629921
0
LINE
8
BLACK
6
CONTINUOUS
10
-0.0147410236220472
20
0.0774414960629921
11
-0.0146842913385827
21
0.0768654330708661
0
LINE
8
BLACK
6
CONTINUOUS
10
-0.0146842913385827
20
0.0768654330708661
11
-0.0146842913385827
21
0.0674916141732283
0
LINE
8
BLACK
6
CONTINUOUS
10
-0.0146842913385827
20
0.0674916141732283
11
-0.014713031496063
21
0.0672000393700787
0
LINE
8
BLACK
6
CONTINUOUS
10
-0.014713031496063
20
0.0672000393700787
11
-0.0147074803149606
21
0.0671222834645669
0
LINE
8
BLACK
6
CONTINUOUS
10
-0.0147074803149606
20
0.0671222834645669
11
-0.0147307480314961
21
0.0670200393700787
0
LINE
8
BLACK
6
CONTINUOUS
10
-0.0147307480314961
20
0.0670200393700787
11
-0.0147410236220472
21
0.0669155511811024
0
LINE
8
BLACK
6
CONTINUOUS
10
-0.0147410236220472
20
0.0669155511811024
11
-0.014770905511811
21
0.0668435039370079
0
LINE
8
BLACK
6
CONTINUOUS
10
-0.014770905511811
20
0.0668435039370079
11
-0.0148358267716535
21
0.0665578346456693
0
LINE
8
BLACK
6
CONTINUOUS
10
-0.0148358267716535
20
0.0665578346456693
11
-0.0167105905511811
21
0.0609335826771654
0
LINE
8
BLACK
6
CONTINUOUS
10
-0.0167105905511811
20
0.0609335826771654
11
-0.0169465748031496
21
0.060405
0
LINE
8
BLACK
6
CONTINUOUS
10
-0.0169465748031496
20
0.060405
11
-0.0177014566929134
21
0.0595346456692913
0
LINE
8
BLACK
6
CONTINUOUS
10
-0.0177014566929134
20
0.0595346456692913
11
-0.0187318897637795
21
0.0590194488188976
0
LINE
8
BLACK
6
CONTINUOUS
10
-0.0187318897637795
20
0.0590194488188976
11
-0.0198811023622047
21
0.0589377559055118
0
LINE
8
BLACK
6
CONTINUOUS
10
-0.0198811023622047
20
0.0589377559055118
11
-0.0209741338582677
21
0.0593020866141732
0
LINE
8
BLACK
6
CONTINUOUS
10
-0.0209741338582677
20
0.0593020866141732
11
-0.0218444881889764
21
0.060056968503937
0
LINE
8
BLACK
6
CONTINUOUS
10
-0.0218444881889764
20
0.060056968503937
11
-0.0223596850393701
21
0.0610874015748031
0
LINE
8
BLACK
6
CONTINUOUS
10
-0.0223596850393701
20
0.0610874015748031
11
-0.0224413779527559
21
0.0622366141732283
0
LINE
8
BLACK
6
CONTINUOUS
10
-0.0224413779527559
20
0.0622366141732283
11
-0.022313031496063
21
0.062801062992126
0
LINE
8
BLACK
6
CONTINUOUS
10
-0.022313031496063
20
0.062801062992126
11
-0.0205898031496063
21
0.0679707480314961
0
LINE
8
BLACK
6
CONTINUOUS
10
-0.0205898031496063
20
0.0679707480314961
11
-0.0205898031496063
21
0.0761683858267717
0
LINE
8
BLACK
6
CONTINUOUS
10
-0.0205898031496063
20
0.0761683858267717
11
-0.0219385433070866
21
0.0788658661417323
0
LINE
8
BLACK
6
CONTINUOUS
10
-0.0219385433070866
20
0.0788658661417323
11
-0.0231357086614173
21
0.0800629921259843
0
LINE
8
BLACK
6
CONTINUOUS
10
-0.0231357086614173
20
0.0800629921259843
11
-0.025833188976378
21
0.0814117322834646
0
LINE
8
BLACK
6
CONTINUOUS
10
-0.025833188976378
20
0.0814117322834646
11
-0.0281886220472441
21
0.0814117322834646
0
LINE
8
BLACK
6
CONTINUOUS
10
-0.0281886220472441
20
0.0814117322834646
11
-0.0308861023622047
21
0.0800629921259843
0
LINE
8
BLACK
6
CONTINUOUS
10
-0.0308861023622047
20
0.0800629921259843
11
-0.0320832283464567
21
0.0788658661417323
0
LINE
8
BLACK
6
CONTINUOUS
10
-0.0320832283464567
20
0.0788658661417323
11
-0.0335987401574803
21
0.0758348818897638
0
LINE
8
BLACK
6
CONTINUOUS
10
-0.0335987401574803
20
0.0758348818897638
11
-0.0353948818897638
21
0.0686502362204724
0
LINE
8
BLACK
6
CONTINUOUS
10
-0.0353948818897638
20
0.0686502362204724
11
-0.0354100787401575
21
0.0686077559055118
0
LINE
8
BLACK
6
CONTINUOUS
10
-0.0354100787401575
20
0.0686077559055118
11
-0.0354115748031496
21
0.0685864566929134
0
LINE
8
BLACK
6
CONTINUOUS
10
-0.0354115748031496
20
0.0685864566929134
11
-0.0355033464566929
21
0.0683467322834646
0
LINE
8
BLACK
6
CONTINUOUS
10
-0.0355033464566929
20
0.0683467322834646
11
-0.0355896456692913
21
0.0681051181102362
0
LINE
8
BLACK
6
CONTINUOUS
10
-0.0355896456692913
20
0.0681051181102362
11
-0.0356023622047244
21
0.0680879921259843
0
LINE
8
BLACK
6
CONTINUOUS
10
-0.0356023622047244
20
0.0680879921259843
11
-0.0356184645669291
21
0.0680458661417323
0
LINE
8
BLACK
6
CONTINUOUS
10
-0.0356184645669291
20
0.0680458661417323
11
-0.0374932283464567
21
0.0642963385826772
0
LINE
8
BLACK
6
CONTINUOUS
10
-0.0374932283464567
20
0.0642963385826772
11
-0.0376493307086614
21
0.0640483464566929
0
LINE
8
BLACK
6
CONTINUOUS
10
-0.0376493307086614
20
0.0640483464566929
11
-0.0376791338582677
21
0.0639763779527559
0
LINE
8
BLACK
6
CONTINUOUS
10
-0.0376791338582677
20
0.0639763779527559
11
-0.0377456299212598
21
0.0638954330708661
0
LINE
8
BLACK
6
CONTINUOUS
10
-0.0377456299212598
20
0.0638954330708661
11
-0.0378015748031496
21
0.0638064566929134
0
LINE
8
BLACK
6
CONTINUOUS
10
-0.0378015748031496
20
0.0638064566929134
11
-0.0378605905511811
21
0.0637553149606299
0
LINE
8
BLACK
6
CONTINUOUS
10
-0.0378605905511811
20
0.0637553149606299
11
-0.0380463385826772
21
0.063528937007874
0
LINE
8
BLACK
6
CONTINUOUS
10
-0.0380463385826772
20
0.063528937007874
11
-0.0399211023622047
21
0.0616541732283465
0
LINE
8
BLACK
6
CONTINUOUS
10
-0.0399211023622047
20
0.0616541732283465
11
-0.0401474803149606
21
0.0614684251968504
0
LINE
8
BLACK
6
CONTINUOUS
10
-0.0401474803149606
20
0.0614684251968504
11
-0.0401986220472441
21
0.0614094094488189
0
LINE
8
BLACK
6
CONTINUOUS
10
-0.0401986220472441
20
0.0614094094488189
11
-0.0402875984251969
21
0.0613534645669291
0
LINE
8
BLACK
6
CONTINUOUS
10
-0.0402875984251969
20
0.0613534645669291
11
-0.0403685433070866
21
0.061286968503937
0
LINE
8
BLACK
6
CONTINUOUS
10
-0.0403685433070866
20
0.061286968503937
11
-0.0404405118110236
21
0.0612571653543307
0
LINE
8
BLACK
6
CONTINUOUS
10
-0.0404405118110236
20
0.0612571653543307
11
-0.0406885039370079
21
0.061101062992126
0
LINE
8
BLACK
6
CONTINUOUS
10
-0.0406885039370079
20
0.061101062992126
11
-0.044438031496063
21
0.0592262992125984
0
LINE
8
BLACK
6
CONTINUOUS
10
-0.044438031496063
20
0.0592262992125984
11
-0.0449786614173228
21
0.0590194094488189
0
LINE
8
BLACK
6
CONTINUOUS
10
-0.0449786614173228
20
0.0590194094488189
11
-0.0450844881889764
21
0.0590119291338583
0
LINE
8
BLACK
6
CONTINUOUS
10
-0.0450844881889764
20
0.0590119291338583
11
-0.0451824803149606
21
0.0589712992125984
0
LINE
8
BLACK
6
CONTINUOUS
10
-0.0451824803149606
20
0.0589712992125984
11
-0.0457585433070866
21
0.0589145669291339
0
LINE
8
BLACK
6
CONTINUOUS
10
-0.0457585433070866
20
0.0589145669291339
11
-0.0495080708661417
21
0.0589145669291339
0
LINE
8
BLACK
6
CONTINUOUS
10
-0.0495080708661417
20
0.0589145669291339
11
-0.0500841338582677
21
0.0589712992125984
0
LINE
8
BLACK
6
CONTINUOUS
10
-0.0500841338582677
20
0.0589712992125984
11
-0.050182125984252
21
0.0590118897637795
0
LINE
8
BLACK
6
CONTINUOUS
10
-0.050182125984252
20
0.0590118897637795
11
-0.0502879921259842
21
0.0590194094488189
0
LINE
8
BLACK
6
CONTINUOUS
10
-0.0502879921259842
20
0.0590194094488189
11
-0.0508285826771654
21
0.0592262992125984
0
LINE
8
BLACK
6
CONTINUOUS
10
-0.0508285826771654
20
0.0592262992125984
11
-0.0545781102362205
21
0.061101062992126
0
LINE
8
BLACK
6
CONTINUOUS
10
-0.0545781102362205
20
0.061101062992126
11
-0.0548261417322835
21
0.0612571653543307
0
LINE
8
BLACK
6
CONTINUOUS
10
-0.0548261417322835
20
0.0612571653543307
11
-0.0548980708661417
21
0.061286968503937
0
LINE
8
BLACK
6
CONTINUOUS
10
-0.0548980708661417
20
0.061286968503937
11
-0.0549790551181102
21
0.0613534645669291
0
LINE
8
BLACK
6
CONTINUOUS
10
-0.0549790551181102
20
0.0613534645669291
11
-0.0550679921259843
21
0.0614094094488189
0
LINE
8
BLACK
6
CONTINUOUS
10
-0.0550679921259843
20
0.0614094094488189
11
-0.0551191732283465
21
0.0614684251968504
0
LINE
8
BLACK
6
CONTINUOUS
10
-0.0551191732283465
20
0.0614684251968504
11
-0.0553455118110236
21
0.0616541732283465
0
LINE
8
BLACK
6
CONTINUOUS
10
-0.0553455118110236
20
0.0616541732283465
11
-0.0572202755905512
21
0.063528937007874
0
LINE
8
BLACK
6
CONTINUOUS
10
-0.0572202755905512
20
0.063528937007874
11
-0.057406062992126
21
0.0637553149606299
0
LINE
8
BLACK
6
CONTINUOUS
10
-0.057406062992126
20
0.0637553149606299
11
-0.0574650393700787
21
0.0638064566929134
0
LINE
8
BLACK
6
CONTINUOUS
10
-0.0574650393700787
20
0.0638064566929134
11
-0.0575210236220472
21
0.0638954330708661
0
LINE
8
BLACK
6
CONTINUOUS
10
-0.0575210236220472
20
0.0638954330708661
11
-0.0575874803149606
21
0.0639763779527559
0
LINE
8
BLACK
6
CONTINUOUS
10
-0.0575874803149606
20
0.0639763779527559
11
-0.0576173228346457
21
0.0640483464566929
0
LINE
8
BLACK
6
CONTINUOUS
10
-0.0576173228346457
20
0.0640483464566929
11
-0.0577733858267717
21
0.0642963385826772
0
LINE
8
BLACK
6
CONTINUOUS
10
-0.0577733858267717
20
0.0642963385826772
11
-0.0596481496062992
21
0.0680458661417323
0
LINE
8
BLACK
6
CONTINUOUS
10
-0.0596481496062992
20
0.0680458661417323
11
-0.0598550393700787
21
0.0685864960629921
0
LINE
8
BLACK
6
CONTINUOUS
10
-0.0598550393700787
20
0.0685864960629921
11
-0.0598625590551181
21
0.0686923228346457
0
LINE
8
BLACK
6
CONTINUOUS
10
-0.0598625590551181
20
0.0686923228346457
11
-0.0599031496062992
21
0.0687903149606299
0
LINE
8
BLACK
6
CONTINUOUS
10
-0.0599031496062992
20
0.0687903149606299
11
-0.0599598818897638
21
0.0693663779527559
0
LINE
8
BLACK
6
CONTINUOUS
10
-0.0599598818897638
20
0.0693663779527559
11
-0.0599598818897638
21
0.0787401968503937
0
LINE
8
BLACK
6
CONTINUOUS
10
-0.0599598818897638
20
0.0787401968503937
11
-0.0599311811023622
21
0.0790317716535433
0
LINE
8
BLACK
6
CONTINUOUS
10
-0.0599311811023622
20
0.0790317716535433
11
-0.0599366929133858
21
0.0791094881889764
0
LINE
8
BLACK
6
CONTINUOUS
10
-0.0599366929133858
20
0.0791094881889764
11
-0.0599134645669291
21
0.0792117716535433
0
LINE
8
BLACK
6
CONTINUOUS
10
-0.0599134645669291
20
0.0792117716535433
11
-0.0599031496062992
21
0.0793162598425197
0
LINE
8
BLACK
6
CONTINUOUS
10
-0.0599031496062992
20
0.0793162598425197
11
-0.0598733070866142
21
0.0793883858267717
0
LINE
8
BLACK
6
CONTINUOUS
10
-0.0598733070866142
20
0.0793883858267717
11
-0.0598083464566929
21
0.079673937007874
0
LINE
8
BLACK
6
CONTINUOUS
10
-0.0598083464566929
20
0.079673937007874
11
-0.0579335826771654
21
0.0852982283464567
0
LINE
8
BLACK
6
CONTINUOUS
10
-0.0579335826771654
20
0.0852982283464567
11
-0.0576975984251968
21
0.0858267716535433
0
LINE
8
BLACK
6
CONTINUOUS
10
-0.0576975984251968
20
0.0858267716535433
11
-0.0569427165354331
21
0.086697125984252
0
LINE
8
BLACK
6
CONTINUOUS
10
-0.0569427165354331
20
0.086697125984252
11
-0.0559122834645669
21
0.0872123622047244
0
LINE
8
BLACK
6
CONTINUOUS
10
-0.0559122834645669
20
0.0872123622047244
11
-0.0547630708661417
21
0.0872940551181102
0
LINE
8
BLACK
6
CONTINUOUS
10
-0.0547630708661417
20
0.0872940551181102
11
-0.0536700787401575
21
0.0869297244094488
0
LINE
8
BLACK
6
CONTINUOUS
10
-0.0536700787401575
20
0.0869297244094488
11
-0.0527996850393701
21
0.086174842519685
0
LINE
8
BLACK
6
CONTINUOUS
10
-0.0527996850393701
20
0.086174842519685
11
-0.0522844881889764
21
0.0851443700787402
0
LINE
8
BLACK
6
CONTINUOUS
10
-0.0522844881889764
20
0.0851443700787402
11
-0.0522027952755905
21
0.083995157480315
0
LINE
8
BLACK
6
CONTINUOUS
10
-0.0522027952755905
20
0.083995157480315
11
-0.0523311417322835
21
0.0834307086614173
0
LINE
8
BLACK
6
CONTINUOUS
10
-0.0523311417322835
20
0.0834307086614173
11
-0.0540543700787402
21
0.078261062992126
0
LINE
8
BLACK
6
CONTINUOUS
10
-0.0540543700787402
20
0.078261062992126
11
-0.0540543700787402
21
0.0700634251968504
0
LINE
8
BLACK
6
CONTINUOUS
10
-0.0540543700787402
20
0.0700634251968504
11
-0.0527056299212598
21
0.0673659448818898
0
LINE
8
BLACK
6
CONTINUOUS
10
-0.0527056299212598
20
0.0673659448818898
11
-0.0515085039370079
21
0.0661688188976378
0
LINE
8
BLACK
6
CONTINUOUS
10
-0.0515085039370079
20
0.0661688188976378
11
-0.0488110236220472
21
0.0648200787401575
0
LINE
8
BLACK
6
CONTINUOUS
10
-0.0488110236220472
20
0.0648200787401575
11
-0.0464555905511811
21
0.0648200787401575
0
LINE
8
BLACK
6
CONTINUOUS
10
-0.0464555905511811
20
0.0648200787401575
11
-0.0437581102362205
21
0.0661688188976378
0
LINE
8
BLACK
6
CONTINUOUS
10
-0.0437581102362205
20
0.0661688188976378
11
-0.0425609842519685
21
0.0673659448818898
0
LINE
8
BLACK
6
CONTINUOUS
10
-0.0425609842519685
20
0.0673659448818898
11
-0.0410455118110236
21
0.0703969291338583
0
LINE
8
BLACK
6
CONTINUOUS
10
-0.0410455118110236
20
0.0703969291338583
11
-0.0392493307086614
21
0.0775815748031496
0
LINE
8
BLACK
6
CONTINUOUS
10
-0.0392493307086614
20
0.0775815748031496
11
-0.0392341732283465
21
0.077624094488189
0
LINE
8
BLACK
6
CONTINUOUS
10
-0.0392341732283465
20
0.077624094488189
11
-0.0392326377952756
21
0.0776453149606299
0
LINE
8
BLACK
6
CONTINUOUS
10
-0.0392326377952756
20
0.0776453149606299
11
-0.0391410236220472
21
0.0778847637795276
0
LINE
8
BLACK
6
CONTINUOUS
10
-0.0391410236220472
20
0.0778847637795276
11
-0.0390545669291339
21
0.0781266929133858
0
LINE
8
BLACK
6
CONTINUOUS
10
-0.0390545669291339
20
0.0781266929133858
11
-0.0390418897637795
21
0.0781438582677165
0
LINE
8
BLACK
6
CONTINUOUS
10
-0.0390418897637795
20
0.0781438582677165
11
-0.0390257480314961
21
0.0781859448818898
0
LINE
8
BLACK
6
CONTINUOUS
10
-0.0390257480314961
20
0.0781859448818898
11
-0.0371509842519685
21
0.0819354724409449
0
LINE
8
BLACK
6
CONTINUOUS
10
-0.0371509842519685
20
0.0819354724409449
11
-0.0369949212598425
21
0.0821835039370079
0
LINE
8
BLACK
6
CONTINUOUS
10
-0.0369949212598425
20
0.0821835039370079
11
-0.0369650787401575
21
0.0822554330708661
0
LINE
8
BLACK
6
CONTINUOUS
10
-0.0369650787401575
20
0.0822554330708661
11
-0.0368986220472441
21
0.0823364173228346
0
LINE
8
BLACK
6
CONTINUOUS
10
-0.0368986220472441
20
0.0823364173228346
11
-0.0368426377952756
21
0.0824253543307087
0
LINE
8
BLACK
6
CONTINUOUS
10
-0.0368426377952756
20
0.0824253543307087
11
-0.0367836614173228
21
0.0824765354330709
0
LINE
8
BLACK
6
CONTINUOUS
10
-0.0367836614173228
20
0.0824765354330709
11
-0.036597874015748
21
0.082702874015748
0
LINE
8
BLACK
6
CONTINUOUS
10
-0.036597874015748
20
0.082702874015748
11
-0.0347231102362205
21
0.0845776377952756
0
LINE
8
BLACK
6
CONTINUOUS
10
-0.0347231102362205
20
0.0845776377952756
11
-0.0344967716535433
21
0.0847634251968504
0
LINE
8
BLACK
6
CONTINUOUS
10
-0.0344967716535433
20
0.0847634251968504
11
-0.0344455905511811
21
0.0848224015748031
0
LINE
8
BLACK
6
CONTINUOUS
10
-0.0344455905511811
20
0.0848224015748031
11
-0.0343566535433071
21
0.0848783858267717
0
LINE
8
BLACK
6
CONTINUOUS
10
-0.0343566535433071
20
0.0848783858267717
11
-0.0342756692913386
21
0.084944842519685
0
LINE
8
BLACK
6
CONTINUOUS
10
-0.0342756692913386
20
0.084944842519685
11
-0.0342037401574803
21
0.0849746850393701
0
LINE
8
BLACK
6
CONTINUOUS
10
-0.0342037401574803
20
0.0849746850393701
11
-0.0339557086614173
21
0.0851307480314961
0
LINE
8
BLACK
6
CONTINUOUS
10
-0.0339557086614173
20
0.0851307480314961
11
-0.0302061811023622
21
0.0870055118110236
0
LINE
8
BLACK
6
CONTINUOUS
10
-0.0302061811023622
20
0.0870055118110236
11
-0.0296655905511811
21
0.0872124015748031
0
LINE
8
BLACK
6
CONTINUOUS
10
-0.0296655905511811
20
0.0872124015748031
11
-0.0295597244094488
21
0.0872199606299213
0
LINE
8
BLACK
6
CONTINUOUS
10
-0.0295597244094488
20
0.0872199606299213
11
-0.0294617322834646
21
0.0872605118110236
0
LINE
8
BLACK
6
CONTINUOUS
10
-0.0294617322834646
20
0.0872605118110236
11
-0.0288856692913386
21
0.0873172440944882
0
LINE
8
BLACK
6
CONTINUOUS
10
-0.0288856692913386
20
0.0873172440944882
11
-0.0251361417322835
21
0.0873172440944882
0
LINE
8
BLACK
6
CONTINUOUS
10
-0.0251361417322835
20
0.0873172440944882
11
-0.0245600787401575
21
0.0872605118110236
0
LINE
8
BLACK
6
CONTINUOUS
10
-0.0170609842519685
20
0.1303801181102362
11
-0.0159965748031496
21
0.1299392125984252
0
LINE
8
BLACK
6
CONTINUOUS
10
-0.0159965748031496
20
0.1299392125984252
11
-0.0151819291338583
21
0.1291245669291338
0
LINE
8
BLACK
6
CONTINUOUS
10
-0.0151819291338583
20
0.1291245669291338
11
-0.0147410236220472
21
0.128060157480315
0
LINE
8
BLACK
6
CONTINUOUS
10
-0.0147410236220472
20
0.128060157480315
11
-0.0147410236220472
21
0.126908031496063
0
LINE
8
BLACK
6
CONTINUOUS
10
-0.0147410236220472
20
0.126908031496063
11
-0.0151819291338583
21
0.1258436220472441
0
LINE
8
BLACK
6
CONTINUOUS
10
-0.0151819291338583
20
0.1258436220472441
11
-0.0159965748031496
21
0.1250289763779528
0
LINE
8
BLACK
6
CONTINUOUS
10
-0.0159965748031496
20
0.1250289763779528
11
-0.0170609842519685
21
0.1245880708661417
0
LINE
8
BLACK
6
CONTINUOUS
10
-0.0170609842519685
20
0.1245880708661417
11
-0.0176370472440945
21
0.1245313385826772
0
LINE
8
BLACK
6
CONTINUOUS
10
-0.0176370472440945
20
0.1245313385826772
11
-0.0436973622047244
21
0.1245313385826772
0
LINE
8
BLACK
6
CONTINUOUS
10
-0.0436973622047244
20
0.1245313385826772
11
-0.027636968503937
21
0.1170364960629921
0
LINE
8
BLACK
6
CONTINUOUS
10
-0.027636968503937
20
0.1170364960629921
11
-0.0274259842519685
21
0.1169115354330709
0
LINE
8
BLACK
6
CONTINUOUS
10
-0.0274259842519685
20
0.1169115354330709
11
-0.0273546062992126
21
0.1168855511811024
0
LINE
8
BLACK
6
CONTINUOUS
10
-0.0273546062992126
20
0.1168855511811024
11
-0.0273041338582677
21
0.1168393307086614
0
LINE
8
BLACK
6
CONTINUOUS
10
-0.0273041338582677
20
0.1168393307086614
11
-0.027138937007874
21
0.1167414566929134
0
LINE
8
BLACK
6
CONTINUOUS
10
-0.027138937007874
20
0.1167414566929134
11
-0.026835905511811
21
0.1164105511811024
0
LINE
8
BLACK
6
CONTINUOUS
10
-0.026835905511811
20
0.1164105511811024
11
-0.0265049212598425
21
0.1161074409448819
0
LINE
8
BLACK
6
CONTINUOUS
10
-0.0265049212598425
20
0.1161074409448819
11
-0.0264494488188976
21
0.1159885433070866
0
LINE
8
BLACK
6
CONTINUOUS
10
-0.0264494488188976
20
0.1159885433070866
11
-0.0263608661417323
21
0.115891811023622
0
LINE
8
BLACK
6
CONTINUOUS
10
-0.0263608661417323
20
0.115891811023622
11
-0.0262075590551181
21
0.1154701968503937
0
LINE
8
BLACK
6
CONTINUOUS
10
-0.0262075590551181
20
0.1154701968503937
11
-0.0260177165354331
21
0.1150634251968504
0
LINE
8
BLACK
6
CONTINUOUS
10
-0.0260177165354331
20
0.1150634251968504
11
-0.026011968503937
21
0.1149324015748032
0
LINE
8
BLACK
6
CONTINUOUS
10
-0.026011968503937
20
0.1149324015748032
11
-0.025967125984252
21
0.114809094488189
0
LINE
8
BLACK
6
CONTINUOUS
10
-0.025967125984252
20
0.114809094488189
11
-0.0259868503937008
21
0.1143607480314961
0
LINE
8
BLACK
6
CONTINUOUS
10
-0.0259868503937008
20
0.1143607480314961
11
-0.025967125984252
21
0.1139124015748031
0
LINE
8
BLACK
6
CONTINUOUS
10
-0.025967125984252
20
0.1139124015748031
11
-0.026011968503937
21
0.1137891338582677
0
LINE
8
BLACK
6
CONTINUOUS
10
-0.026011968503937
20
0.1137891338582677
11
-0.0260177165354331
21
0.1136580708661417
0
LINE
8
BLACK
6
CONTINUOUS
10
-0.0260177165354331
20
0.1136580708661417
11
-0.0262075590551181
21
0.1132513385826772
0
LINE
8
BLACK
6
CONTINUOUS
10
-0.0262075590551181
20
0.1132513385826772
11
-0.0263608661417323
21
0.1128296850393701
0
LINE
8
BLACK
6
CONTINUOUS
10
-0.0263608661417323
20
0.1128296850393701
11
-0.0264494488188976
21
0.1127329921259843
0
LINE
8
BLACK
6
CONTINUOUS
10
-0.0264494488188976
20
0.1127329921259843
11
-0.0265049212598425
21
0.1126140551181102
0
LINE
8
BLACK
6
CONTINUOUS
10
-0.0265049212598425
20
0.1126140551181102
11
-0.026835905511811
21
0.1123109842519685
0
LINE
8
BLACK
6
CONTINUOUS
10
-0.026835905511811
20
0.1123109842519685
11
-0.027138937007874
21
0.1119800393700787
0
LINE
8
BLACK
6
CONTINUOUS
10
-0.027138937007874
20
0.1119800393700787
11
-0.0273041338582677
21
0.1118822047244094
0
LINE
8
BLACK
6
CONTINUOUS
10
-0.0273041338582677
20
0.1118822047244094
11
-0.0273546062992126
21
0.1118359448818898
0
LINE
8
BLACK
6
CONTINUOUS
10
-0.0273546062992126
20
0.1118359448818898
11
-0.0274259842519685
21
0.11181
0
LINE
8
BLACK
6
CONTINUOUS
10
-0.0274259842519685
20
0.11181
11
-0.027636968503937
21
0.111685
0
LINE
8
BLACK
6
CONTINUOUS
10
-0.027636968503937
20
0.111685
11
-0.0436973622047244
21
0.104190157480315
0
LINE
8
BLACK
6
CONTINUOUS
10
-0.0436973622047244
20
0.104190157480315
11
-0.0176370472440945
21
0.104190157480315
0
LINE
8
BLACK
6
CONTINUOUS
10
-0.0176370472440945
20
0.104190157480315
11
-0.0170609842519685
21
0.1041334251968504
0
LINE
8
BLACK
6
CONTINUOUS
10
-0.0170609842519685
20
0.1041334251968504
11
-0.0159965748031496
21
0.1036925196850394
0
LINE
8
BLACK
6
CONTINUOUS
10
-0.0159965748031496
20
0.1036925196850394
11
-0.0151819291338583
21
0.102877874015748
0
LINE
8
BLACK
6
CONTINUOUS
10
-0.0151819291338583
20
0.102877874015748
11
-0.0147410236220472
21
0.1018134645669291
0
LINE
8
BLACK
6
CONTINUOUS
10
-0.0147410236220472
20
0.1018134645669291
11
-0.0147410236220472
21
0.1006613385826772
0
LINE
8
BLACK
6
CONTINUOUS
10
-0.0147410236220472
20
0.1006613385826772
11
-0.0151819291338583
21
0.0995969291338583
0
LINE
8
BLACK
6
CONTINUOUS
10
-0.0151819291338583
20
0.0995969291338583
11
-0.0159965748031496
21
0.0987822834645669
0
LINE
8
BLACK
6
CONTINUOUS
10
-0.0159965748031496
20
0.0987822834645669
11
-0.0170609842519685
21
0.0983413779527559
0
LINE
8
BLACK
6
CONTINUOUS
10
-0.0170609842519685
20
0.0983413779527559
11
-0.0176370472440945
21
0.0982846456692913
0
LINE
8
BLACK
6
CONTINUOUS
10
-0.0176370472440945
20
0.0982846456692913
11
-0.057007125984252
21
0.0982846456692913
0
LINE
8
BLACK
6
CONTINUOUS
10
-0.057007125984252
20
0.0982846456692913
11
-0.0573859448818898
21
0.098321968503937
0
LINE
8
BLACK
6
CONTINUOUS
10
-0.0573859448818898
20
0.098321968503937
11
-0.0574554724409449
21
0.0983188976377953
0
LINE
8
BLACK
6
CONTINUOUS
10
-0.0574554724409449
20
0.0983188976377953
11
-0.0574928346456693
21
0.0983324803149606
0
LINE
8
BLACK
6
CONTINUOUS
10
-0.0574928346456693
20
0.0983324803149606
11
-0.057583188976378
21
0.0983413779527559
0
LINE
8
BLACK
6
CONTINUOUS
10
-0.057583188976378
20
0.0983413779527559
11
-0.0580566929133858
21
0.0985375196850394
0
LINE
8
BLACK
6
CONTINUOUS
10
-0.0580566929133858
20
0.0985375196850394
11
-0.0585381889763779
21
0.0987125984251968
0
LINE
8
BLACK
6
CONTINUOUS
10
-0.0585381889763779
20
0.0987125984251968
11
-0.0585867716535433
21
0.0987570866141732
0
LINE
8
BLACK
6
CONTINUOUS
10
-0.0585867716535433
20
0.0987570866141732
11
-0.0586475984251969
21
0.0987822834645669
0
LINE
8
BLACK
6
CONTINUOUS
10
-0.0586475984251969
20
0.0987822834645669
11
-0.0590100393700787
21
0.0991447244094488
0
LINE
8
BLACK
6
CONTINUOUS
10
-0.0590100393700787
20
0.0991447244094488
11
-0.0593878346456693
21
0.0994907086614173
0
LINE
8
BLACK
6
CONTINUOUS
10
-0.0593878346456693
20
0.0994907086614173
11
-0.0594157086614173
21
0.0995503937007874
0
LINE
8
BLACK
6
CONTINUOUS
10
-0.0594157086614173
20
0.0995503937007874
11
-0.0594622440944882
21
0.0995969291338583
0
LINE
8
BLACK
6
CONTINUOUS
10
-0.0594622440944882
20
0.0995969291338583
11
-0.0596583070866142
21
0.1000702362204724
0
LINE
8
BLACK
6
CONTINUOUS
10
-0.0596583070866142
20
0.1000702362204724
11
-0.0598750787401575
21
0.1005347244094488
0
LINE
8
BLACK
6
CONTINUOUS
10
-0.0598750787401575
20
0.1005347244094488
11
-0.0598779921259842
21
0.1006005511811024
0
LINE
8
BLACK
6
CONTINUOUS
10
-0.0598779921259842
20
0.1006005511811024
11
-0.0599031496062992
21
0.1006613385826772
0
LINE
8
BLACK
6
CONTINUOUS
10
-0.0599031496062992
20
0.1006613385826772
11
-0.0599031496062992
21
0.1011738976377953
0
LINE
8
BLACK
6
CONTINUOUS
10
-0.0599031496062992
20
0.1011738976377953
11
-0.0599256299212598
21
0.1016857480314961
0
LINE
8
BLACK
6
CONTINUOUS
10
-0.0599256299212598
20
0.1016857480314961
11
-0.0599031496062992
21
0.1017475984251968
0
LINE
8
BLACK
6
CONTINUOUS
10
-0.0599031496062992
20
0.1017475984251968
11
-0.0599031496062992
21
0.1018134645669291
0
LINE
8
BLACK
6
CONTINUOUS
10
-0.0599031496062992
20
0.1018134645669291
11
-0.0597070472440945
21
0.102286968503937
0
LINE
8
BLACK
6
CONTINUOUS
10
-0.0597070472440945
20
0.102286968503937
11
-0.0595319291338583
21
0.1027684645669291
0
LINE
8
BLACK
6
CONTINUOUS
10
-0.0595319291338583
20
0.1027684645669291
11
-0.0594874803149606
21
0.1028170472440945
0
LINE
8
BLACK
6
CONTINUOUS
10
-0.0594874803149606
20
0.1028170472440945
11
-0.0594622440944882
21
0.102877874015748
0
LINE
8
BLACK
6
CONTINUOUS
10
-0.0594622440944882
20
0.102877874015748
11
-0.059099842519685
21
0.1032403149606299
0
LINE
8
BLACK
6
CONTINUOUS
10
-0.059099842519685
20
0.1032403149606299
11
-0.0587538188976378
21
0.1036181102362205
0
LINE
8
BLACK
6
CONTINUOUS
10
-0.0587538188976378
20
0.1036181102362205
11
-0.0586757874015748
21
0.1036643700787402
0
LINE
8
BLACK
6
CONTINUOUS
10
-0.0586757874015748
20
0.1036643700787402
11
-0.0586475984251969
21
0.1036925196850394
0
LINE
8
BLACK
6
CONTINUOUS
10
-0.0586475984251969
20
0.1036925196850394
11
-0.058583188976378
21
0.1037192519685039
0
LINE
8
BLACK
6
CONTINUOUS
10
-0.058583188976378
20
0.1037192519685039
11
-0.0582557874015748
21
0.1039131496062992
0
LINE
8
BLACK
6
CONTINUOUS
10
-0.0582557874015748
20
0.1039131496062992
11
-0.0358681102362205
21
0.1143607480314961
0
LINE
8
BLACK
6
CONTINUOUS
10
-0.0358681102362205
20
0.1143607480314961
11
-0.0582557874015748
21
0.1248083464566929
0
LINE
8
BLACK
6
CONTINUOUS
10
-0.0582557874015748
20
0.1248083464566929
11
-0.058583188976378
21
0.1250022834645669
0
LINE
8
BLACK
6
CONTINUOUS
10
-0.058583188976378
20
0.1250022834645669
11
-0.0586475984251969
21
0.1250289763779528
0
LINE
8
BLACK
6
CONTINUOUS
10
-0.0586475984251969
20
0.1250289763779528
11
-0.0586757874015748
21
0.1250571653543307
0
LINE
8
BLACK
6
CONTINUOUS
10
-0.0586757874015748
20
0.1250571653543307
11
-0.0587538188976378
21
0.1251033858267717
0
LINE
8
BLACK
6
CONTINUOUS
10
-0.0587538188976378
20
0.1251033858267717
11
-0.059099842519685
21
0.125481220472441
0
LINE
8
BLACK
6
CONTINUOUS
10
-0.059099842519685
20
0.125481220472441
11
-0.0594622440944882
21
0.1258436220472441
0
LINE
8
BLACK
6
CONTINUOUS
10
-0.0594622440944882
20
0.1258436220472441
11
-0.0594874803149606
21
0.1259044881889764
0
LINE
8
BLACK
6
CONTINUOUS
10
-0.0594874803149606
20
0.1259044881889764
11
-0.0595319291338583
21
0.125953031496063
0
LINE
8
BLACK
6
CONTINUOUS
10
-0.0595319291338583
20
0.125953031496063
11
-0.0597070472440945
21
0.1264345669291339
0
LINE
8
BLACK
6
CONTINUOUS
10
-0.0597070472440945
20
0.1264345669291339
11
-0.0599031496062992
21
0.126908031496063
0
LINE
8
BLACK
6
CONTINUOUS
10
-0.0599031496062992
20
0.126908031496063
11
-0.0599031496062992
21
0.126973937007874
0
LINE
8
BLACK
6
CONTINUOUS
10
-0.0599031496062992
20
0.126973937007874
11
-0.0599256299212598
21
0.1270357480314961
0
LINE
8
BLACK
6
CONTINUOUS
10
-0.0599256299212598
20
0.1270357480314961
11
-0.0599031496062992
21
0.1275476377952756
0
LINE
8
BLACK
6
CONTINUOUS
10
-0.0599031496062992
20
0.1275476377952756
11
-0.0599031496062992
21
0.128060157480315
0
LINE
8
BLACK
6
CONTINUOUS
10
-0.0599031496062992
20
0.128060157480315
11
-0.0598779921259842
21
0.1281209842519685
0
LINE
8
BLACK
6
CONTINUOUS
10
-0.0598779921259842
20
0.1281209842519685
11
-0.0598750787401575
21
0.1281867716535433
0
LINE
8
BLACK
6
CONTINUOUS
10
-0.0598750787401575
20
0.1281867716535433
11
-0.0596583070866142
21
0.1286512992125984
0
LINE
8
BLACK
6
CONTINUOUS
10
-0.0596583070866142
20
0.1286512992125984
11
-0.0594622440944882
21
0.1291245669291338
0
LINE
8
BLACK
6
CONTINUOUS
10
-0.0594622440944882
20
0.1291245669291338
11
-0.0594157086614173
21
0.1291711417322835
0
LINE
8
BLACK
6
CONTINUOUS
10
-0.0594157086614173
20
0.1291711417322835
11
-0.0593878346456693
21
0.1292307874015748
0
LINE
8
BLACK
6
CONTINUOUS
10
-0.0593878346456693
20
0.1292307874015748
11
-0.0590100393700787
21
0.129576811023622
0
LINE
8
BLACK
6
CONTINUOUS
10
-0.0590100393700787
20
0.129576811023622
11
-0.0586475984251969
21
0.1299392125984252
0
LINE
8
BLACK
6
CONTINUOUS
10
-0.0586475984251969
20
0.1299392125984252
11
-0.0585867716535433
21
0.1299644488188976
0
LINE
8
BLACK
6
CONTINUOUS
10
-0.0585867716535433
20
0.1299644488188976
11
-0.0585381889763779
21
0.1300088976377953
0
LINE
8
BLACK
6
CONTINUOUS
10
-0.0585381889763779
20
0.1300088976377953
11
-0.0580566929133858
21
0.1301840157480315
0
LINE
8
BLACK
6
CONTINUOUS
10
-0.0580566929133858
20
0.1301840157480315
11
-0.057583188976378
21
0.1303801181102362
0
LINE
8
BLACK
6
CONTINUOUS
10
-0.057583188976378
20
0.1303801181102362
11
-0.0574928346456693
21
0.1303890551181102
0
LINE
8
BLACK
6
CONTINUOUS
10
-0.0574928346456693
20
0.1303890551181102
11
-0.0574554724409449
21
0.1304025984251969
0
LINE
8
BLACK
6
CONTINUOUS
10
-0.0574554724409449
20
0.1304025984251969
11
-0.0573859448818898
21
0.1303995669291338
0
LINE
8
BLACK
6
CONTINUOUS
10
-0.0573859448818898
20
0.1303995669291338
11
-0.057007125984252
21
0.1304368503937008
0
LINE
8
BLACK
6
CONTINUOUS
10
-0.057007125984252
20
0.1304368503937008
11
-0.0176370472440945
21
0.1304368503937008
0
LINE
8
BLACK
6
CONTINUOUS
10
-0.0176370472440945
20
0.1304368503937008
11
-0.0170609842519685
21
0.1303801181102362
0
LINE
8
BLACK
6
CONTINUOUS
10
0.1249491732283464
20
0.2850762992125984
11
0.1250269291338583
21
0.2850818110236221
0
LINE
8
BLACK
6
CONTINUOUS
10
0.1250269291338583
20
0.2850818110236221
11
0.1251291732283465
21
0.2850585826771653
0
LINE
8
BLACK
6
CONTINUOUS
10
0.1251291732283465
20
0.2850585826771653
11
0.1252337007874016
21
0.2850482677165354
0
LINE
8
BLACK
6
CONTINUOUS
10
0.1252337007874016
20
0.2850482677165354
11
0.1253057874015748
21
0.2850184251968504
0
LINE
8
BLACK
6
CONTINUOUS
10
0.1253057874015748
20
0.2850184251968504
11
0.1255913779527559
21
0.2849534645669291
0
LINE
8
BLACK
6
CONTINUOUS
10
0.1255913779527559
20
0.2849534645669291
11
0.1312156692913386
21
0.2830787007874015
0
LINE
8
BLACK
6
CONTINUOUS
10
0.1312156692913386
20
0.2830787007874015
11
0.1317442125984252
21
0.2828427165354331
0
LINE
8
BLACK
6
CONTINUOUS
10
0.1317442125984252
20
0.2828427165354331
11
0.1318242913385827
21
0.2827732677165354
0
LINE
8
BLACK
6
CONTINUOUS
10
0.1318242913385827
20
0.2827732677165354
11
0.1319223622047244
21
0.2827326377952756
0
LINE
8
BLACK
6
CONTINUOUS
10
0.1319223622047244
20
0.2827326377952756
11
0.132369842519685
21
0.2823653937007874
0
LINE
8
BLACK
6
CONTINUOUS
10
0.132369842519685
20
0.2823653937007874
11
0.1361194094488189
21
0.2786158661417323
0
LINE
8
BLACK
6
CONTINUOUS
10
0.1361194094488189
20
0.2786158661417323
11
0.1364866535433071
21
0.2781684251968504
0
LINE
8
BLACK
6
CONTINUOUS
10
0.1364866535433071
20
0.2781684251968504
11
0.1365272440944882
21
0.2780703937007874
0
LINE
8
BLACK
6
CONTINUOUS
10
0.1365272440944882
20
0.2780703937007874
11
0.1365967322834646
21
0.2779902755905512
0
LINE
8
BLACK
6
CONTINUOUS
10
0.1365967322834646
20
0.2779902755905512
11
0.1368327165354331
21
0.2774616929133858
0
LINE
8
BLACK
6
CONTINUOUS
10
0.1368327165354331
20
0.2774616929133858
11
0.1387074803149606
21
0.2718374409448819
0
LINE
8
BLACK
6
CONTINUOUS
10
0.1387074803149606
20
0.2718374409448819
11
0.1387724015748031
21
0.271551811023622
0
LINE
8
BLACK
6
CONTINUOUS
10
0.1387724015748031
20
0.271551811023622
11
0.1388022834645669
21
0.2714797244094488
0
LINE
8
BLACK
6
CONTINUOUS
10
0.1388022834645669
20
0.2714797244094488
11
0.1388125590551181
21
0.2713752755905512
0
LINE
8
BLACK
6
CONTINUOUS
10
0.1388125590551181
20
0.2713752755905512
11
0.1388358267716535
21
0.2712729921259843
0
LINE
8
BLACK
6
CONTINUOUS
10
0.1388358267716535
20
0.2712729921259843
11
0.1388302755905512
21
0.2711952755905512
0
LINE
8
BLACK
6
CONTINUOUS
10
0.1388302755905512
20
0.2711952755905512
11
0.1388590157480315
21
0.2709036614173228
0
LINE
8
BLACK
6
CONTINUOUS
10
0.1388590157480315
20
0.2709036614173228
11
0.1388590157480315
21
0.2671541338582677
0
LINE
8
BLACK
6
CONTINUOUS
10
0.1388590157480315
20
0.2671541338582677
11
0.1388022834645669
21
0.2665780708661417
0
LINE
8
BLACK
6
CONTINUOUS
10
0.1388022834645669
20
0.2665780708661417
11
0.1383613779527559
21
0.2655136614173229
0
LINE
8
BLACK
6
CONTINUOUS
10
0.1383613779527559
20
0.2655136614173229
11
0.1375467322834646
21
0.2646990157480315
0
LINE
8
BLACK
6
CONTINUOUS
10
0.1375467322834646
20
0.2646990157480315
11
0.1364823228346457
21
0.2642581102362205
0
LINE
8
BLACK
6
CONTINUOUS
10
0.1364823228346457
20
0.2642581102362205
11
0.1353301968503937
21
0.2642581102362205
0
LINE
8
BLACK
6
CONTINUOUS
10
0.1353301968503937
20
0.2642581102362205
11
0.1342657874015748
21
0.2646990157480315
0
LINE
8
BLACK
6
CONTINUOUS
10
0.1342657874015748
20
0.2646990157480315
11
0.1334511417322835
21
0.2655136614173229
0
LINE
8
BLACK
6
CONTINUOUS
10
0.1334511417322835
20
0.2655136614173229
11
0.1330102362204724
21
0.2665780708661417
0
LINE
8
BLACK
6
CONTINUOUS
10
0.1330102362204724
20
0.2665780708661417
11
0.1329535039370079
21
0.2671541338582677
0
LINE
8
BLACK
6
CONTINUOUS
10
0.1329535039370079
20
0.2671541338582677
11
0.1329535039370079
21
0.2704245275590551
0
LINE
8
BLACK
6
CONTINUOUS
10
0.1329535039370079
20
0.2704245275590551
11
0.1314507086614173
21
0.2749329133858268
0
LINE
8
BLACK
6
CONTINUOUS
10
0.1314507086614173
20
0.2749329133858268
11
0.1286868897637795
21
0.2776966929133858
0
LINE
8
BLACK
6
CONTINUOUS
10
0.1286868897637795
20
0.2776966929133858
11
0.1241785039370079
21
0.2791994881889764
0
LINE
8
BLACK
6
CONTINUOUS
10
0.1241785039370079
20
0.2791994881889764
11
0.0965361811023622
21
0.2791994881889764
0
LINE
8
BLACK
6
CONTINUOUS
10
0.0965361811023622
20
0.2791994881889764
11
0.0959601181102362
21
0.2792562204724409
0
LINE
8
BLACK
6
CONTINUOUS
10
0.0959601181102362
20
0.2792562204724409
11
0.0948957086614173
21
0.2796971259842519
0
LINE
8
BLACK
6
CONTINUOUS
10
0.0948957086614173
20
0.2796971259842519
11
0.094081062992126
21
0.2805117716535433
0
LINE
8
BLACK
6
CONTINUOUS
10
0.094081062992126
20
0.2805117716535433
11
0.093640157480315
21
0.2815761811023622
0
LINE
8
BLACK
6
CONTINUOUS
10
0.093640157480315
20
0.2815761811023622
11
0.093640157480315
21
0.2827283070866142
0
LINE
8
BLACK
6
CONTINUOUS
10
0.093640157480315
20
0.2827283070866142
11
0.094081062992126
21
0.2837927165354331
0
LINE
8
BLACK
6
CONTINUOUS
10
0.094081062992126
20
0.2837927165354331
11
0.0948957086614173
21
0.2846073622047244
0
LINE
8
BLACK
6
CONTINUOUS
10
0.0948957086614173
20
0.2846073622047244
11
0.0959601181102362
21
0.2850482677165354
0
LINE
8
BLACK
6
CONTINUOUS
10
0.0959601181102362
20
0.2850482677165354
11
0.0965361811023622
21
0.285105
0
LINE
8
BLACK
6
CONTINUOUS
10
0.0965361811023622
20
0.285105
11
0.1246576377952756
21
0.285105
0
LINE
8
BLACK
6
CONTINUOUS
10
0.1246576377952756
20
0.285105
11
0.1249491732283464
21
0.2850762992125984
0
LINE
8
BLACK
6
CONTINUOUS
10
0.1080762992125984
20
0.3244463779527559
11
0.1081540551181102
21
0.3244518897637795
0
LINE
8
BLACK
6
CONTINUOUS
10
0.1081540551181102
20
0.3244518897637795
11
0.1082562992125984
21
0.3244286614173229
0
LINE
8
BLACK
6
CONTINUOUS
10
0.1082562992125984
20
0.3244286614173229
11
0.1083608267716535
21
0.3244183464566929
0
LINE
8
BLACK
6
CONTINUOUS
10
0.1083608267716535
20
0.3244183464566929
11
0.1084329133858268
21
0.3243885039370079
0
LINE
8
BLACK
6
CONTINUOUS
10
0.1084329133858268
20
0.3243885039370079
11
0.1087185039370079
21
0.3243235433070866
0
LINE
8
BLACK
6
CONTINUOUS
10
0.1087185039370079
20
0.3243235433070866
11
0.1143427952755905
21
0.3224487795275591
0
LINE
8
BLACK
6
CONTINUOUS
10
0.1143427952755905
20
0.3224487795275591
11
0.1148713385826772
21
0.3222127952755905
0
LINE
8
BLACK
6
CONTINUOUS
10
0.1148713385826772
20
0.3222127952755905
11
0.1149514566929134
21
0.3221433070866142
0
LINE
8
BLACK
6
CONTINUOUS
10
0.1149514566929134
20
0.3221433070866142
11
0.1150495275590551
21
0.3221026771653543
0
LINE
8
BLACK
6
CONTINUOUS
10
0.1150495275590551
20
0.3221026771653543
11
0.115496968503937
21
0.3217354724409449
0
LINE
8
BLACK
6
CONTINUOUS
10
0.115496968503937
20
0.3217354724409449
11
0.1329535039370079
21
0.3042789763779528
0
LINE
8
BLACK
6
CONTINUOUS
10
0.1329535039370079
20
0.3042789763779528
11
0.1329535039370079
21
0.3215223228346457
0
LINE
8
BLACK
6
CONTINUOUS
10
0.1329535039370079
20
0.3215223228346457
11
0.1330102362204724
21
0.3220983858267716
0
LINE
8
BLACK
6
CONTINUOUS
10
0.1330102362204724
20
0.3220983858267716
11
0.1334511417322835
21
0.3231627952755906
0
LINE
8
BLACK
6
CONTINUOUS
10
0.1334511417322835
20
0.3231627952755906
11
0.1342657874015748
21
0.3239774409448819
0
LINE
8
BLACK
6
CONTINUOUS
10
0.1342657874015748
20
0.3239774409448819
11
0.1353301968503937
21
0.3244183464566929
0
LINE
8
BLACK
6
CONTINUOUS
10
0.1353301968503937
20
0.3244183464566929
11
0.1364823228346457
21
0.3244183464566929
0
LINE
8
BLACK
6
CONTINUOUS
10
0.1364823228346457
20
0.3244183464566929
11
0.1375467322834646
21
0.3239774409448819
0
LINE
8
BLACK
6
CONTINUOUS
10
0.1375467322834646
20
0.3239774409448819
11
0.1383613779527559
21
0.3231627952755906
0
LINE
8
BLACK
6
CONTINUOUS
10
0.1383613779527559
20
0.3231627952755906
11
0.1388022834645669
21
0.3220983858267716
0
LINE
8
BLACK
6
CONTINUOUS
10
0.1388022834645669
20
0.3220983858267716
11
0.1388590157480315
21
0.3215223228346457
0
LINE
8
BLACK
6
CONTINUOUS
10
0.1388590157480315
20
0.3215223228346457
11
0.1388590157480315
21
0.2971503937007874
0
LINE
8
BLACK
6
CONTINUOUS
10
0.1388590157480315
20
0.2971503937007874
11
0.1388022834645669
21
0.2965743307086614
0
LINE
8
BLACK
6
CONTINUOUS
10
0.1388022834645669
20
0.2965743307086614
11
0.1386731496062992
21
0.2962625984251969
0
LINE
8
BLACK
6
CONTINUOUS
10
0.1386731496062992
20
0.2962625984251969
11
0.1383614173228346
21
0.2955099212598425
0
LINE
8
BLACK
6
CONTINUOUS
10
0.1383614173228346
20
0.2955099212598425
11
0.1375467322834646
21
0.2946952755905512
0
LINE
8
BLACK
6
CONTINUOUS
10
0.1375467322834646
20
0.2946952755905512
11
0.1364823228346457
21
0.2942543700787402
0
LINE
8
BLACK
6
CONTINUOUS
10
0.1364823228346457
20
0.2942543700787402
11
0.1353302362204724
21
0.2942543700787402
0
LINE
8
BLACK
6
CONTINUOUS
10
0.1353302362204724
20
0.2942543700787402
11
0.1353301968503937
21
0.2942543700787402
0
LINE
8
BLACK
6
CONTINUOUS
10
0.1353301968503937
20
0.2942543700787402
11
0.1350184251968504
21
0.2943835039370079
0
LINE
8
BLACK
6
CONTINUOUS
10
0.1350184251968504
20
0.2943835039370079
11
0.1342657874015748
21
0.2946952362204724
0
LINE
8
BLACK
6
CONTINUOUS
10
0.1342657874015748
20
0.2946952362204724
11
0.1338183464566929
21
0.2950624803149606
0
LINE
8
BLACK
6
CONTINUOUS
10
0.1338183464566929
20
0.2950624803149606
11
0.1118140157480315
21
0.3170667716535433
0
LINE
8
BLACK
6
CONTINUOUS
10
0.1118140157480315
20
0.3170667716535433
11
0.1073056299212598
21
0.3185695669291339
0
LINE
8
BLACK
6
CONTINUOUS
10
0.1073056299212598
20
0.3185695669291339
11
0.1047322834645669
21
0.3185695669291339
0
LINE
8
BLACK
6
CONTINUOUS
10
0.1047322834645669
20
0.3185695669291339
11
0.1020348031496063
21
0.3172208267716535
0
LINE
8
BLACK
6
CONTINUOUS
10
0.1020348031496063
20
0.3172208267716535
11
0.1008376771653543
21
0.3160237007874016
0
LINE
8
BLACK
6
CONTINUOUS
10
0.1008376771653543
20
0.3160237007874016
11
0.099488937007874
21
0.313326220472441
0
LINE
8
BLACK
6
CONTINUOUS
10
0.099488937007874
20
0.313326220472441
11
0.099488937007874
21
0.3053464960629921
0
LINE
8
BLACK
6
CONTINUOUS
10
0.099488937007874
20
0.3053464960629921
11
0.1008376771653543
21
0.3026490157480315
0
LINE
8
BLACK
6
CONTINUOUS
10
0.1008376771653543
20
0.3026490157480315
11
0.1023736220472441
21
0.3011130708661418
0
LINE
8
BLACK
6
CONTINUOUS
10
0.1023736220472441
20
0.3011130708661418
11
0.1027408267716535
21
0.3006656299212598
0
LINE
8
BLACK
6
CONTINUOUS
10
0.1027408267716535
20
0.3006656299212598
11
0.1031817322834646
21
0.2996012204724409
0
LINE
8
BLACK
6
CONTINUOUS
10
0.1031817322834646
20
0.2996012204724409
11
0.1031817322834646
21
0.2984491338582677
0
LINE
8
BLACK
6
CONTINUOUS
10
0.1031817322834646
20
0.2984491338582677
11
0.1027408267716535
21
0.2973847244094488
0
LINE
8
BLACK
6
CONTINUOUS
10
0.1027408267716535
20
0.2973847244094488
11
0.1019261417322835
21
0.2965700393700788
0
LINE
8
BLACK
6
CONTINUOUS
10
0.1019261417322835
20
0.2965700393700788
11
0.1008617322834646
21
0.2961291338582677
0
LINE
8
BLACK
6
CONTINUOUS
10
0.1008617322834646
20
0.2961291338582677
11
0.0997096456692913
21
0.2961291338582677
0
LINE
8
BLACK
6
CONTINUOUS
10
0.0997096456692913
20
0.2961291338582677
11
0.0986452362204724
21
0.2965700393700788
0
LINE
8
BLACK
6
CONTINUOUS
10
0.0986452362204724
20
0.2965700393700788
11
0.0981977952755906
21
0.2969372440944882
0
LINE
8
BLACK
6
CONTINUOUS
10
0.0981977952755906
20
0.2969372440944882
11
0.096323031496063
21
0.2988120078740157
0
LINE
8
BLACK
6
CONTINUOUS
10
0.096323031496063
20
0.2988120078740157
11
0.0961372440944882
21
0.2990383858267717
0
LINE
8
BLACK
6
CONTINUOUS
10
0.0961372440944882
20
0.2990383858267717
11
0.0960782677165354
21
0.2990895275590551
0
LINE
8
BLACK
6
CONTINUOUS
10
0.0960782677165354
20
0.2990895275590551
11
0.0960222834645669
21
0.2991785039370078
0
LINE
8
BLACK
6
CONTINUOUS
10
0.0960222834645669
20
0.2991785039370078
11
0.0959558267716535
21
0.2992594488188977
0
LINE
8
BLACK
6
CONTINUOUS
10
0.0959558267716535
20
0.2992594488188977
11
0.0959259842519685
21
0.2993314173228346
0
LINE
8
BLACK
6
CONTINUOUS
10
0.0959259842519685
20
0.2993314173228346
11
0.0957699212598425
21
0.2995794094488189
0
LINE
8
BLACK
6
CONTINUOUS
10
0.0957699212598425
20
0.2995794094488189
11
0.093895157480315
21
0.303328937007874
0
LINE
8
BLACK
6
CONTINUOUS
10
0.093895157480315
20
0.303328937007874
11
0.0936882677165354
21
0.3038695669291339
0
LINE
8
BLACK
6
CONTINUOUS
10
0.0936882677165354
20
0.3038695669291339
11
0.0936807480314961
21
0.3039753937007874
0
LINE
8
BLACK
6
CONTINUOUS
10
0.0936807480314961
20
0.3039753937007874
11
0.093640157480315
21
0.3040733858267716
0
LINE
8
BLACK
6
CONTINUOUS
10
0.093640157480315
20
0.3040733858267716
11
0.0935834251968504
21
0.3046494488188976
0
LINE
8
BLACK
6
CONTINUOUS
10
0.0935834251968504
20
0.3046494488188976
11
0.0935834251968504
21
0.3140232677165354
0
LINE
8
BLACK
6
CONTINUOUS
10
0.0935834251968504
20
0.3140232677165354
11
0.093640157480315
21
0.3145993307086614
0
LINE
8
BLACK
6
CONTINUOUS
10
0.093640157480315
20
0.3145993307086614
11
0.0936807480314961
21
0.3146973622047244
0
LINE
8
BLACK
6
CONTINUOUS
10
0.0936807480314961
20
0.3146973622047244
11
0.0936882677165354
21
0.3148031496062992
0
LINE
8
BLACK
6
CONTINUOUS
10
0.0936882677165354
20
0.3148031496062992
11
0.093895157480315
21
0.315343779527559
0
LINE
8
BLACK
6
CONTINUOUS
10
0.093895157480315
20
0.315343779527559
11
0.0957699212598425
21
0.3190933070866142
0
LINE
8
BLACK
6
CONTINUOUS
10
0.0957699212598425
20
0.3190933070866142
11
0.0959259842519685
21
0.3193413385826772
0
LINE
8
BLACK
6
CONTINUOUS
10
0.0959259842519685
20
0.3193413385826772
11
0.0959558267716535
21
0.3194132677165354
0
LINE
8
BLACK
6
CONTINUOUS
10
0.0959558267716535
20
0.3194132677165354
11
0.0960222834645669
21
0.319494251968504
0
LINE
8
BLACK
6
CONTINUOUS
10
0.0960222834645669
20
0.319494251968504
11
0.0960782677165354
21
0.3195831889763779
0
LINE
8
BLACK
6
CONTINUOUS
10
0.0960782677165354
20
0.3195831889763779
11
0.0961372440944882
21
0.3196343700787401
0
LINE
8
BLACK
6
CONTINUOUS
10
0.0961372440944882
20
0.3196343700787401
11
0.096323031496063
21
0.3198607086614173
0
LINE
8
BLACK
6
CONTINUOUS
10
0.096323031496063
20
0.3198607086614173
11
0.0981977952755906
21
0.3217354724409449
0
LINE
8
BLACK
6
CONTINUOUS
10
0.0981977952755906
20
0.3217354724409449
11
0.0984241338582677
21
0.3219212598425197
0
LINE
8
BLACK
6
CONTINUOUS
10
0.0984241338582677
20
0.3219212598425197
11
0.0984753149606299
21
0.3219802362204724
0
LINE
8
BLACK
6
CONTINUOUS
10
0.0984753149606299
20
0.3219802362204724
11
0.0985642519685039
21
0.322036220472441
0
LINE
8
BLACK
6
CONTINUOUS
10
0.0985642519685039
20
0.322036220472441
11
0.0986452362204724
21
0.3221026771653543
0
LINE
8
BLACK
6
CONTINUOUS
10
0.0986452362204724
20
0.3221026771653543
11
0.0987171653543307
21
0.3221325196850394
0
LINE
8
BLACK
6
CONTINUOUS
10
0.0987171653543307
20
0.3221325196850394
11
0.0989651968503937
21
0.3222885826771654
0
LINE
8
BLACK
6
CONTINUOUS
10
0.0989651968503937
20
0.3222885826771654
11
0.1027147244094488
21
0.3241633464566929
0
LINE
8
BLACK
6
CONTINUOUS
10
0.1027147244094488
20
0.3241633464566929
11
0.1032553149606299
21
0.3243702362204725
0
LINE
8
BLACK
6
CONTINUOUS
10
0.1032553149606299
20
0.3243702362204725
11
0.1033611811023622
21
0.3243777952755905
0
LINE
8
BLACK
6
CONTINUOUS
10
0.1033611811023622
20
0.3243777952755905
11
0.1034591732283465
21
0.3244183464566929
0
LINE
8
BLACK
6
CONTINUOUS
10
0.1034591732283465
20
0.3244183464566929
11
0.1040352362204724
21
0.3244750787401575
0
LINE
8
BLACK
6
CONTINUOUS
10
0.1040352362204724
20
0.3244750787401575
11
0.1077847637795276
21
0.3244750787401575
0
LINE
8
BLACK
6
CONTINUOUS
10
0.1077847637795276
20
0.3244750787401575
11
0.1080762992125984
21
0.3244463779527559
0
LINE
8
BLACK
6
CONTINUOUS
10
0.1817454330708661
20
0.4594958267716535
11
0.1828107874015748
21
0.4584304724409449
0
LINE
8
BLACK
6
CONTINUOUS
10
0.1828107874015748
20
0.4584304724409449
11
0.1829606299212598
21
0.4576771653543307
0
LINE
8
BLACK
6
CONTINUOUS
10
0.1829606299212598
20
0.4576771653543307
11
0.1829606299212598
21
0.1328740157480315
0
LINE
8
BLACK
6
CONTINUOUS
10
0.1829606299212598
20
0.1328740157480315
11
0.1828107874015748
21
0.1321207086614173
0
LINE
8
BLACK
6
CONTINUOUS
10
0.1828107874015748
20
0.1321207086614173
11
0.1817454330708661
21
0.1310553543307087
0
LINE
8
BLACK
6
CONTINUOUS
10
0.1817454330708661
20
0.1310553543307087
11
0.180992125984252
21
0.1309055118110236
0
LINE
8
BLACK
6
CONTINUOUS
10
0.180992125984252
20
0.1309055118110236
11
0.0215433070866142
21
0.1309055118110236
0
LINE
8
BLACK
6
CONTINUOUS
10
0.0215433070866142
20
0.1309055118110236
11
0.02079
21
0.1310553543307087
0
LINE
8
BLACK
6
CONTINUOUS
10
0.02079
20
0.1310553543307087
11
0.0197246456692913
21
0.1321207086614173
0
LINE
8
BLACK
6
CONTINUOUS
10
0.0197246456692913
20
0.1321207086614173
11
0.0195748031496063
21
0.1328740157480315
0
LINE
8
BLACK
6
CONTINUOUS
10
0.0195748031496063
20
0.1328740157480315
11
0.0195748031496063
21
0.4576771653543307
0
LINE
8
BLACK
6
CONTINUOUS
10
0.0195748031496063
20
0.4576771653543307
11
0.0197246456692913
21
0.4584304724409449
0
LINE
8
BLACK
6
CONTINUOUS
10
0.0197246456692913
20
0.4584304724409449
11
0.02079
21
0.4594958267716535
0
LINE
8
BLACK
6
CONTINUOUS
10
0.02079
20
0.4594958267716535
11
0.0215433070866142
21
0.4596456692913386
0
LINE
8
BLACK
6
CONTINUOUS
10
0.0215433070866142
20
0.4596456692913386
11
0.180992125984252
21
0.4596456692913386
0
LINE
8
BLACK
6
CONTINUOUS
10
0.180992125984252
20
0.4596456692913386
11
0.1817454330708661
21
0.4594958267716535
0
LINE
8
BLACK
6
CONTINUOUS
10
0.023511811023622
20
0.4557086614173228
11
0.023511811023622
21
0.1348425196850394
0
LINE
8
BLACK
6
CONTINUOUS
10
0.023511811023622
20
0.1348425196850394
11
0.1790236220472441
21
0.1348425196850394
0
LINE
8
BLACK
6
CONTINUOUS
10
0.1790236220472441
20
0.1348425196850394
11
0.1790236220472441
21
0.3483905118110236
0
LINE
8
BLACK
6
CONTINUOUS
10
0.1790236220472441
20
0.3483905118110236
11
0.1520167322834646
21
0.3674872047244094
0
LINE
8
BLACK
6
CONTINUOUS
10
0.1520167322834646
20
0.3674872047244094
11
0.1514881889763779
21
0.3680444881889764
0
LINE
8
BLACK
6
CONTINUOUS
10
0.1514881889763779
20
0.3680444881889764
11
0.1514304330708661
21
0.368380905511811
0
LINE
8
BLACK
6
CONTINUOUS
10
0.1514304330708661
20
0.368380905511811
11
0.1512334251968504
21
0.3686595669291339
0
LINE
8
BLACK
6
CONTINUOUS
10
0.1512334251968504
20
0.3686595669291339
11
0.151308031496063
21
0.3690944881889764
0
LINE
8
BLACK
6
CONTINUOUS
10
0.151308031496063
20
0.3690944881889764
11
0.1512334251968504
21
0.3695294094488189
0
LINE
8
BLACK
6
CONTINUOUS
10
0.1512334251968504
20
0.3695294094488189
11
0.1514304330708661
21
0.3698081102362205
0
LINE
8
BLACK
6
CONTINUOUS
10
0.1514304330708661
20
0.3698081102362205
11
0.1514881889763779
21
0.3701444881889764
0
LINE
8
BLACK
6
CONTINUOUS
10
0.1514881889763779
20
0.3701444881889764
11
0.1520167322834646
21
0.3707017716535433
0
LINE
8
BLACK
6
CONTINUOUS
10
0.1520167322834646
20
0.3707017716535433
11
0.1790236220472441
21
0.3897985039370079
0
LINE
8
BLACK
6
CONTINUOUS
10
0.1790236220472441
20
0.3897985039370079
11
0.1790236220472441
21
0.4557086614173228
0
LINE
8
BLACK
6
CONTINUOUS
10
0.1790236220472441
20
0.4557086614173228
11
0.023511811023622
21
0.4557086614173228
0
LINE
8
BLACK
6
CONTINUOUS
10
0.1565628346456693
20
0.3690944881889764
11
0.1790236220472441
21
0.3532123622047244
0
LINE
8
BLACK
6
CONTINUOUS
10
0.1790236220472441
20
0.3532123622047244
11
0.1790236220472441
21
0.3849766535433071
0
LINE
8
BLACK
6
CONTINUOUS
10
0.1790236220472441
20
0.3849766535433071
11
0.1565628346456693
21
0.3690944881889764
0
LINE
8
BLACK
6
CONTINUOUS
10
-0.0325346850393701
20
0.1697970472440945
11
-0.0324916535433071
21
0.1698034251968504
0
LINE
8
BLACK
6
CONTINUOUS
10
-0.0324916535433071
20
0.1698034251968504
11
-0.0322761811023622
21
0.1697715748031496
0
LINE
8
BLACK
6
CONTINUOUS
10
-0.0322761811023622
20
0.1697715748031496
11
-0.0320591338582677
21
0.1697501968503937
0
LINE
8
BLACK
6
CONTINUOUS
10
-0.0320591338582677
20
0.1697501968503937
11
-0.032018937007874
21
0.1697335826771653
0
LINE
8
BLACK
6
CONTINUOUS
10
-0.032018937007874
20
0.1697335826771653
11
-0.0319190551181102
21
0.169718779527559
0
LINE
8
BLACK
6
CONTINUOUS
10
-0.0319190551181102
20
0.169718779527559
11
-0.02442
21
0.1678440157480315
0
LINE
8
BLACK
6
CONTINUOUS
10
-0.02442
20
0.1678440157480315
11
-0.0243775196850394
21
0.1678288582677165
0
LINE
8
BLACK
6
CONTINUOUS
10
-0.0243775196850394
20
0.1678288582677165
11
-0.0243562598425197
21
0.1678273228346457
0
LINE
8
BLACK
6
CONTINUOUS
10
-0.0243562598425197
20
0.1678273228346457
11
-0.0241168503937008
21
0.1677357086614173
0
LINE
8
BLACK
6
CONTINUOUS
10
-0.0241168503937008
20
0.1677357086614173
11
-0.0238748818897638
21
0.1676492519685039
0
LINE
8
BLACK
6
CONTINUOUS
10
-0.0238748818897638
20
0.1676492519685039
11
-0.0238577559055118
21
0.1676365748031496
0
LINE
8
BLACK
6
CONTINUOUS
10
-0.0238577559055118
20
0.1676365748031496
11
-0.0238156299212598
21
0.1676204330708661
0
LINE
8
BLACK
6
CONTINUOUS
10
-0.0238156299212598
20
0.1676204330708661
11
-0.0200661023622047
21
0.1657456692913386
0
LINE
8
BLACK
6
CONTINUOUS
10
-0.0200661023622047
20
0.1657456692913386
11
-0.0198182283464567
21
0.1655896456692913
0
LINE
8
BLACK
6
CONTINUOUS
10
-0.0198182283464567
20
0.1655896456692913
11
-0.0197461811023622
21
0.1655598031496063
0
LINE
8
BLACK
6
CONTINUOUS
10
-0.0197461811023622
20
0.1655598031496063
11
-0.019665157480315
21
0.1654933070866142
0
LINE
8
BLACK
6
CONTINUOUS
10
-0.019665157480315
20
0.1654933070866142
11
-0.0195762204724409
21
0.1654373228346457
0
LINE
8
BLACK
6
CONTINUOUS
10
-0.0195762204724409
20
0.1654373228346457
11
-0.0195250787401575
21
0.1653783464566929
0
LINE
8
BLACK
6
CONTINUOUS
10
-0.0195250787401575
20
0.1653783464566929
11
-0.0192987401574803
21
0.1651925984251968
0
LINE
8
BLACK
6
CONTINUOUS
10
-0.0192987401574803
20
0.1651925984251968
11
-0.017423937007874
21
0.1633178346456693
0
LINE
8
BLACK
6
CONTINUOUS
10
-0.017423937007874
20
0.1633178346456693
11
-0.017238188976378
21
0.1630914960629921
0
LINE
8
BLACK
6
CONTINUOUS
10
-0.017238188976378
20
0.1630914960629921
11
-0.0171791338582677
21
0.1630402755905512
0
LINE
8
BLACK
6
CONTINUOUS
10
-0.0171791338582677
20
0.1630402755905512
11
-0.0171231496062992
21
0.1629513385826772
0
LINE
8
BLACK
6
CONTINUOUS
10
-0.0171231496062992
20
0.1629513385826772
11
-0.0170566929133858
21
0.1628703543307086
0
LINE
8
BLACK
6
CONTINUOUS
10
-0.0170566929133858
20
0.1628703543307086
11
-0.0170268897637795
21
0.1627984251968504
0
LINE
8
BLACK
6
CONTINUOUS
10
-0.0170268897637795
20
0.1627984251968504
11
-0.0168707874015748
21
0.1625503937007874
0
LINE
8
BLACK
6
CONTINUOUS
10
-0.0168707874015748
20
0.1625503937007874
11
-0.0149960236220472
21
0.1588008661417323
0
LINE
8
BLACK
6
CONTINUOUS
10
-0.0149960236220472
20
0.1588008661417323
11
-0.0147891338582677
21
0.1582602755905512
0
LINE
8
BLACK
6
CONTINUOUS
10
-0.0147891338582677
20
0.1582602755905512
11
-0.0147816141732283
21
0.1581544094488189
0
LINE
8
BLACK
6
CONTINUOUS
10
-0.0147816141732283
20
0.1581544094488189
11
-0.0147410236220472
21
0.1580564173228347
0
LINE
8
BLACK
6
CONTINUOUS
10
-0.0147410236220472
20
0.1580564173228347
11
-0.0146842913385827
21
0.1574803543307086
0
LINE
8
BLACK
6
CONTINUOUS
10
-0.0146842913385827
20
0.1574803543307086
11
-0.0146842913385827
21
0.1537308267716535
0
LINE
8
BLACK
6
CONTINUOUS
10
-0.0146842913385827
20
0.1537308267716535
11
-0.0147410236220472
21
0.1531547637795276
0
LINE
8
BLACK
6
CONTINUOUS
10
-0.0147410236220472
20
0.1531547637795276
11
-0.0147816141732283
21
0.153056811023622
0
LINE
8
BLACK
6
CONTINUOUS
10
-0.0147816141732283
20
0.153056811023622
11
-0.0147891338582677
21
0.152950905511811
0
LINE
8
BLACK
6
CONTINUOUS
10
-0.0147891338582677
20
0.152950905511811
11
-0.0149960236220472
21
0.1524103149606299
0
LINE
8
BLACK
6
CONTINUOUS
10
-0.0149960236220472
20
0.1524103149606299
11
-0.0168707874015748
21
0.1486607874015748
0
LINE
8
BLACK
6
CONTINUOUS
10
-0.0168707874015748
20
0.1486607874015748
11
-0.0170268897637795
21
0.1484127952755905
0
LINE
8
BLACK
6
CONTINUOUS
10
-0.0170268897637795
20
0.1484127952755905
11
-0.0170566929133858
21
0.1483408267716535
0
LINE
8
BLACK
6
CONTINUOUS
10
-0.0170566929133858
20
0.1483408267716535
11
-0.0171231496062992
21
0.1482598818897638
0
LINE
8
BLACK
6
CONTINUOUS
10
-0.0171231496062992
20
0.1482598818897638
11
-0.0171791338582677
21
0.148170905511811
0
LINE
8
BLACK
6
CONTINUOUS
10
-0.0171791338582677
20
0.148170905511811
11
-0.017238188976378
21
0.1481197244094488
0
LINE
8
BLACK
6
CONTINUOUS
10
-0.017238188976378
20
0.1481197244094488
11
-0.017423937007874
21
0.1478933464566929
0
LINE
8
BLACK
6
CONTINUOUS
10
-0.017423937007874
20
0.1478933464566929
11
-0.0192987401574803
21
0.1460185826771654
0
LINE
8
BLACK
6
CONTINUOUS
10
-0.0192987401574803
20
0.1460185826771654
11
-0.0195250787401575
21
0.145832874015748
0
LINE
8
BLACK
6
CONTINUOUS
10
-0.0195250787401575
20
0.145832874015748
11
-0.0195762204724409
21
0.1457738582677165
0
LINE
8
BLACK
6
CONTINUOUS
10
-0.0195762204724409
20
0.1457738582677165
11
-0.019665157480315
21
0.1457179133858268
0
LINE
8
BLACK
6
CONTINUOUS
10
-0.019665157480315
20
0.1457179133858268
11
-0.0197461811023622
21
0.1456513779527559
0
LINE
8
BLACK
6
CONTINUOUS
10
-0.0197461811023622
20
0.1456513779527559
11
-0.0198182283464567
21
0.1456215748031496
0
LINE
8
BLACK
6
CONTINUOUS
10
-0.0198182283464567
20
0.1456215748031496
11
-0.0200661023622047
21
0.1454655118110236
0
LINE
8
BLACK
6
CONTINUOUS
10
-0.0200661023622047
20
0.1454655118110236
11
-0.0238156299212598
21
0.143590748031496
0
LINE
8
BLACK
6
CONTINUOUS
10
-0.0238156299212598
20
0.143590748031496
11
-0.0238577559055118
21
0.1435746456692913
0
LINE
8
BLACK
6
CONTINUOUS
10
-0.0238577559055118
20
0.1435746456692913
11
-0.0238748818897638
21
0.1435619291338583
0
LINE
8
BLACK
6
CONTINUOUS
10
-0.0238748818897638
20
0.1435619291338583
11
-0.0241168503937008
21
0.1434755118110236
0
LINE
8
BLACK
6
CONTINUOUS
10
-0.0241168503937008
20
0.1434755118110236
11
-0.0243562598425197
21
0.1433838582677165
0
LINE
8
BLACK
6
CONTINUOUS
10
-0.0243562598425197
20
0.1433838582677165
11
-0.0243775196850394
21
0.1433823622047244
0
LINE
8
BLACK
6
CONTINUOUS
10
-0.0243775196850394
20
0.1433823622047244
11
-0.02442
21
0.1433671653543307
0
LINE
8
BLACK
6
CONTINUOUS
10
-0.02442
20
0.1433671653543307
11
-0.0319190551181102
21
0.1414924015748031
0
LINE
8
BLACK
6
CONTINUOUS
10
-0.0319190551181102
20
0.1414924015748031
11
-0.032018937007874
21
0.1414776377952756
0
LINE
8
BLACK
6
CONTINUOUS
10
-0.032018937007874
20
0.1414776377952756
11
-0.0320591338582677
21
0.1414609842519685
0
LINE
8
BLACK
6
CONTINUOUS
10
-0.0320591338582677
20
0.1414609842519685
11
-0.0322761811023622
21
0.1414396456692913
0
LINE
8
BLACK
6
CONTINUOUS
10
-0.0322761811023622
20
0.1414396456692913
11
-0.0324916535433071
21
0.1414077559055118
0
LINE
8
BLACK
6
CONTINUOUS
10
-0.0324916535433071
20
0.1414077559055118
11
-0.0325346850393701
21
0.1414141732283465
0
LINE
8
BLACK
6
CONTINUOUS
10
-0.0325346850393701
20
0.1414141732283465
11
-0.0326351968503937
21
0.1414042519685039
0
LINE
8
BLACK
6
CONTINUOUS
10
-0.0326351968503937
20
0.1414042519685039
11
-0.0420090157480315
21
0.1414042519685039
0
LINE
8
BLACK
6
CONTINUOUS
10
-0.0420090157480315
20
0.1414042519685039
11
-0.0421095669291339
21
0.1414141732283465
0
LINE
8
BLACK
6
CONTINUOUS
10
-0.0421095669291339
20
0.1414141732283465
11
-0.0421525590551181
21
0.1414077559055118
0
LINE
8
BLACK
6
CONTINUOUS
10
-0.0421525590551181
20
0.1414077559055118
11
-0.0423680708661417
21
0.1414396456692913
0
LINE
8
BLACK
6
CONTINUOUS
10
-0.0423680708661417
20
0.1414396456692913
11
-0.0425850787401575
21
0.1414609842519685
0
LINE
8
BLACK
6
CONTINUOUS
10
-0.0425850787401575
20
0.1414609842519685
11
-0.0426253149606299
21
0.1414776377952756
0
LINE
8
BLACK
6
CONTINUOUS
10
-0.0426253149606299
20
0.1414776377952756
11
-0.042725157480315
21
0.1414924015748031
0
LINE
8
BLACK
6
CONTINUOUS
10
-0.042725157480315
20
0.1414924015748031
11
-0.0502242125984252
21
0.1433671653543307
0
LINE
8
BLACK
6
CONTINUOUS
10
-0.0502242125984252
20
0.1433671653543307
11
-0.0502667322834646
21
0.1433823622047244
0
LINE
8
BLACK
6
CONTINUOUS
10
-0.0502667322834646
20
0.1433823622047244
11
-0.0502879921259842
21
0.1433838582677165
0
LINE
8
BLACK
6
CONTINUOUS
10
-0.0502879921259842
20
0.1433838582677165
11
-0.0505277559055118
21
0.1434756299212598
0
LINE
8
BLACK
6
CONTINUOUS
10
-0.0505277559055118
20
0.1434756299212598
11
-0.0507693307086614
21
0.1435619291338583
0
LINE
8
BLACK
6
CONTINUOUS
10
-0.0507693307086614
20
0.1435619291338583
11
-0.0507864960629921
21
0.1435746456692913
0
LINE
8
BLACK
6
CONTINUOUS
10
-0.0507864960629921
20
0.1435746456692913
11
-0.0508285826771654
21
0.143590748031496
0
LINE
8
BLACK
6
CONTINUOUS
10
-0.0508285826771654
20
0.143590748031496
11
-0.0545781102362205
21
0.1454655118110236
0
LINE
8
BLACK
6
CONTINUOUS
10
-0.0545781102362205
20
0.1454655118110236
11
-0.0548261417322835
21
0.1456216141732283
0
LINE
8
BLACK
6
CONTINUOUS
10
-0.0548261417322835
20
0.1456216141732283
11
-0.0548980708661417
21
0.1456514173228347
0
LINE
8
BLACK
6
CONTINUOUS
10
-0.0548980708661417
20
0.1456514173228347
11
-0.0549790551181102
21
0.1457179133858268
0
LINE
8
BLACK
6
CONTINUOUS
10
-0.0549790551181102
20
0.1457179133858268
11
-0.0550679921259843
21
0.1457738582677165
0
LINE
8
BLACK
6
CONTINUOUS
10
-0.0550679921259843
20
0.1457738582677165
11
-0.0551191732283465
21
0.145832874015748
0
LINE
8
BLACK
6
CONTINUOUS
10
-0.0551191732283465
20
0.145832874015748
11
-0.0553455118110236
21
0.1460186220472441
0
LINE
8
BLACK
6
CONTINUOUS
10
-0.0553455118110236
20
0.1460186220472441
11
-0.0572202755905512
21
0.1478933858267716
0
LINE
8
BLACK
6
CONTINUOUS
10
-0.0572202755905512
20
0.1478933858267716
11
-0.057406062992126
21
0.1481197637795276
0
LINE
8
BLACK
6
CONTINUOUS
10
-0.057406062992126
20
0.1481197637795276
11
-0.0574650393700787
21
0.148170905511811
0
LINE
8
BLACK
6
CONTINUOUS
10
-0.0574650393700787
20
0.148170905511811
11
-0.0575210236220472
21
0.1482598818897638
0
LINE
8
BLACK
6
CONTINUOUS
10
-0.0575210236220472
20
0.1482598818897638
11
-0.0575874803149606
21
0.1483408267716535
0
LINE
8
BLACK
6
CONTINUOUS
10
-0.0575874803149606
20
0.1483408267716535
11
-0.0576173228346457
21
0.1484127952755905
0
LINE
8
BLACK
6
CONTINUOUS
10
-0.0576173228346457
20
0.1484127952755905
11
-0.0577733858267717
21
0.1486607874015748
0
LINE
8
BLACK
6
CONTINUOUS
10
-0.0577733858267717
20
0.1486607874015748
11
-0.0596481496062992
21
0.1524103149606299
0
LINE
8
BLACK
6
CONTINUOUS
10
-0.0596481496062992
20
0.1524103149606299
11
-0.0598550393700787
21
0.1529509448818898
0
LINE
8
BLACK
6
CONTINUOUS
10
-0.0598550393700787
20
0.1529509448818898
11
-0.0598625590551181
21
0.1530567716535433
0
LINE
8
BLACK
6
CONTINUOUS
10
-0.0598625590551181
20
0.1530567716535433
11
-0.0599031496062992
21
0.1531547637795276
0
LINE
8
BLACK
6
CONTINUOUS
10
-0.0599031496062992
20
0.1531547637795276
11
-0.0599598818897638
21
0.1537308267716535
0
LINE
8
BLACK
6
CONTINUOUS
10
-0.0599598818897638
20
0.1537308267716535
11
-0.0599598818897638
21
0.1574803543307086
0
LINE
8
BLACK
6
CONTINUOUS
10
-0.0599598818897638
20
0.1574803543307086
11
-0.0599031496062992
21
0.1580564173228347
0
LINE
8
BLACK
6
CONTINUOUS
10
-0.0599031496062992
20
0.1580564173228347
11
-0.0598625590551181
21
0.1581544488188976
0
LINE
8
BLACK
6
CONTINUOUS
10
-0.0598625590551181
20
0.1581544488188976
11
-0.0598550393700787
21
0.1582602362204724
0
LINE
8
BLACK
6
CONTINUOUS
10
-0.0598550393700787
20
0.1582602362204724
11
-0.0596481496062992
21
0.1588008661417323
0
LINE
8
BLACK
6
CONTINUOUS
10
-0.0596481496062992
20
0.1588008661417323
11
-0.0577733858267717
21
0.1625503937007874
0
LINE
8
BLACK
6
CONTINUOUS
10
-0.0577733858267717
20
0.1625503937007874
11
-0.0576173228346457
21
0.1627984251968504
0
LINE
8
BLACK
6
CONTINUOUS
10
-0.0576173228346457
20
0.1627984251968504
11
-0.0575874803149606
21
0.1628703543307086
0
LINE
8
BLACK
6
CONTINUOUS
10
-0.0575874803149606
20
0.1628703543307086
11
-0.0575210236220472
21
0.1629513385826772
0
LINE
8
BLACK
6
CONTINUOUS
10
-0.0575210236220472
20
0.1629513385826772
11
-0.0574650393700787
21
0.1630402755905512
0
LINE
8
BLACK
6
CONTINUOUS
10
-0.0574650393700787
20
0.1630402755905512
11
-0.057406062992126
21
0.1630914566929134
0
LINE
8
BLACK
6
CONTINUOUS
10
-0.057406062992126
20
0.1630914566929134
11
-0.0572202755905512
21
0.1633177952755905
0
LINE
8
BLACK
6
CONTINUOUS
10
-0.0572202755905512
20
0.1633177952755905
11
-0.0553455118110236
21
0.1651925590551181
0
LINE
8
BLACK
6
CONTINUOUS
10
-0.0553455118110236
20
0.1651925590551181
11
-0.0551191732283465
21
0.1653783464566929
0
LINE
8
BLACK
6
CONTINUOUS
10
-0.0551191732283465
20
0.1653783464566929
11
-0.0550679921259843
21
0.1654373228346457
0
LINE
8
BLACK
6
CONTINUOUS
10
-0.0550679921259843
20
0.1654373228346457
11
-0.0549790551181102
21
0.1654933070866142
0
LINE
8
BLACK
6
CONTINUOUS
10
-0.0549790551181102
20
0.1654933070866142
11
-0.0548980708661417
21
0.1655597637795276
0
LINE
8
BLACK
6
CONTINUOUS
10
-0.0548980708661417
20
0.1655597637795276
11
-0.0548261417322835
21
0.1655896062992126
0
LINE
8
BLACK
6
CONTINUOUS
10
-0.0548261417322835
20
0.1655896062992126
11
-0.0545781102362205
21
0.1657456692913386
0
LINE
8
BLACK
6
CONTINUOUS
10
-0.0545781102362205
20
0.1657456692913386
11
-0.0508285826771654
21
0.1676204330708661
0
LINE
8
BLACK
6
CONTINUOUS
10
-0.0508285826771654
20
0.1676204330708661
11
-0.0507864960629921
21
0.1676365748031496
0
LINE
8
BLACK
6
CONTINUOUS
10
-0.0507864960629921
20
0.1676365748031496
11
-0.0507693307086614
21
0.1676492519685039
0
LINE
8
BLACK
6
CONTINUOUS
10
-0.0507693307086614
20
0.1676492519685039
11
-0.0505277559055118
21
0.1677355905511811
0
LINE
8
BLACK
6
CONTINUOUS
10
-0.0505277559055118
20
0.1677355905511811
11
-0.0502879921259842
21
0.1678273228346457
0
LINE
8
BLACK
6
CONTINUOUS
10
-0.0502879921259842
20
0.1678273228346457
11
-0.0502667322834646
21
0.1678288582677165
0
LINE
8
BLACK
6
CONTINUOUS
10
-0.0502667322834646
20
0.1678288582677165
11
-0.0502242125984252
21
0.1678440157480315
0
LINE
8
BLACK
6
CONTINUOUS
10
-0.0502242125984252
20
0.1678440157480315
11
-0.042725157480315
21
0.169718779527559
0
LINE
8
BLACK
6
CONTINUOUS
10
-0.042725157480315
20
0.169718779527559
11
-0.0426253149606299
21
0.1697335826771653
0
LINE
8
BLACK
6
CONTINUOUS
10
-0.0426253149606299
20
0.1697335826771653
11
-0.0425850787401575
21
0.1697501968503937
0
LINE
8
BLACK
6
CONTINUOUS
10
-0.0425850787401575
20
0.1697501968503937
11
-0.0423680708661417
21
0.1697715748031496
0
LINE
8
BLACK
6
CONTINUOUS
10
-0.0423680708661417
20
0.1697715748031496
11
-0.0421525590551181
21
0.1698034251968504
0
LINE
8
BLACK
6
CONTINUOUS
10
-0.0421525590551181
20
0.1698034251968504
11
-0.0421095669291339
21
0.1697970472440945
0
LINE
8
BLACK
6
CONTINUOUS
10
-0.0421095669291339
20
0.1697970472440945
11
-0.0420090157480315
21
0.1698069291338583
0
LINE
8
BLACK
6
CONTINUOUS
10
-0.0420090157480315
20
0.1698069291338583
11
-0.0326351968503937
21
0.1698069291338583
0
LINE
8
BLACK
6
CONTINUOUS
10
-0.0326351968503937
20
0.1698069291338583
11
-0.0325346850393701
21
0.1697970472440945
0
LINE
8
BLACK
6
CONTINUOUS
10
-0.0484775196850394
20
0.1621934251968504
11
-0.0515085039370079
21
0.1606779133858268
0
LINE
8
BLACK
6
CONTINUOUS
10
-0.0515085039370079
20
0.1606779133858268
11
-0.0527056299212598
21
0.1594807874015748
0
LINE
8
BLACK
6
CONTINUOUS
10
-0.0527056299212598
20
0.1594807874015748
11
-0.0540543700787402
21
0.1567833070866142
0
LINE
8
BLACK
6
CONTINUOUS
10
-0.0540543700787402
20
0.1567833070866142
11
-0.0540543700787402
21
0.154427874015748
0
LINE
8
BLACK
6
CONTINUOUS
10
-0.0540543700787402
20
0.154427874015748
11
-0.0527056299212598
21
0.1517303937007874
0
LINE
8
BLACK
6
CONTINUOUS
10
-0.0527056299212598
20
0.1517303937007874
11
-0.0515085039370079
21
0.1505332677165354
0
LINE
8
BLACK
6
CONTINUOUS
10
-0.0515085039370079
20
0.1505332677165354
11
-0.0484775196850394
21
0.1490177952755906
0
LINE
8
BLACK
6
CONTINUOUS
10
-0.0484775196850394
20
0.1490177952755906
11
-0.0416454724409449
21
0.1473097637795276
0
LINE
8
BLACK
6
CONTINUOUS
10
-0.0416454724409449
20
0.1473097637795276
11
-0.0329987401574803
21
0.1473097637795276
0
LINE
8
BLACK
6
CONTINUOUS
10
-0.0329987401574803
20
0.1473097637795276
11
-0.0261666929133858
21
0.1490177952755906
0
LINE
8
BLACK
6
CONTINUOUS
10
-0.0261666929133858
20
0.1490177952755906
11
-0.0231357086614173
21
0.1505333070866142
0
LINE
8
BLACK
6
CONTINUOUS
10
-0.0231357086614173
20
0.1505333070866142
11
-0.0219385433070866
21
0.1517304330708661
0
LINE
8
BLACK
6
CONTINUOUS
10
-0.0219385433070866
20
0.1517304330708661
11
-0.0205898031496063
21
0.154427874015748
0
LINE
8
BLACK
6
CONTINUOUS
10
-0.0205898031496063
20
0.154427874015748
11
-0.0205898031496063
21
0.1567833070866142
0
LINE
8
BLACK
6
CONTINUOUS
10
-0.0205898031496063
20
0.1567833070866142
11
-0.0219385433070866
21
0.1594807874015748
0
LINE
8
BLACK
6
CONTINUOUS
10
-0.0219385433070866
20
0.1594807874015748
11
-0.0231357086614173
21
0.1606779133858268
0
LINE
8
BLACK
6
CONTINUOUS
10
-0.0231357086614173
20
0.1606779133858268
11
-0.0261666929133858
21
0.1621934251968504
0
LINE
8
BLACK
6
CONTINUOUS
10
-0.0261666929133858
20
0.1621934251968504
11
-0.0329987401574803
21
0.1639014173228346
0
LINE
8
BLACK
6
CONTINUOUS
10
-0.0329987401574803
20
0.1639014173228346
11
-0.0416454724409449
21
0.1639014173228346
0
LINE
8
BLACK
6
CONTINUOUS
10
-0.0416454724409449
20
0.1639014173228346
11
-0.0484775196850394
21
0.1621934251968504
0
LINE
8
BLACK
6
CONTINUOUS
10
-0.0291199606299213
20
0.2086793700787402
11
-0.0283053149606299
21
0.2078647244094488
0
LINE
8
BLACK
6
CONTINUOUS
10
-0.0283053149606299
20
0.2078647244094488
11
-0.0278644094488189
21
0.2068003149606299
0
LINE
8
BLACK
6
CONTINUOUS
10
-0.0278644094488189
20
0.2068003149606299
11
-0.0278076771653543
21
0.2062242519685039
0
LINE
8
BLACK
6
CONTINUOUS
10
-0.0278076771653543
20
0.2062242519685039
11
-0.0278076771653543
21
0.2035527165354331
0
LINE
8
BLACK
6
CONTINUOUS
10
-0.0278076771653543
20
0.2035527165354331
11
-0.0176370472440945
21
0.2035527165354331
0
LINE
8
BLACK
6
CONTINUOUS
10
-0.0176370472440945
20
0.2035527165354331
11
-0.0170609842519685
21
0.2034959842519685
0
LINE
8
BLACK
6
CONTINUOUS
10
-0.0170609842519685
20
0.2034959842519685
11
-0.0159965748031496
21
0.2030550787401575
0
LINE
8
BLACK
6
CONTINUOUS
10
-0.0159965748031496
20
0.2030550787401575
11
-0.0151819291338583
21
0.2022404330708661
0
LINE
8
BLACK
6
CONTINUOUS
10
-0.0151819291338583
20
0.2022404330708661
11
-0.0147410236220472
21
0.2011760236220472
0
LINE
8
BLACK
6
CONTINUOUS
10
-0.0147410236220472
20
0.2011760236220472
11
-0.0147410236220472
21
0.2000238976377953
0
LINE
8
BLACK
6
CONTINUOUS
10
-0.0147410236220472
20
0.2000238976377953
11
-0.0151819291338583
21
0.1989594881889764
0
LINE
8
BLACK
6
CONTINUOUS
10
-0.0151819291338583
20
0.1989594881889764
11
-0.0159965748031496
21
0.198144842519685
0
LINE
8
BLACK
6
CONTINUOUS
10
-0.0159965748031496
20
0.198144842519685
11
-0.0170609842519685
21
0.197703937007874
0
LINE
8
BLACK
6
CONTINUOUS
10
-0.0170609842519685
20
0.197703937007874
11
-0.0176370472440945
21
0.1976472047244094
0
LINE
8
BLACK
6
CONTINUOUS
10
-0.0176370472440945
20
0.1976472047244094
11
-0.0278076771653543
21
0.1976472047244094
0
LINE
8
BLACK
6
CONTINUOUS
10
-0.0278076771653543
20
0.1976472047244094
11
-0.0278076771653543
21
0.1818523228346457
0
LINE
8
BLACK
6
CONTINUOUS
10
-0.0278076771653543
20
0.1818523228346457
11
-0.0278364173228346
21
0.1815607874015748
0
LINE
8
BLACK
6
CONTINUOUS
10
-0.0278364173228346
20
0.1815607874015748
11
-0.0278308661417323
21
0.181483031496063
0
LINE
8
BLACK
6
CONTINUOUS
10
-0.0278308661417323
20
0.181483031496063
11
-0.0278496062992126
21
0.1814269291338583
0
LINE
8
BLACK
6
CONTINUOUS
10
-0.0278496062992126
20
0.1814269291338583
11
-0.0278644094488189
21
0.1812762598425197
0
LINE
8
BLACK
6
CONTINUOUS
10
-0.0278644094488189
20
0.1812762598425197
11
-0.0280455905511811
21
0.1808388976377953
0
LINE
8
BLACK
6
CONTINUOUS
10
-0.0280455905511811
20
0.1808388976377953
11
-0.0281951968503937
21
0.1803900393700787
0
LINE
8
BLACK
6
CONTINUOUS
10
-0.0281951968503937
20
0.1803900393700787
11
-0.0282647244094488
21
0.1803099212598425
0
LINE
8
BLACK
6
CONTINUOUS
10
-0.0282647244094488
20
0.1803099212598425
11
-0.0283053149606299
21
0.1802118503937008
0
LINE
8
BLACK
6
CONTINUOUS
10
-0.0283053149606299
20
0.1802118503937008
11
-0.0286400787401575
21
0.179877125984252
0
LINE
8
BLACK
6
CONTINUOUS
10
-0.0286400787401575
20
0.179877125984252
11
-0.0289500787401575
21
0.1795196456692913
0
LINE
8
BLACK
6
CONTINUOUS
10
-0.0289500787401575
20
0.1795196456692913
11
-0.0290449606299213
21
0.1794722440944882
0
LINE
8
BLACK
6
CONTINUOUS
10
-0.0290449606299213
20
0.1794722440944882
11
-0.0291199606299213
21
0.1793972047244095
0
LINE
8
BLACK
6
CONTINUOUS
10
-0.0291199606299213
20
0.1793972047244095
11
-0.0295574409448819
21
0.1792160236220472
0
LINE
8
BLACK
6
CONTINUOUS
10
-0.0295574409448819
20
0.1792160236220472
11
-0.0299805511811024
21
0.1790044488188976
0
LINE
8
BLACK
6
CONTINUOUS
10
-0.0299805511811024
20
0.1790044488188976
11
-0.0300862992125984
21
0.178996968503937
0
LINE
8
BLACK
6
CONTINUOUS
10
-0.0300862992125984
20
0.178996968503937
11
-0.0301843700787402
21
0.1789562992125984
0
LINE
8
BLACK
6
CONTINUOUS
10
-0.0301843700787402
20
0.1789562992125984
11
-0.0306579133858268
21
0.1789562992125984
0
LINE
8
BLACK
6
CONTINUOUS
10
-0.0306579133858268
20
0.1789562992125984
11
-0.0311297637795276
21
0.1789227559055118
0
LINE
8
BLACK
6
CONTINUOUS
10
-0.0311297637795276
20
0.1789227559055118
11
-0.0312772834645669
21
0.1789562992125984
0
LINE
8
BLACK
6
CONTINUOUS
10
-0.0312772834645669
20
0.1789562992125984
11
-0.0313364960629921
21
0.1789562992125984
0
LINE
8
BLACK
6
CONTINUOUS
10
-0.0313364960629921
20
0.1789562992125984
11
-0.0314085826771654
21
0.1789861811023622
0
LINE
8
BLACK
6
CONTINUOUS
10
-0.0314085826771654
20
0.1789861811023622
11
-0.0316942125984252
21
0.1790511023622047
0
LINE
8
BLACK
6
CONTINUOUS
10
-0.0316942125984252
20
0.1790511023622047
11
-0.0598156299212598
21
0.1884249212598425
0
LINE
8
BLACK
6
CONTINUOUS
10
-0.0598156299212598
20
0.1884249212598425
11
-0.0603442125984252
21
0.188660905511811
0
LINE
8
BLACK
6
CONTINUOUS
10
-0.0603442125984252
20
0.188660905511811
11
-0.0612145669291339
21
0.1894157874015748
0
LINE
8
BLACK
6
CONTINUOUS
10
-0.0612145669291339
20
0.1894157874015748
11
-0.0617297637795276
21
0.1904462204724409
0
LINE
8
BLACK
6
CONTINUOUS
10
-0.0617297637795276
20
0.1904462204724409
11
-0.0618114566929134
21
0.1915954330708661
0
LINE
8
BLACK
6
CONTINUOUS
10
-0.0618114566929134
20
0.1915954330708661
11
-0.061447125984252
21
0.1926884645669291
0
LINE
8
BLACK
6
CONTINUOUS
10
-0.061447125984252
20
0.1926884645669291
11
-0.0606922440944882
21
0.1935588188976378
0
LINE
8
BLACK
6
CONTINUOUS
10
-0.0606922440944882
20
0.1935588188976378
11
-0.059661811023622
21
0.1940740157480315
0
LINE
8
BLACK
6
CONTINUOUS
10
-0.059661811023622
20
0.1940740157480315
11
-0.0585125984251968
21
0.1941557086614173
0
LINE
8
BLACK
6
CONTINUOUS
10
-0.0585125984251968
20
0.1941557086614173
11
-0.0579481496062992
21
0.1940273622047244
0
LINE
8
BLACK
6
CONTINUOUS
10
-0.0579481496062992
20
0.1940273622047244
11
-0.0337131889763779
21
0.1859490551181102
0
LINE
8
BLACK
6
CONTINUOUS
10
-0.0337131889763779
20
0.1859490551181102
11
-0.0337131889763779
21
0.1976472047244094
0
LINE
8
BLACK
6
CONTINUOUS
10
-0.0337131889763779
20
0.1976472047244094
11
-0.0438837795275591
21
0.1976472047244094
0
LINE
8
BLACK
6
CONTINUOUS
10
-0.0438837795275591
20
0.1976472047244094
11
-0.044459842519685
21
0.197703937007874
0
LINE
8
BLACK
6
CONTINUOUS
10
-0.044459842519685
20
0.197703937007874
11
-0.0455242519685039
21
0.198144842519685
0
LINE
8
BLACK
6
CONTINUOUS
10
-0.0455242519685039
20
0.198144842519685
11
-0.0463388976377953
21
0.1989594881889764
0
LINE
8
BLACK
6
CONTINUOUS
10
-0.0463388976377953
20
0.1989594881889764
11
-0.0467798031496063
21
0.2000238976377953
0
LINE
8
BLACK
6
CONTINUOUS
10
-0.0467798031496063
20
0.2000238976377953
11
-0.0467798031496063
21
0.2011760236220472
0
LINE
8
BLACK
6
CONTINUOUS
10
-0.0467798031496063
20
0.2011760236220472
11
-0.0463388976377953
21
0.2022404330708661
0
LINE
8
BLACK
6
CONTINUOUS
10
-0.0463388976377953
20
0.2022404330708661
11
-0.0455242519685039
21
0.2030550787401575
0
LINE
8
BLACK
6
CONTINUOUS
10
-0.0455242519685039
20
0.2030550787401575
11
-0.044459842519685
21
0.2034959842519685
0
LINE
8
BLACK
6
CONTINUOUS
10
-0.044459842519685
20
0.2034959842519685
11
-0.0438837795275591
21
0.2035527165354331
0
LINE
8
BLACK
6
CONTINUOUS
10
-0.0438837795275591
20
0.2035527165354331
11
-0.0337131889763779
21
0.2035527165354331
0
LINE
8
BLACK
6
CONTINUOUS
10
-0.0337131889763779
20
0.2035527165354331
11
-0.0337131889763779
21
0.2062242519685039
0
LINE
8
BLACK
6
CONTINUOUS
10
-0.0337131889763779
20
0.2062242519685039
11
-0.0336564566929134
21
0.2068003149606299
0
LINE
8
BLACK
6
CONTINUOUS
10
-0.0336564566929134
20
0.2068003149606299
11
-0.0332155511811024
21
0.2078647244094488
0
LINE
8
BLACK
6
CONTINUOUS
10
-0.0332155511811024
20
0.2078647244094488
11
-0.032400905511811
21
0.2086793700787402
0
LINE
8
BLACK
6
CONTINUOUS
10
-0.032400905511811
20
0.2086793700787402
11
-0.0313364960629921
21
0.2091202755905512
0
LINE
8
BLACK
6
CONTINUOUS
10
-0.0313364960629921
20
0.2091202755905512
11
-0.0301843700787402
21
0.2091202755905512
0
LINE
8
BLACK
6
CONTINUOUS
10
-0.0301843700787402
20
0.2091202755905512
11
-0.0291199606299213
21
0.2086793700787402
0
LINE
8
BLACK
6
CONTINUOUS
10
-0.0245600787401575
20
0.2466155905511811
11
-0.0244620866141732
21
0.246575
0
LINE
8
BLACK
6
CONTINUOUS
10
-0.0244620866141732
20
0.246575
11
-0.0243562598425197
21
0.2465674803149606
0
LINE
8
BLACK
6
CONTINUOUS
10
-0.0243562598425197
20
0.2465674803149606
11
-0.0238156299212598
21
0.2463605905511811
0
LINE
8
BLACK
6
CONTINUOUS
10
-0.0238156299212598
20
0.2463605905511811
11
-0.0200661023622047
21
0.2444858267716535
0
LINE
8
BLACK
6
CONTINUOUS
10
-0.0200661023622047
20
0.2444858267716535
11
-0.0198182283464567
21
0.2443298031496063
0
LINE
8
BLACK
6
CONTINUOUS
10
-0.0198182283464567
20
0.2443298031496063
11
-0.0197461811023622
21
0.2442999606299213
0
LINE
8
BLACK
6
CONTINUOUS
10
-0.0197461811023622
20
0.2442999606299213
11
-0.019665157480315
21
0.2442334645669291
0
LINE
8
BLACK
6
CONTINUOUS
10
-0.019665157480315
20
0.2442334645669291
11
-0.0195762204724409
21
0.2441774803149606
0
LINE
8
BLACK
6
CONTINUOUS
10
-0.0195762204724409
20
0.2441774803149606
11
-0.0195250787401575
21
0.2441185039370079
0
LINE
8
BLACK
6
CONTINUOUS
10
-0.0195250787401575
20
0.2441185039370079
11
-0.0192987401574803
21
0.2439327559055118
0
LINE
8
BLACK
6
CONTINUOUS
10
-0.0192987401574803
20
0.2439327559055118
11
-0.017423937007874
21
0.2420579921259843
0
LINE
8
BLACK
6
CONTINUOUS
10
-0.017423937007874
20
0.2420579921259843
11
-0.017238188976378
21
0.2418316535433071
0
LINE
8
BLACK
6
CONTINUOUS
10
-0.017238188976378
20
0.2418316535433071
11
-0.0171791338582677
21
0.2417804330708661
0
LINE
8
BLACK
6
CONTINUOUS
10
-0.0171791338582677
20
0.2417804330708661
11
-0.0171231496062992
21
0.2416914960629921
0
LINE
8
BLACK
6
CONTINUOUS
10
-0.0171231496062992
20
0.2416914960629921
11
-0.0170566929133858
21
0.2416105118110236
0
LINE
8
BLACK
6
CONTINUOUS
10
-0.0170566929133858
20
0.2416105118110236
11
-0.0170268897637795
21
0.2415385826771654
0
LINE
8
BLACK
6
CONTINUOUS
10
-0.0170268897637795
20
0.2415385826771654
11
-0.0168707874015748
21
0.2412905511811023
0
LINE
8
BLACK
6
CONTINUOUS
10
-0.0168707874015748
20
0.2412905511811023
11
-0.0149960236220472
21
0.2375410236220472
0
LINE
8
BLACK
6
CONTINUOUS
10
-0.0149960236220472
20
0.2375410236220472
11
-0.0147891338582677
21
0.2370004330708661
0
LINE
8
BLACK
6
CONTINUOUS
10
-0.0147891338582677
20
0.2370004330708661
11
-0.0147816141732283
21
0.2368945669291339
0
LINE
8
BLACK
6
CONTINUOUS
10
-0.0147816141732283
20
0.2368945669291339
11
-0.0147410236220472
21
0.2367965748031496
0
LINE
8
BLACK
6
CONTINUOUS
10
-0.0147410236220472
20
0.2367965748031496
11
-0.0146842913385827
21
0.2362205118110236
0
LINE
8
BLACK
6
CONTINUOUS
10
-0.0146842913385827
20
0.2362205118110236
11
-0.0146842913385827
21
0.2212224015748031
0
LINE
8
BLACK
6
CONTINUOUS
10
-0.0146842913385827
20
0.2212224015748031
11
-0.0147410236220472
21
0.2206463385826772
0
LINE
8
BLACK
6
CONTINUOUS
10
-0.0147410236220472
20
0.2206463385826772
11
-0.0151819291338583
21
0.2195819291338583
0
LINE
8
BLACK
6
CONTINUOUS
10
-0.0151819291338583
20
0.2195819291338583
11
-0.0159965748031496
21
0.2187672834645669
0
LINE
8
BLACK
6
CONTINUOUS
10
-0.0159965748031496
20
0.2187672834645669
11
-0.0170609842519685
21
0.2183263779527559
0
LINE
8
BLACK
6
CONTINUOUS
10
-0.0170609842519685
20
0.2183263779527559
11
-0.0176370472440945
21
0.2182696456692913
0
LINE
8
BLACK
6
CONTINUOUS
10
-0.0176370472440945
20
0.2182696456692913
11
-0.057007125984252
21
0.2182696456692913
0
LINE
8
BLACK
6
CONTINUOUS
10
-0.057007125984252
20
0.2182696456692913
11
-0.057583188976378
21
0.2183263779527559
0
LINE
8
BLACK
6
CONTINUOUS
10
-0.057583188976378
20
0.2183263779527559
11
-0.0586475984251969
21
0.2187672834645669
0
LINE
8
BLACK
6
CONTINUOUS
10
-0.0586475984251969
20
0.2187672834645669
11
-0.0594622440944882
21
0.2195819291338583
0
LINE
8
BLACK
6
CONTINUOUS
10
-0.0594622440944882
20
0.2195819291338583
11
-0.0599031496062992
21
0.2206463385826772
0
LINE
8
BLACK
6
CONTINUOUS
10
-0.0599031496062992
20
0.2206463385826772
11
-0.0599598818897638
21
0.2212224015748031
0
LINE
8
BLACK
6
CONTINUOUS
10
-0.0599598818897638
20
0.2212224015748031
11
-0.0599598818897638
21
0.234345748031496
0
LINE
8
BLACK
6
CONTINUOUS
10
-0.0599598818897638
20
0.234345748031496
11
-0.0599031496062992
21
0.234921811023622
0
LINE
8
BLACK
6
CONTINUOUS
10
-0.0599031496062992
20
0.234921811023622
11
-0.0598625590551181
21
0.235019842519685
0
LINE
8
BLACK
6
CONTINUOUS
10
-0.0598625590551181
20
0.235019842519685
11
-0.0598550393700787
21
0.2351256299212598
0
LINE
8
BLACK
6
CONTINUOUS
10
-0.0598550393700787
20
0.2351256299212598
11
-0.0596481496062992
21
0.2356662598425197
0
LINE
8
BLACK
6
CONTINUOUS
10
-0.0596481496062992
20
0.2356662598425197
11
-0.0577733858267717
21
0.2394157874015748
0
LINE
8
BLACK
6
CONTINUOUS
10
-0.0577733858267717
20
0.2394157874015748
11
-0.0576173228346457
21
0.2396638188976378
0
LINE
8
BLACK
6
CONTINUOUS
10
-0.0576173228346457
20
0.2396638188976378
11
-0.0575874803149606
21
0.2397357480314961
0
LINE
8
BLACK
6
CONTINUOUS
10
-0.0575874803149606
20
0.2397357480314961
11
-0.0575210236220472
21
0.2398167322834646
0
LINE
8
BLACK
6
CONTINUOUS
10
-0.0575210236220472
20
0.2398167322834646
11
-0.0574650393700787
21
0.2399056692913386
0
LINE
8
BLACK
6
CONTINUOUS
10
-0.0574650393700787
20
0.2399056692913386
11
-0.057406062992126
21
0.2399568503937008
0
LINE
8
BLACK
6
CONTINUOUS
10
-0.057406062992126
20
0.2399568503937008
11
-0.0572202755905512
21
0.2401831889763779
0
LINE
8
BLACK
6
CONTINUOUS
10
-0.0572202755905512
20
0.2401831889763779
11
-0.0553455118110236
21
0.2420579527559055
0
LINE
8
BLACK
6
CONTINUOUS
10
-0.0553455118110236
20
0.2420579527559055
11
-0.0551191732283465
21
0.2422437401574803
0
LINE
8
BLACK
6
CONTINUOUS
10
-0.0551191732283465
20
0.2422437401574803
11
-0.0550679921259843
21
0.2423027165354331
0
LINE
8
BLACK
6
CONTINUOUS
10
-0.0550679921259843
20
0.2423027165354331
11
-0.0549790551181102
21
0.2423587007874016
0
LINE
8
BLACK
6
CONTINUOUS
10
-0.0549790551181102
20
0.2423587007874016
11
-0.0548980708661417
21
0.242425157480315
0
LINE
8
BLACK
6
CONTINUOUS
10
-0.0548980708661417
20
0.242425157480315
11
-0.0548261417322835
21
0.242455
0
LINE
8
BLACK
6
CONTINUOUS
10
-0.0548261417322835
20
0.242455
11
-0.0545781102362205
21
0.242611062992126
0
LINE
8
BLACK
6
CONTINUOUS
10
-0.0545781102362205
20
0.242611062992126
11
-0.0508285826771654
21
0.2444858267716535
0
LINE
8
BLACK
6
CONTINUOUS
10
-0.0508285826771654
20
0.2444858267716535
11
-0.0502879921259842
21
0.2446927165354331
0
LINE
8
BLACK
6
CONTINUOUS
10
-0.0502879921259842
20
0.2446927165354331
11
-0.050182125984252
21
0.2447002755905512
0
LINE
8
BLACK
6
CONTINUOUS
10
-0.050182125984252
20
0.2447002755905512
11
-0.0500841338582677
21
0.2447408267716535
0
LINE
8
BLACK
6
CONTINUOUS
10
-0.0500841338582677
20
0.2447408267716535
11
-0.0495080708661417
21
0.2447975590551181
0
LINE
8
BLACK
6
CONTINUOUS
10
-0.0495080708661417
20
0.2447975590551181
11
-0.0457585433070866
21
0.2447975590551181
0
LINE
8
BLACK
6
CONTINUOUS
10
-0.0457585433070866
20
0.2447975590551181
11
-0.0451824803149606
21
0.2447408267716535
0
LINE
8
BLACK
6
CONTINUOUS
10
-0.0451824803149606
20
0.2447408267716535
11
-0.0450844881889764
21
0.2447002362204724
0
LINE
8
BLACK
6
CONTINUOUS
10
-0.0450844881889764
20
0.2447002362204724
11
-0.0449786614173228
21
0.2446927165354331
0
LINE
8
BLACK
6
CONTINUOUS
10
-0.0449786614173228
20
0.2446927165354331
11
-0.044438031496063
21
0.2444858267716535
0
LINE
8
BLACK
6
CONTINUOUS
10
-0.044438031496063
20
0.2444858267716535
11
-0.0406885039370079
21
0.242611062992126
0
LINE
8
BLACK
6
CONTINUOUS
10
-0.0406885039370079
20
0.242611062992126
11
-0.0404405118110236
21
0.242455
0
LINE
8
BLACK
6
CONTINUOUS
10
-0.0404405118110236
20
0.242455
11
-0.0403685433070866
21
0.242425157480315
0
LINE
8
BLACK
6
CONTINUOUS
10
-0.0403685433070866
20
0.242425157480315
11
-0.0402875984251969
21
0.2423587007874016
0
LINE
8
BLACK
6
CONTINUOUS
10
-0.0402875984251969
20
0.2423587007874016
11
-0.0401986220472441
21
0.2423027165354331
0
LINE
8
BLACK
6
CONTINUOUS
10
-0.0401986220472441
20
0.2423027165354331
11
-0.0401474803149606
21
0.2422437401574803
0
LINE
8
BLACK
6
CONTINUOUS
10
-0.0401474803149606
20
0.2422437401574803
11
-0.0399211023622047
21
0.2420579527559055
0
LINE
8
BLACK
6
CONTINUOUS
10
-0.0399211023622047
20
0.2420579527559055
11
-0.0390566141732283
21
0.2411934645669291
0
LINE
8
BLACK
6
CONTINUOUS
10
-0.0390566141732283
20
0.2411934645669291
11
-0.0389499606299213
21
0.2414323228346457
0
LINE
8
BLACK
6
CONTINUOUS
10
-0.0389499606299213
20
0.2414323228346457
11
-0.0388804724409449
21
0.2415124803149606
0
LINE
8
BLACK
6
CONTINUOUS
10
-0.0388804724409449
20
0.2415124803149606
11
-0.038839842519685
21
0.2416105118110236
0
LINE
8
BLACK
6
CONTINUOUS
10
-0.038839842519685
20
0.2416105118110236
11
-0.0384726377952756
21
0.2420579527559055
0
LINE
8
BLACK
6
CONTINUOUS
10
-0.0384726377952756
20
0.2420579527559055
11
-0.036597874015748
21
0.2439327165354331
0
LINE
8
BLACK
6
CONTINUOUS
10
-0.036597874015748
20
0.2439327165354331
11
-0.0363715354330709
21
0.2441185039370079
0
LINE
8
BLACK
6
CONTINUOUS
10
-0.0363715354330709
20
0.2441185039370079
11
-0.0363203543307087
21
0.2441774803149606
0
LINE
8
BLACK
6
CONTINUOUS
10
-0.0363203543307087
20
0.2441774803149606
11
-0.0362314173228346
21
0.2442334645669291
0
LINE
8
BLACK
6
CONTINUOUS
10
-0.0362314173228346
20
0.2442334645669291
11
-0.0361504330708661
21
0.2442999212598425
0
LINE
8
BLACK
6
CONTINUOUS
10
-0.0361504330708661
20
0.2442999212598425
11
-0.0360785039370079
21
0.2443297637795276
0
LINE
8
BLACK
6
CONTINUOUS
10
-0.0360785039370079
20
0.2443297637795276
11
-0.0358304724409449
21
0.2444858267716535
0
LINE
8
BLACK
6
CONTINUOUS
10
-0.0358304724409449
20
0.2444858267716535
11
-0.0320809448818898
21
0.2463605905511811
0
LINE
8
BLACK
6
CONTINUOUS
10
-0.0320809448818898
20
0.2463605905511811
11
-0.0315403543307087
21
0.2465674803149606
0
LINE
8
BLACK
6
CONTINUOUS
10
-0.0315403543307087
20
0.2465674803149606
11
-0.0314344881889764
21
0.2465750393700787
0
LINE
8
BLACK
6
CONTINUOUS
10
-0.0314344881889764
20
0.2465750393700787
11
-0.0313364960629921
21
0.2466155905511811
0
LINE
8
BLACK
6
CONTINUOUS
10
-0.0313364960629921
20
0.2466155905511811
11
-0.0307604330708661
21
0.2466723228346457
0
LINE
8
BLACK
6
CONTINUOUS
10
-0.0307604330708661
20
0.2466723228346457
11
-0.0251361417322835
21
0.2466723228346457
0
LINE
8
BLACK
6
CONTINUOUS
10
-0.0251361417322835
20
0.2466723228346457
11
-0.0245600787401575
21
0.2466155905511811
0
LINE
8
BLACK
6
CONTINUOUS
10
-0.0515085039370079
20
0.2375433070866142
11
-0.0527056299212598
21
0.2363461811023622
0
LINE
8
BLACK
6
CONTINUOUS
10
-0.0527056299212598
20
0.2363461811023622
11
-0.0540543700787402
21
0.2336487007874016
0
LINE
8
BLACK
6
CONTINUOUS
10
-0.0540543700787402
20
0.2336487007874016
11
-0.0540543700787402
21
0.224175157480315
0
LINE
8
BLACK
6
CONTINUOUS
10
-0.0540543700787402
20
0.224175157480315
11
-0.0412122440944882
21
0.224175157480315
0
LINE
8
BLACK
6
CONTINUOUS
10
-0.0412122440944882
20
0.224175157480315
11
-0.0412122440944882
21
0.2336487007874016
0
LINE
8
BLACK
6
CONTINUOUS
10
-0.0412122440944882
20
0.2336487007874016
11
-0.0425609842519685
21
0.2363461811023622
0
LINE
8
BLACK
6
CONTINUOUS
10
-0.0425609842519685
20
0.2363461811023622
11
-0.0437581102362205
21
0.2375433070866142
0
LINE
8
BLACK
6
CONTINUOUS
10
-0.0437581102362205
20
0.2375433070866142
11
-0.0464555905511811
21
0.2388920472440945
0
LINE
8
BLACK
6
CONTINUOUS
10
-0.0464555905511811
20
0.2388920472440945
11
-0.0488110236220472
21
0.2388920472440945
0
LINE
8
BLACK
6
CONTINUOUS
10
-0.0488110236220472
20
0.2388920472440945
11
-0.0515085039370079
21
0.2375433070866142
0
LINE
8
BLACK
6
CONTINUOUS
10
-0.0327608661417323
20
0.2394180708661417
11
-0.033803937007874
21
0.2383750393700787
0
LINE
8
BLACK
6
CONTINUOUS
10
-0.033803937007874
20
0.2383750393700787
11
-0.0353067322834646
21
0.2338666141732283
0
LINE
8
BLACK
6
CONTINUOUS
10
-0.0353067322834646
20
0.2338666141732283
11
-0.0353067322834646
21
0.224175157480315
0
LINE
8
BLACK
6
CONTINUOUS
10
-0.0353067322834646
20
0.224175157480315
11
-0.0205898031496063
21
0.224175157480315
0
LINE
8
BLACK
6
CONTINUOUS
10
-0.0205898031496063
20
0.224175157480315
11
-0.0205898031496063
21
0.2355234645669291
0
LINE
8
BLACK
6
CONTINUOUS
10
-0.0205898031496063
20
0.2355234645669291
11
-0.0219385433070866
21
0.2382209448818897
0
LINE
8
BLACK
6
CONTINUOUS
10
-0.0219385433070866
20
0.2382209448818897
11
-0.0231357086614173
21
0.2394180708661417
0
LINE
8
BLACK
6
CONTINUOUS
10
-0.0231357086614173
20
0.2394180708661417
11
-0.025833188976378
21
0.240766811023622
0
LINE
8
BLACK
6
CONTINUOUS
10
-0.025833188976378
20
0.240766811023622
11
-0.0300633858267717
21
0.240766811023622
0
LINE
8
BLACK
6
CONTINUOUS
10
-0.0300633858267717
20
0.240766811023622
11
-0.0327608661417323
21
0.2394180708661417
0
LINE
8
BLACK
6
CONTINUOUS
10
-0.0309947244094488
20
0.2930438188976378
11
-0.0301800787401575
21
0.2922291732283465
0
LINE
8
BLACK
6
CONTINUOUS
10
-0.0301800787401575
20
0.2922291732283465
11
-0.0297391732283465
21
0.2911647637795275
0
LINE
8
BLACK
6
CONTINUOUS
10
-0.0297391732283465
20
0.2911647637795275
11
-0.0296824409448819
21
0.2905887007874016
0
LINE
8
BLACK
6
CONTINUOUS
10
-0.0296824409448819
20
0.2905887007874016
11
-0.0296824409448819
21
0.2605924803149606
0
LINE
8
BLACK
6
CONTINUOUS
10
-0.0296824409448819
20
0.2605924803149606
11
-0.0297391732283465
21
0.2600164173228346
0
LINE
8
BLACK
6
CONTINUOUS
10
-0.0297391732283465
20
0.2600164173228346
11
-0.0301800787401575
21
0.2589520078740157
0
LINE
8
BLACK
6
CONTINUOUS
10
-0.0301800787401575
20
0.2589520078740157
11
-0.0309947244094488
21
0.2581373622047244
0
LINE
8
BLACK
6
CONTINUOUS
10
-0.0309947244094488
20
0.2581373622047244
11
-0.0320591338582677
21
0.2576964566929134
0
LINE
8
BLACK
6
CONTINUOUS
10
-0.0320591338582677
20
0.2576964566929134
11
-0.0332112598425197
21
0.2576964566929134
0
LINE
8
BLACK
6
CONTINUOUS
10
-0.0332112598425197
20
0.2576964566929134
11
-0.0342756692913386
21
0.2581373622047244
0
LINE
8
BLACK
6
CONTINUOUS
10
-0.0342756692913386
20
0.2581373622047244
11
-0.0350903149606299
21
0.2589520078740157
0
LINE
8
BLACK
6
CONTINUOUS
10
-0.0350903149606299
20
0.2589520078740157
11
-0.0355312204724409
21
0.2600164173228346
0
LINE
8
BLACK
6
CONTINUOUS
10
-0.0355312204724409
20
0.2600164173228346
11
-0.0355879527559055
21
0.2605924803149606
0
LINE
8
BLACK
6
CONTINUOUS
10
-0.0355879527559055
20
0.2605924803149606
11
-0.0355879527559055
21
0.2905887007874016
0
LINE
8
BLACK
6
CONTINUOUS
10
-0.0355879527559055
20
0.2905887007874016
11
-0.0355312204724409
21
0.2911647637795275
0
LINE
8
BLACK
6
CONTINUOUS
10
-0.0355312204724409
20
0.2911647637795275
11
-0.0350903149606299
21
0.2922291732283465
0
LINE
8
BLACK
6
CONTINUOUS
10
-0.0350903149606299
20
0.2922291732283465
11
-0.0342756692913386
21
0.2930438188976378
0
LINE
8
BLACK
6
CONTINUOUS
10
-0.0342756692913386
20
0.2930438188976378
11
-0.0332112598425197
21
0.2934847244094488
0
LINE
8
BLACK
6
CONTINUOUS
10
-0.0332112598425197
20
0.2934847244094488
11
-0.0320591338582677
21
0.2934847244094488
0
LINE
8
BLACK
6
CONTINUOUS
10
-0.0320591338582677
20
0.2934847244094488
11
-0.0309947244094488
21
0.2930438188976378
0
LINE
8
BLACK
6
CONTINUOUS
10
-0.0208105511811024
20
0.3347295669291339
11
-0.0203696850393701
21
0.334546968503937
0
LINE
8
BLACK
6
CONTINUOUS
10
-0.0203696850393701
20
0.334546968503937
11
-0.0197461811023622
21
0.3342887007874016
0
LINE
8
BLACK
6
CONTINUOUS
10
-0.0197461811023622
20
0.3342887007874016
11
-0.0192987401574803
21
0.3339214960629921
0
LINE
8
BLACK
6
CONTINUOUS
10
-0.0192987401574803
20
0.3339214960629921
11
-0.017423937007874
21
0.3320467322834645
0
LINE
8
BLACK
6
CONTINUOUS
10
-0.017423937007874
20
0.3320467322834645
11
-0.0170566929133858
21
0.3315992519685039
0
LINE
8
BLACK
6
CONTINUOUS
10
-0.0170566929133858
20
0.3315992519685039
11
-0.0170161417322835
21
0.3315012992125984
0
LINE
8
BLACK
6
CONTINUOUS
10
-0.0170161417322835
20
0.3315012992125984
11
-0.0169465748031496
21
0.3314211023622047
0
LINE
8
BLACK
6
CONTINUOUS
10
-0.0169465748031496
20
0.3314211023622047
11
-0.0167105905511811
21
0.3308925196850394
0
LINE
8
BLACK
6
CONTINUOUS
10
-0.0167105905511811
20
0.3308925196850394
11
-0.0148358267716535
21
0.3252682677165354
0
LINE
8
BLACK
6
CONTINUOUS
10
-0.0148358267716535
20
0.3252682677165354
11
-0.014770905511811
21
0.3249826377952756
0
LINE
8
BLACK
6
CONTINUOUS
10
-0.014770905511811
20
0.3249826377952756
11
-0.0147410236220472
21
0.3249105511811023
0
LINE
8
BLACK
6
CONTINUOUS
10
-0.0147410236220472
20
0.3249105511811023
11
-0.0147307480314961
21
0.3248061023622047
0
LINE
8
BLACK
6
CONTINUOUS
10
-0.0147307480314961
20
0.3248061023622047
11
-0.0147074803149606
21
0.3247038188976378
0
LINE
8
BLACK
6
CONTINUOUS
10
-0.0147074803149606
20
0.3247038188976378
11
-0.014713031496063
21
0.3246261023622047
0
LINE
8
BLACK
6
CONTINUOUS
10
-0.014713031496063
20
0.3246261023622047
11
-0.0146842913385827
21
0.3243344881889764
0
LINE
8
BLACK
6
CONTINUOUS
10
-0.0146842913385827
20
0.3243344881889764
11
-0.0146842913385827
21
0.3205849606299213
0
LINE
8
BLACK
6
CONTINUOUS
10
-0.0146842913385827
20
0.3205849606299213
11
-0.014713031496063
21
0.3202933858267716
0
LINE
8
BLACK
6
CONTINUOUS
10
-0.014713031496063
20
0.3202933858267716
11
-0.0147074803149606
21
0.3202156299212598
0
LINE
8
BLACK
6
CONTINUOUS
10
-0.0147074803149606
20
0.3202156299212598
11
-0.0147307480314961
21
0.3201133858267716
0
LINE
8
BLACK
6
CONTINUOUS
10
-0.0147307480314961
20
0.3201133858267716
11
-0.0147410236220472
21
0.3200088976377953
0
LINE
8
BLACK
6
CONTINUOUS
10
-0.0147410236220472
20
0.3200088976377953
11
-0.014770905511811
21
0.3199368503937008
0
LINE
8
BLACK
6
CONTINUOUS
10
-0.014770905511811
20
0.3199368503937008
11
-0.0148358267716535
21
0.3196511811023622
0
LINE
8
BLACK
6
CONTINUOUS
10
-0.0148358267716535
20
0.3196511811023622
11
-0.0167105905511811
21
0.3140269291338583
0
LINE
8
BLACK
6
CONTINUOUS
10
-0.0167105905511811
20
0.3140269291338583
11
-0.0169465748031496
21
0.3134983464566929
0
LINE
8
BLACK
6
CONTINUOUS
10
-0.0169465748031496
20
0.3134983464566929
11
-0.017016062992126
21
0.3134182677165354
0
LINE
8
BLACK
6
CONTINUOUS
10
-0.017016062992126
20
0.3134182677165354
11
-0.0170566535433071
21
0.3133201968503937
0
LINE
8
BLACK
6
CONTINUOUS
10
-0.0170566535433071
20
0.3133201968503937
11
-0.0174238976377953
21
0.3128727559055118
0
LINE
8
BLACK
6
CONTINUOUS
10
-0.0174238976377953
20
0.3128727559055118
11
-0.0211734645669291
21
0.3091232283464567
0
LINE
8
BLACK
6
CONTINUOUS
10
-0.0211734645669291
20
0.3091232283464567
11
-0.021399842519685
21
0.3089374803149606
0
LINE
8
BLACK
6
CONTINUOUS
10
-0.021399842519685
20
0.3089374803149606
11
-0.0214509842519685
21
0.3088784645669291
0
LINE
8
BLACK
6
CONTINUOUS
10
-0.0214509842519685
20
0.3088784645669291
11
-0.0215399212598425
21
0.3088225196850394
0
LINE
8
BLACK
6
CONTINUOUS
10
-0.0215399212598425
20
0.3088225196850394
11
-0.0216209448818898
21
0.3087559842519685
0
LINE
8
BLACK
6
CONTINUOUS
10
-0.0216209448818898
20
0.3087559842519685
11
-0.0216929921259843
21
0.3087261811023622
0
LINE
8
BLACK
6
CONTINUOUS
10
-0.0216929921259843
20
0.3087261811023622
11
-0.0219408661417323
21
0.3085701181102362
0
LINE
8
BLACK
6
CONTINUOUS
10
-0.0219408661417323
20
0.3085701181102362
11
-0.0256903937007874
21
0.3066953543307087
0
LINE
8
BLACK
6
CONTINUOUS
10
-0.0256903937007874
20
0.3066953543307087
11
-0.0257325196850394
21
0.3066792519685039
0
LINE
8
BLACK
6
CONTINUOUS
10
-0.0257325196850394
20
0.3066792519685039
11
-0.0257496456692913
21
0.3066665354330709
0
LINE
8
BLACK
6
CONTINUOUS
10
-0.0257496456692913
20
0.3066665354330709
11
-0.0259916141732283
21
0.3065801181102362
0
LINE
8
BLACK
6
CONTINUOUS
10
-0.0259916141732283
20
0.3065801181102362
11
-0.0262310236220472
21
0.3064884645669291
0
LINE
8
BLACK
6
CONTINUOUS
10
-0.0262310236220472
20
0.3064884645669291
11
-0.0262522834645669
21
0.306486968503937
0
LINE
8
BLACK
6
CONTINUOUS
10
-0.0262522834645669
20
0.306486968503937
11
-0.0262947637795276
21
0.3064717716535433
0
LINE
8
BLACK
6
CONTINUOUS
10
-0.0262947637795276
20
0.3064717716535433
11
-0.0337938188976378
21
0.3045970078740157
0
LINE
8
BLACK
6
CONTINUOUS
10
-0.0337938188976378
20
0.3045970078740157
11
-0.0338937007874016
21
0.3045822440944882
0
LINE
8
BLACK
6
CONTINUOUS
10
-0.0338937007874016
20
0.3045822440944882
11
-0.0339338976377953
21
0.3045655905511811
0
LINE
8
BLACK
6
CONTINUOUS
10
-0.0339338976377953
20
0.3045655905511811
11
-0.0341509448818898
21
0.3045442519685039
0
LINE
8
BLACK
6
CONTINUOUS
10
-0.0341509448818898
20
0.3045442519685039
11
-0.0343664173228346
21
0.3045123622047244
0
LINE
8
BLACK
6
CONTINUOUS
10
-0.0343664173228346
20
0.3045123622047244
11
-0.0344094488188976
21
0.3045187795275591
0
LINE
8
BLACK
6
CONTINUOUS
10
-0.0344094488188976
20
0.3045187795275591
11
-0.0345099606299213
21
0.3045088582677165
0
LINE
8
BLACK
6
CONTINUOUS
10
-0.0345099606299213
20
0.3045088582677165
11
-0.0401342519685039
21
0.3045088582677165
0
LINE
8
BLACK
6
CONTINUOUS
10
-0.0401342519685039
20
0.3045088582677165
11
-0.0402348031496063
21
0.3045187795275591
0
LINE
8
BLACK
6
CONTINUOUS
10
-0.0402348031496063
20
0.3045187795275591
11
-0.0402777952755905
21
0.3045123622047244
0
LINE
8
BLACK
6
CONTINUOUS
10
-0.0402777952755905
20
0.3045123622047244
11
-0.0404933070866142
21
0.3045442519685039
0
LINE
8
BLACK
6
CONTINUOUS
10
-0.0404933070866142
20
0.3045442519685039
11
-0.0407103149606299
21
0.3045655905511811
0
LINE
8
BLACK
6
CONTINUOUS
10
-0.0407103149606299
20
0.3045655905511811
11
-0.0407505511811024
21
0.3045822440944882
0
LINE
8
BLACK
6
CONTINUOUS
10
-0.0407505511811024
20
0.3045822440944882
11
-0.0408503937007874
21
0.3045970078740157
0
LINE
8
BLACK
6
CONTINUOUS
10
-0.0408503937007874
20
0.3045970078740157
11
-0.0483494488188976
21
0.3064717716535433
0
LINE
8
BLACK
6
CONTINUOUS
10
-0.0483494488188976
20
0.3064717716535433
11
-0.048391968503937
21
0.306486968503937
0
LINE
8
BLACK
6
CONTINUOUS
10
-0.048391968503937
20
0.306486968503937
11
-0.0484132283464567
21
0.3064884645669291
0
LINE
8
BLACK
6
CONTINUOUS
10
-0.0484132283464567
20
0.3064884645669291
11
-0.0486529921259842
21
0.3065802362204724
0
LINE
8
BLACK
6
CONTINUOUS
10
-0.0486529921259842
20
0.3065802362204724
11
-0.0488945669291339
21
0.3066665354330709
0
LINE
8
BLACK
6
CONTINUOUS
10
-0.0488945669291339
20
0.3066665354330709
11
-0.0489117322834646
21
0.3066792519685039
0
LINE
8
BLACK
6
CONTINUOUS
10
-0.0489117322834646
20
0.3066792519685039
11
-0.0489538188976378
21
0.3066953543307087
0
LINE
8
BLACK
6
CONTINUOUS
10
-0.0489538188976378
20
0.3066953543307087
11
-0.0527033464566929
21
0.3085701181102362
0
LINE
8
BLACK
6
CONTINUOUS
10
-0.0527033464566929
20
0.3085701181102362
11
-0.0529511811023622
21
0.3087261417322835
0
LINE
8
BLACK
6
CONTINUOUS
10
-0.0529511811023622
20
0.3087261417322835
11
-0.0530233070866142
21
0.3087559842519685
0
LINE
8
BLACK
6
CONTINUOUS
10
-0.0530233070866142
20
0.3087559842519685
11
-0.0531044881889764
21
0.3088225984251968
0
LINE
8
BLACK
6
CONTINUOUS
10
-0.0531044881889764
20
0.3088225984251968
11
-0.0531932283464567
21
0.3088784645669291
0
LINE
8
BLACK
6
CONTINUOUS
10
-0.0531932283464567
20
0.3088784645669291
11
-0.0532443700787402
21
0.3089374015748031
0
LINE
8
BLACK
6
CONTINUOUS
10
-0.0532443700787402
20
0.3089374015748031
11
-0.0534707480314961
21
0.3091232283464567
0
LINE
8
BLACK
6
CONTINUOUS
10
-0.0534707480314961
20
0.3091232283464567
11
-0.0572202755905512
21
0.3128727559055118
0
LINE
8
BLACK
6
CONTINUOUS
10
-0.0572202755905512
20
0.3128727559055118
11
-0.0575874803149606
21
0.3133201968503937
0
LINE
8
BLACK
6
CONTINUOUS
10
-0.0575874803149606
20
0.3133201968503937
11
-0.0576281102362205
21
0.3134182677165354
0
LINE
8
BLACK
6
CONTINUOUS
10
-0.0576281102362205
20
0.3134182677165354
11
-0.0576975984251968
21
0.3134983858267716
0
LINE
8
BLACK
6
CONTINUOUS
10
-0.0576975984251968
20
0.3134983858267716
11
-0.0579335826771654
21
0.3140269291338583
0
LINE
8
BLACK
6
CONTINUOUS
10
-0.0579335826771654
20
0.3140269291338583
11
-0.0598083464566929
21
0.3196512204724409
0
LINE
8
BLACK
6
CONTINUOUS
10
-0.0598083464566929
20
0.3196512204724409
11
-0.0598733070866142
21
0.319936811023622
0
LINE
8
BLACK
6
CONTINUOUS
10
-0.0598733070866142
20
0.319936811023622
11
-0.0599031496062992
21
0.3200088976377953
0
LINE
8
BLACK
6
CONTINUOUS
10
-0.0599031496062992
20
0.3200088976377953
11
-0.0599134645669291
21
0.3201134251968504
0
LINE
8
BLACK
6
CONTINUOUS
10
-0.0599134645669291
20
0.3201134251968504
11
-0.0599366929133858
21
0.3202156692913386
0
LINE
8
BLACK
6
CONTINUOUS
10
-0.0599366929133858
20
0.3202156692913386
11
-0.0599311811023622
21
0.3202934251968504
0
LINE
8
BLACK
6
CONTINUOUS
10
-0.0599311811023622
20
0.3202934251968504
11
-0.0599598818897638
21
0.3205849606299213
0
LINE
8
BLACK
6
CONTINUOUS
10
-0.0599598818897638
20
0.3205849606299213
11
-0.0599598818897638
21
0.3262092519685039
0
LINE
8
BLACK
6
CONTINUOUS
10
-0.0599598818897638
20
0.3262092519685039
11
-0.0599031496062992
21
0.3267853149606299
0
LINE
8
BLACK
6
CONTINUOUS
10
-0.0599031496062992
20
0.3267853149606299
11
-0.0598625590551181
21
0.3268833464566929
0
LINE
8
BLACK
6
CONTINUOUS
10
-0.0598625590551181
20
0.3268833464566929
11
-0.0598550393700787
21
0.3269891338582677
0
LINE
8
BLACK
6
CONTINUOUS
10
-0.0598550393700787
20
0.3269891338582677
11
-0.0596481496062992
21
0.3275297637795275
0
LINE
8
BLACK
6
CONTINUOUS
10
-0.0596481496062992
20
0.3275297637795275
11
-0.0577733858267717
21
0.3312792913385827
0
LINE
8
BLACK
6
CONTINUOUS
10
-0.0577733858267717
20
0.3312792913385827
11
-0.0574650393700787
21
0.3317691732283464
0
LINE
8
BLACK
6
CONTINUOUS
10
-0.0574650393700787
20
0.3317691732283464
11
-0.0565946456692913
21
0.3325240157480315
0
LINE
8
BLACK
6
CONTINUOUS
10
-0.0565946456692913
20
0.3325240157480315
11
-0.0555016929133858
21
0.3328883464566929
0
LINE
8
BLACK
6
CONTINUOUS
10
-0.0555016929133858
20
0.3328883464566929
11
-0.0543524803149606
21
0.3328066929133858
0
LINE
8
BLACK
6
CONTINUOUS
10
-0.0543524803149606
20
0.3328066929133858
11
-0.053321968503937
21
0.3322914173228346
0
LINE
8
BLACK
6
CONTINUOUS
10
-0.053321968503937
20
0.3322914173228346
11
-0.052567125984252
21
0.331421062992126
0
LINE
8
BLACK
6
CONTINUOUS
10
-0.052567125984252
20
0.331421062992126
11
-0.0522027952755905
21
0.3303280708661417
0
LINE
8
BLACK
6
CONTINUOUS
10
-0.0522027952755905
20
0.3303280708661417
11
-0.0522844488188976
21
0.3291788582677165
0
LINE
8
BLACK
6
CONTINUOUS
10
-0.0522844488188976
20
0.3291788582677165
11
-0.0524913385826772
21
0.3286382677165354
0
LINE
8
BLACK
6
CONTINUOUS
10
-0.0524913385826772
20
0.3286382677165354
11
-0.0540543700787402
21
0.3255122047244094
0
LINE
8
BLACK
6
CONTINUOUS
10
-0.0540543700787402
20
0.3255122047244094
11
-0.0540543700787402
21
0.3210641338582677
0
LINE
8
BLACK
6
CONTINUOUS
10
-0.0540543700787402
20
0.3210641338582677
11
-0.0525515748031496
21
0.3165557086614173
0
LINE
8
BLACK
6
CONTINUOUS
10
-0.0525515748031496
20
0.3165557086614173
11
-0.0496337401574803
21
0.313637874015748
0
LINE
8
BLACK
6
CONTINUOUS
10
-0.0496337401574803
20
0.313637874015748
11
-0.0466027559055118
21
0.3121224015748031
0
LINE
8
BLACK
6
CONTINUOUS
10
-0.0466027559055118
20
0.3121224015748031
11
-0.0397707086614173
21
0.3104143700787402
0
LINE
8
BLACK
6
CONTINUOUS
10
-0.0397707086614173
20
0.3104143700787402
11
-0.0348735039370079
21
0.3104143700787402
0
LINE
8
BLACK
6
CONTINUOUS
10
-0.0348735039370079
20
0.3104143700787402
11
-0.0280414566929134
21
0.3121224015748031
0
LINE
8
BLACK
6
CONTINUOUS
10
-0.0280414566929134
20
0.3121224015748031
11
-0.0250104724409449
21
0.3136379133858267
0
LINE
8
BLACK
6
CONTINUOUS
10
-0.0250104724409449
20
0.3136379133858267
11
-0.0220925984251969
21
0.3165557480314961
0
LINE
8
BLACK
6
CONTINUOUS
10
-0.0220925984251969
20
0.3165557480314961
11
-0.0205898031496063
21
0.321064094488189
0
LINE
8
BLACK
6
CONTINUOUS
10
-0.0205898031496063
20
0.321064094488189
11
-0.0205898031496063
21
0.3238553543307087
0
LINE
8
BLACK
6
CONTINUOUS
10
-0.0205898031496063
20
0.3238553543307087
11
-0.0220925984251969
21
0.3283637401574803
0
LINE
8
BLACK
6
CONTINUOUS
10
-0.0220925984251969
20
0.3283637401574803
11
-0.0226096850393701
21
0.3288807874015748
0
LINE
8
BLACK
6
CONTINUOUS
10
-0.0226096850393701
20
0.3288807874015748
11
-0.0315572047244094
21
0.3288807874015748
0
LINE
8
BLACK
6
CONTINUOUS
10
-0.0315572047244094
20
0.3288807874015748
11
-0.0315572047244094
21
0.3243344881889764
0
LINE
8
BLACK
6
CONTINUOUS
10
-0.0315572047244094
20
0.3243344881889764
11
-0.031613937007874
21
0.3237584251968504
0
LINE
8
BLACK
6
CONTINUOUS
10
-0.031613937007874
20
0.3237584251968504
11
-0.032054842519685
21
0.3226940157480315
0
LINE
8
BLACK
6
CONTINUOUS
10
-0.032054842519685
20
0.3226940157480315
11
-0.0328694881889764
21
0.3218793700787401
0
LINE
8
BLACK
6
CONTINUOUS
10
-0.0328694881889764
20
0.3218793700787401
11
-0.0339338976377953
21
0.3214384645669291
0
LINE
8
BLACK
6
CONTINUOUS
10
-0.0339338976377953
20
0.3214384645669291
11
-0.0350860236220472
21
0.3214384645669291
0
LINE
8
BLACK
6
CONTINUOUS
10
-0.0350860236220472
20
0.3214384645669291
11
-0.0361504330708661
21
0.3218793700787401
0
LINE
8
BLACK
6
CONTINUOUS
10
-0.0361504330708661
20
0.3218793700787401
11
-0.0369650787401575
21
0.3226940157480315
0
LINE
8
BLACK
6
CONTINUOUS
10
-0.0369650787401575
20
0.3226940157480315
11
-0.0374059842519685
21
0.3237584251968504
0
LINE
8
BLACK
6
CONTINUOUS
10
-0.0374059842519685
20
0.3237584251968504
11
-0.0374627165354331
21
0.3243344881889764
0
LINE
8
BLACK
6
CONTINUOUS
10
-0.0374627165354331
20
0.3243344881889764
11
-0.0374627165354331
21
0.3318335433070866
0
LINE
8
BLACK
6
CONTINUOUS
10
-0.0374627165354331
20
0.3318335433070866
11
-0.0374059842519685
21
0.3324096062992126
0
LINE
8
BLACK
6
CONTINUOUS
10
-0.0374059842519685
20
0.3324096062992126
11
-0.0369650787401575
21
0.3334740157480315
0
LINE
8
BLACK
6
CONTINUOUS
10
-0.0369650787401575
20
0.3334740157480315
11
-0.0361504330708661
21
0.3342886614173228
0
LINE
8
BLACK
6
CONTINUOUS
10
-0.0361504330708661
20
0.3342886614173228
11
-0.0350860236220472
21
0.3347295669291339
0
LINE
8
BLACK
6
CONTINUOUS
10
-0.0350860236220472
20
0.3347295669291339
11
-0.0345099606299213
21
0.3347862992125984
0
LINE
8
BLACK
6
CONTINUOUS
10
-0.0345099606299213
20
0.3347862992125984
11
-0.0213866141732283
21
0.3347862992125984
0
LINE
8
BLACK
6
CONTINUOUS
10
-0.0213866141732283
20
0.3347862992125984
11
-0.0208105511811024
21
0.3347295669291339
0
LINE
8
BLACK
6
CONTINUOUS
10
-0.0170609842519685
20
0.3740996456692913
11
-0.0159965748031496
21
0.3736587401574803
0
LINE
8
BLACK
6
CONTINUOUS
10
-0.0159965748031496
20
0.3736587401574803
11
-0.0151819291338583
21
0.3728440944881889
0
LINE
8
BLACK
6
CONTINUOUS
10
-0.0151819291338583
20
0.3728440944881889
11
-0.0147410236220472
21
0.3717796850393701
0
LINE
8
BLACK
6
CONTINUOUS
10
-0.0147410236220472
20
0.3717796850393701
11
-0.0147410236220472
21
0.3706275590551181
0
LINE
8
BLACK
6
CONTINUOUS
10
-0.0147410236220472
20
0.3706275590551181
11
-0.0151819291338583
21
0.3695631496062992
0
LINE
8
BLACK
6
CONTINUOUS
10
-0.0151819291338583
20
0.3695631496062992
11
-0.0159965748031496
21
0.3687485039370079
0
LINE
8
BLACK
6
CONTINUOUS
10
-0.0159965748031496
20
0.3687485039370079
11
-0.0170609842519685
21
0.3683075984251968
0
LINE
8
BLACK
6
CONTINUOUS
10
-0.0170609842519685
20
0.3683075984251968
11
-0.0176370472440945
21
0.3682508661417323
0
LINE
8
BLACK
6
CONTINUOUS
10
-0.0176370472440945
20
0.3682508661417323
11
-0.0353067322834646
21
0.3682508661417323
0
LINE
8
BLACK
6
CONTINUOUS
10
-0.0353067322834646
20
0.3682508661417323
11
-0.0353067322834646
21
0.3516592125984252
0
LINE
8
BLACK
6
CONTINUOUS
10
-0.0353067322834646
20
0.3516592125984252
11
-0.0176370472440945
21
0.3516592125984252
0
LINE
8
BLACK
6
CONTINUOUS
10
-0.0176370472440945
20
0.3516592125984252
11
-0.0170609842519685
21
0.3516024803149606
0
LINE
8
BLACK
6
CONTINUOUS
10
-0.0170609842519685
20
0.3516024803149606
11
-0.0159965748031496
21
0.3511615748031496
0
LINE
8
BLACK
6
CONTINUOUS
10
-0.0159965748031496
20
0.3511615748031496
11
-0.0151819291338583
21
0.3503469291338583
0
LINE
8
BLACK
6
CONTINUOUS
10
-0.0151819291338583
20
0.3503469291338583
11
-0.0147410236220472
21
0.3492825196850394
0
LINE
8
BLACK
6
CONTINUOUS
10
-0.0147410236220472
20
0.3492825196850394
11
-0.0147410236220472
21
0.3481303937007874
0
LINE
8
BLACK
6
CONTINUOUS
10
-0.0147410236220472
20
0.3481303937007874
11
-0.0151819291338583
21
0.3470659842519685
0
LINE
8
BLACK
6
CONTINUOUS
10
-0.0151819291338583
20
0.3470659842519685
11
-0.0159965748031496
21
0.3462513385826771
0
LINE
8
BLACK
6
CONTINUOUS
10
-0.0159965748031496
20
0.3462513385826771
11
-0.0170609842519685
21
0.3458104330708661
0
LINE
8
BLACK
6
CONTINUOUS
10
-0.0170609842519685
20
0.3458104330708661
11
-0.0176370472440945
21
0.3457537007874016
0
LINE
8
BLACK
6
CONTINUOUS
10
-0.0176370472440945
20
0.3457537007874016
11
-0.057007125984252
21
0.3457537007874016
0
LINE
8
BLACK
6
CONTINUOUS
10
-0.057007125984252
20
0.3457537007874016
11
-0.057583188976378
21
0.3458104330708661
0
LINE
8
BLACK
6
CONTINUOUS
10
-0.057583188976378
20
0.3458104330708661
11
-0.0586475984251969
21
0.3462513385826771
0
LINE
8
BLACK
6
CONTINUOUS
10
-0.0586475984251969
20
0.3462513385826771
11
-0.0594622440944882
21
0.3470659842519685
0
LINE
8
BLACK
6
CONTINUOUS
10
-0.0594622440944882
20
0.3470659842519685
11
-0.0599031496062992
21
0.3481303937007874
0
LINE
8
BLACK
6
CONTINUOUS
10
-0.0599031496062992
20
0.3481303937007874
11
-0.0599031496062992
21
0.3492825196850394
0
LINE
8
BLACK
6
CONTINUOUS
10
-0.0599031496062992
20
0.3492825196850394
11
-0.0594622440944882
21
0.3503469291338583
0
LINE
8
BLACK
6
CONTINUOUS
10
-0.0594622440944882
20
0.3503469291338583
11
-0.0586475984251969
21
0.3511615748031496
0
LINE
8
BLACK
6
CONTINUOUS
10
-0.0586475984251969
20
0.3511615748031496
11
-0.057583188976378
21
0.3516024803149606
0
LINE
8
BLACK
6
CONTINUOUS
10
-0.057583188976378
20
0.3516024803149606
11
-0.057007125984252
21
0.3516592125984252
0
LINE
8
BLACK
6
CONTINUOUS
10
-0.057007125984252
20
0.3516592125984252
11
-0.0412122440944882
21
0.3516592125984252
0
LINE
8
BLACK
6
CONTINUOUS
10
-0.0412122440944882
20
0.3516592125984252
11
-0.0412122440944882
21
0.3682508661417323
0
LINE
8
BLACK
6
CONTINUOUS
10
-0.0412122440944882
20
0.3682508661417323
11
-0.057007125984252
21
0.3682508661417323
0
LINE
8
BLACK
6
CONTINUOUS
10
-0.057007125984252
20
0.3682508661417323
11
-0.057583188976378
21
0.3683075984251968
0
LINE
8
BLACK
6
CONTINUOUS
10
-0.057583188976378
20
0.3683075984251968
11
-0.0586475984251969
21
0.3687485039370079
0
LINE
8
BLACK
6
CONTINUOUS
10
-0.0586475984251969
20
0.3687485039370079
11
-0.0594622440944882
21
0.3695631496062992
0
LINE
8
BLACK
6
CONTINUOUS
10
-0.0594622440944882
20
0.3695631496062992
11
-0.0599031496062992
21
0.3706275590551181
0
LINE
8
BLACK
6
CONTINUOUS
10
-0.0599031496062992
20
0.3706275590551181
11
-0.0599031496062992
21
0.3717796850393701
0
LINE
8
BLACK
6
CONTINUOUS
10
-0.0599031496062992
20
0.3717796850393701
11
-0.0594622440944882
21
0.3728440944881889
0
LINE
8
BLACK
6
CONTINUOUS
10
-0.0594622440944882
20
0.3728440944881889
11
-0.0586475984251969
21
0.3736587401574803
0
LINE
8
BLACK
6
CONTINUOUS
10
-0.0586475984251969
20
0.3736587401574803
11
-0.057583188976378
21
0.3740996456692913
0
LINE
8
BLACK
6
CONTINUOUS
10
-0.057583188976378
20
0.3740996456692913
11
-0.057007125984252
21
0.3741563779527559
0
LINE
8
BLACK
6
CONTINUOUS
10
-0.057007125984252
20
0.3741563779527559
11
-0.0176370472440945
21
0.3741563779527559
0
LINE
8
BLACK
6
CONTINUOUS
10
-0.0176370472440945
20
0.3741563779527559
11
-0.0170609842519685
21
0.3740996456692913
0
LINE
8
BLACK
6
CONTINUOUS
10
-0.0245600787401575
20
0.4134697244094488
11
-0.0244620866141732
21
0.4134291338582677
0
LINE
8
BLACK
6
CONTINUOUS
10
-0.0244620866141732
20
0.4134291338582677
11
-0.0243562598425197
21
0.4134216141732283
0
LINE
8
BLACK
6
CONTINUOUS
10
-0.0243562598425197
20
0.4134216141732283
11
-0.0238156299212598
21
0.4132147244094488
0
LINE
8
BLACK
6
CONTINUOUS
10
-0.0238156299212598
20
0.4132147244094488
11
-0.0200661023622047
21
0.4113399606299212
0
LINE
8
BLACK
6
CONTINUOUS
10
-0.0200661023622047
20
0.4113399606299212
11
-0.0198182283464567
21
0.411183937007874
0
LINE
8
BLACK
6
CONTINUOUS
10
-0.0198182283464567
20
0.411183937007874
11
-0.0197461811023622
21
0.411154094488189
0
LINE
8
BLACK
6
CONTINUOUS
10
-0.0197461811023622
20
0.411154094488189
11
-0.019665157480315
21
0.4110875984251968
0
LINE
8
BLACK
6
CONTINUOUS
10
-0.019665157480315
20
0.4110875984251968
11
-0.0195762204724409
21
0.4110316141732283
0
LINE
8
BLACK
6
CONTINUOUS
10
-0.0195762204724409
20
0.4110316141732283
11
-0.0195250787401575
21
0.4109726377952756
0
LINE
8
BLACK
6
CONTINUOUS
10
-0.0195250787401575
20
0.4109726377952756
11
-0.0192987401574803
21
0.4107868897637795
0
LINE
8
BLACK
6
CONTINUOUS
10
-0.0192987401574803
20
0.4107868897637795
11
-0.017423937007874
21
0.408912125984252
0
LINE
8
BLACK
6
CONTINUOUS
10
-0.017423937007874
20
0.408912125984252
11
-0.017238188976378
21
0.4086857874015748
0
LINE
8
BLACK
6
CONTINUOUS
10
-0.017238188976378
20
0.4086857874015748
11
-0.0171791338582677
21
0.4086345669291339
0
LINE
8
BLACK
6
CONTINUOUS
10
-0.0171791338582677
20
0.4086345669291339
11
-0.0171231496062992
21
0.4085456299212598
0
LINE
8
BLACK
6
CONTINUOUS
10
-0.0171231496062992
20
0.4085456299212598
11
-0.0170566929133858
21
0.4084646456692913
0
LINE
8
BLACK
6
CONTINUOUS
10
-0.0170566929133858
20
0.4084646456692913
11
-0.0170268897637795
21
0.4083927165354331
0
LINE
8
BLACK
6
CONTINUOUS
10
-0.0170268897637795
20
0.4083927165354331
11
-0.0168707874015748
21
0.4081446850393701
0
LINE
8
BLACK
6
CONTINUOUS
10
-0.0168707874015748
20
0.4081446850393701
11
-0.0149960236220472
21
0.404395157480315
0
LINE
8
BLACK
6
CONTINUOUS
10
-0.0149960236220472
20
0.404395157480315
11
-0.0147891338582677
21
0.4038545669291339
0
LINE
8
BLACK
6
CONTINUOUS
10
-0.0147891338582677
20
0.4038545669291339
11
-0.0147816141732283
21
0.4037487007874015
0
LINE
8
BLACK
6
CONTINUOUS
10
-0.0147816141732283
20
0.4037487007874015
11
-0.0147410236220472
21
0.4036507086614173
0
LINE
8
BLACK
6
CONTINUOUS
10
-0.0147410236220472
20
0.4036507086614173
11
-0.0146842913385827
21
0.4030746456692914
0
LINE
8
BLACK
6
CONTINUOUS
10
-0.0146842913385827
20
0.4030746456692914
11
-0.0146842913385827
21
0.3937008267716535
0
LINE
8
BLACK
6
CONTINUOUS
10
-0.0146842913385827
20
0.3937008267716535
11
-0.014713031496063
21
0.3934092519685039
0
LINE
8
BLACK
6
CONTINUOUS
10
-0.014713031496063
20
0.3934092519685039
11
-0.0147074803149606
21
0.3933314960629921
0
LINE
8
BLACK
6
CONTINUOUS
10
-0.0147074803149606
20
0.3933314960629921
11
-0.0147307480314961
21
0.3932292519685039
0
LINE
8
BLACK
6
CONTINUOUS
10
-0.0147307480314961
20
0.3932292519685039
11
-0.0147410236220472
21
0.3931247637795275
0
LINE
8
BLACK
6
CONTINUOUS
10
-0.0147410236220472
20
0.3931247637795275
11
-0.014770905511811
21
0.3930527165354331
0
LINE
8
BLACK
6
CONTINUOUS
10
-0.014770905511811
20
0.3930527165354331
11
-0.0148358267716535
21
0.3927670472440945
0
LINE
8
BLACK
6
CONTINUOUS
10
-0.0148358267716535
20
0.3927670472440945
11
-0.0167105905511811
21
0.3871427952755905
0
LINE
8
BLACK
6
CONTINUOUS
10
-0.0167105905511811
20
0.3871427952755905
11
-0.0169465748031496
21
0.3866142125984252
0
LINE
8
BLACK
6
CONTINUOUS
10
-0.0169465748031496
20
0.3866142125984252
11
-0.0177014566929134
21
0.3857438582677165
0
LINE
8
BLACK
6
CONTINUOUS
10
-0.0177014566929134
20
0.3857438582677165
11
-0.0187318897637795
21
0.3852286614173228
0
LINE
8
BLACK
6
CONTINUOUS
10
-0.0187318897637795
20
0.3852286614173228
11
-0.0198811023622047
21
0.385146968503937
0
LINE
8
BLACK
6
CONTINUOUS
10
-0.0198811023622047
20
0.385146968503937
11
-0.0209741338582677
21
0.3855112992125984
0
LINE
8
BLACK
6
CONTINUOUS
10
-0.0209741338582677
20
0.3855112992125984
11
-0.0218444881889764
21
0.3862661811023622
0
LINE
8
BLACK
6
CONTINUOUS
10
-0.0218444881889764
20
0.3862661811023622
11
-0.0223596850393701
21
0.3872966141732284
0
LINE
8
BLACK
6
CONTINUOUS
10
-0.0223596850393701
20
0.3872966141732284
11
-0.0224413779527559
21
0.3884458267716535
0
LINE
8
BLACK
6
CONTINUOUS
10
-0.0224413779527559
20
0.3884458267716535
11
-0.022313031496063
21
0.3890102755905512
0
LINE
8
BLACK
6
CONTINUOUS
10
-0.022313031496063
20
0.3890102755905512
11
-0.0205898031496063
21
0.3941799606299213
0
LINE
8
BLACK
6
CONTINUOUS
10
-0.0205898031496063
20
0.3941799606299213
11
-0.0205898031496063
21
0.4023775984251968
0
LINE
8
BLACK
6
CONTINUOUS
10
-0.0205898031496063
20
0.4023775984251968
11
-0.0219385433070866
21
0.4050750787401575
0
LINE
8
BLACK
6
CONTINUOUS
10
-0.0219385433070866
20
0.4050750787401575
11
-0.0231357086614173
21
0.4062722047244094
0
LINE
8
BLACK
6
CONTINUOUS
10
-0.0231357086614173
20
0.4062722047244094
11
-0.025833188976378
21
0.4076209448818898
0
LINE
8
BLACK
6
CONTINUOUS
10
-0.025833188976378
20
0.4076209448818898
11
-0.0281886220472441
21
0.4076209448818898
0
LINE
8
BLACK
6
CONTINUOUS
10
-0.0281886220472441
20
0.4076209448818898
11
-0.0308861023622047
21
0.4062722047244094
0
LINE
8
BLACK
6
CONTINUOUS
10
-0.0308861023622047
20
0.4062722047244094
11
-0.0320832283464567
21
0.4050750787401575
0
LINE
8
BLACK
6
CONTINUOUS
10
-0.0320832283464567
20
0.4050750787401575
11
-0.0335987401574803
21
0.402044094488189
0
LINE
8
BLACK
6
CONTINUOUS
10
-0.0335987401574803
20
0.402044094488189
11
-0.0353948818897638
21
0.3948594488188976
0
LINE
8
BLACK
6
CONTINUOUS
10
-0.0353948818897638
20
0.3948594488188976
11
-0.0354100787401575
21
0.394816968503937
0
LINE
8
BLACK
6
CONTINUOUS
10
-0.0354100787401575
20
0.394816968503937
11
-0.0354115748031496
21
0.3947956692913386
0
LINE
8
BLACK
6
CONTINUOUS
10
-0.0354115748031496
20
0.3947956692913386
11
-0.0355033464566929
21
0.3945559448818898
0
LINE
8
BLACK
6
CONTINUOUS
10
-0.0355033464566929
20
0.3945559448818898
11
-0.0355896456692913
21
0.3943143307086614
0
LINE
8
BLACK
6
CONTINUOUS
10
-0.0355896456692913
20
0.3943143307086614
11
-0.0356023622047244
21
0.3942972047244094
0
LINE
8
BLACK
6
CONTINUOUS
10
-0.0356023622047244
20
0.3942972047244094
11
-0.0356184645669291
21
0.3942550787401575
0
LINE
8
BLACK
6
CONTINUOUS
10
-0.0356184645669291
20
0.3942550787401575
11
-0.0374932283464567
21
0.3905055511811024
0
LINE
8
BLACK
6
CONTINUOUS
10
-0.0374932283464567
20
0.3905055511811024
11
-0.0376493307086614
21
0.3902575590551181
0
LINE
8
BLACK
6
CONTINUOUS
10
-0.0376493307086614
20
0.3902575590551181
11
-0.0376791338582677
21
0.3901855905511811
0
LINE
8
BLACK
6
CONTINUOUS
10
-0.0376791338582677
20
0.3901855905511811
11
-0.0377456299212598
21
0.3901046456692913
0
LINE
8
BLACK
6
CONTINUOUS
10
-0.0377456299212598
20
0.3901046456692913
11
-0.0378015748031496
21
0.3900156692913386
0
LINE
8
BLACK
6
CONTINUOUS
10
-0.0378015748031496
20
0.3900156692913386
11
-0.0378605905511811
21
0.3899645275590551
0
LINE
8
BLACK
6
CONTINUOUS
10
-0.0378605905511811
20
0.3899645275590551
11
-0.0380463385826772
21
0.3897381496062992
0
LINE
8
BLACK
6
CONTINUOUS
10
-0.0380463385826772
20
0.3897381496062992
11
-0.0399211023622047
21
0.3878633858267717
0
LINE
8
BLACK
6
CONTINUOUS
10
-0.0399211023622047
20
0.3878633858267717
11
-0.0401474803149606
21
0.3876776377952756
0
LINE
8
BLACK
6
CONTINUOUS
10
-0.0401474803149606
20
0.3876776377952756
11
-0.0401986220472441
21
0.3876186220472441
0
LINE
8
BLACK
6
CONTINUOUS
10
-0.0401986220472441
20
0.3876186220472441
11
-0.0402875984251969
21
0.3875626771653543
0
LINE
8
BLACK
6
CONTINUOUS
10
-0.0402875984251969
20
0.3875626771653543
11
-0.0403685433070866
21
0.3874961811023622
0
LINE
8
BLACK
6
CONTINUOUS
10
-0.0403685433070866
20
0.3874961811023622
11
-0.0404405118110236
21
0.3874663779527559
0
LINE
8
BLACK
6
CONTINUOUS
10
-0.0404405118110236
20
0.3874663779527559
11
-0.0406885039370079
21
0.3873102755905511
0
LINE
8
BLACK
6
CONTINUOUS
10
-0.0406885039370079
20
0.3873102755905511
11
-0.044438031496063
21
0.3854355118110236
0
LINE
8
BLACK
6
CONTINUOUS
10
-0.044438031496063
20
0.3854355118110236
11
-0.0449786614173228
21
0.3852286220472441
0
LINE
8
BLACK
6
CONTINUOUS
10
-0.0449786614173228
20
0.3852286220472441
11
-0.0450844881889764
21
0.3852211417322834
0
LINE
8
BLACK
6
CONTINUOUS
10
-0.0450844881889764
20
0.3852211417322834
11
-0.0451824803149606
21
0.3851805118110236
0
LINE
8
BLACK
6
CONTINUOUS
10
-0.0451824803149606
20
0.3851805118110236
11
-0.0457585433070866
21
0.3851237795275591
0
LINE
8
BLACK
6
CONTINUOUS
10
-0.0457585433070866
20
0.3851237795275591
11
-0.0495080708661417
21
0.3851237795275591
0
LINE
8
BLACK
6
CONTINUOUS
10
-0.0495080708661417
20
0.3851237795275591
11
-0.0500841338582677
21
0.3851805118110236
0
LINE
8
BLACK
6
CONTINUOUS
10
-0.0500841338582677
20
0.3851805118110236
11
-0.050182125984252
21
0.3852211023622047
0
LINE
8
BLACK
6
CONTINUOUS
10
-0.050182125984252
20
0.3852211023622047
11
-0.0502879921259842
21
0.3852286220472441
0
LINE
8
BLACK
6
CONTINUOUS
10
-0.0502879921259842
20
0.3852286220472441
11
-0.0508285826771654
21
0.3854355118110236
0
LINE
8
BLACK
6
CONTINUOUS
10
-0.0508285826771654
20
0.3854355118110236
11
-0.0545781102362205
21
0.3873102755905511
0
LINE
8
BLACK
6
CONTINUOUS
10
-0.0545781102362205
20
0.3873102755905511
11
-0.0548261417322835
21
0.3874663779527559
0
LINE
8
BLACK
6
CONTINUOUS
10
-0.0548261417322835
20
0.3874663779527559
11
-0.0548980708661417
21
0.3874961811023622
0
LINE
8
BLACK
6
CONTINUOUS
10
-0.0548980708661417
20
0.3874961811023622
11
-0.0549790551181102
21
0.3875626771653543
0
LINE
8
BLACK
6
CONTINUOUS
10
-0.0549790551181102
20
0.3875626771653543
11
-0.0550679921259843
21
0.3876186220472441
0
LINE
8
BLACK
6
CONTINUOUS
10
-0.0550679921259843
20
0.3876186220472441
11
-0.0551191732283465
21
0.3876776377952756
0
LINE
8
BLACK
6
CONTINUOUS
10
-0.0551191732283465
20
0.3876776377952756
11
-0.0553455118110236
21
0.3878633858267717
0
LINE
8
BLACK
6
CONTINUOUS
10
-0.0553455118110236
20
0.3878633858267717
11
-0.0572202755905512
21
0.3897381496062992
0
LINE
8
BLACK
6
CONTINUOUS
10
-0.0572202755905512
20
0.3897381496062992
11
-0.057406062992126
21
0.3899645275590551
0
LINE
8
BLACK
6
CONTINUOUS
10
-0.057406062992126
20
0.3899645275590551
11
-0.0574650393700787
21
0.3900156692913386
0
LINE
8
BLACK
6
CONTINUOUS
10
-0.0574650393700787
20
0.3900156692913386
11
-0.0575210236220472
21
0.3901046456692913
0
LINE
8
BLACK
6
CONTINUOUS
10
-0.0575210236220472
20
0.3901046456692913
11
-0.0575874803149606
21
0.3901855905511811
0
LINE
8
BLACK
6
CONTINUOUS
10
-0.0575874803149606
20
0.3901855905511811
11
-0.0576173228346457
21
0.3902575590551181
0
LINE
8
BLACK
6
CONTINUOUS
10
-0.0576173228346457
20
0.3902575590551181
11
-0.0577733858267717
21
0.3905055511811024
0
LINE
8
BLACK
6
CONTINUOUS
10
-0.0577733858267717
20
0.3905055511811024
11
-0.0596481496062992
21
0.3942550787401575
0
LINE
8
BLACK
6
CONTINUOUS
10
-0.0596481496062992
20
0.3942550787401575
11
-0.0598550393700787
21
0.3947957086614173
0
LINE
8
BLACK
6
CONTINUOUS
10
-0.0598550393700787
20
0.3947957086614173
11
-0.0598625590551181
21
0.3949015354330709
0
LINE
8
BLACK
6
CONTINUOUS
10
-0.0598625590551181
20
0.3949015354330709
11
-0.0599031496062992
21
0.3949995275590551
0
LINE
8
BLACK
6
CONTINUOUS
10
-0.0599031496062992
20
0.3949995275590551
11
-0.0599598818897638
21
0.3955755905511811
0
LINE
8
BLACK
6
CONTINUOUS
10
-0.0599598818897638
20
0.3955755905511811
11
-0.0599598818897638
21
0.4049494094488189
0
LINE
8
BLACK
6
CONTINUOUS
10
-0.0599598818897638
20
0.4049494094488189
11
-0.0599311811023622
21
0.4052409842519685
0
LINE
8
BLACK
6
CONTINUOUS
10
-0.0599311811023622
20
0.4052409842519685
11
-0.0599366929133858
21
0.4053187007874016
0
LINE
8
BLACK
6
CONTINUOUS
10
-0.0599366929133858
20
0.4053187007874016
11
-0.0599134645669291
21
0.4054209842519685
0
LINE
8
BLACK
6
CONTINUOUS
10
-0.0599134645669291
20
0.4054209842519685
11
-0.0599031496062992
21
0.4055254724409449
0
LINE
8
BLACK
6
CONTINUOUS
10
-0.0599031496062992
20
0.4055254724409449
11
-0.0598733070866142
21
0.4055975984251968
0
LINE
8
BLACK
6
CONTINUOUS
10
-0.0598733070866142
20
0.4055975984251968
11
-0.0598083464566929
21
0.4058831496062992
0
LINE
8
BLACK
6
CONTINUOUS
10
-0.0598083464566929
20
0.4058831496062992
11
-0.0579335826771654
21
0.4115074409448819
0
LINE
8
BLACK
6
CONTINUOUS
10
-0.0579335826771654
20
0.4115074409448819
11
-0.0576975984251968
21
0.4120359842519685
0
LINE
8
BLACK
6
CONTINUOUS
10
-0.0576975984251968
20
0.4120359842519685
11
-0.0569427165354331
21
0.4129063385826772
0
LINE
8
BLACK
6
CONTINUOUS
10
-0.0569427165354331
20
0.4129063385826772
11
-0.0559122834645669
21
0.4134215748031496
0
LINE
8
BLACK
6
CONTINUOUS
10
-0.0559122834645669
20
0.4134215748031496
11
-0.0547630708661417
21
0.4135032677165354
0
LINE
8
BLACK
6
CONTINUOUS
10
-0.0547630708661417
20
0.4135032677165354
11
-0.0536700787401575
21
0.413138937007874
0
LINE
8
BLACK
6
CONTINUOUS
10
-0.0536700787401575
20
0.413138937007874
11
-0.0527996850393701
21
0.4123840551181102
0
LINE
8
BLACK
6
CONTINUOUS
10
-0.0527996850393701
20
0.4123840551181102
11
-0.0522844881889764
21
0.4113535826771653
0
LINE
8
BLACK
6
CONTINUOUS
10
-0.0522844881889764
20
0.4113535826771653
11
-0.0522027952755905
21
0.4102043700787402
0
LINE
8
BLACK
6
CONTINUOUS
10
-0.0522027952755905
20
0.4102043700787402
11
-0.0523311417322835
21
0.4096399212598425
0
LINE
8
BLACK
6
CONTINUOUS
10
-0.0523311417322835
20
0.4096399212598425
11
-0.0540543700787402
21
0.4044702755905512
0
LINE
8
BLACK
6
CONTINUOUS
10
-0.0540543700787402
20
0.4044702755905512
11
-0.0540543700787402
21
0.3962726377952756
0
LINE
8
BLACK
6
CONTINUOUS
10
-0.0540543700787402
20
0.3962726377952756
11
-0.0527056299212598
21
0.393575157480315
0
LINE
8
BLACK
6
CONTINUOUS
10
-0.0527056299212598
20
0.393575157480315
11
-0.0515085039370079
21
0.392378031496063
0
LINE
8
BLACK
6
CONTINUOUS
10
-0.0515085039370079
20
0.392378031496063
11
-0.0488110236220472
21
0.3910292913385827
0
LINE
8
BLACK
6
CONTINUOUS
10
-0.0488110236220472
20
0.3910292913385827
11
-0.0464555905511811
21
0.3910292913385827
0
LINE
8
BLACK
6
CONTINUOUS
10
-0.0464555905511811
20
0.3910292913385827
11
-0.0437581102362205
21
0.392378031496063
0
LINE
8
BLACK
6
CONTINUOUS
10
-0.0437581102362205
20
0.392378031496063
11
-0.0425609842519685
21
0.393575157480315
0
LINE
8
BLACK
6
CONTINUOUS
10
-0.0425609842519685
20
0.393575157480315
11
-0.0410455118110236
21
0.3966061417322835
0
LINE
8
BLACK
6
CONTINUOUS
10
-0.0410455118110236
20
0.3966061417322835
11
-0.0392493307086614
21
0.4037907874015748
0
LINE
8
BLACK
6
CONTINUOUS
10
-0.0392493307086614
20
0.4037907874015748
11
-0.0392341732283465
21
0.4038333070866142
0
LINE
8
BLACK
6
CONTINUOUS
10
-0.0392341732283465
20
0.4038333070866142
11
-0.0392326377952756
21
0.4038545275590551
0
LINE
8
BLACK
6
CONTINUOUS
10
-0.0392326377952756
20
0.4038545275590551
11
-0.0391410236220472
21
0.4040939763779527
0
LINE
8
BLACK
6
CONTINUOUS
10
-0.0391410236220472
20
0.4040939763779527
11
-0.0390545669291339
21
0.404335905511811
0
LINE
8
BLACK
6
CONTINUOUS
10
-0.0390545669291339
20
0.404335905511811
11
-0.0390418897637795
21
0.4043530708661418
0
LINE
8
BLACK
6
CONTINUOUS
10
-0.0390418897637795
20
0.4043530708661418
11
-0.0390257480314961
21
0.404395157480315
0
LINE
8
BLACK
6
CONTINUOUS
10
-0.0390257480314961
20
0.404395157480315
11
-0.0371509842519685
21
0.4081446850393701
0
LINE
8
BLACK
6
CONTINUOUS
10
-0.0371509842519685
20
0.4081446850393701
11
-0.0369949212598425
21
0.4083927165354331
0
LINE
8
BLACK
6
CONTINUOUS
10
-0.0369949212598425
20
0.4083927165354331
11
-0.0369650787401575
21
0.4084646456692913
0
LINE
8
BLACK
6
CONTINUOUS
10
-0.0369650787401575
20
0.4084646456692913
11
-0.0368986220472441
21
0.4085456299212598
0
LINE
8
BLACK
6
CONTINUOUS
10
-0.0368986220472441
20
0.4085456299212598
11
-0.0368426377952756
21
0.4086345669291339
0
LINE
8
BLACK
6
CONTINUOUS
10
-0.0368426377952756
20
0.4086345669291339
11
-0.0367836614173228
21
0.408685748031496
0
LINE
8
BLACK
6
CONTINUOUS
10
-0.0367836614173228
20
0.408685748031496
11
-0.036597874015748
21
0.4089120866141732
0
LINE
8
BLACK
6
CONTINUOUS
10
-0.036597874015748
20
0.4089120866141732
11
-0.0347231102362205
21
0.4107868503937008
0
LINE
8
BLACK
6
CONTINUOUS
10
-0.0347231102362205
20
0.4107868503937008
11
-0.0344967716535433
21
0.4109726377952756
0
LINE
8
BLACK
6
CONTINUOUS
10
-0.0344967716535433
20
0.4109726377952756
11
-0.0344455905511811
21
0.4110316141732283
0
LINE
8
BLACK
6
CONTINUOUS
10
-0.0344455905511811
20
0.4110316141732283
11
-0.0343566535433071
21
0.4110875984251968
0
LINE
8
BLACK
6
CONTINUOUS
10
-0.0343566535433071
20
0.4110875984251968
11
-0.0342756692913386
21
0.4111540551181102
0
LINE
8
BLACK
6
CONTINUOUS
10
-0.0342756692913386
20
0.4111540551181102
11
-0.0342037401574803
21
0.4111838976377953
0
LINE
8
BLACK
6
CONTINUOUS
10
-0.0342037401574803
20
0.4111838976377953
11
-0.0339557086614173
21
0.4113399606299212
0
LINE
8
BLACK
6
CONTINUOUS
10
-0.0339557086614173
20
0.4113399606299212
11
-0.0302061811023622
21
0.4132147244094488
0
LINE
8
BLACK
6
CONTINUOUS
10
-0.0302061811023622
20
0.4132147244094488
11
-0.0296655905511811
21
0.4134216141732283
0
LINE
8
BLACK
6
CONTINUOUS
10
-0.0296655905511811
20
0.4134216141732283
11
-0.0295597244094488
21
0.4134291732283464
0
LINE
8
BLACK
6
CONTINUOUS
10
-0.0295597244094488
20
0.4134291732283464
11
-0.0294617322834646
21
0.4134697244094488
0
LINE
8
BLACK
6
CONTINUOUS
10
-0.0294617322834646
20
0.4134697244094488
11
-0.0288856692913386
21
0.4135264566929134
0
LINE
8
BLACK
6
CONTINUOUS
10
-0.0288856692913386
20
0.4135264566929134
11
-0.0251361417322835
21
0.4135264566929134
0
LINE
8
BLACK
6
CONTINUOUS
10
-0.0251361417322835
20
0.4135264566929134
11
-0.0245600787401575
21
0.4134697244094488
0
LINE
8
BLACK
6
CONTINUOUS
10
-0.0309947244094488
20
0.4598979527559055
11
-0.0301800787401575
21
0.4590833070866142
0
LINE
8
BLACK
6
CONTINUOUS
10
-0.0301800787401575
20
0.4590833070866142
11
-0.0297391732283465
21
0.4580188976377952
0
LINE
8
BLACK
6
CONTINUOUS
10
-0.0297391732283465
20
0.4580188976377952
11
-0.0296824409448819
21
0.4574428346456693
0
LINE
8
BLACK
6
CONTINUOUS
10
-0.0296824409448819
20
0.4574428346456693
11
-0.0296824409448819
21
0.4274466141732283
0
LINE
8
BLACK
6
CONTINUOUS
10
-0.0296824409448819
20
0.4274466141732283
11
-0.0297391732283465
21
0.4268705511811023
0
LINE
8
BLACK
6
CONTINUOUS
10
-0.0297391732283465
20
0.4268705511811023
11
-0.0301800787401575
21
0.4258061417322834
0
LINE
8
BLACK
6
CONTINUOUS
10
-0.0301800787401575
20
0.4258061417322834
11
-0.0309947244094488
21
0.4249914960629921
0
LINE
8
BLACK
6
CONTINUOUS
10
-0.0309947244094488
20
0.4249914960629921
11
-0.0320591338582677
21
0.4245505905511811
0
LINE
8
BLACK
6
CONTINUOUS
10
-0.0320591338582677
20
0.4245505905511811
11
-0.0332112598425197
21
0.4245505905511811
0
LINE
8
BLACK
6
CONTINUOUS
10
-0.0332112598425197
20
0.4245505905511811
11
-0.0342756692913386
21
0.4249914960629921
0
LINE
8
BLACK
6
CONTINUOUS
10
-0.0342756692913386
20
0.4249914960629921
11
-0.0350903149606299
21
0.4258061417322834
0
LINE
8
BLACK
6
CONTINUOUS
10
-0.0350903149606299
20
0.4258061417322834
11
-0.0355312204724409
21
0.4268705511811023
0
LINE
8
BLACK
6
CONTINUOUS
10
-0.0355312204724409
20
0.4268705511811023
11
-0.0355879527559055
21
0.4274466141732283
0
LINE
8
BLACK
6
CONTINUOUS
10
-0.0355879527559055
20
0.4274466141732283
11
-0.0355879527559055
21
0.4574428346456693
0
LINE
8
BLACK
6
CONTINUOUS
10
-0.0355879527559055
20
0.4574428346456693
11
-0.0355312204724409
21
0.4580188976377952
0
LINE
8
BLACK
6
CONTINUOUS
10
-0.0355312204724409
20
0.4580188976377952
11
-0.0350903149606299
21
0.4590833070866142
0
LINE
8
BLACK
6
CONTINUOUS
10
-0.0350903149606299
20
0.4590833070866142
11
-0.0342756692913386
21
0.4598979527559055
0
LINE
8
BLACK
6
CONTINUOUS
10
-0.0342756692913386
20
0.4598979527559055
11
-0.0332112598425197
21
0.4603388582677165
0
LINE
8
BLACK
6
CONTINUOUS
10
-0.0332112598425197
20
0.4603388582677165
11
-0.0320591338582677
21
0.4603388582677165
0
LINE
8
BLACK
6
CONTINUOUS
10
-0.0320591338582677
20
0.4603388582677165
11
-0.0309947244094488
21
0.4598979527559055
0
LINE
8
BLACK
6
CONTINUOUS
10
-0.0553666535433071
20
0.4955185039370079
11
-0.0545520078740157
21
0.4947038582677165
0
LINE
8
BLACK
6
CONTINUOUS
10
-0.0545520078740157
20
0.4947038582677165
11
-0.0541111023622047
21
0.4936394488188977
0
LINE
8
BLACK
6
CONTINUOUS
10
-0.0541111023622047
20
0.4936394488188977
11
-0.0540543700787402
21
0.4930633858267716
0
LINE
8
BLACK
6
CONTINUOUS
10
-0.0540543700787402
20
0.4930633858267716
11
-0.0540543700787402
21
0.4847675590551181
0
LINE
8
BLACK
6
CONTINUOUS
10
-0.0540543700787402
20
0.4847675590551181
11
-0.0176370472440945
21
0.4847675590551181
0
LINE
8
BLACK
6
CONTINUOUS
10
-0.0176370472440945
20
0.4847675590551181
11
-0.0170609842519685
21
0.4847108267716536
0
LINE
8
BLACK
6
CONTINUOUS
10
-0.0170609842519685
20
0.4847108267716536
11
-0.0159965748031496
21
0.4842699212598425
0
LINE
8
BLACK
6
CONTINUOUS
10
-0.0159965748031496
20
0.4842699212598425
11
-0.0151819291338583
21
0.4834552755905512
0
LINE
8
BLACK
6
CONTINUOUS
10
-0.0151819291338583
20
0.4834552755905512
11
-0.0147410236220472
21
0.4823908661417323
0
LINE
8
BLACK
6
CONTINUOUS
10
-0.0147410236220472
20
0.4823908661417323
11
-0.0147410236220472
21
0.4812387401574803
0
LINE
8
BLACK
6
CONTINUOUS
10
-0.0147410236220472
20
0.4812387401574803
11
-0.0151819291338583
21
0.4801743307086614
0
LINE
8
BLACK
6
CONTINUOUS
10
-0.0151819291338583
20
0.4801743307086614
11
-0.0159965748031496
21
0.47935968503937
0
LINE
8
BLACK
6
CONTINUOUS
10
-0.0159965748031496
20
0.47935968503937
11
-0.0170609842519685
21
0.4789187795275591
0
LINE
8
BLACK
6
CONTINUOUS
10
-0.0170609842519685
20
0.4789187795275591
11
-0.0176370472440945
21
0.4788620472440945
0
LINE
8
BLACK
6
CONTINUOUS
10
-0.0176370472440945
20
0.4788620472440945
11
-0.0540543700787402
21
0.4788620472440945
0
LINE
8
BLACK
6
CONTINUOUS
10
-0.0540543700787402
20
0.4788620472440945
11
-0.0540543700787402
21
0.470566220472441
0
LINE
8
BLACK
6
CONTINUOUS
10
-0.0540543700787402
20
0.470566220472441
11
-0.0541111023622047
21
0.469990157480315
0
LINE
8
BLACK
6
CONTINUOUS
10
-0.0541111023622047
20
0.469990157480315
11
-0.0545520078740157
21
0.4689257480314961
0
LINE
8
BLACK
6
CONTINUOUS
10
-0.0545520078740157
20
0.4689257480314961
11
-0.0553666535433071
21
0.4681111023622047
0
LINE
8
BLACK
6
CONTINUOUS
10
-0.0553666535433071
20
0.4681111023622047
11
-0.056431062992126
21
0.4676701968503937
0
LINE
8
BLACK
6
CONTINUOUS
10
-0.056431062992126
20
0.4676701968503937
11
-0.057583188976378
21
0.4676701968503937
0
LINE
8
BLACK
6
CONTINUOUS
10
-0.057583188976378
20
0.4676701968503937
11
-0.0586475984251969
21
0.4681111023622047
0
LINE
8
BLACK
6
CONTINUOUS
10
-0.0586475984251969
20
0.4681111023622047
11
-0.0594622440944882
21
0.4689257480314961
0
LINE
8
BLACK
6
CONTINUOUS
10
-0.0594622440944882
20
0.4689257480314961
11
-0.0599031496062992
21
0.469990157480315
0
LINE
8
BLACK
6
CONTINUOUS
10
-0.0599031496062992
20
0.469990157480315
11
-0.0599598818897638
21
0.470566220472441
0
LINE
8
BLACK
6
CONTINUOUS
10
-0.0599598818897638
20
0.470566220472441
11
-0.0599598818897638
21
0.4930633858267716
0
LINE
8
BLACK
6
CONTINUOUS
10
-0.0599598818897638
20
0.4930633858267716
11
-0.0599031496062992
21
0.4936394488188977
0
LINE
8
BLACK
6
CONTINUOUS
10
-0.0599031496062992
20
0.4936394488188977
11
-0.0594622440944882
21
0.4947038582677165
0
LINE
8
BLACK
6
CONTINUOUS
10
-0.0594622440944882
20
0.4947038582677165
11
-0.0586475984251969
21
0.4955185039370079
0
LINE
8
BLACK
6
CONTINUOUS
10
-0.0586475984251969
20
0.4955185039370079
11
-0.057583188976378
21
0.4959594094488189
0
LINE
8
BLACK
6
CONTINUOUS
10
-0.057583188976378
20
0.4959594094488189
11
-0.056431062992126
21
0.4959594094488189
0
LINE
8
BLACK
6
CONTINUOUS
10
-0.056431062992126
20
0.4959594094488189
11
-0.0553666535433071
21
0.4955185039370079
0
LINE
8
BLACK
6
CONTINUOUS
10
0.4281083858267716
20
0.5343798031496063
11
0.4290300787401575
21
0.5336885039370078
0
LINE
8
BLACK
6
CONTINUOUS
10
0.4290300787401575
20
0.5336885039370078
11
0.4296170472440945
21
0.532697125984252
0
LINE
8
BLACK
6
CONTINUOUS
10
0.4296170472440945
20
0.532697125984252
11
0.42978
21
0.5315566535433071
0
LINE
8
BLACK
6
CONTINUOUS
10
0.42978
20
0.5315566535433071
11
0.429494094488189
21
0.5304405511811023
0
LINE
8
BLACK
6
CONTINUOUS
10
0.429494094488189
20
0.5304405511811023
11
0.4291938188976378
21
0.5299456692913386
0
LINE
8
BLACK
6
CONTINUOUS
10
0.4291938188976378
20
0.5299456692913386
11
0.4138574803149606
21
0.5094972047244094
0
LINE
8
BLACK
6
CONTINUOUS
10
0.4138574803149606
20
0.5094972047244094
11
0.4289195275590551
21
0.494435157480315
0
LINE
8
BLACK
6
CONTINUOUS
10
0.4289195275590551
20
0.494435157480315
11
0.4292867322834645
21
0.4939877165354331
0
LINE
8
BLACK
6
CONTINUOUS
10
0.4292867322834645
20
0.4939877165354331
11
0.4297276377952756
21
0.4929233070866141
0
LINE
8
BLACK
6
CONTINUOUS
10
0.4297276377952756
20
0.4929233070866141
11
0.4297276377952756
21
0.4917712204724409
0
LINE
8
BLACK
6
CONTINUOUS
10
0.4297276377952756
20
0.4917712204724409
11
0.4292867322834645
21
0.4907067716535433
0
LINE
8
BLACK
6
CONTINUOUS
10
0.4292867322834645
20
0.4907067716535433
11
0.4284720866141732
21
0.489892125984252
0
LINE
8
BLACK
6
CONTINUOUS
10
0.4284720866141732
20
0.489892125984252
11
0.4274076377952756
21
0.4894512204724409
0
LINE
8
BLACK
6
CONTINUOUS
10
0.4274076377952756
20
0.4894512204724409
11
0.4262555511811024
21
0.4894512204724409
0
LINE
8
BLACK
6
CONTINUOUS
10
0.4262555511811024
20
0.4894512204724409
11
0.4251911417322835
21
0.489892125984252
0
LINE
8
BLACK
6
CONTINUOUS
10
0.4251911417322835
20
0.489892125984252
11
0.4247437007874016
21
0.4902593307086614
0
LINE
8
BLACK
6
CONTINUOUS
10
0.4247437007874016
20
0.4902593307086614
11
0.4072872047244094
21
0.5077158267716535
0
LINE
8
BLACK
6
CONTINUOUS
10
0.4072872047244094
20
0.5077158267716535
11
0.4072872047244094
21
0.4923472440944882
0
LINE
8
BLACK
6
CONTINUOUS
10
0.4072872047244094
20
0.4923472440944882
11
0.4072304724409448
21
0.4917711811023622
0
LINE
8
BLACK
6
CONTINUOUS
10
0.4072304724409448
20
0.4917711811023622
11
0.4067895669291339
21
0.4907067716535433
0
LINE
8
BLACK
6
CONTINUOUS
10
0.4067895669291339
20
0.4907067716535433
11
0.4059749212598425
21
0.489892125984252
0
LINE
8
BLACK
6
CONTINUOUS
10
0.4059749212598425
20
0.489892125984252
11
0.4049105118110236
21
0.4894512204724409
0
LINE
8
BLACK
6
CONTINUOUS
10
0.4049105118110236
20
0.4894512204724409
11
0.4037583858267716
21
0.4894512204724409
0
LINE
8
BLACK
6
CONTINUOUS
10
0.4037583858267716
20
0.4894512204724409
11
0.4026939763779527
21
0.489892125984252
0
LINE
8
BLACK
6
CONTINUOUS
10
0.4026939763779527
20
0.489892125984252
11
0.4018793307086614
21
0.4907067716535433
0
LINE
8
BLACK
6
CONTINUOUS
10
0.4018793307086614
20
0.4907067716535433
11
0.4014384251968504
21
0.4917711811023622
0
LINE
8
BLACK
6
CONTINUOUS
10
0.4014384251968504
20
0.4917711811023622
11
0.4013816929133858
21
0.4923472440944882
0
LINE
8
BLACK
6
CONTINUOUS
10
0.4013816929133858
20
0.4923472440944882
11
0.4013816929133858
21
0.5317173228346457
0
LINE
8
BLACK
6
CONTINUOUS
10
0.4013816929133858
20
0.5317173228346457
11
0.4014384251968504
21
0.5322933858267717
0
LINE
8
BLACK
6
CONTINUOUS
10
0.4014384251968504
20
0.5322933858267717
11
0.4018793307086614
21
0.5333577952755906
0
LINE
8
BLACK
6
CONTINUOUS
10
0.4018793307086614
20
0.5333577952755906
11
0.4026939763779527
21
0.5341724409448819
0
LINE
8
BLACK
6
CONTINUOUS
10
0.4026939763779527
20
0.5341724409448819
11
0.4037583858267716
21
0.5346133464566929
0
LINE
8
BLACK
6
CONTINUOUS
10
0.4037583858267716
20
0.5346133464566929
11
0.4049105118110236
21
0.5346133464566929
0
LINE
8
BLACK
6
CONTINUOUS
10
0.4049105118110236
20
0.5346133464566929
11
0.4059749212598425
21
0.5341724409448819
0
LINE
8
BLACK
6
CONTINUOUS
10
0.4059749212598425
20
0.5341724409448819
11
0.4067895669291339
21
0.5333577952755906
0
LINE
8
BLACK
6
CONTINUOUS
10
0.4067895669291339
20
0.5333577952755906
11
0.4072304724409448
21
0.5322933858267717
0
LINE
8
BLACK
6
CONTINUOUS
10
0.4072304724409448
20
0.5322933858267717
11
0.4072872047244094
21
0.5317173228346457
0
LINE
8
BLACK
6
CONTINUOUS
10
0.4072872047244094
20
0.5317173228346457
11
0.4072872047244094
21
0.5160674803149606
0
LINE
8
BLACK
6
CONTINUOUS
10
0.4072872047244094
20
0.5160674803149606
11
0.4096392519685039
21
0.5137154330708661
0
LINE
8
BLACK
6
CONTINUOUS
10
0.4096392519685039
20
0.5137154330708661
11
0.4244694094488189
21
0.5334889763779528
0
LINE
8
BLACK
6
CONTINUOUS
10
0.4244694094488189
20
0.5334889763779528
11
0.4248604330708661
21
0.5339157874015747
0
LINE
8
BLACK
6
CONTINUOUS
10
0.4248604330708661
20
0.5339157874015747
11
0.425851811023622
21
0.5345027952755905
0
LINE
8
BLACK
6
CONTINUOUS
10
0.425851811023622
20
0.5345027952755905
11
0.4269923228346457
21
0.5346657086614173
0
LINE
8
BLACK
6
CONTINUOUS
10
0.4269923228346457
20
0.5346657086614173
11
0.4281083858267716
21
0.5343798031496063
0
LINE
8
BLACK
6
CONTINUOUS
10
-0.0245600787401575
20
0.5315799606299213
11
-0.0244620866141732
21
0.5315393700787402
0
LINE
8
BLACK
6
CONTINUOUS
10
-0.0244620866141732
20
0.5315393700787402
11
-0.0243562598425197
21
0.5315318503937008
0
LINE
8
BLACK
6
CONTINUOUS
10
-0.0243562598425197
20
0.5315318503937008
11
-0.0238156299212598
21
0.5313249606299213
0
LINE
8
BLACK
6
CONTINUOUS
10
-0.0238156299212598
20
0.5313249606299213
11
-0.0200661023622047
21
0.5294501968503937
0
LINE
8
BLACK
6
CONTINUOUS
10
-0.0200661023622047
20
0.5294501968503937
11
-0.0198182283464567
21
0.5292941732283465
0
LINE
8
BLACK
6
CONTINUOUS
10
-0.0198182283464567
20
0.5292941732283465
11
-0.0197461811023622
21
0.5292643307086614
0
LINE
8
BLACK
6
CONTINUOUS
10
-0.0197461811023622
20
0.5292643307086614
11
-0.019665157480315
21
0.5291978346456693
0
LINE
8
BLACK
6
CONTINUOUS
10
-0.019665157480315
20
0.5291978346456693
11
-0.0195762204724409
21
0.5291418503937008
0
LINE
8
BLACK
6
CONTINUOUS
10
-0.0195762204724409
20
0.5291418503937008
11
-0.0195250787401575
21
0.5290828740157481
0
LINE
8
BLACK
6
CONTINUOUS
10
-0.0195250787401575
20
0.5290828740157481
11
-0.0192987401574803
21
0.528897125984252
0
LINE
8
BLACK
6
CONTINUOUS
10
-0.0192987401574803
20
0.528897125984252
11
-0.017423937007874
21
0.5270223622047244
0
LINE
8
BLACK
6
CONTINUOUS
10
-0.017423937007874
20
0.5270223622047244
11
-0.017238188976378
21
0.5267960236220472
0
LINE
8
BLACK
6
CONTINUOUS
10
-0.017238188976378
20
0.5267960236220472
11
-0.0171791338582677
21
0.5267448031496063
0
LINE
8
BLACK
6
CONTINUOUS
10
-0.0171791338582677
20
0.5267448031496063
11
-0.0171231496062992
21
0.5266558661417323
0
LINE
8
BLACK
6
CONTINUOUS
10
-0.0171231496062992
20
0.5266558661417323
11
-0.0170566929133858
21
0.5265748818897638
0
LINE
8
BLACK
6
CONTINUOUS
10
-0.0170566929133858
20
0.5265748818897638
11
-0.0170268897637795
21
0.5265029527559055
0
LINE
8
BLACK
6
CONTINUOUS
10
-0.0170268897637795
20
0.5265029527559055
11
-0.0168707874015748
21
0.5262549212598425
0
LINE
8
BLACK
6
CONTINUOUS
10
-0.0168707874015748
20
0.5262549212598425
11
-0.0149960236220472
21
0.5225053937007874
0
LINE
8
BLACK
6
CONTINUOUS
10
-0.0149960236220472
20
0.5225053937007874
11
-0.0147891338582677
21
0.5219648031496062
0
LINE
8
BLACK
6
CONTINUOUS
10
-0.0147891338582677
20
0.5219648031496062
11
-0.0147816141732283
21
0.521858937007874
0
LINE
8
BLACK
6
CONTINUOUS
10
-0.0147816141732283
20
0.521858937007874
11
-0.0147410236220472
21
0.5217609448818897
0
LINE
8
BLACK
6
CONTINUOUS
10
-0.0147410236220472
20
0.5217609448818897
11
-0.0146842913385827
21
0.5211848818897638
0
LINE
8
BLACK
6
CONTINUOUS
10
-0.0146842913385827
20
0.5211848818897638
11
-0.0146842913385827
21
0.5061867716535433
0
LINE
8
BLACK
6
CONTINUOUS
10
-0.0146842913385827
20
0.5061867716535433
11
-0.0147410236220472
21
0.5056107086614173
0
LINE
8
BLACK
6
CONTINUOUS
10
-0.0147410236220472
20
0.5056107086614173
11
-0.0151819291338583
21
0.5045462992125984
0
LINE
8
BLACK
6
CONTINUOUS
10
-0.0151819291338583
20
0.5045462992125984
11
-0.0159965748031496
21
0.5037316535433071
0
LINE
8
BLACK
6
CONTINUOUS
10
-0.0159965748031496
20
0.5037316535433071
11
-0.0170609842519685
21
0.5032907480314961
0
LINE
8
BLACK
6
CONTINUOUS
10
-0.0170609842519685
20
0.5032907480314961
11
-0.0176370472440945
21
0.5032340157480315
0
LINE
8
BLACK
6
CONTINUOUS
10
-0.0176370472440945
20
0.5032340157480315
11
-0.057007125984252
21
0.5032340157480315
0
LINE
8
BLACK
6
CONTINUOUS
10
-0.057007125984252
20
0.5032340157480315
11
-0.057583188976378
21
0.5032907480314961
0
LINE
8
BLACK
6
CONTINUOUS
10
-0.057583188976378
20
0.5032907480314961
11
-0.0586475984251969
21
0.5037316535433071
0
LINE
8
BLACK
6
CONTINUOUS
10
-0.0586475984251969
20
0.5037316535433071
11
-0.0594622440944882
21
0.5045462992125984
0
LINE
8
BLACK
6
CONTINUOUS
10
-0.0594622440944882
20
0.5045462992125984
11
-0.0599031496062992
21
0.5056107086614173
0
LINE
8
BLACK
6
CONTINUOUS
10
-0.0599031496062992
20
0.5056107086614173
11
-0.0599598818897638
21
0.5061867716535433
0
LINE
8
BLACK
6
CONTINUOUS
10
-0.0599598818897638
20
0.5061867716535433
11
-0.0599598818897638
21
0.5193101181102362
0
LINE
8
BLACK
6
CONTINUOUS
10
-0.0599598818897638
20
0.5193101181102362
11
-0.0599031496062992
21
0.5198861811023622
0
LINE
8
BLACK
6
CONTINUOUS
10
-0.0599031496062992
20
0.5198861811023622
11
-0.0598625590551181
21
0.5199842125984252
0
LINE
8
BLACK
6
CONTINUOUS
10
-0.0598625590551181
20
0.5199842125984252
11
-0.0598550393700787
21
0.5200899999999999
0
LINE
8
BLACK
6
CONTINUOUS
10
-0.0598550393700787
20
0.5200899999999999
11
-0.0596481496062992
21
0.5206306299212599
0
LINE
8
BLACK
6
CONTINUOUS
10
-0.0596481496062992
20
0.5206306299212599
11
-0.0577733858267717
21
0.524380157480315
0
LINE
8
BLACK
6
CONTINUOUS
10
-0.0577733858267717
20
0.524380157480315
11
-0.0576173228346457
21
0.524628188976378
0
LINE
8
BLACK
6
CONTINUOUS
10
-0.0576173228346457
20
0.524628188976378
11
-0.0575874803149606
21
0.5247001181102362
0
LINE
8
BLACK
6
CONTINUOUS
10
-0.0575874803149606
20
0.5247001181102362
11
-0.0575210236220472
21
0.5247811023622048
0
LINE
8
BLACK
6
CONTINUOUS
10
-0.0575210236220472
20
0.5247811023622048
11
-0.0574650393700787
21
0.5248700393700787
0
LINE
8
BLACK
6
CONTINUOUS
10
-0.0574650393700787
20
0.5248700393700787
11
-0.057406062992126
21
0.5249212204724409
0
LINE
8
BLACK
6
CONTINUOUS
10
-0.057406062992126
20
0.5249212204724409
11
-0.0572202755905512
21
0.5251475590551181
0
LINE
8
BLACK
6
CONTINUOUS
10
-0.0572202755905512
20
0.5251475590551181
11
-0.0553455118110236
21
0.5270223228346457
0
LINE
8
BLACK
6
CONTINUOUS
10
-0.0553455118110236
20
0.5270223228346457
11
-0.0551191732283465
21
0.5272081102362205
0
LINE
8
BLACK
6
CONTINUOUS
10
-0.0551191732283465
20
0.5272081102362205
11
-0.0550679921259843
21
0.5272670866141732
0
LINE
8
BLACK
6
CONTINUOUS
10
-0.0550679921259843
20
0.5272670866141732
11
-0.0549790551181102
21
0.5273230708661417
0
LINE
8
BLACK
6
CONTINUOUS
10
-0.0549790551181102
20
0.5273230708661417
11
-0.0548980708661417
21
0.5273895275590551
0
LINE
8
BLACK
6
CONTINUOUS
10
-0.0548980708661417
20
0.5273895275590551
11
-0.0548261417322835
21
0.5274193700787402
0
LINE
8
BLACK
6
CONTINUOUS
10
-0.0548261417322835
20
0.5274193700787402
11
-0.0545781102362205
21
0.5275754330708662
0
LINE
8
BLACK
6
CONTINUOUS
10
-0.0545781102362205
20
0.5275754330708662
11
-0.0508285826771654
21
0.5294501968503937
0
LINE
8
BLACK
6
CONTINUOUS
10
-0.0508285826771654
20
0.5294501968503937
11
-0.0502879921259842
21
0.5296570866141732
0
LINE
8
BLACK
6
CONTINUOUS
10
-0.0502879921259842
20
0.5296570866141732
11
-0.050182125984252
21
0.5296646456692913
0
LINE
8
BLACK
6
CONTINUOUS
10
-0.050182125984252
20
0.5296646456692913
11
-0.0500841338582677
21
0.5297051968503936
0
LINE
8
BLACK
6
CONTINUOUS
10
-0.0500841338582677
20
0.5297051968503936
11
-0.0495080708661417
21
0.5297619291338582
0
LINE
8
BLACK
6
CONTINUOUS
10
-0.0495080708661417
20
0.5297619291338582
11
-0.0457585433070866
21
0.5297619291338582
0
LINE
8
BLACK
6
CONTINUOUS
10
-0.0457585433070866
20
0.5297619291338582
11
-0.0451824803149606
21
0.5297051968503936
0
LINE
8
BLACK
6
CONTINUOUS
10
-0.0451824803149606
20
0.5297051968503936
11
-0.0450844881889764
21
0.5296646062992126
0
LINE
8
BLACK
6
CONTINUOUS
10
-0.0450844881889764
20
0.5296646062992126
11
-0.0449786614173228
21
0.5296570866141732
0
LINE
8
BLACK
6
CONTINUOUS
10
-0.0449786614173228
20
0.5296570866141732
11
-0.044438031496063
21
0.5294501968503937
0
LINE
8
BLACK
6
CONTINUOUS
10
-0.044438031496063
20
0.5294501968503937
11
-0.0406885039370079
21
0.5275754330708662
0
LINE
8
BLACK
6
CONTINUOUS
10
-0.0406885039370079
20
0.5275754330708662
11
-0.0404405118110236
21
0.5274193700787402
0
LINE
8
BLACK
6
CONTINUOUS
10
-0.0404405118110236
20
0.5274193700787402
11
-0.0403685433070866
21
0.5273895275590551
0
LINE
8
BLACK
6
CONTINUOUS
10
-0.0403685433070866
20
0.5273895275590551
11
-0.0402875984251969
21
0.5273230708661417
0
LINE
8
BLACK
6
CONTINUOUS
10
-0.0402875984251969
20
0.5273230708661417
11
-0.0401986220472441
21
0.5272670866141732
0
LINE
8
BLACK
6
CONTINUOUS
10
-0.0401986220472441
20
0.5272670866141732
11
-0.0401474803149606
21
0.5272081102362205
0
LINE
8
BLACK
6
CONTINUOUS
10
-0.0401474803149606
20
0.5272081102362205
11
-0.0399211023622047
21
0.5270223228346457
0
LINE
8
BLACK
6
CONTINUOUS
10
-0.0399211023622047
20
0.5270223228346457
11
-0.0390566141732283
21
0.5261578346456692
0
LINE
8
BLACK
6
CONTINUOUS
10
-0.0390566141732283
20
0.5261578346456692
11
-0.0389499606299213
21
0.5263966929133859
0
LINE
8
BLACK
6
CONTINUOUS
10
-0.0389499606299213
20
0.5263966929133859
11
-0.0388804724409449
21
0.5264768503937007
0
LINE
8
BLACK
6
CONTINUOUS
10
-0.0388804724409449
20
0.5264768503937007
11
-0.038839842519685
21
0.5265748818897638
0
LINE
8
BLACK
6
CONTINUOUS
10
-0.038839842519685
20
0.5265748818897638
11
-0.0384726377952756
21
0.5270223228346457
0
LINE
8
BLACK
6
CONTINUOUS
10
-0.0384726377952756
20
0.5270223228346457
11
-0.036597874015748
21
0.5288970866141732
0
LINE
8
BLACK
6
CONTINUOUS
10
-0.036597874015748
20
0.5288970866141732
11
-0.0363715354330709
21
0.5290828740157481
0
LINE
8
BLACK
6
CONTINUOUS
10
-0.0363715354330709
20
0.5290828740157481
11
-0.0363203543307087
21
0.5291418503937008
0
LINE
8
BLACK
6
CONTINUOUS
10
-0.0363203543307087
20
0.5291418503937008
11
-0.0362314173228346
21
0.5291978346456693
0
LINE
8
BLACK
6
CONTINUOUS
10
-0.0362314173228346
20
0.5291978346456693
11
-0.0361504330708661
21
0.5292642913385827
0
LINE
8
BLACK
6
CONTINUOUS
10
-0.0361504330708661
20
0.5292642913385827
11
-0.0360785039370079
21
0.5292941338582677
0
LINE
8
BLACK
6
CONTINUOUS
10
-0.0360785039370079
20
0.5292941338582677
11
-0.0358304724409449
21
0.5294501968503937
0
LINE
8
BLACK
6
CONTINUOUS
10
-0.0358304724409449
20
0.5294501968503937
11
-0.0320809448818898
21
0.5313249606299213
0
LINE
8
BLACK
6
CONTINUOUS
10
-0.0320809448818898
20
0.5313249606299213
11
-0.0315403543307087
21
0.5315318503937008
0
LINE
8
BLACK
6
CONTINUOUS
10
-0.0315403543307087
20
0.5315318503937008
11
-0.0314344881889764
21
0.5315394094488188
0
LINE
8
BLACK
6
CONTINUOUS
10
-0.0314344881889764
20
0.5315394094488188
11
-0.0313364960629921
21
0.5315799606299213
0
LINE
8
BLACK
6
CONTINUOUS
10
-0.0313364960629921
20
0.5315799606299213
11
-0.0307604330708661
21
0.5316366929133858
0
LINE
8
BLACK
6
CONTINUOUS
10
-0.0307604330708661
20
0.5316366929133858
11
-0.0251361417322835
21
0.5316366929133858
0
LINE
8
BLACK
6
CONTINUOUS
10
-0.0251361417322835
20
0.5316366929133858
11
-0.0245600787401575
21
0.5315799606299213
0
LINE
8
BLACK
6
CONTINUOUS
10
-0.0515085039370079
20
0.5225076771653543
11
-0.0527056299212598
21
0.5213105511811024
0
LINE
8
BLACK
6
CONTINUOUS
10
-0.0527056299212598
20
0.5213105511811024
11
-0.0540543700787402
21
0.5186130708661417
0
LINE
8
BLACK
6
CONTINUOUS
10
-0.0540543700787402
20
0.5186130708661417
11
-0.0540543700787402
21
0.5091395275590551
0
LINE
8
BLACK
6
CONTINUOUS
10
-0.0540543700787402
20
0.5091395275590551
11
-0.0412122440944882
21
0.5091395275590551
0
LINE
8
BLACK
6
CONTINUOUS
10
-0.0412122440944882
20
0.5091395275590551
11
-0.0412122440944882
21
0.5186130708661417
0
LINE
8
BLACK
6
CONTINUOUS
10
-0.0412122440944882
20
0.5186130708661417
11
-0.0425609842519685
21
0.5213105511811024
0
LINE
8
BLACK
6
CONTINUOUS
10
-0.0425609842519685
20
0.5213105511811024
11
-0.0437581102362205
21
0.5225076771653543
0
LINE
8
BLACK
6
CONTINUOUS
10
-0.0437581102362205
20
0.5225076771653543
11
-0.0464555905511811
21
0.5238564173228346
0
LINE
8
BLACK
6
CONTINUOUS
10
-0.0464555905511811
20
0.5238564173228346
11
-0.0488110236220472
21
0.5238564173228346
0
LINE
8
BLACK
6
CONTINUOUS
10
-0.0488110236220472
20
0.5238564173228346
11
-0.0515085039370079
21
0.5225076771653543
0
LINE
8
BLACK
6
CONTINUOUS
10
-0.0327608661417323
20
0.5243824409448818
11
-0.033803937007874
21
0.5233394094488188
0
LINE
8
BLACK
6
CONTINUOUS
10
-0.033803937007874
20
0.5233394094488188
11
-0.0353067322834646
21
0.5188309842519685
0
LINE
8
BLACK
6
CONTINUOUS
10
-0.0353067322834646
20
0.5188309842519685
11
-0.0353067322834646
21
0.5091395275590551
0
LINE
8
BLACK
6
CONTINUOUS
10
-0.0353067322834646
20
0.5091395275590551
11
-0.0205898031496063
21
0.5091395275590551
0
LINE
8
BLACK
6
CONTINUOUS
10
-0.0205898031496063
20
0.5091395275590551
11
-0.0205898031496063
21
0.5204878346456693
0
LINE
8
BLACK
6
CONTINUOUS
10
-0.0205898031496063
20
0.5204878346456693
11
-0.0219385433070866
21
0.5231853149606299
0
LINE
8
BLACK
6
CONTINUOUS
10
-0.0219385433070866
20
0.5231853149606299
11
-0.0231357086614173
21
0.5243824409448818
0
LINE
8
BLACK
6
CONTINUOUS
10
-0.0231357086614173
20
0.5243824409448818
11
-0.025833188976378
21
0.5257311811023622
0
LINE
8
BLACK
6
CONTINUOUS
10
-0.025833188976378
20
0.5257311811023622
11
-0.0300633858267717
21
0.5257311811023622
0
LINE
8
BLACK
6
CONTINUOUS
10
-0.0300633858267717
20
0.5257311811023622
11
-0.0327608661417323
21
0.5243824409448818
0
CIRCLE
8
BLACK
10
0.4921259842519685
20
0.5905511811023622
40
0.0068897637795276
0
CIRCLE
8
BLACK
10
0.4921259842519685
20
0.
40
0.0068897637795276
0
CIRCLE
8
BLACK
10
0.0984251968503937
20
0.5905511811023622
40
0.0068897637795276
0
CIRCLE
8
BLACK
10
0.8858267716535433
20
0.
40
0.0068897637795276
0
CIRCLE
8
BLACK
10
0.8858267716535433
20
0.5905511811023622
40
0.0068897637795276
0
CIRCLE
8
BLACK
10
0.0984251968503937
20
0.
40
0.0068897637795276
  0
ENDSEC
  0
EOF
