<?xml version='1.0' encoding='ASCII' standalone='yes'?>
<svg xmlns:svg="http://www.w3.org/2000/svg" xmlns="http://www.w3.org/2000/svg" xmlns:xlink="http://www.w3.org/1999/xlink" version="1.1" width="297.0022mm" height="210.0072mm" viewBox="0.0000 0.0000 297.0022 210.0072">
<title>SVG Image created as TFHT02-B_Fab.svg date 2024/07/23 17:30:15 </title>
  <desc>Image generated by PCBNEW </desc>
<g style="fill:#000084; fill-opacity:1.0000;stroke:#000084; stroke-opacity:1.0000; stroke-linecap:round; stroke-linejoin:round;" transform="translate(0 0) scale(1 1)">
</g>
<g style="fill:none;  stroke:#000084; stroke-width:1.4776; stroke-opacity:1;  stroke-linecap:round; stroke-linejoin:round;">
<text x="32.7923" y="126.6752" textLength="47.0256" font-size="13.1343" lengthAdjust="spacingAndGlyphs" text-anchor="middle" opacity="0">SHT4x</text>
<g class="stroked-text"><desc>SHT4x</desc>
<path d="M12.3871 125.7611 L13.7944 126.2302 "/>
<path d="M13.7944 126.2302 L16.1398 126.2302 "/>
<path d="M16.1398 126.2302 L17.0780 125.7611 "/>
<path d="M17.0780 125.7611 L17.5471 125.2920 "/>
<path d="M17.5471 125.2920 L18.0161 124.3538 "/>
<path d="M18.0161 124.3538 L18.0161 123.4157 "/>
<path d="M18.0161 123.4157 L17.5471 122.4775 "/>
<path d="M17.5471 122.4775 L17.0780 122.0084 "/>
<path d="M17.0780 122.0084 L16.1398 121.5393 "/>
<path d="M16.1398 121.5393 L14.2635 121.0703 "/>
<path d="M14.2635 121.0703 L13.3253 120.6012 "/>
<path d="M13.3253 120.6012 L12.8562 120.1321 "/>
<path d="M12.8562 120.1321 L12.3871 119.1939 "/>
<path d="M12.3871 119.1939 L12.3871 118.2558 "/>
<path d="M12.3871 118.2558 L12.8562 117.3176 "/>
<path d="M12.8562 117.3176 L13.3253 116.8485 "/>
<path d="M13.3253 116.8485 L14.2635 116.3794 "/>
<path d="M14.2635 116.3794 L16.6089 116.3794 "/>
<path d="M16.6089 116.3794 L18.0161 116.8485 "/>
<path d="M22.2379 126.2302 L22.2379 116.3794 "/>
<path d="M22.2379 121.0703 L27.8669 121.0703 "/>
<path d="M27.8669 126.2302 L27.8669 116.3794 "/>
<path d="M31.1505 116.3794 L36.7795 116.3794 "/>
<path d="M33.9650 126.2302 L33.9650 116.3794 "/>
<path d="M44.2848 119.6630 L44.2848 126.2302 "/>
<path d="M41.9394 115.9103 L39.5940 122.9466 "/>
<path d="M39.5940 122.9466 L45.6920 122.9466 "/>
<path d="M48.5066 126.2302 L53.6665 119.6630 "/>
<path d="M48.5066 119.6630 L53.6665 126.2302 "/>
</g></g>
<g style="fill:none;  stroke:#000084; stroke-width:0.5910; stroke-opacity:1;  stroke-linecap:round; stroke-linejoin:round;">
<text x="32.7923" y="106.8752" textLength="8.5110" font-size="4.9910" lengthAdjust="spacingAndGlyphs" text-anchor="middle" opacity="0">U2</text>
<g class="stroked-text"><desc>U2</desc>
<path d="M29.9402 102.9613 L29.9402 105.9916 "/>
<path d="M29.9402 105.9916 L30.1185 106.3481 "/>
<path d="M30.1185 106.3481 L30.2967 106.5263 "/>
<path d="M30.2967 106.5263 L30.6533 106.7046 "/>
<path d="M30.6533 106.7046 L31.3663 106.7046 "/>
<path d="M31.3663 106.7046 L31.7228 106.5263 "/>
<path d="M31.7228 106.5263 L31.9010 106.3481 "/>
<path d="M31.9010 106.3481 L32.0793 105.9916 "/>
<path d="M32.0793 105.9916 L32.0793 102.9613 "/>
<path d="M33.6835 103.3178 L33.8618 103.1395 "/>
<path d="M33.8618 103.1395 L34.2183 102.9613 "/>
<path d="M34.2183 102.9613 L35.1095 102.9613 "/>
<path d="M35.1095 102.9613 L35.4660 103.1395 "/>
<path d="M35.4660 103.1395 L35.6443 103.3178 "/>
<path d="M35.6443 103.3178 L35.8225 103.6743 "/>
<path d="M35.8225 103.6743 L35.8225 104.0308 "/>
<path d="M35.8225 104.0308 L35.6443 104.5656 "/>
<path d="M35.6443 104.5656 L33.5053 106.7046 "/>
<path d="M33.5053 106.7046 L35.8225 106.7046 "/>
</g></g>
<g style="fill:none;  stroke:#000084; stroke-width:1.4776; stroke-opacity:1;  stroke-linecap:round; stroke-linejoin:round;">
<text x="212.5309" y="80.7215" textLength="26.3559" font-size="16.6806" lengthAdjust="spacingAndGlyphs" text-anchor="middle" opacity="0">D2</text>
<g class="stroked-text"><desc>D2</desc>
<path d="M203.2970 80.1770 L203.2970 67.6666 "/>
<path d="M203.2970 67.6666 L206.2757 67.6666 "/>
<path d="M206.2757 67.6666 L208.0629 68.2623 "/>
<path d="M208.0629 68.2623 L209.2544 69.4538 "/>
<path d="M209.2544 69.4538 L209.8501 70.6452 "/>
<path d="M209.8501 70.6452 L210.4459 73.0282 "/>
<path d="M210.4459 73.0282 L210.4459 74.8154 "/>
<path d="M210.4459 74.8154 L209.8501 77.1983 "/>
<path d="M209.8501 77.1983 L209.2544 78.3898 "/>
<path d="M209.2544 78.3898 L208.0629 79.5813 "/>
<path d="M208.0629 79.5813 L206.2757 80.1770 "/>
<path d="M206.2757 80.1770 L203.2970 80.1770 "/>
<path d="M215.2118 68.8580 L215.8075 68.2623 "/>
<path d="M215.8075 68.2623 L216.9990 67.6666 "/>
<path d="M216.9990 67.6666 L219.9776 67.6666 "/>
<path d="M219.9776 67.6666 L221.1691 68.2623 "/>
<path d="M221.1691 68.2623 L221.7648 68.8580 "/>
<path d="M221.7648 68.8580 L222.3606 70.0495 "/>
<path d="M222.3606 70.0495 L222.3606 71.2410 "/>
<path d="M222.3606 71.2410 L221.7648 73.0282 "/>
<path d="M221.7648 73.0282 L214.6160 80.1770 "/>
<path d="M214.6160 80.1770 L222.3606 80.1770 "/>
</g><text x="194.2657" y="56.5793" textLength="14.4412" font-size="16.6806" lengthAdjust="spacingAndGlyphs" text-anchor="middle" opacity="0">K</text>
<g class="stroked-text"><desc>K</desc>
<path d="M190.9891 56.0348 L190.9891 43.5244 "/>
<path d="M198.1380 56.0348 L192.7764 48.8860 "/>
<path d="M198.1380 43.5244 L190.9891 50.6732 "/>
</g><text x="211.9419" y="102.9172" textLength="47.9638" font-size="13.1343" lengthAdjust="spacingAndGlyphs" text-anchor="middle" opacity="0">100nF</text>
<g class="stroked-text"><desc>100nF</desc>
<path d="M196.6967 102.4721 L191.0677 102.4721 "/>
<path d="M193.8822 102.4721 L193.8822 92.6214 "/>
<path d="M193.8822 92.6214 L192.9440 94.0286 "/>
<path d="M192.9440 94.0286 L192.0058 94.9668 "/>
<path d="M192.0058 94.9668 L191.0677 95.4359 "/>
<path d="M202.7948 92.6214 L203.7329 92.6214 "/>
<path d="M203.7329 92.6214 L204.6711 93.0905 "/>
<path d="M204.6711 93.0905 L205.1402 93.5596 "/>
<path d="M205.1402 93.5596 L205.6093 94.4977 "/>
<path d="M205.6093 94.4977 L206.0783 96.3741 "/>
<path d="M206.0783 96.3741 L206.0783 98.7195 "/>
<path d="M206.0783 98.7195 L205.6093 100.5958 "/>
<path d="M205.6093 100.5958 L205.1402 101.5340 "/>
<path d="M205.1402 101.5340 L204.6711 102.0031 "/>
<path d="M204.6711 102.0031 L203.7329 102.4721 "/>
<path d="M203.7329 102.4721 L202.7948 102.4721 "/>
<path d="M202.7948 102.4721 L201.8566 102.0031 "/>
<path d="M201.8566 102.0031 L201.3875 101.5340 "/>
<path d="M201.3875 101.5340 L200.9184 100.5958 "/>
<path d="M200.9184 100.5958 L200.4493 98.7195 "/>
<path d="M200.4493 98.7195 L200.4493 96.3741 "/>
<path d="M200.4493 96.3741 L200.9184 94.4977 "/>
<path d="M200.9184 94.4977 L201.3875 93.5596 "/>
<path d="M201.3875 93.5596 L201.8566 93.0905 "/>
<path d="M201.8566 93.0905 L202.7948 92.6214 "/>
<path d="M212.1764 92.6214 L213.1146 92.6214 "/>
<path d="M213.1146 92.6214 L214.0527 93.0905 "/>
<path d="M214.0527 93.0905 L214.5218 93.5596 "/>
<path d="M214.5218 93.5596 L214.9909 94.4977 "/>
<path d="M214.9909 94.4977 L215.4600 96.3741 "/>
<path d="M215.4600 96.3741 L215.4600 98.7195 "/>
<path d="M215.4600 98.7195 L214.9909 100.5958 "/>
<path d="M214.9909 100.5958 L214.5218 101.5340 "/>
<path d="M214.5218 101.5340 L214.0527 102.0031 "/>
<path d="M214.0527 102.0031 L213.1146 102.4721 "/>
<path d="M213.1146 102.4721 L212.1764 102.4721 "/>
<path d="M212.1764 102.4721 L211.2383 102.0031 "/>
<path d="M211.2383 102.0031 L210.7692 101.5340 "/>
<path d="M210.7692 101.5340 L210.3001 100.5958 "/>
<path d="M210.3001 100.5958 L209.8310 98.7195 "/>
<path d="M209.8310 98.7195 L209.8310 96.3741 "/>
<path d="M209.8310 96.3741 L210.3001 94.4977 "/>
<path d="M210.3001 94.4977 L210.7692 93.5596 "/>
<path d="M210.7692 93.5596 L211.2383 93.0905 "/>
<path d="M211.2383 93.0905 L212.1764 92.6214 "/>
<path d="M219.6818 95.9050 L219.6818 102.4721 "/>
<path d="M219.6818 96.8431 L220.1508 96.3741 "/>
<path d="M220.1508 96.3741 L221.0890 95.9050 "/>
<path d="M221.0890 95.9050 L222.4962 95.9050 "/>
<path d="M222.4962 95.9050 L223.4344 96.3741 "/>
<path d="M223.4344 96.3741 L223.9035 97.3122 "/>
<path d="M223.9035 97.3122 L223.9035 102.4721 "/>
<path d="M231.8779 97.3122 L228.5943 97.3122 "/>
<path d="M228.5943 102.4721 L228.5943 92.6214 "/>
<path d="M228.5943 92.6214 L233.2852 92.6214 "/>
</g></g>
<g style="fill:none;  stroke:#000084; stroke-width:0.5910; stroke-opacity:1;  stroke-linecap:round; stroke-linejoin:round;">
<text x="211.9419" y="114.0486" textLength="8.6780" font-size="5.2537" lengthAdjust="spacingAndGlyphs" text-anchor="middle" opacity="0">C4</text>
<g class="stroked-text"><desc>C4</desc>
<path d="M211.2852 113.4953 L211.0975 113.6829 "/>
<path d="M211.0975 113.6829 L210.5346 113.8705 "/>
<path d="M210.5346 113.8705 L210.1594 113.8705 "/>
<path d="M210.1594 113.8705 L209.5965 113.6829 "/>
<path d="M209.5965 113.6829 L209.2212 113.3076 "/>
<path d="M209.2212 113.3076 L209.0336 112.9324 "/>
<path d="M209.0336 112.9324 L208.8459 112.1818 "/>
<path d="M208.8459 112.1818 L208.8459 111.6189 "/>
<path d="M208.8459 111.6189 L209.0336 110.8684 "/>
<path d="M209.0336 110.8684 L209.2212 110.4931 "/>
<path d="M209.2212 110.4931 L209.5965 110.1179 "/>
<path d="M209.5965 110.1179 L210.1594 109.9302 "/>
<path d="M210.1594 109.9302 L210.5346 109.9302 "/>
<path d="M210.5346 109.9302 L211.0975 110.1179 "/>
<path d="M211.0975 110.1179 L211.2852 110.3055 "/>
<path d="M214.6626 111.2437 L214.6626 113.8705 "/>
<path d="M213.7244 109.7426 L212.7862 112.5571 "/>
<path d="M212.7862 112.5571 L215.2255 112.5571 "/>
</g></g>
<g style="fill:none;  stroke:#000084; stroke-width:1.4776; stroke-opacity:1;  stroke-linecap:round; stroke-linejoin:round;">
<g transform="rotate(90.000000 220.6972 82.5931)">
<text x="220.6972" y="87.5185" textLength="141.3113" font-size="13.1343" lengthAdjust="spacingAndGlyphs" text-anchor="middle" opacity="0">BZX585-B5V6.115</text>
</g>
<g class="stroked-text"><desc>BZX585-B5V6.115</desc>
<path d="M221.3768 18.7978 L220.9077 20.2051 "/>
<path d="M220.9077 20.2051 L220.4387 20.6742 "/>
<path d="M220.4387 20.6742 L219.5005 21.1432 "/>
<path d="M219.5005 21.1432 L218.0933 21.1432 "/>
<path d="M218.0933 21.1432 L217.1551 20.6742 "/>
<path d="M217.1551 20.6742 L216.6860 20.2051 "/>
<path d="M216.6860 20.2051 L216.2169 19.2669 "/>
<path d="M216.2169 19.2669 L216.2169 15.5143 "/>
<path d="M216.2169 15.5143 L226.0677 15.5143 "/>
<path d="M226.0677 15.5143 L226.0677 18.7978 "/>
<path d="M226.0677 18.7978 L225.5986 19.7360 "/>
<path d="M225.5986 19.7360 L225.1295 20.2051 "/>
<path d="M225.1295 20.2051 L224.1913 20.6742 "/>
<path d="M224.1913 20.6742 L223.2532 20.6742 "/>
<path d="M223.2532 20.6742 L222.3150 20.2051 "/>
<path d="M222.3150 20.2051 L221.8459 19.7360 "/>
<path d="M221.8459 19.7360 L221.3768 18.7978 "/>
<path d="M221.3768 18.7978 L221.3768 15.5143 "/>
<path d="M226.0677 24.4268 L226.0677 30.9940 "/>
<path d="M226.0677 30.9940 L216.2169 24.4268 "/>
<path d="M216.2169 24.4268 L216.2169 30.9940 "/>
<path d="M226.0677 33.8085 L216.2169 40.3757 "/>
<path d="M226.0677 40.3757 L216.2169 33.8085 "/>
<path d="M226.0677 48.8192 L226.0677 44.1283 "/>
<path d="M226.0677 44.1283 L221.3768 43.6592 "/>
<path d="M221.3768 43.6592 L221.8459 44.1283 "/>
<path d="M221.8459 44.1283 L222.3150 45.0665 "/>
<path d="M222.3150 45.0665 L222.3150 47.4119 "/>
<path d="M222.3150 47.4119 L221.8459 48.3501 "/>
<path d="M221.8459 48.3501 L221.3768 48.8192 "/>
<path d="M221.3768 48.8192 L220.4387 49.2882 "/>
<path d="M220.4387 49.2882 L218.0933 49.2882 "/>
<path d="M218.0933 49.2882 L217.1551 48.8192 "/>
<path d="M217.1551 48.8192 L216.6860 48.3501 "/>
<path d="M216.6860 48.3501 L216.2169 47.4119 "/>
<path d="M216.2169 47.4119 L216.2169 45.0665 "/>
<path d="M216.2169 45.0665 L216.6860 44.1283 "/>
<path d="M216.6860 44.1283 L217.1551 43.6592 "/>
<path d="M221.8459 54.9172 L222.3150 53.9791 "/>
<path d="M222.3150 53.9791 L222.7841 53.5100 "/>
<path d="M222.7841 53.5100 L223.7222 53.0409 "/>
<path d="M223.7222 53.0409 L224.1913 53.0409 "/>
<path d="M224.1913 53.0409 L225.1295 53.5100 "/>
<path d="M225.1295 53.5100 L225.5986 53.9791 "/>
<path d="M225.5986 53.9791 L226.0677 54.9172 "/>
<path d="M226.0677 54.9172 L226.0677 56.7936 "/>
<path d="M226.0677 56.7936 L225.5986 57.7317 "/>
<path d="M225.5986 57.7317 L225.1295 58.2008 "/>
<path d="M225.1295 58.2008 L224.1913 58.6699 "/>
<path d="M224.1913 58.6699 L223.7222 58.6699 "/>
<path d="M223.7222 58.6699 L222.7841 58.2008 "/>
<path d="M222.7841 58.2008 L222.3150 57.7317 "/>
<path d="M222.3150 57.7317 L221.8459 56.7936 "/>
<path d="M221.8459 56.7936 L221.8459 54.9172 "/>
<path d="M221.8459 54.9172 L221.3768 53.9791 "/>
<path d="M221.3768 53.9791 L220.9077 53.5100 "/>
<path d="M220.9077 53.5100 L219.9696 53.0409 "/>
<path d="M219.9696 53.0409 L218.0933 53.0409 "/>
<path d="M218.0933 53.0409 L217.1551 53.5100 "/>
<path d="M217.1551 53.5100 L216.6860 53.9791 "/>
<path d="M216.6860 53.9791 L216.2169 54.9172 "/>
<path d="M216.2169 54.9172 L216.2169 56.7936 "/>
<path d="M216.2169 56.7936 L216.6860 57.7317 "/>
<path d="M216.6860 57.7317 L217.1551 58.2008 "/>
<path d="M217.1551 58.2008 L218.0933 58.6699 "/>
<path d="M218.0933 58.6699 L219.9696 58.6699 "/>
<path d="M219.9696 58.6699 L220.9077 58.2008 "/>
<path d="M220.9077 58.2008 L221.3768 57.7317 "/>
<path d="M221.3768 57.7317 L221.8459 56.7936 "/>
<path d="M226.0677 67.5825 L226.0677 62.8917 "/>
<path d="M226.0677 62.8917 L221.3768 62.4226 "/>
<path d="M221.3768 62.4226 L221.8459 62.8917 "/>
<path d="M221.8459 62.8917 L222.3150 63.8298 "/>
<path d="M222.3150 63.8298 L222.3150 66.1752 "/>
<path d="M222.3150 66.1752 L221.8459 67.1134 "/>
<path d="M221.8459 67.1134 L221.3768 67.5825 "/>
<path d="M221.3768 67.5825 L220.4387 68.0516 "/>
<path d="M220.4387 68.0516 L218.0933 68.0516 "/>
<path d="M218.0933 68.0516 L217.1551 67.5825 "/>
<path d="M217.1551 67.5825 L216.6860 67.1134 "/>
<path d="M216.6860 67.1134 L216.2169 66.1752 "/>
<path d="M216.2169 66.1752 L216.2169 63.8298 "/>
<path d="M216.2169 63.8298 L216.6860 62.8917 "/>
<path d="M216.6860 62.8917 L217.1551 62.4226 "/>
<path d="M219.9696 72.2733 L219.9696 79.7787 "/>
<path d="M221.3768 87.7531 L220.9077 89.1603 "/>
<path d="M220.9077 89.1603 L220.4387 89.6294 "/>
<path d="M220.4387 89.6294 L219.5005 90.0985 "/>
<path d="M219.5005 90.0985 L218.0933 90.0985 "/>
<path d="M218.0933 90.0985 L217.1551 89.6294 "/>
<path d="M217.1551 89.6294 L216.6860 89.1603 "/>
<path d="M216.6860 89.1603 L216.2169 88.2221 "/>
<path d="M216.2169 88.2221 L216.2169 84.4695 "/>
<path d="M216.2169 84.4695 L226.0677 84.4695 "/>
<path d="M226.0677 84.4695 L226.0677 87.7531 "/>
<path d="M226.0677 87.7531 L225.5986 88.6912 "/>
<path d="M225.5986 88.6912 L225.1295 89.1603 "/>
<path d="M225.1295 89.1603 L224.1913 89.6294 "/>
<path d="M224.1913 89.6294 L223.2532 89.6294 "/>
<path d="M223.2532 89.6294 L222.3150 89.1603 "/>
<path d="M222.3150 89.1603 L221.8459 88.6912 "/>
<path d="M221.8459 88.6912 L221.3768 87.7531 "/>
<path d="M221.3768 87.7531 L221.3768 84.4695 "/>
<path d="M226.0677 99.0111 L226.0677 94.3202 "/>
<path d="M226.0677 94.3202 L221.3768 93.8511 "/>
<path d="M221.3768 93.8511 L221.8459 94.3202 "/>
<path d="M221.8459 94.3202 L222.3150 95.2584 "/>
<path d="M222.3150 95.2584 L222.3150 97.6038 "/>
<path d="M222.3150 97.6038 L221.8459 98.5420 "/>
<path d="M221.8459 98.5420 L221.3768 99.0111 "/>
<path d="M221.3768 99.0111 L220.4387 99.4801 "/>
<path d="M220.4387 99.4801 L218.0933 99.4801 "/>
<path d="M218.0933 99.4801 L217.1551 99.0111 "/>
<path d="M217.1551 99.0111 L216.6860 98.5420 "/>
<path d="M216.6860 98.5420 L216.2169 97.6038 "/>
<path d="M216.2169 97.6038 L216.2169 95.2584 "/>
<path d="M216.2169 95.2584 L216.6860 94.3202 "/>
<path d="M216.6860 94.3202 L217.1551 93.8511 "/>
<path d="M226.0677 102.2946 L216.2169 105.5782 "/>
<path d="M216.2169 105.5782 L226.0677 108.8618 "/>
<path d="M226.0677 116.3671 L226.0677 114.4908 "/>
<path d="M226.0677 114.4908 L225.5986 113.5526 "/>
<path d="M225.5986 113.5526 L225.1295 113.0836 "/>
<path d="M225.1295 113.0836 L223.7222 112.1454 "/>
<path d="M223.7222 112.1454 L221.8459 111.6763 "/>
<path d="M221.8459 111.6763 L218.0933 111.6763 "/>
<path d="M218.0933 111.6763 L217.1551 112.1454 "/>
<path d="M217.1551 112.1454 L216.6860 112.6145 "/>
<path d="M216.6860 112.6145 L216.2169 113.5526 "/>
<path d="M216.2169 113.5526 L216.2169 115.4290 "/>
<path d="M216.2169 115.4290 L216.6860 116.3671 "/>
<path d="M216.6860 116.3671 L217.1551 116.8362 "/>
<path d="M217.1551 116.8362 L218.0933 117.3053 "/>
<path d="M218.0933 117.3053 L220.4387 117.3053 "/>
<path d="M220.4387 117.3053 L221.3768 116.8362 "/>
<path d="M221.3768 116.8362 L221.8459 116.3671 "/>
<path d="M221.8459 116.3671 L222.3150 115.4290 "/>
<path d="M222.3150 115.4290 L222.3150 113.5526 "/>
<path d="M222.3150 113.5526 L221.8459 112.6145 "/>
<path d="M221.8459 112.6145 L221.3768 112.1454 "/>
<path d="M221.3768 112.1454 L220.4387 111.6763 "/>
<path d="M217.1551 121.5271 L216.6860 121.9961 "/>
<path d="M216.6860 121.9961 L216.2169 121.5271 "/>
<path d="M216.2169 121.5271 L216.6860 121.0580 "/>
<path d="M216.6860 121.0580 L217.1551 121.5271 "/>
<path d="M217.1551 121.5271 L216.2169 121.5271 "/>
<path d="M216.2169 131.3778 L216.2169 125.7488 "/>
<path d="M216.2169 128.5633 L226.0677 128.5633 "/>
<path d="M226.0677 128.5633 L224.6604 127.6251 "/>
<path d="M224.6604 127.6251 L223.7222 126.6870 "/>
<path d="M223.7222 126.6870 L223.2532 125.7488 "/>
<path d="M216.2169 140.7595 L216.2169 135.1305 "/>
<path d="M216.2169 137.9450 L226.0677 137.9450 "/>
<path d="M226.0677 137.9450 L224.6604 137.0068 "/>
<path d="M224.6604 137.0068 L223.7222 136.0686 "/>
<path d="M223.7222 136.0686 L223.2532 135.1305 "/>
<path d="M226.0677 149.6720 L226.0677 144.9812 "/>
<path d="M226.0677 144.9812 L221.3768 144.5121 "/>
<path d="M221.3768 144.5121 L221.8459 144.9812 "/>
<path d="M221.8459 144.9812 L222.3150 145.9194 "/>
<path d="M222.3150 145.9194 L222.3150 148.2648 "/>
<path d="M222.3150 148.2648 L221.8459 149.2029 "/>
<path d="M221.8459 149.2029 L221.3768 149.6720 "/>
<path d="M221.3768 149.6720 L220.4387 150.1411 "/>
<path d="M220.4387 150.1411 L218.0933 150.1411 "/>
<path d="M218.0933 150.1411 L217.1551 149.6720 "/>
<path d="M217.1551 149.6720 L216.6860 149.2029 "/>
<path d="M216.6860 149.2029 L216.2169 148.2648 "/>
<path d="M216.2169 148.2648 L216.2169 145.9194 "/>
<path d="M216.2169 145.9194 L216.6860 144.9812 "/>
<path d="M216.6860 144.9812 L217.1551 144.5121 "/>
</g><g transform="rotate(90.000000 206.1871 98.8173)">
<text x="206.1871" y="103.7427" textLength="21.6951" font-size="13.1343" lengthAdjust="spacingAndGlyphs" text-anchor="middle" opacity="0">D1</text>
</g>
<g class="stroked-text"><desc>D1</desc>
<path d="M201.7068 91.5465 L211.5575 91.5465 "/>
<path d="M211.5575 91.5465 L211.5575 93.8920 "/>
<path d="M211.5575 93.8920 L211.0884 95.2992 "/>
<path d="M211.0884 95.2992 L210.1503 96.2374 "/>
<path d="M210.1503 96.2374 L209.2121 96.7065 "/>
<path d="M209.2121 96.7065 L207.3358 97.1755 "/>
<path d="M207.3358 97.1755 L205.9285 97.1755 "/>
<path d="M205.9285 97.1755 L204.0522 96.7065 "/>
<path d="M204.0522 96.7065 L203.1140 96.2374 "/>
<path d="M203.1140 96.2374 L202.1758 95.2992 "/>
<path d="M202.1758 95.2992 L201.7068 93.8920 "/>
<path d="M201.7068 93.8920 L201.7068 91.5465 "/>
<path d="M201.7068 106.5572 L201.7068 100.9282 "/>
<path d="M201.7068 103.7427 L211.5575 103.7427 "/>
<path d="M211.5575 103.7427 L210.1503 102.8045 "/>
<path d="M210.1503 102.8045 L209.2121 101.8664 "/>
<path d="M209.2121 101.8664 L208.7430 100.9282 "/>
</g><g transform="rotate(90.000000 305.1555 105.0036)">
<text x="305.1555" y="109.9290" textLength="123.0171" font-size="13.1343" lengthAdjust="spacingAndGlyphs" text-anchor="middle" opacity="0">SM04B-GHS-TB</text>
</g>
<g class="stroked-text"><desc>SM04B-GHS-TB</desc>
<path d="M301.1443 46.6027 L300.6752 48.0100 "/>
<path d="M300.6752 48.0100 L300.6752 50.3554 "/>
<path d="M300.6752 50.3554 L301.1443 51.2936 "/>
<path d="M301.1443 51.2936 L301.6134 51.7627 "/>
<path d="M301.6134 51.7627 L302.5516 52.2317 "/>
<path d="M302.5516 52.2317 L303.4897 52.2317 "/>
<path d="M303.4897 52.2317 L304.4279 51.7627 "/>
<path d="M304.4279 51.7627 L304.8970 51.2936 "/>
<path d="M304.8970 51.2936 L305.3661 50.3554 "/>
<path d="M305.3661 50.3554 L305.8352 48.4791 "/>
<path d="M305.8352 48.4791 L306.3042 47.5409 "/>
<path d="M306.3042 47.5409 L306.7733 47.0718 "/>
<path d="M306.7733 47.0718 L307.7115 46.6027 "/>
<path d="M307.7115 46.6027 L308.6497 46.6027 "/>
<path d="M308.6497 46.6027 L309.5878 47.0718 "/>
<path d="M309.5878 47.0718 L310.0569 47.5409 "/>
<path d="M310.0569 47.5409 L310.5260 48.4791 "/>
<path d="M310.5260 48.4791 L310.5260 50.8245 "/>
<path d="M310.5260 50.8245 L310.0569 52.2317 "/>
<path d="M300.6752 56.4535 L310.5260 56.4535 "/>
<path d="M310.5260 56.4535 L303.4897 59.7371 "/>
<path d="M303.4897 59.7371 L310.5260 63.0207 "/>
<path d="M310.5260 63.0207 L300.6752 63.0207 "/>
<path d="M310.5260 69.5878 L310.5260 70.5260 "/>
<path d="M310.5260 70.5260 L310.0569 71.4641 "/>
<path d="M310.0569 71.4641 L309.5878 71.9332 "/>
<path d="M309.5878 71.9332 L308.6497 72.4023 "/>
<path d="M308.6497 72.4023 L306.7733 72.8714 "/>
<path d="M306.7733 72.8714 L304.4279 72.8714 "/>
<path d="M304.4279 72.8714 L302.5516 72.4023 "/>
<path d="M302.5516 72.4023 L301.6134 71.9332 "/>
<path d="M301.6134 71.9332 L301.1443 71.4641 "/>
<path d="M301.1443 71.4641 L300.6752 70.5260 "/>
<path d="M300.6752 70.5260 L300.6752 69.5878 "/>
<path d="M300.6752 69.5878 L301.1443 68.6497 "/>
<path d="M301.1443 68.6497 L301.6134 68.1806 "/>
<path d="M301.6134 68.1806 L302.5516 67.7115 "/>
<path d="M302.5516 67.7115 L304.4279 67.2424 "/>
<path d="M304.4279 67.2424 L306.7733 67.2424 "/>
<path d="M306.7733 67.2424 L308.6497 67.7115 "/>
<path d="M308.6497 67.7115 L309.5878 68.1806 "/>
<path d="M309.5878 68.1806 L310.0569 68.6497 "/>
<path d="M310.0569 68.6497 L310.5260 69.5878 "/>
<path d="M307.2424 81.3149 L300.6752 81.3149 "/>
<path d="M310.9951 78.9695 L303.9588 76.6241 "/>
<path d="M303.9588 76.6241 L303.9588 82.7221 "/>
<path d="M305.8352 89.7584 L305.3661 91.1656 "/>
<path d="M305.3661 91.1656 L304.8970 91.6347 "/>
<path d="M304.8970 91.6347 L303.9588 92.1038 "/>
<path d="M303.9588 92.1038 L302.5516 92.1038 "/>
<path d="M302.5516 92.1038 L301.6134 91.6347 "/>
<path d="M301.6134 91.6347 L301.1443 91.1656 "/>
<path d="M301.1443 91.1656 L300.6752 90.2275 "/>
<path d="M300.6752 90.2275 L300.6752 86.4748 "/>
<path d="M300.6752 86.4748 L310.5260 86.4748 "/>
<path d="M310.5260 86.4748 L310.5260 89.7584 "/>
<path d="M310.5260 89.7584 L310.0569 90.6966 "/>
<path d="M310.0569 90.6966 L309.5878 91.1656 "/>
<path d="M309.5878 91.1656 L308.6497 91.6347 "/>
<path d="M308.6497 91.6347 L307.7115 91.6347 "/>
<path d="M307.7115 91.6347 L306.7733 91.1656 "/>
<path d="M306.7733 91.1656 L306.3042 90.6966 "/>
<path d="M306.3042 90.6966 L305.8352 89.7584 "/>
<path d="M305.8352 89.7584 L305.8352 86.4748 "/>
<path d="M304.4279 96.3256 L304.4279 103.8309 "/>
<path d="M310.0569 113.6816 L310.5260 112.7435 "/>
<path d="M310.5260 112.7435 L310.5260 111.3362 "/>
<path d="M310.5260 111.3362 L310.0569 109.9290 "/>
<path d="M310.0569 109.9290 L309.1187 108.9908 "/>
<path d="M309.1187 108.9908 L308.1806 108.5217 "/>
<path d="M308.1806 108.5217 L306.3042 108.0526 "/>
<path d="M306.3042 108.0526 L304.8970 108.0526 "/>
<path d="M304.8970 108.0526 L303.0207 108.5217 "/>
<path d="M303.0207 108.5217 L302.0825 108.9908 "/>
<path d="M302.0825 108.9908 L301.1443 109.9290 "/>
<path d="M301.1443 109.9290 L300.6752 111.3362 "/>
<path d="M300.6752 111.3362 L300.6752 112.2744 "/>
<path d="M300.6752 112.2744 L301.1443 113.6816 "/>
<path d="M301.1443 113.6816 L301.6134 114.1507 "/>
<path d="M301.6134 114.1507 L304.8970 114.1507 "/>
<path d="M304.8970 114.1507 L304.8970 112.2744 "/>
<path d="M300.6752 118.3725 L310.5260 118.3725 "/>
<path d="M305.8352 118.3725 L305.8352 124.0015 "/>
<path d="M300.6752 124.0015 L310.5260 124.0015 "/>
<path d="M301.1443 128.2232 L300.6752 129.6305 "/>
<path d="M300.6752 129.6305 L300.6752 131.9759 "/>
<path d="M300.6752 131.9759 L301.1443 132.9140 "/>
<path d="M301.1443 132.9140 L301.6134 133.3831 "/>
<path d="M301.6134 133.3831 L302.5516 133.8522 "/>
<path d="M302.5516 133.8522 L303.4897 133.8522 "/>
<path d="M303.4897 133.8522 L304.4279 133.3831 "/>
<path d="M304.4279 133.3831 L304.8970 132.9140 "/>
<path d="M304.8970 132.9140 L305.3661 131.9759 "/>
<path d="M305.3661 131.9759 L305.8352 130.0995 "/>
<path d="M305.8352 130.0995 L306.3042 129.1614 "/>
<path d="M306.3042 129.1614 L306.7733 128.6923 "/>
<path d="M306.7733 128.6923 L307.7115 128.2232 "/>
<path d="M307.7115 128.2232 L308.6497 128.2232 "/>
<path d="M308.6497 128.2232 L309.5878 128.6923 "/>
<path d="M309.5878 128.6923 L310.0569 129.1614 "/>
<path d="M310.0569 129.1614 L310.5260 130.0995 "/>
<path d="M310.5260 130.0995 L310.5260 132.4450 "/>
<path d="M310.5260 132.4450 L310.0569 133.8522 "/>
<path d="M304.4279 138.0740 L304.4279 145.5793 "/>
<path d="M310.5260 148.8629 L310.5260 154.4919 "/>
<path d="M300.6752 151.6774 L310.5260 151.6774 "/>
<path d="M305.8352 161.0590 L305.3661 162.4663 "/>
<path d="M305.3661 162.4663 L304.8970 162.9354 "/>
<path d="M304.8970 162.9354 L303.9588 163.4044 "/>
<path d="M303.9588 163.4044 L302.5516 163.4044 "/>
<path d="M302.5516 163.4044 L301.6134 162.9354 "/>
<path d="M301.6134 162.9354 L301.1443 162.4663 "/>
<path d="M301.1443 162.4663 L300.6752 161.5281 "/>
<path d="M300.6752 161.5281 L300.6752 157.7755 "/>
<path d="M300.6752 157.7755 L310.5260 157.7755 "/>
<path d="M310.5260 157.7755 L310.5260 161.0590 "/>
<path d="M310.5260 161.0590 L310.0569 161.9972 "/>
<path d="M310.0569 161.9972 L309.5878 162.4663 "/>
<path d="M309.5878 162.4663 L308.6497 162.9354 "/>
<path d="M308.6497 162.9354 L307.7115 162.9354 "/>
<path d="M307.7115 162.9354 L306.7733 162.4663 "/>
<path d="M306.7733 162.4663 L306.3042 161.9972 "/>
<path d="M306.3042 161.9972 L305.8352 161.0590 "/>
<path d="M305.8352 161.0590 L305.8352 157.7755 "/>
</g><g transform="rotate(90.000000 266.7376 105.0036)">
<text x="266.7376" y="109.9290" textLength="19.3497" font-size="13.1343" lengthAdjust="spacingAndGlyphs" text-anchor="middle" opacity="0">J1</text>
</g>
<g class="stroked-text"><desc>J1</desc>
<path d="M272.1081 101.7200 L265.0718 101.7200 "/>
<path d="M265.0718 101.7200 L263.6646 101.2509 "/>
<path d="M263.6646 101.2509 L262.7264 100.3128 "/>
<path d="M262.7264 100.3128 L262.2573 98.9055 "/>
<path d="M262.2573 98.9055 L262.2573 97.9673 "/>
<path d="M262.2573 111.5708 L262.2573 105.9418 "/>
<path d="M262.2573 108.7563 L272.1081 108.7563 "/>
<path d="M272.1081 108.7563 L270.7008 107.8181 "/>
<path d="M270.7008 107.8181 L269.7627 106.8799 "/>
<path d="M269.7627 106.8799 L269.2936 105.9418 "/>
</g><g transform="rotate(90.000000 67.4462 105.0036)">
<text x="67.4462" y="109.9290" textLength="47.9638" font-size="13.1343" lengthAdjust="spacingAndGlyphs" text-anchor="middle" opacity="0">100nF</text>
</g>
<g class="stroked-text"><desc>100nF</desc>
<path d="M62.9659 89.7584 L62.9659 84.1294 "/>
<path d="M62.9659 86.9439 L72.8166 86.9439 "/>
<path d="M72.8166 86.9439 L71.4094 86.0057 "/>
<path d="M71.4094 86.0057 L70.4712 85.0676 "/>
<path d="M70.4712 85.0676 L70.0021 84.1294 "/>
<path d="M72.8166 95.8565 L72.8166 96.7946 "/>
<path d="M72.8166 96.7946 L72.3476 97.7328 "/>
<path d="M72.3476 97.7328 L71.8785 98.2019 "/>
<path d="M71.8785 98.2019 L70.9403 98.6710 "/>
<path d="M70.9403 98.6710 L69.0640 99.1400 "/>
<path d="M69.0640 99.1400 L66.7186 99.1400 "/>
<path d="M66.7186 99.1400 L64.8422 98.6710 "/>
<path d="M64.8422 98.6710 L63.9041 98.2019 "/>
<path d="M63.9041 98.2019 L63.4350 97.7328 "/>
<path d="M63.4350 97.7328 L62.9659 96.7946 "/>
<path d="M62.9659 96.7946 L62.9659 95.8565 "/>
<path d="M62.9659 95.8565 L63.4350 94.9183 "/>
<path d="M63.4350 94.9183 L63.9041 94.4492 "/>
<path d="M63.9041 94.4492 L64.8422 93.9801 "/>
<path d="M64.8422 93.9801 L66.7186 93.5111 "/>
<path d="M66.7186 93.5111 L69.0640 93.5111 "/>
<path d="M69.0640 93.5111 L70.9403 93.9801 "/>
<path d="M70.9403 93.9801 L71.8785 94.4492 "/>
<path d="M71.8785 94.4492 L72.3476 94.9183 "/>
<path d="M72.3476 94.9183 L72.8166 95.8565 "/>
<path d="M72.8166 105.2381 L72.8166 106.1763 "/>
<path d="M72.8166 106.1763 L72.3476 107.1145 "/>
<path d="M72.3476 107.1145 L71.8785 107.5835 "/>
<path d="M71.8785 107.5835 L70.9403 108.0526 "/>
<path d="M70.9403 108.0526 L69.0640 108.5217 "/>
<path d="M69.0640 108.5217 L66.7186 108.5217 "/>
<path d="M66.7186 108.5217 L64.8422 108.0526 "/>
<path d="M64.8422 108.0526 L63.9041 107.5835 "/>
<path d="M63.9041 107.5835 L63.4350 107.1145 "/>
<path d="M63.4350 107.1145 L62.9659 106.1763 "/>
<path d="M62.9659 106.1763 L62.9659 105.2381 "/>
<path d="M62.9659 105.2381 L63.4350 104.3000 "/>
<path d="M63.4350 104.3000 L63.9041 103.8309 "/>
<path d="M63.9041 103.8309 L64.8422 103.3618 "/>
<path d="M64.8422 103.3618 L66.7186 102.8927 "/>
<path d="M66.7186 102.8927 L69.0640 102.8927 "/>
<path d="M69.0640 102.8927 L70.9403 103.3618 "/>
<path d="M70.9403 103.3618 L71.8785 103.8309 "/>
<path d="M71.8785 103.8309 L72.3476 104.3000 "/>
<path d="M72.3476 104.3000 L72.8166 105.2381 "/>
<path d="M69.5331 112.7435 L62.9659 112.7435 "/>
<path d="M68.5949 112.7435 L69.0640 113.2125 "/>
<path d="M69.0640 113.2125 L69.5331 114.1507 "/>
<path d="M69.5331 114.1507 L69.5331 115.5580 "/>
<path d="M69.5331 115.5580 L69.0640 116.4961 "/>
<path d="M69.0640 116.4961 L68.1258 116.9652 "/>
<path d="M68.1258 116.9652 L62.9659 116.9652 "/>
<path d="M68.1258 124.9396 L68.1258 121.6560 "/>
<path d="M62.9659 121.6560 L72.8166 121.6560 "/>
<path d="M72.8166 121.6560 L72.8166 126.3469 "/>
</g></g>
<g style="fill:none;  stroke:#000084; stroke-width:0.5910; stroke-opacity:1;  stroke-linecap:round; stroke-linejoin:round;">
<g transform="rotate(90.000000 53.3596 105.0036)">
<text x="53.3596" y="106.9737" textLength="8.6780" font-size="5.2537" lengthAdjust="spacingAndGlyphs" text-anchor="middle" opacity="0">C5</text>
</g>
<g class="stroked-text"><desc>C5</desc>
<path d="M51.9428 104.3469 L51.7551 104.1592 "/>
<path d="M51.7551 104.1592 L51.5675 103.5963 "/>
<path d="M51.5675 103.5963 L51.5675 103.2211 "/>
<path d="M51.5675 103.2211 L51.7551 102.6582 "/>
<path d="M51.7551 102.6582 L52.1304 102.2829 "/>
<path d="M52.1304 102.2829 L52.5057 102.0953 "/>
<path d="M52.5057 102.0953 L53.2562 101.9076 "/>
<path d="M53.2562 101.9076 L53.8191 101.9076 "/>
<path d="M53.8191 101.9076 L54.5697 102.0953 "/>
<path d="M54.5697 102.0953 L54.9449 102.2829 "/>
<path d="M54.9449 102.2829 L55.3202 102.6582 "/>
<path d="M55.3202 102.6582 L55.5078 103.2211 "/>
<path d="M55.5078 103.2211 L55.5078 103.5963 "/>
<path d="M55.5078 103.5963 L55.3202 104.1592 "/>
<path d="M55.3202 104.1592 L55.1326 104.3469 "/>
<path d="M55.5078 107.9119 L55.5078 106.0356 "/>
<path d="M55.5078 106.0356 L53.6315 105.8479 "/>
<path d="M53.6315 105.8479 L53.8191 106.0356 "/>
<path d="M53.8191 106.0356 L54.0067 106.4108 "/>
<path d="M54.0067 106.4108 L54.0067 107.3490 "/>
<path d="M54.0067 107.3490 L53.8191 107.7243 "/>
<path d="M53.8191 107.7243 L53.6315 107.9119 "/>
<path d="M53.6315 107.9119 L53.2562 108.0995 "/>
<path d="M53.2562 108.0995 L52.3180 108.0995 "/>
<path d="M52.3180 108.0995 L51.9428 107.9119 "/>
<path d="M51.9428 107.9119 L51.7551 107.7243 "/>
<path d="M51.7551 107.7243 L51.5675 107.3490 "/>
<path d="M51.5675 107.3490 L51.5675 106.4108 "/>
<path d="M51.5675 106.4108 L51.7551 106.0356 "/>
<path d="M51.7551 106.0356 L51.9428 105.8479 "/>
</g></g>
<g style="fill:none;  stroke:#000084; stroke-width:1.4776; stroke-opacity:1;  stroke-linecap:round; stroke-linejoin:round;">
<g transform="rotate(90.000000 180.2402 137.5997)">
<text x="180.2402" y="142.5251" textLength="29.2004" font-size="13.1343" lengthAdjust="spacingAndGlyphs" text-anchor="middle" opacity="0">1uF</text>
</g>
<g class="stroked-text"><desc>1uF</desc>
<path d="M175.7599 131.7362 L175.7599 126.1072 "/>
<path d="M175.7599 128.9217 L185.6106 128.9217 "/>
<path d="M185.6106 128.9217 L184.2034 127.9835 "/>
<path d="M184.2034 127.9835 L183.2652 127.0453 "/>
<path d="M183.2652 127.0453 L182.7961 126.1072 "/>
<path d="M182.3271 140.1797 L175.7599 140.1797 "/>
<path d="M182.3271 135.9579 L177.1672 135.9579 "/>
<path d="M177.1672 135.9579 L176.2290 136.4270 "/>
<path d="M176.2290 136.4270 L175.7599 137.3652 "/>
<path d="M175.7599 137.3652 L175.7599 138.7724 "/>
<path d="M175.7599 138.7724 L176.2290 139.7106 "/>
<path d="M176.2290 139.7106 L176.6981 140.1797 "/>
<path d="M180.9198 148.1541 L180.9198 144.8705 "/>
<path d="M175.7599 144.8705 L185.6106 144.8705 "/>
<path d="M185.6106 144.8705 L185.6106 149.5613 "/>
</g></g>
<g style="fill:none;  stroke:#000084; stroke-width:0.5910; stroke-opacity:1;  stroke-linecap:round; stroke-linejoin:round;">
<g transform="rotate(90.000000 166.1536 137.5997)">
<text x="166.1536" y="139.5699" textLength="8.6780" font-size="5.2537" lengthAdjust="spacingAndGlyphs" text-anchor="middle" opacity="0">C1</text>
</g>
<g class="stroked-text"><desc>C1</desc>
<path d="M164.7368 136.9430 L164.5491 136.7554 "/>
<path d="M164.5491 136.7554 L164.3615 136.1925 "/>
<path d="M164.3615 136.1925 L164.3615 135.8172 "/>
<path d="M164.3615 135.8172 L164.5491 135.2543 "/>
<path d="M164.5491 135.2543 L164.9244 134.8790 "/>
<path d="M164.9244 134.8790 L165.2997 134.6914 "/>
<path d="M165.2997 134.6914 L166.0502 134.5038 "/>
<path d="M166.0502 134.5038 L166.6131 134.5038 "/>
<path d="M166.6131 134.5038 L167.3637 134.6914 "/>
<path d="M167.3637 134.6914 L167.7389 134.8790 "/>
<path d="M167.7389 134.8790 L168.1142 135.2543 "/>
<path d="M168.1142 135.2543 L168.3018 135.8172 "/>
<path d="M168.3018 135.8172 L168.3018 136.1925 "/>
<path d="M168.3018 136.1925 L168.1142 136.7554 "/>
<path d="M168.1142 136.7554 L167.9266 136.9430 "/>
<path d="M164.3615 140.6957 L164.3615 138.4441 "/>
<path d="M164.3615 139.5699 L168.3018 139.5699 "/>
<path d="M168.3018 139.5699 L167.7389 139.1946 "/>
<path d="M167.7389 139.1946 L167.3637 138.8193 "/>
<path d="M167.3637 138.8193 L167.1760 138.4441 "/>
</g></g>
<g style="fill:none;  stroke:#000084; stroke-width:1.4776; stroke-opacity:1;  stroke-linecap:round; stroke-linejoin:round;">
<g transform="rotate(90.000000 208.4035 138.6006)">
<text x="208.4035" y="143.5259" textLength="38.5821" font-size="13.1343" lengthAdjust="spacingAndGlyphs" text-anchor="middle" opacity="0">10uF</text>
</g>
<g class="stroked-text"><desc>10uF</desc>
<path d="M203.9232 128.0462 L203.9232 122.4172 "/>
<path d="M203.9232 125.2317 L213.7739 125.2317 "/>
<path d="M213.7739 125.2317 L212.3667 124.2935 "/>
<path d="M212.3667 124.2935 L211.4285 123.3553 "/>
<path d="M211.4285 123.3553 L210.9594 122.4172 "/>
<path d="M213.7739 134.1443 L213.7739 135.0824 "/>
<path d="M213.7739 135.0824 L213.3048 136.0206 "/>
<path d="M213.3048 136.0206 L212.8358 136.4897 "/>
<path d="M212.8358 136.4897 L211.8976 136.9588 "/>
<path d="M211.8976 136.9588 L210.0213 137.4278 "/>
<path d="M210.0213 137.4278 L207.6758 137.4278 "/>
<path d="M207.6758 137.4278 L205.7995 136.9588 "/>
<path d="M205.7995 136.9588 L204.8614 136.4897 "/>
<path d="M204.8614 136.4897 L204.3923 136.0206 "/>
<path d="M204.3923 136.0206 L203.9232 135.0824 "/>
<path d="M203.9232 135.0824 L203.9232 134.1443 "/>
<path d="M203.9232 134.1443 L204.3923 133.2061 "/>
<path d="M204.3923 133.2061 L204.8614 132.7370 "/>
<path d="M204.8614 132.7370 L205.7995 132.2679 "/>
<path d="M205.7995 132.2679 L207.6758 131.7988 "/>
<path d="M207.6758 131.7988 L210.0213 131.7988 "/>
<path d="M210.0213 131.7988 L211.8976 132.2679 "/>
<path d="M211.8976 132.2679 L212.8358 132.7370 "/>
<path d="M212.8358 132.7370 L213.3048 133.2061 "/>
<path d="M213.3048 133.2061 L213.7739 134.1443 "/>
<path d="M210.4903 145.8713 L203.9232 145.8713 "/>
<path d="M210.4903 141.6496 L205.3304 141.6496 "/>
<path d="M205.3304 141.6496 L204.3923 142.1187 "/>
<path d="M204.3923 142.1187 L203.9232 143.0568 "/>
<path d="M203.9232 143.0568 L203.9232 144.4641 "/>
<path d="M203.9232 144.4641 L204.3923 145.4023 "/>
<path d="M204.3923 145.4023 L204.8614 145.8713 "/>
<path d="M209.0831 153.8458 L209.0831 150.5622 "/>
<path d="M203.9232 150.5622 L213.7739 150.5622 "/>
<path d="M213.7739 150.5622 L213.7739 155.2530 "/>
</g></g>
<g style="fill:none;  stroke:#000084; stroke-width:0.7881; stroke-opacity:1;  stroke-linecap:round; stroke-linejoin:round;">
<g transform="rotate(90.000000 224.9527 138.6006)">
<text x="224.9527" y="141.0632" textLength="10.9953" font-size="6.5672" lengthAdjust="spacingAndGlyphs" text-anchor="middle" opacity="0">C3</text>
</g>
<g class="stroked-text"><desc>C3</desc>
<path d="M223.1842 137.7796 L222.9497 137.5451 "/>
<path d="M222.9497 137.5451 L222.7152 136.8415 "/>
<path d="M222.7152 136.8415 L222.7152 136.3724 "/>
<path d="M222.7152 136.3724 L222.9497 135.6688 "/>
<path d="M222.9497 135.6688 L223.4188 135.1997 "/>
<path d="M223.4188 135.1997 L223.8879 134.9652 "/>
<path d="M223.8879 134.9652 L224.8260 134.7306 "/>
<path d="M224.8260 134.7306 L225.5296 134.7306 "/>
<path d="M225.5296 134.7306 L226.4678 134.9652 "/>
<path d="M226.4678 134.9652 L226.9369 135.1997 "/>
<path d="M226.9369 135.1997 L227.4060 135.6688 "/>
<path d="M227.4060 135.6688 L227.6405 136.3724 "/>
<path d="M227.6405 136.3724 L227.6405 136.8415 "/>
<path d="M227.6405 136.8415 L227.4060 137.5451 "/>
<path d="M227.4060 137.5451 L227.1714 137.7796 "/>
<path d="M227.6405 139.4214 L227.6405 142.4705 "/>
<path d="M227.6405 142.4705 L225.7642 140.8287 "/>
<path d="M225.7642 140.8287 L225.7642 141.5323 "/>
<path d="M225.7642 141.5323 L225.5296 142.0014 "/>
<path d="M225.5296 142.0014 L225.2951 142.2359 "/>
<path d="M225.2951 142.2359 L224.8260 142.4705 "/>
<path d="M224.8260 142.4705 L223.6533 142.4705 "/>
<path d="M223.6533 142.4705 L223.1842 142.2359 "/>
<path d="M223.1842 142.2359 L222.9497 142.0014 "/>
<path d="M222.9497 142.0014 L222.7152 141.5323 "/>
<path d="M222.7152 141.5323 L222.7152 140.1251 "/>
<path d="M222.7152 140.1251 L222.9497 139.6560 "/>
<path d="M222.9497 139.6560 L223.1842 139.4214 "/>
</g></g>
<g style="fill:none;  stroke:#000084; stroke-width:1.4776; stroke-opacity:1;  stroke-linecap:round; stroke-linejoin:round;">
<text x="194.4272" y="115.2090" textLength="130.5224" font-size="13.1343" lengthAdjust="spacingAndGlyphs" text-anchor="middle" opacity="0">MIC5504-3.3YM5</text>
<g class="stroked-text"><desc>MIC5504-3.3YM5</desc>
<path d="M132.7428 114.7639 L132.7428 104.9132 "/>
<path d="M132.7428 104.9132 L136.0264 111.9494 "/>
<path d="M136.0264 111.9494 L139.3100 104.9132 "/>
<path d="M139.3100 104.9132 L139.3100 114.7639 "/>
<path d="M144.0008 114.7639 L144.0008 104.9132 "/>
<path d="M154.3206 113.8257 L153.8516 114.2948 "/>
<path d="M153.8516 114.2948 L152.4443 114.7639 "/>
<path d="M152.4443 114.7639 L151.5061 114.7639 "/>
<path d="M151.5061 114.7639 L150.0989 114.2948 "/>
<path d="M150.0989 114.2948 L149.1607 113.3566 "/>
<path d="M149.1607 113.3566 L148.6916 112.4185 "/>
<path d="M148.6916 112.4185 L148.2226 110.5421 "/>
<path d="M148.2226 110.5421 L148.2226 109.1349 "/>
<path d="M148.2226 109.1349 L148.6916 107.2586 "/>
<path d="M148.6916 107.2586 L149.1607 106.3204 "/>
<path d="M149.1607 106.3204 L150.0989 105.3822 "/>
<path d="M150.0989 105.3822 L151.5061 104.9132 "/>
<path d="M151.5061 104.9132 L152.4443 104.9132 "/>
<path d="M152.4443 104.9132 L153.8516 105.3822 "/>
<path d="M153.8516 105.3822 L154.3206 105.8513 "/>
<path d="M163.2332 104.9132 L158.5424 104.9132 "/>
<path d="M158.5424 104.9132 L158.0733 109.6040 "/>
<path d="M158.0733 109.6040 L158.5424 109.1349 "/>
<path d="M158.5424 109.1349 L159.4806 108.6658 "/>
<path d="M159.4806 108.6658 L161.8260 108.6658 "/>
<path d="M161.8260 108.6658 L162.7641 109.1349 "/>
<path d="M162.7641 109.1349 L163.2332 109.6040 "/>
<path d="M163.2332 109.6040 L163.7023 110.5421 "/>
<path d="M163.7023 110.5421 L163.7023 112.8876 "/>
<path d="M163.7023 112.8876 L163.2332 113.8257 "/>
<path d="M163.2332 113.8257 L162.7641 114.2948 "/>
<path d="M162.7641 114.2948 L161.8260 114.7639 "/>
<path d="M161.8260 114.7639 L159.4806 114.7639 "/>
<path d="M159.4806 114.7639 L158.5424 114.2948 "/>
<path d="M158.5424 114.2948 L158.0733 113.8257 "/>
<path d="M172.6149 104.9132 L167.9241 104.9132 "/>
<path d="M167.9241 104.9132 L167.4550 109.6040 "/>
<path d="M167.4550 109.6040 L167.9241 109.1349 "/>
<path d="M167.9241 109.1349 L168.8622 108.6658 "/>
<path d="M168.8622 108.6658 L171.2076 108.6658 "/>
<path d="M171.2076 108.6658 L172.1458 109.1349 "/>
<path d="M172.1458 109.1349 L172.6149 109.6040 "/>
<path d="M172.6149 109.6040 L173.0840 110.5421 "/>
<path d="M173.0840 110.5421 L173.0840 112.8876 "/>
<path d="M173.0840 112.8876 L172.6149 113.8257 "/>
<path d="M172.6149 113.8257 L172.1458 114.2948 "/>
<path d="M172.1458 114.2948 L171.2076 114.7639 "/>
<path d="M171.2076 114.7639 L168.8622 114.7639 "/>
<path d="M168.8622 114.7639 L167.9241 114.2948 "/>
<path d="M167.9241 114.2948 L167.4550 113.8257 "/>
<path d="M179.1821 104.9132 L180.1202 104.9132 "/>
<path d="M180.1202 104.9132 L181.0584 105.3822 "/>
<path d="M181.0584 105.3822 L181.5275 105.8513 "/>
<path d="M181.5275 105.8513 L181.9965 106.7895 "/>
<path d="M181.9965 106.7895 L182.4656 108.6658 "/>
<path d="M182.4656 108.6658 L182.4656 111.0112 "/>
<path d="M182.4656 111.0112 L181.9965 112.8876 "/>
<path d="M181.9965 112.8876 L181.5275 113.8257 "/>
<path d="M181.5275 113.8257 L181.0584 114.2948 "/>
<path d="M181.0584 114.2948 L180.1202 114.7639 "/>
<path d="M180.1202 114.7639 L179.1821 114.7639 "/>
<path d="M179.1821 114.7639 L178.2439 114.2948 "/>
<path d="M178.2439 114.2948 L177.7748 113.8257 "/>
<path d="M177.7748 113.8257 L177.3057 112.8876 "/>
<path d="M177.3057 112.8876 L176.8366 111.0112 "/>
<path d="M176.8366 111.0112 L176.8366 108.6658 "/>
<path d="M176.8366 108.6658 L177.3057 106.7895 "/>
<path d="M177.3057 106.7895 L177.7748 105.8513 "/>
<path d="M177.7748 105.8513 L178.2439 105.3822 "/>
<path d="M178.2439 105.3822 L179.1821 104.9132 "/>
<path d="M190.9091 108.1967 L190.9091 114.7639 "/>
<path d="M188.5637 104.4441 L186.2183 111.4803 "/>
<path d="M186.2183 111.4803 L192.3164 111.4803 "/>
<path d="M196.0691 111.0112 L203.5744 111.0112 "/>
<path d="M207.3270 104.9132 L213.4251 104.9132 "/>
<path d="M213.4251 104.9132 L210.1415 108.6658 "/>
<path d="M210.1415 108.6658 L211.5488 108.6658 "/>
<path d="M211.5488 108.6658 L212.4870 109.1349 "/>
<path d="M212.4870 109.1349 L212.9560 109.6040 "/>
<path d="M212.9560 109.6040 L213.4251 110.5421 "/>
<path d="M213.4251 110.5421 L213.4251 112.8876 "/>
<path d="M213.4251 112.8876 L212.9560 113.8257 "/>
<path d="M212.9560 113.8257 L212.4870 114.2948 "/>
<path d="M212.4870 114.2948 L211.5488 114.7639 "/>
<path d="M211.5488 114.7639 L208.7343 114.7639 "/>
<path d="M208.7343 114.7639 L207.7961 114.2948 "/>
<path d="M207.7961 114.2948 L207.3270 113.8257 "/>
<path d="M217.6469 113.8257 L218.1160 114.2948 "/>
<path d="M218.1160 114.2948 L217.6469 114.7639 "/>
<path d="M217.6469 114.7639 L217.1778 114.2948 "/>
<path d="M217.1778 114.2948 L217.6469 113.8257 "/>
<path d="M217.6469 113.8257 L217.6469 114.7639 "/>
<path d="M221.3995 104.9132 L227.4976 104.9132 "/>
<path d="M227.4976 104.9132 L224.2140 108.6658 "/>
<path d="M224.2140 108.6658 L225.6213 108.6658 "/>
<path d="M225.6213 108.6658 L226.5594 109.1349 "/>
<path d="M226.5594 109.1349 L227.0285 109.6040 "/>
<path d="M227.0285 109.6040 L227.4976 110.5421 "/>
<path d="M227.4976 110.5421 L227.4976 112.8876 "/>
<path d="M227.4976 112.8876 L227.0285 113.8257 "/>
<path d="M227.0285 113.8257 L226.5594 114.2948 "/>
<path d="M226.5594 114.2948 L225.6213 114.7639 "/>
<path d="M225.6213 114.7639 L222.8068 114.7639 "/>
<path d="M222.8068 114.7639 L221.8686 114.2948 "/>
<path d="M221.8686 114.2948 L221.3995 113.8257 "/>
<path d="M233.5957 110.0731 L233.5957 114.7639 "/>
<path d="M230.3121 104.9132 L233.5957 110.0731 "/>
<path d="M233.5957 110.0731 L236.8793 104.9132 "/>
<path d="M240.1629 114.7639 L240.1629 104.9132 "/>
<path d="M240.1629 104.9132 L243.4464 111.9494 "/>
<path d="M243.4464 111.9494 L246.7300 104.9132 "/>
<path d="M246.7300 104.9132 L246.7300 114.7639 "/>
<path d="M256.1117 104.9132 L251.4209 104.9132 "/>
<path d="M251.4209 104.9132 L250.9518 109.6040 "/>
<path d="M250.9518 109.6040 L251.4209 109.1349 "/>
<path d="M251.4209 109.1349 L252.3590 108.6658 "/>
<path d="M252.3590 108.6658 L254.7044 108.6658 "/>
<path d="M254.7044 108.6658 L255.6426 109.1349 "/>
<path d="M255.6426 109.1349 L256.1117 109.6040 "/>
<path d="M256.1117 109.6040 L256.5808 110.5421 "/>
<path d="M256.5808 110.5421 L256.5808 112.8876 "/>
<path d="M256.5808 112.8876 L256.1117 113.8257 "/>
<path d="M256.1117 113.8257 L255.6426 114.2948 "/>
<path d="M255.6426 114.2948 L254.7044 114.7639 "/>
<path d="M254.7044 114.7639 L252.3590 114.7639 "/>
<path d="M252.3590 114.7639 L251.4209 114.2948 "/>
<path d="M251.4209 114.2948 L250.9518 113.8257 "/>
</g></g>
<g style="fill:none;  stroke:#000084; stroke-width:0.7388; stroke-opacity:1;  stroke-linecap:round; stroke-linejoin:round;">
<g transform="rotate(90.000000 194.4272 138.8508)">
<text x="194.4272" y="141.3134" textLength="11.0821" font-size="6.5672" lengthAdjust="spacingAndGlyphs" text-anchor="middle" opacity="0">U3</text>
</g>
<g class="stroked-text"><desc>U3</desc>
<path d="M197.1125 135.0981 L193.1253 135.0981 "/>
<path d="M193.1253 135.0981 L192.6562 135.3326 "/>
<path d="M192.6562 135.3326 L192.4216 135.5672 "/>
<path d="M192.4216 135.5672 L192.1871 136.0363 "/>
<path d="M192.1871 136.0363 L192.1871 136.9744 "/>
<path d="M192.1871 136.9744 L192.4216 137.4435 "/>
<path d="M192.4216 137.4435 L192.6562 137.6780 "/>
<path d="M192.6562 137.6780 L193.1253 137.9126 "/>
<path d="M193.1253 137.9126 L197.1125 137.9126 "/>
<path d="M197.1125 139.7889 L197.1125 142.8380 "/>
<path d="M197.1125 142.8380 L195.2361 141.1962 "/>
<path d="M195.2361 141.1962 L195.2361 141.8998 "/>
<path d="M195.2361 141.8998 L195.0016 142.3689 "/>
<path d="M195.0016 142.3689 L194.7671 142.6034 "/>
<path d="M194.7671 142.6034 L194.2980 142.8380 "/>
<path d="M194.2980 142.8380 L193.1253 142.8380 "/>
<path d="M193.1253 142.8380 L192.6562 142.6034 "/>
<path d="M192.6562 142.6034 L192.4216 142.3689 "/>
<path d="M192.4216 142.3689 L192.1871 141.8998 "/>
<path d="M192.1871 141.8998 L192.1871 140.4926 "/>
<path d="M192.1871 140.4926 L192.4216 140.0235 "/>
<path d="M192.4216 140.0235 L192.6562 139.7889 "/>
</g></g>
<g style="fill:none;  stroke:#000084; stroke-width:1.4776; stroke-opacity:1;  stroke-linecap:round; stroke-linejoin:round;">
<g transform="rotate(90.000000 181.2410 103.5713)">
<text x="181.2410" y="108.4967" textLength="29.2004" font-size="13.1343" lengthAdjust="spacingAndGlyphs" text-anchor="middle" opacity="0">10k</text>
</g>
<g class="stroked-text"><desc>10k</desc>
<path d="M176.7607 97.7077 L176.7607 92.0788 "/>
<path d="M176.7607 94.8933 L186.6115 94.8933 "/>
<path d="M186.6115 94.8933 L185.2042 93.9551 "/>
<path d="M185.2042 93.9551 L184.2661 93.0169 "/>
<path d="M184.2661 93.0169 L183.7970 92.0788 "/>
<path d="M186.6115 103.8058 L186.6115 104.7440 "/>
<path d="M186.6115 104.7440 L186.1424 105.6822 "/>
<path d="M186.1424 105.6822 L185.6733 106.1512 "/>
<path d="M185.6733 106.1512 L184.7351 106.6203 "/>
<path d="M184.7351 106.6203 L182.8588 107.0894 "/>
<path d="M182.8588 107.0894 L180.5134 107.0894 "/>
<path d="M180.5134 107.0894 L178.6371 106.6203 "/>
<path d="M178.6371 106.6203 L177.6989 106.1512 "/>
<path d="M177.6989 106.1512 L177.2298 105.6822 "/>
<path d="M177.2298 105.6822 L176.7607 104.7440 "/>
<path d="M176.7607 104.7440 L176.7607 103.8058 "/>
<path d="M176.7607 103.8058 L177.2298 102.8677 "/>
<path d="M177.2298 102.8677 L177.6989 102.3986 "/>
<path d="M177.6989 102.3986 L178.6371 101.9295 "/>
<path d="M178.6371 101.9295 L180.5134 101.4604 "/>
<path d="M180.5134 101.4604 L182.8588 101.4604 "/>
<path d="M182.8588 101.4604 L184.7351 101.9295 "/>
<path d="M184.7351 101.9295 L185.6733 102.3986 "/>
<path d="M185.6733 102.3986 L186.1424 102.8677 "/>
<path d="M186.1424 102.8677 L186.6115 103.8058 "/>
<path d="M176.7607 111.3112 L186.6115 111.3112 "/>
<path d="M180.5134 112.2493 L176.7607 115.0638 "/>
<path d="M183.3279 115.0638 L179.5752 111.3112 "/>
</g></g>
<g style="fill:none;  stroke:#000084; stroke-width:0.5910; stroke-opacity:1;  stroke-linecap:round; stroke-linejoin:round;">
<g transform="rotate(90.000000 167.1545 103.5713)">
<text x="167.1545" y="105.5414" textLength="8.6780" font-size="5.2537" lengthAdjust="spacingAndGlyphs" text-anchor="middle" opacity="0">R3</text>
</g>
<g class="stroked-text"><desc>R3</desc>
<path d="M165.3624 102.9146 L167.2387 101.6011 "/>
<path d="M165.3624 100.6630 L169.3027 100.6630 "/>
<path d="M169.3027 100.6630 L169.3027 102.1640 "/>
<path d="M169.3027 102.1640 L169.1150 102.5393 "/>
<path d="M169.1150 102.5393 L168.9274 102.7269 "/>
<path d="M168.9274 102.7269 L168.5521 102.9146 "/>
<path d="M168.5521 102.9146 L167.9892 102.9146 "/>
<path d="M167.9892 102.9146 L167.6139 102.7269 "/>
<path d="M167.6139 102.7269 L167.4263 102.5393 "/>
<path d="M167.4263 102.5393 L167.2387 102.1640 "/>
<path d="M167.2387 102.1640 L167.2387 100.6630 "/>
<path d="M169.3027 104.2280 L169.3027 106.6672 "/>
<path d="M169.3027 106.6672 L167.8016 105.3538 "/>
<path d="M167.8016 105.3538 L167.8016 105.9167 "/>
<path d="M167.8016 105.9167 L167.6139 106.2920 "/>
<path d="M167.6139 106.2920 L167.4263 106.4796 "/>
<path d="M167.4263 106.4796 L167.0510 106.6672 "/>
<path d="M167.0510 106.6672 L166.1129 106.6672 "/>
<path d="M166.1129 106.6672 L165.7376 106.4796 "/>
<path d="M165.7376 106.4796 L165.5500 106.2920 "/>
<path d="M165.5500 106.2920 L165.3624 105.9167 "/>
<path d="M165.3624 105.9167 L165.3624 104.7909 "/>
<path d="M165.3624 104.7909 L165.5500 104.4156 "/>
<path d="M165.5500 104.4156 L165.7376 104.2280 "/>
</g></g>
<g style="fill:none;  stroke:#000084; stroke-width:1.4776; stroke-opacity:1;  stroke-linecap:round; stroke-linejoin:round;">
<g transform="rotate(90.000000 196.7540 103.5713)">
<text x="196.7540" y="108.4967" textLength="29.2004" font-size="13.1343" lengthAdjust="spacingAndGlyphs" text-anchor="middle" opacity="0">10k</text>
</g>
<g class="stroked-text"><desc>10k</desc>
<path d="M192.2737 97.7077 L192.2737 92.0788 "/>
<path d="M192.2737 94.8933 L202.1244 94.8933 "/>
<path d="M202.1244 94.8933 L200.7172 93.9551 "/>
<path d="M200.7172 93.9551 L199.7790 93.0169 "/>
<path d="M199.7790 93.0169 L199.3099 92.0788 "/>
<path d="M202.1244 103.8058 L202.1244 104.7440 "/>
<path d="M202.1244 104.7440 L201.6553 105.6822 "/>
<path d="M201.6553 105.6822 L201.1863 106.1512 "/>
<path d="M201.1863 106.1512 L200.2481 106.6203 "/>
<path d="M200.2481 106.6203 L198.3718 107.0894 "/>
<path d="M198.3718 107.0894 L196.0264 107.0894 "/>
<path d="M196.0264 107.0894 L194.1500 106.6203 "/>
<path d="M194.1500 106.6203 L193.2119 106.1512 "/>
<path d="M193.2119 106.1512 L192.7428 105.6822 "/>
<path d="M192.7428 105.6822 L192.2737 104.7440 "/>
<path d="M192.2737 104.7440 L192.2737 103.8058 "/>
<path d="M192.2737 103.8058 L192.7428 102.8677 "/>
<path d="M192.7428 102.8677 L193.2119 102.3986 "/>
<path d="M193.2119 102.3986 L194.1500 101.9295 "/>
<path d="M194.1500 101.9295 L196.0264 101.4604 "/>
<path d="M196.0264 101.4604 L198.3718 101.4604 "/>
<path d="M198.3718 101.4604 L200.2481 101.9295 "/>
<path d="M200.2481 101.9295 L201.1863 102.3986 "/>
<path d="M201.1863 102.3986 L201.6553 102.8677 "/>
<path d="M201.6553 102.8677 L202.1244 103.8058 "/>
<path d="M192.2737 111.3112 L202.1244 111.3112 "/>
<path d="M196.0264 112.2493 L192.2737 115.0638 "/>
<path d="M198.8409 115.0638 L195.0882 111.3112 "/>
</g></g>
<g style="fill:none;  stroke:#000084; stroke-width:0.5910; stroke-opacity:1;  stroke-linecap:round; stroke-linejoin:round;">
<g transform="rotate(90.000000 182.6674 103.5713)">
<text x="182.6674" y="105.5414" textLength="12.4307" font-size="5.2537" lengthAdjust="spacingAndGlyphs" text-anchor="middle" opacity="0">R10</text>
</g>
<g class="stroked-text"><desc>R10</desc>
<path d="M180.8753 101.0382 L182.7516 99.7248 "/>
<path d="M180.8753 98.7867 L184.8156 98.7867 "/>
<path d="M184.8156 98.7867 L184.8156 100.2877 "/>
<path d="M184.8156 100.2877 L184.6280 100.6630 "/>
<path d="M184.6280 100.6630 L184.4403 100.8506 "/>
<path d="M184.4403 100.8506 L184.0651 101.0382 "/>
<path d="M184.0651 101.0382 L183.5022 101.0382 "/>
<path d="M183.5022 101.0382 L183.1269 100.8506 "/>
<path d="M183.1269 100.8506 L182.9393 100.6630 "/>
<path d="M182.9393 100.6630 L182.7516 100.2877 "/>
<path d="M182.7516 100.2877 L182.7516 98.7867 "/>
<path d="M180.8753 104.7909 L180.8753 102.5393 "/>
<path d="M180.8753 103.6651 L184.8156 103.6651 "/>
<path d="M184.8156 103.6651 L184.2527 103.2898 "/>
<path d="M184.2527 103.2898 L183.8774 102.9146 "/>
<path d="M183.8774 102.9146 L183.6898 102.5393 "/>
<path d="M184.8156 107.2301 L184.8156 107.6054 "/>
<path d="M184.8156 107.6054 L184.6280 107.9807 "/>
<path d="M184.6280 107.9807 L184.4403 108.1683 "/>
<path d="M184.4403 108.1683 L184.0651 108.3559 "/>
<path d="M184.0651 108.3559 L183.3145 108.5436 "/>
<path d="M183.3145 108.5436 L182.3764 108.5436 "/>
<path d="M182.3764 108.5436 L181.6258 108.3559 "/>
<path d="M181.6258 108.3559 L181.2506 108.1683 "/>
<path d="M181.2506 108.1683 L181.0629 107.9807 "/>
<path d="M181.0629 107.9807 L180.8753 107.6054 "/>
<path d="M180.8753 107.6054 L180.8753 107.2301 "/>
<path d="M180.8753 107.2301 L181.0629 106.8549 "/>
<path d="M181.0629 106.8549 L181.2506 106.6672 "/>
<path d="M181.2506 106.6672 L181.6258 106.4796 "/>
<path d="M181.6258 106.4796 L182.3764 106.2920 "/>
<path d="M182.3764 106.2920 L183.3145 106.2920 "/>
<path d="M183.3145 106.2920 L184.0651 106.4796 "/>
<path d="M184.0651 106.4796 L184.4403 106.6672 "/>
<path d="M184.4403 106.6672 L184.6280 106.8549 "/>
<path d="M184.6280 106.8549 L184.8156 107.2301 "/>
</g></g>
<g style="fill:none;  stroke:#000084; stroke-width:1.4776; stroke-opacity:1;  stroke-linecap:round; stroke-linejoin:round;">
<g transform="rotate(90.000000 237.2465 81.0525)">
<text x="237.2465" y="85.9779" textLength="19.8188" font-size="13.1343" lengthAdjust="spacingAndGlyphs" text-anchor="middle" opacity="0">1k</text>
</g>
<g class="stroked-text"><desc>1k</desc>
<path d="M232.7662 79.8798 L232.7662 74.2508 "/>
<path d="M232.7662 77.0653 L242.6169 77.0653 "/>
<path d="M242.6169 77.0653 L241.2097 76.1271 "/>
<path d="M241.2097 76.1271 L240.2715 75.1890 "/>
<path d="M240.2715 75.1890 L239.8024 74.2508 "/>
<path d="M232.7662 84.1015 L242.6169 84.1015 "/>
<path d="M236.5188 85.0397 L232.7662 87.8542 "/>
<path d="M239.3333 87.8542 L235.5807 84.1015 "/>
</g></g>
<g style="fill:none;  stroke:#000084; stroke-width:0.5910; stroke-opacity:1;  stroke-linecap:round; stroke-linejoin:round;">
<g transform="rotate(90.000000 223.1599 81.0525)">
<text x="223.1599" y="83.0226" textLength="8.6780" font-size="5.2537" lengthAdjust="spacingAndGlyphs" text-anchor="middle" opacity="0">R1</text>
</g>
<g class="stroked-text"><desc>R1</desc>
<path d="M221.3678 80.3958 L223.2441 79.0823 "/>
<path d="M221.3678 78.1442 L225.3081 78.1442 "/>
<path d="M225.3081 78.1442 L225.3081 79.6452 "/>
<path d="M225.3081 79.6452 L225.1204 80.0205 "/>
<path d="M225.1204 80.0205 L224.9328 80.2081 "/>
<path d="M224.9328 80.2081 L224.5575 80.3958 "/>
<path d="M224.5575 80.3958 L223.9947 80.3958 "/>
<path d="M223.9947 80.3958 L223.6194 80.2081 "/>
<path d="M223.6194 80.2081 L223.4318 80.0205 "/>
<path d="M223.4318 80.0205 L223.2441 79.6452 "/>
<path d="M223.2441 79.6452 L223.2441 78.1442 "/>
<path d="M221.3678 84.1484 L221.3678 81.8968 "/>
<path d="M221.3678 83.0226 L225.3081 83.0226 "/>
<path d="M225.3081 83.0226 L224.7452 82.6474 "/>
<path d="M224.7452 82.6474 L224.3699 82.2721 "/>
<path d="M224.3699 82.2721 L224.1823 81.8968 "/>
</g></g>
<g style="fill:none;  stroke:#000084; stroke-width:0.9851; stroke-opacity:1;  stroke-linecap:round; stroke-linejoin:round;">
<path d="M40.1803 97.6155 L29.0982 97.6155 "/>
<path d="M40.1803 112.3917 L40.1803 97.6155 "/>
<path d="M29.0982 97.6155 L25.4042 101.3096 "/>
<path d="M25.4042 101.3096 L25.4042 112.3917 "/>
<path d="M25.4042 112.3917 L40.1803 112.3917 "/>
</g>
<g style="fill:none;  stroke:#000084; stroke-width:1.4776; stroke-opacity:1;  stroke-linecap:round; stroke-linejoin:round;">
<path d="M237.1578 39.0036 L187.9041 39.0036 "/>
<path d="M237.1578 62.6454 L237.1578 39.0036 "/>
<path d="M187.9041 39.0036 L187.9041 62.6454 "/>
<path d="M187.9041 62.6454 L237.1578 62.6454 "/>
</g>
<g style="fill:none;  stroke:#000084; stroke-width:0.9851; stroke-opacity:1;  stroke-linecap:round; stroke-linejoin:round;">
<path d="M219.8225 108.1381 L204.0613 108.1381 "/>
<path d="M219.8225 116.0187 L219.8225 108.1381 "/>
<path d="M204.0613 108.1381 L204.0613 116.0187 "/>
<path d="M204.0613 116.0187 L219.8225 116.0187 "/>
<path d="M211.3390 76.1902 L202.4733 76.1902 "/>
<path d="M211.3390 88.9961 L211.3390 76.1902 "/>
<path d="M208.8763 81.6081 L206.9062 84.5633 "/>
<path d="M206.9062 80.1305 L206.9062 81.6081 "/>
<path d="M206.9062 84.5633 L204.9360 81.6081 "/>
<path d="M206.9062 86.0409 L206.9062 84.5633 "/>
<path d="M204.9360 81.6081 L208.8763 81.6081 "/>
<path d="M204.9360 84.5633 L208.8763 84.5633 "/>
<path d="M202.4733 76.1902 L202.4733 88.9961 "/>
<path d="M202.4733 88.9961 L211.3390 88.9961 "/>
<path d="M290.8720 64.3693 L290.8720 145.6379 "/>
<path d="M290.8720 64.3693 L250.9764 64.3693 "/>
<path d="M290.8720 145.6379 L250.9764 145.6379 "/>
<path d="M257.9420 123.4737 L250.9764 128.3991 "/>
<path d="M250.9764 64.3693 L250.9764 145.6379 "/>
<path d="M250.9764 118.5484 L257.9420 123.4737 "/>
<path d="M57.2999 97.1230 L49.4193 97.1230 "/>
<path d="M57.2999 112.8842 L57.2999 97.1230 "/>
<path d="M49.4193 97.1230 L49.4193 112.8842 "/>
<path d="M49.4193 112.8842 L57.2999 112.8842 "/>
<path d="M170.0939 129.7191 L162.2133 129.7191 "/>
<path d="M170.0939 145.4803 L170.0939 129.7191 "/>
<path d="M162.2133 129.7191 L162.2133 145.4803 "/>
<path d="M162.2133 145.4803 L170.0939 145.4803 "/>
<path d="M231.1095 128.7498 L218.7960 128.7498 "/>
<path d="M231.1095 148.4513 L231.1095 128.7498 "/>
<path d="M218.7960 128.7498 L218.7960 148.4513 "/>
<path d="M218.7960 148.4513 L231.1095 148.4513 "/>
<path d="M202.3078 124.5672 L186.5466 124.5672 "/>
<path d="M202.3078 149.1940 L202.3078 124.5672 "/>
<path d="M198.3675 153.1343 L202.3078 149.1940 "/>
<path d="M186.5466 124.5672 L186.5466 153.1343 "/>
<path d="M186.5466 153.1343 L198.3675 153.1343 "/>
<path d="M171.2179 95.6907 L163.0910 95.6907 "/>
<path d="M171.2179 111.4519 L171.2179 95.6907 "/>
<path d="M163.0910 95.6907 L163.0910 111.4519 "/>
<path d="M163.0910 111.4519 L171.2179 111.4519 "/>
<path d="M186.7309 95.6907 L178.6040 95.6907 "/>
<path d="M186.7309 111.4519 L186.7309 95.6907 "/>
<path d="M178.6040 95.6907 L178.6040 111.4519 "/>
<path d="M178.6040 111.4519 L186.7309 111.4519 "/>
<path d="M227.2233 73.1719 L219.0965 73.1719 "/>
<path d="M227.2233 88.9331 L227.2233 73.1719 "/>
<path d="M219.0965 73.1719 L219.0965 88.9331 "/>
<path d="M219.0965 88.9331 L227.2233 88.9331 "/>
</g> 
<svg:g><svg:g><svg:title>SVG Image created as TFHT02-Edge_Cuts.svg date 2024/07/23 17:30:15 </svg:title>
  <svg:desc>Image generated by PCBNEW </svg:desc>
<svg:g style="fill:#C2C200; fill-opacity:1.0000;stroke:#C2C200; stroke-opacity:1.0000; stroke-linecap:round; stroke-linejoin:round;" transform="translate(0 0) scale(1 1)">
</svg:g>
<svg:g style="fill:none;  stroke:#C2C200; stroke-width:1.4776; stroke-opacity:1;  stroke-linecap:round; stroke-linejoin:round;">
<svg:path d="M6.7705 62.6296 L6.7705 149.5171 "/>
<svg:path d="M18.9904 90.7196 L22.1643 87.6147 "/>
<svg:path d="M19.7761 124.5304 A9.8506 9.8506 0.0 0 0 26.6663 127.3410"/>
<svg:path d="M16.6213 159.3679 L146.3119 159.3679 "/>
<svg:path d="M16.0283 116.7198 A9.8498 9.8498 0.0 0 0 18.9889 123.7598"/>
<svg:path d="M58.2366 127.3411 L26.6663 127.3411 "/>
<svg:path d="M16.6213 52.7789 A9.8507 9.8507 0.0 0 0 6.7705 62.6296"/>
<svg:path d="M6.7705 149.5171 A9.8507 9.8507 0.0 0 0 16.6213 159.3679"/>
<svg:path d="M156.1981 129.4526 A9.8514 9.8514 0.0 0 0 153.0063 122.1759"/>
<svg:path d="M155.8951 81.2257 L155.8951 62.6296 "/>
<svg:path d="M146.0443 52.7789 L16.6213 52.7789 "/>
<svg:path d="M147.8238 117.4222 A9.8519 9.8519 0.0 0 0 141.1650 114.8305"/>
<svg:path d="M141.1650 114.8307 L78.9077 114.8307 "/>
<svg:path d="M19.7761 124.5304 L18.9888 123.7599 "/>
<svg:path style="fill:none;  stroke:#C2C200; stroke-width:1.4776; stroke-opacity:1;  stroke-linecap:round; stroke-linejoin:round;fill:none" d="M 296.2623,31.1230 0.7399,31.1230 0.7399,178.8842 296.2623,178.8842 Z"/> 
<svg:path d="M57.6959 87.6908 A9.8513 9.8513 0.0 0 0 50.7303 84.8060"/>
<svg:path d="M58.2366 127.3411 A9.8507 9.8507 0.0 0 0 65.2022 124.4560"/>
<svg:path d="M29.0528 84.8056 L50.7303 84.8056 "/>
<svg:path d="M153.0099 88.1913 A9.8507 9.8507 0.0 0 0 155.8950 81.2257"/>
<svg:path d="M57.6959 87.6908 L64.4359 94.4309 "/>
<svg:path d="M156.1626 149.5345 L156.1981 129.4526 "/>
<svg:path d="M29.0528 84.8056 A9.8507 9.8507 0.0 0 0 22.1643 87.6148"/>
<svg:path d="M155.8951 62.6296 A9.8507 9.8507 0.0 0 0 146.0443 52.7789"/>
<svg:path d="M139.8047 97.3161 A9.8498 9.8498 0.0 0 0 146.7701 94.4307"/>
<svg:path d="M64.4359 94.4309 A9.8513 9.8513 0.0 0 0 71.4014 97.3157"/>
<svg:path d="M71.9422 117.7159 L65.2021 124.4559 "/>
<svg:path d="M153.0062 122.1760 L147.8238 117.4222 "/>
<svg:path d="M146.3119 159.3679 A9.8507 9.8507 0.0 0 0 156.1630 149.5345"/>
<svg:path d="M71.4014 97.3161 L139.8047 97.3161 "/>
<svg:path d="M146.7703 94.4309 L153.0099 88.1913 "/>
<svg:path d="M18.9904 90.7196 A9.8508 9.8508 0.0 0 0 16.0282 97.7612"/>
<svg:path d="M78.9077 114.8307 A9.8507 9.8507 0.0 0 0 71.9421 117.7158"/>
<svg:path d="M16.0283 116.7198 L16.0283 97.7612 "/>
</svg:g>
<svg:g style="fill:none;  stroke:#C2C200; stroke-width:0.4925; stroke-opacity:1;  stroke-linecap:round; stroke-linejoin:round;">
<svg:path d="M223.3668 43.9290 L223.3668 57.7200 "/>
<svg:path d="M220.4115 60.6752 L204.6504 60.6752 "/>
<svg:path d="M204.6504 40.9737 L220.4115 40.9737 "/>
<svg:path d="M201.6951 57.7200 L201.6951 43.9290 "/>
<svg:path d="M223.3668 43.9290 A2.9552 2.9552 0.0 0 0 220.4115 40.9737"/>
<svg:path d="M220.4115 60.6752 A2.9552 2.9552 0.0 0 0 223.3668 57.7200"/>
<svg:path d="M204.6504 40.9737 A2.9552 2.9552 0.0 0 0 201.6951 43.9290"/>
<svg:path d="M201.6951 57.7200 A2.9552 2.9552 0.0 0 0 204.6504 60.6752"/>
</svg:g> 
</svg:g></svg:g></svg>
