<?xml version='1.0' encoding='ASCII' standalone='yes'?>
<svg xmlns:svg="http://www.w3.org/2000/svg" xmlns="http://www.w3.org/2000/svg" xmlns:xlink="http://www.w3.org/1999/xlink" version="1.1" width="297.0022mm" height="210.0072mm" viewBox="0.0000 0.0000 297.0022 210.0072">
<title>SVG Image created as TFHT02-F_Fab.svg date 2024/10/14 01:13:02 </title>
  <desc>Image generated by PCBNEW </desc>
<g style="fill:#848484; fill-opacity:1.0000;stroke:#848484; stroke-opacity:1.0000; stroke-linecap:round; stroke-linejoin:round;" transform="translate(0 0) scale(1 1)">
</g>
<g style="fill:none;  stroke:#848484; stroke-width:1.4776; stroke-opacity:1;  stroke-linecap:round; stroke-linejoin:round;">
<g transform="rotate(-90.000000 -8.1533 105.0036)">
<text x="-8.1533" y="109.9290" textLength="123.0171" font-size="13.1343" lengthAdjust="spacingAndGlyphs" text-anchor="middle" opacity="0" stroke-opacity="0">SM04B-GHS-TB</text>
</g>
<g class="stroked-text"><desc>SM04B-GHS-TB</desc>
<path d="M-4.1421 163.4044 L-3.6730 161.9972 "/>
<path d="M-3.6730 161.9972 L-3.6730 159.6518 "/>
<path d="M-3.6730 159.6518 L-4.1421 158.7136 "/>
<path d="M-4.1421 158.7136 L-4.6112 158.2445 "/>
<path d="M-4.6112 158.2445 L-5.5494 157.7754 "/>
<path d="M-5.5494 157.7754 L-6.4875 157.7754 "/>
<path d="M-6.4875 157.7754 L-7.4257 158.2445 "/>
<path d="M-7.4257 158.2445 L-7.8948 158.7136 "/>
<path d="M-7.8948 158.7136 L-8.3639 159.6518 "/>
<path d="M-8.3639 159.6518 L-8.8330 161.5281 "/>
<path d="M-8.8330 161.5281 L-9.3020 162.4663 "/>
<path d="M-9.3020 162.4663 L-9.7711 162.9354 "/>
<path d="M-9.7711 162.9354 L-10.7093 163.4044 "/>
<path d="M-10.7093 163.4044 L-11.6475 163.4044 "/>
<path d="M-11.6475 163.4044 L-12.5856 162.9354 "/>
<path d="M-12.5856 162.9354 L-13.0547 162.4663 "/>
<path d="M-13.0547 162.4663 L-13.5238 161.5281 "/>
<path d="M-13.5238 161.5281 L-13.5238 159.1827 "/>
<path d="M-13.5238 159.1827 L-13.0547 157.7754 "/>
<path d="M-3.6730 153.5537 L-13.5238 153.5537 "/>
<path d="M-13.5238 153.5537 L-6.4875 150.2701 "/>
<path d="M-6.4875 150.2701 L-13.5238 146.9865 "/>
<path d="M-13.5238 146.9865 L-3.6730 146.9865 "/>
<path d="M-13.5238 140.4194 L-13.5238 139.4812 "/>
<path d="M-13.5238 139.4812 L-13.0547 138.5430 "/>
<path d="M-13.0547 138.5430 L-12.5856 138.0740 "/>
<path d="M-12.5856 138.0740 L-11.6475 137.6049 "/>
<path d="M-11.6475 137.6049 L-9.7711 137.1358 "/>
<path d="M-9.7711 137.1358 L-7.4257 137.1358 "/>
<path d="M-7.4257 137.1358 L-5.5494 137.6049 "/>
<path d="M-5.5494 137.6049 L-4.6112 138.0740 "/>
<path d="M-4.6112 138.0740 L-4.1421 138.5430 "/>
<path d="M-4.1421 138.5430 L-3.6730 139.4812 "/>
<path d="M-3.6730 139.4812 L-3.6730 140.4194 "/>
<path d="M-3.6730 140.4194 L-4.1421 141.3575 "/>
<path d="M-4.1421 141.3575 L-4.6112 141.8266 "/>
<path d="M-4.6112 141.8266 L-5.5494 142.2957 "/>
<path d="M-5.5494 142.2957 L-7.4257 142.7648 "/>
<path d="M-7.4257 142.7648 L-9.7711 142.7648 "/>
<path d="M-9.7711 142.7648 L-11.6475 142.2957 "/>
<path d="M-11.6475 142.2957 L-12.5856 141.8266 "/>
<path d="M-12.5856 141.8266 L-13.0547 141.3575 "/>
<path d="M-13.0547 141.3575 L-13.5238 140.4194 "/>
<path d="M-10.2402 128.6923 L-3.6730 128.6923 "/>
<path d="M-13.9929 131.0377 L-6.9566 133.3831 "/>
<path d="M-6.9566 133.3831 L-6.9566 127.2850 "/>
<path d="M-8.8330 120.2488 L-8.3639 118.8415 "/>
<path d="M-8.3639 118.8415 L-7.8948 118.3725 "/>
<path d="M-7.8948 118.3725 L-6.9566 117.9034 "/>
<path d="M-6.9566 117.9034 L-5.5494 117.9034 "/>
<path d="M-5.5494 117.9034 L-4.6112 118.3725 "/>
<path d="M-4.6112 118.3725 L-4.1421 118.8415 "/>
<path d="M-4.1421 118.8415 L-3.6730 119.7797 "/>
<path d="M-3.6730 119.7797 L-3.6730 123.5324 "/>
<path d="M-3.6730 123.5324 L-13.5238 123.5324 "/>
<path d="M-13.5238 123.5324 L-13.5238 120.2488 "/>
<path d="M-13.5238 120.2488 L-13.0547 119.3106 "/>
<path d="M-13.0547 119.3106 L-12.5856 118.8415 "/>
<path d="M-12.5856 118.8415 L-11.6475 118.3725 "/>
<path d="M-11.6475 118.3725 L-10.7093 118.3725 "/>
<path d="M-10.7093 118.3725 L-9.7711 118.8415 "/>
<path d="M-9.7711 118.8415 L-9.3020 119.3106 "/>
<path d="M-9.3020 119.3106 L-8.8330 120.2488 "/>
<path d="M-8.8330 120.2488 L-8.8330 123.5324 "/>
<path d="M-7.4257 113.6816 L-7.4257 106.1763 "/>
<path d="M-13.0547 96.3256 L-13.5238 97.2637 "/>
<path d="M-13.5238 97.2637 L-13.5238 98.6710 "/>
<path d="M-13.5238 98.6710 L-13.0547 100.0782 "/>
<path d="M-13.0547 100.0782 L-12.1165 101.0164 "/>
<path d="M-12.1165 101.0164 L-11.1784 101.4855 "/>
<path d="M-11.1784 101.4855 L-9.3020 101.9545 "/>
<path d="M-9.3020 101.9545 L-7.8948 101.9545 "/>
<path d="M-7.8948 101.9545 L-6.0185 101.4855 "/>
<path d="M-6.0185 101.4855 L-5.0803 101.0164 "/>
<path d="M-5.0803 101.0164 L-4.1421 100.0782 "/>
<path d="M-4.1421 100.0782 L-3.6730 98.6710 "/>
<path d="M-3.6730 98.6710 L-3.6730 97.7328 "/>
<path d="M-3.6730 97.7328 L-4.1421 96.3256 "/>
<path d="M-4.1421 96.3256 L-4.6112 95.8565 "/>
<path d="M-4.6112 95.8565 L-7.8948 95.8565 "/>
<path d="M-7.8948 95.8565 L-7.8948 97.7328 "/>
<path d="M-3.6730 91.6347 L-13.5238 91.6347 "/>
<path d="M-8.8330 91.6347 L-8.8330 86.0057 "/>
<path d="M-3.6730 86.0057 L-13.5238 86.0057 "/>
<path d="M-4.1421 81.7840 L-3.6730 80.3767 "/>
<path d="M-3.6730 80.3767 L-3.6730 78.0313 "/>
<path d="M-3.6730 78.0313 L-4.1421 77.0931 "/>
<path d="M-4.1421 77.0931 L-4.6112 76.6241 "/>
<path d="M-4.6112 76.6241 L-5.5494 76.1550 "/>
<path d="M-5.5494 76.1550 L-6.4875 76.1550 "/>
<path d="M-6.4875 76.1550 L-7.4257 76.6241 "/>
<path d="M-7.4257 76.6241 L-7.8948 77.0931 "/>
<path d="M-7.8948 77.0931 L-8.3639 78.0313 "/>
<path d="M-8.3639 78.0313 L-8.8330 79.9076 "/>
<path d="M-8.8330 79.9076 L-9.3020 80.8458 "/>
<path d="M-9.3020 80.8458 L-9.7711 81.3149 "/>
<path d="M-9.7711 81.3149 L-10.7093 81.7840 "/>
<path d="M-10.7093 81.7840 L-11.6475 81.7840 "/>
<path d="M-11.6475 81.7840 L-12.5856 81.3149 "/>
<path d="M-12.5856 81.3149 L-13.0547 80.8458 "/>
<path d="M-13.0547 80.8458 L-13.5238 79.9076 "/>
<path d="M-13.5238 79.9076 L-13.5238 77.5622 "/>
<path d="M-13.5238 77.5622 L-13.0547 76.1550 "/>
<path d="M-7.4257 71.9332 L-7.4257 64.4279 "/>
<path d="M-13.5238 61.1443 L-13.5238 55.5153 "/>
<path d="M-3.6730 58.3298 L-13.5238 58.3298 "/>
<path d="M-8.8330 48.9482 L-8.3639 47.5409 "/>
<path d="M-8.3639 47.5409 L-7.8948 47.0718 "/>
<path d="M-7.8948 47.0718 L-6.9566 46.6027 "/>
<path d="M-6.9566 46.6027 L-5.5494 46.6027 "/>
<path d="M-5.5494 46.6027 L-4.6112 47.0718 "/>
<path d="M-4.6112 47.0718 L-4.1421 47.5409 "/>
<path d="M-4.1421 47.5409 L-3.6730 48.4791 "/>
<path d="M-3.6730 48.4791 L-3.6730 52.2317 "/>
<path d="M-3.6730 52.2317 L-13.5238 52.2317 "/>
<path d="M-13.5238 52.2317 L-13.5238 48.9482 "/>
<path d="M-13.5238 48.9482 L-13.0547 48.0100 "/>
<path d="M-13.0547 48.0100 L-12.5856 47.5409 "/>
<path d="M-12.5856 47.5409 L-11.6475 47.0718 "/>
<path d="M-11.6475 47.0718 L-10.7093 47.0718 "/>
<path d="M-10.7093 47.0718 L-9.7711 47.5409 "/>
<path d="M-9.7711 47.5409 L-9.3020 48.0100 "/>
<path d="M-9.3020 48.0100 L-8.8330 48.9482 "/>
<path d="M-8.8330 48.9482 L-8.8330 52.2317 "/>
</g><g transform="rotate(-90.000000 30.2646 105.0036)">
<text x="30.2646" y="109.9290" textLength="19.3497" font-size="13.1343" lengthAdjust="spacingAndGlyphs" text-anchor="middle" opacity="0" stroke-opacity="0">J2</text>
</g>
<g class="stroked-text"><desc>J2</desc>
<path d="M24.8941 108.2872 L31.9304 108.2872 "/>
<path d="M31.9304 108.2872 L33.3376 108.7563 "/>
<path d="M33.3376 108.7563 L34.2758 109.6944 "/>
<path d="M34.2758 109.6944 L34.7449 111.1017 "/>
<path d="M34.7449 111.1017 L34.7449 112.0398 "/>
<path d="M25.8323 104.0654 L25.3632 103.5963 "/>
<path d="M25.3632 103.5963 L24.8941 102.6582 "/>
<path d="M24.8941 102.6582 L24.8941 100.3128 "/>
<path d="M24.8941 100.3128 L25.3632 99.3746 "/>
<path d="M25.3632 99.3746 L25.8323 98.9055 "/>
<path d="M25.8323 98.9055 L26.7705 98.4364 "/>
<path d="M26.7705 98.4364 L27.7086 98.4364 "/>
<path d="M27.7086 98.4364 L29.1159 98.9055 "/>
<path d="M29.1159 98.9055 L34.7449 104.5345 "/>
<path d="M34.7449 104.5345 L34.7449 98.4364 "/>
</g><g transform="rotate(-180.000000 104.4880 50.3241)">
<text x="104.4880" y="55.2494" transform="scale(-1 1) translate(-208.975938 0)" textLength="12.3134" font-size="13.1343" lengthAdjust="spacingAndGlyphs" text-anchor="middle" opacity="0" stroke-opacity="0">K</text>
</g>
<g class="stroked-text"><desc>K</desc>
<path d="M101.9080 45.8438 L101.9080 55.6945 "/>
<path d="M107.5370 45.8438 L103.3153 51.4728 "/>
<path d="M107.5370 55.6945 L101.9080 50.0655 "/>
</g></g>
<g style="fill:none;  stroke:#848484; stroke-width:0.9851; stroke-opacity:1;  stroke-linecap:round; stroke-linejoin:round;">
<path d="M6.1302 64.3693 L6.1302 145.6379 "/>
<path d="M39.0602 86.5334 L46.0258 91.4588 "/>
<path d="M46.0258 64.3693 L6.1302 64.3693 "/>
<path d="M46.0258 64.3693 L46.0258 145.6379 "/>
<path d="M46.0258 81.6081 L39.0602 86.5334 "/>
<path d="M46.0258 145.6379 L6.1302 145.6379 "/>
</g> 
<svg:g><svg:g><svg:title>SVG Image created as TFHT02-Edge_Cuts.svg date 2024/10/14 01:13:02 </svg:title>
  <svg:desc>Image generated by PCBNEW </svg:desc>
<svg:g style="fill:#C2C200; fill-opacity:1.0000;stroke:#C2C200; stroke-opacity:1.0000; stroke-linecap:round; stroke-linejoin:round;" transform="translate(0 0) scale(1 1)">
</svg:g>
<svg:g style="fill:none;  stroke:#C2C200; stroke-width:1.4776; stroke-opacity:1;  stroke-linecap:round; stroke-linejoin:round;">
<svg:path d="M290.2317 62.6296 L290.2317 149.5171 "/>
<svg:path d="M278.0118 90.7196 L274.8379 87.6147 "/>
<svg:path d="M270.3359 127.3410 A9.8506 9.8506 0.0 0 0 277.2261 124.5304"/>
<svg:path d="M280.3809 159.3679 L150.6903 159.3679 "/>
<svg:path d="M278.0133 123.7598 A9.8498 9.8498 0.0 0 0 280.9739 116.7198"/>
<svg:path d="M238.7656 127.3411 L270.3359 127.3411 "/>
<svg:path d="M290.2317 62.6296 A9.8507 9.8507 0.0 0 0 280.3809 52.7789"/>
<svg:path d="M280.3809 159.3679 A9.8507 9.8507 0.0 0 0 290.2317 149.5171"/>
<svg:path d="M143.9959 122.1759 A9.8514 9.8514 0.0 0 0 140.8041 129.4526"/>
<svg:path d="M141.1071 81.2257 L141.1071 62.6296 "/>
<svg:path d="M150.9579 52.7789 L280.3809 52.7789 "/>
<svg:path d="M155.8372 114.8305 A9.8519 9.8519 0.0 0 0 149.1784 117.4222"/>
<svg:path d="M155.8372 114.8307 L218.0945 114.8307 "/>
<svg:path d="M277.2261 124.5304 L278.0134 123.7599 "/>
<svg:path style="fill:none;  stroke:#C2C200; stroke-width:1.4776; stroke-opacity:1;  stroke-linecap:round; stroke-linejoin:round;fill:none" d="M 0.7399,31.1230 296.2623,31.1230 296.2623,178.8842 0.7399,178.8842 Z"/> 
<svg:path d="M246.2719 84.8060 A9.8513 9.8513 0.0 0 0 239.3063 87.6908"/>
<svg:path d="M231.8000 124.4560 A9.8507 9.8507 0.0 0 0 238.7656 127.3411"/>
<svg:path d="M267.9494 84.8056 L246.2719 84.8056 "/>
<svg:path d="M141.1072 81.2257 A9.8507 9.8507 0.0 0 0 143.9923 88.1913"/>
<svg:path d="M239.3063 87.6908 L232.5663 94.4309 "/>
<svg:path d="M140.8396 149.5345 L140.8041 129.4526 "/>
<svg:path d="M274.8379 87.6148 A9.8507 9.8507 0.0 0 0 267.9494 84.8056"/>
<svg:path d="M150.9579 52.7789 A9.8507 9.8507 0.0 0 0 141.1071 62.6296"/>
<svg:path d="M150.2321 94.4307 A9.8498 9.8498 0.0 0 0 157.1975 97.3161"/>
<svg:path d="M225.6008 97.3157 A9.8513 9.8513 0.0 0 0 232.5663 94.4309"/>
<svg:path d="M225.0600 117.7159 L231.8001 124.4559 "/>
<svg:path d="M143.9960 122.1760 L149.1784 117.4222 "/>
<svg:path d="M140.8392 149.5345 A9.8507 9.8507 0.0 0 0 150.6903 159.3679"/>
<svg:path d="M225.6008 97.3161 L157.1975 97.3161 "/>
<svg:path d="M150.2319 94.4309 L143.9923 88.1913 "/>
<svg:path d="M280.9740 97.7612 A9.8508 9.8508 0.0 0 0 278.0118 90.7196"/>
<svg:path d="M225.0601 117.7158 A9.8507 9.8507 0.0 0 0 218.0945 114.8307"/>
<svg:path d="M280.9739 116.7198 L280.9739 97.7612 "/>
</svg:g>
<svg:g style="fill:none;  stroke:#C2C200; stroke-width:0.4925; stroke-opacity:1;  stroke-linecap:round; stroke-linejoin:round;">
<svg:path d="M73.6354 43.9290 L73.6354 57.7200 "/>
<svg:path d="M76.5907 60.6752 L92.3518 60.6752 "/>
<svg:path d="M92.3518 40.9737 L76.5907 40.9737 "/>
<svg:path d="M95.3071 57.7200 L95.3071 43.9290 "/>
<svg:path d="M76.5907 40.9737 A2.9552 2.9552 0.0 0 0 73.6354 43.9290"/>
<svg:path d="M73.6354 57.7200 A2.9552 2.9552 0.0 0 0 76.5907 60.6752"/>
<svg:path d="M95.3071 43.9290 A2.9552 2.9552 0.0 0 0 92.3518 40.9737"/>
<svg:path d="M92.3518 60.6752 A2.9552 2.9552 0.0 0 0 95.3071 57.7200"/>
</svg:g> 
</svg:g></svg:g></svg>
