<!DOCTYPE svg PUBLIC "-//W3C//DTD SVG 1.1//EN" "http://www.w3.org/Graphics/SVG/1.1/DTD/svg11.dtd">
<svg xmlns="http://www.w3.org/2000/svg" version="1.1" width="40.15mm" height="25.15mm" viewBox="127.5 100.056 40.150000000000006 25.150000000000006">
            <title>Picture generated by PcbDraw </title>
            <desc>Picture generated by PcbDraw</desc>
        <defs><clipPath id="cut-off"><path d="M132.5750 120.1310 L132.5750 105.1310 M 161.9628 117.1498 A 1 1 0 0 1 160.9628 118.1498 L 147.7972 118.1498 A 1 1 0 0 1 146.7972 117.1516 L 146.7936 115.1129 A 1.0001 1.0001 0 0 1 147.1177 114.3743 L 147.6438 113.8917 A 1.0001 1.0001 0 0 1 148.3197 113.6286 L 154.6398 113.6286 A 1 1 0 0 1 155.3469 113.9215 L 156.0311 114.6057 A 1 1 0 0 0 156.7382 114.8986 L 159.9431 114.8986 A 1 1 0 0 0 160.6425 114.6133 L 160.7225 114.535 A 0.9999 0.9999 0 0 0 161.023 113.8204 L 161.023 111.8958 A 1 1 0 0 0 160.7223 111.181 L 160.4001 110.8658 A 1 1 0 0 0 159.7008 110.5806 L 157.5002 110.5806 A 1.0001 1.0001 0 0 0 156.7931 110.8735 L 156.1089 111.5577 A 1.0001 1.0001 0 0 1 155.4018 111.8506 L 148.4578 111.8506 A 0.9999 0.9999 0 0 1 147.7507 111.5577 L 147.1173 110.9243 A 1 1 0 0 1 146.8244 110.2172 L 146.8244 108.3294 A 1 1 0 0 1 147.8244 107.3294 L 160.9628 107.3294 A 1 1 0 0 1 161.9628 108.3294 L 161.9628 117.1498  M 162.575 105.131 L 162.575 120.131 L 132.575 120.131 L 132.575 105.131 L 162.575 105.131  M 139.975 107.831 A 0.3 0.3 0 0 0 140.275 108.131 L 141.875 108.131 A 0.3 0.3 0 0 0 142.175 107.831 L 142.175 106.431 A 0.3 0.3 0 0 0 141.875 106.131 L 140.275 106.131 A 0.3 0.3 0 0 0 139.975 106.431 L 139.975 107.831 " style="fill-rule: evenodd;"/></clipPath><mask id="pads-mask"><g style="fill:#ffffff; fill-opacity:1.0000; stroke:none;">
<circle cx="145.0750" cy="105.1310" r="1.5000"/> 
<path style="fill:#ffffff; fill-opacity:1.0000; stroke:none;fill-rule:evenodd;" d="M 138.1472,110.4060 138.2142,110.4193 138.2709,110.4573 138.3089,110.5140 138.3222,110.5810 138.3222,110.9310 138.3089,110.9980 138.2709,111.0547 138.2142,111.0927 138.1472,111.1060 136.6972,111.1060 136.6302,111.0927 136.5735,111.0547 136.5355,110.9980 136.5222,110.9310 136.5222,110.5810 136.5355,110.5140 136.5735,110.4573 136.6302,110.4193 136.6972,110.4060 Z"/> 
<path style="fill:#ffffff; fill-opacity:1.0000; stroke:none;fill-rule:evenodd;" d="M 138.1472,111.6560 138.2142,111.6693 138.2709,111.7073 138.3089,111.7640 138.3222,111.8310 138.3222,112.1810 138.3089,112.2480 138.2709,112.3047 138.2142,112.3427 138.1472,112.3560 136.6972,112.3560 136.6302,112.3427 136.5735,112.3047 136.5355,112.2480 136.5222,112.1810 136.5222,111.8310 136.5355,111.7640 136.5735,111.7073 136.6302,111.6693 136.6972,111.6560 Z"/> 
<path style="fill:#ffffff; fill-opacity:1.0000; stroke:none;fill-rule:evenodd;" d="M 138.1472,112.9060 138.2142,112.9193 138.2709,112.9573 138.3089,113.0140 138.3222,113.0810 138.3222,113.4310 138.3089,113.4980 138.2709,113.5547 138.2142,113.5927 138.1472,113.6060 136.6972,113.6060 136.6302,113.5927 136.5735,113.5547 136.5355,113.4980 136.5222,113.4310 136.5222,113.0810 136.5355,113.0140 136.5735,112.9573 136.6302,112.9193 136.6972,112.9060 Z"/> 
<path style="fill:#ffffff; fill-opacity:1.0000; stroke:none;fill-rule:evenodd;" d="M 138.1472,114.1560 138.2142,114.1693 138.2709,114.2073 138.3089,114.2640 138.3222,114.3310 138.3222,114.6810 138.3089,114.7480 138.2709,114.8047 138.2142,114.8427 138.1472,114.8560 136.6972,114.8560 136.6302,114.8427 136.5735,114.8047 136.5355,114.7480 136.5222,114.6810 136.5222,114.3310 136.5355,114.2640 136.5735,114.2073 136.6302,114.1693 136.6972,114.1560 Z"/> 
<path style="fill:#ffffff; fill-opacity:1.0000; stroke:none;fill-rule:evenodd;" d="M 135.3472,108.3560 135.4524,108.3769 135.5417,108.4365 135.6013,108.5258 135.6222,108.6310 135.6222,109.1810 135.6013,109.2862 135.5417,109.3755 135.4524,109.4351 135.3472,109.4560 133.0972,109.4560 132.9920,109.4351 132.9027,109.3755 132.8431,109.2862 132.8222,109.1810 132.8222,108.6310 132.8431,108.5258 132.9027,108.4365 132.9920,108.3769 133.0972,108.3560 Z"/> 
<path style="fill:#ffffff; fill-opacity:1.0000; stroke:none;fill-rule:evenodd;" d="M 135.3472,115.8060 135.4524,115.8269 135.5417,115.8865 135.6013,115.9758 135.6222,116.0810 135.6222,116.6310 135.6013,116.7362 135.5417,116.8255 135.4524,116.8851 135.3472,116.9060 133.0972,116.9060 132.9920,116.8851 132.9027,116.8255 132.8431,116.7362 132.8222,116.6310 132.8222,116.0810 132.8431,115.9758 132.9027,115.8865 132.9920,115.8269 133.0972,115.8060 Z"/> 
</g>
<g style="fill:#ffffff; fill-opacity:1.0000; stroke:none;">
<circle cx="145.0750" cy="120.1310" r="1.5000"/> 
</g>
<g style="fill:#ffffff; fill-opacity:1.0000; stroke:none;">
<circle cx="135.0750" cy="105.1310" r="1.5000"/> 
</g>
<g style="fill:#ffffff; fill-opacity:1.0000; stroke:none;">
<circle cx="155.0750" cy="120.1310" r="1.5000"/> 
</g>
<g style="fill:#ffffff; fill-opacity:1.0000; stroke:none;">
<circle cx="155.0750" cy="105.1310" r="1.5000"/> 
</g>
<g style="fill:#ffffff; fill-opacity:1.0000; stroke:none;">
<circle cx="135.0750" cy="120.1310" r="1.5000"/> 
</g> 
</mask><mask id="pads-mask-silkscreen"><rect x="132.5" y="105.056" width="30.15" height="15.15" fill="white"/><g style="fill:#000000; fill-opacity:1.0000; stroke:none;">
<circle cx="145.0750" cy="105.1310" r="1.5000"/> 
<path style="fill:#000000; fill-opacity:1.0000; stroke:none;fill-rule:evenodd;" d="M 138.1472,110.4060 138.2142,110.4193 138.2709,110.4573 138.3089,110.5140 138.3222,110.5810 138.3222,110.9310 138.3089,110.9980 138.2709,111.0547 138.2142,111.0927 138.1472,111.1060 136.6972,111.1060 136.6302,111.0927 136.5735,111.0547 136.5355,110.9980 136.5222,110.9310 136.5222,110.5810 136.5355,110.5140 136.5735,110.4573 136.6302,110.4193 136.6972,110.4060 Z"/> 
<path style="fill:#000000; fill-opacity:1.0000; stroke:none;fill-rule:evenodd;" d="M 138.1472,111.6560 138.2142,111.6693 138.2709,111.7073 138.3089,111.7640 138.3222,111.8310 138.3222,112.1810 138.3089,112.2480 138.2709,112.3047 138.2142,112.3427 138.1472,112.3560 136.6972,112.3560 136.6302,112.3427 136.5735,112.3047 136.5355,112.2480 136.5222,112.1810 136.5222,111.8310 136.5355,111.7640 136.5735,111.7073 136.6302,111.6693 136.6972,111.6560 Z"/> 
<path style="fill:#000000; fill-opacity:1.0000; stroke:none;fill-rule:evenodd;" d="M 138.1472,112.9060 138.2142,112.9193 138.2709,112.9573 138.3089,113.0140 138.3222,113.0810 138.3222,113.4310 138.3089,113.4980 138.2709,113.5547 138.2142,113.5927 138.1472,113.6060 136.6972,113.6060 136.6302,113.5927 136.5735,113.5547 136.5355,113.4980 136.5222,113.4310 136.5222,113.0810 136.5355,113.0140 136.5735,112.9573 136.6302,112.9193 136.6972,112.9060 Z"/> 
<path style="fill:#000000; fill-opacity:1.0000; stroke:none;fill-rule:evenodd;" d="M 138.1472,114.1560 138.2142,114.1693 138.2709,114.2073 138.3089,114.2640 138.3222,114.3310 138.3222,114.6810 138.3089,114.7480 138.2709,114.8047 138.2142,114.8427 138.1472,114.8560 136.6972,114.8560 136.6302,114.8427 136.5735,114.8047 136.5355,114.7480 136.5222,114.6810 136.5222,114.3310 136.5355,114.2640 136.5735,114.2073 136.6302,114.1693 136.6972,114.1560 Z"/> 
<path style="fill:#000000; fill-opacity:1.0000; stroke:none;fill-rule:evenodd;" d="M 135.3472,108.3560 135.4524,108.3769 135.5417,108.4365 135.6013,108.5258 135.6222,108.6310 135.6222,109.1810 135.6013,109.2862 135.5417,109.3755 135.4524,109.4351 135.3472,109.4560 133.0972,109.4560 132.9920,109.4351 132.9027,109.3755 132.8431,109.2862 132.8222,109.1810 132.8222,108.6310 132.8431,108.5258 132.9027,108.4365 132.9920,108.3769 133.0972,108.3560 Z"/> 
<path style="fill:#000000; fill-opacity:1.0000; stroke:none;fill-rule:evenodd;" d="M 135.3472,115.8060 135.4524,115.8269 135.5417,115.8865 135.6013,115.9758 135.6222,116.0810 135.6222,116.6310 135.6013,116.7362 135.5417,116.8255 135.4524,116.8851 135.3472,116.9060 133.0972,116.9060 132.9920,116.8851 132.9027,116.8255 132.8431,116.7362 132.8222,116.6310 132.8222,116.0810 132.8431,115.9758 132.9027,115.8865 132.9920,115.8269 133.0972,115.8060 Z"/> 
</g>
<g style="fill:#000000; fill-opacity:1.0000; stroke:none;">
<circle cx="145.0750" cy="120.1310" r="1.5000"/> 
</g>
<g style="fill:#000000; fill-opacity:1.0000; stroke:none;">
<circle cx="135.0750" cy="105.1310" r="1.5000"/> 
</g>
<g style="fill:#000000; fill-opacity:1.0000; stroke:none;">
<circle cx="155.0750" cy="120.1310" r="1.5000"/> 
</g>
<g style="fill:#000000; fill-opacity:1.0000; stroke:none;">
<circle cx="155.0750" cy="105.1310" r="1.5000"/> 
</g>
<g style="fill:#000000; fill-opacity:1.0000; stroke:none;">
<circle cx="135.0750" cy="120.1310" r="1.5000"/> 
</g> 
</mask><mask id="hole-mask"><g><rect x="132.5" y="105.056" fill="white" width="30.15" height="15.15"/><polyline stroke-linecap="round" stroke="black" stroke-width="3.0" points="-0.0 0 0.0 0" transform="translate(145.075 105.131) rotate(-0.0)"/><polyline stroke-linecap="round" stroke="black" stroke-width="3.0" points="-0.0 0 0.0 0" transform="translate(145.075 120.131) rotate(-0.0)"/><polyline stroke-linecap="round" stroke="black" stroke-width="3.0" points="-0.0 0 0.0 0" transform="translate(135.075 105.131) rotate(-0.0)"/><polyline stroke-linecap="round" stroke="black" stroke-width="3.0" points="-0.0 0 0.0 0" transform="translate(155.075 120.131) rotate(-0.0)"/><polyline stroke-linecap="round" stroke="black" stroke-width="3.0" points="-0.0 0 0.0 0" transform="translate(155.075 105.131) rotate(-0.0)"/><polyline stroke-linecap="round" stroke="black" stroke-width="3.0" points="-0.0 0 0.0 0" transform="translate(135.075 120.131) rotate(-0.0)"/><polyline stroke-linecap="round" stroke="black" stroke-width="0.4" points="-0.0 0 0.0 0" transform="translate(136.766 115.813) rotate(-0.0)"/><polyline stroke-linecap="round" stroke="black" stroke-width="0.4" points="-0.0 0 0.0 0" transform="translate(133.718 107.304) rotate(-0.0)"/><polyline stroke-linecap="round" stroke="black" stroke-width="0.4" points="-0.0 0 0.0 0" transform="translate(136.512 108.066) rotate(-0.0)"/><polyline stroke-linecap="round" stroke="black" stroke-width="0.4" points="-0.0 0 0.0 0" transform="translate(134.734 107.304) rotate(-0.0)"/><polyline stroke-linecap="round" stroke="black" stroke-width="0.4" points="-0.0 0 0.0 0" transform="translate(135.75 107.304) rotate(-0.0)"/><polyline stroke-linecap="round" stroke="black" stroke-width="0.4" points="-0.0 0 0.0 0" transform="translate(133.62413 114.726322) rotate(-0.0)"/><polyline stroke-linecap="round" stroke="black" stroke-width="0.4" points="-0.0 0 0.0 0" transform="translate(133.718 117.845) rotate(-0.0)"/><polyline stroke-linecap="round" stroke="black" stroke-width="0.4" points="-0.0 0 0.0 0" transform="translate(142.989 113.527) rotate(-0.0)"/><polyline stroke-linecap="round" stroke="black" stroke-width="0.4" points="-0.0 0 0.0 0" transform="translate(134.114185 110.277733) rotate(-0.0)"/><polyline stroke-linecap="round" stroke="black" stroke-width="0.4" points="-0.0 0 0.0 0" transform="translate(136.004 117.845) rotate(-0.0)"/><polyline stroke-linecap="round" stroke="black" stroke-width="0.4" points="-0.0 0 0.0 0" transform="translate(136.766 116.956) rotate(-0.0)"/><polyline stroke-linecap="round" stroke="black" stroke-width="0.4" points="-0.0 0 0.0 0" transform="translate(133.503 111.241) rotate(-0.0)"/><polyline stroke-linecap="round" stroke="black" stroke-width="0.4" points="-0.0 0 0.0 0" transform="translate(134.861 117.845) rotate(-0.0)"/><polyline stroke-linecap="round" stroke="black" stroke-width="0.4" points="-0.0 0 0.0 0" transform="translate(137.655 109.463) rotate(-0.0)"/><polyline stroke-linecap="round" stroke="black" stroke-width="0.4" points="-0.0 0 0.0 0" transform="translate(133.337 112.511) rotate(-0.0)"/><polyline stroke-linecap="round" stroke="black" stroke-width="0.4" points="-0.0 0 0.0 0" transform="translate(142.2997 109.0023) rotate(-0.0)"/><polyline stroke-linecap="round" stroke="black" stroke-width="0.4" points="-0.0 0 0.0 0" transform="translate(133.362894 113.698028) rotate(-0.0)"/><polyline stroke-linecap="round" stroke="black" stroke-width="0.4" points="-0.0 0 0.0 0" transform="translate(136.639 109.463) rotate(-0.0)"/><polyline stroke-linecap="round" stroke="black" stroke-width="0.4" points="-0.0 0 0.0 0" transform="translate(144.894 113.3106) rotate(-0.0)"/><polyline stroke-linecap="round" stroke="black" stroke-width="0.4" points="-0.0 0 0.0 0" transform="translate(158.102 113.4508) rotate(-0.0)"/><polyline stroke-linecap="round" stroke="black" stroke-width="0.4" points="-0.0 0 0.0 0" transform="translate(145.717674 117.703476) rotate(-0.0)"/><polyline stroke-linecap="round" stroke="black" stroke-width="0.4" points="-0.0 0 0.0 0" transform="translate(135.115 114.035) rotate(-0.0)"/><polyline stroke-linecap="round" stroke="black" stroke-width="0.4" points="-0.0 0 0.0 0" transform="translate(138.925 110.733) rotate(-0.0)"/><polyline stroke-linecap="round" stroke="black" stroke-width="0.4" points="-0.0 0 0.0 0" transform="translate(158.3052 111.3172) rotate(-0.0)"/><polyline stroke-linecap="round" stroke="black" stroke-width="0.4" points="-0.0 0 0.0 0" transform="translate(142.989 111.241) rotate(-0.0)"/><polyline stroke-linecap="round" stroke="black" stroke-width="0.4" points="-0.0 0 0.0 0" transform="translate(135.921443 111.63664) rotate(-0.0)"/><polyline stroke-linecap="round" stroke="black" stroke-width="0.4" points="-0.0 0 0.0 0" transform="translate(136.016098 112.673356) rotate(-0.0)"/></g></mask></defs><g transform="" id="boardContainer"><g id="substrate" clip-path="url(#cut-off)" mask="url(#hole-mask)"><g id="substrate-board" style="fill:#F6DE39; stroke:#F6DE39;"><path d="M132.5750 120.1310 L132.5750 105.1310 M 161.9628 117.1498 A 1 1 0 0 1 160.9628 118.1498 L 147.7972 118.1498 A 1 1 0 0 1 146.7972 117.1516 L 146.7936 115.1129 A 1.0001 1.0001 0 0 1 147.1177 114.3743 L 147.6438 113.8917 A 1.0001 1.0001 0 0 1 148.3197 113.6286 L 154.6398 113.6286 A 1 1 0 0 1 155.3469 113.9215 L 156.0311 114.6057 A 1 1 0 0 0 156.7382 114.8986 L 159.9431 114.8986 A 1 1 0 0 0 160.6425 114.6133 L 160.7225 114.535 A 0.9999 0.9999 0 0 0 161.023 113.8204 L 161.023 111.8958 A 1 1 0 0 0 160.7223 111.181 L 160.4001 110.8658 A 1 1 0 0 0 159.7008 110.5806 L 157.5002 110.5806 A 1.0001 1.0001 0 0 0 156.7931 110.8735 L 156.1089 111.5577 A 1.0001 1.0001 0 0 1 155.4018 111.8506 L 148.4578 111.8506 A 0.9999 0.9999 0 0 1 147.7507 111.5577 L 147.1173 110.9243 A 1 1 0 0 1 146.8244 110.2172 L 146.8244 108.3294 A 1 1 0 0 1 147.8244 107.3294 L 160.9628 107.3294 A 1 1 0 0 1 161.9628 108.3294 L 161.9628 117.1498  M 162.575 105.131 L 162.575 120.131 L 132.575 120.131 L 132.575 105.131 L 162.575 105.131  M 139.975 107.831 A 0.3 0.3 0 0 0 140.275 108.131 L 141.875 108.131 A 0.3 0.3 0 0 0 142.175 107.831 L 142.175 106.431 A 0.3 0.3 0 0 0 141.875 106.131 L 140.275 106.131 A 0.3 0.3 0 0 0 139.975 106.431 L 139.975 107.831 " style="fill-rule: evenodd;"/><g style="fill: none;stroke: #F6DE39;stroke-width: 0.1500;stroke-opacity: 1;stroke-linecap: round;stroke-linejoin: round">
<path d="M161.9628 108.3294 L161.9628 117.1498 "/>
<path d="M160.7223 111.1810 L160.4001 110.8658 "/>
<path d="M159.9431 114.8986 A1.0000 1.0000 0.0 0 0 160.6425 114.6133"/>
<path d="M160.9628 118.1498 L147.7972 118.1498 "/>
<path d="M160.7225 114.5350 A0.9999 0.9999 0.0 0 0 161.0230 113.8204"/>
<path d="M156.7382 114.8986 L159.9431 114.8986 "/>
<path d="M161.9628 108.3294 A1.0000 1.0000 0.0 0 0 160.9628 107.3294"/>
<path d="M160.9628 118.1498 A1.0000 1.0000 0.0 0 0 161.9628 117.1498"/>
<path d="M147.1177 114.3743 A1.0001 1.0001 0.0 0 0 146.7936 115.1129"/>
<path d="M146.8244 110.2172 L146.8244 108.3294 "/>
<path d="M147.8244 107.3294 L160.9628 107.3294 "/>
<path d="M148.3197 113.6286 A1.0001 1.0001 0.0 0 0 147.6438 113.8917"/>
<path d="M148.3197 113.6286 L154.6398 113.6286 "/>
<path d="M160.6425 114.6133 L160.7225 114.5350 "/>
<path style="fill: none;stroke: #F6DE39;stroke-width: 0.1500;stroke-opacity: 1;stroke-linecap: round;stroke-linejoin: round" d="M 132.5750,105.1310 162.5750,105.1310 162.5750,120.1310 132.5750,120.1310 Z"/> 
<path d="M157.5002 110.5806 A1.0001 1.0001 0.0 0 0 156.7931 110.8735"/>
<path d="M156.0311 114.6057 A1.0000 1.0000 0.0 0 0 156.7382 114.8986"/>
<path d="M159.7008 110.5806 L157.5002 110.5806 "/>
<path d="M146.8244 110.2172 A1.0000 1.0000 0.0 0 0 147.1173 110.9243"/>
<path d="M156.7931 110.8735 L156.1089 111.5577 "/>
<path d="M146.7972 117.1516 L146.7936 115.1129 "/>
<path d="M160.4001 110.8658 A1.0000 1.0000 0.0 0 0 159.7008 110.5806"/>
<path d="M147.8244 107.3294 A1.0000 1.0000 0.0 0 0 146.8244 108.3294"/>
<path d="M147.7507 111.5577 A0.9999 0.9999 0.0 0 0 148.4578 111.8506"/>
<path d="M155.4018 111.8506 A1.0001 1.0001 0.0 0 0 156.1089 111.5577"/>
<path d="M155.3469 113.9215 L156.0311 114.6057 "/>
<path d="M147.1177 114.3743 L147.6438 113.8917 "/>
<path d="M146.7972 117.1516 A1.0000 1.0000 0.0 0 0 147.7972 118.1498"/>
<path d="M155.4018 111.8506 L148.4578 111.8506 "/>
<path d="M147.7507 111.5577 L147.1173 110.9243 "/>
<path d="M161.0230 111.8958 A1.0000 1.0000 0.0 0 0 160.7223 111.1810"/>
<path d="M155.3469 113.9215 A1.0000 1.0000 0.0 0 0 154.6398 113.6286"/>
<path d="M161.0230 113.8204 L161.0230 111.8958 "/>
</g>
<g style="fill: none;stroke: #F6DE39;stroke-width: 0.0500;stroke-opacity: 1;stroke-linecap: round;stroke-linejoin: round">
<path d="M139.9750 106.4310 L139.9750 107.8310 "/>
<path d="M140.2750 108.1310 L141.8750 108.1310 "/>
<path d="M141.8750 106.1310 L140.2750 106.1310 "/>
<path d="M142.1750 107.8310 L142.1750 106.4310 "/>
<path d="M140.2750 106.1310 A0.3000 0.3000 0.0 0 0 139.9750 106.4310"/>
<path d="M139.9750 107.8310 A0.3000 0.3000 0.0 0 0 140.2750 108.1310"/>
<path d="M142.1750 106.4310 A0.3000 0.3000 0.0 0 0 141.8750 106.1310"/>
<path d="M141.8750 108.1310 A0.3000 0.3000 0.0 0 0 142.1750 107.8310"/>
</g> 
</g><g id="substrate-clad" style="fill:#72786c; stroke:#72786c;"><g style="fill: #72786c;fill-opacity: 1.0000;stroke: none">
<circle cx="145.0750" cy="105.1310" r="1.5000"/> 
<path style="fill: #72786c;fill-opacity: 1.0000;stroke: none;fill-rule: evenodd" d="M 138.1472,110.4060 138.2142,110.4193 138.2709,110.4573 138.3089,110.5140 138.3222,110.5810 138.3222,110.9310 138.3089,110.9980 138.2709,111.0547 138.2142,111.0927 138.1472,111.1060 136.6972,111.1060 136.6302,111.0927 136.5735,111.0547 136.5355,110.9980 136.5222,110.9310 136.5222,110.5810 136.5355,110.5140 136.5735,110.4573 136.6302,110.4193 136.6972,110.4060 Z"/> 
<path style="fill: #72786c;fill-opacity: 1.0000;stroke: none;fill-rule: evenodd" d="M 138.1472,111.6560 138.2142,111.6693 138.2709,111.7073 138.3089,111.7640 138.3222,111.8310 138.3222,112.1810 138.3089,112.2480 138.2709,112.3047 138.2142,112.3427 138.1472,112.3560 136.6972,112.3560 136.6302,112.3427 136.5735,112.3047 136.5355,112.2480 136.5222,112.1810 136.5222,111.8310 136.5355,111.7640 136.5735,111.7073 136.6302,111.6693 136.6972,111.6560 Z"/> 
<path style="fill: #72786c;fill-opacity: 1.0000;stroke: none;fill-rule: evenodd" d="M 138.1472,112.9060 138.2142,112.9193 138.2709,112.9573 138.3089,113.0140 138.3222,113.0810 138.3222,113.4310 138.3089,113.4980 138.2709,113.5547 138.2142,113.5927 138.1472,113.6060 136.6972,113.6060 136.6302,113.5927 136.5735,113.5547 136.5355,113.4980 136.5222,113.4310 136.5222,113.0810 136.5355,113.0140 136.5735,112.9573 136.6302,112.9193 136.6972,112.9060 Z"/> 
<path style="fill: #72786c;fill-opacity: 1.0000;stroke: none;fill-rule: evenodd" d="M 138.1472,114.1560 138.2142,114.1693 138.2709,114.2073 138.3089,114.2640 138.3222,114.3310 138.3222,114.6810 138.3089,114.7480 138.2709,114.8047 138.2142,114.8427 138.1472,114.8560 136.6972,114.8560 136.6302,114.8427 136.5735,114.8047 136.5355,114.7480 136.5222,114.6810 136.5222,114.3310 136.5355,114.2640 136.5735,114.2073 136.6302,114.1693 136.6972,114.1560 Z"/> 
<path style="fill: #72786c;fill-opacity: 1.0000;stroke: none;fill-rule: evenodd" d="M 135.3472,108.3560 135.4524,108.3769 135.5417,108.4365 135.6013,108.5258 135.6222,108.6310 135.6222,109.1810 135.6013,109.2862 135.5417,109.3755 135.4524,109.4351 135.3472,109.4560 133.0972,109.4560 132.9920,109.4351 132.9027,109.3755 132.8431,109.2862 132.8222,109.1810 132.8222,108.6310 132.8431,108.5258 132.9027,108.4365 132.9920,108.3769 133.0972,108.3560 Z"/> 
<path style="fill: #72786c;fill-opacity: 1.0000;stroke: none;fill-rule: evenodd" d="M 135.3472,115.8060 135.4524,115.8269 135.5417,115.8865 135.6013,115.9758 135.6222,116.0810 135.6222,116.6310 135.6013,116.7362 135.5417,116.8255 135.4524,116.8851 135.3472,116.9060 133.0972,116.9060 132.9920,116.8851 132.9027,116.8255 132.8431,116.7362 132.8222,116.6310 132.8222,116.0810 132.8431,115.9758 132.9027,115.8865 132.9920,115.8269 133.0972,115.8060 Z"/> 
</g>
<g style="fill: #72786c;fill-opacity: 1.0000;stroke: none">
<circle cx="145.0750" cy="120.1310" r="1.5000"/> 
</g>
<g style="fill: #72786c;fill-opacity: 1.0000;stroke: none">
<circle cx="135.0750" cy="105.1310" r="1.5000"/> 
</g>
<g style="fill: #72786c;fill-opacity: 1.0000;stroke: none">
<circle cx="155.0750" cy="120.1310" r="1.5000"/> 
</g>
<g style="fill: #72786c;fill-opacity: 1.0000;stroke: none">
<circle cx="155.0750" cy="105.1310" r="1.5000"/> 
</g>
<g style="fill: #72786c;fill-opacity: 1.0000;stroke: none">
<circle cx="135.0750" cy="120.1310" r="1.5000"/> 
</g> 
</g><g id="substrate-copper" style="fill:#E0CA32; stroke:#E0CA32;"><g style="fill: #E0CA32;fill-opacity: 1.0000;stroke: #E0CA32;stroke-opacity: 1.0000;stroke-linecap: round;stroke-linejoin: round" transform="translate(0 0) scale(1 1)">
<path style="fill: #E0CA32;fill-opacity: 1.0000;stroke: none;fill-rule: evenodd" d="M 138.1222,110.4560 138.1796,110.4674 138.2283,110.4999 138.2608,110.5486 138.2722,110.6060 138.2722,110.9060 138.2608,110.9634 138.2283,111.0121 138.1796,111.0446 138.1222,111.0560 136.7222,111.0560 136.6648,111.0446 136.6161,111.0121 136.5836,110.9634 136.5722,110.9060 136.5722,110.6060 136.5836,110.5486 136.6161,110.4999 136.6648,110.4674 136.7222,110.4560 Z"/> 
<path style="fill: #E0CA32;fill-opacity: 1.0000;stroke: none;fill-rule: evenodd" d="M 138.1222,111.7060 138.1796,111.7174 138.2283,111.7499 138.2608,111.7986 138.2722,111.8560 138.2722,112.1560 138.2608,112.2134 138.2283,112.2621 138.1796,112.2946 138.1222,112.3060 136.7222,112.3060 136.6648,112.2946 136.6161,112.2621 136.5836,112.2134 136.5722,112.1560 136.5722,111.8560 136.5836,111.7986 136.6161,111.7499 136.6648,111.7174 136.7222,111.7060 Z"/> 
<path style="fill: #E0CA32;fill-opacity: 1.0000;stroke: none;fill-rule: evenodd" d="M 138.1222,112.9560 138.1796,112.9674 138.2283,112.9999 138.2608,113.0486 138.2722,113.1060 138.2722,113.4060 138.2608,113.4634 138.2283,113.5121 138.1796,113.5446 138.1222,113.5560 136.7222,113.5560 136.6648,113.5446 136.6161,113.5121 136.5836,113.4634 136.5722,113.4060 136.5722,113.1060 136.5836,113.0486 136.6161,112.9999 136.6648,112.9674 136.7222,112.9560 Z"/> 
<path style="fill: #E0CA32;fill-opacity: 1.0000;stroke: none;fill-rule: evenodd" d="M 138.1222,114.2060 138.1796,114.2174 138.2283,114.2499 138.2608,114.2986 138.2722,114.3560 138.2722,114.6560 138.2608,114.7134 138.2283,114.7621 138.1796,114.7946 138.1222,114.8060 136.7222,114.8060 136.6648,114.7946 136.6161,114.7621 136.5836,114.7134 136.5722,114.6560 136.5722,114.3560 136.5836,114.2986 136.6161,114.2499 136.6648,114.2174 136.7222,114.2060 Z"/> 
<path style="fill: #E0CA32;fill-opacity: 1.0000;stroke: none;fill-rule: evenodd" d="M 135.3222,108.4060 135.4179,108.4250 135.4990,108.4792 135.5532,108.5603 135.5722,108.6560 135.5722,109.1560 135.5532,109.2517 135.4990,109.3328 135.4179,109.3870 135.3222,109.4060 133.1222,109.4060 133.0265,109.3870 132.9454,109.3328 132.8912,109.2517 132.8722,109.1560 132.8722,108.6560 132.8912,108.5603 132.9454,108.4792 133.0265,108.4250 133.1222,108.4060 Z"/> 
<path style="fill: #E0CA32;fill-opacity: 1.0000;stroke: none;fill-rule: evenodd" d="M 135.3222,115.8560 135.4179,115.8750 135.4990,115.9292 135.5532,116.0103 135.5722,116.1060 135.5722,116.6060 135.5532,116.7017 135.4990,116.7828 135.4179,116.8370 135.3222,116.8560 133.1222,116.8560 133.0265,116.8370 132.9454,116.7828 132.8912,116.7017 132.8722,116.6060 132.8722,116.1060 132.8912,116.0103 132.9454,115.9292 133.0265,115.8750 133.1222,115.8560 Z"/> 
</g>
<g style="fill: #E0CA32;fill-opacity: 1.0000;stroke: none">
<circle cx="136.7660" cy="115.8130" r="0.4000"/> 
</g>
<g style="fill: #E0CA32;fill-opacity: 1.0000;stroke: none">
<circle cx="133.7180" cy="107.3040" r="0.4000"/> 
</g>
<g style="fill: #E0CA32;fill-opacity: 1.0000;stroke: none">
<circle cx="136.5120" cy="108.0660" r="0.4000"/> 
</g>
<g style="fill: #E0CA32;fill-opacity: 1.0000;stroke: none">
<circle cx="134.7340" cy="107.3040" r="0.4000"/> 
</g>
<g style="fill: #E0CA32;fill-opacity: 1.0000;stroke: none">
<circle cx="135.7500" cy="107.3040" r="0.4000"/> 
</g>
<g style="fill: #E0CA32;fill-opacity: 1.0000;stroke: none">
<circle cx="133.6241" cy="114.7263" r="0.4000"/> 
</g>
<g style="fill: #E0CA32;fill-opacity: 1.0000;stroke: none">
<circle cx="133.7180" cy="117.8450" r="0.4000"/> 
</g>
<g style="fill: #E0CA32;fill-opacity: 1.0000;stroke: none">
<circle cx="142.9890" cy="113.5270" r="0.4000"/> 
</g>
<g style="fill: #E0CA32;fill-opacity: 1.0000;stroke: none">
<circle cx="134.1142" cy="110.2777" r="0.4000"/> 
</g>
<g style="fill: #E0CA32;fill-opacity: 1.0000;stroke: none">
<circle cx="136.0040" cy="117.8450" r="0.4000"/> 
</g>
<g style="fill: #E0CA32;fill-opacity: 1.0000;stroke: none">
<circle cx="136.7660" cy="116.9560" r="0.4000"/> 
</g>
<g style="fill: #E0CA32;fill-opacity: 1.0000;stroke: none">
<circle cx="133.5030" cy="111.2410" r="0.4000"/> 
</g>
<g style="fill: #E0CA32;fill-opacity: 1.0000;stroke: none">
<circle cx="134.8610" cy="117.8450" r="0.4000"/> 
</g>
<g style="fill: #E0CA32;fill-opacity: 1.0000;stroke: none">
<circle cx="137.6550" cy="109.4630" r="0.4000"/> 
</g>
<g style="fill: #E0CA32;fill-opacity: 1.0000;stroke: none">
<circle cx="133.3370" cy="112.5110" r="0.4000"/> 
</g>
<g style="fill: #E0CA32;fill-opacity: 1.0000;stroke: none">
<circle cx="142.2997" cy="109.0023" r="0.4000"/> 
</g>
<g style="fill: #E0CA32;fill-opacity: 1.0000;stroke: none">
<circle cx="133.3629" cy="113.6980" r="0.4000"/> 
</g>
<g style="fill: #E0CA32;fill-opacity: 1.0000;stroke: none">
<circle cx="136.6390" cy="109.4630" r="0.4000"/> 
</g>
<g style="fill: #E0CA32;fill-opacity: 1.0000;stroke: none">
<circle cx="144.8940" cy="113.3106" r="0.4000"/> 
</g>
<g style="fill: #E0CA32;fill-opacity: 1.0000;stroke: none">
<circle cx="158.1020" cy="113.4508" r="0.4000"/> 
</g>
<g style="fill: #E0CA32;fill-opacity: 1.0000;stroke: none">
<circle cx="145.7177" cy="117.7035" r="0.4000"/> 
</g>
<g style="fill: #E0CA32;fill-opacity: 1.0000;stroke: none">
<circle cx="135.1150" cy="114.0350" r="0.4000"/> 
</g>
<g style="fill: #E0CA32;fill-opacity: 1.0000;stroke: none">
<circle cx="138.9250" cy="110.7330" r="0.4000"/> 
</g>
<g style="fill: #E0CA32;fill-opacity: 1.0000;stroke: none">
<circle cx="158.3052" cy="111.3172" r="0.4000"/> 
</g>
<g style="fill: #E0CA32;fill-opacity: 1.0000;stroke: none">
<circle cx="142.9890" cy="111.2410" r="0.4000"/> 
</g>
<g style="fill: #E0CA32;fill-opacity: 1.0000;stroke: none">
<circle cx="135.9214" cy="111.6366" r="0.4000"/> 
</g>
<g style="fill: #E0CA32;fill-opacity: 1.0000;stroke: none">
<circle cx="136.0161" cy="112.6734" r="0.4000"/> 
</g>
<g style="fill: none;stroke: #E0CA32;stroke-width: 0.4000;stroke-opacity: 1;stroke-linecap: round;stroke-linejoin: round">
<path d="M140.9570 114.5060 L137.4222 114.5060 "/>
<path d="M142.2960 109.0060 L138.1120 109.0060 "/>
</g>
<g style="fill: none;stroke: #E0CA32;stroke-width: 0.5000;stroke-opacity: 1;stroke-linecap: round;stroke-linejoin: round">
<path d="M142.9890 113.5270 L141.9360 113.5270 "/>
</g>
<g style="fill: none;stroke: #E0CA32;stroke-width: 0.4000;stroke-opacity: 1;stroke-linecap: round;stroke-linejoin: round">
<path d="M142.2997 109.0023 L142.2960 109.0060 "/>
<path d="M138.1120 109.0060 L137.6550 109.4630 "/>
</g>
<g style="fill: none;stroke: #E0CA32;stroke-width: 0.5000;stroke-opacity: 1;stroke-linecap: round;stroke-linejoin: round">
<path d="M141.9360 113.5270 L140.9570 114.5060 "/>
</g>
<g style="fill: none;stroke: #E0CA32;stroke-width: 0.4000;stroke-opacity: 1;stroke-linecap: round;stroke-linejoin: round">
<path d="M146.2910 117.1302 L145.7177 117.7035 "/>
<path d="M147.1605 113.0190 L157.6702 113.0190 "/>
<path d="M157.6702 113.0190 L158.1020 113.4508 "/>
<path d="M146.2910 113.8885 L146.2910 117.1302 "/>
<path d="M144.8940 113.3106 L145.7131 113.3106 "/>
<path d="M146.2910 113.8885 L147.1605 113.0190 "/>
<path d="M145.7131 113.3106 L146.2910 113.8885 "/>
<path d="M138.9020 110.7560 L138.9250 110.7330 "/>
<path d="M137.2250 110.7560 L138.9020 110.7560 "/>
</g>
<g style="fill: none;stroke: #E0CA32;stroke-width: 0.5000;stroke-opacity: 1;stroke-linecap: round;stroke-linejoin: round">
<path d="M137.4222 110.7560 L135.6000 110.7560 "/>
<path d="M134.3530 113.2730 L135.1150 114.0350 "/>
<path d="M134.3530 112.0030 L134.3530 113.2730 "/>
<path d="M135.6000 110.7560 L134.3530 112.0030 "/>
</g>
<g style="fill: none;stroke: #E0CA32;stroke-width: 0.4000;stroke-opacity: 1;stroke-linecap: round;stroke-linejoin: round">
<path d="M135.7674 113.5560 L135.0030 112.7916 "/>
<path d="M158.3052 111.3172 L157.2384 112.3840 "/>
<path d="M157.2384 112.3840 L144.1320 112.3840 "/>
<path d="M137.4222 113.2560 L137.1222 113.5560 "/>
<path d="M144.1320 112.3840 L142.9890 111.2410 "/>
<path d="M137.1222 113.5560 L135.7674 113.5560 "/>
<path d="M135.0030 112.5551 L135.9214 111.6366 "/>
<path d="M135.0030 112.7916 L135.0030 112.5551 "/>
<path d="M137.4222 112.0060 L136.6835 112.0060 "/>
<path d="M136.6835 112.0060 L136.0161 112.6734 "/>
<path style="fill: #E0CA32;fill-opacity: 1.0000;stroke: none;fill-rule: evenodd" d="M 133.3906,105.4532 133.4097,105.4863 133.4613,105.6788 133.5466,105.8847 133.5466,105.8847 133.6580,106.0778 133.6581,106.0778 133.7937,106.2546 133.9514,106.4123 134.1282,106.5479 134.1282,106.5479 134.3213,106.6594 134.5272,106.7447 134.7425,106.8024 134.9635,106.8315 134.9635,106.8315 135.1865,106.8315 135.1865,106.8315 135.4075,106.8024 135.6228,106.7447 135.8287,106.6594 136.0218,106.5479 136.1735,106.4315 136.1986,106.4123 136.1986,106.4123 136.1986,106.4122 136.2475,106.3633 139.6745,106.3633 139.6745,106.3914 139.6745,107.7834 139.6745,107.8310 139.6745,107.8987 139.6895,107.9643 139.7046,108.0306 139.7046,108.0306 139.7633,108.1525 139.7633,108.1525 139.8477,108.2583 139.9535,108.3427 140.0754,108.4014 140.2073,108.4315 140.2073,108.4315 141.9427,108.4315 141.9427,108.4315 142.0746,108.4014 142.1965,108.3427 142.3023,108.2583 142.3867,108.1525 142.4454,108.0306 142.4755,107.8987 142.4755,107.8310 142.4755,107.7834 142.4755,106.3914 142.4755,106.3633 142.4454,106.2314 142.3867,106.1095 142.3023,106.0037 142.1965,105.9193 142.1965,105.9193 142.0746,105.8606 142.0746,105.8606 142.0162,105.8473 141.9427,105.8305 141.9146,105.8305 140.3226,105.8305 140.2750,105.8305 140.2073,105.8305 140.1453,105.8447 140.0754,105.8606 140.0754,105.8606 139.9535,105.9193 139.8477,106.0037 139.7633,106.1095 139.7046,106.2314 139.7046,106.2314 139.6993,106.2546 139.6745,106.3633 136.2475,106.3633 136.3562,106.2546 136.3741,106.2314 136.4919,106.0778 136.4919,106.0778 136.6034,105.8847 136.6887,105.6788 136.7403,105.4863 136.7748,105.4414 136.8118,105.4315 143.3382,105.4315 143.3906,105.4532 143.4097,105.4863 143.4613,105.6788 143.5466,105.8847 143.5466,105.8847 143.6580,106.0778 143.6581,106.0778 143.7937,106.2546 143.9514,106.4123 144.1282,106.5479 144.1282,106.5479 144.3213,106.6594 144.5272,106.7447 144.7425,106.8024 144.9635,106.8315 144.9635,106.8315 145.1865,106.8315 145.1865,106.8315 145.4075,106.8024 145.6228,106.7447 145.8287,106.6594 146.0218,106.5479 146.1735,106.4315 146.1986,106.4123 146.1986,106.4123 146.1986,106.4122 146.2826,106.3283 146.3349,106.3066 146.3872,106.3283 146.4089,106.3806 146.4089,106.3806 146.4076,111.9095 146.3859,111.9618 146.3336,111.9835 144.3285,111.9835 144.2762,111.9618 143.6159,111.3015 143.5942,111.2492 143.5947,111.2425 143.5947,111.2410 143.5740,111.0842 143.5740,111.0842 143.5540,111.0358 143.5135,110.9382 143.4173,110.8127 143.4173,110.8127 143.2918,110.7165 143.1458,110.6560 142.9890,110.6353 142.8322,110.6560 142.8322,110.6560 142.6862,110.7165 142.5607,110.8127 142.5607,110.8127 142.4645,110.9382 142.4040,111.0842 142.4040,111.0842 142.3833,111.2410 142.4040,111.3978 142.4040,111.3978 142.4645,111.5438 142.5607,111.6693 142.5607,111.6693 142.6351,111.7264 142.6862,111.7655 142.8322,111.8260 142.9890,111.8467 142.9890,111.8467 142.9890,111.8467 142.9939,111.8467 142.9939,111.8486 143.0422,111.8615 143.0495,111.8679 143.8861,112.7045 143.9774,112.7572 144.0793,112.7845 144.1847,112.7845 144.3907,112.7845 144.4430,112.8062 144.4647,112.8585 144.4494,112.9035 144.3695,113.0078 144.3090,113.1538 144.3090,113.1538 144.2883,113.3106 144.3090,113.4674 144.3090,113.4674 144.3695,113.6134 144.4657,113.7389 144.4657,113.7389 144.4887,113.7565 144.5912,113.8351 144.7372,113.8956 144.8940,113.9163 145.0508,113.8956 145.1968,113.8351 145.3223,113.7389 145.3223,113.7389 145.3257,113.7355 145.3270,113.7368 145.3704,113.7117 145.3801,113.7111 145.5166,113.7111 145.5689,113.7328 145.8688,114.0327 145.8905,114.0850 145.8905,116.9336 145.8688,116.9859 145.7782,117.0766 145.7259,117.0982 145.7192,117.0978 145.7177,117.0978 145.5609,117.1184 145.5609,117.1184 145.4148,117.1789 145.2894,117.2752 145.2894,117.2752 145.1931,117.4006 145.1326,117.5467 145.1326,117.5467 145.1120,117.7035 145.1326,117.8602 145.1326,117.8602 145.1931,118.0063 145.2894,118.1318 145.2894,118.1318 145.3730,118.1959 145.4148,118.2280 145.5609,118.2885 145.7177,118.3092 145.8744,118.2885 146.0205,118.2280 146.1460,118.1318 146.2422,118.0063 146.2638,117.9543 146.3038,117.9142 146.3604,117.9142 146.4005,117.9543 146.4061,117.9826 146.4059,118.8784 146.3842,118.9307 146.3319,118.9524 146.2796,118.9307 146.1986,118.8497 146.0218,118.7141 146.0218,118.7140 145.8287,118.6026 145.8287,118.6026 145.6228,118.5173 145.4075,118.4596 145.2446,118.4382 145.1865,118.4305 144.9635,118.4305 144.9121,118.4373 144.7425,118.4596 144.5272,118.5173 144.3213,118.6026 144.3213,118.6026 144.1282,118.7140 144.1282,118.7141 143.9514,118.8497 143.7937,119.0074 143.6581,119.1842 143.6580,119.1842 143.5466,119.3773 143.5466,119.3773 143.4613,119.5832 143.4097,119.7757 143.3752,119.8206 143.3382,119.8305 136.8118,119.8305 136.7594,119.8088 136.7403,119.7757 136.6887,119.5832 136.6034,119.3773 136.6034,119.3773 136.4920,119.1842 136.4919,119.1842 136.3563,119.0074 136.1986,118.8497 136.0218,118.7141 136.0218,118.7140 135.8287,118.6026 135.8287,118.6026 135.6228,118.5173 135.4075,118.4596 135.2446,118.4382 135.1865,118.4305 134.9635,118.4305 134.9121,118.4373 134.7425,118.4596 134.5272,118.5173 134.3213,118.6026 134.3213,118.6026 134.1282,118.7140 134.1282,118.7141 133.9514,118.8497 133.7937,119.0074 133.6581,119.1842 133.6580,119.1842 133.5466,119.3773 133.5466,119.3773 133.4613,119.5832 133.4097,119.7757 133.3752,119.8206 133.3382,119.8305 132.9495,119.8305 132.8972,119.8088 132.8755,119.7565 132.8755,117.4251 132.8972,117.3728 132.9495,117.3511 132.9650,117.3528 132.9679,117.3534 133.0717,117.3640 133.0717,117.3640 133.9682,117.3640 134.4762,117.3640 135.3727,117.3640 135.3727,117.3640 135.4765,117.3534 135.6447,117.2977 135.7955,117.2046 135.7955,117.2046 135.9208,117.0793 135.9208,117.0793 136.0139,116.9285 136.0696,116.7603 136.0802,116.6565 136.0802,116.6565 136.0802,116.6100 134.4762,116.6100 134.4762,117.3640 133.9682,117.3640 133.9682,116.1020 134.4762,116.1020 136.0802,116.1020 136.0802,116.0555 136.0802,116.0555 136.0696,115.9517 136.0139,115.7835 135.9208,115.6327 135.9208,115.6327 135.7955,115.5074 135.7955,115.5074 135.6447,115.4143 135.4765,115.3586 135.3727,115.3480 134.4762,115.3480 134.4762,116.1020 133.9682,116.1020 133.9682,115.3480 133.0717,115.3480 132.9679,115.3586 132.9650,115.3592 132.9639,115.3590 132.9639,115.3590 132.9639,115.3590 132.9093,115.3490 132.8771,115.3023 132.8755,115.2869 132.8755,114.7600 136.0672,114.7600 136.1135,114.9194 136.1981,115.0625 136.3157,115.1801 136.4588,115.2647 136.6184,115.3111 136.6557,115.3140 137.1682,115.3140 137.6762,115.3140 138.1887,115.3140 138.1887,115.3140 138.2260,115.3111 138.3856,115.2647 138.5287,115.1801 138.6463,115.0625 138.7309,114.9194 138.7772,114.7600 137.6762,114.7600 137.6762,115.3140 137.1682,115.3140 137.1682,114.7600 136.0672,114.7600 132.8755,114.7600 132.8755,111.9437 133.9025,111.9437 133.9025,113.3323 133.9235,113.4106 133.9235,113.4106 133.9332,113.4469 133.9332,113.4469 133.9925,113.5496 134.4963,114.0534 134.5174,114.0961 134.5300,114.1918 134.5905,114.3378 134.6867,114.4633 134.6867,114.4633 134.7703,114.5275 134.8122,114.5595 134.9582,114.6200 135.1150,114.6407 135.2718,114.6200 135.4178,114.5595 135.5433,114.4633 135.6395,114.3378 135.7000,114.1918 135.7207,114.0350 135.7207,114.0350 135.7207,114.0305 135.7424,113.9782 135.7947,113.9565 136.0643,113.9565 136.1166,113.9782 136.1383,114.0305 136.1280,114.0682 136.1135,114.0926 136.0672,114.2520 138.7772,114.2520 138.7309,114.0926 138.6463,113.9495 138.5287,113.8319 138.3992,113.7554 138.3652,113.7101 138.3732,113.6540 138.3845,113.6393 138.4114,113.6125 138.4628,113.5074 138.4727,113.4393 138.4727,113.0727 138.4628,113.0046 138.4114,112.8995 138.3287,112.8168 138.3287,112.8168 138.2236,112.7654 138.1555,112.7555 138.1555,112.7555 136.6953,112.7555 136.6430,112.7338 136.6213,112.6815 136.6218,112.6749 136.6218,112.6685 136.6237,112.6685 136.6366,112.6201 136.6430,112.6128 136.7277,112.5282 136.7800,112.5065 138.1555,112.5065 138.1555,112.5065 138.2236,112.4966 138.3287,112.4452 138.4114,112.3625 138.4628,112.2574 138.4727,112.1893 138.4727,111.8227 138.4628,111.7546 138.4114,111.6495 138.3287,111.5668 138.3287,111.5668 138.2236,111.5154 138.1555,111.5055 138.1555,111.5055 136.6889,111.5055 136.6889,111.5055 136.6208,111.5154 136.6208,111.5154 136.6087,111.5213 136.5522,111.5248 136.5097,111.4874 136.5079,111.4832 136.5065,111.4799 136.5065,111.4799 136.4460,111.3338 136.4396,111.3255 136.4250,111.2708 136.4533,111.2218 136.4984,111.2065 136.5217,111.2065 136.5542,111.2140 136.6144,111.2434 136.6208,111.2466 136.6889,111.2565 136.6889,111.2565 138.1555,111.2565 138.1555,111.2565 138.2236,111.2466 138.3287,111.1952 138.3457,111.1782 138.3980,111.1565 138.4654,111.1565 138.5104,111.1718 138.5654,111.2140 138.6222,111.2575 138.7682,111.3180 138.9250,111.3387 139.0818,111.3180 139.2278,111.2575 139.3533,111.1613 139.4495,111.0358 139.5100,110.8898 139.5307,110.7330 139.5100,110.5762 139.4495,110.4302 139.3918,110.3549 139.3533,110.3047 139.3533,110.3047 139.2278,110.2085 139.0818,110.1480 138.9250,110.1273 138.7682,110.1480 138.7682,110.1480 138.6222,110.2085 138.4967,110.3047 138.4967,110.3047 138.4887,110.3152 138.4800,110.3265 138.4309,110.3549 138.4213,110.3555 138.3980,110.3555 138.3457,110.3338 138.3287,110.3168 138.2236,110.2654 138.1555,110.2555 138.1555,110.2555 136.6889,110.2555 136.6889,110.2555 136.6208,110.2654 136.6208,110.2654 136.5542,110.2980 136.5217,110.3055 135.5407,110.3055 135.4586,110.3275 135.4261,110.3362 135.4261,110.3362 135.3234,110.3955 133.9925,111.7264 133.9332,111.8291 133.9332,111.8291 133.9272,111.8514 133.9272,111.8514 133.9025,111.9437 132.8755,111.9437 132.8755,109.9751 132.8972,109.9228 132.9495,109.9011 132.9650,109.9028 132.9679,109.9034 133.0717,109.9140 133.0717,109.9140 133.9682,109.9140 134.4762,109.9140 135.3727,109.9140 135.3727,109.9140 135.4765,109.9034 135.6447,109.8477 135.7955,109.7546 135.7955,109.7546 135.9208,109.6293 135.9208,109.6293 136.0139,109.4785 136.0696,109.3103 136.0802,109.2065 136.0802,109.2065 136.0802,109.1600 134.4762,109.1600 134.4762,109.9140 133.9682,109.9140 133.9682,108.6520 134.4762,108.6520 136.0802,108.6520 136.0802,108.6055 136.0802,108.6055 136.0696,108.5017 136.0139,108.3335 135.9208,108.1827 135.9208,108.1827 135.7955,108.0574 135.7955,108.0574 135.6447,107.9643 135.4765,107.9086 135.3727,107.8980 134.4762,107.8980 134.4762,108.6520 133.9682,108.6520 133.9682,107.8980 133.0717,107.8980 132.9679,107.9086 132.9650,107.9092 132.9639,107.9090 132.9639,107.9090 132.9639,107.9090 132.9093,107.8990 132.8771,107.8523 132.8755,107.8369 132.8755,105.5055 132.8972,105.4532 132.9495,105.4315 133.3382,105.4315 Z"/> 
</g> 
</g><g id="substrate-pads" style="fill:#E0DAD5; stroke:#E0DAD5;" mask="url(#pads-mask)"><g style="fill: #E0DAD5;fill-opacity: 1.0000;stroke: #E0DAD5;stroke-opacity: 1.0000;stroke-linecap: round;stroke-linejoin: round" transform="translate(0 0) scale(1 1)">
<path style="fill: #E0DAD5;fill-opacity: 1.0000;stroke: none;fill-rule: evenodd" d="M 138.1222,110.4560 138.1796,110.4674 138.2283,110.4999 138.2608,110.5486 138.2722,110.6060 138.2722,110.9060 138.2608,110.9634 138.2283,111.0121 138.1796,111.0446 138.1222,111.0560 136.7222,111.0560 136.6648,111.0446 136.6161,111.0121 136.5836,110.9634 136.5722,110.9060 136.5722,110.6060 136.5836,110.5486 136.6161,110.4999 136.6648,110.4674 136.7222,110.4560 Z"/> 
<path style="fill: #E0DAD5;fill-opacity: 1.0000;stroke: none;fill-rule: evenodd" d="M 138.1222,111.7060 138.1796,111.7174 138.2283,111.7499 138.2608,111.7986 138.2722,111.8560 138.2722,112.1560 138.2608,112.2134 138.2283,112.2621 138.1796,112.2946 138.1222,112.3060 136.7222,112.3060 136.6648,112.2946 136.6161,112.2621 136.5836,112.2134 136.5722,112.1560 136.5722,111.8560 136.5836,111.7986 136.6161,111.7499 136.6648,111.7174 136.7222,111.7060 Z"/> 
<path style="fill: #E0DAD5;fill-opacity: 1.0000;stroke: none;fill-rule: evenodd" d="M 138.1222,112.9560 138.1796,112.9674 138.2283,112.9999 138.2608,113.0486 138.2722,113.1060 138.2722,113.4060 138.2608,113.4634 138.2283,113.5121 138.1796,113.5446 138.1222,113.5560 136.7222,113.5560 136.6648,113.5446 136.6161,113.5121 136.5836,113.4634 136.5722,113.4060 136.5722,113.1060 136.5836,113.0486 136.6161,112.9999 136.6648,112.9674 136.7222,112.9560 Z"/> 
<path style="fill: #E0DAD5;fill-opacity: 1.0000;stroke: none;fill-rule: evenodd" d="M 138.1222,114.2060 138.1796,114.2174 138.2283,114.2499 138.2608,114.2986 138.2722,114.3560 138.2722,114.6560 138.2608,114.7134 138.2283,114.7621 138.1796,114.7946 138.1222,114.8060 136.7222,114.8060 136.6648,114.7946 136.6161,114.7621 136.5836,114.7134 136.5722,114.6560 136.5722,114.3560 136.5836,114.2986 136.6161,114.2499 136.6648,114.2174 136.7222,114.2060 Z"/> 
<path style="fill: #E0DAD5;fill-opacity: 1.0000;stroke: none;fill-rule: evenodd" d="M 135.3222,108.4060 135.4179,108.4250 135.4990,108.4792 135.5532,108.5603 135.5722,108.6560 135.5722,109.1560 135.5532,109.2517 135.4990,109.3328 135.4179,109.3870 135.3222,109.4060 133.1222,109.4060 133.0265,109.3870 132.9454,109.3328 132.8912,109.2517 132.8722,109.1560 132.8722,108.6560 132.8912,108.5603 132.9454,108.4792 133.0265,108.4250 133.1222,108.4060 Z"/> 
<path style="fill: #E0DAD5;fill-opacity: 1.0000;stroke: none;fill-rule: evenodd" d="M 135.3222,115.8560 135.4179,115.8750 135.4990,115.9292 135.5532,116.0103 135.5722,116.1060 135.5722,116.6060 135.5532,116.7017 135.4990,116.7828 135.4179,116.8370 135.3222,116.8560 133.1222,116.8560 133.0265,116.8370 132.9454,116.7828 132.8912,116.7017 132.8722,116.6060 132.8722,116.1060 132.8912,116.0103 132.9454,115.9292 133.0265,115.8750 133.1222,115.8560 Z"/> 
</g>
<g style="fill: #E0DAD5;fill-opacity: 1.0000;stroke: none">
<circle cx="136.7660" cy="115.8130" r="0.4000"/> 
</g>
<g style="fill: #E0DAD5;fill-opacity: 1.0000;stroke: none">
<circle cx="133.7180" cy="107.3040" r="0.4000"/> 
</g>
<g style="fill: #E0DAD5;fill-opacity: 1.0000;stroke: none">
<circle cx="136.5120" cy="108.0660" r="0.4000"/> 
</g>
<g style="fill: #E0DAD5;fill-opacity: 1.0000;stroke: none">
<circle cx="134.7340" cy="107.3040" r="0.4000"/> 
</g>
<g style="fill: #E0DAD5;fill-opacity: 1.0000;stroke: none">
<circle cx="135.7500" cy="107.3040" r="0.4000"/> 
</g>
<g style="fill: #E0DAD5;fill-opacity: 1.0000;stroke: none">
<circle cx="133.6241" cy="114.7263" r="0.4000"/> 
</g>
<g style="fill: #E0DAD5;fill-opacity: 1.0000;stroke: none">
<circle cx="133.7180" cy="117.8450" r="0.4000"/> 
</g>
<g style="fill: #E0DAD5;fill-opacity: 1.0000;stroke: none">
<circle cx="142.9890" cy="113.5270" r="0.4000"/> 
</g>
<g style="fill: #E0DAD5;fill-opacity: 1.0000;stroke: none">
<circle cx="134.1142" cy="110.2777" r="0.4000"/> 
</g>
<g style="fill: #E0DAD5;fill-opacity: 1.0000;stroke: none">
<circle cx="136.0040" cy="117.8450" r="0.4000"/> 
</g>
<g style="fill: #E0DAD5;fill-opacity: 1.0000;stroke: none">
<circle cx="136.7660" cy="116.9560" r="0.4000"/> 
</g>
<g style="fill: #E0DAD5;fill-opacity: 1.0000;stroke: none">
<circle cx="133.5030" cy="111.2410" r="0.4000"/> 
</g>
<g style="fill: #E0DAD5;fill-opacity: 1.0000;stroke: none">
<circle cx="134.8610" cy="117.8450" r="0.4000"/> 
</g>
<g style="fill: #E0DAD5;fill-opacity: 1.0000;stroke: none">
<circle cx="137.6550" cy="109.4630" r="0.4000"/> 
</g>
<g style="fill: #E0DAD5;fill-opacity: 1.0000;stroke: none">
<circle cx="133.3370" cy="112.5110" r="0.4000"/> 
</g>
<g style="fill: #E0DAD5;fill-opacity: 1.0000;stroke: none">
<circle cx="142.2997" cy="109.0023" r="0.4000"/> 
</g>
<g style="fill: #E0DAD5;fill-opacity: 1.0000;stroke: none">
<circle cx="133.3629" cy="113.6980" r="0.4000"/> 
</g>
<g style="fill: #E0DAD5;fill-opacity: 1.0000;stroke: none">
<circle cx="136.6390" cy="109.4630" r="0.4000"/> 
</g>
<g style="fill: #E0DAD5;fill-opacity: 1.0000;stroke: none">
<circle cx="144.8940" cy="113.3106" r="0.4000"/> 
</g>
<g style="fill: #E0DAD5;fill-opacity: 1.0000;stroke: none">
<circle cx="158.1020" cy="113.4508" r="0.4000"/> 
</g>
<g style="fill: #E0DAD5;fill-opacity: 1.0000;stroke: none">
<circle cx="145.7177" cy="117.7035" r="0.4000"/> 
</g>
<g style="fill: #E0DAD5;fill-opacity: 1.0000;stroke: none">
<circle cx="135.1150" cy="114.0350" r="0.4000"/> 
</g>
<g style="fill: #E0DAD5;fill-opacity: 1.0000;stroke: none">
<circle cx="138.9250" cy="110.7330" r="0.4000"/> 
</g>
<g style="fill: #E0DAD5;fill-opacity: 1.0000;stroke: none">
<circle cx="158.3052" cy="111.3172" r="0.4000"/> 
</g>
<g style="fill: #E0DAD5;fill-opacity: 1.0000;stroke: none">
<circle cx="142.9890" cy="111.2410" r="0.4000"/> 
</g>
<g style="fill: #E0DAD5;fill-opacity: 1.0000;stroke: none">
<circle cx="135.9214" cy="111.6366" r="0.4000"/> 
</g>
<g style="fill: #E0DAD5;fill-opacity: 1.0000;stroke: none">
<circle cx="136.0161" cy="112.6734" r="0.4000"/> 
</g>
<g style="fill: none;stroke: #E0DAD5;stroke-width: 0.4000;stroke-opacity: 1;stroke-linecap: round;stroke-linejoin: round">
<path d="M140.9570 114.5060 L137.4222 114.5060 "/>
<path d="M142.2960 109.0060 L138.1120 109.0060 "/>
</g>
<g style="fill: none;stroke: #E0DAD5;stroke-width: 0.5000;stroke-opacity: 1;stroke-linecap: round;stroke-linejoin: round">
<path d="M142.9890 113.5270 L141.9360 113.5270 "/>
</g>
<g style="fill: none;stroke: #E0DAD5;stroke-width: 0.4000;stroke-opacity: 1;stroke-linecap: round;stroke-linejoin: round">
<path d="M142.2997 109.0023 L142.2960 109.0060 "/>
<path d="M138.1120 109.0060 L137.6550 109.4630 "/>
</g>
<g style="fill: none;stroke: #E0DAD5;stroke-width: 0.5000;stroke-opacity: 1;stroke-linecap: round;stroke-linejoin: round">
<path d="M141.9360 113.5270 L140.9570 114.5060 "/>
</g>
<g style="fill: none;stroke: #E0DAD5;stroke-width: 0.4000;stroke-opacity: 1;stroke-linecap: round;stroke-linejoin: round">
<path d="M146.2910 117.1302 L145.7177 117.7035 "/>
<path d="M147.1605 113.0190 L157.6702 113.0190 "/>
<path d="M157.6702 113.0190 L158.1020 113.4508 "/>
<path d="M146.2910 113.8885 L146.2910 117.1302 "/>
<path d="M144.8940 113.3106 L145.7131 113.3106 "/>
<path d="M146.2910 113.8885 L147.1605 113.0190 "/>
<path d="M145.7131 113.3106 L146.2910 113.8885 "/>
<path d="M138.9020 110.7560 L138.9250 110.7330 "/>
<path d="M137.2250 110.7560 L138.9020 110.7560 "/>
</g>
<g style="fill: none;stroke: #E0DAD5;stroke-width: 0.5000;stroke-opacity: 1;stroke-linecap: round;stroke-linejoin: round">
<path d="M137.4222 110.7560 L135.6000 110.7560 "/>
<path d="M134.3530 113.2730 L135.1150 114.0350 "/>
<path d="M134.3530 112.0030 L134.3530 113.2730 "/>
<path d="M135.6000 110.7560 L134.3530 112.0030 "/>
</g>
<g style="fill: none;stroke: #E0DAD5;stroke-width: 0.4000;stroke-opacity: 1;stroke-linecap: round;stroke-linejoin: round">
<path d="M135.7674 113.5560 L135.0030 112.7916 "/>
<path d="M158.3052 111.3172 L157.2384 112.3840 "/>
<path d="M157.2384 112.3840 L144.1320 112.3840 "/>
<path d="M137.4222 113.2560 L137.1222 113.5560 "/>
<path d="M144.1320 112.3840 L142.9890 111.2410 "/>
<path d="M137.1222 113.5560 L135.7674 113.5560 "/>
<path d="M135.0030 112.5551 L135.9214 111.6366 "/>
<path d="M135.0030 112.7916 L135.0030 112.5551 "/>
<path d="M137.4222 112.0060 L136.6835 112.0060 "/>
<path d="M136.6835 112.0060 L136.0161 112.6734 "/>
<path style="fill: #E0DAD5;fill-opacity: 1.0000;stroke: none;fill-rule: evenodd" d="M 133.3906,105.4532 133.4097,105.4863 133.4613,105.6788 133.5466,105.8847 133.5466,105.8847 133.6580,106.0778 133.6581,106.0778 133.7937,106.2546 133.9514,106.4123 134.1282,106.5479 134.1282,106.5479 134.3213,106.6594 134.5272,106.7447 134.7425,106.8024 134.9635,106.8315 134.9635,106.8315 135.1865,106.8315 135.1865,106.8315 135.4075,106.8024 135.6228,106.7447 135.8287,106.6594 136.0218,106.5479 136.1735,106.4315 136.1986,106.4123 136.1986,106.4123 136.1986,106.4122 136.2475,106.3633 139.6745,106.3633 139.6745,106.3914 139.6745,107.7834 139.6745,107.8310 139.6745,107.8987 139.6895,107.9643 139.7046,108.0306 139.7046,108.0306 139.7633,108.1525 139.7633,108.1525 139.8477,108.2583 139.9535,108.3427 140.0754,108.4014 140.2073,108.4315 140.2073,108.4315 141.9427,108.4315 141.9427,108.4315 142.0746,108.4014 142.1965,108.3427 142.3023,108.2583 142.3867,108.1525 142.4454,108.0306 142.4755,107.8987 142.4755,107.8310 142.4755,107.7834 142.4755,106.3914 142.4755,106.3633 142.4454,106.2314 142.3867,106.1095 142.3023,106.0037 142.1965,105.9193 142.1965,105.9193 142.0746,105.8606 142.0746,105.8606 142.0162,105.8473 141.9427,105.8305 141.9146,105.8305 140.3226,105.8305 140.2750,105.8305 140.2073,105.8305 140.1453,105.8447 140.0754,105.8606 140.0754,105.8606 139.9535,105.9193 139.8477,106.0037 139.7633,106.1095 139.7046,106.2314 139.7046,106.2314 139.6993,106.2546 139.6745,106.3633 136.2475,106.3633 136.3562,106.2546 136.3741,106.2314 136.4919,106.0778 136.4919,106.0778 136.6034,105.8847 136.6887,105.6788 136.7403,105.4863 136.7748,105.4414 136.8118,105.4315 143.3382,105.4315 143.3906,105.4532 143.4097,105.4863 143.4613,105.6788 143.5466,105.8847 143.5466,105.8847 143.6580,106.0778 143.6581,106.0778 143.7937,106.2546 143.9514,106.4123 144.1282,106.5479 144.1282,106.5479 144.3213,106.6594 144.5272,106.7447 144.7425,106.8024 144.9635,106.8315 144.9635,106.8315 145.1865,106.8315 145.1865,106.8315 145.4075,106.8024 145.6228,106.7447 145.8287,106.6594 146.0218,106.5479 146.1735,106.4315 146.1986,106.4123 146.1986,106.4123 146.1986,106.4122 146.2826,106.3283 146.3349,106.3066 146.3872,106.3283 146.4089,106.3806 146.4089,106.3806 146.4076,111.9095 146.3859,111.9618 146.3336,111.9835 144.3285,111.9835 144.2762,111.9618 143.6159,111.3015 143.5942,111.2492 143.5947,111.2425 143.5947,111.2410 143.5740,111.0842 143.5740,111.0842 143.5540,111.0358 143.5135,110.9382 143.4173,110.8127 143.4173,110.8127 143.2918,110.7165 143.1458,110.6560 142.9890,110.6353 142.8322,110.6560 142.8322,110.6560 142.6862,110.7165 142.5607,110.8127 142.5607,110.8127 142.4645,110.9382 142.4040,111.0842 142.4040,111.0842 142.3833,111.2410 142.4040,111.3978 142.4040,111.3978 142.4645,111.5438 142.5607,111.6693 142.5607,111.6693 142.6351,111.7264 142.6862,111.7655 142.8322,111.8260 142.9890,111.8467 142.9890,111.8467 142.9890,111.8467 142.9939,111.8467 142.9939,111.8486 143.0422,111.8615 143.0495,111.8679 143.8861,112.7045 143.9774,112.7572 144.0793,112.7845 144.1847,112.7845 144.3907,112.7845 144.4430,112.8062 144.4647,112.8585 144.4494,112.9035 144.3695,113.0078 144.3090,113.1538 144.3090,113.1538 144.2883,113.3106 144.3090,113.4674 144.3090,113.4674 144.3695,113.6134 144.4657,113.7389 144.4657,113.7389 144.4887,113.7565 144.5912,113.8351 144.7372,113.8956 144.8940,113.9163 145.0508,113.8956 145.1968,113.8351 145.3223,113.7389 145.3223,113.7389 145.3257,113.7355 145.3270,113.7368 145.3704,113.7117 145.3801,113.7111 145.5166,113.7111 145.5689,113.7328 145.8688,114.0327 145.8905,114.0850 145.8905,116.9336 145.8688,116.9859 145.7782,117.0766 145.7259,117.0982 145.7192,117.0978 145.7177,117.0978 145.5609,117.1184 145.5609,117.1184 145.4148,117.1789 145.2894,117.2752 145.2894,117.2752 145.1931,117.4006 145.1326,117.5467 145.1326,117.5467 145.1120,117.7035 145.1326,117.8602 145.1326,117.8602 145.1931,118.0063 145.2894,118.1318 145.2894,118.1318 145.3730,118.1959 145.4148,118.2280 145.5609,118.2885 145.7177,118.3092 145.8744,118.2885 146.0205,118.2280 146.1460,118.1318 146.2422,118.0063 146.2638,117.9543 146.3038,117.9142 146.3604,117.9142 146.4005,117.9543 146.4061,117.9826 146.4059,118.8784 146.3842,118.9307 146.3319,118.9524 146.2796,118.9307 146.1986,118.8497 146.0218,118.7141 146.0218,118.7140 145.8287,118.6026 145.8287,118.6026 145.6228,118.5173 145.4075,118.4596 145.2446,118.4382 145.1865,118.4305 144.9635,118.4305 144.9121,118.4373 144.7425,118.4596 144.5272,118.5173 144.3213,118.6026 144.3213,118.6026 144.1282,118.7140 144.1282,118.7141 143.9514,118.8497 143.7937,119.0074 143.6581,119.1842 143.6580,119.1842 143.5466,119.3773 143.5466,119.3773 143.4613,119.5832 143.4097,119.7757 143.3752,119.8206 143.3382,119.8305 136.8118,119.8305 136.7594,119.8088 136.7403,119.7757 136.6887,119.5832 136.6034,119.3773 136.6034,119.3773 136.4920,119.1842 136.4919,119.1842 136.3563,119.0074 136.1986,118.8497 136.0218,118.7141 136.0218,118.7140 135.8287,118.6026 135.8287,118.6026 135.6228,118.5173 135.4075,118.4596 135.2446,118.4382 135.1865,118.4305 134.9635,118.4305 134.9121,118.4373 134.7425,118.4596 134.5272,118.5173 134.3213,118.6026 134.3213,118.6026 134.1282,118.7140 134.1282,118.7141 133.9514,118.8497 133.7937,119.0074 133.6581,119.1842 133.6580,119.1842 133.5466,119.3773 133.5466,119.3773 133.4613,119.5832 133.4097,119.7757 133.3752,119.8206 133.3382,119.8305 132.9495,119.8305 132.8972,119.8088 132.8755,119.7565 132.8755,117.4251 132.8972,117.3728 132.9495,117.3511 132.9650,117.3528 132.9679,117.3534 133.0717,117.3640 133.0717,117.3640 133.9682,117.3640 134.4762,117.3640 135.3727,117.3640 135.3727,117.3640 135.4765,117.3534 135.6447,117.2977 135.7955,117.2046 135.7955,117.2046 135.9208,117.0793 135.9208,117.0793 136.0139,116.9285 136.0696,116.7603 136.0802,116.6565 136.0802,116.6565 136.0802,116.6100 134.4762,116.6100 134.4762,117.3640 133.9682,117.3640 133.9682,116.1020 134.4762,116.1020 136.0802,116.1020 136.0802,116.0555 136.0802,116.0555 136.0696,115.9517 136.0139,115.7835 135.9208,115.6327 135.9208,115.6327 135.7955,115.5074 135.7955,115.5074 135.6447,115.4143 135.4765,115.3586 135.3727,115.3480 134.4762,115.3480 134.4762,116.1020 133.9682,116.1020 133.9682,115.3480 133.0717,115.3480 132.9679,115.3586 132.9650,115.3592 132.9639,115.3590 132.9639,115.3590 132.9639,115.3590 132.9093,115.3490 132.8771,115.3023 132.8755,115.2869 132.8755,114.7600 136.0672,114.7600 136.1135,114.9194 136.1981,115.0625 136.3157,115.1801 136.4588,115.2647 136.6184,115.3111 136.6557,115.3140 137.1682,115.3140 137.6762,115.3140 138.1887,115.3140 138.1887,115.3140 138.2260,115.3111 138.3856,115.2647 138.5287,115.1801 138.6463,115.0625 138.7309,114.9194 138.7772,114.7600 137.6762,114.7600 137.6762,115.3140 137.1682,115.3140 137.1682,114.7600 136.0672,114.7600 132.8755,114.7600 132.8755,111.9437 133.9025,111.9437 133.9025,113.3323 133.9235,113.4106 133.9235,113.4106 133.9332,113.4469 133.9332,113.4469 133.9925,113.5496 134.4963,114.0534 134.5174,114.0961 134.5300,114.1918 134.5905,114.3378 134.6867,114.4633 134.6867,114.4633 134.7703,114.5275 134.8122,114.5595 134.9582,114.6200 135.1150,114.6407 135.2718,114.6200 135.4178,114.5595 135.5433,114.4633 135.6395,114.3378 135.7000,114.1918 135.7207,114.0350 135.7207,114.0350 135.7207,114.0305 135.7424,113.9782 135.7947,113.9565 136.0643,113.9565 136.1166,113.9782 136.1383,114.0305 136.1280,114.0682 136.1135,114.0926 136.0672,114.2520 138.7772,114.2520 138.7309,114.0926 138.6463,113.9495 138.5287,113.8319 138.3992,113.7554 138.3652,113.7101 138.3732,113.6540 138.3845,113.6393 138.4114,113.6125 138.4628,113.5074 138.4727,113.4393 138.4727,113.0727 138.4628,113.0046 138.4114,112.8995 138.3287,112.8168 138.3287,112.8168 138.2236,112.7654 138.1555,112.7555 138.1555,112.7555 136.6953,112.7555 136.6430,112.7338 136.6213,112.6815 136.6218,112.6749 136.6218,112.6685 136.6237,112.6685 136.6366,112.6201 136.6430,112.6128 136.7277,112.5282 136.7800,112.5065 138.1555,112.5065 138.1555,112.5065 138.2236,112.4966 138.3287,112.4452 138.4114,112.3625 138.4628,112.2574 138.4727,112.1893 138.4727,111.8227 138.4628,111.7546 138.4114,111.6495 138.3287,111.5668 138.3287,111.5668 138.2236,111.5154 138.1555,111.5055 138.1555,111.5055 136.6889,111.5055 136.6889,111.5055 136.6208,111.5154 136.6208,111.5154 136.6087,111.5213 136.5522,111.5248 136.5097,111.4874 136.5079,111.4832 136.5065,111.4799 136.5065,111.4799 136.4460,111.3338 136.4396,111.3255 136.4250,111.2708 136.4533,111.2218 136.4984,111.2065 136.5217,111.2065 136.5542,111.2140 136.6144,111.2434 136.6208,111.2466 136.6889,111.2565 136.6889,111.2565 138.1555,111.2565 138.1555,111.2565 138.2236,111.2466 138.3287,111.1952 138.3457,111.1782 138.3980,111.1565 138.4654,111.1565 138.5104,111.1718 138.5654,111.2140 138.6222,111.2575 138.7682,111.3180 138.9250,111.3387 139.0818,111.3180 139.2278,111.2575 139.3533,111.1613 139.4495,111.0358 139.5100,110.8898 139.5307,110.7330 139.5100,110.5762 139.4495,110.4302 139.3918,110.3549 139.3533,110.3047 139.3533,110.3047 139.2278,110.2085 139.0818,110.1480 138.9250,110.1273 138.7682,110.1480 138.7682,110.1480 138.6222,110.2085 138.4967,110.3047 138.4967,110.3047 138.4887,110.3152 138.4800,110.3265 138.4309,110.3549 138.4213,110.3555 138.3980,110.3555 138.3457,110.3338 138.3287,110.3168 138.2236,110.2654 138.1555,110.2555 138.1555,110.2555 136.6889,110.2555 136.6889,110.2555 136.6208,110.2654 136.6208,110.2654 136.5542,110.2980 136.5217,110.3055 135.5407,110.3055 135.4586,110.3275 135.4261,110.3362 135.4261,110.3362 135.3234,110.3955 133.9925,111.7264 133.9332,111.8291 133.9332,111.8291 133.9272,111.8514 133.9272,111.8514 133.9025,111.9437 132.8755,111.9437 132.8755,109.9751 132.8972,109.9228 132.9495,109.9011 132.9650,109.9028 132.9679,109.9034 133.0717,109.9140 133.0717,109.9140 133.9682,109.9140 134.4762,109.9140 135.3727,109.9140 135.3727,109.9140 135.4765,109.9034 135.6447,109.8477 135.7955,109.7546 135.7955,109.7546 135.9208,109.6293 135.9208,109.6293 136.0139,109.4785 136.0696,109.3103 136.0802,109.2065 136.0802,109.2065 136.0802,109.1600 134.4762,109.1600 134.4762,109.9140 133.9682,109.9140 133.9682,108.6520 134.4762,108.6520 136.0802,108.6520 136.0802,108.6055 136.0802,108.6055 136.0696,108.5017 136.0139,108.3335 135.9208,108.1827 135.9208,108.1827 135.7955,108.0574 135.7955,108.0574 135.6447,107.9643 135.4765,107.9086 135.3727,107.8980 134.4762,107.8980 134.4762,108.6520 133.9682,108.6520 133.9682,107.8980 133.0717,107.8980 132.9679,107.9086 132.9650,107.9092 132.9639,107.9090 132.9639,107.9090 132.9639,107.9090 132.9093,107.8990 132.8771,107.8523 132.8755,107.8369 132.8755,105.5055 132.8972,105.4532 132.9495,105.4315 133.3382,105.4315 Z"/> 
</g> 
</g><g id="substrate-silk" style="fill:#212020; stroke:#212020;" mask="url(#pads-mask-silkscreen)"><g style="fill: #212020;fill-opacity: 1.0000;stroke: #212020;stroke-opacity: 1.0000;stroke-linecap: round;stroke-linejoin: round" transform="translate(0 0) scale(1 1)">
<path style="fill: #212020;fill-opacity: 1.0000;stroke: #212020;stroke-width: 0.1500;stroke-opacity: 1;stroke-linecap: round;stroke-linejoin: round;fill-rule: evenodd" d="M 155.1810,110.0980 161.6580,110.0980 161.6580,115.5590 155.1810,115.5590 Z"/> 
</g>
<g style="fill: none;stroke: #212020;stroke-width: 0.2000;stroke-opacity: 1;stroke-linecap: round;stroke-linejoin: round">
<g transform="rotate(-90.000000 138.6710 109.3360)">
<text x="138.6710" y="109.9360" textLength="4.1314" font-size="1.6000" lengthAdjust="spacingAndGlyphs" text-anchor="start" opacity="0">PWR</text>
</g>
<g class="stroked-text"><desc>PWR</desc>
<path d="M139.2157 108.9187 L138.0157 108.9187 "/>
<path d="M138.0157 108.9187 L138.0157 108.4616 "/>
<path d="M138.0157 108.4616 L138.0729 108.3473 "/>
<path d="M138.0729 108.3473 L138.1300 108.2901 "/>
<path d="M138.1300 108.2901 L138.2443 108.2330 "/>
<path d="M138.2443 108.2330 L138.4157 108.2330 "/>
<path d="M138.4157 108.2330 L138.5300 108.2901 "/>
<path d="M138.5300 108.2901 L138.5872 108.3473 "/>
<path d="M138.5872 108.3473 L138.6443 108.4616 "/>
<path d="M138.6443 108.4616 L138.6443 108.9187 "/>
<path d="M138.0157 107.8330 L139.2157 107.5473 "/>
<path d="M139.2157 107.5473 L138.3586 107.3187 "/>
<path d="M138.3586 107.3187 L139.2157 107.0901 "/>
<path d="M139.2157 107.0901 L138.0157 106.8044 "/>
<path d="M139.2157 105.6616 L138.6443 106.0616 "/>
<path d="M139.2157 106.3473 L138.0157 106.3473 "/>
<path d="M138.0157 106.3473 L138.0157 105.8901 "/>
<path d="M138.0157 105.8901 L138.0729 105.7758 "/>
<path d="M138.0729 105.7758 L138.1300 105.7187 "/>
<path d="M138.1300 105.7187 L138.2443 105.6616 "/>
<path d="M138.2443 105.6616 L138.4157 105.6616 "/>
<path d="M138.4157 105.6616 L138.5300 105.7187 "/>
<path d="M138.5300 105.7187 L138.5872 105.7758 "/>
<path d="M138.5872 105.7758 L138.6443 105.8901 "/>
<path d="M138.6443 105.8901 L138.6443 106.3473 "/>
</g></g>
<g style="fill: none;stroke: #212020;stroke-width: 0.3000;stroke-opacity: 1;stroke-linecap: round;stroke-linejoin: round">
<text x="150.6598" y="113.4658" textLength="8.6876" font-size="1.7333" lengthAdjust="spacingAndGlyphs" text-anchor="middle" opacity="0">TFHT02A</text>
<g class="stroked-text"><desc>TFHT02A</desc>
<path d="M146.7598 112.1016 L147.5027 112.1016 "/>
<path d="M147.1312 113.4016 L147.1312 112.1016 "/>
<path d="M148.3693 112.7207 L147.9360 112.7207 "/>
<path d="M147.9360 113.4016 L147.9360 112.1016 "/>
<path d="M147.9360 112.1016 L148.5550 112.1016 "/>
<path d="M149.0503 113.4016 L149.0503 112.1016 "/>
<path d="M149.0503 112.7207 L149.7931 112.7207 "/>
<path d="M149.7931 113.4016 L149.7931 112.1016 "/>
<path d="M150.2265 112.1016 L150.9693 112.1016 "/>
<path d="M150.5979 113.4016 L150.5979 112.1016 "/>
<path d="M151.6503 112.1016 L151.7741 112.1016 "/>
<path d="M151.7741 112.1016 L151.8979 112.1635 "/>
<path d="M151.8979 112.1635 L151.9598 112.2254 "/>
<path d="M151.9598 112.2254 L152.0217 112.3492 "/>
<path d="M152.0217 112.3492 L152.0836 112.5968 "/>
<path d="M152.0836 112.5968 L152.0836 112.9064 "/>
<path d="M152.0836 112.9064 L152.0217 113.1540 "/>
<path d="M152.0217 113.1540 L151.9598 113.2778 "/>
<path d="M151.9598 113.2778 L151.8979 113.3397 "/>
<path d="M151.8979 113.3397 L151.7741 113.4016 "/>
<path d="M151.7741 113.4016 L151.6503 113.4016 "/>
<path d="M151.6503 113.4016 L151.5265 113.3397 "/>
<path d="M151.5265 113.3397 L151.4646 113.2778 "/>
<path d="M151.4646 113.2778 L151.4027 113.1540 "/>
<path d="M151.4027 113.1540 L151.3408 112.9064 "/>
<path d="M151.3408 112.9064 L151.3408 112.5968 "/>
<path d="M151.3408 112.5968 L151.4027 112.3492 "/>
<path d="M151.4027 112.3492 L151.4646 112.2254 "/>
<path d="M151.4646 112.2254 L151.5265 112.1635 "/>
<path d="M151.5265 112.1635 L151.6503 112.1016 "/>
<path d="M152.5788 112.2254 L152.6408 112.1635 "/>
<path d="M152.6408 112.1635 L152.7646 112.1016 "/>
<path d="M152.7646 112.1016 L153.0741 112.1016 "/>
<path d="M153.0741 112.1016 L153.1979 112.1635 "/>
<path d="M153.1979 112.1635 L153.2598 112.2254 "/>
<path d="M153.2598 112.2254 L153.3217 112.3492 "/>
<path d="M153.3217 112.3492 L153.3217 112.4730 "/>
<path d="M153.3217 112.4730 L153.2598 112.6587 "/>
<path d="M153.2598 112.6587 L152.5169 113.4016 "/>
<path d="M152.5169 113.4016 L153.3217 113.4016 "/>
<path d="M153.8169 113.0302 L154.4360 113.0302 "/>
<path d="M153.6931 113.4016 L154.1265 112.1016 "/>
<path d="M154.1265 112.1016 L154.5598 113.4016 "/>
</g></g>
<g style="fill: none;stroke: #212020;stroke-width: 0.1500;stroke-opacity: 1;stroke-linecap: round;stroke-linejoin: round">
<g transform="rotate(-90.000000 137.4712 118.3530)">
<text x="137.4712" y="118.8530" textLength="1.9643" font-size="1.3333" lengthAdjust="spacingAndGlyphs" text-anchor="middle" opacity="0">J2</text>
</g>
<g class="stroked-text"><desc>J2</desc>
<path d="M136.9260 118.6863 L137.6403 118.6863 "/>
<path d="M137.6403 118.6863 L137.7832 118.7340 "/>
<path d="M137.7832 118.7340 L137.8784 118.8292 "/>
<path d="M137.8784 118.8292 L137.9260 118.9720 "/>
<path d="M137.9260 118.9720 L137.9260 119.0673 "/>
<path d="M137.0213 118.2578 L136.9736 118.2101 "/>
<path d="M136.9736 118.2101 L136.9260 118.1149 "/>
<path d="M136.9260 118.1149 L136.9260 117.8768 "/>
<path d="M136.9260 117.8768 L136.9736 117.7816 "/>
<path d="M136.9736 117.7816 L137.0213 117.7340 "/>
<path d="M137.0213 117.7340 L137.1165 117.6863 "/>
<path d="M137.1165 117.6863 L137.2117 117.6863 "/>
<path d="M137.2117 117.6863 L137.3546 117.7340 "/>
<path d="M137.3546 117.7340 L137.9260 118.3054 "/>
<path d="M137.9260 118.3054 L137.9260 117.6863 "/>
</g><path style="fill: #212020;fill-opacity: 1.0000;stroke: none;fill-rule: evenodd" d="M 144.9060,107.5986 145.0474,107.2103 145.2976,107.3013 144.9239,108.3282 144.6736,108.2371 144.8150,107.8488 143.6932,107.4405 143.7842,107.1903 Z"/> 
<path style="fill: #212020;fill-opacity: 1.0000;stroke: none;fill-rule: evenodd" d="M 142.8667,113.9803 142.5463,114.8605 142.2961,114.7694 142.5222,114.1481 142.2377,114.0445 142.1483,114.2832 142.0588,114.5218 141.8111,114.4371 141.9872,113.9534 141.6420,113.8277 141.4096,114.4663 141.1680,114.3783 141.4946,113.4809 Z"/> 
<path style="fill: #212020;fill-opacity: 1.0000;stroke: none;fill-rule: evenodd" d="M 144.8736,108.4663 144.7825,108.7165 144.2389,108.5186 144.0129,109.1397 144.2817,109.2401 144.5505,109.3406 144.5066,109.4687 144.4626,109.5969 143.0901,109.0973 143.1844,108.8384 143.7711,109.0520 143.9973,108.4307 143.4105,108.2171 143.5016,107.9669 Z"/> 
<path style="fill: #212020;fill-opacity: 1.0000;stroke: none;fill-rule: evenodd" d="M 143.8623,111.2449 143.8175,111.3678 143.7728,111.4908 143.2305,111.6208 142.6883,111.7508 143.1247,111.9122 143.5612,112.0736 143.4638,112.3262 142.7792,112.0795 142.0945,111.8328 142.1730,111.6170 142.7481,111.4770 143.3232,111.3369 142.8612,111.1662 142.3992,110.9956 142.4903,110.7455 Z"/> 
<path style="fill: #212020;fill-opacity: 1.0000;stroke: none;fill-rule: evenodd" d="M 138.7638,115.7945 138.7765,115.8018 138.8039,115.8176 138.8445,115.8410 138.8972,115.8713 138.9605,115.9078 139.0333,115.9498 139.1142,115.9964 139.2020,116.0470 139.2952,116.1007 139.3927,116.1569 139.4042,116.1636 140.0140,116.5152 139.9703,116.6427 139.9522,116.6944 139.9386,116.7305 139.9285,116.7531 139.9211,116.7642 139.9157,116.7659 139.9062,116.7608 139.8820,116.7471 139.8444,116.7257 139.7945,116.6972 139.7337,116.6623 139.6630,116.6217 139.5838,116.5762 139.4973,116.5264 139.4046,116.4730 139.3071,116.4167 139.2749,116.3981 138.6449,116.0346 138.7332,115.7771 Z"/> 
<path style="fill: #212020;fill-opacity: 1.0000;stroke: none;fill-rule: evenodd" d="M 142.2857,116.6341 142.3098,116.6478 142.3475,116.6692 142.3973,116.6977 142.4582,116.7326 142.5288,116.7731 142.6081,116.8187 142.6946,116.8685 142.7873,116.9219 142.8848,116.9781 142.9170,116.9967 143.5470,117.3601 143.4586,117.6178 143.4280,117.6004 143.4153,117.5931 143.3880,117.5774 143.3473,117.5539 143.2947,117.5236 143.2313,117.4871 143.1585,117.4451 143.0776,117.3985 142.9899,117.3479 142.8967,117.2941 142.7992,117.2379 142.7877,117.2313 142.1779,116.8795 142.2216,116.7521 142.2397,116.7004 142.2533,116.6643 142.2634,116.6417 142.2708,116.6307 142.2762,116.6289 Z"/> 
<path style="fill: #212020;fill-opacity: 1.0000;stroke: none;fill-rule: evenodd" d="M 141.9287,117.6113 141.9393,117.6177 141.9645,117.6325 142.0032,117.6550 142.0541,117.6845 142.1158,117.7202 142.1872,117.7615 142.2670,117.8076 142.3540,117.8579 142.4469,117.9114 142.5444,117.9677 142.5679,117.9812 142.6659,118.0377 142.7591,118.0915 142.8465,118.1420 142.9267,118.1885 142.9986,118.2302 143.0609,118.2665 143.1125,118.2966 143.1521,118.3198 143.1786,118.3354 143.1906,118.3428 143.1913,118.3433 143.1888,118.3529 143.1807,118.3763 143.1683,118.4106 143.1524,118.4526 143.1453,118.4712 143.0975,118.5950 142.5120,118.2572 142.4153,118.2015 142.3222,118.1477 142.2339,118.0968 142.1519,118.0496 142.0777,118.0068 142.0125,117.9692 141.9578,117.9377 141.9150,117.9131 141.8855,117.8962 141.8718,117.8883 141.8172,117.8572 141.9109,117.5996 Z"/> 
<path style="fill: #212020;fill-opacity: 1.0000;stroke: none;fill-rule: evenodd" d="M 138.3923,116.7798 138.4165,116.7934 138.4542,116.8147 138.5040,116.8431 138.5649,116.8778 138.6356,116.9183 138.7149,116.9637 138.8015,117.0135 138.8943,117.0668 138.9920,117.1230 139.0259,117.1425 139.6581,117.5066 139.5648,117.7627 139.5470,117.7513 139.5363,117.7450 139.5110,117.7302 139.4723,117.7078 139.4215,117.6784 139.3599,117.6429 139.2888,117.6018 139.2093,117.5560 139.1229,117.5062 139.0307,117.4531 138.9341,117.3976 138.9272,117.3936 138.8302,117.3378 138.7374,117.2844 138.6503,117.2342 138.5699,117.1879 138.4977,117.1462 138.4349,117.1100 138.3828,117.0799 138.3427,117.0567 138.3158,117.0411 138.3035,117.0338 138.3033,117.0337 138.2814,117.0201 138.3267,116.8956 138.3459,116.8440 138.3605,116.8080 138.3712,116.7858 138.3789,116.7757 138.3828,116.7748 Z"/> 
<path style="fill: #212020;fill-opacity: 1.0000;stroke: none;fill-rule: evenodd" d="M 139.1033,114.8094 139.1065,114.8104 139.1169,114.8159 139.1416,114.8296 139.1791,114.8507 139.2279,114.8784 139.2865,114.9118 139.3535,114.9501 139.4275,114.9924 139.5069,115.0379 139.5903,115.0858 139.6762,115.1352 139.7632,115.1853 139.8497,115.2351 139.9344,115.2840 140.0158,115.3310 140.0923,115.3752 140.1626,115.4160 140.2252,115.4523 140.2785,115.4834 140.3212,115.5084 140.3518,115.5264 140.3687,115.5367 140.3718,115.5388 140.3692,115.5482 140.3612,115.5716 140.3486,115.6058 140.3328,115.6478 140.3256,115.6665 140.2778,115.7905 139.7123,115.4646 139.6167,115.4095 139.5239,115.3560 139.4357,115.3051 139.3534,115.2576 139.2786,115.2145 139.2128,115.1765 139.1574,115.1445 139.1139,115.1194 139.0839,115.1020 139.0723,115.0953 138.9977,115.0519 139.0429,114.9278 139.0606,114.8794 139.0735,114.8457 139.0829,114.8243 139.0901,114.8128 139.0964,114.8087 Z"/> 
<path style="fill: #212020;fill-opacity: 1.0000;stroke: none;fill-rule: evenodd" d="M 141.5720,118.6045 141.5834,118.6112 141.6094,118.6263 141.6487,118.6490 141.7001,118.6787 141.7623,118.7146 141.8339,118.7559 141.9138,118.8020 142.0006,118.8519 142.0930,118.9051 142.1898,118.9608 142.1960,118.9644 142.2929,119.0201 142.3854,119.0734 142.4723,119.1234 142.5522,119.1695 142.6240,119.2109 142.6863,119.2469 142.7379,119.2768 142.7775,119.2997 142.8038,119.3150 142.8155,119.3220 142.8158,119.3221 142.8225,119.3272 142.8261,119.3339 142.8259,119.3451 142.8213,119.3636 142.8119,119.3924 142.7970,119.4342 142.7881,119.4586 142.7716,119.5027 142.7568,119.5397 142.7450,119.5666 142.7376,119.5804 142.7360,119.5816 142.7272,119.5768 142.7037,119.5636 142.6667,119.5426 142.6174,119.5144 142.5570,119.4799 142.4867,119.4396 142.4078,119.3943 142.3214,119.3447 142.2288,119.2915 142.1311,119.2353 142.0931,119.2134 141.4569,118.8471 141.5501,118.5909 Z"/> 
<path style="fill: #212020;fill-opacity: 1.0000;stroke: none;fill-rule: evenodd" d="M 140.3464,116.7003 140.3706,116.7139 140.4082,116.7354 140.4580,116.7639 140.5188,116.7987 140.5894,116.8393 140.6686,116.8848 140.7551,116.9346 140.8478,116.9880 140.9453,117.0443 140.9776,117.0629 141.6075,117.4264 141.5636,117.5544 141.5479,117.5992 141.5339,117.6368 141.5228,117.6644 141.5158,117.6789 141.5143,117.6804 141.5050,117.6753 141.4814,117.6620 141.4452,117.6414 141.3981,117.6144 141.3415,117.5820 141.2772,117.5451 141.2067,117.5046 141.1318,117.4614 141.0541,117.4166 140.9751,117.3711 140.8965,117.3258 140.8199,117.2815 140.7470,117.2394 140.6794,117.2003 140.6187,117.1651 140.5666,117.1349 140.5246,117.1104 140.4945,117.0928 140.4778,117.0829 140.4750,117.0811 140.4707,117.0791 140.4661,117.0809 140.4604,117.0883 140.4529,117.1031 140.4427,117.1271 140.4291,117.1621 140.4112,117.2099 140.3883,117.2723 140.3749,117.3092 140.2883,117.5472 140.2704,117.5359 140.2545,117.5264 140.2276,117.5106 140.1942,117.4913 140.1797,117.4829 140.1445,117.4626 140.1130,117.4443 140.0903,117.4310 140.0850,117.4278 140.0630,117.4144 140.1946,117.0527 140.2283,116.9605 140.2564,116.8844 140.2794,116.8232 140.2977,116.7755 140.3121,116.7401 140.3228,116.7158 140.3304,116.7013 140.3354,116.6954 140.3370,116.6952 Z"/> 
<path style="fill: #212020;fill-opacity: 1.0000;stroke: none;fill-rule: evenodd" d="M 142.2215,112.1819 143.3712,112.6004 143.2530,112.9116 143.2214,112.9946 143.1953,113.0625 143.1738,113.1172 143.1561,113.1609 143.1412,113.1955 143.1283,113.2232 143.1165,113.2459 143.1050,113.2657 143.0927,113.2846 143.0895,113.2894 143.0179,113.3799 142.9372,113.4547 142.8480,113.5135 142.7511,113.5558 142.6473,113.5815 142.5372,113.5900 142.4663,113.5866 142.3805,113.5728 142.2890,113.5482 142.1982,113.5150 142.1144,113.4756 142.0607,113.4437 141.9714,113.3742 141.8964,113.2947 141.8367,113.2063 141.7928,113.1104 141.7657,113.0080 141.7589,112.9585 141.7557,112.9229 141.7536,112.8917 141.7535,112.8820 142.0048,112.8820 142.0196,112.9601 142.0515,113.0331 142.1000,113.1001 142.1647,113.1601 142.2001,113.1853 142.2497,113.2130 142.3113,113.2401 142.3786,113.2645 142.4454,113.2839 142.5053,113.2962 142.5214,113.2982 142.5877,113.3019 142.6437,113.2979 142.6962,113.2853 142.7394,113.2688 142.7836,113.2471 142.8214,113.2221 142.8544,113.1915 142.8842,113.1530 142.9124,113.1044 142.9408,113.0433 142.9710,112.9676 142.9846,112.9311 143.0451,112.7651 142.1304,112.4321 142.0725,112.5914 142.0532,112.6459 142.0359,112.6982 142.0216,112.7443 142.0117,112.7804 142.0076,112.7998 142.0048,112.8820 141.7535,112.8820 141.7533,112.8626 141.7552,112.8337 141.7598,112.8028 141.7675,112.7677 141.7789,112.7263 141.7944,112.6766 141.8145,112.6164 141.8397,112.5436 141.8705,112.4560 141.8777,112.4354 141.9961,112.0998 Z"/> 
<path style="fill: #212020;fill-opacity: 1.0000;stroke: none;fill-rule: evenodd" d="M 141.7820,114.8192 141.8123,114.8303 142.4651,115.0703 142.3544,115.3721 142.3212,115.4623 142.2930,115.5372 142.2688,115.5987 142.2478,115.6487 142.2290,115.6893 142.2112,115.7223 142.1936,115.7497 142.1753,115.7735 142.1550,115.7957 142.1321,115.8182 142.1297,115.8204 142.0616,115.8730 141.9882,115.9080 141.9096,115.9254 141.8326,115.9259 141.7847,115.9175 141.7287,115.9015 141.6702,115.8801 141.6152,115.8554 141.5696,115.8299 141.5513,115.8169 141.4910,115.7573 141.4453,115.6868 141.4147,115.6060 141.4075,115.5746 141.4024,115.5489 141.3988,115.5319 141.3981,115.5286 141.3890,115.5290 141.3638,115.5318 141.3245,115.5368 141.2731,115.5436 141.2116,115.5521 141.1421,115.5620 141.0664,115.5729 141.0642,115.5732 140.9880,115.5843 140.9176,115.5945 140.8549,115.6036 140.8021,115.6111 140.7612,115.6169 140.7342,115.6207 140.7234,115.6221 140.7233,115.6221 140.7236,115.6141 140.7295,115.5917 140.7401,115.5577 140.7545,115.5151 140.7670,115.4800 140.7911,115.4139 141.6255,115.4139 141.6331,115.4775 141.6550,115.5301 141.6920,115.5728 141.7447,115.6062 141.7757,115.6193 141.8422,115.6363 141.9030,115.6361 141.9574,115.6190 142.0051,115.5849 142.0208,115.5681 142.0358,115.5470 142.0528,115.5157 142.0729,115.4721 142.0973,115.4139 142.1062,115.3917 142.1632,115.2487 141.7189,115.0870 141.6720,115.2287 141.6514,115.2932 141.6371,115.3430 141.6287,115.3807 141.6255,115.4087 141.6255,115.4139 140.7911,115.4139 140.8188,115.3377 141.1137,115.2993 141.4086,115.2610 141.5056,115.0094 141.0047,114.8271 141.0989,114.5681 Z"/> 
<path style="fill: #212020;fill-opacity: 1.0000;stroke: none;fill-rule: evenodd" d="M 143.3314,109.5073 143.3723,109.5118 143.4171,109.5197 143.4675,109.5315 143.5251,109.5475 143.5916,109.5682 143.6685,109.5940 143.7576,109.6253 143.8605,109.6625 143.9787,109.7062 143.9821,109.7074 144.3652,109.8497 144.3213,109.9778 144.2773,110.1060 143.8722,109.9585 143.7747,109.9233 143.6847,109.8912 143.6037,109.8628 143.5333,109.8387 143.4750,109.8193 143.4304,109.8052 143.4011,109.7970 143.3968,109.7960 143.3115,109.7832 143.2376,109.7842 143.1741,109.7997 143.1198,109.8302 143.0737,109.8762 143.0345,109.9382 143.0152,109.9800 142.9883,110.0593 142.9773,110.1303 142.9828,110.1945 143.0050,110.2531 143.0442,110.3075 143.1010,110.3590 143.1194,110.3727 143.1329,110.3819 143.1475,110.3908 143.1650,110.4002 143.1869,110.4107 143.2147,110.4229 143.2500,110.4375 143.2944,110.4550 143.3496,110.4763 143.4170,110.5018 143.4982,110.5323 143.5949,110.5684 143.6104,110.5742 144.0471,110.7371 143.9562,110.9869 143.4805,110.8104 143.3779,110.7722 143.2909,110.7398 143.2182,110.7126 143.1581,110.6899 143.1093,110.6711 143.0702,110.6555 143.0393,110.6426 143.0150,110.6318 142.9960,110.6223 142.9806,110.6137 142.9674,110.6052 142.9549,110.5963 142.9474,110.5907 142.8666,110.5204 142.8021,110.4434 142.7545,110.3604 142.7239,110.2721 142.7108,110.1792 142.7113,110.1236 142.7156,110.0878 142.7237,110.0419 142.7343,109.9922 142.7460,109.9453 142.7573,109.9076 142.7614,109.8965 142.7720,109.8725 142.7874,109.8397 142.8024,109.8091 142.8554,109.7217 142.9193,109.6481 142.9932,109.5890 143.0759,109.5454 143.1664,109.5179 143.2164,109.5102 143.2551,109.5069 143.2929,109.5058 Z"/> 
<path style="fill: #212020;fill-opacity: 1.0000;stroke: none;fill-rule: evenodd" d="M 139.9794,117.6901 140.0024,117.7031 140.0376,117.7232 140.0831,117.7493 140.1371,117.7803 140.1978,117.8152 140.2526,117.8467 140.5294,118.0062 140.9680,117.9849 141.0559,117.9807 141.1381,117.9768 141.2129,117.9734 141.2784,117.9704 141.3327,117.9681 141.3742,117.9664 141.4010,117.9655 141.4113,117.9654 141.4113,117.9654 141.4098,117.9740 141.4027,117.9969 141.3908,118.0309 141.3752,118.0732 141.3647,118.1010 141.3132,118.2349 141.0041,118.2458 140.9308,118.2486 140.8636,118.2513 140.8046,118.2539 140.7561,118.2563 140.7200,118.2585 140.6986,118.2602 140.6935,118.2611 140.6981,118.2695 140.7117,118.2914 140.7334,118.3254 140.7620,118.3695 140.7964,118.4222 140.8356,118.4819 140.8784,118.5467 140.8881,118.5614 140.9317,118.6274 140.9719,118.6889 141.0077,118.7440 141.0379,118.7911 141.0614,118.8284 141.0772,118.8543 141.0841,118.8670 141.0843,118.8678 141.0812,118.8797 141.0726,118.9053 141.0596,118.9415 141.0434,118.9849 141.0356,119.0052 140.9866,119.1322 140.7202,118.7099 140.6695,118.6297 140.6213,118.5538 140.5767,118.4837 140.5365,118.4208 140.5016,118.3667 140.4732,118.3229 140.4521,118.2909 140.4393,118.2721 140.4363,118.2681 140.4243,118.2590 140.3983,118.2420 140.3605,118.2185 140.3128,118.1897 140.2573,118.1569 140.1962,118.1212 140.1602,118.1005 140.0970,118.0643 140.0386,118.0306 139.9869,118.0007 139.9440,117.9757 139.9119,117.9569 139.8925,117.9453 139.8879,117.9423 139.8832,117.9368 139.8819,117.9275 139.8846,117.9116 139.8920,117.8865 139.9049,117.8492 139.9198,117.8078 139.9362,117.7638 139.9507,117.7269 139.9621,117.7001 139.9691,117.6864 139.9704,117.6852 Z"/> 
<path style="fill: #212020;fill-opacity: 1.0000;stroke: none;fill-rule: evenodd" d="M 140.6950,115.7209 140.7055,115.7264 140.7303,115.7401 140.7678,115.7613 140.8167,115.7892 140.8755,115.8227 140.9426,115.8612 141.0167,115.9037 141.0962,115.9495 141.1797,115.9976 141.2657,116.0472 141.3528,116.0974 141.4394,116.1475 141.5241,116.1965 141.6054,116.2436 141.6819,116.2880 141.7521,116.3287 141.8145,116.3651 141.8676,116.3962 141.9100,116.4211 141.9402,116.4390 141.9568,116.4491 141.9595,116.4510 141.9575,116.4606 141.9498,116.4853 141.9373,116.5232 141.9206,116.5719 141.9005,116.6296 141.8778,116.6941 141.8531,116.7633 141.8274,116.8352 141.8012,116.9076 141.7754,116.9786 141.7507,117.0459 141.7279,117.1076 141.7076,117.1615 141.6907,117.2057 141.6780,117.2379 141.6700,117.2561 141.6680,117.2594 141.6582,117.2561 141.6357,117.2451 141.6036,117.2279 141.5650,117.2062 141.5551,117.2004 141.5153,117.1775 141.4813,117.1580 141.4561,117.1438 141.4430,117.1366 141.4420,117.1362 141.4434,117.1273 141.4506,117.1032 141.4627,117.0661 141.4791,117.0178 141.4991,116.9605 141.5221,116.8962 141.5374,116.8539 141.6392,116.5741 141.5972,116.5486 141.5692,116.5319 141.5320,116.5101 141.4927,116.4873 141.4824,116.4814 141.4478,116.4615 141.4176,116.4438 141.3966,116.4314 141.3917,116.4284 141.3739,116.4171 141.2953,116.6330 141.2697,116.7028 141.2493,116.7567 141.2336,116.7963 141.2219,116.8232 141.2134,116.8389 141.2077,116.8449 141.2059,116.8450 141.1946,116.8392 141.1713,116.8262 141.1398,116.8082 141.1040,116.7875 141.0677,116.7663 141.0347,116.7467 141.0088,116.7311 141.0001,116.7257 140.9823,116.7143 141.1391,116.2835 141.1213,116.2721 141.1087,116.2646 141.0826,116.2493 141.0450,116.2276 140.9984,116.2008 140.9450,116.1702 140.8890,116.1382 140.8296,116.1042 140.7733,116.0719 140.7227,116.0428 140.6804,116.0183 140.6491,116.0001 140.6326,115.9903 140.5906,115.9649 140.6359,115.8404 140.6540,115.7912 140.6674,115.7571 140.6772,115.7355 140.6846,115.7240 140.6909,115.7203 Z"/> 
</g>
<g style="fill: none;stroke: #212020;stroke-width: 0.1200;stroke-opacity: 1;stroke-linecap: round;stroke-linejoin: round">
<path d="M133.0122 109.6660 L133.0122 115.5960 "/>
<path d="M135.8322 108.3960 L137.2822 108.3960 "/>
<path d="M135.8322 116.8660 L137.2822 116.8660 "/>
<path d="M137.2822 108.3960 L137.2822 110.1960 "/>
<path d="M137.2822 110.1960 L138.2722 110.1960 "/>
<path d="M137.2822 116.8660 L137.2822 115.0660 "/>
</g> 
</g><g id="substrate-outline" style="fill:#000000; stroke:#000000; stroke-width: 0.15"><g style="fill: none;stroke: #000000;stroke-width: #000000;stroke-opacity: 1;stroke-linecap: round;stroke-linejoin: round">
<path d="M161.9628 108.3294 L161.9628 117.1498 "/>
<path d="M160.7223 111.1810 L160.4001 110.8658 "/>
<path d="M159.9431 114.8986 A1.0000 1.0000 0.0 0 0 160.6425 114.6133"/>
<path d="M160.9628 118.1498 L147.7972 118.1498 "/>
<path d="M160.7225 114.5350 A0.9999 0.9999 0.0 0 0 161.0230 113.8204"/>
<path d="M156.7382 114.8986 L159.9431 114.8986 "/>
<path d="M161.9628 108.3294 A1.0000 1.0000 0.0 0 0 160.9628 107.3294"/>
<path d="M160.9628 118.1498 A1.0000 1.0000 0.0 0 0 161.9628 117.1498"/>
<path d="M147.1177 114.3743 A1.0001 1.0001 0.0 0 0 146.7936 115.1129"/>
<path d="M146.8244 110.2172 L146.8244 108.3294 "/>
<path d="M147.8244 107.3294 L160.9628 107.3294 "/>
<path d="M148.3197 113.6286 A1.0001 1.0001 0.0 0 0 147.6438 113.8917"/>
<path d="M148.3197 113.6286 L154.6398 113.6286 "/>
<path d="M160.6425 114.6133 L160.7225 114.5350 "/>
<path style="fill: none;stroke: #000000;stroke-width: #000000;stroke-opacity: 1;stroke-linecap: round;stroke-linejoin: round" d="M 132.5750,105.1310 162.5750,105.1310 162.5750,120.1310 132.5750,120.1310 Z"/> 
<path d="M157.5002 110.5806 A1.0001 1.0001 0.0 0 0 156.7931 110.8735"/>
<path d="M156.0311 114.6057 A1.0000 1.0000 0.0 0 0 156.7382 114.8986"/>
<path d="M159.7008 110.5806 L157.5002 110.5806 "/>
<path d="M146.8244 110.2172 A1.0000 1.0000 0.0 0 0 147.1173 110.9243"/>
<path d="M156.7931 110.8735 L156.1089 111.5577 "/>
<path d="M146.7972 117.1516 L146.7936 115.1129 "/>
<path d="M160.4001 110.8658 A1.0000 1.0000 0.0 0 0 159.7008 110.5806"/>
<path d="M147.8244 107.3294 A1.0000 1.0000 0.0 0 0 146.8244 108.3294"/>
<path d="M147.7507 111.5577 A0.9999 0.9999 0.0 0 0 148.4578 111.8506"/>
<path d="M155.4018 111.8506 A1.0001 1.0001 0.0 0 0 156.1089 111.5577"/>
<path d="M155.3469 113.9215 L156.0311 114.6057 "/>
<path d="M147.1177 114.3743 L147.6438 113.8917 "/>
<path d="M146.7972 117.1516 A1.0000 1.0000 0.0 0 0 147.7972 118.1498"/>
<path d="M155.4018 111.8506 L148.4578 111.8506 "/>
<path d="M147.7507 111.5577 L147.1173 110.9243 "/>
<path d="M161.0230 111.8958 A1.0000 1.0000 0.0 0 0 160.7223 111.1810"/>
<path d="M155.3469 113.9215 A1.0000 1.0000 0.0 0 0 154.6398 113.6286"/>
<path d="M161.0230 113.8204 L161.0230 111.8958 "/>
</g>
<g style="fill: none;stroke: #000000;stroke-width: #000000;stroke-opacity: 1;stroke-linecap: round;stroke-linejoin: round">
<path d="M139.9750 106.4310 L139.9750 107.8310 "/>
<path d="M140.2750 108.1310 L141.8750 108.1310 "/>
<path d="M141.8750 106.1310 L140.2750 106.1310 "/>
<path d="M142.1750 107.8310 L142.1750 106.4310 "/>
<path d="M140.2750 106.1310 A0.3000 0.3000 0.0 0 0 139.9750 106.4310"/>
<path d="M139.9750 107.8310 A0.3000 0.3000 0.0 0 0 140.2750 108.1310"/>
<path d="M142.1750 106.4310 A0.3000 0.3000 0.0 0 0 141.8750 106.1310"/>
<path d="M141.8750 108.1310 A0.3000 0.3000 0.0 0 0 142.1750 107.8310"/>
</g> 
<path d="M -1.5 0.0 A 1.5 1.5 0 1 1 1.5 0.0 L 1.5 -0.0 A 1.5 1.5 0 1 1 -1.5 -0.0 Z" transform="translate(145.075 105.131) rotate(-0.0)"/><path d="M -1.5 0.0 A 1.5 1.5 0 1 1 1.5 0.0 L 1.5 -0.0 A 1.5 1.5 0 1 1 -1.5 -0.0 Z" transform="translate(145.075 120.131) rotate(-0.0)"/><path d="M -1.5 0.0 A 1.5 1.5 0 1 1 1.5 0.0 L 1.5 -0.0 A 1.5 1.5 0 1 1 -1.5 -0.0 Z" transform="translate(135.075 105.131) rotate(-0.0)"/><path d="M -1.5 0.0 A 1.5 1.5 0 1 1 1.5 0.0 L 1.5 -0.0 A 1.5 1.5 0 1 1 -1.5 -0.0 Z" transform="translate(155.075 120.131) rotate(-0.0)"/><path d="M -1.5 0.0 A 1.5 1.5 0 1 1 1.5 0.0 L 1.5 -0.0 A 1.5 1.5 0 1 1 -1.5 -0.0 Z" transform="translate(155.075 105.131) rotate(-0.0)"/><path d="M -1.5 0.0 A 1.5 1.5 0 1 1 1.5 0.0 L 1.5 -0.0 A 1.5 1.5 0 1 1 -1.5 -0.0 Z" transform="translate(135.075 120.131) rotate(-0.0)"/><path d="M -0.2 0.0 A 0.2 0.2 0 1 1 0.2 0.0 L 0.2 -0.0 A 0.2 0.2 0 1 1 -0.2 -0.0 Z" transform="translate(136.766 115.813) rotate(-0.0)"/><path d="M -0.2 0.0 A 0.2 0.2 0 1 1 0.2 0.0 L 0.2 -0.0 A 0.2 0.2 0 1 1 -0.2 -0.0 Z" transform="translate(133.718 107.304) rotate(-0.0)"/><path d="M -0.2 0.0 A 0.2 0.2 0 1 1 0.2 0.0 L 0.2 -0.0 A 0.2 0.2 0 1 1 -0.2 -0.0 Z" transform="translate(136.512 108.066) rotate(-0.0)"/><path d="M -0.2 0.0 A 0.2 0.2 0 1 1 0.2 0.0 L 0.2 -0.0 A 0.2 0.2 0 1 1 -0.2 -0.0 Z" transform="translate(134.734 107.304) rotate(-0.0)"/><path d="M -0.2 0.0 A 0.2 0.2 0 1 1 0.2 0.0 L 0.2 -0.0 A 0.2 0.2 0 1 1 -0.2 -0.0 Z" transform="translate(135.75 107.304) rotate(-0.0)"/><path d="M -0.2 0.0 A 0.2 0.2 0 1 1 0.2 0.0 L 0.2 -0.0 A 0.2 0.2 0 1 1 -0.2 -0.0 Z" transform="translate(133.62413 114.726322) rotate(-0.0)"/><path d="M -0.2 0.0 A 0.2 0.2 0 1 1 0.2 0.0 L 0.2 -0.0 A 0.2 0.2 0 1 1 -0.2 -0.0 Z" transform="translate(133.718 117.845) rotate(-0.0)"/><path d="M -0.2 0.0 A 0.2 0.2 0 1 1 0.2 0.0 L 0.2 -0.0 A 0.2 0.2 0 1 1 -0.2 -0.0 Z" transform="translate(142.989 113.527) rotate(-0.0)"/><path d="M -0.2 0.0 A 0.2 0.2 0 1 1 0.2 0.0 L 0.2 -0.0 A 0.2 0.2 0 1 1 -0.2 -0.0 Z" transform="translate(134.114185 110.277733) rotate(-0.0)"/><path d="M -0.2 0.0 A 0.2 0.2 0 1 1 0.2 0.0 L 0.2 -0.0 A 0.2 0.2 0 1 1 -0.2 -0.0 Z" transform="translate(136.004 117.845) rotate(-0.0)"/><path d="M -0.2 0.0 A 0.2 0.2 0 1 1 0.2 0.0 L 0.2 -0.0 A 0.2 0.2 0 1 1 -0.2 -0.0 Z" transform="translate(136.766 116.956) rotate(-0.0)"/><path d="M -0.2 0.0 A 0.2 0.2 0 1 1 0.2 0.0 L 0.2 -0.0 A 0.2 0.2 0 1 1 -0.2 -0.0 Z" transform="translate(133.503 111.241) rotate(-0.0)"/><path d="M -0.2 0.0 A 0.2 0.2 0 1 1 0.2 0.0 L 0.2 -0.0 A 0.2 0.2 0 1 1 -0.2 -0.0 Z" transform="translate(134.861 117.845) rotate(-0.0)"/><path d="M -0.2 0.0 A 0.2 0.2 0 1 1 0.2 0.0 L 0.2 -0.0 A 0.2 0.2 0 1 1 -0.2 -0.0 Z" transform="translate(137.655 109.463) rotate(-0.0)"/><path d="M -0.2 0.0 A 0.2 0.2 0 1 1 0.2 0.0 L 0.2 -0.0 A 0.2 0.2 0 1 1 -0.2 -0.0 Z" transform="translate(133.337 112.511) rotate(-0.0)"/><path d="M -0.2 0.0 A 0.2 0.2 0 1 1 0.2 0.0 L 0.2 -0.0 A 0.2 0.2 0 1 1 -0.2 -0.0 Z" transform="translate(142.2997 109.0023) rotate(-0.0)"/><path d="M -0.2 0.0 A 0.2 0.2 0 1 1 0.2 0.0 L 0.2 -0.0 A 0.2 0.2 0 1 1 -0.2 -0.0 Z" transform="translate(133.362894 113.698028) rotate(-0.0)"/><path d="M -0.2 0.0 A 0.2 0.2 0 1 1 0.2 0.0 L 0.2 -0.0 A 0.2 0.2 0 1 1 -0.2 -0.0 Z" transform="translate(136.639 109.463) rotate(-0.0)"/><path d="M -0.2 0.0 A 0.2 0.2 0 1 1 0.2 0.0 L 0.2 -0.0 A 0.2 0.2 0 1 1 -0.2 -0.0 Z" transform="translate(144.894 113.3106) rotate(-0.0)"/><path d="M -0.2 0.0 A 0.2 0.2 0 1 1 0.2 0.0 L 0.2 -0.0 A 0.2 0.2 0 1 1 -0.2 -0.0 Z" transform="translate(158.102 113.4508) rotate(-0.0)"/><path d="M -0.2 0.0 A 0.2 0.2 0 1 1 0.2 0.0 L 0.2 -0.0 A 0.2 0.2 0 1 1 -0.2 -0.0 Z" transform="translate(145.717674 117.703476) rotate(-0.0)"/><path d="M -0.2 0.0 A 0.2 0.2 0 1 1 0.2 0.0 L 0.2 -0.0 A 0.2 0.2 0 1 1 -0.2 -0.0 Z" transform="translate(135.115 114.035) rotate(-0.0)"/><path d="M -0.2 0.0 A 0.2 0.2 0 1 1 0.2 0.0 L 0.2 -0.0 A 0.2 0.2 0 1 1 -0.2 -0.0 Z" transform="translate(138.925 110.733) rotate(-0.0)"/><path d="M -0.2 0.0 A 0.2 0.2 0 1 1 0.2 0.0 L 0.2 -0.0 A 0.2 0.2 0 1 1 -0.2 -0.0 Z" transform="translate(158.3052 111.3172) rotate(-0.0)"/><path d="M -0.2 0.0 A 0.2 0.2 0 1 1 0.2 0.0 L 0.2 -0.0 A 0.2 0.2 0 1 1 -0.2 -0.0 Z" transform="translate(142.989 111.241) rotate(-0.0)"/><path d="M -0.2 0.0 A 0.2 0.2 0 1 1 0.2 0.0 L 0.2 -0.0 A 0.2 0.2 0 1 1 -0.2 -0.0 Z" transform="translate(135.921443 111.63664) rotate(-0.0)"/><path d="M -0.2 0.0 A 0.2 0.2 0 1 1 0.2 0.0 L 0.2 -0.0 A 0.2 0.2 0 1 1 -0.2 -0.0 Z" transform="translate(136.016098 112.673356) rotate(-0.0)"/></g></g><g id="substrate-paste" style="fill:#8a8a8a; stroke:#8a8a8a;"><g style="fill: #8a8a8a;fill-opacity: 1.0000;stroke: #8a8a8a;stroke-opacity: 1.0000;stroke-linecap: round;stroke-linejoin: round" transform="translate(0 0) scale(1 1)">
<path style="fill: #8a8a8a;fill-opacity: 1.0000;stroke: none;fill-rule: evenodd" d="M 138.1222,110.4560 138.1796,110.4674 138.2283,110.4999 138.2608,110.5486 138.2722,110.6060 138.2722,110.9060 138.2608,110.9634 138.2283,111.0121 138.1796,111.0446 138.1222,111.0560 136.7222,111.0560 136.6648,111.0446 136.6161,111.0121 136.5836,110.9634 136.5722,110.9060 136.5722,110.6060 136.5836,110.5486 136.6161,110.4999 136.6648,110.4674 136.7222,110.4560 Z"/> 
<path style="fill: #8a8a8a;fill-opacity: 1.0000;stroke: none;fill-rule: evenodd" d="M 138.1222,111.7060 138.1796,111.7174 138.2283,111.7499 138.2608,111.7986 138.2722,111.8560 138.2722,112.1560 138.2608,112.2134 138.2283,112.2621 138.1796,112.2946 138.1222,112.3060 136.7222,112.3060 136.6648,112.2946 136.6161,112.2621 136.5836,112.2134 136.5722,112.1560 136.5722,111.8560 136.5836,111.7986 136.6161,111.7499 136.6648,111.7174 136.7222,111.7060 Z"/> 
<path style="fill: #8a8a8a;fill-opacity: 1.0000;stroke: none;fill-rule: evenodd" d="M 138.1222,112.9560 138.1796,112.9674 138.2283,112.9999 138.2608,113.0486 138.2722,113.1060 138.2722,113.4060 138.2608,113.4634 138.2283,113.5121 138.1796,113.5446 138.1222,113.5560 136.7222,113.5560 136.6648,113.5446 136.6161,113.5121 136.5836,113.4634 136.5722,113.4060 136.5722,113.1060 136.5836,113.0486 136.6161,112.9999 136.6648,112.9674 136.7222,112.9560 Z"/> 
<path style="fill: #8a8a8a;fill-opacity: 1.0000;stroke: none;fill-rule: evenodd" d="M 138.1222,114.2060 138.1796,114.2174 138.2283,114.2499 138.2608,114.2986 138.2722,114.3560 138.2722,114.6560 138.2608,114.7134 138.2283,114.7621 138.1796,114.7946 138.1222,114.8060 136.7222,114.8060 136.6648,114.7946 136.6161,114.7621 136.5836,114.7134 136.5722,114.6560 136.5722,114.3560 136.5836,114.2986 136.6161,114.2499 136.6648,114.2174 136.7222,114.2060 Z"/> 
<path style="fill: #8a8a8a;fill-opacity: 1.0000;stroke: none;fill-rule: evenodd" d="M 135.3222,108.4060 135.4179,108.4250 135.4990,108.4792 135.5532,108.5603 135.5722,108.6560 135.5722,109.1560 135.5532,109.2517 135.4990,109.3328 135.4179,109.3870 135.3222,109.4060 133.1222,109.4060 133.0265,109.3870 132.9454,109.3328 132.8912,109.2517 132.8722,109.1560 132.8722,108.6560 132.8912,108.5603 132.9454,108.4792 133.0265,108.4250 133.1222,108.4060 Z"/> 
<path style="fill: #8a8a8a;fill-opacity: 1.0000;stroke: none;fill-rule: evenodd" d="M 135.3222,115.8560 135.4179,115.8750 135.4990,115.9292 135.5532,116.0103 135.5722,116.1060 135.5722,116.6060 135.5532,116.7017 135.4990,116.7828 135.4179,116.8370 135.3222,116.8560 133.1222,116.8560 133.0265,116.8370 132.9454,116.7828 132.8912,116.7017 132.8722,116.6060 132.8722,116.1060 132.8912,116.0103 132.9454,115.9292 133.0265,115.8750 133.1222,115.8560 Z"/> 
</g> 
</g></g><g transform="" id="componentContainer"><!--Connector_JST:JST_GH_SM04B-GHS-TB_1x04-1MP_P1.25mm_Horizontal:J2--><g transform="translate(135.5722 112.631) scale(1.0, 0.999999951362911) rotate(90.0) translate(-4.0769644 -2.4246416)"><g id="pref_12_Connector_JST__JST_GH_SM04BGHSTB_1x041MP_P125mm_Horizontal_SM04BGHSTB"><g id="pref_13pin" transform="translate(2.5124252,0.27816504)">
    <rect style="fill:#f5f6f0;fill-opacity:1;stroke:#000000;stroke-width:0;stroke-miterlimit:4;stroke-dasharray:none" id="pref_13rect178" width="8.2158813" height="4.0158815" x="-2.5124247" y="-0.27816454"/>
    <path style="fill:#a5a5a7;fill-opacity:1;stroke:#000000;stroke-width:0;stroke-miterlimit:4;stroke-dasharray:none" id="pref_13path2279" d="m 19.774406,1.359875 -0.968793,-1.67799872 -0.968793,-1.67799868 1.937586,-2e-7 1.937586,1e-7 -0.968792,1.67799882 z" transform="matrix(0.27234845,0,0,0.27139643,-0.33615615,0.26736706)"/>
    <path style="fill:#f3f6f6;fill-opacity:1;stroke:#000000;stroke-width:0;stroke-miterlimit:4;stroke-dasharray:none" id="pref_13path2153" d="m 19.774406,1.359875 -0.968793,-1.67799872 -0.968793,-1.67799868 1.937586,-2e-7 1.937586,1e-7 -0.968792,1.67799882 z" transform="matrix(0.26458333,0,0,0.26458333,-0.18259561,0.25388166)"/>
    <g id="pref_13g3811" transform="translate(-0.37949425)">
      <rect style="fill:#e2e62c;fill-opacity:1;stroke:#000000;stroke-width:0;stroke-miterlimit:4;stroke-dasharray:none" id="pref_13rect2933" width="0.19999942" height="0.19999918" x="1.051358e-05" y="3.6339235" ry="0.0052916547" rx="0.026458433"/>
      <rect style="fill:#e2e62c;fill-opacity:1;stroke:#000000;stroke-width:0;stroke-miterlimit:4;stroke-dasharray:none" id="pref_13rect3801" width="0.19999942" height="0.19999918" x="1.2500105" y="3.6339235" ry="0.0052916547" rx="0.026458433"/>
      <rect style="fill:#e2e62c;fill-opacity:1;stroke:#000000;stroke-width:0;stroke-miterlimit:4;stroke-dasharray:none" id="pref_13rect3803" width="0.19999942" height="0.19999918" x="2.5000105" y="3.6339235" ry="0.0052916547" rx="0.026458433"/>
      <rect style="fill:#e2e62c;fill-opacity:1;stroke:#000000;stroke-width:0;stroke-miterlimit:4;stroke-dasharray:none" id="pref_13rect3805" width="0.19999942" height="0.19999918" x="3.7500105" y="3.6339235" ry="0.0052916547" rx="0.026458433"/>
    </g>
    <rect style="fill:#c2d0c8;fill-opacity:1;stroke:#000000;stroke-width:0;stroke-miterlimit:4;stroke-dasharray:none" id="pref_13rect3835" width="0.38701597" height="1.7734947" x="5.3164411" y="1.9642222"/>
    <rect style="fill:#545457;fill-opacity:1;stroke:#000000;stroke-width:0;stroke-miterlimit:4;stroke-dasharray:none" id="pref_13rect5017" width="0.10005131" height="0.78580326" x="5.3164411" y="1.9642222" rx="0.0068400046" ry="0.011723206"/>
    <rect style="fill:#545457;fill-opacity:1;stroke:#000000;stroke-width:0;stroke-miterlimit:4;stroke-dasharray:none" id="pref_13rect5193" width="0.10005131" height="0.11041039" x="5.5352831" y="3.5406897" rx="0.0068400046" ry="0.0016471855"/>
    <g id="pref_13g5204" transform="matrix(-1,0,0,1,-6.2541513,0.6368897)">
      <rect style="fill:#c2d0c8;fill-opacity:1;stroke:#000000;stroke-width:0;stroke-miterlimit:4;stroke-dasharray:none" id="pref_13rect5195" width="0.38701597" height="1.7734947" x="-4.1287427" y="1.3273324"/>
      <rect style="fill:#545457;fill-opacity:1;stroke:#000000;stroke-width:0;stroke-miterlimit:4;stroke-dasharray:none" id="pref_13rect5197" width="0.10005131" height="0.78580326" x="-4.1287427" y="1.3273324" rx="0.0068400046" ry="0.011723206"/>
      <rect style="fill:#545457;fill-opacity:1;stroke:#000000;stroke-width:0;stroke-miterlimit:4;stroke-dasharray:none" id="pref_13rect5199" width="0.10005131" height="0.11041039" x="-3.9099009" y="2.9038" rx="0.0068400046" ry="0.0016471855"/>
    </g>
  </g>
  </g></g><!--Capacitor_SMD:C_0603_1608Metric.back:C4--><!--Diode_SMD:D_SOD-523.back:D1--><!--Capacitor_SMD:C_0603_1608Metric.back:C5--><g transform="translate(157.2333 112.631) scale(0.9999995454526861, 0.9999995454675615) rotate(-90.0) translate(-0.099995501 -0.10003144)"><use xmlns:xlink="http://www.w3.org/1999/xlink" xlink:href="#pref_12_Capacitor_SMD__C_0603_1608Metricback_100nF"/></g><!--Capacitor_SMD:C_0603_1608Metric.back:C1--><!--Capacitor_SMD:C_0805_2012Metric.back:C3--><!--Package_TO_SOT_SMD:SOT-23-5.back:U3--><!--Resistor_SMD:R_0603_1608Metric.back:R3--><!--Resistor_SMD:R_0603_1608Metric.back:R10--><g transform="translate(144.1066 112.4856) scale(0.9999995454526861, 0.9999995454675615) rotate(-90.0) translate(-0.099995501 -0.10003144)"><use xmlns:xlink="http://www.w3.org/1999/xlink" xlink:href="#pref_12_Resistor_SMD__R_0603_1608Metricback_10k"/></g><!--Resistor_SMD:R_0603_1608Metric.back:R1--></g></svg>