%TF.GenerationSoftware,KiCad,Pcbnew,8.0.4+1*%
%TF.CreationDate,2024-10-14T01:12:22+00:00*%
%TF.ProjectId,TFHT02,54464854-3032-42e6-9b69-6361645f7063,rev?*%
%TF.SameCoordinates,Original*%
%TF.FileFunction,Copper,L2,Bot*%
%TF.FilePolarity,Positive*%
%FSLAX46Y46*%
G04 Gerber Fmt 4.6, Leading zero omitted, Abs format (unit mm)*
G04 Created by KiCad (PCBNEW 8.0.4+1) date 2024-10-14 01:12:22*
%MOMM*%
%LPD*%
G01*
G04 APERTURE LIST*
G04 Aperture macros list*
%AMRoundRect*
0 Rectangle with rounded corners*
0 $1 Rounding radius*
0 $2 $3 $4 $5 $6 $7 $8 $9 X,Y pos of 4 corners*
0 Add a 4 corners polygon primitive as box body*
4,1,4,$2,$3,$4,$5,$6,$7,$8,$9,$2,$3,0*
0 Add four circle primitives for the rounded corners*
1,1,$1+$1,$2,$3*
1,1,$1+$1,$4,$5*
1,1,$1+$1,$6,$7*
1,1,$1+$1,$8,$9*
0 Add four rect primitives between the rounded corners*
20,1,$1+$1,$2,$3,$4,$5,0*
20,1,$1+$1,$4,$5,$6,$7,0*
20,1,$1+$1,$6,$7,$8,$9,0*
20,1,$1+$1,$8,$9,$2,$3,0*%
G04 Aperture macros list end*
%TA.AperFunction,SMDPad,CuDef*%
%ADD10R,0.500000X0.300000*%
%TD*%
%TA.AperFunction,SMDPad,CuDef*%
%ADD11RoundRect,0.166667X0.458333X0.583333X-0.458333X0.583333X-0.458333X-0.583333X0.458333X-0.583333X0*%
%TD*%
%TA.AperFunction,SMDPad,CuDef*%
%ADD12RoundRect,0.166667X-0.458333X-0.583333X0.458333X-0.583333X0.458333X0.583333X-0.458333X0.583333X0*%
%TD*%
%TA.AperFunction,SMDPad,CuDef*%
%ADD13RoundRect,0.225000X-0.225000X-0.250000X0.225000X-0.250000X0.225000X0.250000X-0.225000X0.250000X0*%
%TD*%
%TA.AperFunction,SMDPad,CuDef*%
%ADD14RoundRect,0.150000X-0.200000X0.150000X-0.200000X-0.150000X0.200000X-0.150000X0.200000X0.150000X0*%
%TD*%
%TA.AperFunction,SMDPad,CuDef*%
%ADD15RoundRect,0.150000X0.700000X-0.150000X0.700000X0.150000X-0.700000X0.150000X-0.700000X-0.150000X0*%
%TD*%
%TA.AperFunction,SMDPad,CuDef*%
%ADD16RoundRect,0.250000X1.100000X-0.250000X1.100000X0.250000X-1.100000X0.250000X-1.100000X-0.250000X0*%
%TD*%
%TA.AperFunction,SMDPad,CuDef*%
%ADD17RoundRect,0.225000X0.250000X-0.225000X0.250000X0.225000X-0.250000X0.225000X-0.250000X-0.225000X0*%
%TD*%
%TA.AperFunction,SMDPad,CuDef*%
%ADD18RoundRect,0.250000X-0.475000X0.250000X-0.475000X-0.250000X0.475000X-0.250000X0.475000X0.250000X0*%
%TD*%
%TA.AperFunction,SMDPad,CuDef*%
%ADD19RoundRect,0.150000X-0.512500X-0.150000X0.512500X-0.150000X0.512500X0.150000X-0.512500X0.150000X0*%
%TD*%
%TA.AperFunction,SMDPad,CuDef*%
%ADD20RoundRect,0.200000X0.275000X-0.200000X0.275000X0.200000X-0.275000X0.200000X-0.275000X-0.200000X0*%
%TD*%
%TA.AperFunction,ViaPad*%
%ADD21C,0.800000*%
%TD*%
%TA.AperFunction,Conductor*%
%ADD22C,0.400000*%
%TD*%
%TA.AperFunction,Conductor*%
%ADD23C,0.500000*%
%TD*%
%TA.AperFunction,Conductor*%
%ADD24C,0.300000*%
%TD*%
G04 APERTURE END LIST*
D10*
%TO.P,U2,1,SDA*%
%TO.N,/SDA*%
X27446200Y7900000D03*
%TO.P,U2,2,SCL*%
%TO.N,/SCL*%
X27446200Y7100000D03*
%TO.P,U2,3,VDD*%
%TO.N,+3V3*%
X26046200Y7100000D03*
%TO.P,U2,4,VSS*%
%TO.N,GND*%
X26046200Y7900000D03*
%TD*%
D11*
%TO.P,D2,1,K*%
%TO.N,GND*%
X10300000Y13000000D03*
D12*
%TO.P,D2,2,A*%
%TO.N,Net-(D2-A)*%
X6700000Y13000000D03*
%TD*%
D13*
%TO.P,C4,1*%
%TO.N,+5V*%
X7784800Y6781800D03*
%TO.P,C4,2*%
%TO.N,GND*%
X9334800Y6781800D03*
%TD*%
D14*
%TO.P,D1,1,K*%
%TO.N,+5V*%
X9071000Y9075000D03*
%TO.P,D1,2,A*%
%TO.N,GND*%
X9071000Y10475000D03*
%TD*%
D15*
%TO.P,J1,1*%
%TO.N,+5V*%
X4847200Y5625000D03*
%TO.P,J1,2*%
%TO.N,/SCL*%
X4847200Y6875000D03*
%TO.P,J1,3*%
%TO.N,/SDA*%
X4847200Y8125000D03*
%TO.P,J1,4*%
%TO.N,GND*%
X4847200Y9375000D03*
D16*
%TO.P,J1,MP*%
X1647200Y3775000D03*
X1647200Y11225000D03*
%TD*%
D17*
%TO.P,C5,1*%
%TO.N,+3V3*%
X24658300Y6725000D03*
%TO.P,C5,2*%
%TO.N,GND*%
X24658300Y8275000D03*
%TD*%
%TO.P,C1,1*%
%TO.N,+3V3*%
X13208000Y3416000D03*
%TO.P,C1,2*%
%TO.N,GND*%
X13208000Y4966000D03*
%TD*%
D18*
%TO.P,C3,1*%
%TO.N,+5V*%
X7239000Y5039400D03*
%TO.P,C3,2*%
%TO.N,GND*%
X7239000Y3139400D03*
%TD*%
D19*
%TO.P,U3,1,VIN*%
%TO.N,+5V*%
X9200300Y3114000D03*
%TO.P,U3,2,GND*%
%TO.N,GND*%
X9200300Y4064000D03*
%TO.P,U3,3,EN*%
%TO.N,+5V*%
X9200300Y5014000D03*
%TO.P,U3,4,NC*%
%TO.N,unconnected-(U3-NC-Pad4)*%
X11475300Y5014000D03*
%TO.P,U3,5,VOUT*%
%TO.N,+3V3*%
X11475300Y3114000D03*
%TD*%
D20*
%TO.P,R3,1*%
%TO.N,+3V3*%
X13106400Y6820400D03*
%TO.P,R3,2*%
%TO.N,/SCL*%
X13106400Y8470400D03*
%TD*%
%TO.P,R10,1*%
%TO.N,+3V3*%
X11531600Y6820400D03*
%TO.P,R10,2*%
%TO.N,/SDA*%
X11531600Y8470400D03*
%TD*%
%TO.P,R1,1*%
%TO.N,+5V*%
X7421000Y9106400D03*
%TO.P,R1,2*%
%TO.N,Net-(D2-A)*%
X7421000Y10756400D03*
%TD*%
D21*
%TO.N,GND*%
X4191000Y4318000D03*
X1143000Y12827000D03*
X3937000Y12065000D03*
X2159000Y12827000D03*
X3175000Y12827000D03*
X1049130Y5404678D03*
X1143000Y2286000D03*
X10414000Y6604000D03*
X1539185Y9853267D03*
X3429000Y2286000D03*
X4191000Y3175000D03*
X928000Y8890000D03*
X2286000Y2286000D03*
X5080000Y10668000D03*
X762000Y7620000D03*
X9724700Y11128700D03*
X787894Y6432972D03*
X4064000Y10668000D03*
%TO.N,+3V3*%
X12319000Y6820400D03*
X25527000Y6680200D03*
X13142674Y2427524D03*
%TO.N,+5V*%
X2540000Y6096000D03*
X6350000Y9398000D03*
%TO.N,/SDA*%
X25730200Y8813800D03*
X10414000Y8890000D03*
X3346443Y8494360D03*
%TO.N,/SCL*%
X3441098Y7457644D03*
%TD*%
D22*
%TO.N,GND*%
X9071000Y10475000D02*
X9448500Y10852500D01*
D23*
X10236200Y6781800D02*
X10414000Y6604000D01*
D22*
X11125200Y9728200D02*
X9724700Y11128700D01*
X9200300Y4064000D02*
X8163600Y4064000D01*
X12460000Y5714000D02*
X11304000Y5714000D01*
X8163600Y4064000D02*
X7239000Y3139400D01*
D23*
X9334800Y6781800D02*
X10236200Y6781800D01*
D22*
X9724700Y11128700D02*
X9071000Y10475000D01*
X9071000Y10475000D02*
X10300000Y11704000D01*
X15158870Y7747000D02*
X13177670Y9728200D01*
X11304000Y5714000D02*
X10414000Y6604000D01*
X10300000Y11704000D02*
X10300000Y13000000D01*
D24*
X26046200Y7900000D02*
X25033300Y7900000D01*
D22*
X24130300Y7747000D02*
X15158870Y7747000D01*
X13177670Y9728200D02*
X11125200Y9728200D01*
X24658300Y8275000D02*
X24130300Y7747000D01*
D24*
X25033300Y7900000D02*
X24658300Y8275000D01*
D22*
X13208000Y4966000D02*
X12460000Y5714000D01*
D24*
%TO.N,Net-(D2-A)*%
X6425000Y11633500D02*
X7421000Y10637500D01*
X6425000Y13000000D02*
X6425000Y11633500D01*
D22*
%TO.N,+3V3*%
X12319000Y6820400D02*
X11531600Y6820400D01*
X13208000Y3416000D02*
X13208000Y2492850D01*
X12906000Y3114000D02*
X13208000Y3416000D01*
X13208000Y2492850D02*
X13142674Y2427524D01*
X13106400Y6820400D02*
X12319000Y6820400D01*
X11475300Y3114000D02*
X12906000Y3114000D01*
X25527000Y6680200D02*
X24703100Y6680200D01*
D24*
X25033300Y7100000D02*
X24658300Y6725000D01*
X26046200Y7100000D02*
X25033300Y7100000D01*
D22*
%TO.N,+5V*%
X6653400Y5625000D02*
X7239000Y5039400D01*
X4847200Y5625000D02*
X6653400Y5625000D01*
X7085500Y9398000D02*
X7421000Y9062500D01*
X7421000Y9062500D02*
X9058500Y9062500D01*
D23*
X3011000Y5625000D02*
X4847200Y5625000D01*
D22*
X7239000Y5039400D02*
X9174900Y5039400D01*
D23*
X2540000Y6096000D02*
X3011000Y5625000D01*
D22*
X6350000Y9398000D02*
X7085500Y9398000D01*
X10388600Y4673600D02*
X10388600Y3479800D01*
X10388600Y3479800D02*
X10022800Y3114000D01*
X9200300Y5014000D02*
X10048200Y5014000D01*
D23*
X7784800Y6781800D02*
X7784800Y5585200D01*
D22*
X10022800Y3114000D02*
X9200300Y3114000D01*
D23*
X7784800Y5585200D02*
X7239000Y5039400D01*
D22*
X10048200Y5014000D02*
X10388600Y4673600D01*
D24*
%TO.N,/SDA*%
X27559000Y8813800D02*
X25730200Y8813800D01*
D22*
X4847200Y8125000D02*
X4477840Y8494360D01*
X4979000Y8256800D02*
X11318000Y8256800D01*
D24*
X27996700Y7987868D02*
X27996700Y8376100D01*
X27996700Y8376100D02*
X27559000Y8813800D01*
D22*
X11531600Y8470400D02*
X10833600Y8470400D01*
X11318000Y8256800D02*
X11531600Y8470400D01*
D24*
X27446200Y7900000D02*
X27908832Y7900000D01*
D22*
X4477840Y8494360D02*
X3346443Y8494360D01*
X4847200Y8125000D02*
X4979000Y8256800D01*
X10833600Y8470400D02*
X10414000Y8890000D01*
D24*
X27908832Y7900000D02*
X27996700Y7987868D01*
D22*
%TO.N,/SCL*%
X27287200Y5875000D02*
X23969350Y5875000D01*
D24*
X27996700Y6584500D02*
X27457400Y6045200D01*
D22*
X23969350Y5875000D02*
X22732350Y7112000D01*
D24*
X27446200Y7100000D02*
X27908832Y7100000D01*
D22*
X6512882Y6875000D02*
X7294682Y7656800D01*
X4023742Y6875000D02*
X3441098Y7457644D01*
D24*
X27996700Y7012132D02*
X27996700Y6584500D01*
D22*
X12256400Y7620400D02*
X13106400Y8470400D01*
X27457400Y6045200D02*
X27287200Y5875000D01*
X9861318Y7620400D02*
X12256400Y7620400D01*
D24*
X27908832Y7100000D02*
X27996700Y7012132D01*
D22*
X14365200Y7112000D02*
X13106400Y8370800D01*
X22732350Y7112000D02*
X14365200Y7112000D01*
X4847200Y6875000D02*
X4023742Y6875000D01*
X7294682Y7656800D02*
X9824918Y7656800D01*
X4847200Y6875000D02*
X6512882Y6875000D01*
X9824918Y7656800D02*
X9861318Y7620400D01*
%TD*%
%TA.AperFunction,Conductor*%
%TO.N,GND*%
G36*
X815575Y14677826D02*
G01*
X834728Y14644653D01*
X886290Y14452218D01*
X971591Y14246283D01*
X971594Y14246275D01*
X1083049Y14053230D01*
X1083053Y14053224D01*
X1218747Y13876382D01*
X1376381Y13718748D01*
X1553223Y13583054D01*
X1553229Y13583050D01*
X1562714Y13577574D01*
X1746274Y13471595D01*
X1952219Y13386290D01*
X2167537Y13328596D01*
X2388543Y13299500D01*
X2388545Y13299500D01*
X2611455Y13299500D01*
X2611457Y13299500D01*
X2832463Y13328596D01*
X3047781Y13386290D01*
X3253726Y13471595D01*
X3446774Y13583052D01*
X3598533Y13699500D01*
X3623618Y13718748D01*
X3623619Y13718750D01*
X3623624Y13718753D01*
X3781247Y13876376D01*
X3812727Y13917401D01*
X3912585Y14047540D01*
X3916948Y14053226D01*
X4028405Y14246274D01*
X4113710Y14452219D01*
X4165272Y14644654D01*
X4199751Y14689586D01*
X4236751Y14699500D01*
X10763249Y14699500D01*
X10815575Y14677826D01*
X10834727Y14644654D01*
X10886290Y14452219D01*
X10925912Y14356563D01*
X10925912Y14299926D01*
X10885864Y14259878D01*
X10850849Y14254549D01*
X10812871Y14258000D01*
X10554000Y14258000D01*
X10554000Y13254000D01*
X11433000Y13254000D01*
X11433000Y13525248D01*
X11454674Y13577574D01*
X11507000Y13599248D01*
X11551132Y13584267D01*
X11551218Y13584394D01*
X11551695Y13584076D01*
X11552049Y13583955D01*
X11553226Y13583052D01*
X11746274Y13471595D01*
X11952219Y13386290D01*
X12167537Y13328596D01*
X12388543Y13299500D01*
X12388545Y13299500D01*
X12611455Y13299500D01*
X12611457Y13299500D01*
X12832463Y13328596D01*
X13047781Y13386290D01*
X13253726Y13471595D01*
X13446774Y13583052D01*
X13598533Y13699500D01*
X13623618Y13718748D01*
X13623619Y13718750D01*
X13623624Y13718753D01*
X13707575Y13802705D01*
X13759900Y13824378D01*
X13812226Y13802704D01*
X13833900Y13750378D01*
X13833900Y13750360D01*
X13832756Y8964070D01*
X13811069Y8911750D01*
X13758738Y8890088D01*
X13706430Y8911762D01*
X13619743Y8998449D01*
X13619742Y8998450D01*
X13506704Y9056046D01*
X13506702Y9056047D01*
X13506701Y9056047D01*
X13412919Y9070900D01*
X12799880Y9070900D01*
X12706095Y9056047D01*
X12706093Y9056046D01*
X12593057Y8998450D01*
X12503351Y8908744D01*
X12445753Y8795702D01*
X12430900Y8701920D01*
X12430900Y8391946D01*
X12409226Y8339620D01*
X12333425Y8263820D01*
X12281099Y8242146D01*
X12228773Y8263820D01*
X12207099Y8316144D01*
X12207099Y8701918D01*
X12206067Y8708433D01*
X12192246Y8795705D01*
X12192245Y8795707D01*
X12152532Y8873647D01*
X12134650Y8908742D01*
X12044942Y8998450D01*
X11931904Y9056046D01*
X11931902Y9056047D01*
X11931901Y9056047D01*
X11838119Y9070900D01*
X11225080Y9070900D01*
X11131295Y9056047D01*
X11090243Y9035129D01*
X11033780Y9030686D01*
X10990713Y9067469D01*
X10988281Y9072746D01*
X10938536Y9192841D01*
X10842284Y9318280D01*
X10842279Y9318285D01*
X10716841Y9414536D01*
X10570761Y9475045D01*
X10414000Y9495682D01*
X10257239Y9475045D01*
X10257238Y9475045D01*
X10111158Y9414536D01*
X9985720Y9318285D01*
X9985715Y9318280D01*
X9889464Y9192842D01*
X9828955Y9046762D01*
X9828955Y9046761D01*
X9808318Y8890000D01*
X9827939Y8740959D01*
X9813280Y8686251D01*
X9764231Y8657933D01*
X9754572Y8657300D01*
X9648816Y8657300D01*
X9596490Y8678974D01*
X9574816Y8731300D01*
X9582334Y8763798D01*
X9611573Y8823607D01*
X9621500Y8891740D01*
X9621500Y9258260D01*
X9611573Y9326393D01*
X9560198Y9431483D01*
X9477483Y9514198D01*
X9411423Y9546493D01*
X9373935Y9588945D01*
X9377444Y9645474D01*
X9419897Y9682963D01*
X9423280Y9684035D01*
X9534401Y9716319D01*
X9677498Y9800946D01*
X9795054Y9918502D01*
X9879681Y10061599D01*
X9925993Y10221000D01*
X8891000Y10221000D01*
X8838674Y10242674D01*
X8817000Y10295000D01*
X8817000Y10729000D01*
X9325000Y10729000D01*
X9925992Y10729000D01*
X9879681Y10888402D01*
X9795054Y11031499D01*
X9677498Y11149055D01*
X9534401Y11233682D01*
X9374754Y11280065D01*
X9337456Y11283000D01*
X9325000Y11283000D01*
X9325000Y10729000D01*
X8817000Y10729000D01*
X8817000Y11283000D01*
X8804546Y11283000D01*
X8804542Y11282999D01*
X8767246Y11280065D01*
X8607598Y11233682D01*
X8464501Y11149055D01*
X8346945Y11031499D01*
X8262317Y10888400D01*
X8262316Y10888398D01*
X8241560Y10816957D01*
X8206148Y10772756D01*
X8149853Y10766542D01*
X8105652Y10801954D01*
X8096499Y10837603D01*
X8096499Y10987920D01*
X8081646Y11081705D01*
X8081645Y11081707D01*
X8024049Y11194743D01*
X7934343Y11284449D01*
X7934342Y11284450D01*
X7821304Y11342046D01*
X7821302Y11342047D01*
X7821301Y11342047D01*
X7727520Y11356900D01*
X7727519Y11356900D01*
X7227934Y11356900D01*
X7175608Y11378574D01*
X6797174Y11757008D01*
X6775500Y11809334D01*
X6775500Y11875500D01*
X6797174Y11927826D01*
X6849500Y11949500D01*
X7175809Y11949500D01*
X7228135Y11927826D01*
X7233663Y11921640D01*
X7272695Y11872695D01*
X7378493Y11788325D01*
X7500412Y11729611D01*
X7632340Y11699500D01*
X7632343Y11699500D01*
X9367657Y11699500D01*
X9367660Y11699500D01*
X9499588Y11729611D01*
X9582980Y11769772D01*
X9637102Y11773749D01*
X9719160Y11748178D01*
X9719167Y11748177D01*
X9787130Y11742001D01*
X9787140Y11742000D01*
X10046000Y11742000D01*
X10554000Y11742000D01*
X10812860Y11742000D01*
X10812869Y11742001D01*
X10880832Y11748177D01*
X10880842Y11748179D01*
X11037253Y11796918D01*
X11177469Y11881681D01*
X11293319Y11997531D01*
X11378082Y12137747D01*
X11426821Y12294158D01*
X11426823Y12294168D01*
X11432999Y12362131D01*
X11433000Y12362140D01*
X11433000Y12746000D01*
X10554000Y12746000D01*
X10554000Y11742000D01*
X10046000Y11742000D01*
X10046000Y14258000D01*
X9787130Y14258000D01*
X9719167Y14251824D01*
X9719166Y14251824D01*
X9637102Y14226252D01*
X9582980Y14230230D01*
X9499590Y14270388D01*
X9499586Y14270390D01*
X9441204Y14283715D01*
X9367660Y14300500D01*
X9339562Y14300500D01*
X7747595Y14300500D01*
X7700000Y14300500D01*
X7632340Y14300500D01*
X7570320Y14286345D01*
X7500413Y14270390D01*
X7500406Y14270387D01*
X7378493Y14211676D01*
X7272695Y14127306D01*
X7233665Y14078362D01*
X7184095Y14050965D01*
X7175809Y14050500D01*
X6185390Y14050500D01*
X6153834Y14047541D01*
X6153832Y14047541D01*
X6153828Y14047540D01*
X6020910Y14001030D01*
X5907599Y13917402D01*
X5907598Y13917401D01*
X5823970Y13804090D01*
X5777460Y13671172D01*
X5777459Y13671168D01*
X5777459Y13671166D01*
X5774500Y13639610D01*
X5774500Y12360390D01*
X5777459Y12328834D01*
X5777459Y12328832D01*
X5777460Y12328829D01*
X5823970Y12195911D01*
X5907598Y12082600D01*
X5907599Y12082599D01*
X6020909Y11998972D01*
X6024939Y11997562D01*
X6067171Y11959823D01*
X6074500Y11927714D01*
X6074500Y11587354D01*
X6098384Y11498216D01*
X6098386Y11498211D01*
X6144530Y11418288D01*
X6723826Y10838992D01*
X6745500Y10786666D01*
X6745500Y10524881D01*
X6760353Y10431096D01*
X6760354Y10431094D01*
X6788239Y10376368D01*
X6817950Y10318058D01*
X6907658Y10228350D01*
X7020696Y10170754D01*
X7114481Y10155900D01*
X7727518Y10155901D01*
X7727519Y10155901D01*
X7821304Y10170754D01*
X7821306Y10170755D01*
X7823419Y10171832D01*
X7934342Y10228350D01*
X8024050Y10318058D01*
X8073068Y10414263D01*
X8116132Y10451042D01*
X8172595Y10446599D01*
X8209378Y10403532D01*
X8213000Y10380665D01*
X8213000Y10258546D01*
X8213001Y10258544D01*
X8215935Y10221248D01*
X8262318Y10061599D01*
X8346945Y9918502D01*
X8464501Y9800946D01*
X8607597Y9716319D01*
X8718719Y9684035D01*
X8762920Y9648623D01*
X8769135Y9592327D01*
X8733723Y9548126D01*
X8730574Y9546492D01*
X8664516Y9514198D01*
X8634993Y9484674D01*
X8582667Y9463000D01*
X8111047Y9463000D01*
X8058721Y9484674D01*
X8045113Y9503404D01*
X8024049Y9544743D01*
X7934343Y9634449D01*
X7934342Y9634450D01*
X7821304Y9692046D01*
X7821302Y9692047D01*
X7821301Y9692047D01*
X7727520Y9706900D01*
X7727519Y9706900D01*
X7371299Y9706900D01*
X7334299Y9716814D01*
X7240092Y9771205D01*
X7240088Y9771207D01*
X7138227Y9798500D01*
X7138226Y9798500D01*
X6836092Y9798500D01*
X6783766Y9820174D01*
X6779321Y9825242D01*
X6778277Y9826287D01*
X6652841Y9922536D01*
X6506761Y9983045D01*
X6350000Y10003682D01*
X6193238Y9983045D01*
X6116215Y9951141D01*
X6059578Y9951141D01*
X6035571Y9967182D01*
X5953698Y10049055D01*
X5810601Y10133682D01*
X5650954Y10180065D01*
X5613656Y10183000D01*
X5101200Y10183000D01*
X5101200Y9195000D01*
X5079526Y9142674D01*
X5027200Y9121000D01*
X3492206Y9121000D01*
X3490737Y9119043D01*
X3441987Y9090213D01*
X3421902Y9090108D01*
X3346443Y9100042D01*
X3189682Y9079405D01*
X3189681Y9079405D01*
X3043601Y9018896D01*
X2918163Y8922645D01*
X2918158Y8922640D01*
X2821907Y8797202D01*
X2761398Y8651122D01*
X2761398Y8651121D01*
X2740761Y8494360D01*
X2761398Y8337600D01*
X2761398Y8337599D01*
X2821907Y8191519D01*
X2918158Y8066081D01*
X2918163Y8066076D01*
X3006709Y7998132D01*
X3035028Y7949083D01*
X3020369Y7894376D01*
X3013993Y7887104D01*
X3012815Y7885927D01*
X2916562Y7760486D01*
X2856053Y7614406D01*
X2856053Y7614405D01*
X2835416Y7457644D01*
X2856053Y7300884D01*
X2856053Y7300883D01*
X2916562Y7154803D01*
X3012813Y7029365D01*
X3012818Y7029360D01*
X3032672Y7014126D01*
X3138257Y6933108D01*
X3284336Y6872600D01*
X3441098Y6851962D01*
X3441098Y6851963D01*
X3441099Y6851962D01*
X3445949Y6851962D01*
X3445949Y6850074D01*
X3494332Y6837119D01*
X3501620Y6830729D01*
X3777829Y6554520D01*
X3869154Y6501793D01*
X3869155Y6501793D01*
X3873355Y6499368D01*
X3872759Y6498337D01*
X3889073Y6487446D01*
X3940717Y6435802D01*
X4045807Y6384427D01*
X4113940Y6374500D01*
X4113946Y6374500D01*
X5580454Y6374500D01*
X5580460Y6374500D01*
X5648593Y6384427D01*
X5753683Y6435802D01*
X5770707Y6452826D01*
X5823033Y6474500D01*
X6565608Y6474500D01*
X6565609Y6474500D01*
X6667470Y6501793D01*
X6758795Y6554520D01*
X7007975Y6803701D01*
X7060300Y6825374D01*
X7112626Y6803700D01*
X7134300Y6751374D01*
X7134300Y6498312D01*
X7150080Y6398675D01*
X7150081Y6398674D01*
X7211271Y6278581D01*
X7310698Y6179154D01*
X7308748Y6177205D01*
X7333386Y6137023D01*
X7334300Y6125428D01*
X7334300Y5813900D01*
X7312626Y5761574D01*
X7260300Y5739900D01*
X7135545Y5739900D01*
X7083219Y5761574D01*
X7030893Y5813900D01*
X6899313Y5945480D01*
X6899310Y5945482D01*
X6899309Y5945483D01*
X6807992Y5998205D01*
X6807988Y5998207D01*
X6706127Y6025500D01*
X6706126Y6025500D01*
X5823033Y6025500D01*
X5770707Y6047174D01*
X5753682Y6064199D01*
X5648594Y6115573D01*
X5580464Y6125500D01*
X5580460Y6125500D01*
X4113940Y6125500D01*
X4113935Y6125500D01*
X4045806Y6115573D01*
X4045805Y6115573D01*
X3979216Y6083019D01*
X3946716Y6075500D01*
X3228256Y6075500D01*
X3175930Y6097174D01*
X3158680Y6114424D01*
X3137639Y6157091D01*
X3134734Y6179154D01*
X3125044Y6252762D01*
X3064536Y6398841D01*
X3006481Y6474500D01*
X2968284Y6524280D01*
X2968279Y6524285D01*
X2842841Y6620536D01*
X2696761Y6681045D01*
X2540000Y6701682D01*
X2383239Y6681045D01*
X2383238Y6681045D01*
X2237158Y6620536D01*
X2111720Y6524285D01*
X2111715Y6524280D01*
X2015464Y6398842D01*
X1954955Y6252762D01*
X1954955Y6252761D01*
X1934318Y6096000D01*
X1954955Y5939240D01*
X1954955Y5939239D01*
X2015464Y5793159D01*
X2111715Y5667721D01*
X2111720Y5667716D01*
X2136466Y5648728D01*
X2237159Y5571464D01*
X2383238Y5510956D01*
X2478909Y5498361D01*
X2521576Y5477320D01*
X2734386Y5264510D01*
X2837114Y5205201D01*
X2837113Y5205201D01*
X2903263Y5187477D01*
X2951688Y5174501D01*
X2951689Y5174500D01*
X2951691Y5174500D01*
X3946716Y5174500D01*
X3979216Y5166981D01*
X4045807Y5134427D01*
X4113940Y5124500D01*
X4113946Y5124500D01*
X5580454Y5124500D01*
X5580460Y5124500D01*
X5648593Y5134427D01*
X5753683Y5185802D01*
X5770707Y5202826D01*
X5823033Y5224500D01*
X6239500Y5224500D01*
X6291826Y5202826D01*
X6313500Y5150500D01*
X6313500Y4735134D01*
X6316354Y4704701D01*
X6316354Y4704699D01*
X6316355Y4704696D01*
X6361206Y4576519D01*
X6361207Y4576517D01*
X6441846Y4467254D01*
X6441853Y4467247D01*
X6551116Y4386608D01*
X6551118Y4386607D01*
X6679295Y4341756D01*
X6679301Y4341754D01*
X6709734Y4338900D01*
X6709741Y4338900D01*
X7768258Y4338900D01*
X7768266Y4338900D01*
X7798699Y4341754D01*
X7846485Y4358476D01*
X7932116Y4388438D01*
X7932984Y4385955D01*
X7980443Y4390424D01*
X8024070Y4354307D01*
X8032431Y4313899D01*
X8029800Y4280459D01*
X8029800Y4185765D01*
X8008126Y4133439D01*
X7955800Y4111765D01*
X7932524Y4115521D01*
X7868326Y4136794D01*
X7764504Y4147400D01*
X7493000Y4147400D01*
X7493000Y2131400D01*
X7764503Y2131400D01*
X7764504Y2131401D01*
X7868325Y2142007D01*
X8036524Y2197743D01*
X8187338Y2290766D01*
X8187342Y2290768D01*
X8312632Y2416058D01*
X8312634Y2416062D01*
X8405656Y2566873D01*
X8405659Y2566881D01*
X8420338Y2611179D01*
X8457370Y2654032D01*
X8513857Y2658148D01*
X8523070Y2654391D01*
X8586407Y2623427D01*
X8654540Y2613500D01*
X8654546Y2613500D01*
X9746054Y2613500D01*
X9746060Y2613500D01*
X9814193Y2623427D01*
X9919283Y2674802D01*
X9936307Y2691826D01*
X9988633Y2713500D01*
X10075526Y2713500D01*
X10075527Y2713500D01*
X10177388Y2740793D01*
X10268713Y2793520D01*
X10485975Y3010783D01*
X10538300Y3032456D01*
X10590626Y3010782D01*
X10612300Y2958456D01*
X10612300Y2930736D01*
X10622227Y2862607D01*
X10622227Y2862606D01*
X10673601Y2757518D01*
X10673602Y2757517D01*
X10756317Y2674802D01*
X10861407Y2623427D01*
X10929540Y2613500D01*
X10929546Y2613500D01*
X12021054Y2613500D01*
X12021060Y2613500D01*
X12089193Y2623427D01*
X12194283Y2674802D01*
X12211307Y2691826D01*
X12263633Y2713500D01*
X12500404Y2713500D01*
X12552730Y2691826D01*
X12574404Y2639500D01*
X12568771Y2611185D01*
X12559667Y2589206D01*
X12557629Y2584284D01*
X12536992Y2427524D01*
X12557629Y2270764D01*
X12557629Y2270763D01*
X12618138Y2124683D01*
X12714389Y1999245D01*
X12714394Y1999240D01*
X12798019Y1935073D01*
X12839833Y1902988D01*
X12985912Y1842480D01*
X13142674Y1821842D01*
X13299436Y1842480D01*
X13445515Y1902988D01*
X13570956Y1999242D01*
X13667210Y2124683D01*
X13688759Y2176708D01*
X13728805Y2216755D01*
X13785442Y2216756D01*
X13825492Y2176708D01*
X13831125Y2148370D01*
X13830912Y1252593D01*
X13809225Y1200273D01*
X13756894Y1178611D01*
X13704586Y1200285D01*
X13623618Y1281253D01*
X13446776Y1416947D01*
X13446770Y1416951D01*
X13253725Y1528406D01*
X13253717Y1528409D01*
X13047782Y1613710D01*
X12832461Y1671405D01*
X12669647Y1692840D01*
X12611457Y1700500D01*
X12388543Y1700500D01*
X12337122Y1693731D01*
X12167538Y1671405D01*
X11952217Y1613710D01*
X11746282Y1528409D01*
X11746274Y1528406D01*
X11553229Y1416951D01*
X11553223Y1416947D01*
X11376381Y1281253D01*
X11218747Y1123619D01*
X11083053Y946777D01*
X11083049Y946771D01*
X10971594Y753726D01*
X10971591Y753718D01*
X10886290Y547783D01*
X10834728Y355347D01*
X10800249Y310414D01*
X10763249Y300500D01*
X4236751Y300500D01*
X4184425Y322174D01*
X4165272Y355347D01*
X4113709Y547783D01*
X4028408Y753718D01*
X4028405Y753726D01*
X3916950Y946771D01*
X3916946Y946777D01*
X3781252Y1123619D01*
X3623618Y1281253D01*
X3446776Y1416947D01*
X3446770Y1416951D01*
X3253725Y1528406D01*
X3253717Y1528409D01*
X3047782Y1613710D01*
X2832461Y1671405D01*
X2669647Y1692840D01*
X2611457Y1700500D01*
X2388543Y1700500D01*
X2337122Y1693731D01*
X2167538Y1671405D01*
X1952217Y1613710D01*
X1746282Y1528409D01*
X1746274Y1528406D01*
X1553229Y1416951D01*
X1553223Y1416947D01*
X1376381Y1281253D01*
X1218747Y1123619D01*
X1083053Y946777D01*
X1083049Y946771D01*
X971594Y753726D01*
X971591Y753718D01*
X886290Y547783D01*
X834728Y355347D01*
X800249Y310414D01*
X763249Y300500D01*
X374500Y300500D01*
X322174Y322174D01*
X300500Y374500D01*
X300500Y2705863D01*
X322174Y2758189D01*
X374500Y2779863D01*
X389986Y2778224D01*
X392867Y2777608D01*
X496695Y2767001D01*
X496697Y2767000D01*
X1393200Y2767000D01*
X1901200Y2767000D01*
X2797703Y2767000D01*
X2797704Y2767001D01*
X2901525Y2777607D01*
X3069724Y2833343D01*
X3078727Y2838896D01*
X6006000Y2838896D01*
X6016606Y2735075D01*
X6072342Y2566876D01*
X6165365Y2416062D01*
X6165368Y2416058D01*
X6290658Y2290768D01*
X6290661Y2290766D01*
X6441475Y2197743D01*
X6609674Y2142007D01*
X6713495Y2131401D01*
X6713497Y2131400D01*
X6985000Y2131400D01*
X6985000Y2885400D01*
X6006000Y2885400D01*
X6006000Y2838896D01*
X3078727Y2838896D01*
X3220538Y2926366D01*
X3220542Y2926368D01*
X3345832Y3051658D01*
X3345834Y3051662D01*
X3438857Y3202476D01*
X3494593Y3370675D01*
X3501665Y3439905D01*
X6006000Y3439905D01*
X6006000Y3393400D01*
X6985000Y3393400D01*
X6985000Y4147400D01*
X6713495Y4147400D01*
X6609674Y4136794D01*
X6441475Y4081058D01*
X6290661Y3988035D01*
X6165365Y3862739D01*
X6072342Y3711925D01*
X6016606Y3543726D01*
X6006000Y3439905D01*
X3501665Y3439905D01*
X3505199Y3474496D01*
X3505200Y3474498D01*
X3505200Y3521000D01*
X1901200Y3521000D01*
X1901200Y2767000D01*
X1393200Y2767000D01*
X1393200Y4029000D01*
X1901200Y4029000D01*
X3505200Y4029000D01*
X3505200Y4075503D01*
X3505199Y4075505D01*
X3494593Y4179326D01*
X3438857Y4347525D01*
X3345834Y4498339D01*
X3345832Y4498342D01*
X3220542Y4623632D01*
X3220538Y4623635D01*
X3069724Y4716658D01*
X2901525Y4772394D01*
X2797704Y4783000D01*
X1901200Y4783000D01*
X1901200Y4029000D01*
X1393200Y4029000D01*
X1393200Y4783000D01*
X496695Y4783000D01*
X392867Y4772393D01*
X389986Y4771776D01*
X388859Y4771984D01*
X388857Y4771983D01*
X388856Y4771984D01*
X334283Y4782019D01*
X302139Y4828651D01*
X300500Y4844137D01*
X300500Y9629000D01*
X3492207Y9629000D01*
X4593200Y9629000D01*
X4593200Y10183000D01*
X4080745Y10183000D01*
X4080743Y10182999D01*
X4043447Y10180065D01*
X3883798Y10133682D01*
X3740701Y10049055D01*
X3623145Y9931499D01*
X3538518Y9788402D01*
X3492207Y9629000D01*
X300500Y9629000D01*
X300500Y10155863D01*
X322174Y10208189D01*
X374500Y10229863D01*
X389986Y10228224D01*
X392867Y10227608D01*
X496695Y10217001D01*
X496697Y10217000D01*
X1393200Y10217000D01*
X1901200Y10217000D01*
X2797703Y10217000D01*
X2797704Y10217001D01*
X2901525Y10227607D01*
X3069724Y10283343D01*
X3220538Y10376366D01*
X3220542Y10376368D01*
X3345832Y10501658D01*
X3345834Y10501662D01*
X3438857Y10652476D01*
X3494593Y10820675D01*
X3505199Y10924496D01*
X3505200Y10924498D01*
X3505200Y10971000D01*
X1901200Y10971000D01*
X1901200Y10217000D01*
X1393200Y10217000D01*
X1393200Y11479000D01*
X1901200Y11479000D01*
X3505200Y11479000D01*
X3505200Y11525503D01*
X3505199Y11525505D01*
X3494593Y11629326D01*
X3438857Y11797525D01*
X3345834Y11948339D01*
X3345832Y11948342D01*
X3220542Y12073632D01*
X3220538Y12073635D01*
X3069724Y12166658D01*
X2901525Y12222394D01*
X2797704Y12233000D01*
X1901200Y12233000D01*
X1901200Y11479000D01*
X1393200Y11479000D01*
X1393200Y12233000D01*
X496695Y12233000D01*
X392867Y12222393D01*
X389986Y12221776D01*
X388859Y12221984D01*
X388857Y12221983D01*
X388856Y12221984D01*
X334283Y12232019D01*
X302139Y12278651D01*
X300500Y12294137D01*
X300500Y14625500D01*
X322174Y14677826D01*
X374500Y14699500D01*
X763249Y14699500D01*
X815575Y14677826D01*
G37*
%TD.AperFunction*%
%TA.AperFunction,Conductor*%
G36*
X10848389Y7198226D02*
G01*
X10870063Y7145900D01*
X10869152Y7134331D01*
X10857265Y7059273D01*
X10856100Y7051919D01*
X10856100Y6588881D01*
X10870953Y6495096D01*
X10870954Y6495094D01*
X10920083Y6398675D01*
X10928550Y6382058D01*
X11018258Y6292350D01*
X11131296Y6234754D01*
X11225081Y6219900D01*
X11838118Y6219901D01*
X11838119Y6219901D01*
X11869380Y6224852D01*
X11931904Y6234754D01*
X12005443Y6272226D01*
X12061904Y6276670D01*
X12067348Y6274662D01*
X12162238Y6235356D01*
X12319000Y6214718D01*
X12475762Y6235356D01*
X12570643Y6274658D01*
X12627279Y6274658D01*
X12632550Y6272229D01*
X12706096Y6234754D01*
X12799881Y6219900D01*
X13412918Y6219901D01*
X13412919Y6219901D01*
X13506704Y6234754D01*
X13506706Y6234755D01*
X13520030Y6241544D01*
X13619742Y6292350D01*
X13705800Y6378409D01*
X13758125Y6400082D01*
X13810451Y6378408D01*
X13832125Y6326082D01*
X13832125Y6326064D01*
X13832033Y5941714D01*
X13810346Y5889394D01*
X13758015Y5867732D01*
X13734757Y5871488D01*
X13607237Y5913744D01*
X13506840Y5924000D01*
X13462000Y5924000D01*
X13462000Y4786000D01*
X13440326Y4733674D01*
X13388000Y4712000D01*
X13028000Y4712000D01*
X12975674Y4733674D01*
X12954000Y4786000D01*
X12954000Y5924000D01*
X12909159Y5924000D01*
X12808763Y5913744D01*
X12646112Y5859846D01*
X12500272Y5769891D01*
X12379109Y5648728D01*
X12289152Y5502886D01*
X12288400Y5500614D01*
X12287734Y5499844D01*
X12287332Y5498981D01*
X12287087Y5499096D01*
X12251364Y5457765D01*
X12194876Y5453654D01*
X12185658Y5457415D01*
X12089194Y5504573D01*
X12021064Y5514500D01*
X12021060Y5514500D01*
X10929540Y5514500D01*
X10929535Y5514500D01*
X10861406Y5504573D01*
X10861405Y5504573D01*
X10756317Y5453199D01*
X10673601Y5370483D01*
X10622227Y5265395D01*
X10622227Y5265394D01*
X10612300Y5197265D01*
X10612300Y5194945D01*
X10590626Y5142619D01*
X10538300Y5120945D01*
X10485974Y5142619D01*
X10404093Y5224500D01*
X10294113Y5334480D01*
X10294110Y5334482D01*
X10294109Y5334483D01*
X10202792Y5387205D01*
X10202788Y5387207D01*
X10100927Y5414500D01*
X10100926Y5414500D01*
X9988633Y5414500D01*
X9936307Y5436174D01*
X9919282Y5453199D01*
X9814194Y5504573D01*
X9746064Y5514500D01*
X9746060Y5514500D01*
X8654540Y5514500D01*
X8654535Y5514500D01*
X8586406Y5504573D01*
X8586405Y5504573D01*
X8475808Y5450505D01*
X8475304Y5451536D01*
X8438986Y5439900D01*
X8308360Y5439900D01*
X8256034Y5461574D01*
X8234360Y5513900D01*
X8234993Y5523558D01*
X8235300Y5525891D01*
X8235300Y6125428D01*
X8256974Y6177754D01*
X8260592Y6180844D01*
X8321291Y6241543D01*
X8373616Y6263218D01*
X8425942Y6241544D01*
X8438573Y6223507D01*
X8438692Y6223580D01*
X8439948Y6221543D01*
X8440683Y6220494D01*
X8440954Y6219913D01*
X8530909Y6074073D01*
X8530912Y6074069D01*
X8652069Y5952912D01*
X8652072Y5952910D01*
X8797912Y5862955D01*
X8960563Y5809057D01*
X9060959Y5798801D01*
X9060961Y5798800D01*
X9080800Y5798800D01*
X9588800Y5798800D01*
X9608639Y5798800D01*
X9608640Y5798801D01*
X9709036Y5809057D01*
X9871687Y5862955D01*
X10017527Y5952910D01*
X10017531Y5952912D01*
X10138688Y6074069D01*
X10138690Y6074073D01*
X10228645Y6219913D01*
X10282543Y6382564D01*
X10292799Y6482960D01*
X10292800Y6482962D01*
X10292800Y6527800D01*
X9588800Y6527800D01*
X9588800Y5798800D01*
X9080800Y5798800D01*
X9080800Y6961800D01*
X9102474Y7014126D01*
X9154800Y7035800D01*
X10292800Y7035800D01*
X10292800Y7080639D01*
X10292799Y7080641D01*
X10286901Y7138379D01*
X10303145Y7192637D01*
X10352997Y7219517D01*
X10360518Y7219900D01*
X10796063Y7219900D01*
X10848389Y7198226D01*
G37*
%TD.AperFunction*%
%TD*%
M02*
