%TF.GenerationSoftware,KiCad,Pcbnew,8.0.4+1*%
%TF.CreationDate,2024-10-19T01:09:37+00:00*%
%TF.ProjectId,TFHT02,54464854-3032-42e6-9b69-6361645f7063,rev?*%
%TF.SameCoordinates,Original*%
%TF.FileFunction,Legend,Top*%
%TF.FilePolarity,Positive*%
%FSLAX46Y46*%
G04 Gerber Fmt 4.6, Leading zero omitted, Abs format (unit mm)*
G04 Created by KiCad (PCBNEW 8.0.4+1) date 2024-10-19 01:09:37*
%MOMM*%
%LPD*%
G01*
G04 APERTURE LIST*
%ADD10C,0.150000*%
%ADD11C,0.200000*%
%ADD12C,0.300000*%
%ADD13C,0.000000*%
%ADD14C,0.120000*%
G04 APERTURE END LIST*
D10*
X22606000Y10033000D02*
X29083000Y10033000D01*
X29083000Y4572000D01*
X22606000Y4572000D01*
X22606000Y10033000D01*
G36*
X22606000Y10033000D02*
G01*
X29083000Y10033000D01*
X29083000Y4572000D01*
X22606000Y4572000D01*
X22606000Y10033000D01*
G37*
D11*
X6640742Y11212293D02*
X5440742Y11212293D01*
X5440742Y11212293D02*
X5440742Y11669436D01*
X5440742Y11669436D02*
X5497885Y11783721D01*
X5497885Y11783721D02*
X5555028Y11840864D01*
X5555028Y11840864D02*
X5669314Y11898007D01*
X5669314Y11898007D02*
X5840742Y11898007D01*
X5840742Y11898007D02*
X5955028Y11840864D01*
X5955028Y11840864D02*
X6012171Y11783721D01*
X6012171Y11783721D02*
X6069314Y11669436D01*
X6069314Y11669436D02*
X6069314Y11212293D01*
X5440742Y12298007D02*
X6640742Y12583721D01*
X6640742Y12583721D02*
X5783600Y12812293D01*
X5783600Y12812293D02*
X6640742Y13040864D01*
X6640742Y13040864D02*
X5440742Y13326578D01*
X6640742Y14469436D02*
X6069314Y14069436D01*
X6640742Y13783722D02*
X5440742Y13783722D01*
X5440742Y13783722D02*
X5440742Y14240865D01*
X5440742Y14240865D02*
X5497885Y14355150D01*
X5497885Y14355150D02*
X5555028Y14412293D01*
X5555028Y14412293D02*
X5669314Y14469436D01*
X5669314Y14469436D02*
X5840742Y14469436D01*
X5840742Y14469436D02*
X5955028Y14412293D01*
X5955028Y14412293D02*
X6012171Y14355150D01*
X6012171Y14355150D02*
X6069314Y14240865D01*
X6069314Y14240865D02*
X6069314Y13783722D01*
D12*
X14184800Y8029396D02*
X14927657Y8029396D01*
X14556229Y6729396D02*
X14556229Y8029396D01*
X15794324Y7410348D02*
X15360990Y7410348D01*
X15360990Y6729396D02*
X15360990Y8029396D01*
X15360990Y8029396D02*
X15980038Y8029396D01*
X16475276Y6729396D02*
X16475276Y8029396D01*
X16475276Y7410348D02*
X17218133Y7410348D01*
X17218133Y6729396D02*
X17218133Y8029396D01*
X17651467Y8029396D02*
X18394324Y8029396D01*
X18022896Y6729396D02*
X18022896Y8029396D01*
X19075276Y8029396D02*
X19199086Y8029396D01*
X19199086Y8029396D02*
X19322895Y7967491D01*
X19322895Y7967491D02*
X19384800Y7905586D01*
X19384800Y7905586D02*
X19446705Y7781777D01*
X19446705Y7781777D02*
X19508610Y7534158D01*
X19508610Y7534158D02*
X19508610Y7224634D01*
X19508610Y7224634D02*
X19446705Y6977015D01*
X19446705Y6977015D02*
X19384800Y6853205D01*
X19384800Y6853205D02*
X19322895Y6791300D01*
X19322895Y6791300D02*
X19199086Y6729396D01*
X19199086Y6729396D02*
X19075276Y6729396D01*
X19075276Y6729396D02*
X18951467Y6791300D01*
X18951467Y6791300D02*
X18889562Y6853205D01*
X18889562Y6853205D02*
X18827657Y6977015D01*
X18827657Y6977015D02*
X18765753Y7224634D01*
X18765753Y7224634D02*
X18765753Y7534158D01*
X18765753Y7534158D02*
X18827657Y7781777D01*
X18827657Y7781777D02*
X18889562Y7905586D01*
X18889562Y7905586D02*
X18951467Y7967491D01*
X18951467Y7967491D02*
X19075276Y8029396D01*
X20003848Y7905586D02*
X20065752Y7967491D01*
X20065752Y7967491D02*
X20189562Y8029396D01*
X20189562Y8029396D02*
X20499086Y8029396D01*
X20499086Y8029396D02*
X20622895Y7967491D01*
X20622895Y7967491D02*
X20684800Y7905586D01*
X20684800Y7905586D02*
X20746705Y7781777D01*
X20746705Y7781777D02*
X20746705Y7657967D01*
X20746705Y7657967D02*
X20684800Y7472253D01*
X20684800Y7472253D02*
X19941943Y6729396D01*
X19941943Y6729396D02*
X20746705Y6729396D01*
X21241943Y7100824D02*
X21860990Y7100824D01*
X21118133Y6729396D02*
X21551466Y8029396D01*
X21551466Y8029396D02*
X21984800Y6729396D01*
D10*
X4351019Y1444667D02*
X5065304Y1444667D01*
X5065304Y1444667D02*
X5208161Y1397048D01*
X5208161Y1397048D02*
X5303400Y1301810D01*
X5303400Y1301810D02*
X5351019Y1158953D01*
X5351019Y1158953D02*
X5351019Y1063715D01*
X4446257Y1873239D02*
X4398638Y1920858D01*
X4398638Y1920858D02*
X4351019Y2016096D01*
X4351019Y2016096D02*
X4351019Y2254191D01*
X4351019Y2254191D02*
X4398638Y2349429D01*
X4398638Y2349429D02*
X4446257Y2397048D01*
X4446257Y2397048D02*
X4541495Y2444667D01*
X4541495Y2444667D02*
X4636733Y2444667D01*
X4636733Y2444667D02*
X4779590Y2397048D01*
X4779590Y2397048D02*
X5351019Y1825620D01*
X5351019Y1825620D02*
X5351019Y2444667D01*
D13*
%TO.C,G\u002A\u002A\u002A*%
G36*
X12331039Y12532436D02*
G01*
X12472372Y12920747D01*
X12722618Y12829665D01*
X12348869Y11802798D01*
X12098624Y11893880D01*
X12239957Y12282191D01*
X11118170Y12690489D01*
X11209250Y12940734D01*
X12331039Y12532436D01*
G37*
G36*
X10291678Y6150713D02*
G01*
X9971322Y5270541D01*
X9721077Y5361623D01*
X9947211Y5982922D01*
X9662722Y6086467D01*
X9573272Y5847842D01*
X9483823Y5609219D01*
X9236149Y5693942D01*
X9412203Y6177648D01*
X9067038Y6303277D01*
X8834623Y5664721D01*
X8593007Y5752662D01*
X8919646Y6650094D01*
X10291678Y6150713D01*
G37*
G36*
X12298617Y11664732D02*
G01*
X12207535Y11414487D01*
X11663901Y11612355D01*
X11437855Y10991302D01*
X11706685Y10890874D01*
X11975517Y10790445D01*
X11931577Y10662295D01*
X11887640Y10534146D01*
X10515146Y11033694D01*
X10609368Y11292568D01*
X11196149Y11078997D01*
X11422283Y11700296D01*
X10835502Y11913865D01*
X10926585Y12164111D01*
X12298617Y11664732D01*
G37*
G36*
X11287297Y8886149D02*
G01*
X11242535Y8763187D01*
X11197775Y8640223D01*
X10655518Y8510216D01*
X10113261Y8380211D01*
X10549724Y8218819D01*
X10986187Y8057428D01*
X10888816Y7804764D01*
X10204154Y8051459D01*
X9519491Y8298154D01*
X9598041Y8513969D01*
X10173101Y8654033D01*
X10748162Y8794096D01*
X10286199Y8964765D01*
X9824235Y9135434D01*
X9915264Y9385528D01*
X11287297Y8886149D01*
G37*
G36*
X6188803Y4336487D02*
G01*
X6201526Y4329177D01*
X6228860Y4313442D01*
X6269508Y4290031D01*
X6322167Y4259691D01*
X6385541Y4223172D01*
X6458331Y4181221D01*
X6539237Y4134588D01*
X6626959Y4084020D01*
X6720199Y4030269D01*
X6817661Y3974080D01*
X6829196Y3967429D01*
X7439030Y3615825D01*
X7395317Y3488296D01*
X7377226Y3436612D01*
X7363585Y3400481D01*
X7353494Y3377879D01*
X7346059Y3366790D01*
X7340688Y3365055D01*
X7331197Y3370220D01*
X7307027Y3383869D01*
X7269403Y3405302D01*
X7219547Y3433817D01*
X7158685Y3468712D01*
X7088038Y3509283D01*
X7008833Y3554829D01*
X6922293Y3604645D01*
X6829639Y3658033D01*
X6732097Y3714286D01*
X6699856Y3732892D01*
X6069937Y4096436D01*
X6158243Y4353939D01*
X6188803Y4336487D01*
G37*
G36*
X9710667Y3496893D02*
G01*
X9734837Y3483246D01*
X9772464Y3461818D01*
X9822324Y3433311D01*
X9883191Y3398424D01*
X9953841Y3357863D01*
X10033052Y3312327D01*
X10119599Y3262522D01*
X10212259Y3209147D01*
X10309807Y3152906D01*
X10342040Y3134310D01*
X10971988Y2770850D01*
X10883616Y2513160D01*
X10853049Y2530596D01*
X10840326Y2537904D01*
X10812994Y2553639D01*
X10772348Y2577055D01*
X10719692Y2607400D01*
X10656322Y2643928D01*
X10583540Y2685889D01*
X10502640Y2732533D01*
X10414925Y2783113D01*
X10321692Y2836878D01*
X10224240Y2893085D01*
X10212689Y2899746D01*
X9602897Y3251462D01*
X9646575Y3378899D01*
X9664658Y3430563D01*
X9678294Y3466675D01*
X9688381Y3489258D01*
X9695815Y3500330D01*
X9701172Y3502053D01*
X9710667Y3496893D01*
G37*
G36*
X9353653Y2519680D02*
G01*
X9364258Y2513330D01*
X9389529Y2498540D01*
X9428214Y2476035D01*
X9479057Y2446540D01*
X9540811Y2410780D01*
X9612222Y2369478D01*
X9692038Y2323359D01*
X9779006Y2273147D01*
X9871876Y2219566D01*
X9969395Y2163343D01*
X9992882Y2149807D01*
X10090852Y2093315D01*
X10184119Y2039464D01*
X10271469Y1988959D01*
X10351698Y1942500D01*
X10423589Y1900793D01*
X10485932Y1864541D01*
X10537520Y1834448D01*
X10577138Y1811216D01*
X10603578Y1795550D01*
X10615625Y1788153D01*
X10616252Y1787669D01*
X10613786Y1778148D01*
X10605742Y1754667D01*
X10593251Y1720363D01*
X10577439Y1678373D01*
X10570323Y1659834D01*
X10522535Y1535987D01*
X9936993Y1873784D01*
X9840340Y1929537D01*
X9747181Y1983263D01*
X9658917Y2034156D01*
X9576946Y2081407D01*
X9502671Y2124212D01*
X9437490Y2161763D01*
X9382803Y2193253D01*
X9340013Y2217875D01*
X9310518Y2234822D01*
X9296804Y2242671D01*
X9242157Y2273762D01*
X9335932Y2531406D01*
X9353653Y2519680D01*
G37*
G36*
X5817339Y3351167D02*
G01*
X5841515Y3337639D01*
X5879155Y3316331D01*
X5929037Y3287941D01*
X5989938Y3253169D01*
X6060637Y3212712D01*
X6139911Y3167272D01*
X6226539Y3117545D01*
X6319296Y3064231D01*
X6416964Y3008028D01*
X6450901Y2988483D01*
X7083051Y2624358D01*
X6989836Y2368253D01*
X6972014Y2379696D01*
X6961344Y2386023D01*
X6936026Y2400769D01*
X6897335Y2423194D01*
X6846544Y2452565D01*
X6784929Y2488146D01*
X6713765Y2529202D01*
X6634324Y2574994D01*
X6547883Y2624789D01*
X6455717Y2677853D01*
X6359099Y2733448D01*
X6352193Y2737421D01*
X6255186Y2793233D01*
X6162448Y2846616D01*
X6075266Y2896826D01*
X5994924Y2943123D01*
X5922708Y2984764D01*
X5859905Y3021007D01*
X5807800Y3051110D01*
X5767679Y3074333D01*
X5740828Y3089932D01*
X5728535Y3097168D01*
X5728279Y3097324D01*
X5706363Y3110948D01*
X5751654Y3235385D01*
X5770905Y3287048D01*
X5785464Y3323031D01*
X5796183Y3345163D01*
X5803909Y3355265D01*
X5807848Y3356215D01*
X5817339Y3351167D01*
G37*
G36*
X6528267Y5321647D02*
G01*
X6531476Y5320553D01*
X6541913Y5315115D01*
X6566599Y5301418D01*
X6604071Y5280307D01*
X6652858Y5252626D01*
X6711499Y5219218D01*
X6778526Y5180926D01*
X6852475Y5138594D01*
X6931878Y5093067D01*
X7015272Y5045188D01*
X7101190Y4995800D01*
X7188166Y4945747D01*
X7274735Y4895873D01*
X7359432Y4847021D01*
X7440791Y4800036D01*
X7517346Y4755762D01*
X7587632Y4715040D01*
X7650184Y4678716D01*
X7703534Y4647632D01*
X7746219Y4622633D01*
X7776772Y4604563D01*
X7793729Y4594266D01*
X7796766Y4592168D01*
X7794248Y4582764D01*
X7786162Y4559386D01*
X7773641Y4525156D01*
X7757816Y4483200D01*
X7750624Y4464475D01*
X7702772Y4340451D01*
X7137343Y4666385D01*
X7041654Y4721548D01*
X6948941Y4775005D01*
X6860700Y4825895D01*
X6778425Y4873352D01*
X6703613Y4916516D01*
X6637757Y4954522D01*
X6582356Y4986508D01*
X6538903Y5011611D01*
X6508894Y5028967D01*
X6497306Y5035688D01*
X6422696Y5079057D01*
X6467866Y5203161D01*
X6485622Y5251633D01*
X6498506Y5285304D01*
X6507868Y5306659D01*
X6515052Y5318179D01*
X6521403Y5322349D01*
X6528267Y5321647D01*
G37*
G36*
X8997050Y1526497D02*
G01*
X9008391Y1519813D01*
X9034368Y1504720D01*
X9073698Y1481957D01*
X9125093Y1452266D01*
X9187266Y1416389D01*
X9258932Y1375067D01*
X9338805Y1329044D01*
X9425599Y1279061D01*
X9518027Y1225858D01*
X9614806Y1170176D01*
X9620975Y1166628D01*
X9717858Y1110885D01*
X9810379Y1057620D01*
X9897263Y1007572D01*
X9977236Y961473D01*
X10049022Y920060D01*
X10111345Y884069D01*
X10162935Y854236D01*
X10202515Y831294D01*
X10228809Y815982D01*
X10240545Y809035D01*
X10240788Y808880D01*
X10247508Y803795D01*
X10251059Y797085D01*
X10250862Y785891D01*
X10246332Y767356D01*
X10236895Y738614D01*
X10221971Y696807D01*
X10213117Y672444D01*
X10196590Y628343D01*
X10181807Y591336D01*
X10170042Y564417D01*
X10162557Y550575D01*
X10160997Y549382D01*
X10152187Y554154D01*
X10128673Y567407D01*
X10091662Y588448D01*
X10042363Y616584D01*
X9981983Y651126D01*
X9911729Y691381D01*
X9832810Y736657D01*
X9746433Y786263D01*
X9653806Y839507D01*
X9556136Y895699D01*
X9518116Y917586D01*
X8881873Y1283891D01*
X8975125Y1540097D01*
X8997050Y1526497D01*
G37*
G36*
X7771425Y3430696D02*
G01*
X7795559Y3417060D01*
X7833150Y3395639D01*
X7882972Y3367137D01*
X7943803Y3332254D01*
X8014421Y3291695D01*
X8093603Y3246159D01*
X8180124Y3196350D01*
X8272763Y3142969D01*
X8370295Y3086720D01*
X8402572Y3068094D01*
X9032491Y2704551D01*
X8988624Y2576598D01*
X8972879Y2531822D01*
X8958878Y2494158D01*
X8947793Y2466590D01*
X8940790Y2452099D01*
X8939262Y2450646D01*
X8929978Y2455675D01*
X8906429Y2468963D01*
X8870244Y2489575D01*
X8823054Y2516567D01*
X8766487Y2549000D01*
X8702175Y2585934D01*
X8631746Y2626429D01*
X8556829Y2669550D01*
X8479057Y2714351D01*
X8400057Y2759894D01*
X8321460Y2805241D01*
X8244896Y2849451D01*
X8171995Y2891584D01*
X8104385Y2930700D01*
X8043697Y2965861D01*
X7991562Y2996126D01*
X7949608Y3020554D01*
X7919465Y3038207D01*
X7902762Y3048145D01*
X7900005Y3049894D01*
X7895680Y3051895D01*
X7891076Y3050093D01*
X7885401Y3042690D01*
X7877865Y3027889D01*
X7867681Y3003888D01*
X7854055Y2968889D01*
X7836202Y2921093D01*
X7813327Y2858700D01*
X7799898Y2821838D01*
X7713257Y2583791D01*
X7695370Y2595061D01*
X7679543Y2604593D01*
X7652552Y2620419D01*
X7619193Y2639738D01*
X7604720Y2648056D01*
X7569467Y2668355D01*
X7537955Y2686652D01*
X7515293Y2699974D01*
X7509960Y2703179D01*
X7487962Y2716578D01*
X7619625Y3078316D01*
X7653289Y3170484D01*
X7681365Y3246575D01*
X7704351Y3307842D01*
X7722747Y3355539D01*
X7737052Y3390916D01*
X7747761Y3415225D01*
X7755375Y3429719D01*
X7760395Y3435649D01*
X7761970Y3435846D01*
X7771425Y3430696D01*
G37*
G36*
X9646522Y7949094D02*
G01*
X10796217Y7530639D01*
X10677997Y7219424D01*
X10646366Y7136381D01*
X10620257Y7068507D01*
X10598782Y7013758D01*
X10581058Y6970088D01*
X10566203Y6935455D01*
X10553327Y6907814D01*
X10541549Y6885121D01*
X10529984Y6865331D01*
X10517749Y6846401D01*
X10514518Y6841616D01*
X10442934Y6751128D01*
X10362173Y6676321D01*
X10272980Y6617547D01*
X10176097Y6575163D01*
X10072270Y6549523D01*
X9962240Y6540982D01*
X9891300Y6544422D01*
X9805526Y6558228D01*
X9714016Y6582822D01*
X9623172Y6615955D01*
X9539401Y6655371D01*
X9485706Y6687271D01*
X9396366Y6756772D01*
X9321442Y6836304D01*
X9261687Y6924661D01*
X9217850Y7020634D01*
X9190684Y7123017D01*
X9183940Y7172467D01*
X9180674Y7208064D01*
X9178645Y7239319D01*
X9178541Y7249013D01*
X9429779Y7249013D01*
X9444565Y7170926D01*
X9476474Y7097883D01*
X9525012Y7030868D01*
X9589691Y6970867D01*
X9625059Y6945676D01*
X9674655Y6917992D01*
X9736260Y6890856D01*
X9803595Y6866475D01*
X9870379Y6847052D01*
X9930332Y6834795D01*
X9946365Y6832814D01*
X10012653Y6829076D01*
X10068680Y6833061D01*
X10121248Y6845687D01*
X10164421Y6862207D01*
X10208640Y6883890D01*
X10246404Y6908903D01*
X10279358Y6939518D01*
X10309151Y6978003D01*
X10337432Y7026630D01*
X10365848Y7087667D01*
X10396048Y7163386D01*
X10409568Y7199858D01*
X10470129Y7365930D01*
X9555441Y7698850D01*
X9497491Y7539636D01*
X9478237Y7485081D01*
X9460880Y7432806D01*
X9446634Y7386700D01*
X9436703Y7350648D01*
X9432609Y7331160D01*
X9429779Y7249013D01*
X9178541Y7249013D01*
X9178335Y7268351D01*
X9180225Y7297282D01*
X9184795Y7328229D01*
X9192528Y7363314D01*
X9203905Y7404657D01*
X9219408Y7454378D01*
X9239517Y7514596D01*
X9264713Y7587432D01*
X9295481Y7675005D01*
X9302725Y7695551D01*
X9421068Y8031153D01*
X9646522Y7949094D01*
G37*
G36*
X9207003Y5311811D02*
G01*
X9237300Y5300674D01*
X9890058Y5060698D01*
X9779442Y4758930D01*
X9746159Y4668656D01*
X9717952Y4593760D01*
X9693837Y4532279D01*
X9672833Y4482253D01*
X9653955Y4441719D01*
X9636221Y4408717D01*
X9618647Y4381287D01*
X9600250Y4357467D01*
X9580048Y4335295D01*
X9557057Y4312811D01*
X9554689Y4310587D01*
X9486589Y4258006D01*
X9413183Y4222990D01*
X9334566Y4205574D01*
X9257637Y4205132D01*
X9209744Y4213459D01*
X9153660Y4229476D01*
X9095215Y4250927D01*
X9040242Y4275552D01*
X8994571Y4301091D01*
X8976294Y4314098D01*
X8915951Y4373715D01*
X8870294Y4444212D01*
X8839698Y4524952D01*
X8832452Y4556358D01*
X8827353Y4582080D01*
X8823820Y4599132D01*
X8823052Y4602391D01*
X8814024Y4602015D01*
X8788848Y4599206D01*
X8749546Y4594233D01*
X8698133Y4587368D01*
X8636631Y4578880D01*
X8567058Y4569040D01*
X8491434Y4558115D01*
X8489171Y4557786D01*
X8413035Y4546695D01*
X8342588Y4536478D01*
X8279908Y4527433D01*
X8227071Y4519858D01*
X8186152Y4514051D01*
X8159228Y4510307D01*
X8148375Y4508926D01*
X8148350Y4508925D01*
X8148606Y4516945D01*
X8154463Y4539335D01*
X8165057Y4573274D01*
X8179524Y4615945D01*
X8192030Y4650988D01*
X8216095Y4717105D01*
X9050450Y4717105D01*
X9058061Y4653520D01*
X9080041Y4600851D01*
X9117026Y4558221D01*
X9169660Y4524754D01*
X9200661Y4511691D01*
X9267206Y4494726D01*
X9327972Y4494873D01*
X9382436Y4512019D01*
X9430065Y4546056D01*
X9445836Y4562891D01*
X9460777Y4584030D01*
X9477790Y4615311D01*
X9497945Y4658941D01*
X9522312Y4717135D01*
X9531230Y4739333D01*
X9588200Y4882284D01*
X9143880Y5044003D01*
X9096965Y4902279D01*
X9076356Y4837836D01*
X9062148Y4787967D01*
X9053738Y4750268D01*
X9050520Y4722338D01*
X9050450Y4717105D01*
X8216095Y4717105D01*
X8243846Y4793348D01*
X8538739Y4831650D01*
X8833633Y4869953D01*
X8930640Y5121617D01*
X8429688Y5303948D01*
X8523949Y5562925D01*
X9207003Y5311811D01*
G37*
G36*
X10756446Y10623686D02*
G01*
X10797282Y10619201D01*
X10842082Y10611293D01*
X10892474Y10599545D01*
X10950092Y10583536D01*
X11016569Y10562843D01*
X11093534Y10537049D01*
X11182623Y10505732D01*
X11285465Y10468471D01*
X11403693Y10424847D01*
X11407119Y10423574D01*
X11790211Y10281324D01*
X11746273Y10153177D01*
X11702336Y10025028D01*
X11297160Y10172500D01*
X11199731Y10207723D01*
X11109736Y10239789D01*
X11028737Y10268162D01*
X10958305Y10292307D01*
X10900007Y10311685D01*
X10855409Y10325768D01*
X10826077Y10334011D01*
X10821822Y10334991D01*
X10736469Y10347813D01*
X10662611Y10346758D01*
X10599114Y10331273D01*
X10544847Y10300819D01*
X10498674Y10254843D01*
X10459458Y10192800D01*
X10440203Y10151046D01*
X10413266Y10071725D01*
X10402344Y10000659D01*
X10407795Y9936499D01*
X10429975Y9877901D01*
X10469240Y9823521D01*
X10525951Y9772012D01*
X10544426Y9758332D01*
X10557877Y9749136D01*
X10572547Y9740163D01*
X10590018Y9730766D01*
X10611862Y9720297D01*
X10639662Y9708107D01*
X10674994Y9693549D01*
X10719438Y9675975D01*
X10774569Y9654735D01*
X10841968Y9629186D01*
X10923214Y9598676D01*
X11019881Y9562557D01*
X11035433Y9556756D01*
X11472100Y9393896D01*
X11381177Y9144087D01*
X10905520Y9320647D01*
X10802851Y9358775D01*
X10715900Y9391151D01*
X10643164Y9418388D01*
X10583138Y9441109D01*
X10534316Y9459937D01*
X10495195Y9475487D01*
X10464271Y9488382D01*
X10440039Y9499241D01*
X10420991Y9508683D01*
X10405628Y9517330D01*
X10392441Y9525802D01*
X10379928Y9534716D01*
X10372420Y9540308D01*
X10291581Y9610611D01*
X10227140Y9687621D01*
X10179456Y9770627D01*
X10148884Y9858923D01*
X10135785Y9951801D01*
X10136328Y10007400D01*
X10140562Y10043185D01*
X10148700Y10089120D01*
X10159323Y10138757D01*
X10171005Y10185655D01*
X10182326Y10223370D01*
X10186450Y10234479D01*
X10197014Y10258499D01*
X10212418Y10291290D01*
X10227398Y10321858D01*
X10280391Y10409323D01*
X10344347Y10482945D01*
X10418208Y10541963D01*
X10500917Y10585611D01*
X10591415Y10613128D01*
X10641384Y10620825D01*
X10680128Y10624078D01*
X10717938Y10625174D01*
X10756446Y10623686D01*
G37*
G36*
X7404377Y2440875D02*
G01*
X7427363Y2427870D01*
X7462555Y2407801D01*
X7508097Y2381731D01*
X7562139Y2350718D01*
X7622829Y2315820D01*
X7677579Y2284288D01*
X7954370Y2124762D01*
X8392954Y2146066D01*
X8480888Y2150298D01*
X8563133Y2154178D01*
X8637890Y2157628D01*
X8703356Y2160568D01*
X8757730Y2162919D01*
X8799210Y2164601D01*
X8825995Y2165534D01*
X8836284Y2165639D01*
X8836314Y2165631D01*
X8834838Y2156950D01*
X8827655Y2134118D01*
X8815776Y2100076D01*
X8800210Y2057763D01*
X8789663Y2029993D01*
X8738237Y1896093D01*
X8429100Y1885160D01*
X8355770Y1882445D01*
X8288567Y1879720D01*
X8229620Y1877088D01*
X8181063Y1874660D01*
X8145025Y1872534D01*
X8123635Y1870820D01*
X8118492Y1869877D01*
X8123066Y1861519D01*
X8136730Y1839551D01*
X8158400Y1805650D01*
X8186989Y1761492D01*
X8221408Y1708758D01*
X8260574Y1649120D01*
X8303397Y1584260D01*
X8313083Y1569633D01*
X8356679Y1503583D01*
X8396913Y1442130D01*
X8432686Y1386994D01*
X8462895Y1339897D01*
X8486436Y1302558D01*
X8502207Y1276701D01*
X8509107Y1264047D01*
X8509327Y1263242D01*
X8506232Y1251343D01*
X8497592Y1225654D01*
X8484581Y1189480D01*
X8468369Y1146127D01*
X8460570Y1125751D01*
X8411633Y998757D01*
X8145159Y1421138D01*
X8094490Y1501306D01*
X8046339Y1577201D01*
X8001672Y1647324D01*
X7961454Y1710176D01*
X7926648Y1764254D01*
X7898218Y1808059D01*
X7877127Y1840093D01*
X7864342Y1858853D01*
X7861295Y1862863D01*
X7849269Y1872036D01*
X7823304Y1888996D01*
X7785456Y1912494D01*
X7737779Y1941284D01*
X7682327Y1974120D01*
X7621154Y2009753D01*
X7585156Y2030471D01*
X7521980Y2066738D01*
X7463555Y2100402D01*
X7411889Y2130302D01*
X7368987Y2155268D01*
X7336857Y2174134D01*
X7317503Y2185737D01*
X7312925Y2188677D01*
X7308197Y2194212D01*
X7306871Y2203512D01*
X7309599Y2219359D01*
X7317042Y2244529D01*
X7329858Y2281803D01*
X7344771Y2323161D01*
X7361182Y2367163D01*
X7375699Y2404068D01*
X7387086Y2430880D01*
X7394106Y2444610D01*
X7395443Y2445758D01*
X7404377Y2440875D01*
G37*
G36*
X8120013Y4410116D02*
G01*
X8130495Y4404644D01*
X8155253Y4390872D01*
X8192815Y4369652D01*
X8241713Y4341830D01*
X8300473Y4308257D01*
X8367624Y4269782D01*
X8441696Y4227253D01*
X8521221Y4181522D01*
X8604723Y4133436D01*
X8690732Y4083844D01*
X8777783Y4033598D01*
X8864399Y3983543D01*
X8949112Y3934533D01*
X9030448Y3887413D01*
X9106941Y3843037D01*
X9177116Y3802250D01*
X9239504Y3765902D01*
X9292633Y3734845D01*
X9335033Y3709925D01*
X9365235Y3691993D01*
X9381765Y3681898D01*
X9384485Y3680009D01*
X9382477Y3670399D01*
X9374825Y3645651D01*
X9362277Y3607849D01*
X9345584Y3559072D01*
X9325497Y3501398D01*
X9302766Y3436912D01*
X9278140Y3367692D01*
X9252371Y3295816D01*
X9226209Y3223368D01*
X9200399Y3152427D01*
X9175699Y3085073D01*
X9152855Y3023387D01*
X9132617Y2969450D01*
X9115738Y2925342D01*
X9102964Y2893141D01*
X9095048Y2874931D01*
X9092980Y2871599D01*
X9083168Y2874882D01*
X9060671Y2885926D01*
X9028594Y2903105D01*
X8990045Y2924799D01*
X8980070Y2930559D01*
X8940307Y2953533D01*
X8906278Y2973018D01*
X8881121Y2987225D01*
X8867968Y2994377D01*
X8866967Y2994837D01*
X8868427Y3003709D01*
X8875564Y3027758D01*
X8887691Y3064943D01*
X8904110Y3113215D01*
X8924136Y3170526D01*
X8947071Y3234833D01*
X8962362Y3277074D01*
X9064214Y3556910D01*
X9022180Y3582379D01*
X8994165Y3599082D01*
X8957050Y3620851D01*
X8917697Y3643667D01*
X8907389Y3649594D01*
X8872805Y3669547D01*
X8842614Y3687158D01*
X8821609Y3699626D01*
X8816748Y3702612D01*
X8798863Y3713882D01*
X8720284Y3497989D01*
X8694680Y3428242D01*
X8674348Y3374331D01*
X8658632Y3334711D01*
X8646882Y3307827D01*
X8638444Y3292137D01*
X8632665Y3286091D01*
X8630924Y3286035D01*
X8619584Y3291849D01*
X8596275Y3304836D01*
X8564813Y3322781D01*
X8529013Y3343474D01*
X8492696Y3364701D01*
X8459676Y3384250D01*
X8433772Y3399910D01*
X8425139Y3405299D01*
X8407282Y3416652D01*
X8564081Y3847451D01*
X8546270Y3858923D01*
X8533748Y3866420D01*
X8507561Y3881680D01*
X8470006Y3903384D01*
X8423378Y3930206D01*
X8369972Y3960824D01*
X8314042Y3992796D01*
X8254634Y4026765D01*
X8198298Y4059079D01*
X8147670Y4088218D01*
X8105386Y4112663D01*
X8074082Y4130894D01*
X8057592Y4140661D01*
X8015555Y4166124D01*
X8060873Y4290635D01*
X8078991Y4339751D01*
X8092357Y4373906D01*
X8102165Y4395511D01*
X8109609Y4406976D01*
X8115886Y4410721D01*
X8120013Y4410116D01*
G37*
D14*
%TO.C,J2*%
X437200Y10465000D02*
X437200Y4535000D01*
X3257200Y11735000D02*
X4707200Y11735000D01*
X3257200Y3265000D02*
X4707200Y3265000D01*
X4707200Y11735000D02*
X4707200Y9935000D01*
X4707200Y9935000D02*
X5697200Y9935000D01*
X4707200Y3265000D02*
X4707200Y5065000D01*
%TD*%
M02*
