%TF.GenerationSoftware,KiCad,Pcbnew,8.0.3+1*%
%TF.CreationDate,2024-07-23T17:29:58+00:00*%
%TF.ProjectId,TFHT02,54464854-3032-42e6-9b69-6361645f7063,rev?*%
%TF.SameCoordinates,Original*%
%TF.FileFunction,Legend,Bot*%
%TF.FilePolarity,Positive*%
%FSLAX46Y46*%
G04 Gerber Fmt 4.6, Leading zero omitted, Abs format (unit mm)*
G04 Created by KiCad (PCBNEW 8.0.3+1) date 2024-07-23 17:29:58*
%MOMM*%
%LPD*%
G01*
G04 APERTURE LIST*
%ADD10C,0.150000*%
%ADD11C,0.120000*%
G04 APERTURE END LIST*
D10*
X27360804Y6412581D02*
X27360804Y5603058D01*
X27360804Y5603058D02*
X27313185Y5507820D01*
X27313185Y5507820D02*
X27265566Y5460200D01*
X27265566Y5460200D02*
X27170328Y5412581D01*
X27170328Y5412581D02*
X26979852Y5412581D01*
X26979852Y5412581D02*
X26884614Y5460200D01*
X26884614Y5460200D02*
X26836995Y5507820D01*
X26836995Y5507820D02*
X26789376Y5603058D01*
X26789376Y5603058D02*
X26789376Y6412581D01*
X26360804Y6317343D02*
X26313185Y6364962D01*
X26313185Y6364962D02*
X26217947Y6412581D01*
X26217947Y6412581D02*
X25979852Y6412581D01*
X25979852Y6412581D02*
X25884614Y6364962D01*
X25884614Y6364962D02*
X25836995Y6317343D01*
X25836995Y6317343D02*
X25789376Y6222105D01*
X25789376Y6222105D02*
X25789376Y6126867D01*
X25789376Y6126867D02*
X25836995Y5984010D01*
X25836995Y5984010D02*
X26408423Y5412581D01*
X26408423Y5412581D02*
X25789376Y5412581D01*
X6887380Y7685067D02*
X6935000Y7732686D01*
X6935000Y7732686D02*
X6982619Y7875543D01*
X6982619Y7875543D02*
X6982619Y7970781D01*
X6982619Y7970781D02*
X6935000Y8113638D01*
X6935000Y8113638D02*
X6839761Y8208876D01*
X6839761Y8208876D02*
X6744523Y8256495D01*
X6744523Y8256495D02*
X6554047Y8304114D01*
X6554047Y8304114D02*
X6411190Y8304114D01*
X6411190Y8304114D02*
X6220714Y8256495D01*
X6220714Y8256495D02*
X6125476Y8208876D01*
X6125476Y8208876D02*
X6030238Y8113638D01*
X6030238Y8113638D02*
X5982619Y7970781D01*
X5982619Y7970781D02*
X5982619Y7875543D01*
X5982619Y7875543D02*
X6030238Y7732686D01*
X6030238Y7732686D02*
X6077857Y7685067D01*
X6315952Y6827924D02*
X6982619Y6827924D01*
X5935000Y7066019D02*
X6649285Y7304114D01*
X6649285Y7304114D02*
X6649285Y6685067D01*
X10868819Y10771095D02*
X9868819Y10771095D01*
X9868819Y10771095D02*
X9868819Y10533000D01*
X9868819Y10533000D02*
X9916438Y10390143D01*
X9916438Y10390143D02*
X10011676Y10294905D01*
X10011676Y10294905D02*
X10106914Y10247286D01*
X10106914Y10247286D02*
X10297390Y10199667D01*
X10297390Y10199667D02*
X10440247Y10199667D01*
X10440247Y10199667D02*
X10630723Y10247286D01*
X10630723Y10247286D02*
X10725961Y10294905D01*
X10725961Y10294905D02*
X10821200Y10390143D01*
X10821200Y10390143D02*
X10868819Y10533000D01*
X10868819Y10533000D02*
X10868819Y10771095D01*
X10868819Y9247286D02*
X10868819Y9818714D01*
X10868819Y9533000D02*
X9868819Y9533000D01*
X9868819Y9533000D02*
X10011676Y9628238D01*
X10011676Y9628238D02*
X10106914Y9723476D01*
X10106914Y9723476D02*
X10154533Y9818714D01*
X3899819Y2619334D02*
X4614104Y2619334D01*
X4614104Y2619334D02*
X4756961Y2666953D01*
X4756961Y2666953D02*
X4852200Y2762191D01*
X4852200Y2762191D02*
X4899819Y2905048D01*
X4899819Y2905048D02*
X4899819Y3000286D01*
X4899819Y1619334D02*
X4899819Y2190762D01*
X4899819Y1905048D02*
X3899819Y1905048D01*
X3899819Y1905048D02*
X4042676Y2000286D01*
X4042676Y2000286D02*
X4137914Y2095524D01*
X4137914Y2095524D02*
X4185533Y2190762D01*
X23625980Y7431067D02*
X23673600Y7478686D01*
X23673600Y7478686D02*
X23721219Y7621543D01*
X23721219Y7621543D02*
X23721219Y7716781D01*
X23721219Y7716781D02*
X23673600Y7859638D01*
X23673600Y7859638D02*
X23578361Y7954876D01*
X23578361Y7954876D02*
X23483123Y8002495D01*
X23483123Y8002495D02*
X23292647Y8050114D01*
X23292647Y8050114D02*
X23149790Y8050114D01*
X23149790Y8050114D02*
X22959314Y8002495D01*
X22959314Y8002495D02*
X22864076Y7954876D01*
X22864076Y7954876D02*
X22768838Y7859638D01*
X22768838Y7859638D02*
X22721219Y7716781D01*
X22721219Y7716781D02*
X22721219Y7621543D01*
X22721219Y7621543D02*
X22768838Y7478686D01*
X22768838Y7478686D02*
X22816457Y7431067D01*
X22721219Y6526305D02*
X22721219Y7002495D01*
X22721219Y7002495D02*
X23197409Y7050114D01*
X23197409Y7050114D02*
X23149790Y7002495D01*
X23149790Y7002495D02*
X23102171Y6907257D01*
X23102171Y6907257D02*
X23102171Y6669162D01*
X23102171Y6669162D02*
X23149790Y6573924D01*
X23149790Y6573924D02*
X23197409Y6526305D01*
X23197409Y6526305D02*
X23292647Y6478686D01*
X23292647Y6478686D02*
X23530742Y6478686D01*
X23530742Y6478686D02*
X23625980Y6526305D01*
X23625980Y6526305D02*
X23673600Y6573924D01*
X23673600Y6573924D02*
X23721219Y6669162D01*
X23721219Y6669162D02*
X23721219Y6907257D01*
X23721219Y6907257D02*
X23673600Y7002495D01*
X23673600Y7002495D02*
X23625980Y7050114D01*
X11901466Y3679020D02*
X11949085Y3631400D01*
X11949085Y3631400D02*
X12091942Y3583781D01*
X12091942Y3583781D02*
X12187180Y3583781D01*
X12187180Y3583781D02*
X12330037Y3631400D01*
X12330037Y3631400D02*
X12425275Y3726639D01*
X12425275Y3726639D02*
X12472894Y3821877D01*
X12472894Y3821877D02*
X12520513Y4012353D01*
X12520513Y4012353D02*
X12520513Y4155210D01*
X12520513Y4155210D02*
X12472894Y4345686D01*
X12472894Y4345686D02*
X12425275Y4440924D01*
X12425275Y4440924D02*
X12330037Y4536162D01*
X12330037Y4536162D02*
X12187180Y4583781D01*
X12187180Y4583781D02*
X12091942Y4583781D01*
X12091942Y4583781D02*
X11949085Y4536162D01*
X11949085Y4536162D02*
X11901466Y4488543D01*
X10949085Y3583781D02*
X11520513Y3583781D01*
X11234799Y3583781D02*
X11234799Y4583781D01*
X11234799Y4583781D02*
X11330037Y4440924D01*
X11330037Y4440924D02*
X11425275Y4345686D01*
X11425275Y4345686D02*
X11520513Y4298067D01*
X7522380Y1385867D02*
X7570000Y1433486D01*
X7570000Y1433486D02*
X7617619Y1576343D01*
X7617619Y1576343D02*
X7617619Y1671581D01*
X7617619Y1671581D02*
X7570000Y1814438D01*
X7570000Y1814438D02*
X7474761Y1909676D01*
X7474761Y1909676D02*
X7379523Y1957295D01*
X7379523Y1957295D02*
X7189047Y2004914D01*
X7189047Y2004914D02*
X7046190Y2004914D01*
X7046190Y2004914D02*
X6855714Y1957295D01*
X6855714Y1957295D02*
X6760476Y1909676D01*
X6760476Y1909676D02*
X6665238Y1814438D01*
X6665238Y1814438D02*
X6617619Y1671581D01*
X6617619Y1671581D02*
X6617619Y1576343D01*
X6617619Y1576343D02*
X6665238Y1433486D01*
X6665238Y1433486D02*
X6712857Y1385867D01*
X6617619Y1052533D02*
X6617619Y433486D01*
X6617619Y433486D02*
X6998571Y766819D01*
X6998571Y766819D02*
X6998571Y623962D01*
X6998571Y623962D02*
X7046190Y528724D01*
X7046190Y528724D02*
X7093809Y481105D01*
X7093809Y481105D02*
X7189047Y433486D01*
X7189047Y433486D02*
X7427142Y433486D01*
X7427142Y433486D02*
X7522380Y481105D01*
X7522380Y481105D02*
X7570000Y528724D01*
X7570000Y528724D02*
X7617619Y623962D01*
X7617619Y623962D02*
X7617619Y909676D01*
X7617619Y909676D02*
X7570000Y1004914D01*
X7570000Y1004914D02*
X7522380Y1052533D01*
X11099704Y1709181D02*
X11099704Y899658D01*
X11099704Y899658D02*
X11052085Y804420D01*
X11052085Y804420D02*
X11004466Y756800D01*
X11004466Y756800D02*
X10909228Y709181D01*
X10909228Y709181D02*
X10718752Y709181D01*
X10718752Y709181D02*
X10623514Y756800D01*
X10623514Y756800D02*
X10575895Y804420D01*
X10575895Y804420D02*
X10528276Y899658D01*
X10528276Y899658D02*
X10528276Y1709181D01*
X10147323Y1709181D02*
X9528276Y1709181D01*
X9528276Y1709181D02*
X9861609Y1328229D01*
X9861609Y1328229D02*
X9718752Y1328229D01*
X9718752Y1328229D02*
X9623514Y1280610D01*
X9623514Y1280610D02*
X9575895Y1232991D01*
X9575895Y1232991D02*
X9528276Y1137753D01*
X9528276Y1137753D02*
X9528276Y899658D01*
X9528276Y899658D02*
X9575895Y804420D01*
X9575895Y804420D02*
X9623514Y756800D01*
X9623514Y756800D02*
X9718752Y709181D01*
X9718752Y709181D02*
X10004466Y709181D01*
X10004466Y709181D02*
X10099704Y756800D01*
X10099704Y756800D02*
X10147323Y804420D01*
X13535819Y10199667D02*
X13059628Y10533000D01*
X13535819Y10771095D02*
X12535819Y10771095D01*
X12535819Y10771095D02*
X12535819Y10390143D01*
X12535819Y10390143D02*
X12583438Y10294905D01*
X12583438Y10294905D02*
X12631057Y10247286D01*
X12631057Y10247286D02*
X12726295Y10199667D01*
X12726295Y10199667D02*
X12869152Y10199667D01*
X12869152Y10199667D02*
X12964390Y10247286D01*
X12964390Y10247286D02*
X13012009Y10294905D01*
X13012009Y10294905D02*
X13059628Y10390143D01*
X13059628Y10390143D02*
X13059628Y10771095D01*
X12535819Y9866333D02*
X12535819Y9247286D01*
X12535819Y9247286D02*
X12916771Y9580619D01*
X12916771Y9580619D02*
X12916771Y9437762D01*
X12916771Y9437762D02*
X12964390Y9342524D01*
X12964390Y9342524D02*
X13012009Y9294905D01*
X13012009Y9294905D02*
X13107247Y9247286D01*
X13107247Y9247286D02*
X13345342Y9247286D01*
X13345342Y9247286D02*
X13440580Y9294905D01*
X13440580Y9294905D02*
X13488200Y9342524D01*
X13488200Y9342524D02*
X13535819Y9437762D01*
X13535819Y9437762D02*
X13535819Y9723476D01*
X13535819Y9723476D02*
X13488200Y9818714D01*
X13488200Y9818714D02*
X13440580Y9866333D01*
X12138819Y11183858D02*
X11662628Y11517191D01*
X12138819Y11755286D02*
X11138819Y11755286D01*
X11138819Y11755286D02*
X11138819Y11374334D01*
X11138819Y11374334D02*
X11186438Y11279096D01*
X11186438Y11279096D02*
X11234057Y11231477D01*
X11234057Y11231477D02*
X11329295Y11183858D01*
X11329295Y11183858D02*
X11472152Y11183858D01*
X11472152Y11183858D02*
X11567390Y11231477D01*
X11567390Y11231477D02*
X11615009Y11279096D01*
X11615009Y11279096D02*
X11662628Y11374334D01*
X11662628Y11374334D02*
X11662628Y11755286D01*
X12138819Y10231477D02*
X12138819Y10802905D01*
X12138819Y10517191D02*
X11138819Y10517191D01*
X11138819Y10517191D02*
X11281676Y10612429D01*
X11281676Y10612429D02*
X11376914Y10707667D01*
X11376914Y10707667D02*
X11424533Y10802905D01*
X11138819Y9612429D02*
X11138819Y9517191D01*
X11138819Y9517191D02*
X11186438Y9421953D01*
X11186438Y9421953D02*
X11234057Y9374334D01*
X11234057Y9374334D02*
X11329295Y9326715D01*
X11329295Y9326715D02*
X11519771Y9279096D01*
X11519771Y9279096D02*
X11757866Y9279096D01*
X11757866Y9279096D02*
X11948342Y9326715D01*
X11948342Y9326715D02*
X12043580Y9374334D01*
X12043580Y9374334D02*
X12091200Y9421953D01*
X12091200Y9421953D02*
X12138819Y9517191D01*
X12138819Y9517191D02*
X12138819Y9612429D01*
X12138819Y9612429D02*
X12091200Y9707667D01*
X12091200Y9707667D02*
X12043580Y9755286D01*
X12043580Y9755286D02*
X11948342Y9802905D01*
X11948342Y9802905D02*
X11757866Y9850524D01*
X11757866Y9850524D02*
X11519771Y9850524D01*
X11519771Y9850524D02*
X11329295Y9802905D01*
X11329295Y9802905D02*
X11234057Y9755286D01*
X11234057Y9755286D02*
X11186438Y9707667D01*
X11186438Y9707667D02*
X11138819Y9612429D01*
X6500019Y11114067D02*
X6023828Y11447400D01*
X6500019Y11685495D02*
X5500019Y11685495D01*
X5500019Y11685495D02*
X5500019Y11304543D01*
X5500019Y11304543D02*
X5547638Y11209305D01*
X5547638Y11209305D02*
X5595257Y11161686D01*
X5595257Y11161686D02*
X5690495Y11114067D01*
X5690495Y11114067D02*
X5833352Y11114067D01*
X5833352Y11114067D02*
X5928590Y11161686D01*
X5928590Y11161686D02*
X5976209Y11209305D01*
X5976209Y11209305D02*
X6023828Y11304543D01*
X6023828Y11304543D02*
X6023828Y11685495D01*
X6500019Y10161686D02*
X6500019Y10733114D01*
X6500019Y10447400D02*
X5500019Y10447400D01*
X5500019Y10447400D02*
X5642876Y10542638D01*
X5642876Y10542638D02*
X5738114Y10637876D01*
X5738114Y10637876D02*
X5785733Y10733114D01*
D11*
%TO.C,U2*%
X25996200Y8360000D02*
X27496200Y8360000D01*
X25996200Y6640000D02*
X27496200Y6640000D01*
X28226200Y8100000D02*
X27946200Y8100000D01*
X27946200Y8380000D01*
X28226200Y8100000D01*
G36*
X28226200Y8100000D02*
G01*
X27946200Y8100000D01*
X27946200Y8380000D01*
X28226200Y8100000D01*
G37*
%TO.C,C4*%
X8700380Y7291800D02*
X8419220Y7291800D01*
X8700380Y6271800D02*
X8419220Y6271800D01*
%TO.C,D1*%
X8471000Y8515000D02*
X8471000Y10475000D01*
X8471000Y8515000D02*
X9671000Y8515000D01*
X9671000Y8515000D02*
X9671000Y10475000D01*
%TO.C,J1*%
X437200Y10465000D02*
X437200Y4535000D01*
X4707200Y11735000D02*
X3257200Y11735000D01*
X4707200Y9935000D02*
X4707200Y11735000D01*
X4707200Y5065000D02*
X4707200Y3265000D01*
X4707200Y3265000D02*
X3257200Y3265000D01*
X5697200Y5065000D02*
X4707200Y5065000D01*
%TO.C,C5*%
X24148300Y7640580D02*
X24148300Y7359420D01*
X25168300Y7640580D02*
X25168300Y7359420D01*
%TO.C,C1*%
X12698000Y4331580D02*
X12698000Y4050420D01*
X13718000Y4331580D02*
X13718000Y4050420D01*
%TO.C,C3*%
X6504000Y3828148D02*
X6504000Y4350652D01*
X7974000Y3828148D02*
X7974000Y4350652D01*
%TO.C,U3*%
X9537800Y5624000D02*
X10337800Y5624000D01*
X9537800Y2504000D02*
X10337800Y2504000D01*
X11137800Y5624000D02*
X10337800Y5624000D01*
X11137800Y2504000D02*
X10337800Y2504000D01*
X9277800Y2224000D02*
X8797800Y2224000D01*
X9037800Y2554000D01*
X9277800Y2224000D01*
G36*
X9277800Y2224000D02*
G01*
X8797800Y2224000D01*
X9037800Y2554000D01*
X9277800Y2224000D01*
G37*
%TO.C,R3*%
X12583900Y7882658D02*
X12583900Y7408142D01*
X13628900Y7882658D02*
X13628900Y7408142D01*
%TO.C,R10*%
X11009100Y7882658D02*
X11009100Y7408142D01*
X12054100Y7882658D02*
X12054100Y7408142D01*
%TO.C,R1*%
X6898500Y10168658D02*
X6898500Y9694142D01*
X7943500Y10168658D02*
X7943500Y9694142D01*
%TD*%
M02*
