%TF.GenerationSoftware,KiCad,Pcbnew,8.0.4+1*%
%TF.CreationDate,2024-10-19T01:09:37+00:00*%
%TF.ProjectId,TFHT02,54464854-3032-42e6-9b69-6361645f7063,rev?*%
%TF.SameCoordinates,Original*%
%TF.FileFunction,Soldermask,Bot*%
%TF.FilePolarity,Negative*%
%FSLAX46Y46*%
G04 Gerber Fmt 4.6, Leading zero omitted, Abs format (unit mm)*
G04 Created by KiCad (PCBNEW 8.0.4+1) date 2024-10-19 01:09:37*
%MOMM*%
%LPD*%
G01*
G04 APERTURE LIST*
G04 Aperture macros list*
%AMRoundRect*
0 Rectangle with rounded corners*
0 $1 Rounding radius*
0 $2 $3 $4 $5 $6 $7 $8 $9 X,Y pos of 4 corners*
0 Add a 4 corners polygon primitive as box body*
4,1,4,$2,$3,$4,$5,$6,$7,$8,$9,$2,$3,0*
0 Add four circle primitives for the rounded corners*
1,1,$1+$1,$2,$3*
1,1,$1+$1,$4,$5*
1,1,$1+$1,$6,$7*
1,1,$1+$1,$8,$9*
0 Add four rect primitives between the rounded corners*
20,1,$1+$1,$2,$3,$4,$5,0*
20,1,$1+$1,$4,$5,$6,$7,0*
20,1,$1+$1,$6,$7,$8,$9,0*
20,1,$1+$1,$8,$9,$2,$3,0*%
G04 Aperture macros list end*
%ADD10C,3.000000*%
%ADD11RoundRect,0.050000X0.250000X0.150000X-0.250000X0.150000X-0.250000X-0.150000X0.250000X-0.150000X0*%
%ADD12RoundRect,0.180000X0.495000X0.620000X-0.495000X0.620000X-0.495000X-0.620000X0.495000X-0.620000X0*%
%ADD13RoundRect,0.180000X-0.495000X-0.620000X0.495000X-0.620000X0.495000X0.620000X-0.495000X0.620000X0*%
%ADD14RoundRect,0.250000X-0.250000X-0.275000X0.250000X-0.275000X0.250000X0.275000X-0.250000X0.275000X0*%
%ADD15RoundRect,0.175000X-0.225000X0.175000X-0.225000X-0.175000X0.225000X-0.175000X0.225000X0.175000X0*%
%ADD16RoundRect,0.175000X0.725000X-0.175000X0.725000X0.175000X-0.725000X0.175000X-0.725000X-0.175000X0*%
%ADD17RoundRect,0.275000X1.125000X-0.275000X1.125000X0.275000X-1.125000X0.275000X-1.125000X-0.275000X0*%
%ADD18RoundRect,0.250000X0.275000X-0.250000X0.275000X0.250000X-0.275000X0.250000X-0.275000X-0.250000X0*%
%ADD19RoundRect,0.275000X-0.500000X0.275000X-0.500000X-0.275000X0.500000X-0.275000X0.500000X0.275000X0*%
%ADD20RoundRect,0.175000X-0.537500X-0.175000X0.537500X-0.175000X0.537500X0.175000X-0.537500X0.175000X0*%
%ADD21RoundRect,0.225000X0.300000X-0.225000X0.300000X0.225000X-0.300000X0.225000X-0.300000X-0.225000X0*%
G04 APERTURE END LIST*
D10*
%TO.C,M4*%
X12500000Y15000000D03*
%TD*%
%TO.C,M2*%
X12500000Y0D03*
%TD*%
%TO.C,M6*%
X2500000Y15000000D03*
%TD*%
%TO.C,M5*%
X22500000Y0D03*
%TD*%
%TO.C,M1*%
X22500000Y15000000D03*
%TD*%
%TO.C,M3*%
X2500000Y0D03*
%TD*%
D11*
%TO.C,U2*%
X27446200Y7900000D03*
X27446200Y7100000D03*
X26046200Y7100000D03*
X26046200Y7900000D03*
%TD*%
D12*
%TO.C,D2*%
X10300000Y13000000D03*
D13*
X6700000Y13000000D03*
%TD*%
D14*
%TO.C,C4*%
X7784800Y6781800D03*
X9334800Y6781800D03*
%TD*%
D15*
%TO.C,D1*%
X9071000Y9075000D03*
X9071000Y10475000D03*
%TD*%
D16*
%TO.C,J1*%
X4847200Y5625000D03*
X4847200Y6875000D03*
X4847200Y8125000D03*
X4847200Y9375000D03*
D17*
X1647200Y3775000D03*
X1647200Y11225000D03*
%TD*%
D18*
%TO.C,C5*%
X24658300Y6725000D03*
X24658300Y8275000D03*
%TD*%
%TO.C,C1*%
X13208000Y3416000D03*
X13208000Y4966000D03*
%TD*%
D19*
%TO.C,C3*%
X7239000Y5039400D03*
X7239000Y3139400D03*
%TD*%
D20*
%TO.C,U3*%
X9200300Y3114000D03*
X9200300Y4064000D03*
X9200300Y5014000D03*
X11475300Y5014000D03*
X11475300Y3114000D03*
%TD*%
D21*
%TO.C,R3*%
X13106400Y6820400D03*
X13106400Y8470400D03*
%TD*%
%TO.C,R10*%
X11531600Y6820400D03*
X11531600Y8470400D03*
%TD*%
%TO.C,R1*%
X7421000Y9106400D03*
X7421000Y10756400D03*
%TD*%
M02*
