M48
; DRILL file {KiCad 8.0.4+1} date 2024-10-19T01:09:37+0000
; FORMAT={3:3/ absolute / metric / suppress leading zeros}
; #@! TF.CreationDate,2024-10-19T01:09:37+00:00
; #@! TF.GenerationSoftware,Kicad,Pcbnew,8.0.4+1
; #@! TF.FileFunction,Plated,1,2,PTH
FMAT,2
METRIC,TZ
; #@! TA.AperFunction,Plated,PTH,ViaDrill
T1C0.400
%
G90
G05
T1
X762Y7620
X788Y6433
X928Y8890
X1049Y5405
X1143Y12827
X1143Y2286
X1539Y9853
X2159Y12827
X2286Y2286
X2540Y6096
X3175Y12827
X3346Y8494
X3429Y2286
X3441Y7458
X3937Y12065
X4064Y10668
X4191Y4318
X4191Y3175
X5080Y10668
X6350Y9398
X9725Y11129
X10414Y8890
X10414Y6604
X12319Y6820
X13143Y2428
X25527Y6680
X25730Y8814
M30
